<?xml version="1.0" encoding="utf-8"?>
<!-- Generator: Adobe Illustrator 17.1.0, SVG Export Plug-In . SVG Version: 6.00 Build 0)  -->
<!DOCTYPE svg PUBLIC "-//W3C//DTD SVG 1.1//EN" "http://www.w3.org/Graphics/SVG/1.1/DTD/svg11.dtd">
<svg version="1.1" id="Layer_1" xmlns="http://www.w3.org/2000/svg" xmlns:xlink="http://www.w3.org/1999/xlink" x="0px" y="0px"
	 viewBox="0 0 28 28" enable-background="new 0 0 28 28" xml:space="preserve">
<g>
	<defs>
		<rect id="SVGID_1_" width="28" height="28"/>
	</defs>
	<clipPath id="SVGID_2_">
		<use xlink:href="#SVGID_1_"  overflow="visible"/>
	</clipPath>
	<path clip-path="url(#SVGID_2_)" d="M20.001,0c-1.123,0-2.082,1.911-2.502,5h5C22.079,1.911,21.12,0,20.001,0 M23.999,6h-8v3h8V6z
		 M10.433,10.65l0.549-2.973c0.164,0.028,0.324,0.042,0.486,0.042c0.605,0,1.197-0.199,1.713-0.555
		c0.824-0.566,1.461-1.529,1.676-2.697c0.386-2.098-0.729-4.063-2.492-4.387c-0.168-0.031-0.334-0.047-0.502-0.047
		c-0.608,0-1.198,0.201-1.713,0.556c-0.827,0.568-1.461,1.53-1.676,2.697c-0.096,0.515-0.1,1.017-0.027,1.491
		c0.001,0.004,0.001,0.006,0.001,0.01c0.006,0.041,0.016,0.08,0.022,0.122c0.371,1.924,0.369,3.309,0.238,4.287
		c-0.603-0.801-1.316-2.115-1.91-4.26c-0.01-0.04-0.021-0.079-0.033-0.118c0-0.003-0.002-0.005-0.002-0.008
		C6.616,4.352,6.39,3.902,6.077,3.484C5.366,2.534,4.368,1.953,3.38,1.811C3.218,1.788,3.058,1.776,2.9,1.776
		c-0.623,0-1.227,0.181-1.735,0.561C-0.268,3.411-0.397,5.666,0.88,7.375c0.711,0.95,1.707,1.53,2.699,1.673
		c0.159,0.023,0.319,0.035,0.477,0.035c0.617,0,1.215-0.179,1.721-0.551l2.13,2.851c-5.052,7.926-0.089,13.443-0.089,13.443
		l2.007-10.88l6.397,8.552C16.222,22.498,18.175,15.506,10.433,10.65 M4.747,7.124C4.527,7.29,4.275,7.338,4.056,7.338
		c-0.082,0-0.16-0.008-0.229-0.017c-0.576-0.083-1.14-0.444-1.548-0.993C1.591,5.41,1.56,4.221,2.21,3.733
		C2.433,3.568,2.683,3.52,2.9,3.52c0.084,0,0.16,0.007,0.23,0.017C3.697,3.619,4.277,3.99,4.681,4.529
		C5.366,5.448,5.398,6.638,4.747,7.124 M10.189,3.605c0.123-0.664,0.476-1.253,0.949-1.579c0.174-0.12,0.432-0.249,0.728-0.249
		c0.059,0,0.122,0.005,0.184,0.018c0.799,0.148,1.299,1.226,1.092,2.355c-0.125,0.673-0.471,1.248-0.951,1.577
		c-0.174,0.12-0.43,0.249-0.727,0.249c-0.06,0-0.121-0.006-0.183-0.017C10.48,5.811,9.98,4.732,10.189,3.605 M24.011,10H15.99
		c-0.627,0.374-1.344,0.873-1.995,1.512c4.213,4.079,4.364,9.029,3.704,11.389l-0.819,2.937l-1.826-2.442l-3.055-4.082v4.672
		c0,2.014,2,4.014,5,4.014h6c3,0,5-2,5-4.014v-8.032C27.999,12.896,25.689,11,24.011,10"/>
</g>
</svg>
