<?xml version="1.0" encoding="utf-8"?>
<!-- Generator: Adobe Illustrator 17.1.0, SVG Export Plug-In . SVG Version: 6.00 Build 0)  -->
<!DOCTYPE svg PUBLIC "-//W3C//DTD SVG 1.1//EN" "http://www.w3.org/Graphics/SVG/1.1/DTD/svg11.dtd">
<svg version="1.1" id="Layer_1" xmlns="http://www.w3.org/2000/svg" xmlns:xlink="http://www.w3.org/1999/xlink" x="0px" y="0px"
	 viewBox="0 0 28 28" enable-background="new 0 0 28 28" xml:space="preserve">
<path d="M0,4.002V28h18v-2.998H9v-3H3v-1.001h6v-1.999H3v-1h6v-2H3v-1h6v-2H3v-1.001h6V4.002H0z M13,20.002h12.001v1H13V20.002z
	 M13,17.002h12.001v1H13V17.002z M13,14.002h12.001v1H13V14.002z M13,11.002h12.001v1H13V11.002z M10,0.002v24h18v-16h-8v-8H10z
	 M21,7.002h7l-7-7V7.002z"/>
</svg>
