<?xml version="1.0" encoding="utf-8"?>
<!-- Generator: Adobe Illustrator 17.1.0, SVG Export Plug-In . SVG Version: 6.00 Build 0)  -->
<!DOCTYPE svg PUBLIC "-//W3C//DTD SVG 1.1//EN" "http://www.w3.org/Graphics/SVG/1.1/DTD/svg11.dtd">
<svg version="1.1" id="Layer_1" xmlns="http://www.w3.org/2000/svg" xmlns:xlink="http://www.w3.org/1999/xlink" x="0px" y="0px"
	 viewBox="0 0 28 28" enable-background="new 0 0 28 28" xml:space="preserve">
<g>
	<defs>
		<rect id="SVGID_1_" width="28" height="28"/>
	</defs>
	<clipPath id="SVGID_2_">
		<use xlink:href="#SVGID_1_"  overflow="visible"/>
	</clipPath>
	<path clip-path="url(#SVGID_2_)" d="M11,24.75c3.728,0,6.75-3.021,6.75-6.75c0-3.728-3.022-6.75-6.75-6.75
		c-3.729,0-6.75,3.022-6.75,6.75C4.25,21.729,7.271,24.75,11,24.75 M11,13.25c2.275,0,4.178,1.61,4.639,3.75H12v2h3.639
		c-0.461,2.14-2.364,3.75-4.639,3.75c-2.619,0-4.75-2.13-4.75-4.75C6.25,15.381,8.381,13.25,11,13.25 M0,28h22V8H0V28z M11,10
		c4.42,0,8,3.581,8,8s-3.58,8-8,8c-4.418,0-8-3.581-8-8S6.582,10,11,10 M23,7h5V0h-5V7z M0,7h22V0H0V7z M8.502,2
		C9.328,2,10,2.673,10,3.5C10,4.329,9.328,5,8.502,5C7.674,5,7,4.329,7,3.5C7,2.673,7.674,2,8.502,2 M4.502,2C5.33,2,6,2.673,6,3.5
		C6,4.329,5.33,5,4.502,5C3.672,5,3,4.329,3,3.5C3,2.673,3.672,2,4.502,2 M23,28h5V8h-5V28z"/>
</g>
</svg>
