<?xml version="1.0" encoding="utf-8"?>
<!-- Generator: Adobe Illustrator 17.1.0, SVG Export Plug-In . SVG Version: 6.00 Build 0)  -->
<!DOCTYPE svg PUBLIC "-//W3C//DTD SVG 1.1//EN" "http://www.w3.org/Graphics/SVG/1.1/DTD/svg11.dtd">
<svg version="1.1" id="Layer_1" xmlns="http://www.w3.org/2000/svg" xmlns:xlink="http://www.w3.org/1999/xlink" x="0px" y="0px"
	 viewBox="0 0 28 28" enable-background="new 0 0 28 28" xml:space="preserve">
<g>
	<defs>
		<rect id="SVGID_1_" width="28" height="28"/>
	</defs>
	<clipPath id="SVGID_2_">
		<use xlink:href="#SVGID_1_"  overflow="visible"/>
	</clipPath>
	<path clip-path="url(#SVGID_2_)" d="M19.131,18.616l-0.016,0.008c-0.084-0.176-0.195-0.354-0.357-0.566
		c-0.096-0.125-0.201-0.244-0.313-0.356l-0.086-0.09c-0.039-0.036-0.082-0.072-0.123-0.107c-0.088-0.074-0.179-0.15-0.279-0.217
		c-0.096-0.064-0.197-0.118-0.301-0.172c-0.047-0.025-0.09-0.048-0.133-0.068l-0.109-0.043c-0.141-0.056-0.271-0.098-0.391-0.124
		c-0.222-0.051-0.394-0.07-0.546-0.063l-0.002-0.016c-0.637,0.06-2.262-0.178-3.602-1.488c-0.01-0.01-0.019-0.02-0.029-0.03
		c-1.309-1.307-1.684-3.086-1.698-3.733h-0.015c-0.01-0.19-0.047-0.398-0.115-0.653c-0.041-0.155-0.096-0.301-0.155-0.446
		l-0.043-0.105c-0.025-0.06-0.05-0.106-0.076-0.154c-0.055-0.103-0.109-0.209-0.176-0.306c-0.066-0.097-0.138-0.186-0.214-0.275
		c-0.041-0.045-0.069-0.08-0.1-0.111l-0.084-0.08c-0.113-0.107-0.219-0.196-0.32-0.267c-0.186-0.13-0.34-0.215-0.487-0.265
		l0.006-0.02C8.738,8.687,7.342,7.863,6.578,6.106C6.445,5.812,6.352,5.475,6.281,5.117C5.633,5.637,5.01,6.183,4.434,6.76
		C3.443,7.75,2.648,8.76,2,9.778c0.82,2.718,3.137,6.48,6.887,10.229c3.117,3.116,6.244,5.245,8.771,6.345
		c1.209-0.695,2.41-1.614,3.584-2.786c0.584-0.584,1.129-1.217,1.653-1.874c-0.25-0.056-0.493-0.129-0.717-0.222
		C20.426,20.748,19.393,19.223,19.131,18.616 M14.455,0.798c-2.143,0.642-4.301,1.65-6.275,2.94L7.213,4.406
		c0.045,0.456,0.141,0.899,0.312,1.281c0.707,1.628,2.039,2.17,2.163,2.216l0.015,0.006c0.24,0.084,0.473,0.211,0.738,0.396
		c0.145,0.102,0.293,0.223,0.446,0.37c0.058,0.055,0.088,0.082,0.115,0.112c0.037,0.039,0.08,0.087,0.121,0.135
		c0.121,0.14,0.217,0.258,0.303,0.388c0.086,0.127,0.162,0.264,0.234,0.404c0.035,0.066,0.07,0.131,0.1,0.2
		c0.011,0.026,0.027,0.062,0.041,0.099c0.103,0.248,0.166,0.434,0.217,0.615c0.087,0.329,0.136,0.605,0.15,0.872l0.002,0.036
		c0.017,0.201,0.211,1.82,1.404,3.015c0.008,0.008,0.018,0.015,0.026,0.025c1.238,1.209,2.664,1.212,2.8,1.209h0.02
		c0.252-0.015,0.517,0.012,0.834,0.086c0.172,0.038,0.351,0.096,0.545,0.173c0.076,0.029,0.113,0.043,0.152,0.061
		c0.055,0.025,0.115,0.055,0.178,0.086c0.144,0.078,0.279,0.15,0.41,0.238c0.127,0.088,0.248,0.185,0.367,0.285
		c0.059,0.051,0.115,0.099,0.168,0.149c0.024,0.021,0.049,0.048,0.076,0.077c0.188,0.191,0.317,0.339,0.434,0.489
		c0.205,0.27,0.355,0.511,0.469,0.756l0.017,0.036c0.1,0.192,0.887,1.625,2.506,2.292c0.324,0.136,0.672,0.215,1.026,0.257
		l0.359-0.5c1.367-1.994,2.447-4.194,3.144-6.39c-2.167-1.289-4.49-3.1-6.74-5.351C17.768,5.932,15.752,3.236,14.455,0.798
		 M13.049,5.906c-0.406,0.406-1.063,0.406-1.467,0c-0.406-0.404-0.406-1.059,0-1.466c0.404-0.405,1.061-0.405,1.467,0
		C13.453,4.847,13.453,5.503,13.049,5.906 M17.508,11.957c-0.404,0.406-1.061,0.406-1.467,0c-0.404-0.404-0.404-1.061,0-1.465
		c0.406-0.406,1.063-0.406,1.467,0C17.914,10.896,17.914,11.552,17.508,11.957 M22.031,15.012c0.405-0.404,1.063-0.404,1.467,0
		c0.404,0.406,0.404,1.062,0,1.468c-0.404,0.403-1.062,0.403-1.467,0C21.627,16.075,21.627,15.418,22.031,15.012 M1.24,11.121
		c-2.385,4.835-1.187,9.706,2.373,13.266c3.426,3.426,8.073,4.667,12.729,2.626c-2.578-1.277-5.483-3.394-8.276-6.186
		C4.744,17.503,2.363,14.019,1.24,11.121 M25.75,2.25c-2.326-2.326-6.145-2.722-10.143-1.768c1.207,2.204,3.067,4.716,5.579,7.227
		c2.144,2.146,4.293,3.815,6.248,5.012C28.492,8.606,28.143,4.642,25.75,2.25"/>
</g>
</svg>
