<?xml version="1.0" encoding="utf-8"?>
<!-- Generator: Adobe Illustrator 17.1.0, SVG Export Plug-In . SVG Version: 6.00 Build 0)  -->
<!DOCTYPE svg PUBLIC "-//W3C//DTD SVG 1.1//EN" "http://www.w3.org/Graphics/SVG/1.1/DTD/svg11.dtd">
<svg version="1.1" id="Layer_1" xmlns="http://www.w3.org/2000/svg" xmlns:xlink="http://www.w3.org/1999/xlink" x="0px" y="0px"
	 viewBox="0 0 28 28" enable-background="new 0 0 28 28" xml:space="preserve">
<g>
	<defs>
		<rect id="SVGID_1_" width="28" height="28"/>
	</defs>
	<clipPath id="SVGID_2_">
		<use xlink:href="#SVGID_1_"  overflow="visible"/>
	</clipPath>
	<path clip-path="url(#SVGID_2_)" d="M5,28h17V0H5V28z M13.646,18.835l-0.017,0.044c-0.051,0.124-0.254,0.618-1.131,2.747
		l-0.369,0.892l-0.049,0.056c-0.248,0.353-0.721,0.495-1.113,0.34l-0.246-0.1l-0.227-0.116l2.168-5.236l0.457,0.189
		C13.584,17.846,13.812,18.369,13.646,18.835 M18.094,5.663c0.402,0.167,0.64,0.601,0.562,1.034l-0.07,0.236
		c-1.176,2.822-1.401,3.361-1.447,3.474c-0.192,0.462-0.762,0.697-1.225,0.508l-0.461-0.191l2.172-5.243L18.094,5.663z
		 M9.281,12.103c1.805-4.499,3.912-6.161,5.365-6.763c0.696-0.288,1.241-0.331,1.581-0.315l0.429,0.083l-2.164,5.229l-0.105,0.065
		c-0.244,0.156-0.584,0.722-1.018,1.527c-0.256,0.473-0.514,1.016-0.746,1.572c-0.227,0.554-0.428,1.119-0.584,1.635
		c-0.312,1.05-0.414,1.555-0.357,1.799l0.027,0.121l-2.143,5.172L9.17,22.026c-0.258-0.235-0.611-0.656-0.897-1.356
		C7.684,19.219,7.377,16.556,9.281,12.103 M0,28h4V0H0V28z M26,28h2V0h-2V28z M23,28h2V0h-2V28z"/>
</g>
</svg>
