<?xml version="1.0" encoding="utf-8"?>
<!-- Generator: Adobe Illustrator 17.1.0, SVG Export Plug-In . SVG Version: 6.00 Build 0)  -->
<!DOCTYPE svg PUBLIC "-//W3C//DTD SVG 1.1//EN" "http://www.w3.org/Graphics/SVG/1.1/DTD/svg11.dtd">
<svg version="1.1" id="Layer_1" xmlns="http://www.w3.org/2000/svg" xmlns:xlink="http://www.w3.org/1999/xlink" x="0px" y="0px"
	 viewBox="0 0 28 28" enable-background="new 0 0 28 28" xml:space="preserve">
<path d="M9,28h19V9H9V28z M0,0v28h7v-2H3v-1h4v-2.001H5V22h2v-2H3v-1h4v-2H5v-1h2v-2.001H3V13h4v-2H5v-1h2V8H3V7h4V3h1v4h2V4.999h1
	V7h2V3h1v4h2V4.999h1V7h2V3h1v4h2V4.999h1V7h2V3h1v4h2V0H0z"/>
</svg>
