<?xml version="1.0" encoding="utf-8"?>
<!-- Generator: Adobe Illustrator 17.1.0, SVG Export Plug-In . SVG Version: 6.00 Build 0)  -->
<!DOCTYPE svg PUBLIC "-//W3C//DTD SVG 1.1//EN" "http://www.w3.org/Graphics/SVG/1.1/DTD/svg11.dtd">
<svg version="1.1" id="Layer_1" xmlns="http://www.w3.org/2000/svg" xmlns:xlink="http://www.w3.org/1999/xlink" x="0px" y="0px"
	 viewBox="0 0 28 28" enable-background="new 0 0 28 28" xml:space="preserve">
<g>
	<defs>
		<rect id="SVGID_1_" width="28" height="28"/>
	</defs>
	<clipPath id="SVGID_2_">
		<use xlink:href="#SVGID_1_"  overflow="visible"/>
	</clipPath>
	<path clip-path="url(#SVGID_2_)" d="M21,5v6h2v2l-7,2V6h3l-5-6L9,6h3v11l-7-3v-1.35c1.18-0.563,2-1.756,2-3.15
		C7,7.567,5.434,6,3.5,6C1.568,6,0,7.567,0,9.5c0,1.394,0.822,2.587,2,3.15V16l10,4v1.634c-0.904,0.633-1.5,1.678-1.5,2.866
		c0,1.933,1.568,3.5,3.5,3.5c1.934,0,3.5-1.567,3.5-3.5c0-1.188-0.594-2.233-1.5-2.866v-3.611L26,15v-4h2V5H21z"/>
</g>
</svg>
