<?xml version="1.0" encoding="utf-8"?>
<!-- Generator: Adobe Illustrator 17.1.0, SVG Export Plug-In . SVG Version: 6.00 Build 0)  -->
<!DOCTYPE svg PUBLIC "-//W3C//DTD SVG 1.1//EN" "http://www.w3.org/Graphics/SVG/1.1/DTD/svg11.dtd">
<svg version="1.1" id="Layer_1" xmlns="http://www.w3.org/2000/svg" xmlns:xlink="http://www.w3.org/1999/xlink" x="0px" y="0px"
	 viewBox="0 0 28 28" enable-background="new 0 0 28 28" xml:space="preserve">
<g>
	<defs>
		<rect id="SVGID_1_" width="28" height="28"/>
	</defs>
	<clipPath id="SVGID_2_">
		<use xlink:href="#SVGID_1_"  overflow="visible"/>
	</clipPath>
	<path clip-path="url(#SVGID_2_)" d="M0,28.101v-7c3.866,0,7,3.135,7,7H0z M9,28.101c0-4.963-4.037-9-9-9v-5c7.731,0,14,6.268,14,14
		H9z M16,28.101c0-8.822-7.178-16-16-16v-5c11.599,0,21,9.4,21,21H16z M23,28.101c0-12.683-10.317-23-23-23v-5.202
		c15.467,0,28,12.622,28,28.202H23z"/>
</g>
</svg>
