<?xml version="1.0" encoding="utf-8"?>
<svg version="1.1" id="Layer_1" xmlns="http://www.w3.org/2000/svg" xmlns:xlink="http://www.w3.org/1999/xlink" x="0px" y="0px" viewBox="0 0 28 28"
	 enable-background="new 0 0 28 28" xml:space="preserve">

	<g>
		<defs>
			<rect id="SVGID_1_" width="28" height="28"/>
		</defs>
		<clipPath id="SVGID_2_">
			<use xlink:href="#SVGID_1_"  overflow="visible"/>
		</clipPath>
		<path clip-path="url(#SVGID_2_)" fill="#231F20" d="M22,3c-0.553,0-1,0.447-1,1v1h-2V4c0-0.553-0.447-1-1-1c-0.553,0-1,0.447-1,1
			v1h-2V4c0-0.553-0.447-1-1-1c-0.553,0-1,0.447-1,1v1H9V4c0-0.553-0.447-1-1-1S7,3.447,7,4c0-0.553-0.447-1-1-1
			C5.447,3,5,3.447,5,4v4c0,0.553,0.447,1,1,1c0.553,0,1-0.447,1-1c0,0.553,0.447,1,1,1s1-0.447,1-1V7h4v1c0,0.553,0.447,1,1,1
			c0.553,0,1-0.447,1-1V7h2v1c0,0.553,0.447,1,1,1c0.553,0,1-0.447,1-1V7h2v1c0,0.553,0.447,1,1,1c0.553,0,1-0.447,1-1V4
			C23,3.447,22.553,3,22,3"/>
		<path clip-path="url(#SVGID_2_)" fill="#231F20" d="M22,11c-0.553,0-1,0.447-1,1v1h-6v-1c0-0.553-0.447-1-1-1
			c-0.553,0-1,0.447-1,1v1h-2v-1c0-0.553-0.447-1-1-1s-1,0.447-1,1c0-0.553-0.447-1-1-1s-1,0.447-1,1c0-0.553-0.447-1-1-1
			c-0.553,0-1,0.447-1,1v4c0,0.553,0.447,1,1,1c0.553,0,1-0.447,1-1c0,0.553,0.447,1,1,1s1-0.447,1-1c0,0.553,0.447,1,1,1
			s1-0.447,1-1v-1h2v1c0,0.553,0.447,1,1,1c0.553,0,1-0.447,1-1v-1h6v1c0,0.553,0.447,1,1,1c0.553,0,1-0.447,1-1v-4
			C23,11.447,22.553,11,22,11"/>
		<path clip-path="url(#SVGID_2_)" fill="#231F20" d="M22,18c-0.553,0-1,0.447-1,1c0-0.553-0.447-1-1-1c-0.553,0-1,0.447-1,1v1h-8
			v-1c0-0.553-0.447-1-1-1s-1,0.447-1,1c0-0.553-0.447-1-1-1s-1,0.447-1,1c0-0.553-0.447-1-1-1c-0.553,0-1,0.447-1,1v4
			c0,0.553,0.447,1,1,1c0.553,0,1-0.447,1-1c0,0.553,0.447,1,1,1s1-0.447,1-1c0,0.553,0.447,1,1,1s1-0.447,1-1v-1h8v1
			c0,0.553,0.447,1,1,1c0.553,0,1-0.447,1-1c0,0.553,0.447,1,1,1c0.553,0,1-0.447,1-1v-4C23,18.447,22.553,18,22,18"/>
		<path clip-path="url(#SVGID_2_)" fill="#231F20" d="M2,0C0.895,0,0,0.896,0,2v26h4V2C4,0.896,3.104,0,2,0"/>
		<path clip-path="url(#SVGID_2_)" fill="#231F20" d="M26,0c-1.105,0-2,0.896-2,2v26h4V2C28,0.896,27.104,0,26,0"/>
	</g>
</svg>
