<?xml version="1.0" encoding="utf-8"?>
<svg version="1.1" id="Layer_1" 
xmlns="http://www.w3.org/2000/svg" xmlns:xlink="http://www.w3.org/1999/xlink" x="0px" y="0px" viewBox="0 0 28 28"
	 enable-background="new 0 0 28 28" xml:space="preserve">
	<g>
		<defs>
			<rect id="SVGID_1_" width="28" height="28"/>
		</defs>
		<clipPath id="SVGID_2_">
			<use xlink:href="#SVGID_1_"  overflow="visible"/>
		</clipPath>
		<path clip-path="url(#SVGID_2_)" fill="#231F20" d="M3.104,9.104c-4.462,4.462-2.801,11.704-2.801,11.704
			c0.485,2.113,0.801,4.409,0.703,5.103c-0.097,0.693,0.39,1.181,1.084,1.083c0.693-0.098,2.989,0.218,5.102,0.703
			c0,0,7.242,1.661,11.704-2.801l4.692-4.691L7.795,4.413L3.104,9.104z"/>
		<path clip-path="url(#SVGID_2_)" fill="#231F20" d="M24.014,5.845l1.987-1.987c0.511-0.511,0.511-1.347,0-1.858
			s-1.347-0.511-1.858,0l-1.987,1.987c-4.793-4.081-11.062-4.73-12.502-3.29L8.725,1.626c-0.511,0.511-0.511,1.347,0,1.858
			l15.792,15.792c0.511,0.511,1.347,0.511,1.858,0l0.929-0.928C28.744,16.908,28.095,10.638,24.014,5.845"/>
	</g>
</svg>
