<?xml version="1.0" encoding="utf-8"?>
<svg version="1.1" id="Layer_1" xmlns="http://www.w3.org/2000/svg" xmlns:xlink="http://www.w3.org/1999/xlink" x="0px" y="0px"
	 viewBox="0 0 28 28" enable-background="new 0 0 28 28" xml:space="preserve">
<g>
	<defs>
		<rect id="SVGID_1_" width="28" height="28"/>
	</defs>
	<clipPath id="SVGID_2_">
		<use xlink:href="#SVGID_1_"  overflow="visible"/>
	</clipPath>
	<path clip-path="url(#SVGID_2_)" d="M14,0C6.267,0,0,4.713,0,12.445C0,20.176,14,28,14,28s14-7.824,14-15.555
		C28,4.713,21.73,0,14,0 M7.926,18.462c-2.01-1.329-2.489-4.145-2.489-4.145s2.778-0.66,4.785,0.669
		c2.012,1.328,2.489,4.143,2.489,4.143S9.933,19.791,7.926,18.462 M20.074,18.462c-2.008,1.329-4.785,0.667-4.785,0.667
		s0.478-2.815,2.486-4.143c2.01-1.329,4.787-0.669,4.787-0.669S22.084,17.133,20.074,18.462"/>
</g>
</svg>
