<?xml version="1.0" encoding="utf-8"?>
<svg version="1.1" id="Layer_1" xmlns="http://www.w3.org/2000/svg" xmlns:xlink="http://www.w3.org/1999/xlink" x="0px" y="0px" viewBox="0 0 28 28"
	 enable-background="new 0 0 28 28" xml:space="preserve">
		<g>
			<defs>
				<rect id="SVGID_1_" width="28" height="28"/>
			</defs>
			<clipPath id="SVGID_2_">
				<use xlink:href="#SVGID_1_"  overflow="visible"/>
			</clipPath>
			<path clip-path="url(#SVGID_2_)" fill="#231F20" d="M28,9c-3,2.917-4.966,3.014-8,2c-2.992-1-4.888-0.978-6.916,0.419
				c-1.711-0.187-6.009-1.007-6.009-4.474c0-3.703,3.36-4.808,4.331-5.051c-0.789,0.729-1.288,1.735-1.288,2.858
				c0,2.223,1.917,4.026,4.281,4.026c2.363,0,4.279-1.803,4.279-4.026c0-1.694-1.115-3.136-2.69-3.732
				C14.569,0.377,12.886,0,11.072,0C6.045,0,2,2.467,2,6c0,2.276,1.664,4.664,4.209,5.799C2.482,13.236,0,16,0,19
				c0,4.744,5.17,9,11.631,9c7.719,0,11.302-4,11.302-8.958c0-1.044-0.367-2.033-0.833-2.959C28,16.042,28,9,28,9 M18.891,22.39
				c-0.077,0.096-0.166,0.181-0.249,0.271c-0.078,0.083-0.147,0.175-0.229,0.251c-1.235,1.202-3.004,1.915-5.011,1.915
				c-3.735,0-6.765-2.628-6.765-5.871c0-2.584,1.93-4.773,4.606-5.557c-1.934,2.679-0.73,5.504-0.73,5.504
				c0.079-0.214,0.166-0.401,0.252-0.59c0.666-1.642,2.36-2.814,4.363-2.814c2.581,0,4.674,1.941,4.674,4.333
				c0,0.959-0.347,1.837-0.915,2.554L18.891,22.39z"/>
		</g>
</svg>
