<?xml version="1.0" encoding="utf-8"?>
<svg version="1.1" id="Layer_1" xmlns="http://www.w3.org/2000/svg" xmlns:xlink="http://www.w3.org/1999/xlink" x="0px" y="0px"
	 viewBox="0 0 28 28" enable-background="new 0 0 28 28" xml:space="preserve">
<g>
	<defs>
		<rect id="SVGID_1_" width="28" height="28"/>
	</defs>
	<clipPath id="SVGID_2_">
		<use xlink:href="#SVGID_1_"  overflow="visible"/>
	</clipPath>
	<path clip-path="url(#SVGID_2_)" d="M18.668,17l3.012,2.952C20.928,21.778,19,23.146,16,23.655V8.843
		c2-0.764,2.631-2.345,2.631-4.177C18.631,2.089,16.559,0,13.982,0c-2.578,0-4.621,2.089-4.621,4.666C9.361,6.498,10,8.079,12,8.843
		v14.812c-3-0.509-4.926-1.877-5.68-3.703L9.334,17H0v9.14l3.236-3.24C5.271,25.932,9.326,28,14,28s8.728-2.068,10.764-5.1L28,26.14
		V17H18.668z M14,6.222c-0.857,0-1.555-0.698-1.555-1.556c0-0.857,0.698-1.555,1.555-1.555c0.857,0,1.557,0.698,1.557,1.555
		C15.557,5.524,14.857,6.222,14,6.222"/>
</g>
</svg>
