<?xml version="1.0" encoding="utf-8"?>
<svg version="1.1" id="Layer_1" xmlns="http://www.w3.org/2000/svg" xmlns:xlink="http://www.w3.org/1999/xlink" x="0px" y="0px" viewBox="0 0 28 28"
	 enable-background="new 0 0 28 28" xml:space="preserve">

		<g>
			<defs>
				<rect id="SVGID_1_" width="28" height="28"/>
			</defs>
			<clipPath id="SVGID_2_">
				<use xlink:href="#SVGID_1_"  overflow="visible"/>
			</clipPath>
			<path clip-path="url(#SVGID_2_)" fill="#231F20" d="M17,8c0-1.657-1.344-3-3-3c-1.657,0-3,1.343-3,3
				c0,0.999,0.493,1.877,1.243,2.423L3.959,28h3.413l1.644-3.535L14,20.631l4.984,3.834L20.628,28h3.413l-8.285-17.577
				C16.507,9.877,17,8.999,17,8 M14,7c0.552,0,1,0.448,1,1s-0.448,1-1,1c-0.553,0-1-0.448-1-1S13.448,7,14,7 M9.931,22.5
				l1.713-3.682L13.18,20L9.931,22.5z M18.069,22.5L14.821,20l1.536-1.182L18.069,22.5z M15.925,17.889L14,19.369l-1.925-1.48
				L14,13.753L15.925,17.889z"/>
			<path clip-path="url(#SVGID_2_)" fill="#231F20" d="M24.597,0.113c-0.195-0.169-0.492-0.146-0.66,0.05
				c-0.169,0.198-0.146,0.494,0.051,0.661c1.954,1.673,3.074,4.106,3.074,6.676c0,2.569-1.12,5.002-3.073,6.674
				c-0.197,0.169-0.22,0.464-0.052,0.662C24.03,14.944,24.162,15,24.294,15c0.108,0,0.215-0.038,0.304-0.113
				C26.761,13.036,28,10.344,28,7.5S26.761,1.963,24.597,0.113"/>
			<path clip-path="url(#SVGID_2_)" fill="#231F20" d="M24.062,7.5c0,2.029-0.885,3.949-2.426,5.268
				c-0.196,0.168-0.22,0.464-0.052,0.661c0.094,0.108,0.225,0.164,0.357,0.164c0.107,0,0.217-0.038,0.305-0.112
				c1.75-1.498,2.753-3.678,2.753-5.981c0-2.304-1.003-4.484-2.754-5.982c-0.197-0.167-0.493-0.145-0.662,0.052
				c-0.168,0.197-0.144,0.493,0.052,0.661C23.177,3.551,24.062,5.471,24.062,7.5"/>
			<path clip-path="url(#SVGID_2_)" fill="#231F20" d="M20.727,7.5c0,1.306-0.569,2.542-1.562,3.393
				c-0.196,0.17-0.219,0.465-0.05,0.661c0.092,0.109,0.223,0.164,0.355,0.164c0.109,0,0.217-0.037,0.305-0.112
				c1.201-1.03,1.889-2.527,1.889-4.106c0-1.582-0.689-3.078-1.89-4.107c-0.195-0.167-0.491-0.145-0.66,0.052
				c-0.169,0.197-0.146,0.492,0.05,0.661C20.158,4.956,20.727,6.192,20.727,7.5"/>
			<path clip-path="url(#SVGID_2_)" fill="#231F20" d="M4.011,14.175C2.057,12.503,0.938,10.069,0.938,7.5s1.12-5.002,3.073-6.675
				c0.197-0.168,0.22-0.463,0.052-0.661C3.969,0.055,3.837,0,3.706,0C3.597,0,3.49,0.038,3.401,0.113C1.238,1.964,0,4.656,0,7.5
				s1.238,5.537,3.402,7.387c0.195,0.168,0.492,0.146,0.66-0.051C4.231,14.639,4.208,14.343,4.011,14.175"/>
			<path clip-path="url(#SVGID_2_)" fill="#231F20" d="M5.755,13.482c0.196,0.167,0.492,0.145,0.661-0.052
				c0.168-0.197,0.145-0.493-0.052-0.661C4.823,11.45,3.938,9.529,3.938,7.5s0.885-3.949,2.425-5.268
				c0.197-0.168,0.22-0.463,0.052-0.661C6.322,1.463,6.191,1.407,6.059,1.407c-0.108,0-0.217,0.038-0.305,0.113
				C4.003,3.017,3,5.197,3,7.5C3,9.804,4.004,11.984,5.755,13.482"/>
			<path clip-path="url(#SVGID_2_)" fill="#231F20" d="M8.226,11.607c0.196,0.167,0.492,0.145,0.661-0.052
				c0.169-0.197,0.146-0.492-0.051-0.661C7.843,10.044,7.273,8.808,7.273,7.5c0-1.306,0.57-2.542,1.562-3.393
				c0.197-0.169,0.22-0.465,0.05-0.661C8.793,3.337,8.662,3.282,8.53,3.282c-0.108,0-0.217,0.037-0.305,0.112
				C7.024,4.424,6.336,5.921,6.336,7.5C6.336,9.082,7.025,10.579,8.226,11.607"/>
		</g>
</svg>
