<?xml version="1.0" encoding="utf-8"?>
<svg version="1.1" id="Layer_1" xmlns="http://www.w3.org/2000/svg" xmlns:xlink="http://www.w3.org/1999/xlink" x="0px" y="0px"
	 viewBox="0 0 28 28" enable-background="new 0 0 28 28" xml:space="preserve">
<g>
	<defs>
		<rect id="SVGID_1_" width="28" height="28"/>
	</defs>
	<clipPath id="SVGID_2_">
		<use xlink:href="#SVGID_1_"  overflow="visible"/>
	</clipPath>
	<path clip-path="url(#SVGID_2_)" d="M11.85,6.727c0,0,0.992-2.722-1.022-4.774c-2.016-2.05-5.433-1.952-5.433-1.952
		S5.246,3.416,7.262,5.468C9.275,7.518,11.85,6.727,11.85,6.727 M23.666,8.902c-3.756-1.681-7.051-0.522-8.66,0.327
		c0.18-1.306,0.338-2.513,0.963-3.198c0.342-0.375,1.051-0.55,1.051-0.55V3.457c-0.999,0-1.868,0.425-2.6,1.228
		c-0.99,1.089-1.381,2.784-1.602,4.478c-1.652-0.842-4.826-1.897-8.484-0.261C-4.973,13.063,1.852,28,14,28
		S32.974,13.063,23.666,8.902"/>
</g>
</svg>
