<?xml version="1.0" encoding="utf-8"?>
<svg version="1.1" id="Layer_1" xmlns="http://www.w3.org/2000/svg" xmlns:xlink="http://www.w3.org/1999/xlink" x="0px" y="0px" viewBox="0 0 28 28"
	 enable-background="new 0 0 28 28" xml:space="preserve">

		<g>
			<defs>
				<rect id="SVGID_1_" width="28" height="28"/>
			</defs>
			<clipPath id="SVGID_2_">
				<use xlink:href="#SVGID_1_"  overflow="visible"/>
			</clipPath>
			<path clip-path="url(#SVGID_2_)" fill="#231F20" d="M26.5,19H24v-5c-2.209,0-4-1.791-4-4V4c0-2.2-1.799-4-4-4h-4C9.8,0,8,1.8,8,4
				v6c0,2.209-1.791,4-4,4v5H1.5C0.673,19,0,19.673,0,20.5S0.673,22,1.5,22c0.104,0,0.149,0.02,0.147,0.02
				c0.003,0.011,0.003,0.064-0.041,0.151l-1.053,2.105l0.895,0.448L2.5,22.618c0.197-0.392,0.197-0.801,0-1.118
				c-0.196-0.317-0.56-0.5-1-0.5C1.225,21,1,20.775,1,20.5S1.225,20,1.5,20H4v8h20v-8h2.5c0.276,0,0.5,0.225,0.5,0.5
				S26.776,21,26.5,21c-0.439,0-0.803,0.183-1,0.5c-0.196,0.317-0.196,0.726,0,1.118l1.053,2.106l0.895-0.448l-1.053-2.105
				c-0.044-0.087-0.044-0.14-0.048-0.14C26.356,22.023,26.403,22,26.5,22c0.827,0,1.5-0.673,1.5-1.5S27.327,19,26.5,19 M10,4
				c0-1.1,0.901-2,2-2h4c1.1,0,2,0.9,2,2v6h-8V4z M21,25H7v-9h14V25z"/>
			<rect x="8" y="17" clip-path="url(#SVGID_2_)" fill="#231F20" width="12" height="7"/>
		</g>
</svg>
