<?xml version="1.0" encoding="utf-8"?>
<svg version="1.1" id="Layer_1" xmlns="http://www.w3.org/2000/svg" xmlns:xlink="http://www.w3.org/1999/xlink" x="0px" y="0px" viewBox="0 0 28 28"
	 enable-background="new 0 0 28 28" xml:space="preserve">

		<polygon fill="#231F20" points="0,16 0,20.999 2,22.999 2,28 17,28 17,22.999 15,21 15,16 		"/>
		<g>
			<defs>
				<rect id="SVGID_1_" width="28" height="28"/>
			</defs>
			<clipPath id="SVGID_2_">
				<use xlink:href="#SVGID_1_"  overflow="visible"/>
			</clipPath>
			<path clip-path="url(#SVGID_2_)" fill="#231F20" d="M17,13v-1H7v-1.092c0.581-0.206,1-0.756,1-1.408C8,8.672,7.328,8,6.5,8
				S5,8.672,5,9.5c0,0.652,0.419,1.202,1,1.408V12H4V2h13V0H2v13l-2,2h15L17,13z M11,14c-0.552,0-1-0.224-1-0.5s0.448-0.5,1-0.5
				s1,0.224,1,0.5S11.552,14,11,14 M14,14c-0.552,0-1-0.224-1-0.5s0.448-0.5,1-0.5c0.552,0,1,0.224,1,0.5S14.552,14,14,14"/>
			<polygon clip-path="url(#SVGID_2_)" fill="#231F20" points="18,0 18,13.414 16,15.414 16,20.586 18,22.586 18,28 28,28 28,0
				"/>
		</g>
</svg>
