<?xml version="1.0" encoding="utf-8"?>
<svg version="1.1" id="Layer_1" xmlns="http://www.w3.org/2000/svg" xmlns:xlink="http://www.w3.org/1999/xlink" x="0px" y="0px"
	 viewBox="0 0 28 28" enable-background="new 0 0 28 28" xml:space="preserve">
<g>
	<defs>
		<rect id="SVGID_1_" width="28" height="28"/>
	</defs>
	<clipPath id="SVGID_2_">
		<use xlink:href="#SVGID_1_"  overflow="visible"/>
	</clipPath>
	<path clip-path="url(#SVGID_2_)" d="M13.912,4.253c-2.859,0-5.187,2.327-5.187,5.188c0,2.86,2.328,5.187,5.187,5.187
		c2.861,0,5.188-2.327,5.188-5.187C19.1,6.58,16.773,4.253,13.912,4.253 M8.736,18.453l-0.301-0.518L7.324,16.01L5.4,14.897
		l-0.519-0.299v-0.093L0,24.204l4.939-0.417L7.547,28l4.623-9.193l-0.613-0.354H8.736z M18.668,17.416l1.25-2.166L22.084,14v-2.5
		l1.248-2.166l-1.248-2.166V4.667l-2.166-1.252l-1.25-2.164h-2.502L14,0l-2.164,1.251H9.334l-1.25,2.164L5.918,4.667v2.501
		l-1.25,2.166l1.25,2.166V14l2.166,1.25l1.25,2.166h2.502L14,18.667l2.166-1.251H18.668z M13.912,15.651
		c-3.424,0-6.209-2.786-6.209-6.21c0-3.425,2.785-6.211,6.209-6.211s6.211,2.786,6.211,6.211
		C20.123,12.865,17.336,15.651,13.912,15.651 M23.121,14.505v0.093l-0.52,0.299l-1.925,1.113l-1.112,1.925l-0.298,0.518h-2.823
		l-0.613,0.355L20.455,28l2.607-4.213L28,24.204L23.121,14.505z"/>
</g>
</svg>
