<?xml version="1.0" encoding="utf-8"?>
<svg version="1.1" id="Layer_1" xmlns="http://www.w3.org/2000/svg" xmlns:xlink="http://www.w3.org/1999/xlink" x="0px" y="0px"
	 viewBox="0 0 28 28" enable-background="new 0 0 28 28" xml:space="preserve">
<g>
	<defs>
		<rect id="SVGID_1_" width="28" height="28"/>
	</defs>
	<clipPath id="SVGID_2_">
		<use xlink:href="#SVGID_1_"  overflow="visible"/>
	</clipPath>
	<path clip-path="url(#SVGID_2_)" d="M14,10c-4.971,0-9,4.029-9,9s4.029,9,9,9s9-4.029,9-9S18.971,10,14,10 M17.25,20.297L18,25
		l-3.998-2.22L10,25l0.748-4.703L7.5,16.966l4.492-0.686l2.01-4.279l2.008,4.279l4.49,0.686L17.25,20.297z M0,4h28V0H0V4z M6,12
		h0.197C8.121,9.857,10.9,8.5,14,8.5s5.881,1.357,7.805,3.5H22l6-7H0L6,12z"/>
</g>
</svg>
