<?xml version="1.0" encoding="utf-8"?>
<svg version="1.1" id="Layer_1" xmlns="http://www.w3.org/2000/svg" xmlns:xlink="http://www.w3.org/1999/xlink" x="0px" y="0px" viewBox="0 0 28 28"
	 enable-background="new 0 0 28 28" xml:space="preserve">

		<g>
			<defs>
				<rect id="SVGID_1_" width="28" height="28"/>
			</defs>
			<clipPath id="SVGID_2_">
				<use xlink:href="#SVGID_1_"  overflow="visible"/>
			</clipPath>
			<path clip-path="url(#SVGID_2_)" fill="#231F20" d="M23.226,12.214c1.076-1.861,1.653-3.933,1.671-5.948l-2.203-0.132l-4.336-2.5
				l0.567-0.982l-4.336-2.5l-0.568,0.982l-1.735-1c-0.477-0.275-1.092-0.11-1.368,0.366L6.912,7.428
				c-0.275,0.477-0.11,1.091,0.367,1.366l10.408,6l1.215,1.839C20.641,15.61,22.15,14.075,23.226,12.214"/>
			<path clip-path="url(#SVGID_2_)" fill="#231F20" d="M27.933,6.448l-2.046-0.123c-0.028,2.172-0.64,4.394-1.794,6.389
				c-1.153,1.995-2.774,3.635-4.644,4.746l1.13,1.707c2.218-0.97,4.268-2.755,5.683-5.203C27.677,11.516,28.2,8.852,27.933,6.448"/>
			<polygon clip-path="url(#SVGID_2_)" fill="#231F20" points="3.505,19.321 0,25.383 5.489,28.001 7.842,21.821 12.849,13.161
				8.512,10.661 			"/>
		</g>
</svg>
