<?xml version="1.0" encoding="utf-8"?>
<svg version="1.1" id="Layer_1" xmlns="http://www.w3.org/2000/svg" xmlns:xlink="http://www.w3.org/1999/xlink" x="0px" y="0px"
	 viewBox="0 0 28 28" enable-background="new 0 0 28 28" xml:space="preserve">
<g>
	<defs>
		<rect id="SVGID_1_" width="28" height="28"/>
	</defs>
	<clipPath id="SVGID_2_">
		<use xlink:href="#SVGID_1_"  overflow="visible"/>
	</clipPath>
	<path clip-path="url(#SVGID_2_)" d="M21.88,15.304L9.637,27.546c-0.317,0.316-0.67,0.455-1.012,0.455
		c-0.379,0-0.743-0.171-1.028-0.455l-7.142-7.142c-0.543-0.544-0.667-1.373,0-2.04l1.589-1.591l2.181,2.183
		c0.076,0.074,0.179,0.109,0.29,0.109c0.016,0,0.032-0.001,0.049-0.002c0.127-0.013,0.26-0.074,0.368-0.183
		c0.216-0.215,0.249-0.53,0.075-0.707l-2.182-2.18l3.312-3.311l2.181,2.179c0.078,0.077,0.181,0.114,0.291,0.114
		c0.015,0,0.031,0,0.047-0.002c0.127-0.014,0.26-0.078,0.369-0.186c0.216-0.215,0.249-0.531,0.072-0.707L6.918,11.9l3.313-3.311
		l2.178,2.179c0.079,0.077,0.181,0.112,0.29,0.112c0.016,0,0.033,0,0.049-0.002c0.128-0.014,0.262-0.075,0.367-0.186
		c0.217-0.213,0.251-0.529,0.077-0.705l-2.181-2.18l1.688-1.685c0.349-0.351,0.815-0.516,1.257-0.516
		c0.404,0,0.787,0.137,1.046,0.396l7,7C22.544,13.544,22.55,14.634,21.88,15.304 M23.001,12l-7-7l2.502-2.498l7,7L23.001,12z
		 M27.22,3.37l-1.714,1.166C25.784,5.803,25.949,6.759,25.001,8l-5-5c0.711-0.545,1.328-0.722,1.964-0.722
		c0.475,0,0.959,0.099,1.501,0.217l1.166-1.711C25.146,0.268,25.795,0,26.39,0c0.441,0,0.853,0.148,1.158,0.453
		C28.262,1.168,28.115,2.474,27.22,3.37"/>
</g>
</svg>
