<?xml version="1.0" encoding="utf-8"?>
<svg version="1.1" id="Layer_1" xmlns="http://www.w3.org/2000/svg" xmlns:xlink="http://www.w3.org/1999/xlink" x="0px" y="0px"
	 viewBox="0 0 28 28" enable-background="new 0 0 28 28" xml:space="preserve">
<g>
	<defs>
		<rect id="SVGID_1_" width="28" height="28"/>
	</defs>
	<clipPath id="SVGID_2_">
		<use xlink:href="#SVGID_1_"  overflow="visible"/>
	</clipPath>
	<path clip-path="url(#SVGID_2_)" d="M13.998,13C17.59,13,20.5,10.09,20.5,6.5c0-3.591-2.91-6.5-6.502-6.5C10.41,0,7.5,2.91,7.5,6.5
		C7.5,10.09,10.41,13,13.998,13 M18,9c-0.623,1-2.184,2.334-4.01,2.334C12.183,11.334,10.64,10,10,9H18z M2.701,15.062l4.283,1.721
		C6.961,16.958,7.013,18,7,18h14c-0.014,0,0.041-1.043,0.015-1.217l4.286-1.828c0.767-0.317,1.363-0.863,1.683-1.63
		c0.317-0.768,0.317-1.587,0-2.353c-0.484-1.168-1.611-1.906-2.875-1.906c-0.408,0-0.81,0.085-1.189,0.243L21,10
		c-1.313,2.184-4.27,4.25-7,4.25c-2.727,0-5.688-2.067-7-4.25L5.082,9.316C4.701,9.159,4.301,9.08,3.892,9.08
		c-1.263,0-2.39,0.752-2.877,1.92c-0.316,0.765-0.316,1.611,0,2.378C1.336,14.146,1.933,14.747,2.701,15.062 M3.297,19.549
		c-0.905,0-1.748,0.305-2.371,0.928c-1.457,1.457-1.163,4.115,0.66,5.938C2.629,27.458,3.947,28,5.156,28
		c0.904,0,1.746-0.303,2.371-0.926c1.457-1.459,1.162-4.115-0.662-5.94C5.822,20.091,4.506,19.549,3.297,19.549 M27.074,20.476
		c-0.623-0.623-1.467-0.928-2.369-0.928c-1.209,0-2.527,0.543-3.57,1.586c-1.825,1.825-2.12,4.481-0.661,5.94
		C21.097,27.698,21.941,28,22.844,28c1.209,0,2.527-0.543,3.57-1.586C28.236,24.591,28.531,21.934,27.074,20.476 M20.867,19.854
		C21.172,19.549,21.107,20,20.99,19H7.01c-0.118,1-0.182,0.549,0.125,0.854C8.963,21.682,9.951,25,9.041,27h9.918
		C18.051,25,19.037,21.682,20.867,19.854"/>
</g>
</svg>
