<?xml version="1.0" encoding="utf-8"?>
<svg version="1.1" id="Layer_1" xmlns="http://www.w3.org/2000/svg" xmlns:xlink="http://www.w3.org/1999/xlink" x="0px" y="0px"
	 viewBox="0 0 28 28" enable-background="new 0 0 28 28" xml:space="preserve">
<g>
	<defs>
		<rect id="SVGID_1_" width="28" height="28"/>
	</defs>
	<clipPath id="SVGID_2_">
		<use xlink:href="#SVGID_1_"  overflow="visible"/>
	</clipPath>
	<path clip-path="url(#SVGID_2_)" d="M13,7.485c0.549,0,0.994-0.444,0.994-0.994c0-0.548-0.445-0.993-0.994-0.993
		c-0.549,0-0.994,0.445-0.994,0.993C12.006,7.041,12.451,7.485,13,7.485 M16.002,7.485c0.547,0,0.992-0.444,0.992-0.994
		c0-0.548-0.445-0.993-0.992-0.993c-0.551,0-0.996,0.445-0.996,0.993C15.006,7.041,15.451,7.485,16.002,7.485 M13.99,11.334
		c1.371,0,2.541-0.938,3.008-2.334h-6C11.478,10.369,12.637,11.334,13.99,11.334 M13.59,19.168
		c4.439-1.384,8.945-4.959,12.246-8.072c-1.405-3.149-3.414-6.289-5.799-8.42C18.568,1.039,16.41,0,14,0S9.431,1.039,7.961,2.677
		C5.963,4.464,4.232,6.959,2.894,9.572C4.58,12.272,7.846,16.264,13.59,19.168 M14,2.558c3.015-0.002,5.461,2.445,5.461,5.46
		c0,3.017-2.446,5.46-5.461,5.46c-3.018,0-5.461-2.444-5.461-5.46C8.539,5.003,10.982,2.556,14,2.558 M26.277,12.13
		c-3.092,2.88-7.17,6.089-11.351,7.673c3.312,1.475,7.373,2.575,12.314,2.927c0.49-0.958,0.76-2.057,0.76-3.315
		C28,17.492,27.375,14.848,26.277,12.13 M2.367,10.658C0.877,13.872,0,17.144,0,19.415C0,25.512,6.267,28,14,28
		c5.564,0,10.371-1.29,12.629-4.284C12.392,22.53,5.39,15.231,2.367,10.658"/>
</g>
</svg>
