<?xml version="1.0" encoding="utf-8"?>
<svg version="1.1" id="Layer_1" xmlns="http://www.w3.org/2000/svg" xmlns:xlink="http://www.w3.org/1999/xlink" x="0px" y="0px" viewBox="0 0 28 28"
	 enable-background="new 0 0 28 28" xml:space="preserve">

		<g>
			<defs>
				<rect id="SVGID_1_" width="28" height="28"/>
			</defs>
			<clipPath id="SVGID_2_">
				<use xlink:href="#SVGID_1_"  overflow="visible"/>
			</clipPath>
			<path clip-path="url(#SVGID_2_)" fill="#231F20" d="M22.957,5.576C22.969,5.719,23,5.854,23,6v1.811c1.791,1.04,3,2.974,3,5.189
				v3c0,2.215-1.209,4.148-3,5.188v2.22c2.924-1.193,5-4.068,5-7.408v-3C28,9.643,25.903,6.759,22.957,5.576"/>
			<path clip-path="url(#SVGID_2_)" fill="#231F20" d="M18,2h-2.061C15.659,0.862,14.444,0,13,0s-2.659,0.862-2.94,2H6
				C3.8,2,2,3.8,2,6v4.424C2.613,10.154,3.288,10,4,10h9c2.757,0,5,2.243,5,5v9c0,1.642-0.806,3.088-2.031,4H18c2.2,0,4-1.8,4-4V6
				C22,3.8,20.2,2,18,2 M11.127,2C11.41,1.425,12.149,1,13,1c0.851,0,1.591,0.425,1.873,1H11.127z"/>
			<path clip-path="url(#SVGID_2_)" fill="#231F20" d="M17,15c0-2.2-1.8-4-4-4H4c-2.2,0-4,1.8-4,4v9c0,2.2,1.8,4,4,4h9
				c2.2,0,4-1.8,4-4V15z M14,15H3c-0.276,0-0.5-0.224-0.5-0.5S2.724,14,3,14h11c0.276,0,0.5,0.224,0.5,0.5S14.276,15,14,15"/>
		</g>
</svg>
