<?xml version="1.0" encoding="utf-8"?>
<svg version="1.1" id="Layer_1" xmlns="http://www.w3.org/2000/svg" xmlns:xlink="http://www.w3.org/1999/xlink" x="0px" y="0px" viewBox="0 0 28 28"
	 enable-background="new 0 0 28 28" xml:space="preserve">

		<g>
			<defs>
				<rect id="SVGID_1_" width="28" height="28"/>
			</defs>
			<clipPath id="SVGID_2_">
				<use xlink:href="#SVGID_1_"  overflow="visible"/>
			</clipPath>
			<path clip-path="url(#SVGID_2_)" fill="#231F20" d="M8.991,12.566c1.427-1.291,1.872-2.145,2.342-3.05
				c0.511-0.982,1.039-1.999,2.666-3.47c1.621-1.466,2.735-1.941,3.813-2.4c0.994-0.423,1.937-0.826,3.338-2.082L19.42,0
				c-1.128,1.019-1.784,1.298-2.693,1.685c-1.153,0.491-2.588,1.103-4.515,2.845c-1.926,1.743-2.601,3.041-3.144,4.084
				c-0.428,0.822-0.737,1.416-1.864,2.436c-1.127,1.019-1.783,1.298-2.69,1.684C3.361,13.224,1.927,13.837,0,15.578l1.743,1.576
				c0.017-0.019,0.025-0.043,0.045-0.061c1.62-1.464,2.734-1.938,3.811-2.397C6.607,14.267,7.558,13.863,8.991,12.566"/>
			<path clip-path="url(#SVGID_2_)" fill="#231F20" d="M7.271,18.037c1.153-0.49,2.587-1.101,4.513-2.844
				c1.927-1.743,2.602-3.04,3.145-4.084c0.428-0.821,0.737-1.416,1.864-2.435c1.127-1.02,1.784-1.299,2.693-1.687
				c1.153-0.491,2.588-1.101,4.515-2.845l-1.743-1.575c-0.017,0.019-0.025,0.043-0.045,0.061c-1.62,1.466-2.735,1.94-3.813,2.399
				c-1.008,0.429-1.96,0.834-3.394,2.131c-1.427,1.291-1.872,2.146-2.342,3.05c-0.511,0.983-1.039,1.999-2.666,3.471
				c-1.62,1.464-2.734,1.939-3.811,2.397c-0.994,0.423-1.935,0.826-3.335,2.081l1.729,1.564C5.707,18.703,6.363,18.423,7.271,18.037
				"/>
			<path clip-path="url(#SVGID_2_)" fill="#231F20" d="M12.991,20.846c1.427-1.291,1.872-2.145,2.342-3.05
				c0.511-0.982,1.039-1.999,2.666-3.47c1.621-1.466,2.735-1.941,3.813-2.4c0.994-0.423,1.937-0.826,3.338-2.082L23.42,8.28
				c-1.128,1.019-1.784,1.298-2.693,1.685c-1.153,0.491-2.588,1.103-4.515,2.845c-1.926,1.743-2.601,3.041-3.144,4.084
				c-0.428,0.822-0.737,1.416-1.864,2.436c-1.127,1.019-1.783,1.298-2.69,1.684C7.361,21.504,5.927,22.116,4,23.858l1.743,1.576
				c0.017-0.019,0.025-0.043,0.045-0.061c1.62-1.464,2.734-1.938,3.811-2.397C10.607,22.547,11.558,22.142,12.991,20.846"/>
			<path clip-path="url(#SVGID_2_)" fill="#231F20" d="M26.258,10.847c-0.017,0.018-0.025,0.043-0.045,0.061
				c-1.621,1.465-2.735,1.94-3.813,2.399c-1.009,0.429-1.961,0.834-3.394,2.131c-1.427,1.291-1.872,2.145-2.342,3.05
				c-0.512,0.983-1.04,1.999-2.667,3.47c-1.619,1.465-2.733,1.94-3.81,2.398c-0.994,0.423-1.936,0.826-3.335,2.081L8.581,28
				c1.126-1.017,1.782-1.298,2.69-1.683c1.152-0.491,2.587-1.101,4.513-2.844s2.602-3.04,3.144-4.084
				c0.429-0.821,0.737-1.416,1.865-2.436c1.127-1.019,1.784-1.298,2.693-1.686c1.152-0.491,2.587-1.102,4.514-2.845L26.258,10.847z"
				/>
		</g>
</svg>
