<?xml version="1.0" encoding="utf-8"?>
<svg version="1.1" id="Layer_1" xmlns="http://www.w3.org/2000/svg" xmlns:xlink="http://www.w3.org/1999/xlink" x="0px" y="0px" viewBox="0 0 28 28"
	 enable-background="new 0 0 28 28" xml:space="preserve">

		<g>
			<defs>
				<rect id="SVGID_1_" width="28" height="28"/>
			</defs>
			<clipPath id="SVGID_2_">
				<use xlink:href="#SVGID_1_"  overflow="visible"/>
			</clipPath>
			<path clip-path="url(#SVGID_2_)" fill="#231F20" d="M11.353,5l-0.85-2.715c-0.09-0.273,0.059-0.621,0.332-0.71
				c0.039-0.013,0.081-0.019,0.122-0.019c0.234,0,0.456,0.203,0.533,0.434L12.445,5h3.156l0.953-3.038
				c0.074-0.228,0.293-0.408,0.522-0.408c0.045,0,0.089,0.007,0.132,0.021c0.274,0.089,0.422,0.465,0.334,0.737L16.691,5h1.967
				l4.779-5H4.607l4.779,5H11.353z"/>
			<path clip-path="url(#SVGID_2_)" fill="#231F20" d="M19.039,6h-9.004c-5.4,1-9.91,6.282-10.033,10.946
				c-0.004,0.069,0,7.025,0,7.025C0.002,26.375,1.475,28,4.033,28h20.01c2.561,0,4.002-1.596,4.002-4l0.029-6.986
				C27.953,12.35,24.439,7,19.039,6 M15.049,22.345V24h-2v-1.518c-1-0.051-2.201-0.376-2.855-0.737l0.548-2.007
				c0.719,0.394,1.747,0.753,2.862,0.753c0.996,0,1.672-0.393,1.672-1.062c0-0.652-0.541-1.064-1.829-1.494
				c-1.836-0.617-3.193-1.475-3.193-3.14c0-1.525,0.795-2.711,2.795-3.054V10h2v1.621c1,0.035,1.85,0.291,2.451,0.567l-0.543,1.938
				c-0.427-0.206-1.248-0.6-2.484-0.6c-1.113,0-1.483,0.498-1.483,0.978c0,0.549,0.598,0.926,2.073,1.458
				C17.108,16.682,18,17.626,18,19.189C18,20.716,17.049,22.02,15.049,22.345"/>
		</g>
</svg>
