<?xml version="1.0" encoding="utf-8"?>
<svg version="1.1" id="Layer_1" xmlns="http://www.w3.org/2000/svg" xmlns:xlink="http://www.w3.org/1999/xlink" x="0px" y="0px"
	 viewBox="0 0 28 28" enable-background="new 0 0 28 28" xml:space="preserve">
<g>
	<defs>
		<rect id="SVGID_1_" width="28" height="28"/>
	</defs>
	<clipPath id="SVGID_2_">
		<use xlink:href="#SVGID_1_"  overflow="visible"/>
	</clipPath>
	<path clip-path="url(#SVGID_2_)" d="M13,4.263C13,1.908,11.127,0,9,0C6.875,0,5,1.908,5,4.263V6H0v20.12
		C0,27.154,0.873,28,1.899,28H18V6h-5V4.263z M11,6H7V4.263c0-0.661,0.221-1.281,0.642-1.747C8.064,2.048,8.619,1.79,9.215,1.79
		s0.933,0.258,1.355,0.726C10.992,2.982,11,3.602,11,4.263V6z M19,6v22h7.1c1.025,0,1.9-0.846,1.9-1.88V6H19z M21,4.263V5h2V4.263
		C23,1.908,21.127,0,19.001,0S15,1.908,15,4.263V5h2V4.263c0-0.661,0.012-1.281,0.434-1.747c0.421-0.468,0.871-0.726,1.467-0.726
		s1.09,0.258,1.513,0.726C20.836,2.982,21,3.602,21,4.263"/>
</g>
</svg>
