<?xml version="1.0" encoding="utf-8"?>
<svg version="1.1" id="Layer_1" xmlns="http://www.w3.org/2000/svg" xmlns:xlink="http://www.w3.org/1999/xlink" x="0px" y="0px"
	 viewBox="0 0 28 28" enable-background="new 0 0 28 28" xml:space="preserve">
<g>
	<defs>
		<rect id="SVGID_1_" width="28" height="28"/>
	</defs>
	<clipPath id="SVGID_2_">
		<use xlink:href="#SVGID_1_"  overflow="visible"/>
	</clipPath>
	<path clip-path="url(#SVGID_2_)" d="M6.832,19l-1.451,3h5.66l-1.453-3H6.832z M19.791,6.081c-4.535,0-8.209,3.556-8.209,8.089
		c0,3.581,3.195,7.83,6.058,9.83h4.219C24.674,22,28,17.581,28,14C28,9.467,24.324,6.081,19.791,6.081 M13.211,15.056
		c-0.049-0.294-0.076-0.585-0.076-0.867c0-3.635,2.947-6.583,6.582-6.583c0.134,0,0.267,0.013,0.402,0.021
		C16.767,8.827,14.17,11.6,13.211,15.056 M16.058,5.837C15.039,2.463,11.918,0,8.211,0C3.676,0,0,3.602,0,8.137
		C0,11.709,3.181,16,6.041,18h4.261c0.288,0,0.579-0.316,0.874-0.554c-0.401-1.104-0.631-2.17-0.631-3.193
		C10.545,10.484,12.814,7.275,16.058,5.837 M1.629,8.975C1.582,8.68,1.554,8.39,1.554,8.108c0-3.635,2.948-6.582,6.584-6.582
		c0.135,0,0.268,0.013,0.401,0.02C5.189,2.746,2.59,5.52,1.629,8.975 M18.406,25l-1.447,3h5.66l-1.445-3H18.406z"/>
</g>
</svg>
