<?xml version="1.0" encoding="utf-8"?>
<svg version="1.1" id="Layer_1" xmlns="http://www.w3.org/2000/svg" xmlns:xlink="http://www.w3.org/1999/xlink" x="0px" y="0px" viewBox="0 0 28 28"
	 enable-background="new 0 0 28 28" xml:space="preserve">

		<g>
			<defs>
				<rect id="SVGID_1_" width="28" height="28"/>
			</defs>
			<clipPath id="SVGID_2_">
				<use xlink:href="#SVGID_1_"  overflow="visible"/>
			</clipPath>
			<path clip-path="url(#SVGID_2_)" fill="#231F20" d="M0.493,14.234l1.097,0.522c0,0,2.162,1.353,5.391,2.466
				c5.478-1.145,9.47-4.352,12.259-7.682c-4.26,2.384-9.71,3.838-16.176,2.228c-0.015-0.008-0.024-0.022-0.039-0.029l-1.097-0.522
				c-0.415-0.197-0.903-0.046-1.085,0.336l-0.774,1.628C-0.113,13.563,0.078,14.037,0.493,14.234"/>
			<path clip-path="url(#SVGID_2_)" fill="#231F20" d="M27.708,5.142V0.77c0-0.538-0.427-0.871-0.948-0.741l-2.013,0.504
				c-0.522,0.13-0.949,0.677-0.949,1.214v0.978c0,0-1.954,18.569-18.461,21.914c-0.017-0.001-0.031-0.008-0.047-0.008H4.103
				c-0.449,0-0.817,0.338-0.817,0.751v1.762c0,0.413,0.368,0.751,0.817,0.751H5.29C5.29,27.895,31.006,30.879,27.708,5.142"/>
			<path clip-path="url(#SVGID_2_)" fill="#231F20" d="M19.836,12.034c0.612-1.207,1.1-2.391,1.492-3.494
				c-3.519,4.871-9.468,10.141-18.745,10.125c-0.016-0.004-0.029-0.015-0.045-0.018l-1.19-0.244
				c-0.45-0.092-0.888,0.172-0.973,0.586l-0.361,1.767c-0.084,0.414,0.215,0.828,0.665,0.92l1.19,0.244c0,0,2.383,0.778,5.736,1.09
				C12.908,21.277,17.016,17.594,19.836,12.034"/>
		</g>
</svg>
