<?xml version="1.0" encoding="utf-8"?>
<svg version="1.1" id="Layer_1" xmlns="http://www.w3.org/2000/svg" xmlns:xlink="http://www.w3.org/1999/xlink" x="0px" y="0px"
	 viewBox="0 0 28 28" enable-background="new 0 0 28 28" xml:space="preserve">
<g>
	<defs>
		<rect id="SVGID_1_" width="28" height="28"/>
	</defs>
	<clipPath id="SVGID_2_">
		<use xlink:href="#SVGID_1_"  overflow="visible"/>
	</clipPath>
	<path clip-path="url(#SVGID_2_)" d="M1.642,17.433c-2.189,2.189-2.189,5.742,0,7.933l0.991,0.99c2.189,2.192,5.74,2.192,7.929,0
		l3.434-3.357l-8.998-9L1.642,17.433z M26.349,2.636l-0.992-0.992c-2.189-2.192-5.74-2.192-7.929,0l-2.934,2.855l8.998,9
		l2.877-2.934C28.557,8.376,28.537,4.825,26.349,2.636 M5.998,12.999l8.996,9l7.498-7.5l-8.998-9L5.998,12.999z M16.496,18.501
		c-0.553,0-1.002-0.449-1.002-1.002c0-0.551,0.449-1,1.002-1c0.551,0,0.998,0.449,0.998,1
		C17.494,18.052,17.047,18.501,16.496,18.501 M19.492,13.499c0.553,0,1,0.449,1,1c0,0.553-0.447,1.002-1,1.002s-1-0.449-1-1.002
		C18.492,13.948,18.939,13.499,19.492,13.499 M16.494,10.499c0.551,0,1,0.449,1,1.002c0,0.551-0.449,0.998-1,0.998
		c-0.551,0-1-0.447-1-0.998C15.496,10.948,15.943,10.499,16.494,10.499 M16.492,13.462c0.576,0,1.039,0.463,1.039,1.037
		c0,0.572-0.463,1.037-1.037,1.037c-0.572,0-1.037-0.465-1.037-1.039C15.457,13.925,15.922,13.462,16.492,13.462 M10.494,15.499
		c-0.551,0-0.998-0.447-0.998-0.998c0-0.553,0.447-1.002,0.998-1.002c0.555,0,1.002,0.449,1.002,1.002
		C11.496,15.052,11.049,15.499,10.494,15.499 M10.498,12.499c-0.553,0-1.002-0.447-1.002-1c0.002-0.553,0.449-1,1.002-1
		c0.551,0,0.998,0.447,0.998,1C11.496,12.052,11.049,12.499,10.498,12.499 M13.494,18.499c-0.551,0-0.998-0.447-0.998-1.002
		c0-0.549,0.447-0.998,0.998-0.998c0.553,0,1,0.449,1,0.998C14.494,18.052,14.047,18.499,13.494,18.499 M13.494,15.499
		c-0.553,0-0.998-0.447-0.998-0.998c0.002-0.555,0.447-1.002,0.998-1.002c0.553,0,1,0.447,1,1.002
		C14.494,15.052,14.047,15.499,13.494,15.499 M13.494,12.499c-0.551,0-0.998-0.447-0.998-1c0-0.551,0.447-1,0.998-1
		c0.553,0,1,0.449,1,1C14.494,12.052,14.047,12.499,13.494,12.499 M14.494,8.499c0,0.551-0.447,1-1,1c-0.553,0-0.998-0.449-0.998-1
		c0.002-0.551,0.445-1,0.998-1C14.047,7.499,14.494,7.948,14.494,8.499"/>
</g>
</svg>
