<?xml version="1.0" encoding="utf-8"?>
<svg version="1.1" id="Layer_1" xmlns="http://www.w3.org/2000/svg" xmlns:xlink="http://www.w3.org/1999/xlink" x="0px" y="0px" viewBox="0 0 28 28"
	 enable-background="new 0 0 28 28" xml:space="preserve">

		<g>
			<defs>
				<rect id="SVGID_1_" width="28" height="28"/>
			</defs>
			<clipPath id="SVGID_2_">
				<use xlink:href="#SVGID_1_"  overflow="visible"/>
			</clipPath>
			<path clip-path="url(#SVGID_2_)" fill="#231F20" d="M0,20.3l2.789,2.79l-1.35,1.35c-0.585,0.586-0.585,1.535,0,2.121
				C1.732,26.854,2.116,27,2.5,27s0.768-0.146,1.061-0.439l1.349-1.35L7.7,28l2.8-2.801L2.801,17.5L0,20.3z"/>
			<path clip-path="url(#SVGID_2_)" fill="#231F20" d="M28,7.7l-2.789-2.79l1.35-1.35c0.585-0.586,0.585-1.535,0-2.121
				c-0.586-0.586-1.536-0.586-2.122,0l-1.349,1.35L20.3,0l-2.8,2.801l7.699,7.699L28,7.7z"/>

				<rect x="1.325" y="17.27" transform="matrix(-0.7071 -0.7071 0.7071 -0.7071 1.326 39.048)" clip-path="url(#SVGID_2_)" fill="#231F20" width="14.849" height="3.959"/>

				<rect x="11.826" y="6.771" transform="matrix(-0.7071 -0.7071 0.7071 -0.7071 26.6745 28.5497)" clip-path="url(#SVGID_2_)" fill="#231F20" width="14.848" height="3.959"/>

				<rect x="12.5" y="9.556" transform="matrix(-0.7071 -0.7071 0.7071 -0.7071 13.9998 33.7989)" clip-path="url(#SVGID_2_)" fill="#231F20" width="3" height="8.888"/>
		</g>
</svg>
