<?xml version="1.0" encoding="utf-8"?>
<svg version="1.1" id="Layer_1" xmlns="http://www.w3.org/2000/svg" xmlns:xlink="http://www.w3.org/1999/xlink" x="0px" y="0px" viewBox="0 0 28 28"
	 enable-background="new 0 0 28 28" xml:space="preserve">

		<g>
			<defs>
				<rect id="SVGID_1_" width="28" height="28"/>
			</defs>
			<clipPath id="SVGID_2_">
				<use xlink:href="#SVGID_1_"  overflow="visible"/>
			</clipPath>
			<path clip-path="url(#SVGID_2_)" fill="#231F20" d="M17.915,25c0.314-0.922,0.583-1.928,0.807-3H9.279
				c0.224,1.072,0.493,2.078,0.807,3H17.915z"/>
			<path clip-path="url(#SVGID_2_)" fill="#231F20" d="M19.5,14c0-2.088-0.146-4.115-0.421-6H8.921C8.646,9.885,8.5,11.912,8.5,14
				s0.146,4.115,0.421,6h10.158C19.354,18.115,19.5,16.088,19.5,14"/>
			<path clip-path="url(#SVGID_2_)" fill="#231F20" d="M25.106,8h-5.019c0.269,1.894,0.414,3.918,0.414,6s-0.145,4.106-0.414,6
				h5.019c0.574-1.851,0.895-3.875,0.895-6S25.68,9.851,25.106,8"/>
			<path clip-path="url(#SVGID_2_)" fill="#231F20" d="M7.5,14c0-2.082,0.145-4.106,0.414-6H2.895C2.32,9.851,2,11.875,2,14
				s0.32,4.149,0.895,6h5.019C7.645,18.106,7.5,16.082,7.5,14"/>
			<path clip-path="url(#SVGID_2_)" fill="#231F20" d="M9.034,25c-0.301-0.931-0.563-1.933-0.778-3h-4.6
				c0.483,1.087,1.054,2.098,1.712,3H9.034z"/>
			<path clip-path="url(#SVGID_2_)" fill="#231F20" d="M18.966,25h3.666c0.658-0.902,1.229-1.913,1.712-3h-4.6
				C19.529,23.067,19.267,24.069,18.966,25"/>
			<path clip-path="url(#SVGID_2_)" fill="#231F20" d="M10.085,3C9.771,3.922,9.502,4.928,9.278,6h9.443
				c-0.223-1.072-0.493-2.078-0.807-3H10.085z"/>
			<path clip-path="url(#SVGID_2_)" fill="#231F20" d="M24.345,6c-0.483-1.087-1.054-2.098-1.712-3h-3.666
				c0.301,0.931,0.562,1.933,0.778,3H24.345z"/>
			<path clip-path="url(#SVGID_2_)" fill="#231F20" d="M9.034,3H5.368C4.71,3.902,4.139,4.913,3.656,6h4.6
				C8.471,4.933,8.733,3.931,9.034,3"/>
			<path clip-path="url(#SVGID_2_)" fill="#231F20" d="M23,26H5c-0.55,0-1,0.45-1,1s0.45,1,1,1h18c0.55,0,1-0.45,1-1S23.55,26,23,26
				"/>
			<path clip-path="url(#SVGID_2_)" fill="#231F20" d="M5,2h18c0.55,0,1-0.45,1-1c0-0.55-0.45-1-1-1H5C4.45,0,4,0.45,4,1
				C4,1.55,4.45,2,5,2"/>
		</g>
</svg>
