<?xml version="1.0" encoding="utf-8"?>
<svg version="1.1" id="Layer_1" xmlns="http://www.w3.org/2000/svg" xmlns:xlink="http://www.w3.org/1999/xlink" x="0px" y="0px" viewBox="0 0 28 28"
	 enable-background="new 0 0 28 28" xml:space="preserve">

		<g>
			<defs>
				<rect id="SVGID_1_" width="28" height="28"/>
			</defs>
			<clipPath id="SVGID_2_">
				<use xlink:href="#SVGID_1_"  overflow="visible"/>
			</clipPath>
			<path clip-path="url(#SVGID_2_)" fill="#231F20" d="M1.759,24.055c-0.402-0.402-1.055-0.402-1.457,0
				c-0.402,0.402-0.402,1.055,0,1.457l2.187,2.186c0.402,0.403,1.054,0.403,1.457,0c0.402-0.402,0.402-1.054,0-1.457L1.759,24.055z"
				/>
			<path clip-path="url(#SVGID_2_)" fill="#231F20" d="M3.878,22.02l-0.55,0.55c-0.295,0.295-0.589,0.551-0.851,0.748
				c0.003,0.003,0.009,0.006,0.011,0.009l2.186,2.185c0.003,0.004,0.006,0.008,0.009,0.012c0.148-0.197,0.339-0.415,0.545-0.636
				l-0.379-3.941C4.507,21.351,4.169,21.729,3.878,22.02"/>
			<path clip-path="url(#SVGID_2_)" fill="#231F20" d="M27.399,2.282L25.717,0.6c-0.801-0.8-2.114-0.8-2.915,0L11.158,12.242
				c-0.801,0.801-1.955,2.24-2.564,3.196l-1.531,2.407l3.092,3.091l2.406-1.531c0.956-0.608,2.396-1.763,3.196-2.563L27.399,5.197
				C28.2,4.396,28.2,3.084,27.399,2.282"/>
			<path clip-path="url(#SVGID_2_)" fill="#231F20" d="M6.441,18.823c-0.182,0.285-0.415,0.615-0.67,0.956l0.402,4.159
				c0.823-0.786,2.117-1.816,3.003-2.38l0.088-0.054l-2.768-2.769L6.441,18.823z"/>
		</g>
</svg>
