<?xml version="1.0" encoding="utf-8"?>
<svg version="1.1" id="Layer_1" xmlns="http://www.w3.org/2000/svg" xmlns:xlink="http://www.w3.org/1999/xlink" x="0px" y="0px"
	 viewBox="0 0 28 28" enable-background="new 0 0 28 28" xml:space="preserve">
<g>
	<defs>
		<rect id="SVGID_1_" width="28" height="28"/>
	</defs>
	<clipPath id="SVGID_2_">
		<use xlink:href="#SVGID_1_"  overflow="visible"/>
	</clipPath>
	<path clip-path="url(#SVGID_2_)" d="M27.939,12.691c-0.547,0.012-1.088-0.006-1.594-0.053l-0.111,1.055l-0.131-0.014
		c-0.412-0.043-0.824-0.105-1.227-0.183l-0.129-0.026l0.204-1.039c-0.291-0.058-0.581-0.127-0.864-0.205l-0.295,1.014l-0.125-0.035
		c-0.396-0.115-0.795-0.25-1.183-0.405l-0.121-0.046l0.388-0.985c-0.277-0.111-0.548-0.232-0.816-0.363l-0.479,0.941l-0.115-0.06
		c-0.377-0.19-0.744-0.401-1.09-0.621l-0.111-0.071l0.564-0.886c-0.252-0.162-0.496-0.336-0.732-0.516l-0.645,0.828l-0.105-0.08
		c-0.324-0.256-0.645-0.531-0.949-0.82l-0.096-0.09L18.9,9.269c-0.033-0.029-0.065-0.06-0.098-0.092
		c-0.16-0.16-0.326-0.337-0.517-0.554L17.49,9.312l-0.086-0.099c-0.274-0.315-0.535-0.649-0.776-0.987l-0.076-0.107l0.854-0.608
		c-0.164-0.238-0.325-0.492-0.479-0.754l-0.91,0.524l-0.066-0.113c-0.211-0.366-0.403-0.741-0.573-1.118l-0.054-0.119l0.961-0.435
		c-0.122-0.276-0.231-0.553-0.329-0.826l-0.998,0.341l-0.043-0.123c-0.134-0.388-0.252-0.789-0.351-1.195l-0.031-0.127l1.023-0.252
		c-0.064-0.277-0.121-0.568-0.17-0.871l-1.043,0.16l-0.019-0.129c-0.065-0.398-0.11-0.812-0.137-1.23l-0.008-0.129l1.055-0.072
		c-0.016-0.307-0.022-0.635-0.016-0.991C14.814,0.017,14.404,0,13.997,0c-3.738,0-7.253,1.457-9.9,4.101
		c-2.195,2.196-3.566,4.973-3.973,8.045c0.221-0.064,0.418-0.115,0.602-0.16l-0.234-1.035l0.127-0.029
		c0.382-0.086,0.771-0.161,1.158-0.217l0.131-0.02l0.156,1.047c0.267-0.037,0.541-0.066,0.834-0.09l-0.076-1.058l0.13-0.01
		c0.37-0.027,0.741-0.041,1.104-0.041l0.207,0.002l-0.004,1.062c0.301,0.004,0.578,0.014,0.84,0.034l0.092-1.055l0.129,0.012
		c0.39,0.033,0.789,0.084,1.183,0.15l0.129,0.023l-0.179,1.045c0.275,0.051,0.552,0.11,0.828,0.176l0.265-1.023l0.129,0.033
		c0.393,0.101,0.778,0.221,1.145,0.353l0.123,0.045l-0.354,0.992c0.254,0.094,0.51,0.2,0.785,0.321l0.444-0.957L9.937,11.8
		c0.365,0.17,0.726,0.36,1.072,0.559l0.113,0.066l-0.531,0.911c0.254,0.15,0.49,0.3,0.717,0.459l0.609-0.856l0.106,0.074
		c0.33,0.235,0.65,0.487,0.953,0.75l0.1,0.084l-0.688,0.795c0.191,0.168,0.359,0.324,0.514,0.475
		c0.035,0.037,0.07,0.074,0.105,0.109l0.756-0.728l0.09,0.095c0.277,0.289,0.547,0.596,0.797,0.911l0.082,0.101l-0.822,0.654
		c0.171,0.221,0.339,0.452,0.5,0.688l0.876-0.572l0.071,0.109c0.219,0.332,0.426,0.684,0.615,1.041l0.063,0.115l-0.93,0.491
		c0.133,0.255,0.254,0.511,0.363,0.767l0.967-0.404l0.051,0.121c0.152,0.367,0.291,0.748,0.412,1.131l0.039,0.125l-0.996,0.312
		c0.078,0.258,0.15,0.528,0.217,0.821l1.023-0.227l0.027,0.127c0.086,0.387,0.155,0.781,0.209,1.178l0.018,0.129l-1.039,0.14
		c0.035,0.278,0.062,0.559,0.078,0.84l1.047-0.055l0.006,0.129c0.021,0.395,0.025,0.793,0.013,1.188l-0.004,0.131l-1.046-0.028
		c-0.002,0.086-0.004,0.172-0.01,0.258c-0.01,0.193-0.026,0.387-0.043,0.58l1.039,0.108l-0.012,0.13
		c-0.041,0.385-0.097,0.78-0.168,1.172l-0.023,0.129l-1.033-0.189c-0.065,0.342-0.151,0.701-0.264,1.113
		c3.021-0.428,5.76-1.793,7.924-3.957C26.859,20.939,28.328,16.861,27.939,12.691 M17.574,0.886l0.007,0.131
		c0.022,0.315,0.057,0.629,0.106,0.942l0.019,0.129l-1.029,0.158c0.045,0.265,0.094,0.515,0.149,0.758l1.013-0.248l0.031,0.126
		c0.073,0.299,0.163,0.602,0.262,0.899l0.045,0.125l-0.986,0.338c0.086,0.234,0.179,0.474,0.285,0.713l0.949-0.43l0.053,0.121
		c0.123,0.274,0.266,0.551,0.424,0.826l0.064,0.114l-0.902,0.517c0.135,0.233,0.269,0.445,0.41,0.649l0.853-0.606l0.075,0.106
		c0.175,0.25,0.367,0.494,0.572,0.728l0.084,0.1l-0.785,0.683c0.162,0.186,0.308,0.34,0.451,0.483
		c0.025,0.025,0.051,0.049,0.076,0.074l0.721-0.758l0.094,0.09c0.224,0.213,0.461,0.418,0.703,0.605l0.103,0.081l-0.644,0.824
		c0.201,0.15,0.41,0.297,0.629,0.439l0.558-0.879l0.112,0.071c0.261,0.166,0.533,0.32,0.806,0.461l0.117,0.058l-0.47,0.926
		c0.23,0.111,0.465,0.219,0.701,0.314l0.381-0.966l0.121,0.048c0.287,0.114,0.586,0.213,0.885,0.301l0.125,0.037l-0.289,0.996
		c0.238,0.067,0.49,0.127,0.748,0.18l0.199-1.018l0.127,0.026c0.308,0.058,0.623,0.107,0.935,0.139l0.129,0.013l-0.107,1.03
		c0.41,0.039,0.838,0.054,1.269,0.05C27.23,8.617,25.9,6.099,23.9,4.101c-2.022-2.023-4.569-3.357-7.377-3.871
		c-0.002,0.27,0.004,0.504,0.013,0.727L17.574,0.886z M14.14,24.361c0.008-0.312,0.006-0.621-0.012-0.918l-0.006-0.129l1.045-0.055
		c-0.015-0.246-0.037-0.492-0.066-0.734l-1.037,0.141l-0.018-0.129c-0.041-0.299-0.095-0.602-0.16-0.897l-0.027-0.127l1.021-0.226
		c-0.058-0.252-0.121-0.485-0.187-0.707l-1,0.314l-0.039-0.125c-0.09-0.283-0.194-0.568-0.309-0.845l-0.051-0.12l0.965-0.402
		c-0.094-0.219-0.199-0.439-0.312-0.66l-0.922,0.488l-0.061-0.115c-0.14-0.264-0.291-0.524-0.455-0.77l-0.07-0.109l0.873-0.572
		c-0.137-0.203-0.279-0.401-0.424-0.59l-0.818,0.65l-0.08-0.101c-0.188-0.233-0.385-0.457-0.588-0.672l-0.092-0.094l0.752-0.725
		c-0.027-0.029-0.055-0.058-0.084-0.085c-0.133-0.133-0.279-0.268-0.445-0.416l-0.684,0.791l-0.098-0.086
		c-0.224-0.194-0.459-0.379-0.703-0.551l-0.105-0.076l0.603-0.85c-0.191-0.133-0.394-0.262-0.611-0.393l-0.522,0.901L9.298,15.3
		c-0.256-0.148-0.523-0.287-0.793-0.412l-0.119-0.056l0.438-0.942c-0.227-0.101-0.454-0.195-0.676-0.277l-0.35,0.98l-0.123-0.046
		c-0.281-0.1-0.572-0.19-0.863-0.264L6.685,14.25l0.264-1.002c-0.239-0.059-0.479-0.112-0.715-0.155l-0.176,1.022l-0.129-0.022
		c-0.295-0.05-0.596-0.089-0.902-0.117l-0.129-0.011l0.088-1.032c-0.233-0.017-0.477-0.027-0.735-0.031l-0.006,1.033H4.072
		c-0.297,0-0.594,0.012-0.875,0.033l-0.131,0.008l-0.074-1.033c-0.247,0.022-0.495,0.049-0.735,0.082l0.154,1.023l-0.128,0.02
		c-0.305,0.047-0.612,0.104-0.909,0.172l-0.127,0.029l-0.228-1.008c-0.309,0.073-0.633,0.164-1.012,0.286
		c-0.125,3.857,1.363,7.625,4.09,10.353c2.645,2.643,6.162,4.1,9.902,4.1c0.188,0,0.377-0.004,0.567-0.012
		c0.164-0.529,0.287-1.018,0.377-1.481l-1.018-0.187l0.024-0.129c0.054-0.303,0.099-0.609,0.13-0.91l0.014-0.131l1.029,0.107
		c0.002-0.029,0.006-0.058,0.01-0.087c0.016-0.143,0.033-0.284,0.041-0.426c0.004-0.074,0.006-0.151,0.008-0.225l-1.043-0.027
		L14.14,24.361z"/>
</g>
</svg>
