<?xml version="1.0" encoding="utf-8"?>
<svg version="1.1" id="Layer_1" xmlns="http://www.w3.org/2000/svg" xmlns:xlink="http://www.w3.org/1999/xlink" x="0px" y="0px"
	 viewBox="0 0 28 28" enable-background="new 0 0 28 28" xml:space="preserve">
<g>
	<defs>
		<rect id="SVGID_1_" width="28" height="28"/>
	</defs>
	<clipPath id="SVGID_2_">
		<use xlink:href="#SVGID_1_"  overflow="visible"/>
	</clipPath>
	<path clip-path="url(#SVGID_2_)" d="M18.156,9.15c-2.318-2.49-3.42-5.762-3.338-9.126c-2.875-0.168-5.789,0.55-8.306,2.148
		l9.345,9.28L18.156,9.15z M12.82,14.487l2.303-2.302L5.641,2.768c-0.538,0.401-1.053,0.843-1.539,1.33
		C1.935,6.265,0.631,8.965,0.18,11.776C4.674,10.533,9.445,11.403,12.82,14.487 M23.549,3.759c-1.93-1.798-4.24-2.953-6.662-3.46
		c-0.018,2.733,0.882,5.364,2.736,7.384L23.549,3.759z M27.684,11.029c-0.512-2.372-1.647-4.637-3.403-6.534l-3.92,3.918
		C22.381,10.204,24.984,11.064,27.684,11.029 M0,13.999c0,3.431,1.256,6.86,3.764,9.548l7.589-7.593
		C8.34,13.249,4.006,12.635,0,13.999 M13.557,15.218c2.326,2.518,3.494,5.875,3.291,9.519c-0.057,1.037-0.227,2.061-0.495,3.063
		c2.764-0.467,5.416-1.766,7.549-3.9c0.512-0.51,0.975-1.052,1.389-1.615l-9.432-9.368L13.557,15.218z M27.971,13.092
		c-3.334,0.104-6.582-0.954-9.077-3.212l-2.302,2.303l9.291,9.226C27.459,18.883,28.156,15.965,27.971,13.092 M4.498,24.278
		c2.711,2.509,6.17,3.751,9.625,3.722c0.363-1.096,0.59-2.228,0.654-3.376c0.168-3.045-0.783-5.842-2.687-7.939L4.498,24.278z"/>
</g>
</svg>
