<?xml version="1.0" encoding="utf-8"?>
<svg version="1.1" id="Layer_1" xmlns="http://www.w3.org/2000/svg" xmlns:xlink="http://www.w3.org/1999/xlink" x="0px" y="0px" viewBox="0 0 28 28"
	 enable-background="new 0 0 28 28" xml:space="preserve">

		<g>
			<defs>
				<rect id="SVGID_1_" width="28" height="28"/>
			</defs>
			<clipPath id="SVGID_2_">
				<use xlink:href="#SVGID_1_"  overflow="visible"/>
			</clipPath>
			<path clip-path="url(#SVGID_2_)" fill="#231F20" d="M27,14H1c-0.55,0-1,0.45-1,1c0,0.55,0.45,1,1,1h26c0.55,0,1-0.45,1-1
				C28,14.45,27.55,14,27,14"/>
			<path clip-path="url(#SVGID_2_)" fill="#231F20" d="M1.01,17C1.004,17,1,17.004,1.001,17.01l0.498,3.98
				c0,0.001,0.001,0.001,0.001,0.001c0,0.003,0,0.006,0,0.009c0.156,1.25,1.035,2.357,2.259,3.092
				c-0.175,0.293-0.314,0.606-0.423,0.924C2.586,25.099,2,25.727,2,26.5C2,27.328,2.672,28,3.5,28S5,27.328,5,26.5
				c0-0.529-0.275-0.991-0.688-1.258c0.087-0.243,0.199-0.485,0.341-0.709C5.379,24.821,6.172,25,7,25h14
				c0.828,0,1.621-0.179,2.347-0.467c0.142,0.224,0.254,0.466,0.341,0.709C23.275,25.509,23,25.971,23,26.5
				c0,0.828,0.672,1.5,1.5,1.5c0.828,0,1.5-0.672,1.5-1.5c0-0.773-0.586-1.401-1.336-1.484c-0.109-0.318-0.248-0.631-0.423-0.924
				C25.464,23.357,26.344,22.25,26.5,21c0-0.003,0-0.006,0-0.009c0,0,0.001,0,0.001-0.001l0.498-3.98C27,17.004,26.995,17,26.99,17
				H1.01z"/>
			<path clip-path="url(#SVGID_2_)" fill="#231F20" d="M4,2.5c0-0.106,0.017-0.157,0.039-0.191c0.05-0.123,0.148-0.22,0.27-0.27
				C4.344,2.017,4.396,2,4.5,2H7c0.828,0,1.575,1.433,1.575,1.433C7.938,4.357,7.839,5.597,8.438,6.634l-0.433,0.25
				C7.767,7.021,7.684,7.329,7.822,7.567c0.137,0.238,0.445,0.32,0.683,0.183l6.062-3.5c0.238-0.138,0.32-0.445,0.183-0.683
				c-0.138-0.238-0.445-0.321-0.683-0.183l-0.433,0.25c-0.706-1.222-2.141-1.751-3.438-1.372L9.399,1.199C8.877,0.504,7.868,0,7,0H5
				C4.319,0,3.338,0.248,2.793,0.793S2,2.319,2,3v10h2V2.5z"/>
		</g>
</svg>
