<?xml version="1.0" encoding="utf-8"?>
<svg version="1.1" id="Layer_1" xmlns="http://www.w3.org/2000/svg" xmlns:xlink="http://www.w3.org/1999/xlink" x="0px" y="0px" viewBox="0 0 28 28"
	 enable-background="new 0 0 28 28" xml:space="preserve">

		<g>
			<defs>
				<rect id="SVGID_1_" width="28" height="28"/>
			</defs>
			<clipPath id="SVGID_2_">
				<use xlink:href="#SVGID_1_"  overflow="visible"/>
			</clipPath>
			<path clip-path="url(#SVGID_2_)" fill="#231F20" d="M24,16.001l-7,2l-1-4l-1,2h-2l-1-2l-1,4l-7-2l-4,12l5-3l3,3l3-3l3,3l3-3l3,3
				l3-3l5,3L24,16.001z M13.018,18.52c-0.276,0-0.5-0.224-0.5-0.5s0.224-0.5,0.5-0.5s0.5,0.224,0.5,0.5S13.294,18.52,13.018,18.52
				 M14.981,18.52c-0.276,0-0.5-0.224-0.5-0.5s0.224-0.5,0.5-0.5c0.276,0,0.5,0.224,0.5,0.5S15.257,18.52,14.981,18.52"/>
			<path clip-path="url(#SVGID_2_)" fill="#231F20" d="M6.06,13.129L7.575,10.1l3.03,1.515l1.515-3.03l3.03,1.515l1.515-3.029
				l4.545,1.01l-6.059-8.08l-4.798,3.282L8.586,0.505L8.334,2.273L6.819,2.777L5.556,1.515l0.252,3.282L0.001,5.049L0,15.149
				l3.03-3.535L6.06,13.129z M8.703,3.427C8.912,3.358,9.138,3.471,9.208,3.68c0.07,0.209-0.043,0.435-0.253,0.505
				C8.746,4.255,8.52,4.141,8.45,3.932C8.381,3.723,8.494,3.497,8.703,3.427 M7.216,3.923c0.209-0.07,0.435,0.043,0.505,0.253
				c0.07,0.209-0.043,0.435-0.253,0.504C7.259,4.75,7.033,4.637,6.963,4.428C6.894,4.219,7.007,3.993,7.216,3.923"/>
		</g>
</svg>
