<?xml version="1.0" encoding="utf-8"?>
<svg version="1.1" id="Layer_1" xmlns="http://www.w3.org/2000/svg" xmlns:xlink="http://www.w3.org/1999/xlink" x="0px" y="0px" viewBox="0 0 28 28"
	 enable-background="new 0 0 28 28" xml:space="preserve">

		<g>
			<defs>
				<rect id="SVGID_1_" width="28" height="28"/>
			</defs>
			<clipPath id="SVGID_2_">
				<use xlink:href="#SVGID_1_"  overflow="visible"/>
			</clipPath>
			<path clip-path="url(#SVGID_2_)" fill="#231F20" d="M12,11.757V28h4V11.757c-0.636-0.165-1.307-0.254-2-0.254
				C13.307,11.503,12.635,11.592,12,11.757"/>
			<path clip-path="url(#SVGID_2_)" fill="#231F20" d="M21.971,0c-0.045,0.547-0.17,1.074-0.35,1.58C24.365,3.397,26,5.852,26,8.5
				s-1.636,5.103-4.38,6.92c0.18,0.506,0.305,1.033,0.35,1.58C25.479,15.77,28,12.434,28,8.5S25.479,1.23,21.971,0"/>
			<path clip-path="url(#SVGID_2_)" fill="#231F20" d="M2,8.5c0-2.648,1.635-5.103,4.38-6.92C6.2,1.074,6.075,0.547,6.03,0
				C2.521,1.23,0,4.566,0,8.5s2.521,7.27,6.03,8.5c0.045-0.547,0.17-1.074,0.35-1.58C3.636,13.603,2,11.148,2,8.5"/>
			<path clip-path="url(#SVGID_2_)" fill="#231F20" d="M25,8.5c0-2.311-1.433-4.414-3.782-6.006C20.214,4.346,18.308,5.738,16,6.261
				V4h-4v2.261C9.692,5.738,7.786,4.346,6.782,2.494C4.433,4.086,3,6.189,3,8.5s1.433,4.414,3.782,6.006
				c1.283-2.366,4.029-4.003,7.218-4.003s5.935,1.637,7.218,4.003C23.567,12.914,25,10.811,25,8.5"/>
		</g>
</svg>
