<?xml version="1.0" encoding="utf-8"?>
<svg version="1.1" id="Layer_1" xmlns="http://www.w3.org/2000/svg" xmlns:xlink="http://www.w3.org/1999/xlink" x="0px" y="0px"
	 viewBox="0 0 28 28" enable-background="new 0 0 28 28" xml:space="preserve">
<rect x="8.005" width="12.001" height="3"/>
<g>
	<defs>
		<rect id="SVGID_1_" width="28" height="28"/>
	</defs>
	<clipPath id="SVGID_2_">
		<use xlink:href="#SVGID_1_"  overflow="visible"/>
	</clipPath>
	<path clip-path="url(#SVGID_2_)" d="M27.671,22.665c0,0-3.673-6.832-9.665-16.665V4h-2v2v0.561l0.292,0.48
		c1.549,2.542,2.939,4.88,4.157,6.959H7.557c1.217-2.08,2.607-4.417,4.156-6.959l0.292-0.48V6h0.001V4h-2.001v2
		c-5.993,9.834-9.666,16.686-9.666,16.686C-0.595,25.456,0.432,28,3.413,28h21.183C27.578,28,28.605,25.436,27.671,22.665 M6.506,24
		c-0.829,0-1.5-0.672-1.5-1.498c0-0.83,0.671-1.502,1.5-1.502s1.5,0.672,1.5,1.502C8.006,23.328,7.335,24,6.506,24 M9.506,20
		c-0.829,0-1.5-0.674-1.5-1.502c0-0.826,0.671-1.498,1.5-1.498c0.828,0,1.5,0.672,1.5,1.498C11.006,19.326,10.334,20,9.506,20"/>
</g>
</svg>
