<?xml version="1.0" encoding="utf-8"?>
<svg version="1.1" id="Layer_1" xmlns="http://www.w3.org/2000/svg" xmlns:xlink="http://www.w3.org/1999/xlink" x="0px" y="0px"
	 viewBox="0 0 28 28" enable-background="new 0 0 28 28" xml:space="preserve">
<g>
	<defs>
		<rect id="SVGID_1_" width="28" height="28"/>
	</defs>
	<clipPath id="SVGID_2_">
		<use xlink:href="#SVGID_1_"  overflow="visible"/>
	</clipPath>
	<path clip-path="url(#SVGID_2_)" d="M25.039,8.942c1.441-0.851,2.402-2.367,2.402-4.099c0-2.668-2.27-4.831-5.073-4.831
		c-1.718,0-3.238,0.817-4.155,2.065C17.062,1.802,15.602,1.626,14,1.587c-1.6,0.039-3.061,0.215-4.213,0.49
		C8.869,0.829,7.352,0.012,5.631,0.012c-2.801,0-5.072,2.163-5.072,4.831c0,1.732,0.962,3.248,2.402,4.099
		c-0.908,1.996-4.779,11.037-1.932,14.36c2.42,2.828,8.474,4.456,12.471,4.685v-9.905c-1.263-0.491-3.956-1.168-3.96-1.488
		c-0.01-1.125,2.46-2.582,4.461-2.582c1.999,0,4.471,1.457,4.46,2.582c-0.004,0.32-2.697,0.997-3.961,1.488v9.905
		c3.997-0.229,10.053-1.857,12.473-4.685C29.819,19.979,25.948,10.938,25.039,8.942 M5.048,21.573c-0.227,0.217-0.624,0.217-0.85,0
		c-0.236-0.225-0.236-0.588,0-0.811c0.111-0.109,0.263-0.168,0.424-0.168c0.162,0,0.312,0.059,0.426,0.168
		C5.284,20.985,5.284,21.348,5.048,21.573 M5.162,17.971c-0.228,0.217-0.625,0.217-0.853,0c-0.234-0.222-0.234-0.587,0-0.81
		c0.114-0.108,0.266-0.168,0.428-0.168c0.159,0,0.31,0.06,0.425,0.168C5.396,17.384,5.396,17.749,5.162,17.971 M6.995,19.718
		c-0.227,0.218-0.624,0.218-0.851,0c-0.235-0.223-0.235-0.586,0-0.811c0.114-0.107,0.265-0.166,0.425-0.166
		c0.162,0,0.314,0.059,0.426,0.166c0.115,0.109,0.177,0.252,0.177,0.406C7.172,19.466,7.11,19.61,6.995,19.718 M11.604,11.245
		c-1.032,0-1.868-0.797-1.868-1.779c0-0.983,0.836-1.778,1.868-1.778c1.031,0,1.867,0.795,1.867,1.778
		C13.471,10.448,12.635,11.245,11.604,11.245 M16.397,11.245c-1.031,0-1.868-0.797-1.868-1.779c0-0.983,0.837-1.778,1.868-1.778
		c1.032,0,1.868,0.795,1.868,1.778C18.265,10.448,17.43,11.245,16.397,11.245 M21.858,19.718c-0.228,0.218-0.624,0.218-0.852,0
		c-0.113-0.108-0.176-0.252-0.176-0.405c0-0.154,0.063-0.297,0.176-0.406c0.113-0.107,0.266-0.166,0.427-0.166
		c0.159,0,0.311,0.059,0.425,0.166C22.094,19.132,22.094,19.495,21.858,19.718 M22.84,17.161c0.114-0.108,0.266-0.168,0.426-0.168
		c0.161,0,0.312,0.06,0.428,0.168c0.232,0.223,0.232,0.588,0,0.81c-0.229,0.217-0.625,0.217-0.854,0
		C22.605,17.749,22.605,17.384,22.84,17.161 M23.805,21.573c-0.228,0.217-0.625,0.217-0.852,0c-0.236-0.225-0.236-0.588,0-0.811
		c0.114-0.109,0.265-0.168,0.426-0.168c0.16,0,0.313,0.059,0.426,0.168C24.038,20.985,24.038,21.348,23.805,21.573"/>
</g>
</svg>
