<?xml version="1.0" encoding="utf-8"?>
<svg version="1.1" id="Layer_1" xmlns="http://www.w3.org/2000/svg" xmlns:xlink="http://www.w3.org/1999/xlink" x="0px" y="0px" viewBox="0 0 28 28"
	 enable-background="new 0 0 28 28" xml:space="preserve">

		<g>
			<defs>
				<rect id="SVGID_1_" width="28" height="28"/>
			</defs>
			<clipPath id="SVGID_2_">
				<use xlink:href="#SVGID_1_"  overflow="visible"/>
			</clipPath>
			<path clip-path="url(#SVGID_2_)" fill="#231F20" d="M0,20v2h1v5v1h4v-1c0-1.105,0.895-2,2-2h14c1.105,0,2,0.895,2,2v1h4v-1v-5h1
				v-2H0z"/>
			<path clip-path="url(#SVGID_2_)" fill="#231F20" d="M25,7V1c0-0.55-0.45-1-1-1c-0.55,0-1,0.45-1,1v1.004H5V1c0-0.55-0.45-1-1-1
				S3,0.45,3,1l0.002,6H25z"/>
			<path clip-path="url(#SVGID_2_)" fill="#231F20" d="M27,15c0-1.1-0.9-2-2-2H3c-1.1,0-2,0.9-2,2v4h26V15z"/>
			<path clip-path="url(#SVGID_2_)" fill="#231F20" d="M12.58,8H2.92C2.412,8,2,9.791,2,12h11.5C13.5,9.791,13.088,8,12.58,8"/>
			<path clip-path="url(#SVGID_2_)" fill="#231F20" d="M14.5,12H26c0-2.209-0.412-4-0.92-4h-9.66C14.912,8,14.5,9.791,14.5,12"/>
		</g>
</svg>
