<?xml version="1.0" encoding="utf-8"?>
<svg version="1.1" id="Layer_1" xmlns="http://www.w3.org/2000/svg" xmlns:xlink="http://www.w3.org/1999/xlink" x="0px" y="0px"
	 viewBox="0 0 28 28" enable-background="new 0 0 28 28" xml:space="preserve">
<g>
	<defs>
		<rect id="SVGID_1_" width="28" height="28"/>
	</defs>
	<clipPath id="SVGID_2_">
		<use xlink:href="#SVGID_1_"  overflow="visible"/>
	</clipPath>
	<path clip-path="url(#SVGID_2_)" d="M26.98,9.472c-0.696-0.696-1.612-1.03-2.524-1.014c0.386-1.345,0.067-2.85-0.993-3.91
		c-1.06-1.06-2.565-1.379-3.91-0.993c0.016-0.912-0.318-1.828-1.014-2.524c-1.36-1.36-3.564-1.36-4.924,0
		c-1.36,1.36-1.36,3.564,0,4.924c0.842,0.842,2.009,1.16,3.098,0.959c-0.132,1.162,0.231,2.37,1.122,3.261
		c0.892,0.892,2.1,1.254,3.262,1.123c-0.201,1.089,0.117,2.256,0.959,3.098c1.36,1.36,3.564,1.36,4.924,0
		C28.34,13.036,28.34,10.832,26.98,9.472"/>
	<path clip-path="url(#SVGID_2_)" d="M20.484,13.858L10.45,23.892l-0.703-0.704l10.396-10.396c-0.033-0.168-0.071-0.335-0.085-0.506
		c-0.937-0.106-1.811-0.489-2.544-1.086l-9.878,9.878l-0.703-0.703l9.878-9.878c-0.597-0.733-0.98-1.607-1.086-2.544
		c-0.172-0.014-0.338-0.052-0.506-0.085L4.823,18.264l-0.704-0.703L14.153,7.527c-0.454-0.216-0.876-0.504-1.241-0.869
		c-0.372-0.372-0.647-0.8-0.861-1.25L11.62,5.839L9.474,3.693C9.097,3.316,8.6,3.127,8.103,3.127c-0.497,0-0.993,0.189-1.37,0.566
		L0.566,9.86c-0.754,0.753-0.754,1.987,0,2.74l2.146,2.147l-2.11,2.11c-0.774,0.774-0.774,2.04,0,2.814l7.738,7.738
		c0.774,0.774,2.04,0.774,2.814,0L22.603,15.96c-0.45-0.214-0.878-0.489-1.25-0.861C20.988,14.734,20.7,14.312,20.484,13.858
		 M2.009,11.23l6.094-6.094l2.11,2.11L4.119,13.34L2.009,11.23z"/>
</g>
</svg>
