<?xml version="1.0" encoding="utf-8"?>
<svg version="1.1" id="Layer_1" xmlns="http://www.w3.org/2000/svg" xmlns:xlink="http://www.w3.org/1999/xlink" x="0px" y="0px"
	 viewBox="0 0 28 28" enable-background="new 0 0 28 28" xml:space="preserve">
<g>
	<defs>
		<rect id="SVGID_1_" width="28" height="28"/>
	</defs>
	<clipPath id="SVGID_2_">
		<use xlink:href="#SVGID_1_"  overflow="visible"/>
	</clipPath>
	<path clip-path="url(#SVGID_2_)" d="M27.691,3.609L24.39,0.31C24.187,0.107,23.927,0,23.685,0c-0.186,0-0.362,0.064-0.492,0.193
		c-0.297,0.297-0.245,0.836,0.117,1.198l3.299,3.3C26.814,4.894,27.073,5,27.316,5c0.187,0,0.363-0.063,0.49-0.192
		C28.105,4.508,28.052,3.971,27.691,3.609 M21.999,2.001l-6.625,5.577c-1.906-0.592-3.861-0.288-5.146,0.998L0.642,18.16
		c-1.012,1.013-0.805,2.875,0.461,4.139l4.599,4.599c1.264,1.265,3.125,1.471,4.139,0.459l9.584-9.585
		c1.285-1.285,1.59-3.239,1-5.146l5.574-6.625L21.999,2.001z M9.931,24.287L3.716,18.07l6.465-6.468l6.219,6.215L9.931,24.287z"/>
</g>
</svg>
