<?xml version="1.0" encoding="utf-8"?>
<svg version="1.1" id="Layer_1" xmlns="http://www.w3.org/2000/svg" xmlns:xlink="http://www.w3.org/1999/xlink" x="0px" y="0px" viewBox="0 0 28 28"
	 enable-background="new 0 0 28 28" xml:space="preserve">

		<g>
			<defs>
				<rect id="SVGID_1_" width="28" height="28"/>
			</defs>
			<clipPath id="SVGID_2_">
				<use xlink:href="#SVGID_1_"  overflow="visible"/>
			</clipPath>
			<path clip-path="url(#SVGID_2_)" fill="#231F20" d="M20.5,3C23.537,3,26,2.327,26,1.5C26,0.673,23.537,0,20.5,0S15,0.673,15,1.5
				C15,2.327,17.463,3,20.5,3 M21.5,1h2C23.776,1,24,1.224,24,1.5C24,1.776,23.776,2,23.5,2h-2C21.224,2,21,1.776,21,1.5
				C21,1.224,21.224,1,21.5,1"/>
			<path clip-path="url(#SVGID_2_)" fill="#231F20" d="M7.5,6.5c-0.916,0-4.909-0.092-6.133-1.552L0,7v18c0,1.654,3.358,3,7.5,3
				s7.5-1.346,7.5-3V7l-1.367-2.052C12.409,6.408,8.416,6.5,7.5,6.5 M13,22.033C11.63,22.626,9.676,23,7.5,23S3.37,22.626,2,22.033
				v-10C3.37,12.626,5.324,13,7.5,13s4.13-0.374,5.5-0.967V22.033z"/>
			<path clip-path="url(#SVGID_2_)" fill="#231F20" d="M26.633,2.448C25.409,3.908,21.416,4,20.5,4
				c-0.916,0-4.909-0.092-6.133-1.552l-0.599,0.899l0.697,1.046l1.367,2.052L16,6.697V7v2.887c1.255,0.381,2.805,0.613,4.5,0.613
				c2.176,0,4.13-0.374,5.5-0.967v10c-1.37,0.593-3.324,0.967-5.5,0.967c-1.695,0-3.245-0.232-4.5-0.613v5.008
				c1.255,0.378,2.81,0.605,4.5,0.605c4.142,0,7.5-1.346,7.5-3v-18L26.633,2.448z"/>
			<path clip-path="url(#SVGID_2_)" fill="#231F20" d="M7.5,5.5C10.537,5.5,13,4.827,13,4c0-0.827-2.463-1.5-5.5-1.5S2,3.173,2,4
				C2,4.827,4.463,5.5,7.5,5.5 M8.5,3.5h2C10.776,3.5,11,3.724,11,4c0,0.276-0.224,0.5-0.5,0.5h-2C8.224,4.5,8,4.276,8,4
				C8,3.724,8.224,3.5,8.5,3.5"/>
		</g>
</svg>
