<?xml version="1.0" encoding="utf-8"?>
<svg version="1.1" id="Layer_1" xmlns="http://www.w3.org/2000/svg" xmlns:xlink="http://www.w3.org/1999/xlink" x="0px" y="0px" viewBox="0 0 28 28"
	 enable-background="new 0 0 28 28" xml:space="preserve">

		<g>
			<defs>
				<rect id="SVGID_1_" width="28" height="28"/>
			</defs>
			<clipPath id="SVGID_2_">
				<use xlink:href="#SVGID_1_"  overflow="visible"/>
			</clipPath>
			<path clip-path="url(#SVGID_2_)" fill="#231F20" d="M4,2h5c0.553,0,1-0.447,1-1c0-0.553-0.447-1-1-1H4C3.447,0,3,0.447,3,1
				C3,1.553,3.447,2,4,2"/>
			<path clip-path="url(#SVGID_2_)" fill="#231F20" d="M19,2h5c0.553,0,1-0.447,1-1c0-0.553-0.447-1-1-1h-5c-0.553,0-1,0.447-1,1
				C18,1.553,18.447,2,19,2"/>
			<path clip-path="url(#SVGID_2_)" fill="#231F20" d="M10,10L9,3H4l-1,7c-1.545,0.813-3,2.409-3,4v11c0,2,1,3,3,3h7c2,0,3-1,3-3V14
				C13,12.41,11.544,10.814,10,10 M11,24H2v-8.001h9V24z"/>
			<path clip-path="url(#SVGID_2_)" fill="#231F20" d="M25,10l-1-7h-5l-1,7c-1.545,0.813-3,2.409-3,4v11c0,2,1,3,3,3h7c2,0,3-1,3-3
				V14C28,12.41,26.544,10.814,25,10 M26,24h-9v-8.001h9V24z"/>
		</g>
</svg>
