<?xml version="1.0" encoding="utf-8"?>
<svg version="1.1" id="Layer_1" xmlns="http://www.w3.org/2000/svg" xmlns:xlink="http://www.w3.org/1999/xlink" x="0px" y="0px" viewBox="0 0 28 28"
	 enable-background="new 0 0 28 28" xml:space="preserve">

		<g>
			<defs>
				<rect id="SVGID_1_" width="28" height="28"/>
			</defs>
			<clipPath id="SVGID_2_">
				<use xlink:href="#SVGID_1_"  overflow="visible"/>
			</clipPath>
			<path clip-path="url(#SVGID_2_)" fill="#231F20" d="M14,17c0-3.314-2.686-6-6-6s-6,2.686-6,6c0,3,0,4.308-2,6v2h16v-2
				C14,21.308,14,20,14,17"/>
			<path clip-path="url(#SVGID_2_)" fill="#231F20" d="M8,28c1.304,0,2.403-0.837,2.816-2H5.184C5.597,27.163,6.696,28,8,28"/>
			<path clip-path="url(#SVGID_2_)" fill="#231F20" d="M26.757,4.586c-2.611,0.218-3.536-0.707-5.657-2.828
				c-2.343-2.344-6.142-2.344-8.485,0c-2.343,2.343-2.343,6.142,0,8.485c2.121,2.121,3.046,3.046,2.828,5.657l1.243,1.242L28,5.829
				L26.757,4.586z"/>
			<path clip-path="url(#SVGID_2_)" fill="#231F20" d="M21.23,14.355c1.114,0.53,2.483,0.345,3.406-0.577
				c0.922-0.923,1.107-2.292,0.577-3.406L21.23,14.355z"/>
		</g>
</svg>
