<?xml version="1.0" encoding="utf-8"?>
<svg version="1.1" id="Layer_1" xmlns="http://www.w3.org/2000/svg" xmlns:xlink="http://www.w3.org/1999/xlink" x="0px" y="0px"
	 viewBox="0 0 28 28" enable-background="new 0 0 28 28" xml:space="preserve">
<g>
	<defs>
		<rect id="SVGID_1_" width="28" height="28"/>
	</defs>
	<clipPath id="SVGID_2_">
		<use xlink:href="#SVGID_1_"  overflow="visible"/>
	</clipPath>
	<path clip-path="url(#SVGID_2_)" d="M22.869,14.644l-4.314-10.34l2.533-2.534c0.297-0.295,0.385-0.743,0.225-1.13
		C21.153,0.253,20.774,0,20.356,0h-6.741c-0.574,0-1.039,0.427-1.039,1.001C12.576,1.572,13.041,2,13.615,2h4.235l-1.254,1.291
		c-0.297,0.298-0.385,0.677-0.223,1.065L17.518,7H8.932L8.369,6h0.633c1,0,1-2,0-2h-4c-1,0-1,2,0,2h0.969l1.785,3.252L5.709,14.48
		C2.475,14.997,0,17.814,0,21.194c0,3.747,3.037,6.795,6.783,6.795c3.748,0,6.786-3.031,6.786-6.778c0-1.377-0.416-2.651-1.122-3.72
		l7.393-4.815l0.752,1.787c-3.453,0.316-6.158,3.217-6.158,6.754c0,3.746,3.035,6.783,6.783,6.783C24.963,28,28,24.964,28,21.217
		C28,18.041,25.815,15.383,22.869,14.644 M6.783,24.889c-2.023,0-3.671-1.648-3.671-3.672c0-2.025,1.648-3.673,3.671-3.673
		c2.028,0,3.674,1.648,3.674,3.673C10.457,23.241,8.811,24.889,6.783,24.889 M7.94,14.538l1.193-2.762l1.65,3.972
		C9.957,15.144,8.992,14.719,7.94,14.538 M12.66,14.784L10.11,9h8.283l0.627,1.547L12.66,14.784z M21.217,24.889
		c-2.025,0-3.674-1.648-3.674-3.672c0-2.025,1.649-3.673,3.674-3.673s3.672,1.648,3.672,3.673
		C24.889,23.241,23.242,24.889,21.217,24.889"/>
</g>
</svg>
