<?xml version="1.0" encoding="utf-8"?>
<svg version="1.1" id="Layer_1" xmlns="http://www.w3.org/2000/svg" xmlns:xlink="http://www.w3.org/1999/xlink" x="0px" y="0px" viewBox="0 0 28 28"
	 enable-background="new 0 0 28 28" xml:space="preserve">

		<g>
			<defs>
				<rect id="SVGID_1_" width="28" height="28"/>
			</defs>
			<clipPath id="SVGID_2_">
				<use xlink:href="#SVGID_1_"  overflow="visible"/>
			</clipPath>
			<path clip-path="url(#SVGID_2_)" fill="#231F20" d="M0,19.001v2c5.088,0.727,9.635,3.585,11.746,7h4.508
				c2.111-3.415,6.658-6.273,11.746-7v-2c-3.3,0.96-8.342,2-14,2S3.3,19.961,0,19.001"/>
			<path clip-path="url(#SVGID_2_)" fill="#231F20" d="M25.704,11.001c-0.201-2.701-2.176-5.13-2.313-5.296l-4.423-5.704h-1.281
				l4.703,6.054c-5.385,0.384-7.293,5.68-7.381,5.937l-0.013,0.009h-1.993l-0.012-0.009c-0.088-0.257-1.997-5.553-7.382-5.937
				l4.703-6.054H9.031L4.608,5.705h0.001C4.471,5.871,2.497,8.3,2.296,11.001H0v3h3.001c0.407,0.658,0.971,1.246,1.723,1.743
				c0.938,0.621,1.971,0.936,3.073,0.936c1.347,0,2.783-0.502,3.94-1.377c0.528-0.4,0.957-0.85,1.26-1.302h2.005
				c0.304,0.452,0.732,0.902,1.26,1.302c1.158,0.875,2.593,1.377,3.941,1.377c1.101,0,2.135-0.315,3.073-0.936
				c0.751-0.497,1.316-1.085,1.723-1.743H28v-3H25.704z"/>
		</g>
</svg>
