<?xml version="1.0" encoding="utf-8"?>
<svg version="1.1" id="Layer_1" xmlns="http://www.w3.org/2000/svg" xmlns:xlink="http://www.w3.org/1999/xlink" x="0px" y="0px"
	 viewBox="0 0 28 28" enable-background="new 0 0 28 28" xml:space="preserve">
<g>
	<defs>
		<rect id="SVGID_1_" width="28" height="28"/>
	</defs>
	<clipPath id="SVGID_2_">
		<use xlink:href="#SVGID_1_"  overflow="visible"/>
	</clipPath>
	<path clip-path="url(#SVGID_2_)" d="M11,2.718C11,1.217,9.883,0,8.502,0C7.119,0,6,1.217,6,2.718v1.281h5V2.718z M22,2.718
		C22,1.217,20.883,0,19.5,0C18.119,0,17,1.217,17,2.718v1.281h5V2.718z M27.818,19.999L25,4.999H15v3h1v4h-1v8
		c0,0,0.002,0.984,0.002,1.501c0,3.583,2.912,6.5,6.498,6.5s6.5-2.917,6.5-6.5C28,20.983,27.934,20.482,27.818,19.999 M21.502,26
		c-2.483,0-4.5-2.019-4.5-4.5c0-2.482,2.017-4.5,4.5-4.5C23.982,17,26,19.018,26,21.5C26,23.981,23.982,26,21.502,26 M0.182,19.999
		C0.068,20.482,0,20.983,0,21.5c0,3.583,3,6.501,6.5,6.5s6.5-2.917,6.5-6.5v-1.501v-8h-1v-4h1v-3H3.002L0.182,19.999z M6.5,17
		c2.482,0,4.5,2.018,4.5,4.5c0,2.481-2.018,4.5-4.5,4.5S2,23.981,2,21.5C2,19.018,4.018,17,6.5,17"/>
</g>
</svg>
