<?xml version="1.0" encoding="utf-8"?>
<svg version="1.1" id="Layer_1" xmlns="http://www.w3.org/2000/svg" xmlns:xlink="http://www.w3.org/1999/xlink" x="0px" y="0px"
	 viewBox="0 0 28 28" enable-background="new 0 0 28 28" xml:space="preserve">
<g>
	<defs>
		<rect id="SVGID_1_" width="28" height="28"/>
	</defs>
	<clipPath id="SVGID_2_">
		<use xlink:href="#SVGID_1_"  overflow="visible"/>
	</clipPath>
	<path clip-path="url(#SVGID_2_)" d="M16,11.015v-0.901C17,10.779,17.477,11,18.879,11h6.262c-0.104,3-2.107,4.896-4.566,4.896
		C18.051,15.896,16,13.769,16,11.015 M5.664,7.531c0-1.306-1.019-2.511-2.238-2.511L0,7.55l3.426,2.527
		C4.645,10.077,5.664,8.839,5.664,7.531 M28,11c-0.156,5-2.681,8.576-6.31,10.658L19.327,28h-3.118l1.844-4.862
		c-0.754,0.149-1.533,0.217-2.33,0.217c-1.014,0-2-0.12-2.941-0.359L10.885,28H7.768l2.297-6.058
		c-3.793-2.031-6.422-6.057-6.584-10.715L3.479,11.11c1.723-0.033,3.225-1.691,3.225-3.581c0-1.797-1.311-3.335-2.93-3.529
		c0.826-2.339,2.93-4,5.4-4c3.192,0,5.78,2.764,5.78,6.191c0,0.293,0.007,0.589,0.029,0.905c-0.022,1.028-0.028,2.276-0.028,3.862
		c0,3.332,2.514,5.976,5.616,5.976c3.037,0,5.502-2.934,5.609-5.934H28z M11.516,7.457c0-0.704-0.559-1.275-1.246-1.275
		c-0.69,0-1.248,0.571-1.248,1.275c0,0.704,0.558,1.275,1.248,1.275C10.957,8.732,11.516,8.161,11.516,7.457"/>
</g>
</svg>
