<?xml version="1.0" encoding="utf-8"?>
<svg version="1.1" id="Layer_1" xmlns="http://www.w3.org/2000/svg" xmlns:xlink="http://www.w3.org/1999/xlink" x="0px" y="0px" viewBox="0 0 28 28"
	 enable-background="new 0 0 28 28" xml:space="preserve">

		<g>
			<defs>
				<rect id="SVGID_1_" width="28" height="28"/>
			</defs>
			<clipPath id="SVGID_2_">
				<use xlink:href="#SVGID_1_"  overflow="visible"/>
			</clipPath>
			<path clip-path="url(#SVGID_2_)" fill="#231F20" d="M21,26.001H7c-0.55,0-1,0.45-1,1c0,0.55,0.45,1,1,1h14c0.55,0,1-0.45,1-1
				C22,26.451,21.55,26.001,21,26.001"/>
			<path clip-path="url(#SVGID_2_)" fill="#231F20" d="M20.976,11.168l0.705-1.41C24.176,9.031,26,6.731,26,4.001h-6v-1
				c0-1.657-1.343-3-3-3c-1.326,0-2.438,0.867-2.834,2.059L12,3.501l2.072,1.379c0.309,2.104,1.704,3.854,3.603,4.654l-0.817,1.634
				H0c0,3.295,4.775,6.215,9.812,7.338L9,25.001h10l-0.811-6.495C23.226,17.383,28,14.463,28,11.168H20.976z M17,3.751
				c-0.414,0-0.75-0.335-0.75-0.75c0-0.414,0.336-0.75,0.75-0.75c0.415,0,0.75,0.336,0.75,0.75C17.75,3.416,17.415,3.751,17,3.751
				 M19.858,11.168h-1.882l0.664-1.327c0.438,0.101,0.892,0.16,1.36,0.16c0.153,0,0.303-0.011,0.453-0.022L19.858,11.168z"/>
		</g>
</svg>
