<?xml version="1.0" encoding="utf-8"?>
<svg version="1.1" id="Layer_1" xmlns="http://www.w3.org/2000/svg" xmlns:xlink="http://www.w3.org/1999/xlink" x="0px" y="0px"
	 viewBox="0 0 28 28" enable-background="new 0 0 28 28" xml:space="preserve">
<g>
	<defs>
		<rect id="SVGID_1_" width="28" height="28"/>
	</defs>
	<clipPath id="SVGID_2_">
		<use xlink:href="#SVGID_1_"  overflow="visible"/>
	</clipPath>
	<path clip-path="url(#SVGID_2_)" d="M28,3h-5.676c-0.898-1.832-2.775-3-4.953-3c-3.049,0-5.521,2.503-5.521,5.552
		c0,1.759,0.828,3.325,2.109,4.336l-1.08,0.507l-3.6,1.015l-7.494-0.959c-0.115,1.04-0.045,2.058,0.174,3.025l-1.658,0.466
		c0.211,0.704,0.506,1.358,0.859,1.966L0,16.438c2.197,4.4,6.584,6.886,11,6.562v3c-1.324,0.448-2.047,1.046-2.047,2H18
		c0-2-4.937-2.002-5-2v-3c8-2,8.365-7.951,7.33-12.792C21.105,9.713,21.553,8.807,22,8h6c0,0-1.793-1.08-3.627-2.325
		C26.207,4.429,28,3,28,3 M10.895,20.636c-0.581,0.163-1.174,0.243-1.764,0.243c-2.147,0-4.264-1.044-5.619-2.869l0.83-0.618
		c1.476,1.986,3.996,2.888,6.271,2.247c2.539-0.717,4.201-3.128,4.043-5.865l1.033-0.06C15.879,16.939,13.906,19.786,10.895,20.636
		 M19,5c-0.551,0-1-0.447-1-1c0-0.553,0.449-1,1-1c0.555,0,1,0.447,1,1C20,4.553,19.555,5,19,5"/>
</g>
</svg>
