<?xml version="1.0" encoding="utf-8"?>
<svg version="1.1" id="Layer_1" xmlns="http://www.w3.org/2000/svg" xmlns:xlink="http://www.w3.org/1999/xlink" x="0px" y="0px"
	 viewBox="0 0 28 28" enable-background="new 0 0 28 28" xml:space="preserve">
<g>
	<defs>
		<rect id="SVGID_1_" width="28" height="28"/>
	</defs>
	<clipPath id="SVGID_2_">
		<use xlink:href="#SVGID_1_"  overflow="visible"/>
	</clipPath>
	<path clip-path="url(#SVGID_2_)" d="M19.999,8c1.104,0,2-1.074,2-2.402c0-1.328-2-5.598-2-5.598s-2,4.27-2,5.598
		C17.999,6.926,18.894,8,19.999,8"/>
	<path clip-path="url(#SVGID_2_)" d="M7.999,8c1.104,0,2-1.074,2-2.402c0-1.328-2-5.598-2-5.598s-2,4.27-2,5.598
		C5.999,6.926,6.894,8,7.999,8"/>
	<path clip-path="url(#SVGID_2_)" d="M13.999,8c1.104,0,2-1.074,2-2.402c0-1.328-2-5.598-2-5.598s-2,4.27-2,5.598
		C11.999,6.926,12.894,8,13.999,8"/>
	<path clip-path="url(#SVGID_2_)" d="M21.796,18.797c-0.566-0.43-1.367-0.677-2.195-0.677c-0.829,0-1.63,0.247-2.197,0.677
		c-0.92,0.698-2.129,1.083-3.405,1.083c-1.274,0-2.483-0.385-3.404-1.083c-0.567-0.43-1.367-0.677-2.195-0.677
		c-0.83,0-1.63,0.247-2.197,0.677C5.283,19.495,4.074,19.88,2.8,19.88c-0.272,0-0.537-0.021-0.8-0.056V28h24v-8.176
		c-0.263,0.035-0.529,0.056-0.801,0.056C23.925,19.88,22.716,19.495,21.796,18.797"/>
	<path clip-path="url(#SVGID_2_)" d="M26,12h-5V9h-2v3h-4V9h-2v3H9V9H7v3H2c-1.105,0-2,0.896-2,2v4
		c0.173,0.131,0.36,0.242,0.555,0.344c0.061,0.032,0.125,0.06,0.188,0.09c0.138,0.063,0.28,0.12,0.425,0.17
		c0.075,0.025,0.15,0.053,0.227,0.075c0.184,0.053,0.373,0.095,0.564,0.127C1.973,18.808,1.986,18.812,2,18.814v0.001
		c0.264,0.041,0.531,0.065,0.8,0.065c1.013,0,2.026-0.294,2.799-0.88c0.773-0.586,1.787-0.88,2.8-0.88s2.027,0.294,2.8,0.88
		c0.774,0.586,1.787,0.88,2.8,0.88c1.014,0,2.027-0.294,2.801-0.88c0.773-0.586,1.787-0.88,2.801-0.88
		c1.012,0,2.026,0.294,2.799,0.88c0.773,0.586,1.786,0.88,2.799,0.88c0.269,0,0.536-0.024,0.801-0.066
		c0.01-0.002,0.019-0.004,0.028-0.005c0.195-0.032,0.386-0.076,0.574-0.129c0.08-0.024,0.157-0.052,0.235-0.079
		c0.141-0.049,0.28-0.103,0.414-0.165c0.066-0.031,0.133-0.061,0.196-0.094C27.641,18.24,27.828,18.13,28,18v-4
		C28,12.896,27.104,12,26,12"/>
</g>
</svg>
