<?xml version="1.0" encoding="utf-8"?>
<svg version="1.1" id="Layer_1" xmlns="http://www.w3.org/2000/svg" xmlns:xlink="http://www.w3.org/1999/xlink" x="0px" y="0px"
	 viewBox="0 0 28 28" enable-background="new 0 0 28 28" xml:space="preserve">
<g>
	<defs>
		<rect id="SVGID_1_" width="28" height="28"/>
	</defs>
	<clipPath id="SVGID_2_">
		<use xlink:href="#SVGID_1_"  overflow="visible"/>
	</clipPath>
	<path clip-path="url(#SVGID_2_)" d="M23.899,4.1C21.166,1.365,17.582,0,14,0S6.835,1.365,4.102,4.1
		c-5.469,5.468-5.469,14.331,0,19.801C6.834,26.633,10.418,28,14,28s7.166-1.367,9.899-4.099C29.367,18.431,29.367,9.568,23.899,4.1
		 M4.149,13.999c0-2.631,1.025-5.105,2.884-6.965C8.895,5.172,11.369,4.147,14,4.147c1.926,0,3.764,0.554,5.342,1.578L5.726,19.341
		C4.702,17.763,4.149,15.925,4.149,13.999 M20.967,20.966c-1.861,1.86-4.335,2.886-6.967,2.886c-1.925,0-3.763-0.555-5.341-1.576
		L22.275,8.659c1.023,1.578,1.577,3.416,1.577,5.34C23.852,16.632,22.826,19.105,20.967,20.966"/>
</g>
</svg>
