<?xml version="1.0" encoding="utf-8"?>
<svg version="1.1" id="Layer_1" xmlns="http://www.w3.org/2000/svg" xmlns:xlink="http://www.w3.org/1999/xlink" x="0px" y="0px"
	 viewBox="0 0 28 28" enable-background="new 0 0 28 28" xml:space="preserve">
<g>
	<defs>
		<rect id="SVGID_1_" width="28" height="28"/>
	</defs>
	<clipPath id="SVGID_2_">
		<use xlink:href="#SVGID_1_"  overflow="visible"/>
	</clipPath>
	<path clip-path="url(#SVGID_2_)" d="M7,22.791c1.448,0,2.729-0.711,3.499-1.791c0.683,0.954,1.762,1.618,3.001,1.76V7
		C12.517,7.275,9.134,8.064,6,9.234V6c0-2,1-3,4.002-3H13v3h2V3h3c3,0,4,1,4,3v3.234C18.867,8.064,15.484,7.275,14.501,7v15.76
		c1.239-0.143,2.318-0.806,2.999-1.76c0.773,1.08,2.053,1.791,3.5,1.791c1.447,0,3.229-0.711,4-1.791c1.281-2.083,3-5.267,3-7.269
		c0-1.178-1.252-2.251-3-3.178V6c0-4-1.998-6-6.998-6h-8C5.001,0,3,2,3,6v4.553c-1.746,0.927-3,2-3,3.178C0,15.733,1.72,18.917,3,21
		C3.771,22.08,5.553,22.791,7,22.791"/>
	<path clip-path="url(#SVGID_2_)" d="M24.5,23.695c-0.771,1.08-2.053,1.791-3.5,1.791c-1.447,0-2.727-0.711-3.5-1.791
		c-0.771,1.08-2.053,1.791-3.5,1.791s-2.727-0.711-3.501-1.791c-0.77,1.08-2.051,1.791-3.499,1.791
		c-1.447,0-2.727-0.711-3.498-1.791C2.729,24.775,1,25.486,0,25.486V28c1,0,2.729-0.709,3.502-1.789C4.273,27.291,5.553,28,7,28
		c1.448,0,2.729-0.709,3.499-1.789C11.273,27.291,12.553,28,14,28s2.729-0.709,3.5-1.789C18.273,27.291,19.553,28,21,28
		c1.447,0,2.729-0.709,3.5-1.789C25.273,27.291,27,28,28,28v-2.514C27,25.486,25.273,24.775,24.5,23.695"/>
</g>
</svg>
