<?xml version="1.0" encoding="utf-8"?>
<svg version="1.1" id="Layer_1" xmlns="http://www.w3.org/2000/svg" xmlns:xlink="http://www.w3.org/1999/xlink" x="0px" y="0px" viewBox="0 0 28 28"
	 enable-background="new 0 0 28 28" xml:space="preserve">

		<g>
			<defs>
				<rect id="SVGID_1_" width="28" height="28"/>
			</defs>
			<clipPath id="SVGID_2_">
				<use xlink:href="#SVGID_1_"  overflow="visible"/>
			</clipPath>
			<path clip-path="url(#SVGID_2_)" fill="#231F20" d="M27.691,6.664l-1.656-0.686l1.656-0.686c0.256-0.106,0.377-0.398,0.271-0.653
				c-0.106-0.256-0.398-0.377-0.653-0.271l-1.657,0.686l0.686-1.656c0.106-0.255-0.015-0.548-0.27-0.653
				c-0.256-0.106-0.548,0.015-0.654,0.27l-0.686,1.657l-0.686-1.657c-0.106-0.255-0.398-0.376-0.653-0.271
				c-0.255,0.106-0.376,0.398-0.271,0.654l0.686,1.656l-1.656-0.686c-0.255-0.106-0.547,0.016-0.653,0.271
				c-0.106,0.255,0.015,0.547,0.271,0.653l1.656,0.686l-1.657,0.686c-0.255,0.106-0.376,0.398-0.27,0.653
				c0.106,0.256,0.398,0.377,0.653,0.271l1.657-0.686l-0.686,1.656c-0.106,0.255,0.015,0.548,0.27,0.653
				c0.128,0.053,0.265,0.049,0.383,0s0.217-0.143,0.27-0.27l0.686-1.657l0.686,1.657c0.106,0.255,0.398,0.376,0.654,0.271
				c0.255-0.106,0.376-0.398,0.27-0.654l-0.686-1.656l1.656,0.686c0.128,0.053,0.265,0.049,0.383,0
				c0.118-0.049,0.218-0.143,0.271-0.271C28.067,7.062,27.946,6.77,27.691,6.664"/>
			<path clip-path="url(#SVGID_2_)" fill="#231F20" d="M20.5,5.5h-2.25c-0.949,0-1.75-1.03-1.75-2.25C16.5,1.458,14.93,0,13,0h-0.5
				C10.57,0,9,1.57,9,3.5V7h1V3.5C10,2.121,11.122,1,12.5,1H13c1.378,0,2.5,1.01,2.5,2.25c0,1.792,1.233,3.25,2.75,3.25h2.25
				C20.776,6.5,21,6.276,21,6C21,5.724,20.776,5.5,20.5,5.5"/>
			<path clip-path="url(#SVGID_2_)" fill="#231F20" d="M14,10.133V8H5v2.133c-2.976,1.604-5,4.749-5,8.367C0,23.747,4.253,28,9.5,28
				s9.5-4.253,9.5-9.5C19,14.882,16.976,11.737,14,10.133 M12,11C6.477,11,2,15.477,2,21c0,0.103,0.012,0.202,0.015,0.304
				C1.688,20.431,1.5,19.488,1.5,18.5c0-4.418,3.582-8,8-8c0.988,0,1.93,0.188,2.804,0.515C12.202,11.012,12.103,11,12,11"/>
		</g>
</svg>
