<?xml version="1.0" encoding="utf-8"?>
<svg version="1.1" id="Layer_1" xmlns="http://www.w3.org/2000/svg" xmlns:xlink="http://www.w3.org/1999/xlink" x="0px" y="0px"
	 viewBox="0 0 28 28" enable-background="new 0 0 28 28" xml:space="preserve">
<g>
	<defs>
		<rect id="SVGID_1_" width="28" height="28"/>
	</defs>
	<clipPath id="SVGID_2_">
		<use xlink:href="#SVGID_1_"  overflow="visible"/>
	</clipPath>
	<path clip-path="url(#SVGID_2_)" d="M27.037,5.61c-1.281-1.283-3.363-1.283-4.646,0c-0.043,0.044-0.083,0.09-0.122,0.136
		l-0.013-0.014c0.045-0.04,0.092-0.078,0.135-0.122c1.283-1.283,1.283-3.363,0-4.647c-1.284-1.284-3.364-1.284-4.647,0
		c-1.285,1.284-1.285,3.364,0,4.647L5.609,17.745c-1.285-1.285-3.365-1.283-4.648,0c-1.281,1.281-1.281,3.363,0,4.644
		c1.285,1.286,3.365,1.285,4.648,0c0.086-0.086,0.166-0.176,0.242-0.272l0.032,0.03c-0.094,0.076-0.188,0.156-0.274,0.242
		c-1.283,1.285-1.285,3.365,0,4.65c1.283,1.281,3.364,1.281,4.647,0c1.283-1.285,1.283-3.364,0-4.65l12.135-12.132
		c1.283,1.284,3.365,1.284,4.646,0C28.322,8.974,28.322,6.892,27.037,5.61"/>
</g>
</svg>
