<?xml version="1.0" encoding="utf-8"?>
<svg version="1.1" id="Layer_1" xmlns="http://www.w3.org/2000/svg" xmlns:xlink="http://www.w3.org/1999/xlink" x="0px" y="0px"
	 viewBox="0 0 28 28" enable-background="new 0 0 28 28" xml:space="preserve">
<path d="M0,28h8v-1.998H0V28z M9,28h8v-1.998H9V28z M2,7.002h4.001v1H2V7.002z M2,5.002h4.001v1H2V5.002z M0,25.002h8V3.001H0
	V25.002z M11,7.002h4.001v1H11V7.002z M11,5.002h4.001v1H11V5.002z M9,25.002h8V3.001H9V25.002z M0,2.002h8v-2H0V2.002z M9,2.002h8
	v-2H9V2.002z M18,0.002L22,28h2L20,0.002H18z M22,0.002L26,28h2L24.001,0.002H22z"/>
</svg>
