<?xml version="1.0" encoding="utf-8"?>
<svg version="1.1" id="Layer_1" xmlns="http://www.w3.org/2000/svg" xmlns:xlink="http://www.w3.org/1999/xlink" x="0px" y="0px"
	 viewBox="0 0 28 28" enable-background="new 0 0 28 28" xml:space="preserve">
<g>
	<defs>
		<rect id="SVGID_1_" width="28" height="28"/>
	</defs>
	<clipPath id="SVGID_2_">
		<use xlink:href="#SVGID_1_"  overflow="visible"/>
	</clipPath>
	<path clip-path="url(#SVGID_2_)" d="M0,2h9V0H0V2z M10,2h9V0h-9V2z M24.502,0.015c-1.934,0-3.502,0.712-3.502,2V4h7V2.015
		C28,0.727,26.434,0.015,24.502,0.015 M0,28h9v-2H0V28z M0,25h9V3H0V25z M2,5h5v1H2V5z M2,7h5v1H2V7z M10,25h9V3h-9V25z M12,5h5v1
		h-5V5z M12,7h5v1h-5V7z M10,28h9v-2h-9V28z M24.5,27.985L28,22h-7L24.5,27.985z M21,21h7V5h-7V21z"/>
</g>
</svg>
