<?xml version="1.0" encoding="utf-8"?>
<svg version="1.1" id="Layer_1" xmlns="http://www.w3.org/2000/svg" xmlns:xlink="http://www.w3.org/1999/xlink" x="0px" y="0px"
	 viewBox="0 0 28 28" enable-background="new 0 0 28 28" xml:space="preserve">
<g>
	<defs>
		<rect id="SVGID_1_" width="28" height="28"/>
	</defs>
	<clipPath id="SVGID_2_">
		<use xlink:href="#SVGID_1_"  overflow="visible"/>
	</clipPath>
	<path clip-path="url(#SVGID_2_)" d="M13,23V1.935C11.644,0.703,9.037,0,6,0C3.656,0,1.477,0.56,0,1.448v21.064
		c1.477-0.888,3.656-1.448,6-1.448C9.037,21.064,11.644,21.768,13,23 M14.93,25h-1.86c-1.334-1.273-3.978-2-7.07-2
		c-2.344,0-4.523,0.559-6,1.447v3C1.477,26.559,3.656,26,6,26c3.043,0,5.648,0.708,7.002,1.944V28h2v-0.058
		C16.355,26.707,18.959,26,22,26c2.344,0,4.525,0.559,6,1.447v-3C26.525,23.559,24.344,23,22,23C18.91,23,16.266,23.727,14.93,25
		 M22,0c-3.037,0-5.643,0.703-7,1.935V23c1.357-1.232,3.963-1.936,7-1.936c2.344,0,4.525,0.56,6,1.448V1.448
		C26.525,0.56,24.344,0,22,0"/>
</g>
</svg>
