<?xml version="1.0" encoding="utf-8"?>
<svg version="1.1" id="Layer_1" xmlns="http://www.w3.org/2000/svg" xmlns:xlink="http://www.w3.org/1999/xlink" x="0px" y="0px" viewBox="0 0 28 28"
	 enable-background="new 0 0 28 28" xml:space="preserve">

		<g>
			<defs>
				<rect id="SVGID_1_" width="28" height="28"/>
			</defs>
			<clipPath id="SVGID_2_">
				<use xlink:href="#SVGID_1_"  overflow="visible"/>
			</clipPath>
			<path clip-path="url(#SVGID_2_)" fill="#231F20" d="M4,0.072c-1.621,0.072-3.117,0.23-3.479,0.593
				c-0.695,0.694-0.695,1.819,0,2.514C0.862,3.52,2.363,3.785,4,3.996V0.072z"/>
			<path clip-path="url(#SVGID_2_)" fill="#231F20" d="M23.556,20.001c0.062,0.519,0.134,1.227,0.217,1.999h4.21
				c0.01-0.781,0.012-1.491,0.018-2L23.556,20.001L23.556,20.001z"/>
			<path clip-path="url(#SVGID_2_)" fill="#231F20" d="M22.736,13.171L23.315,18H28V7.023c0.048-3.91-3.113-7.071-7.023-7.023H10
				v4.685l4.829,0.579C18.712,5.73,22.27,9.288,22.736,13.171"/>
			<path clip-path="url(#SVGID_2_)" fill="#231F20" d="M24.004,24c0.211,1.637,0.476,3.138,0.818,3.479
				c0.694,0.695,1.819,0.695,2.513,0c0.363-0.362,0.521-1.858,0.593-3.479H24.004z"/>
			<path clip-path="url(#SVGID_2_)" fill="#231F20" d="M8,0C7.492,0.006,6.781,0.007,6,0.018v4.21
				c0.773,0.083,1.48,0.154,1.999,0.217H8V0z"/>
		</g>
</svg>
