<?xml version="1.0" encoding="utf-8"?>
<svg version="1.1" id="Layer_1" xmlns="http://www.w3.org/2000/svg" xmlns:xlink="http://www.w3.org/1999/xlink" x="0px" y="0px" viewBox="0 0 28 28"
	 enable-background="new 0 0 28 28" xml:space="preserve">

		<g>
			<defs>
				<rect id="SVGID_1_" width="28" height="28"/>
			</defs>
			<clipPath id="SVGID_2_">
				<use xlink:href="#SVGID_1_"  overflow="visible"/>
			</clipPath>
			<path clip-path="url(#SVGID_2_)" fill="#231F20" d="M4,4.001c0-1.103,0.897-2,2-2h16c1.103,0,2,0.897,2,2v6h2v-6c0-2.2-1.8-4-4-4
				H6c-2.2,0-4,1.8-4,4v6h2V4.001z"/>
			<path clip-path="url(#SVGID_2_)" fill="#231F20" d="M20.5,15.001c-2.481,0-4.5,2.019-4.5,4.5s2.019,4.5,4.5,4.5
				s4.5-2.019,4.5-4.5S22.981,15.001,20.5,15.001"/>
			<path clip-path="url(#SVGID_2_)" fill="#231F20" d="M21,11.001v-1h-4v1h-1v-1h-4v1h-1v-1H7v1H0v17h28v-17H21z M7.5,25.001
				c-3.038,0-5.5-2.462-5.5-5.5s2.462-5.5,5.5-5.5s5.5,2.462,5.5,5.5S10.538,25.001,7.5,25.001 M20.5,25.001
				c-3.038,0-5.5-2.462-5.5-5.5s2.462-5.5,5.5-5.5s5.5,2.462,5.5,5.5S23.538,25.001,20.5,25.001"/>
			<path clip-path="url(#SVGID_2_)" fill="#231F20" d="M7.5,15.001c-2.481,0-4.5,2.019-4.5,4.5s2.019,4.5,4.5,4.5s4.5-2.019,4.5-4.5
				S9.981,15.001,7.5,15.001"/>
		</g>
</svg>
