<?xml version="1.0" encoding="utf-8"?>
<svg version="1.1" id="Layer_1" xmlns="http://www.w3.org/2000/svg" xmlns:xlink="http://www.w3.org/1999/xlink" x="0px" y="0px" viewBox="0 0 28 28"
	 enable-background="new 0 0 28 28" xml:space="preserve">

		<polygon fill="#231F20" points="1,25 1,28 18,28 20,26.496 22.001,28 27,28 27,25 		"/>
		<g>
			<defs>
				<rect id="SVGID_1_" width="28" height="28"/>
			</defs>
			<clipPath id="SVGID_2_">
				<use xlink:href="#SVGID_1_"  overflow="visible"/>
			</clipPath>
			<path clip-path="url(#SVGID_2_)" fill="#231F20" d="M26,23.99V1.934L12.387,2.909l-0.319-2.06
				c-0.084-0.545-0.598-0.922-1.141-0.837c-0.544,0.085-0.92,0.6-0.835,1.145l0.896,5.79H14.5c0.275,0,0.5,0.225,0.5,0.501
				c0,0.276-0.225,0.501-0.5,0.501h-3.357l0.311,2.005H14.5c0.275,0,0.5,0.226,0.5,0.502c0,0.275-0.225,0.501-0.5,0.501h-2.891
				l0.31,2.005H14.5c0.275,0,0.5,0.226,0.5,0.501c0,0.276-0.225,0.502-0.5,0.502H7c-3.314,0-6,2.693-6,6.015
				c0,1.543,0.584,2.945,1.537,4.01H26z"/>
		</g>
</svg>
