<?xml version="1.0" encoding="utf-8"?>
<svg version="1.1" id="Layer_1" xmlns="http://www.w3.org/2000/svg" xmlns:xlink="http://www.w3.org/1999/xlink" x="0px" y="0px" viewBox="0 0 28 28"
	 enable-background="new 0 0 28 28" xml:space="preserve">

		<g>
			<defs>
				<rect id="SVGID_1_" width="28" height="28"/>
			</defs>
			<clipPath id="SVGID_2_">
				<use xlink:href="#SVGID_1_"  overflow="visible"/>
			</clipPath>
			<path clip-path="url(#SVGID_2_)" fill="#231F20" d="M27.02,6.008l-5.028-5.027c-1.383-1.383-3.547-1.293-4.81,0.2l-4.625,5.465
				c-1.197,1.415-1.157,3.592,0.026,4.993L1.194,21.779c-0.101,0.09-0.2,0.189-0.292,0.292c-1.308,1.469-1.177,3.72,0.292,5.028
				c1.469,1.307,3.72,1.177,5.027-0.292l10.14-11.389c1.402,1.182,3.579,1.222,4.993,0.025l5.466-4.624
				C28.312,9.556,28.402,7.391,27.02,6.008 M4.395,25.281c-0.462,0.463-1.213,0.463-1.676,0c-0.462-0.463-0.462-1.213,0-1.676
				c0.463-0.463,1.214-0.463,1.676,0C4.858,24.068,4.858,24.818,4.395,25.281 M22.83,11.874c-1.079,1.079-2.689,1.304-4.004,0.699
				c-0.029-0.863-0.364-1.715-1.024-2.375c-0.659-0.66-1.512-0.995-2.374-1.024c-0.606-1.314-0.381-2.925,0.698-4.004
				c1.078-1.077,2.686-1.303,4-0.701c0.033,0.864,0.369,1.718,1.028,2.377c0.659,0.659,1.514,0.995,2.377,1.028
				C24.134,9.188,23.908,10.796,22.83,11.874"/>
		</g>
</svg>
