<?xml version="1.0" encoding="utf-8"?>
<svg version="1.1" id="Layer_1" xmlns="http://www.w3.org/2000/svg" xmlns:xlink="http://www.w3.org/1999/xlink" x="0px" y="0px" viewBox="0 0 28 28"
	 enable-background="new 0 0 28 28" xml:space="preserve">

		<g>
			<defs>
				<rect id="SVGID_1_" width="28" height="28"/>
			</defs>
			<clipPath id="SVGID_2_">
				<use xlink:href="#SVGID_1_"  overflow="visible"/>
			</clipPath>
			<path clip-path="url(#SVGID_2_)" fill="#231F20" d="M22.171,0.001c-1.281,0-1.589,0.742-0.682,1.648l1.724,1.725l-3.091,3.091
				C16.66,3.551,12.986,4.101,9.995,4.55c-2.933,0.443-5.25,0.791-7.434-1.394c-0.586-0.586-1.535-0.586-2.121,0
				c-0.586,0.586-0.586,1.535,0,2.121c0.105,0.105,0.212,0.196,0.318,0.294l2.07,14.609L0,23.008l3.623,1.37l1.371,3.623
				l3.061-3.063l14.518,2.459c0.052,0.055,0.097,0.11,0.151,0.164c0.293,0.293,0.677,0.44,1.061,0.44c0.383,0,0.767-0.147,1.06-0.44
				c0.586-0.586,0.586-1.535,0-2.121c-2.184-2.184-1.836-4.501-1.394-7.434c0.395-2.633,0.836-5.794-1.045-8.876l-2.203,2.204
				c0.904,1.95,0.62,3.974,0.281,6.225c-0.411,2.734-0.864,5.781,1.12,8.66L8.11,23.934l-0.722-1.907L24.627,4.788l1.725,1.724
				C27.258,7.419,28,7.111,28,5.83V0.001H22.171z M5.974,20.613L5.974,20.613l-2.193-0.83L1.896,6.471
				c2.844,1.895,5.849,1.452,8.546,1.046c2.761-0.416,5.182-0.772,7.544,1.084L5.974,20.613z"/>
		</g>
</svg>
