<?xml version="1.0" encoding="utf-8"?>
<svg version="1.1" id="Layer_1" xmlns="http://www.w3.org/2000/svg" xmlns:xlink="http://www.w3.org/1999/xlink" x="0px" y="0px" viewBox="0 0 28 28"
	 enable-background="new 0 0 28 28" xml:space="preserve">

		<g>
			<defs>
				<rect id="SVGID_1_" width="28" height="28"/>
			</defs>
			<clipPath id="SVGID_2_">
				<use xlink:href="#SVGID_1_"  overflow="visible"/>
			</clipPath>
			<path clip-path="url(#SVGID_2_)" fill="#231F20" d="M14,0.001c-7.732,0-14,6.268-14,14s6.268,14,14,14s14-6.268,14-14
				S21.732,0.001,14,0.001 M18.415,13.072c-0.781,0.781-2.048,0.781-2.829,0c-0.781-0.781-0.781-2.047,0-2.828
				c0.781-0.781,2.048-0.781,2.829,0S19.196,12.291,18.415,13.072 M19.829,7.415c-0.781,0.781-2.048,0.781-2.829,0
				s-0.781-2.047,0-2.828s2.048-0.781,2.829,0S20.61,6.634,19.829,7.415 M21.243,11.658c-0.781-0.781-0.781-2.048,0-2.829
				c0.781-0.781,2.047-0.781,2.828,0s0.781,2.048,0,2.829C23.29,12.439,22.024,12.439,21.243,11.658"/>
		</g>
</svg>
