<?xml version="1.0" encoding="utf-8"?>
<svg version="1.1" id="Layer_1" xmlns="http://www.w3.org/2000/svg" xmlns:xlink="http://www.w3.org/1999/xlink" x="0px" y="0px" viewBox="0 0 28 28"
	 enable-background="new 0 0 28 28" xml:space="preserve">

		<g>
			<defs>
				<rect id="SVGID_1_" width="28" height="28"/>
			</defs>
			<clipPath id="SVGID_2_">
				<use xlink:href="#SVGID_1_"  overflow="visible"/>
			</clipPath>
			<path clip-path="url(#SVGID_2_)" fill="#231F20" d="M25.053,10.001C25.022,9.782,25,9.561,25,9.334
				c0-0.515,0.016-0.954,0.043-1.333h-3.085C21.985,8.382,22,8.821,22,9.334c0,0.227-0.021,0.448-0.052,0.667H25.053z"/>
			<path clip-path="url(#SVGID_2_)" fill="#231F20" d="M25.159,7.001C25.441,5.356,26,5.243,26,3.001c0-3-2.5-3-2.5-3s-2.5,0-2.5,3
				c0,2.167,0.562,2.313,0.843,4H25.159z"/>
			<path clip-path="url(#SVGID_2_)" fill="#231F20" d="M25.288,11.001h-3.576C20.962,13.295,19,15.511,19,19.705
				c0,5.185,2.25,8.296,2.25,8.296h4.5c0,0,2.25-3.111,2.25-8.296C28,15.511,26.038,13.295,25.288,11.001"/>
			<path clip-path="url(#SVGID_2_)" fill="#231F20" d="M14.053,10.001C14.022,9.782,14,9.561,14,9.334
				c0-0.515,0.016-0.954,0.043-1.333h-3.085C10.985,8.382,11,8.821,11,9.334c0,0.227-0.021,0.448-0.052,0.667H14.053z"/>
			<path clip-path="url(#SVGID_2_)" fill="#231F20" d="M14.159,7.001C14.441,5.356,15,5.243,15,3.001c0-3-2.5-3-2.5-3s-2.5,0-2.5,3
				c0,2.167,0.562,2.313,0.843,4H14.159z"/>
			<path clip-path="url(#SVGID_2_)" fill="#231F20" d="M10.712,11.001C9.962,13.295,8,15.511,8,19.705
				c0,5.185,2.25,8.296,2.25,8.296h4.5c0,0,2.25-3.111,2.25-8.296c0-4.194-1.962-6.41-2.712-8.704H10.712z"/>
			<path clip-path="url(#SVGID_2_)" fill="#231F20" d="M6.159,7.001C6.441,5.356,7,5.243,7,3.001c0-3-2.5-3-2.5-3s-2.5,0-2.5,3
				c0,2.167,0.562,2.313,0.843,4H6.159z"/>
			<path clip-path="url(#SVGID_2_)" fill="#231F20" d="M6.053,10.001C6.022,9.782,6,9.561,6,9.334C6,8.819,6.016,8.38,6.043,8.001
				H2.958C2.985,8.382,3,8.821,3,9.334c0,0.227-0.021,0.448-0.052,0.667H6.053z"/>
			<path clip-path="url(#SVGID_2_)" fill="#231F20" d="M7.96,14.729c-0.592-1.403-1.289-2.557-1.672-3.728H2.712
				C1.962,13.295,0,15.51,0,19.704c0,5.186,2.25,8.297,2.25,8.297h4.5c0,0,0.625-0.872,1.217-2.45C7.452,24.073,7,22.097,7,19.704
				C7,17.682,7.43,16.077,7.96,14.729"/>
		</g>
</svg>
