<?xml version="1.0" encoding="utf-8"?>
<svg version="1.1" id="Layer_1" xmlns="http://www.w3.org/2000/svg" xmlns:xlink="http://www.w3.org/1999/xlink" x="0px" y="0px" viewBox="0 0 28 28"
	 enable-background="new 0 0 28 28" xml:space="preserve">

		<g>
			<defs>
				<rect id="SVGID_1_" width="28" height="28"/>
			</defs>
			<clipPath id="SVGID_2_">
				<use xlink:href="#SVGID_1_"  overflow="visible"/>
			</clipPath>
			<path clip-path="url(#SVGID_2_)" fill="#231F20" d="M9.75,0.001c-1.653,0-3.003,1.245-3.208,2.851
				C6.376,2.826,6.209,2.801,6.036,2.801c-1.795,0-3.25,1.462-3.25,3.267c0,0.571,0.158,1.1,0.415,1.567
				c-1.314,0.419-2.272,1.64-2.272,3.099c0,0.71,0.231,1.363,0.613,1.898C0.62,13.209,0,14.228,0,15.401
				c0,0.915,0.377,1.74,0.98,2.333C0.377,18.327,0,19.152,0,20.068c0,1.659,1.235,3.014,2.828,3.223
				c0.209,1.602,1.557,2.843,3.208,2.843c0.255,0,0.5-0.036,0.739-0.092c0.502,1.152,1.643,1.959,2.975,1.959
				c1.795,0,3.25-1.463,3.25-3.267V3.035c-0.001-0.029-0.025-0.061-0.033-0.091C12.804,1.294,11.435,0.001,9.75,0.001"/>
			<path clip-path="url(#SVGID_2_)" fill="#231F20" d="M28,15.401c0-1.172-0.62-2.192-1.543-2.769
				c0.383-0.535,0.614-1.187,0.614-1.898c0-1.459-0.958-2.68-2.272-3.099c0.256-0.467,0.415-0.996,0.415-1.567
				c0-1.804-1.455-3.267-3.25-3.267c-0.173,0-0.34,0.025-0.506,0.051c-0.205-1.605-1.555-2.851-3.208-2.851
				c-1.685,0-3.054,1.293-3.217,2.943C15.025,2.974,15.001,3.007,15,3.035v21.699c0,1.804,1.455,3.267,3.25,3.267
				c1.332,0,2.473-0.807,2.975-1.959c0.239,0.056,0.484,0.092,0.739,0.092c1.651,0,2.999-1.241,3.208-2.842
				C26.765,23.082,28,21.727,28,20.068c0-0.916-0.377-1.741-0.98-2.334C27.623,17.141,28,16.316,28,15.401"/>
		</g>
</svg>
