<?xml version="1.0" encoding="utf-8"?>
<svg version="1.1" id="Layer_1" xmlns="http://www.w3.org/2000/svg" xmlns:xlink="http://www.w3.org/1999/xlink" x="0px" y="0px" viewBox="0 0 28 28"
	 enable-background="new 0 0 28 28" xml:space="preserve">
	<g>
		<rect y="0.001" fill="#231F20" width="28" height="3"/>
		<rect x="1" y="24.001" fill="#231F20" width="8" height="3.999"/>
		<rect x="10" y="24.001" fill="#231F20" width="8" height="3.999"/>
		<rect x="19" y="24.001" fill="#231F20" width="8" height="3.999"/>
		<rect x="1" y="4.001" fill="#231F20" width="8" height="4"/>
		<rect x="10" y="4.001" fill="#231F20" width="8" height="4"/>
		<rect x="19" y="4" fill="#231F20" width="8" height="4.001"/>
		<rect x="1" y="14.001" fill="#231F20" width="9" height="4"/>
		<rect x="11" y="14.001" fill="#231F20" width="8" height="4"/>
		<rect x="20" y="14.001" fill="#231F20" width="7" height="4"/>
		<rect x="1" y="19.001" fill="#231F20" width="4" height="4"/>
		<rect x="24" y="19" fill="#231F20" width="3" height="4.001"/>
		<rect x="6" y="19.001" fill="#231F20" width="8" height="4"/>
		<rect x="15" y="19.001" fill="#231F20" width="8" height="4"/>
		<rect x="1" y="9.001" fill="#231F20" width="4" height="4"/>
		<rect x="24" y="9.001" fill="#231F20" width="3" height="4"/>
		<rect x="6" y="9.001" fill="#231F20" width="8" height="4"/>
		<rect x="15" y="9.001" fill="#231F20" width="8" height="4"/>
	</g>
</svg>
