<?xml version="1.0" encoding="utf-8"?>
<svg version="1.1" id="Layer_1" xmlns="http://www.w3.org/2000/svg" xmlns:xlink="http://www.w3.org/1999/xlink" x="0px" y="0px"
	 viewBox="0 0 28 28" enable-background="new 0 0 28 28" xml:space="preserve">
<g>
	<defs>
		<rect id="SVGID_1_" width="28" height="28"/>
	</defs>
	<clipPath id="SVGID_2_">
		<use xlink:href="#SVGID_1_"  overflow="visible"/>
	</clipPath>
	<path clip-path="url(#SVGID_2_)" d="M18.315,0.001l8.685,7h-8.689l-7.437-7H18.315z M27,19.001h-8v-11h8V19.001z M1,8.001l8.499-8
		l8.501,8v11h-4V11c0-1.8-1.987-3.999-4.501-3.999S5,9.2,5,11v8.001H1V8.001z M28,28c-1.447,0-2.728-0.714-3.5-1.802
		C23.728,27.286,22.447,28,21,28c-1.446,0-2.728-0.714-3.499-1.802C16.728,27.286,15.447,28,14,28s-2.728-0.714-3.501-1.802
		C9.728,27.286,8.448,28,7,28c-1.447,0-2.728-0.714-3.499-1.802C2.728,27.286,1.447,28,0,28v-2.531c1.447,0,2.728-0.716,3.501-1.801
		C4.272,24.753,5.553,25.469,7,25.469c1.448,0,2.728-0.716,3.499-1.801c0.773,1.085,2.054,1.801,3.501,1.801
		s2.728-0.716,3.501-1.801c0.771,1.085,2.053,1.801,3.499,1.801c1.447,0,2.728-0.716,3.5-1.801c0.772,1.085,2.053,1.801,3.5,1.801
		V28z M28,22.001H0v-2h28V22.001z"/>
</g>
</svg>
