<?xml version="1.0" encoding="utf-8"?>
<svg version="1.1" id="Layer_1" xmlns="http://www.w3.org/2000/svg" xmlns:xlink="http://www.w3.org/1999/xlink" x="0px" y="0px" viewBox="0 0 28 28"
	 enable-background="new 0 0 28 28" xml:space="preserve">

		<g>
			<defs>
				<rect id="SVGID_1_" width="28" height="28"/>
			</defs>
			<clipPath id="SVGID_2_">
				<use xlink:href="#SVGID_1_"  overflow="visible"/>
			</clipPath>
			<path clip-path="url(#SVGID_2_)" fill="#231F20" d="M17,14.025c0-1.181,0.518-2.232,1.328-2.969
				C16.429,8.762,13.561,7.3,10.35,7.3C4.634,7.3,0,11.934,0,17.65S4.634,28,10.35,28c5.593,0,10.138-4.439,10.332-9.985
				C18.623,17.838,17,16.13,17,14.025 M10.35,11.5c-3.391,0-6.149,2.759-6.149,6.15c0,0.415-0.336,0.75-0.75,0.75
				s-0.75-0.335-0.75-0.75c0-4.218,3.431-7.65,7.649-7.65c0.414,0,0.75,0.336,0.75,0.75C11.1,11.164,10.764,11.5,10.35,11.5"/>
			<path clip-path="url(#SVGID_2_)" fill="#231F20" d="M21.025,11C19.357,11,18,12.357,18,14.025s1.357,3.025,3.025,3.025
				c1.668,0,3.025-1.357,3.025-3.025S22.693,11,21.025,11"/>
			<path clip-path="url(#SVGID_2_)" fill="#231F20" d="M3,6c1.657,0,3-1.343,3-3c0-1.657-1.343-3-3-3S0,1.343,0,3
				C0,4.657,1.343,6,3,6"/>
			<path clip-path="url(#SVGID_2_)" fill="#231F20" d="M24,0c-2.209,0-4,1.791-4,4s1.791,4,4,4s4-1.791,4-4S26.209,0,24,0 M24,2.5
				c-0.827,0-1.5,0.673-1.5,1.5c0,0.276-0.224,0.5-0.5,0.5c-0.276,0-0.5-0.224-0.5-0.5c0-1.379,1.121-2.5,2.5-2.5
				c0.276,0,0.5,0.224,0.5,0.5C24.5,2.276,24.276,2.5,24,2.5"/>
		</g>
</svg>
