<?xml version="1.0" encoding="utf-8"?>
<svg version="1.1" id="Layer_1" xmlns="http://www.w3.org/2000/svg" xmlns:xlink="http://www.w3.org/1999/xlink" x="0px" y="0px"
	 viewBox="0 0 28 28" enable-background="new 0 0 28 28" xml:space="preserve">
<g>
	<defs>
		<rect id="SVGID_1_" width="28" height="28"/>
	</defs>
	<clipPath id="SVGID_2_">
		<use xlink:href="#SVGID_1_"  overflow="visible"/>
	</clipPath>
	<path clip-path="url(#SVGID_2_)" d="M14,8c3.434,0,6.353-1.354,7.488-3.253C19.66,1.84,16.986,0,14,0S8.342,1.84,6.512,4.747
		C7.646,6.646,10.566,8,14,8 M5.951,5.727C5.43,6.722,4.994,7.811,4.674,8.982C2.17,8.792,2.006,6.476,2,5.994L1,6H0
		c0,1.614,0.912,4.566,4.244,4.955C4.09,11.937,4,12.953,4,14c0,0.338,0.019,0.668,0.037,1H0v2h4.236
		c0.164,1.051,0.418,2.053,0.741,3.001C1.043,20.016,0,23.275,0,25l2,0.006C2.006,24.504,2.178,22,5,22h0.801
		c0.978,1.963,2.314,3.54,3.865,4.592l3.352-17.627C9.887,8.747,7.281,7.501,5.951,5.727 M24,14c0-1.047-0.088-2.063-0.244-3.045
		C27.09,10.566,28,7.614,28,6l-2-0.006c-0.006,0.482-0.17,2.798-2.672,2.988c-0.322-1.171-0.758-2.261-1.279-3.256
		c-1.322,1.763-3.905,3.005-7.01,3.233l3.297,17.632c1.551-1.051,2.887-2.628,3.865-4.591H23c2.824,0,2.994,2.504,3,3.006L27,25h1
		c0-1.725-1.041-4.984-4.975-4.999c0.323-0.948,0.575-1.95,0.739-3.001H28v-2h-4.035C23.98,14.668,24,14.338,24,14 M10.578,27.142
		C11.646,27.689,12.797,28,14,28h0.002c1.203,0,2.351-0.311,3.42-0.857L14.029,9L10.578,27.142z"/>
</g>
</svg>
