<?xml version="1.0" encoding="utf-8"?>
<svg version="1.1" id="Layer_1" xmlns="http://www.w3.org/2000/svg" xmlns:xlink="http://www.w3.org/1999/xlink" x="0px" y="0px"
	 viewBox="0 0 28 28" enable-background="new 0 0 28 28" xml:space="preserve">
<g>
	<defs>
		<rect id="SVGID_1_" width="28" height="28"/>
	</defs>
	<clipPath id="SVGID_2_">
		<use xlink:href="#SVGID_1_"  overflow="visible"/>
	</clipPath>
	<path clip-path="url(#SVGID_2_)" d="M18.691,11.182l-2.256,2.209c0.127,0.17,0.25,0.347,0.368,0.53
		c2.113,3.389,1.021,7.833-2.438,9.906c-1.156,0.695-2.478,1.06-3.824,1.06c-2.588,0-4.936-1.288-6.283-3.447
		c-1.026-1.641-1.334-3.574-0.875-5.448c0.461-1.87,1.634-3.454,3.31-4.456c1.158-0.695,2.481-1.062,3.828-1.062
		c1.387,0,2.702,0.373,3.836,1.05l-1.484,1.529c-0.715-0.349-1.512-0.546-2.346-0.546c-0.971,0-1.922,0.264-2.752,0.761
		c-2.484,1.488-3.267,4.678-1.748,7.112c0.967,1.549,2.653,2.474,4.506,2.474c0.969,0,1.92-0.263,2.75-0.759
		c1.203-0.72,2.047-1.857,2.377-3.201c0.33-1.346,0.107-2.733-0.629-3.911c-0.027-0.045-0.058-0.086-0.088-0.129l-3.76,3.686
		c-0.103,0.102-0.24,0.153-0.375,0.153c-0.134,0-0.271-0.051-0.373-0.153c-0.209-0.204-0.209-0.53,0-0.733L24.367,4.152
		l-1.053-0.338L21.75,0l-5.545,5.714l1.002,2.87l-0.633,0.652c-1.779-1.222-3.9-1.873-6.055-1.873c-1.873,0-3.769,0.49-5.482,1.517
		c-4.961,2.972-6.522,9.323-3.488,14.183C3.533,26.244,6.996,28,10.541,28c1.871,0,3.767-0.491,5.482-1.517
		c4.959-2.974,6.52-9.324,3.487-14.185C19.262,11.899,18.982,11.534,18.691,11.182 M25.494,4.513l-5.863,5.747l2.826,0.774L28,5.319
		L25.494,4.513z"/>
</g>
</svg>
