<?xml version="1.0" encoding="utf-8"?>
<svg version="1.1" id="Layer_1" xmlns="http://www.w3.org/2000/svg" xmlns:xlink="http://www.w3.org/1999/xlink" x="0px" y="0px"
	 viewBox="0 0 28 28" enable-background="new 0 0 28 28" xml:space="preserve">
<g>
	<defs>
		<rect id="SVGID_1_" width="28" height="28"/>
	</defs>
	<clipPath id="SVGID_2_">
		<use xlink:href="#SVGID_1_"  overflow="visible"/>
	</clipPath>
	<path clip-path="url(#SVGID_2_)" d="M14,28c6.627,0,12-0.735,12-6H2C2,27.265,7.373,28,14,28 M14,0C7.373,0,2,4.478,2,10.001h24
		C26,4.478,20.627,0,14,0 M25.793,16H2.207C0.988,16,0,17.123,0,18.494C0,19.879,0.988,21,2.207,21h23.586
		C27.012,21,28,19.879,28,18.494C28,17.123,27.012,16,25.793,16 M26.791,11.822c-0.861-0.001-1.799-0.182-2.795-0.378
		C22.877,11.225,21.715,11,20.406,11h-0.074c-1.256,0-2.418,0.225-3.541,0.444c-0.99,0.196-1.928,0.377-2.791,0.378
		c-0.863-0.001-1.799-0.182-2.793-0.378C10.086,11.225,8.924,11,7.617,11H7.545c-1.258,0-2.42,0.225-3.543,0.444
		c-0.992,0.196-1.93,0.377-2.791,0.378H0V15h1.211c1.254,0,2.416-0.227,3.547-0.448c0.943-0.185,1.92-0.375,2.785-0.375h0.121
		c0.871,0,1.846,0.19,2.797,0.375C11.582,14.773,12.746,15,14,15c1.256,0,2.418-0.227,3.549-0.448
		c0.943-0.185,1.918-0.375,2.783-0.375h0.121c0.869,0,1.848,0.19,2.797,0.375C24.373,14.773,25.533,15,26.791,15H28v-3.178H26.791z"
		/>
</g>
</svg>
