<?xml version="1.0" encoding="utf-8"?>
<svg version="1.1" id="Layer_1" xmlns="http://www.w3.org/2000/svg" xmlns:xlink="http://www.w3.org/1999/xlink" x="0px" y="0px"
	 viewBox="0 0 28 28" enable-background="new 0 0 28 28" xml:space="preserve">
<g>
	<defs>
		<rect id="SVGID_1_" width="28" height="28"/>
	</defs>
	<clipPath id="SVGID_2_">
		<use xlink:href="#SVGID_1_"  overflow="visible"/>
	</clipPath>
	<path clip-path="url(#SVGID_2_)" d="M2,26.198C2,27.399,3,27.999,4,28c1,0,2-0.601,2-1.802V24H2V26.198z M21.001,0h-14
		C2.001,0,0,2,0,6v17h28V6C28,2,26.001,0,21.001,0 M9,2h10c0.553,0,1,0.448,1,1s-0.447,1-1,1H9C8.448,4,8,3.552,8,3S8.448,2,9,2
		 M3.969,20c-1.106,0-2-0.897-2-2c0-1.104,0.894-2,2-2c1.103,0,2,0.896,2,2C5.969,19.103,5.072,20,3.969,20 M13,13H3V9.001
		C3,7,4.001,6,7.001,6H13V13z M15,6h6c3.001,0,4,1,4,3v4H15V6z M24,20c-1.105,0-2-0.897-2-2c0-1.104,0.895-2,2-2
		c1.104,0,2,0.896,2,2C26,19.103,25.104,20,24,20 M22,26.198c0,1.201,1,1.801,2,1.802c1,0,2-0.601,2-1.802V24h-4V26.198z"/>
</g>
</svg>
