<?xml version="1.0" encoding="utf-8"?>
<svg version="1.1" id="Layer_1" xmlns="http://www.w3.org/2000/svg" xmlns:xlink="http://www.w3.org/1999/xlink" x="0px" y="0px" viewBox="0 0 28 28"
	 enable-background="new 0 0 28 28" xml:space="preserve">

		<g>
			<defs>
				<rect id="SVGID_1_" width="28" height="28"/>
			</defs>
			<clipPath id="SVGID_2_">
				<use xlink:href="#SVGID_1_"  overflow="visible"/>
			</clipPath>
			<path clip-path="url(#SVGID_2_)" fill="#231F20" d="M0.08,5.958l0.629,4.852c0.456,3.513,2.384,6.578,4.815,8.124
				C4.039,20.651,3,22.86,3,24.602c0,2.407,2.213,3.874,4.919,3.259c0,0,2.31-0.831,4.081-4.092V7.823L5.866,1.378
				C2.906-1.821-0.576,0.903,0.08,5.958"/>
			<path clip-path="url(#SVGID_2_)" fill="#231F20" d="M22.135,1.378L16,7.826v15.791c1.78,3.393,4.166,4.244,4.166,4.244
				c2.706,0.616,4.92-0.851,4.92-3.259c0-1.752-1.053-3.979-2.552-5.701c2.404-1.557,4.305-4.604,4.757-8.09l0.63-4.852
				C28.576,0.904,25.008-1.821,22.135,1.378"/>
			<path clip-path="url(#SVGID_2_)" fill="#231F20" d="M16.805,4.903c0.301,0.064,0.625-0.003,0.86-0.237
				c0.367-0.367,0.367-0.963,0-1.33s-0.963-0.367-1.33,0c-0.234,0.234-0.301,0.559-0.237,0.86l-1.855,1.855
				c-0.08-0.021-0.157-0.05-0.243-0.05c-0.086,0-0.164,0.029-0.244,0.05l-1.854-1.855c0.064-0.301-0.003-0.626-0.237-0.86
				c-0.368-0.367-0.963-0.367-1.33,0s-0.367,0.963,0,1.33c0.234,0.234,0.558,0.301,0.86,0.237l1.854,1.855
				C13.029,6.837,13,6.915,13,7.001v16c0,0.55,0.45,1,1,1s1-0.45,1-1v-16c0-0.086-0.029-0.164-0.05-0.243L16.805,4.903z"/>
		</g>

</svg>
