<?xml version="1.0" encoding="utf-8"?>
<svg version="1.1" id="Layer_1" xmlns="http://www.w3.org/2000/svg" xmlns:xlink="http://www.w3.org/1999/xlink" x="0px" y="0px"
	 viewBox="0 0 28 28" enable-background="new 0 0 28 28" xml:space="preserve">
<g>
	<defs>
		<rect id="SVGID_1_" width="28" height="28"/>
	</defs>
	<clipPath id="SVGID_2_">
		<use xlink:href="#SVGID_1_"  overflow="visible"/>
	</clipPath>
	<path clip-path="url(#SVGID_2_)" d="M14.002,4C8.486,4,4,8.487,4,14.001S8.486,24,14.002,24C19.514,24,24,19.515,24,14.001
		S19.514,4,14.002,4 M11,19c-1.105,0-2-0.897-2-2c0-1.104,0.895-2,2-2c1.106,0,2,0.896,2,2C13,18.103,12.106,19,11,19 M11,13
		c-1.105,0-2-0.897-2-2c0-1.104,0.895-2,2-2c1.106,0,2,0.896,2,2C13,12.103,12.106,13,11,13 M17,19c-1.105,0-2-0.897-2-2
		c0-1.104,0.895-2,2-2c1.106,0,2,0.896,2,2C19,18.103,18.106,19,17,19 M17,13c-1.105,0-2-0.897-2-2c0-1.104,0.895-2,2-2
		c1.106,0,2,0.896,2,2C19,12.103,18.106,13,17,13 M14.004,0C6.27,0,0,6.267,0,14c0,7.732,6.27,14,14.004,14
		C21.732,28,28,21.732,28,14C28,6.267,21.732,0,14.004,0 M14.002,25.494C7.666,25.494,2.506,20.336,2.506,14
		c0-6.338,5.16-11.496,11.496-11.496c6.338,0,11.494,5.158,11.494,11.496C25.496,20.336,20.34,25.494,14.002,25.494"/>
</g>
</svg>
