<?xml version="1.0" encoding="utf-8"?>
<svg version="1.1" id="Layer_1" xmlns="http://www.w3.org/2000/svg" xmlns:xlink="http://www.w3.org/1999/xlink" x="0px" y="0px" viewBox="0 0 28 28"
	 enable-background="new 0 0 28 28" xml:space="preserve">

		<g>
			<defs>
				<rect id="SVGID_1_" width="28" height="28"/>
			</defs>
			<clipPath id="SVGID_2_">
				<use xlink:href="#SVGID_1_"  overflow="visible"/>
			</clipPath>
			<path clip-path="url(#SVGID_2_)" fill="#231F20" d="M27,15.001h-1v-0.5c0-1.381-1.119-2.5-2.5-2.5c-1.381,0-2.5,1.119-2.5,2.5
				v2.5c0,0.552-0.448,1-1,1h-1v-11c0.552,0,1-0.448,1-1s-0.448-1-1-1c0-2.761-2.238-5-5-5c-2.761,0-5,2.239-5,5v8H8
				c-0.552,0-1-0.448-1-1v-2c0-1.657-1.343-3-3-3s-3,1.343-3,3c-0.552,0-1,0.448-1,1s0.448,1,1,1v1c0,3.309,2.757,6,6.146,6H9v2H8
				c-0.552,0-1,0.448-1,1c0,0.552,0.448,1,1,1h1v5h10v-5h1.355c3.113,0,5.645-2.468,5.645-5.5v-0.5h1c0.552,0,1-0.448,1-1
				C28,15.449,27.552,15.001,27,15.001"/>
		</g>

</svg>
