<?xml version="1.0" encoding="utf-8"?>
<svg version="1.1" id="Layer_1" xmlns="http://www.w3.org/2000/svg" xmlns:xlink="http://www.w3.org/1999/xlink" x="0px" y="0px"
	 viewBox="0 0 28 28" enable-background="new 0 0 28 28" xml:space="preserve">
<path d="M18,20h2v-2h-2V20z M2.999,22.999H5V25H2.999V22.999z M8,22.999h2V25H8V22.999z M12.999,22.999H15V25h-2.001V22.999z
	 M2.999,18H5v2H2.999V18z M8,18h2v2H8V18z M12.999,18H15v2h-2.001V18z M23,18h2v2h-2V18z M17,17h4v4h-4V17z M2.999,13H5v2.001H2.999
	V13z M8,13h2v2.001H8V13z M12.999,13H15v2.001h-2.001V13z M18,13h2v2.001h-2V13z M23,13h2v2.001h-2V13z M0,28h28V10H0V28z M14,1.465
	l3.3,3.534h-6.603L14,1.465z M14.001,0L9.33,4.999H0V9h28V4.999h-9.332L14.001,0z"/>
</svg>
