<?xml version="1.0" encoding="utf-8"?>
<svg version="1.1" id="Layer_1" xmlns="http://www.w3.org/2000/svg" xmlns:xlink="http://www.w3.org/1999/xlink" x="0px" y="0px"
	 viewBox="0 0 28 28" enable-background="new 0 0 28 28" xml:space="preserve">
<g>
	<defs>
		<rect id="SVGID_1_" width="28" height="28"/>
	</defs>
	<clipPath id="SVGID_2_">
		<use xlink:href="#SVGID_1_"  overflow="visible"/>
	</clipPath>
	<path clip-path="url(#SVGID_2_)" d="M9,8c-3.309,0-6,2.693-6,6c0,3.309,2.691,6,6,6c3.31,0,6-2.691,6-6C15,10.693,12.31,8,9,8
		 M9,17.501c-1.93,0-3.5-1.571-3.5-3.501s1.57-3.5,3.5-3.5s3.5,1.57,3.5,3.5S10.93,17.501,9,17.501 M0,28h22v-3H0V28z M23,28h5v-3
		h-5V28z M15,0H8L6,3H0v21h22V3h-5L15,0z M9,21.5c-4.143,0-7.5-3.356-7.5-7.5c0-4.142,3.357-7.5,7.5-7.5c4.141,0,7.5,3.358,7.5,7.5
		C16.5,18.144,13.141,21.5,9,21.5 M19.56,5.941c0.586,0.586,0.586,1.536,0.002,2.122c-0.585,0.585-1.535,0.583-2.121-0.002
		c-0.588-0.586-0.588-1.538-0.002-2.122C18.025,5.354,18.975,5.355,19.56,5.941 M23,24h5V3h-5V24z"/>
</g>
</svg>
