<?xml version="1.0" encoding="utf-8"?>
<svg version="1.1" id="Layer_1" xmlns="http://www.w3.org/2000/svg" xmlns:xlink="http://www.w3.org/1999/xlink" x="0px" y="0px"
	 viewBox="0 0 28 28" enable-background="new 0 0 28 28" xml:space="preserve">
<g>
	<defs>
		<rect id="SVGID_1_" width="28" height="28"/>
	</defs>
	<clipPath id="SVGID_2_">
		<use xlink:href="#SVGID_1_"  overflow="visible"/>
	</clipPath>
	<path clip-path="url(#SVGID_2_)" d="M15.752,9.996c-0.768,0.66-2.137,2.2-2.137,4.343c0,1.359,0.545,2.605,1.451,3.595
		c3.366-0.438,5.952-2.937,5.952-5.963c0-2.51-0.813-4.601-1.94-6.3C18.793,6.888,17.844,8.199,15.752,9.996 M13.201,17.958
		c-0.705-1.097-1.086-2.347-1.086-3.619c0-2.881,1.86-4.792,2.658-5.482c1.725-1.479,2.627-2.6,2.844-3.527l0.277-1.186
		C15.412,1.341,12.355,0,12.355,0c0.87,2.404,0.75,4.135-3.115,7.456c-0.799,0.686-2.222,2.287-2.222,4.515
		C7.018,15.066,9.723,17.609,13.201,17.958 M27.133,21.225L28,21l-1-5l-10.012,2.596L27.133,21.225z M0,21l27,7l1-5L1,16L0,21z
		 M0,23l1,5l10.012-2.596L0.869,22.775L0,23z"/>
</g>
</svg>
