<?xml version="1.0" encoding="utf-8"?>
<svg version="1.1" id="Layer_1" xmlns="http://www.w3.org/2000/svg" xmlns:xlink="http://www.w3.org/1999/xlink" x="0px" y="0px" viewBox="0 0 28 28"
	 enable-background="new 0 0 28 28" xml:space="preserve">

		<g>
			<defs>
				<rect id="SVGID_1_" width="28" height="28"/>
			</defs>
			<clipPath id="SVGID_2_">
				<use xlink:href="#SVGID_1_"  overflow="visible"/>
			</clipPath>
			<path clip-path="url(#SVGID_2_)" fill="#231F20" d="M19.521,6.056l-0.879-5.03c-0.593,0.399-1.127,0.906-1.562,1.526
				l-1.559,2.229l0.978,5.597L19.521,6.056z"/>
			<polygon clip-path="url(#SVGID_2_)" fill="#231F20" points="3.994,21.266 4.972,26.862 8.016,22.509 7.038,16.913 			"/>
			<path clip-path="url(#SVGID_2_)" fill="#231F20" d="M20.359,4.858c0.468-0.668,1.272-0.959,2.025-0.812l1.749-3.654
				c-1.495-0.569-3.136-0.507-4.563,0.123l0.764,4.378L20.359,4.858z"/>
			<path clip-path="url(#SVGID_2_)" fill="#231F20" d="M23.986,5.874l3.954-0.693c-0.222-1.595-1.072-3.099-2.489-4.095
				c-0.135-0.095-0.275-0.179-0.415-0.262l-1.753,3.662C23.708,4.845,23.949,5.348,23.986,5.874"/>
			<polygon clip-path="url(#SVGID_2_)" fill="#231F20" points="14.708,5.944 11.685,10.266 12.663,15.863 15.685,11.541 			"/>
			<path clip-path="url(#SVGID_2_)" fill="#231F20" d="M1.206,25.254c-0.317,0.451-0.207,1.08,0.244,1.397l1.639,1.153
				c0.317,0.223,0.719,0.224,1.041,0.054l-0.948-5.429L1.206,25.254z"/>
			<path clip-path="url(#SVGID_2_)" fill="#231F20" d="M23.637,7.163c-0.636,0.907-0.417,2.158,0.488,2.795
				c0.905,0.636,2.155,0.418,2.79-0.489C27.617,8.469,27.968,7.326,28,6.188L23.768,6.93C23.727,7.009,23.69,7.089,23.637,7.163"/>
			<polygon clip-path="url(#SVGID_2_)" fill="#231F20" points="7.851,15.75 8.829,21.346 11.85,17.025 10.873,11.428 			"/>
			<path clip-path="url(#SVGID_2_)" fill="#231F20" d="M12.77,5.219l-1.85-2.646c-0.435-0.62-0.969-1.126-1.562-1.526l-0.879,5.03
				l1.846,2.639L12.77,5.219z"/>
			<path clip-path="url(#SVGID_2_)" fill="#231F20" d="M7.641,4.879l0.025,0.035L8.43,0.536c-1.427-0.63-3.068-0.692-4.563-0.123
				l1.749,3.654C6.369,3.92,7.173,4.211,7.641,4.879"/>
			<polygon clip-path="url(#SVGID_2_)" fill="#231F20" points="20.962,16.934 19.985,22.53 23.029,26.884 24.006,21.287 			"/>
			<polygon clip-path="url(#SVGID_2_)" fill="#231F20" points="17.661,12.213 15.216,15.71 19.172,21.368 20.149,15.772 			"/>
			<path clip-path="url(#SVGID_2_)" fill="#231F20" d="M24.819,22.45l-0.948,5.43c0.322,0.17,0.723,0.169,1.04-0.054l1.64-1.153
				c0.45-0.317,0.56-0.946,0.244-1.398L24.819,22.45z"/>
			<path clip-path="url(#SVGID_2_)" fill="#231F20" d="M4.717,4.507L2.964,0.846c-0.14,0.082-0.28,0.166-0.415,0.261
				c-1.417,0.997-2.266,2.5-2.489,4.095l3.954,0.693C4.051,5.369,4.292,4.866,4.717,4.507"/>
			<path clip-path="url(#SVGID_2_)" fill="#231F20" d="M3.875,9.98C4.78,9.343,4.999,8.092,4.363,7.185
				C4.311,7.11,4.273,7.03,4.232,6.951L0,6.209c0.032,1.14,0.383,2.282,1.085,3.282C1.72,10.398,2.97,10.617,3.875,9.98"/>
		</g>

</svg>
