<?xml version="1.0" encoding="utf-8"?>
<svg version="1.1" id="Layer_1" xmlns="http://www.w3.org/2000/svg" xmlns:xlink="http://www.w3.org/1999/xlink" x="0px" y="0px"
	 viewBox="0 0 28 28" enable-background="new 0 0 28 28" xml:space="preserve">
<g>
	<defs>
		<rect id="SVGID_1_" width="28" height="28"/>
	</defs>
	<clipPath id="SVGID_2_">
		<use xlink:href="#SVGID_1_"  overflow="visible"/>
	</clipPath>
	<path clip-path="url(#SVGID_2_)" d="M10,15.044h8V22h-8V15.044z M15.324,7.881c-0.586,0.514-1.631,1.717-1.631,3.388
		c0,1.06,0.416,1.971,1.108,2.742c2.57-0.342,4.543-2.229,4.543-4.589c0-1.958-0.621-3.588-1.481-4.915
		C17.646,5.455,16.92,6.479,15.324,7.881 M13.523,14.041c-0.56-0.856-0.867-1.773-0.867-2.772c0-2.19,1.412-3.618,1.985-4.171
		c2.316-2.232,2.406-3.682,2.406-3.682C15.139,1.162,12.732,0,12.732,0c0.663,1.875,0.573,3.308-2.378,5.898
		c-0.61,0.536-1.696,1.784-1.696,3.524C8.658,11.881,10.799,13.826,13.523,14.041 M0,23.067C0,26.29,6.268,28,14,28
		s14-1.71,14-4.933H0z"/>
</g>
</svg>
