<?xml version="1.0" encoding="utf-8"?>
<svg version="1.1" id="Layer_1" xmlns="http://www.w3.org/2000/svg" xmlns:xlink="http://www.w3.org/1999/xlink" x="0px" y="0px" viewBox="0 0 28 28"
	 enable-background="new 0 0 28 28" xml:space="preserve">

		<g>
			<defs>
				<rect id="SVGID_1_" width="28" height="28"/>
			</defs>
			<clipPath id="SVGID_2_">
				<use xlink:href="#SVGID_1_"  overflow="visible"/>
			</clipPath>
			<path clip-path="url(#SVGID_2_)" fill="#231F20" d="M5,0C2.239,0,0,2.238,0,5v13c0,2.762,2.239,5,5,5s5-2.238,5-5V5
				C10,2.238,7.761,0,5,0 M5,2c1.654,0,3,1.346,3,3v6H2V5C2,3.346,3.346,2,5,2"/>
			<path clip-path="url(#SVGID_2_)" fill="#231F20" d="M27.35,20.535L20.944,9.224c-0.92-1.625-2.613-2.537-4.355-2.537
				c-0.835,0-1.681,0.209-2.46,0.65c-2.403,1.361-3.247,4.411-1.886,6.815l6.406,11.31C19.569,27.088,21.262,28,23.004,28
				c0.835,0,1.682-0.21,2.46-0.65C27.867,25.989,28.712,22.938,27.35,20.535 M13.702,10.887c0.214-0.772,0.715-1.415,1.413-1.81
				c0.451-0.255,0.961-0.39,1.474-0.39c1.081,0,2.083,0.583,2.614,1.522l2.958,5.221l-5.221,2.957l-2.957-5.221
				C13.588,12.469,13.488,11.66,13.702,10.887"/>
		</g>

</svg>
