<?xml version="1.0" encoding="utf-8"?>
<?xml version="1.0" encoding="utf-8"?>
<svg version="1.1" id="Layer_1" xmlns="http://www.w3.org/2000/svg" xmlns:xlink="http://www.w3.org/1999/xlink" x="0px" y="0px"
	 viewBox="0 0 28 28" enable-background="new 0 0 28 28" xml:space="preserve">
<g>
	<defs>
		<rect id="SVGID_1_" width="28" height="28"/>
	</defs>
	<clipPath id="SVGID_2_">
		<use xlink:href="#SVGID_1_"  overflow="visible"/>
	</clipPath>
	<path clip-path="url(#SVGID_2_)" d="M2,26.198C2,27.399,3,27.999,4,28c1,0,2-0.601,2-1.802V23H2V26.198z M22,26.198
		c0,1.201,1,1.801,2,1.802c1,0,2-0.601,2-1.802V23h-4V26.198z M25,12V6c0-3.999-1.999-5.999-6.999-6h-8C5.001,0,3,2,3,6v6
		c-2,1.001-3,3.001-3,6v4h28v-4C28,15.001,27,13.001,25,12 M3.969,19c-1.106,0-2-0.896-2-2s0.894-2,2-2c1.103,0,2,0.896,2,2
		S5.072,19,3.969,19 M6,6.001C6,4,7,3,10.001,3H18c3,0,4,1,4,3v6H6V6.001z M24,19c-1.104,0-2-0.896-2-2s0.896-2,2-2
		c1.105,0,2,0.896,2,2S25.105,19,24,19"/>
</g>
</svg>
