<?xml version="1.0" encoding="utf-8"?>
<?xml version="1.0" encoding="utf-8"?>
<svg version="1.1" id="Layer_1" xmlns="http://www.w3.org/2000/svg" xmlns:xlink="http://www.w3.org/1999/xlink" x="0px" y="0px"
	 viewBox="0 0 28 28" enable-background="new 0 0 28 28" xml:space="preserve">
<g>
	<defs>
		<rect id="SVGID_1_" width="28" height="28"/>
	</defs>
	<clipPath id="SVGID_2_">
		<use xlink:href="#SVGID_1_"  overflow="visible"/>
	</clipPath>
	<path clip-path="url(#SVGID_2_)" d="M2,26.198C2,27.399,3,27.999,4,28c1,0,2-0.601,2-1.802V23H2V26.198z M22,26.198
		c0,1.201,1,1.801,2,1.802c1,0,2-0.601,2-1.802V23h-4V26.198z M25,12V6c0-3.999-1.999-5.999-6.999-6h-8C5.001,0,3,2,3,6v6
		c-2,1.001-3,3.001-3,6v4h28v-4C28,15.001,27,13.001,25,12 M3.969,19c-1.106,0-2-0.896-2-2s0.894-2,2-2c1.103,0,2,0.896,2,2
		S5.072,19,3.969,19 M18.447,6.002l-2.059,2.005l-1.703-0.199L14.486,6.14l2.059-2.017c-1.171-0.434-2.541-0.192-3.484,0.73
		c-0.942,0.92-1.19,2.343-0.746,3.489L8.66,12H6V6.001C6,4,7.001,3,10.001,3H18c2.865,0,4,1,4,3v6h-9.537l1.754-1.796
		c1.17,0.432,2.541,0.15,3.484-0.773C18.644,8.511,18.89,7.147,18.447,6.002 M24,19c-1.105,0-2-0.896-2-2s0.895-2,2-2
		c1.104,0,2,0.896,2,2S25.104,19,24,19"/>
</g>
</svg>
