<?xml version="1.0" encoding="utf-8"?>
<svg version="1.1" id="Layer_1" xmlns="http://www.w3.org/2000/svg" xmlns:xlink="http://www.w3.org/1999/xlink" x="0px" y="0px" viewBox="0 0 28 28"
	 enable-background="new 0 0 28 28" xml:space="preserve">

		<g>
			<defs>
				<rect id="SVGID_1_" width="28" height="28"/>
			</defs>
			<clipPath id="SVGID_2_">
				<use xlink:href="#SVGID_1_"  overflow="visible"/>
			</clipPath>
			<path clip-path="url(#SVGID_2_)" fill="#231F20" d="M26,0H12c-1.105,0-2,0.895-2,2v1h6c1.654,0,3,1.346,3,3v18h7
				c1.104,0,2-0.896,2-2V2C28,0.895,27.104,0,26,0"/>
			<path clip-path="url(#SVGID_2_)" fill="#231F20" d="M16,4H2C0.895,4,0,4.895,0,6v20c0,1.105,0.895,2,2,2h14c1.104,0,2-0.895,2-2
				V6C18,4.895,17.104,4,16,4 M9,20.5c0,0-5-3.084-5-5.948C4,13.145,5.176,11.5,6.627,11.5c1.049,0,1.954,0.604,2.373,1.472
				c0.42-0.868,1.325-1.472,2.377-1.472c1.447,0,2.623,1.645,2.623,3.052C14,17.325,9,20.5,9,20.5"/>
		</g>

</svg>
