<?xml version="1.0" encoding="utf-8"?>
<svg version="1.1" id="Layer_1" xmlns="http://www.w3.org/2000/svg" xmlns:xlink="http://www.w3.org/1999/xlink" x="0px" y="0px" viewBox="0 0 28 28"
	 enable-background="new 0 0 28 28" xml:space="preserve">

		<g>
			<defs>
				<rect id="SVGID_1_" width="28" height="28"/>
			</defs>
			<clipPath id="SVGID_2_">
				<use xlink:href="#SVGID_1_"  overflow="visible"/>
			</clipPath>
			<path clip-path="url(#SVGID_2_)" fill="#231F20" d="M18.806,5.437c-1.805-0.753-3.831-0.544-5.711,0.887l3.79,3.789
				c0.195,0.196,0.195,0.513,0,0.709c-0.098,0.097-0.226,0.146-0.354,0.146c-0.129,0-0.257-0.049-0.355-0.146l-3.84-3.84
				c-0.126,0.122-0.255,0.229-0.379,0.364c-0.798,0.864-1.729,2.075-2.712,3.476l3.465,3.466c0.196,0.195,0.196,0.512,0,0.708
				c-0.097,0.098-0.226,0.147-0.354,0.147c-0.128,0-0.256-0.049-0.354-0.147L8.666,11.66c-0.892,1.312-1.812,2.755-2.706,4.224
				l2.577,2.577c0.196,0.196,0.196,0.513,0,0.708c-0.098,0.098-0.226,0.147-0.354,0.147s-0.257-0.049-0.354-0.147l-2.402-2.402
				c-0.9,1.507-1.757,3.014-2.516,4.417l1.452,1.451c0.195,0.196,0.195,0.513,0,0.709c-0.098,0.098-0.226,0.147-0.355,0.147
				c-0.128,0-0.256-0.049-0.354-0.147l-1.237-1.237c-1.64,3.113-2.676,5.521-2.361,5.837c0.822,0.822,15.857-7.528,20.595-11.902
				c2.355-2.173,2.818-4.674,1.91-6.85L18.806,5.437z"/>
			<path clip-path="url(#SVGID_2_)" fill="#231F20" d="M26.885,4.971l-2.072,0.122l2.945-3.435c0.318-0.369,0.328-0.926,0-1.308
				c-0.361-0.421-0.995-0.469-1.417-0.108l-3.433,2.946l0.121-2.073c0.027-0.464-0.27-0.9-0.736-1.03
				c-0.536-0.149-1.091,0.165-1.24,0.701L19.86,5.073l3.068,3.069l4.287-1.195c0.447-0.124,0.763-0.547,0.735-1.029
				C27.917,5.362,27.44,4.938,26.885,4.971"/>
		</g>

</svg>
