<?xml version="1.0" encoding="utf-8"?>
<svg version="1.1" id="Layer_1" xmlns="http://www.w3.org/2000/svg" xmlns:xlink="http://www.w3.org/1999/xlink" x="0px" y="0px" viewBox="0 0 28 28"
	 enable-background="new 0 0 28 28" xml:space="preserve">

	<g>
		<rect y="22" fill="#231F20" width="12" height="6"/>
		<g>
			<defs>
				<rect id="SVGID_1_" width="28" height="28"/>
			</defs>
			<clipPath id="SVGID_2_">
				<use xlink:href="#SVGID_1_"  overflow="visible"/>
			</clipPath>
			<path clip-path="url(#SVGID_2_)" fill="#231F20" d="M16,13.5c0-2.316,1.223-4.349,3.052-5.5H7.625C4.519,8,2,10.519,2,13.625V21
				h14V13.5z M5,19c-0.553,0-1-0.447-1-1c0-0.553,0.447-1,1-1s1,0.447,1,1C6,18.553,5.553,19,5,19 M5,16c-0.553,0-1-0.447-1-1
				c0-0.553,0.447-1,1-1s1,0.447,1,1C6,15.553,5.553,16,5,16 M9,19c-0.553,0-1-0.447-1-1c0-0.553,0.447-1,1-1c0.553,0,1,0.447,1,1
				C10,18.553,9.553,19,9,19 M9,16c-0.553,0-1-0.447-1-1c0-0.553,0.447-1,1-1c0.553,0,1,0.447,1,1C10,15.553,9.553,16,9,16 M13,19
				c-0.553,0-1-0.447-1-1c0-0.553,0.447-1,1-1c0.553,0,1,0.447,1,1C14,18.553,13.553,19,13,19 M13,16c-0.553,0-1-0.447-1-1
				c0-0.553,0.447-1,1-1c0.553,0,1,0.447,1,1C14,15.553,13.553,16,13,16"/>
			<path clip-path="url(#SVGID_2_)" fill="#231F20" d="M23,0H8v7h15V0z M21,5H10V2h11V5z"/>
			<path clip-path="url(#SVGID_2_)" fill="#231F20" d="M24,0v8h-1.5c-3.037,0-5.5,2.463-5.5,5.5V22h-4v6h15V0H24z"/>
		</g>
	</g>

</svg>
