<?xml version="1.0" encoding="utf-8"?>
<svg version="1.1" id="Layer_1" xmlns="http://www.w3.org/2000/svg" xmlns:xlink="http://www.w3.org/1999/xlink" x="0px" y="0px" viewBox="0 0 28 28"
	 enable-background="new 0 0 28 28" xml:space="preserve">

		<g>
			<defs>
				<rect id="SVGID_1_" width="28" height="28"/>
			</defs>
			<clipPath id="SVGID_2_">
				<use xlink:href="#SVGID_1_"  overflow="visible"/>
			</clipPath>
			<path clip-path="url(#SVGID_2_)" fill="#231F20" d="M0,18.662c9.333,2.611,18.667-2.61,28,0v-1.864
				c-9.333-2.612-18.667,2.61-28,0V18.662z"/>
			<path clip-path="url(#SVGID_2_)" fill="#231F20" d="M0,21.46c9.333,2.61,18.667-2.611,28,0v-1.865c-9.333-2.611-18.667,2.61-28,0
				V21.46z"/>
			<path clip-path="url(#SVGID_2_)" fill="#231F20" d="M0,24.257c9.333,2.611,18.667-2.61,28,0v-1.864
				c-9.333-2.612-18.667,2.61-28,0V24.257z"/>
			<path clip-path="url(#SVGID_2_)" fill="#231F20" d="M0,27.055c9.333,2.61,18.667-2.611,28,0V25.19
				c-9.333-2.611-18.667,2.611-28,0V27.055z"/>
			<path clip-path="url(#SVGID_2_)" fill="#231F20" d="M14.388,7.398c-0.925-0.089-1.182-0.178-1.182-0.446
				c0-0.259,0.144-0.466,0.741-0.55c0.729-0.101,1.368,0.058,2.005,0.409c0.322-0.55,0.644-1.099,0.966-1.646
				c-0.535-0.319-1.131-0.499-1.861-0.512V3.595c-0.645,0.089-1.288,0.18-1.933,0.27v1.066c-1.192,0.426-1.913,1.289-1.913,2.397
				c0,1.451,0.833,1.827,2.572,1.987c0.965,0.094,1.222,0.224,1.222,0.493c0,0.342-0.225,0.497-0.934,0.597
				c-0.669,0.095-1.584-0.142-2.109-0.437c-0.322,0.55-0.643,1.099-0.966,1.646c0.555,0.297,1.305,0.508,2.128,0.529v1.046
				c0.645-0.089,1.288-0.181,1.933-0.269v-1.067C16.229,11.473,17,10.708,17,9.403C17,8.046,16.199,7.579,14.388,7.398"/>
			<path clip-path="url(#SVGID_2_)" fill="#231F20" d="M23.142,0.212C17.047-0.027,10.953,1.917,4.858,1.678
				C3.239,1.615,1.619,1.399,0,0.945v4.53v5.859v4.531c1.619,0.453,3.239,0.67,4.858,0.732c6.095,0.239,12.189-1.704,18.284-1.466
				c1.619,0.063,3.239,0.279,4.858,0.734v-4.531V5.476v-4.53C26.381,0.493,24.761,0.275,23.142,0.212 M26,10.889
				c-1.4,0.103-2.496,1.088-2.858,2.377c-6.095-0.238-12.189,1.705-18.284,1.467C4.496,13.41,3.4,12.352,2,11.781V5.92
				c1.4-0.102,2.496-1.088,2.858-2.378c6.095,0.24,12.189-1.704,18.284-1.466C23.504,3.399,24.6,4.458,26,5.031V10.889z"/>
		</g>

</svg>
