<?xml version="1.0" encoding="utf-8"?>
<svg version="1.1" id="Layer_1" xmlns="http://www.w3.org/2000/svg" xmlns:xlink="http://www.w3.org/1999/xlink" x="0px" y="0px" viewBox="0 0 28 28"
	 enable-background="new 0 0 28 28" xml:space="preserve">

	<g>
		<polygon points="22,0 22,3 18,3 18,0 10,0 10,3 6.001,3 6.001,0 0,0 0,8 28,8 28,0 		"/>
		<rect x="2" y="9" width="7" height="4"/>
		<rect x="10" y="9" width="8" height="4"/>
		<rect x="19" y="9" width="7" height="4"/>
		<rect x="18" y="19" width="8" height="4"/>
		<rect x="9" y="19" width="8" height="4"/>
		<rect x="2" y="19" width="6" height="4"/>
		<rect x="2" y="24" width="3.001" height="4"/>
		<rect x="24" y="24" width="2" height="4"/>
		<rect x="6" y="24" width="8" height="4"/>
		<rect x="15" y="24" width="8" height="4"/>
		<rect x="23" y="14" width="3" height="4"/>
		<rect x="2" y="14" width="2" height="4"/>
		<rect x="14" y="14" width="8" height="4"/>
		<rect x="5" y="14" width="8" height="4"/>
	</g>

</svg>
