<?xml version="1.0" encoding="utf-8"?>
<?xml version="1.0" encoding="utf-8"?>
<svg version="1.1" id="Layer_1" xmlns="http://www.w3.org/2000/svg" xmlns:xlink="http://www.w3.org/1999/xlink" x="0px" y="0px" viewBox="0 0 28 28"
	 enable-background="new 0 0 28 28" xml:space="preserve">

		<g>
			<defs>
				<rect id="SVGID_1_" width="28" height="28"/>
			</defs>
			<clipPath id="SVGID_2_">
				<use xlink:href="#SVGID_1_"  overflow="visible"/>
			</clipPath>
			<path clip-path="url(#SVGID_2_)" fill="#231F20" d="M28,5.001l-8-2l-3-3v10h-1.708C9.608,10.001,5,15.15,5,21.501
				c0,0.168,0.011,0.333,0.017,0.5H3.5c-0.271,0-0.5-0.229-0.5-0.5v-4c0-0.696,0.482-1.861,0.975-2.354l1.671-1.671
				c1.318-1.317,1.455-3.502,0.31-4.975L3.684,5.58C3.175,4.927,2.232,4.81,1.579,5.317C0.925,5.825,0.808,6.768,1.316,7.422
				l2.271,2.92c0.21,0.27,0.18,0.771-0.062,1.013l-1.671,1.671C0.797,14.082,0,16.006,0,17.501v4c0,1.93,1.57,3.5,3.5,3.5h1.988
				c0.309,1.077,0.755,2.086,1.317,3H21c0-2.209-1.791-4-4-4h-0.202c0.036-0.193,0.022-0.318,0.018-0.58
				c-0.009-2-1.765-3.412-3.816-3.419v-1c2.187,0.005,4.043,1.19,4.641,3.138l4.394-2.028L24,28.001h4l-4.006-18
				C27,10.001,28,7.001,28,5.001"/>
		</g>

</svg>
