<?xml version="1.0" encoding="utf-8"?>
<?xml version="1.0" encoding="utf-8"?>
<svg version="1.1" id="Layer_1" xmlns="http://www.w3.org/2000/svg" xmlns:xlink="http://www.w3.org/1999/xlink" x="0px" y="0px" viewBox="0 0 28 28"
	 enable-background="new 0 0 28 28" xml:space="preserve">

		<g>
			<defs>
				<rect id="SVGID_1_" width="28" height="28"/>
			</defs>
			<clipPath id="SVGID_2_">
				<use xlink:href="#SVGID_1_"  overflow="visible"/>
			</clipPath>
			<path clip-path="url(#SVGID_2_)" fill="#231F20" d="M26.291,1.113c-1.016-0.856-2.317-1.197-3.671-0.967
				c-1.351,0.234-2.464,0.993-3.133,2.141c-0.716,1.225-0.825,2.769-0.3,4.234l2.051,5.719c0.28,0.778,0.189,1.323,0.027,1.554
				C21.225,13.85,21.119,14,20.75,14h-1.191c-0.627-1.737-1.891-3.235-3.559-4.301v3.33c1.263,0.828,2,2.139,2,3.542
				C18,19.013,15.757,21,13,21c-1.084,0-2.138-0.322-3-0.899C9.139,20.678,8.085,21,7,21c-2.757,0-5-1.987-5-4.429
				c0-1.404,0.737-2.716,2-3.545V9.699c-2.436,1.55-4,4.015-4,6.801c0,2.38,1.149,4.527,3,6.069V28h5v-3.17
				C8.646,24.941,9.314,25,9.999,25c0.686,0,1.354-0.059,2.001-0.171V28h5v-5.433c1.719-1.433,2.82-3.39,2.97-5.567h0.78
				c1.242,0,2.296-0.526,2.968-1.48c0.793-1.126,0.919-2.69,0.344-4.292l-2.05-5.719c-0.226-0.628-0.201-1.252,0.066-1.711
				c0.218-0.373,0.582-0.614,1.052-0.695c0.47-0.085,0.894,0.023,1.228,0.304C24.766,3.751,25,4.332,25,5v4.5
				c0,0.828,0.672,1.5,1.5,1.5c0.828,0,1.5-0.672,1.5-1.5V5C28,3.444,27.377,2.028,26.291,1.113"/>
			<path clip-path="url(#SVGID_2_)" fill="#231F20" d="M3,16.571C3,18.467,4.79,20,7,20c1.202,0,2.268-0.463,3-1.182
				C10.733,19.537,11.799,20,13,20c2.209,0,4-1.534,4-3.429c0-1.276-0.795-2.376-2-2.966V4l-2.605,2.605C11.671,6.225,10.855,6,10,6
				C9.146,6,8.329,6.225,7.605,6.605L5,4v9.604C3.795,14.195,3,15.295,3,16.571 M12,10c0.553,0,1,0.449,1,1c0,0.553-0.447,1-1,1
				c-0.553,0-1-0.447-1-1C11,10.449,11.447,10,12,10 M12,14l-2,2l-2-2H12z M8,10c0.553,0,1,0.449,1,1c0,0.553-0.447,1-1,1
				s-1-0.447-1-1C7,10.449,7.447,10,8,10"/>
		</g>

</svg>
