<?xml version="1.0" encoding="utf-8"?>
<?xml version="1.0" encoding="utf-8"?>
<svg version="1.1" id="Layer_1" xmlns="http://www.w3.org/2000/svg" xmlns:xlink="http://www.w3.org/1999/xlink" x="0px" y="0px"
	 viewBox="0 0 28 28" enable-background="new 0 0 28 28" xml:space="preserve">
<g>
	<defs>
		<rect id="SVGID_1_" width="28" height="28"/>
	</defs>
	<clipPath id="SVGID_2_">
		<use xlink:href="#SVGID_1_"  overflow="visible"/>
	</clipPath>
	<path clip-path="url(#SVGID_2_)" d="M27.481,19.024h-3.659c0.012,0,0.027-0.247,0.027-0.437c0-0.111-0.015-0.095-0.019-0.204
		l1.532-0.281c0.28-0.051,0.459-0.321,0.407-0.602s-0.341-0.469-0.623-0.418l-1.49,0.268c-0.113-0.701-0.646-1.381-0.646-2.024
		V0.024l-3.827,5.148C17.708,4.037,16.001,3.356,14,3.344c-2.002,0.012-3.708,0.693-5.182,1.828L5.015,0.024v15.302
		c-0.025,0.643-0.558,1.323-0.672,2.024l-1.49-0.268c-0.281-0.051-0.57,0.137-0.622,0.418s0.126,0.551,0.407,0.602l1.533,0.281
		c-0.003,0.109-0.021,0.093-0.021,0.204c0,0.19,0.018,0.437,0.029,0.437h-3.66C0.233,19.024,0,19.237,0,19.523
		c0,0.287,0.233,0.501,0.519,0.501h3.787c0.051,1,0.113,0.672,0.186,0.933l-1.793,0.384c-0.283,0.049-0.472,0.353-0.423,0.636
		c0.045,0.252,0.263,0.445,0.511,0.445c0.029,0,0.058,0.007,0.089,0.001l2.006-0.337c1.369,3.266,4.821,5.614,8.633,5.891v-8.879
		l-3.449-3.074h7.868l-3.419,3.047v8.903c3.801-0.287,7.238-2.631,8.603-5.888l2.005,0.337c0.031,0.006,0.062-0.001,0.091-0.001
		c0.246,0,0.465-0.193,0.51-0.445c0.049-0.283-0.14-0.587-0.422-0.636l-1.795-0.384c0.075-0.261,0.137,0.067,0.188-0.933h3.786
		c0.286,0,0.519-0.214,0.519-0.501C28,19.237,27.767,19.024,27.481,19.024 M7.318,22.26c-0.213,0.213-0.584,0.213-0.798,0
		c-0.22-0.219-0.22-0.578,0-0.797c0.106-0.105,0.248-0.164,0.399-0.164s0.293,0.059,0.399,0.164
		C7.539,21.682,7.539,22.041,7.318,22.26 M7.424,18.721c-0.214,0.213-0.585,0.213-0.798,0c-0.22-0.219-0.22-0.578,0-0.797
		c0.107-0.107,0.249-0.166,0.399-0.166s0.292,0.059,0.399,0.166C7.644,18.143,7.644,18.502,7.424,18.721 M9.143,20.438
		c-0.214,0.213-0.585,0.213-0.798,0c-0.22-0.221-0.22-0.578,0-0.797c0.106-0.108,0.248-0.166,0.399-0.166
		c0.15,0,0.293,0.058,0.399,0.166c0.107,0.105,0.165,0.248,0.165,0.398C9.308,20.19,9.25,20.33,9.143,20.438 M11.731,12.108
		c-0.967,0-1.75-0.784-1.75-1.748c0-0.967,0.783-1.748,1.75-1.748s1.75,0.781,1.75,1.748C13.481,11.324,12.698,12.108,11.731,12.108
		 M16.269,12.108c-0.967,0-1.75-0.784-1.75-1.748c0-0.967,0.783-1.748,1.75-1.748s1.75,0.781,1.75,1.748
		C18.019,11.324,17.236,12.108,16.269,12.108 M19.655,20.438c-0.212,0.213-0.583,0.213-0.798,0
		c-0.106-0.108-0.165-0.248-0.165-0.399c0-0.15,0.059-0.293,0.165-0.398c0.106-0.108,0.25-0.166,0.4-0.166
		c0.151,0,0.292,0.058,0.398,0.166C19.876,19.86,19.876,20.217,19.655,20.438 M20.576,17.924c0.107-0.107,0.25-0.166,0.398-0.166
		c0.151,0,0.293,0.059,0.401,0.166c0.219,0.219,0.219,0.578,0,0.797c-0.213,0.213-0.586,0.213-0.799,0
		C20.356,18.502,20.356,18.143,20.576,17.924 M21.48,22.26c-0.214,0.213-0.586,0.213-0.798,0c-0.221-0.219-0.221-0.578,0-0.797
		c0.107-0.105,0.247-0.164,0.4-0.164c0.15,0,0.291,0.059,0.398,0.164C21.701,21.682,21.701,22.041,21.48,22.26"/>
</g>
</svg>
