<?xml version="1.0" encoding="utf-8"?>
<?xml version="1.0" encoding="utf-8"?>
<svg version="1.1" id="Layer_1" xmlns="http://www.w3.org/2000/svg" xmlns:xlink="http://www.w3.org/1999/xlink" x="0px" y="0px" viewBox="0 0 28 28"
	 enable-background="new 0 0 28 28" xml:space="preserve">

		<g>
			<defs>
				<rect id="SVGID_1_" width="28" height="28"/>
			</defs>
			<clipPath id="SVGID_2_">
				<use xlink:href="#SVGID_1_"  overflow="visible"/>
			</clipPath>
			<path clip-path="url(#SVGID_2_)" fill="#231F20" d="M14.259,11.952c-0.233,0.233-0.14,0.545,0.588,1.273
				c0.728,0.729,1.058,0.821,1.287,0.592c0.228-0.229,0.14-0.545-0.588-1.274C14.818,11.815,14.488,11.723,14.259,11.952"/>
			<path clip-path="url(#SVGID_2_)" fill="#231F20" d="M21.251,5.011l-0.132,0.132l1.822,1.823l0.115-0.115
				c0.342-0.343,0.32-0.639-0.443-1.401C21.876,4.713,21.594,4.668,21.251,5.011"/>
			<path clip-path="url(#SVGID_2_)" fill="#231F20" d="M16.738,9.473l-0.29,0.29l0.737,0.737l0.277-0.277
				c0.211-0.211,0.169-0.411-0.081-0.661S16.94,9.271,16.738,9.473"/>
			<path clip-path="url(#SVGID_2_)" fill="#231F20" d="M0,21.778L6.222,28L28,6.222L21.778,0L0,21.778z M7.348,23.843
				c-0.721,0.721-1.625,0.547-2.637-0.466c-1.047-1.047-1.152-1.968-0.465-2.654c0.646-0.647,1.232-0.509,1.928-0.05l-0.522,0.902
				c-0.39-0.284-0.61-0.407-0.79-0.227c-0.237,0.237-0.085,0.575,0.601,1.261c0.693,0.693,1.031,0.846,1.277,0.6
				c0.172-0.171,0.108-0.349-0.178-0.803l0.91-0.453C7.882,22.636,7.96,23.232,7.348,23.843 M10.488,20.609l-1.833,1.833
				l-3.016-3.016l1.802-1.803l0.616,0.616l-1.073,1.073L7.5,19.829l0.7-0.699l0.612,0.612l-0.7,0.699l0.655,0.655l1.104-1.104
				L10.488,20.609z M12.972,18.125l-0.59,0.59l-1.319-0.414c-0.499-0.156-0.989-0.32-1.223-0.431
				c0.19,0.154,0.578,0.534,0.863,0.818l0.853,0.853l-0.691,0.691l-3.016-3.016l0.642-0.642l1.08,0.297
				c0.487,0.135,1.033,0.329,1.254,0.436c-0.182-0.146-0.608-0.555-0.884-0.831L9.264,15.8l0.69-0.691L12.972,18.125z
				 M14.385,16.806c-0.48,0.48-0.951,0.563-1.538,0.486l0.058-0.945c0.448,0.034,0.74-0.007,0.889-0.157
				c0.154-0.154,0.187-0.341,0.023-0.505c-0.168-0.168-0.32-0.223-0.818-0.027c-0.874,0.349-1.327,0.345-1.801-0.129
				c-0.492-0.492-0.514-1.244,0.076-1.834c0.474-0.475,0.879-0.544,1.445-0.489l-0.062,0.959c-0.457-0.035-0.609-0.038-0.802,0.155
				c-0.141,0.141-0.117,0.324-0.005,0.436c0.16,0.159,0.329,0.17,0.775-0.008c0.887-0.353,1.366-0.332,1.87,0.172
				C15.061,15.485,14.957,16.235,14.385,16.806 M16.745,14.446c-0.691,0.691-1.583,0.608-2.647-0.456s-1.145-1.974-0.455-2.664
				c0.69-0.691,1.59-0.609,2.651,0.452C17.358,12.842,17.44,13.751,16.745,14.446 M19.449,11.647l-1.516-0.794l-0.198,0.198
				l1.155,1.155l-0.721,0.721l-3.016-3.016l1.064-1.064c0.554-0.554,1.199-0.71,1.872-0.037c0.392,0.392,0.492,0.8,0.388,1.198
				l1.754,0.857L19.449,11.647z M22.424,8.672l-1.833,1.833l-3.016-3.016l1.803-1.803l0.615,0.616L18.92,7.375l0.518,0.517
				l0.699-0.699l0.612,0.611l-0.7,0.7l0.655,0.655l1.104-1.104L22.424,8.672z M23.628,7.468l-0.827,0.827l-3.016-3.017l0.893-0.892
				c0.796-0.796,1.644-0.731,2.674,0.299C24.438,5.771,24.464,6.632,23.628,7.468"/>
		</g>

</svg>
