<?xml version="1.0" encoding="utf-8"?>
<svg version="1.1" id="Layer_1" xmlns="http://www.w3.org/2000/svg" xmlns:xlink="http://www.w3.org/1999/xlink" x="0px" y="0px" viewBox="0 0 28 28"
	 enable-background="new 0 0 28 28" xml:space="preserve">

	<g>
		<rect x="8" y="16.001" fill="#231F20" width="12" height="4"/>
		<g>
			<defs>
				<rect id="SVGID_1_" width="28" height="28"/>
			</defs>
			<clipPath id="SVGID_2_">
				<use xlink:href="#SVGID_1_"  overflow="visible"/>
			</clipPath>
			<path clip-path="url(#SVGID_2_)" fill="#231F20" d="M24.5,9.001c-1.933,0-3.5,1.567-3.5,3.5v8.5H7v-8.5
				c0-1.933-1.567-3.5-3.5-3.5S0,10.568,0,12.501c0,1.762,1.306,3.205,3,3.45v9.05h22v-9.05c1.694-0.245,3-1.688,3-3.45
				C28,10.568,26.433,9.001,24.5,9.001"/>
			<path clip-path="url(#SVGID_2_)" fill="#231F20" d="M8,12.501v2.5h12v-2.5c0-2.301,1.742-4.182,3.973-4.447
				C23.696,3.586,19.323,0.001,14,0.001S4.304,3.586,4.027,8.054C6.258,8.319,8,10.2,8,12.501"/>
			<polygon clip-path="url(#SVGID_2_)" fill="#231F20" points="4,28.001 7,28.001 8,26.001 3,26.001 			"/>
			<polygon clip-path="url(#SVGID_2_)" fill="#231F20" points="21,28.001 24,28.001 25,26.001 20,26.001 			"/>
		</g>
	</g>

</svg>
