<?xml version="1.0" encoding="utf-8"?>
<?xml version="1.0" encoding="utf-8"?>
<svg version="1.1" id="Layer_1" xmlns="http://www.w3.org/2000/svg" xmlns:xlink="http://www.w3.org/1999/xlink" x="0px" y="0px"
	 viewBox="0 0 28 28" enable-background="new 0 0 28 28" xml:space="preserve">
<g>
	<defs>
		<rect id="SVGID_1_" width="28" height="28"/>
	</defs>
	<clipPath id="SVGID_2_">
		<use xlink:href="#SVGID_1_"  overflow="visible"/>
	</clipPath>
	<path clip-path="url(#SVGID_2_)" d="M16.148,7.986c0.094-0.211-0.137-0.798,0.07-1.005l2.563-2.564
		c0.207-0.207,0.795,0.023,1.006-0.068l3.636-3.637c-0.88-0.449-1.843-0.679-2.81-0.679c-1.59,0-3.182,0.606-4.395,1.82
		l-2.564,2.564c-1.953,1.951-2.33,4.874-1.145,7.206L16.148,7.986z M22.334,8.067L28,2.403L25.599,0l-5.666,5.666L22.334,8.067z
		 M4.314,19.819c0.092-0.211-0.139-0.798,0.068-1.005l2.565-2.564c0.207-0.206,0.793,0.024,1.004-0.067l3.637-3.637
		c-0.881-0.449-1.844-0.679-2.811-0.679c-1.59,0-3.18,0.606-4.395,1.82L1.82,16.25c-1.951,1.951-2.33,4.874-1.145,7.206
		L4.314,19.819z M7.798,17.798l2.403,2.402l9.699-9.698L17.5,8.1L7.798,17.798z M23.652,8.215c-0.092,0.211,0.139,0.798-0.068,1.005
		l-2.563,2.563c-0.207,0.207-0.793-0.023-1.006,0.068l-3.635,3.637c0.881,0.449,1.844,0.678,2.809,0.678
		c1.59,0,3.182-0.605,4.395-1.819l2.562-2.565c1.951-1.95,2.33-4.873,1.145-7.205L23.652,8.215z M5.666,19.933L0,25.599L2.4,28
		l5.666-5.664L5.666,19.933z M11.818,20.049c-0.092,0.211,0.137,0.797-0.07,1.004l-2.563,2.563
		c-0.207,0.207-0.793-0.022-1.004,0.069l-3.636,3.637C5.425,27.77,6.388,28,7.355,28c1.59,0,3.18-0.605,4.395-1.819l2.564-2.565
		c1.951-1.951,2.328-4.873,1.143-7.205L11.818,20.049z"/>
</g>
</svg>
