<?xml version="1.0" encoding="utf-8"?>
<svg version="1.1" id="Layer_1" xmlns="http://www.w3.org/2000/svg" xmlns:xlink="http://www.w3.org/1999/xlink" x="0px" y="0px" viewBox="0 0 28 28"
	 enable-background="new 0 0 28 28" xml:space="preserve">

		<g>
			<defs>
				<rect id="SVGID_1_" width="28" height="28"/>
			</defs>
			<clipPath id="SVGID_2_">
				<use xlink:href="#SVGID_1_"  overflow="visible"/>
			</clipPath>
			<path clip-path="url(#SVGID_2_)" fill="#231F20" d="M10,7.427C10,4.645,9.636,2.083,9.027,0H0.972C0.363,2.083,0,4.645,0,7.427
				c0,4.957,2.542,9.231,4,11.279v7.173C2.719,26.167,1.736,26.98,1.5,28h7c-0.237-1.02-1.219-1.833-2.5-2.121v-7.173
				C7.458,16.658,10,12.384,10,7.427 M1.198,4c0.124-1.052,0.303-2.06,0.538-3h6.527c0.236,0.94,0.414,1.948,0.539,3H1.198z"/>
			<path clip-path="url(#SVGID_2_)" fill="#231F20" d="M24.912,24.346l-2.18-5.777c0.64-2.431,1.508-7.328-0.243-11.965
				C21.506,4.002,20.262,1.733,18.957,0L11.42,2.846c0.166,2.164,0.732,4.688,1.715,7.292c1.75,4.636,5.639,7.738,7.726,9.138
				l2.18,5.776c-1.097,0.721-1.727,1.83-1.59,2.867L28,25.446C27.418,24.576,26.212,24.162,24.912,24.346 M12.715,5
				c-0.094-0.506-0.17-1.003-0.227-1.489l6.106-2.305C19.371,2.324,20.086,3.612,20.726,5H12.715z"/>
		</g>

</svg>
