<?xml version="1.0" encoding="utf-8"?>
<?xml version="1.0" encoding="utf-8"?>
<svg version="1.1" id="Layer_1" xmlns="http://www.w3.org/2000/svg" xmlns:xlink="http://www.w3.org/1999/xlink" x="0px" y="0px"
	 viewBox="0 0 28 28" enable-background="new 0 0 28 28" xml:space="preserve">
<g>
	<defs>
		<rect id="SVGID_1_" width="28" height="28"/>
	</defs>
	<clipPath id="SVGID_2_">
		<use xlink:href="#SVGID_1_"  overflow="visible"/>
	</clipPath>
	<path clip-path="url(#SVGID_2_)" d="M28,11.778C26.238,7.852,24.476,3.926,22.715,0C14.369,0.915,9.195,8.898,0.85,9.813
		c1.761,3.927,3.523,7.853,5.285,11.779C14.48,20.676,19.654,12.694,28,11.778 M6.994,17.96c-0.123-0.269-0.244-0.538-0.367-0.807
		c2.187-0.597,4.176-1.634,6.099-2.812c0.124,0.27,0.245,0.539,0.368,0.808C11.17,16.327,9.183,17.363,6.994,17.96 M18.967,3.367
		c0.3-0.134,0.607-0.263,0.914-0.383c0.123,0.269,0.246,0.54,0.369,0.809c0.646-0.218,1.142-0.225,1.531-0.175
		c0.067,0.374,0.129,0.75,0.193,1.127c-0.298-0.02-0.841-0.089-1.517,0.186c-0.607,0.251-0.682,0.604-0.565,0.859
		c0.139,0.308,0.543,0.341,1.479,0.321c1.305-0.041,2.023,0.363,2.398,1.185c0.375,0.825,0.061,1.674-0.941,2.283
		c0.143,0.312,0.285,0.626,0.428,0.939c-0.309,0.12-0.614,0.25-0.914,0.385c-0.133-0.291-0.266-0.582-0.399-0.874
		c-0.631,0.25-1.291,0.387-1.722,0.366c-0.075-0.406-0.149-0.813-0.223-1.22c0.475,0.014,1.096-0.059,1.701-0.322
		c0.527-0.229,0.807-0.568,0.639-0.937c-0.158-0.348-0.567-0.464-1.358-0.394c-1.14,0.108-1.996,0.012-2.404-0.886
		c-0.367-0.807-0.109-1.754,0.789-2.394C19.232,3.95,19.098,3.658,18.967,3.367 M4.519,12.524c4.069-1.107,7.442-3.736,11-5.967
		c0.122,0.268,0.245,0.538,0.368,0.807c-3.559,2.23-6.934,4.859-11,5.968C4.766,13.062,4.642,12.794,4.519,12.524 M5.574,14.839
		c4.067-1.11,7.442-3.739,10.998-5.968c0.121,0.269,0.246,0.538,0.367,0.807c-3.556,2.231-6.931,4.86-10.998,5.969
		C5.818,15.378,5.695,15.108,5.574,14.839 M17.787,17.78c-3.451,2.273-7.021,4.624-11.508,5.117L5.33,23l-0.391-0.87l-2.834-6.314
		C1.422,15.994,0.725,16.135,0,16.222C1.762,20.147,3.525,24.074,5.285,28C13.916,26.957,19.371,18.848,28,17.804
		c-0.647-1.44-1.295-2.882-1.94-4.325C23.105,14.282,20.508,15.991,17.787,17.78"/>
</g>
</svg>
