<?xml version="1.0" encoding="utf-8"?>
<?xml version="1.0" encoding="utf-8"?>
<svg version="1.1" id="Layer_1" xmlns="http://www.w3.org/2000/svg" xmlns:xlink="http://www.w3.org/1999/xlink" x="0px" y="0px"
	 viewBox="0 0 28 28" enable-background="new 0 0 28 28" xml:space="preserve">
<g>
	<defs>
		<rect id="SVGID_1_" width="28" height="28"/>
	</defs>
	<clipPath id="SVGID_2_">
		<use xlink:href="#SVGID_1_"  overflow="visible"/>
	</clipPath>
	<path clip-path="url(#SVGID_2_)" d="M12.123,8.856c-1.379,0-2.5-1.121-2.5-2.5c0-0.334,0.068-0.651,0.187-0.943
		C6.475,3.901,2.91,2.265,0,0.923v4.908c1.359,0.387,2.373,1.815,2.373,3.527c0,1.714-1.014,3.142-2.373,3.528v3.244
		c0,0,16.887,10.328,20,11.873v-18c-0.943-0.344-3.082-1.409-5.643-2.547C13.949,8.282,13.105,8.856,12.123,8.856 M6.832,16.564
		c-1.379,0-2.5-1.121-2.5-2.5s1.121-2.5,2.5-2.5s2.5,1.121,2.5,2.5S8.211,16.564,6.832,16.564 M17.498,18.689
		c0,1.379-1.121,2.5-2.5,2.5s-2.5-1.121-2.5-2.5s1.121-2.5,2.5-2.5S17.498,17.31,17.498,18.689"/>
	<path clip-path="url(#SVGID_2_)" d="M27.619,0.004c-2.938-0.025-24.074,0.026-27.217,0c3.067,1.413,6.664,3.064,9.979,4.565
		c0.451-0.439,1.064-0.713,1.742-0.713c1.379,0,2.5,1.122,2.5,2.5c0,0.041-0.01,0.078-0.012,0.118
		c2.867,1.28,5.067,2.235,5.735,2.465C21.461,8.119,27.201,3.502,27.619,0.004"/>
	<path clip-path="url(#SVGID_2_)" d="M20.916,9.761v17.976c1.686-0.905,7.051-3.94,7.08-7.734l0.004-18
		C26.312,5.429,21.871,9.068,20.916,9.761"/>
</g>
</svg>
