<?xml version="1.0" encoding="utf-8"?>
<svg version="1.1" id="Layer_1" xmlns="http://www.w3.org/2000/svg" xmlns:xlink="http://www.w3.org/1999/xlink" x="0px" y="0px" viewBox="0 0 28 28"
	 enable-background="new 0 0 28 28" xml:space="preserve">

		<g>
			<defs>
				<rect id="SVGID_1_" width="28" height="28"/>
			</defs>
			<clipPath id="SVGID_2_">
				<use xlink:href="#SVGID_1_"  overflow="visible"/>
			</clipPath>
			<path clip-path="url(#SVGID_2_)" fill="#231F20" d="M22,2c-0.951,0-1.847,0.246-2.646,0.673C18.07,1.04,16.149,0,14,0
				S9.93,1.04,8.646,2.673C7.847,2.246,6.951,2,6,2C2.686,2,0,4.91,0,8.5c0,2.55,1.359,4.751,3.332,5.815L4,23h2.5v-6
				c0-0.276,0.224-0.5,0.5-0.5s0.5,0.224,0.5,0.5v6h6v-6c0-0.276,0.224-0.5,0.5-0.5s0.5,0.224,0.5,0.5v6h6v-6
				c0-0.276,0.224-0.5,0.5-0.5c0.276,0,0.5,0.224,0.5,0.5v6H24l0.668-8.685C26.641,13.251,28,11.05,28,8.5C28,4.91,25.313,2,22,2"/>
			<rect x="3" y="24" clip-path="url(#SVGID_2_)" fill="#231F20" width="22" height="4"/>
		</g>

</svg>
