<?xml version="1.0" encoding="utf-8"?>
<svg version="1.1" id="Layer_1" xmlns="http://www.w3.org/2000/svg" xmlns:xlink="http://www.w3.org/1999/xlink" x="0px" y="0px" viewBox="0 0 28 28"
	 enable-background="new 0 0 28 28" xml:space="preserve">

		<g>
			<defs>
				<rect id="SVGID_1_" width="28" height="28"/>
			</defs>
			<clipPath id="SVGID_2_">
				<use xlink:href="#SVGID_1_"  overflow="visible"/>
			</clipPath>
			<path clip-path="url(#SVGID_2_)" fill="#231F20" d="M21.001,0c3.866,0,7,3.134,7,7v3.985h-14V7C14.001,3.134,17.134,0,21.001,0
				 M16.001,9h10V7c0-2.757-2.244-5-5-5c-2.757,0-5,2.243-5,5V9 M17.136,0c-2.464,1.365-4.135,3.99-4.135,7v3.985h-13V7
				c0-3.866,3.133-7,7-7H17.136 M10.001,9c0.552,0,1-0.447,1-1c0-0.552-0.448-1-1-1c-0.553,0-1,0.448-1,1
				C9.001,8.553,9.448,9,10.001,9 M3.001,9c0.552,0,1-0.447,1-1c0-0.552-0.448-1-1-1c-0.553,0-1,0.448-1,1
				C2.001,8.553,2.448,9,3.001,9 M21.001,3c2.205,0,4,1.794,4,4v1h-8V7C17.001,4.794,18.795,3,21.001,3 M28.001,28h-14V12h14V28z
				 M16.001,26h10V14h-10V26z M13.001,28h-13V12h13V28z M10.001,16c0.552,0,1-0.447,1-1c0-0.552-0.448-1-1-1c-0.553,0-1,0.448-1,1
				C9.001,15.553,9.448,16,10.001,16 M3.001,16c0.552,0,1-0.447,1-1c0-0.552-0.448-1-1-1c-0.553,0-1,0.448-1,1
				C2.001,15.553,2.448,16,3.001,16 M4.001,22h5l-1.303-1.907c0.484-0.366,0.803-0.94,0.803-1.593c0-1.104-0.897-2-2-2
				c-1.105,0-2,0.896-2,2c0,0.653,0.318,1.227,0.802,1.593L4.001,22 M10.001,26c0.552,0,1-0.447,1-1s-0.448-1-1-1
				c-0.553,0-1,0.447-1,1S9.448,26,10.001,26 M3.001,26c0.552,0,1-0.447,1-1s-0.448-1-1-1c-0.553,0-1,0.447-1,1S2.448,26,3.001,26
				 M25.001,25h-8V15h8V25z"/>
		</g>

</svg>
