<?xml version="1.0" encoding="utf-8"?>
<svg version="1.1" id="Layer_1" xmlns="http://www.w3.org/2000/svg" xmlns:xlink="http://www.w3.org/1999/xlink" x="0px" y="0px" viewBox="0 0 28 28"
	 enable-background="new 0 0 28 28" xml:space="preserve">

		<g>
			<defs>
				<rect id="SVGID_1_" width="28" height="28"/>
			</defs>
			<clipPath id="SVGID_2_">
				<use xlink:href="#SVGID_1_"  overflow="visible"/>
			</clipPath>
			<path clip-path="url(#SVGID_2_)" fill="#231F20" d="M9.859,21.919L6.08,18.14c-0.199,0.325-0.415,0.622-0.641,0.847l-1.125,1.125
				c-0.989-0.989-2.59-0.987-3.574,0c-0.987,0.986-0.986,2.588,0,3.573c0.988,0.99,2.587,0.987,3.573,0
				c-0.986,0.987-0.989,2.587,0.001,3.574c0.986,0.987,2.586,0.987,3.571,0c0.989-0.985,0.99-2.584,0.001-3.574l1.126-1.125
				C9.237,22.335,9.534,22.117,9.859,21.919"/>
			<path clip-path="url(#SVGID_2_)" fill="#231F20" d="M25.162,2.833c-2.891-2.891-6.9-3.778-10.737-1.683
				c0.349,0.723,0.549,1.53,0.549,2.384c0,3.033-2.458,5.492-5.49,5.492c-0.355,0-0.701-0.037-1.038-0.1
				c-1.203,3.541-1.555,7.036-1.555,7.036c-0.019,0.193-0.066,0.406-0.127,0.623l4.649,4.649c0.218-0.061,0.43-0.107,0.623-0.127
				c0,0,8.846-0.885,12.648-4.689C29.272,11.827,28.779,6.452,25.162,2.833"/>
		</g>

</svg>
