<?xml version="1.0" encoding="utf-8"?>
<svg version="1.1" id="Layer_1" xmlns="http://www.w3.org/2000/svg" xmlns:xlink="http://www.w3.org/1999/xlink" x="0px" y="0px" viewBox="0 0 28 28"
	 enable-background="new 0 0 28 28" xml:space="preserve">

		<g>
			<defs>
				<rect id="SVGID_1_" width="28" height="28"/>
			</defs>
			<clipPath id="SVGID_2_">
				<use xlink:href="#SVGID_1_"  overflow="visible"/>
			</clipPath>
			<path clip-path="url(#SVGID_2_)" fill="#231F20" d="M27.921,1.981c-1.173-2.201-4.478-2.546-6.385-1.147
				c-0.966,0.781-1.284,1.779-1.568,2.911c-0.082,1.295-1.973,1.237-1.973,2.271h6c0-0.79-1.08-0.838-1.541-1.245
				c-0.884-0.779-0.145-2.406,0.71-2.864c0.861-0.392,2.056-0.498,2.91-0.01c0.364,0.181,0.796,0.746,0.796,0.746
				C27.314,3.221,28.282,2.641,27.921,1.981"/>
			<path clip-path="url(#SVGID_2_)" fill="#231F20" d="M24.152,6.964c-1.719,0-4.461-0.009-6.18-0.009c0,0-0.003-0.001-0.004-0.001
				h-0.096c-0.119,0.022-0.355,0.124-0.769,0.509c-1.234,1.147-1.751,2.666-1.779,4.317c-0.129,7.559-7.442,11.616-14.057,12.957
				c-1.503,0.305-1.765,2.438-0.264,2.965c1.246,0.438,2.965,0.274,4.256,0.242c3.828-0.093,7.692-0.896,11.109-2.663
				c3.678-1.901,6.635-4.925,8.495-8.62c1.352-2.686,2.589-5.901,0.483-8.571C25.006,7.659,24.602,7.278,24.152,6.964"/>
		</g>

</svg>
