<?xml version="1.0" encoding="utf-8"?>
<svg version="1.1" id="Layer_1" xmlns="http://www.w3.org/2000/svg" xmlns:xlink="http://www.w3.org/1999/xlink" x="0px" y="0px" viewBox="0 0 28 28"
	 enable-background="new 0 0 28 28" xml:space="preserve">

		<g>
			<defs>
				<rect id="SVGID_1_" width="28" height="28"/>
			</defs>
			<clipPath id="SVGID_2_">
				<use xlink:href="#SVGID_1_"  overflow="visible"/>
			</clipPath>
			<path clip-path="url(#SVGID_2_)" fill="#231F20" d="M27.675,22.267c-0.951-3.033-3.246-5.061-5.372-7.177
				c-0.398-0.388-0.792-0.781-1.167-1.194c-0.945-1.039-2.23-2.53-2.416-4.026c-0.051-0.414,0.07-0.924,0.496-0.924
				c0.051,0,0.107,0.007,0.168,0.023c0.575,0.153,0.621,1.13,1.179,1.13c0.043,0,0.089-0.006,0.139-0.019
				c0.665-0.167,0.453-1.21,0.262-1.664c-0.368-0.872-1.153-1.359-2.038-1.41c-0.053-0.003-0.105-0.005-0.157-0.005
				c-1.645,0-2.319,1.551-2.535,3.056c-0.106,0.737-0.653,1.555-1.048,2.152c-0.518,0.782-1.131,1.489-1.774,2.157
				c-2.303,2.393-5.028,4.524-6.087,7.901c-0.512,1.634-0.554,3.705,0.88,4.81c1.115,0.861,3.818,0.924,4.595,0.924h9.401
				c0.776,0,3.479-0.063,4.595-0.924C28.23,25.972,28.187,23.901,27.675,22.267"/>
			<path clip-path="url(#SVGID_2_)" fill="#231F20" d="M11.19,14.822c0.446-0.438,0.891-0.876,1.321-1.323
				c0.702-0.729,1.22-1.358,1.648-2.004c0.308-0.465,0.773-1.167,0.837-1.616c0.075-0.52,0.2-0.983,0.35-1.412
				c-2.123-2.011-5.1-4.153-5.1-7.646c0-0.453-0.366-0.82-0.819-0.82c-0.454,0-0.82,0.367-0.82,0.82c0,3.714-3.373,5.9-5.498,8.027
				C0.087,11.87,0,14.193,0,14.448v0.86h0.003C0.002,15.315,0,15.321,0,15.327c0,1.471,1.616,2.674,3.591,2.674h4.643
				C9.133,16.846,10.17,15.825,11.19,14.822"/>
		</g>

</svg>
