<?xml version="1.0" encoding="utf-8"?>
<svg version="1.1" id="Layer_1" xmlns="http://www.w3.org/2000/svg" xmlns:xlink="http://www.w3.org/1999/xlink" x="0px" y="0px" viewBox="0 0 28 28"
	 enable-background="new 0 0 28 28" xml:space="preserve">

		<g>
			<defs>
				<rect id="SVGID_1_" width="28" height="28"/>
			</defs>
			<clipPath id="SVGID_2_">
				<use xlink:href="#SVGID_1_"  overflow="visible"/>
			</clipPath>
			<path clip-path="url(#SVGID_2_)" fill="#231F20" d="M12.489,18.919c-1.933,0-3.5-1.567-3.5-3.5c0-0.616,0.173-1.186,0.452-1.689
				l-0.386-0.385l-7.3,7.293c-1.557,1.555-2.184,6.342-1.448,7.078c0.686,0.685,5.529,0.109,7.086-1.446l7.3-7.293l-0.512-0.512
				C13.677,18.746,13.106,18.919,12.489,18.919"/>
			<path clip-path="url(#SVGID_2_)" fill="#231F20" d="M10.477,11.924l0.404,0.403c0.483-0.252,1.024-0.408,1.608-0.408
				c1.933,0,3.5,1.567,3.5,3.5c0,0.582-0.156,1.122-0.407,1.605l0.533,0.532l9.04-9.031l-5.638-5.632L10.477,11.924z"/>
			
				<rect x="19.357" y="4.116" transform="matrix(-0.7075 -0.7067 0.7067 -0.7075 36.6536 24.4081)" clip-path="url(#SVGID_2_)" fill="#231F20" width="8.041" height="1.005"/>
			
				<rect x="24.298" y="-0.823" transform="matrix(0.7076 -0.7066 0.7066 0.7076 4.9921 18.4591)" clip-path="url(#SVGID_2_)" fill="#231F20" width="1.005" height="8.041"/>
			<path clip-path="url(#SVGID_2_)" fill="#231F20" d="M14.489,15.419c0-1.105-0.895-2-2-2s-2,0.895-2,2s0.895,2,2,2
				S14.489,16.524,14.489,15.419"/>
		</g>

</svg>
