<?xml version="1.0" encoding="utf-8"?>
<svg version="1.1" id="Layer_1" xmlns="http://www.w3.org/2000/svg" xmlns:xlink="http://www.w3.org/1999/xlink" x="0px" y="0px" viewBox="0 0 28 28"
	 enable-background="new 0 0 28 28" xml:space="preserve">

		<g>
			<defs>
				<rect id="SVGID_1_" width="28" height="28"/>
			</defs>
			<clipPath id="SVGID_2_">
				<use xlink:href="#SVGID_1_"  overflow="visible"/>
			</clipPath>
			<path clip-path="url(#SVGID_2_)" fill="#231F20" d="M23.196,0L21,2.197C26.195,7.392,26.195,15.806,21,21
				c-2.598,2.598-5.999,3.896-9.402,3.896c-3.402,0-6.803-1.298-9.401-3.896L0,23.196c6.406,6.406,16.79,6.406,23.196,0
				C29.601,16.79,29.601,6.406,23.196,0"/>
			<path clip-path="url(#SVGID_2_)" fill="#231F20" d="M10.5,23.843v-9.032c-0.52-0.119-1.005-0.353-1.428-0.687l-6.168,6.169
				C4.966,22.356,7.632,23.59,10.5,23.843"/>
			<path clip-path="url(#SVGID_2_)" fill="#231F20" d="M14.806,10.5h9.037c-0.253-2.868-1.487-5.534-3.55-7.596l-6.17,6.169
				C14.461,9.502,14.69,9.99,14.806,10.5"/>
			<path clip-path="url(#SVGID_2_)" fill="#231F20" d="M13.146,13.146c0.915-0.915,0.997-2.342,0.262-3.358l-3.619,3.618
				C10.792,14.111,12.261,14.031,13.146,13.146"/>
			<path clip-path="url(#SVGID_2_)" fill="#231F20" d="M19.922,20.629l-6.456-6.456c-0.57,0.431-1.246,0.679-1.966,0.718v9.001
				c0.033,0,0.066,0.005,0.099,0.005C14.714,23.897,17.646,22.733,19.922,20.629"/>
			<path clip-path="url(#SVGID_2_)" fill="#231F20" d="M23.896,11.599c0-0.033-0.005-0.065-0.005-0.099h-9.003
				c-0.038,0.698-0.277,1.38-0.718,1.964l6.458,6.458C22.732,17.646,23.896,14.714,23.896,11.599"/>
		</g>

</svg>
