<?xml version="1.0" encoding="utf-8"?>
<?xml version="1.0" encoding="utf-8"?>
<svg version="1.1" id="Layer_1" xmlns="http://www.w3.org/2000/svg" xmlns:xlink="http://www.w3.org/1999/xlink" x="0px" y="0px"
	 viewBox="0 0 28 28" enable-background="new 0 0 28 28" xml:space="preserve">
<path d="M22,17h3.001v3H22V17z M22,11h3.001v3H22V11z M23,5v4h-3v19h8V9h-3V5H23z M2,20h3.001v3H2V20z M2,7h3.001v3H2V7z M5,0v5H3V0
	H1v5H0v23h8V5H7V0H5z M11,14h3.001v3.001H11V14z M11,8h3.001v3H11V8z M11,2h3.001v3H11V2z M9,28h10V0H9V28z"/>
</svg>
