<?xml version="1.0" encoding="utf-8"?>
<?xml version="1.0" encoding="utf-8"?>
<svg version="1.1" id="Layer_1" xmlns="http://www.w3.org/2000/svg" xmlns:xlink="http://www.w3.org/1999/xlink" x="0px" y="0px"
	 viewBox="0 0 28 28" enable-background="new 0 0 28 28" xml:space="preserve">
<g>
	<defs>
		<rect id="SVGID_1_" width="28" height="28"/>
	</defs>
	<clipPath id="SVGID_2_">
		<use xlink:href="#SVGID_1_"  overflow="visible"/>
	</clipPath>
	<path clip-path="url(#SVGID_2_)" d="M13.314,5.141C13.424,4.778,13.5,4.4,13.5,4.001C13.5,1.791,11.708,0,9.499,0
		S5.5,1.791,5.5,4.001c0,0.399,0.076,0.776,0.186,1.14C4.351,6.057,3.5,7.446,3.5,9h12C15.5,7.446,14.648,6.059,13.314,5.141 M9.5,6
		c-1.105,0-2-0.896-2-1.999C7.5,2.896,8.395,2,9.5,2c1.104,0,2,0.896,2,2.001C11.5,5.104,10.604,6,9.5,6 M16.5,8.999V10h-14V8.999
		C2.5,8.306,2.645,7.634,2.904,7H0v21h19V7h-2.904C16.356,7.634,16.5,8.306,16.5,8.999 M21,21h7V5h-7V21z M24.5,27.985L28,22h-7
		L24.5,27.985z M24.502,0.015C22.568,0.015,21,0.727,21,2.014V4h7V2.014C28,0.727,26.434,0.015,24.502,0.015"/>
</g>
</svg>
