<?xml version="1.0" encoding="utf-8"?>
<svg version="1.1" id="Layer_1" xmlns="http://www.w3.org/2000/svg" xmlns:xlink="http://www.w3.org/1999/xlink" x="0px" y="0px" viewBox="0 0 28 28"
	 enable-background="new 0 0 28 28" xml:space="preserve">

	<g>
		<rect y="24" fill="#231F20" width="28" height="4"/>
		<rect x="2" y="20" fill="#231F20" width="24" height="2.993"/>
		<g>
			<defs>
				<rect id="SVGID_1_" width="28" height="28"/>
			</defs>
			<clipPath id="SVGID_2_">
				<use xlink:href="#SVGID_1_"  overflow="visible"/>
			</clipPath>
			<path clip-path="url(#SVGID_2_)" fill="#231F20" d="M24,9.974h-0.002C23.976,4.462,19.509,0,14,0S4.024,4.462,4.002,9.974H4
				v9.013h20V9.974z M14,16.984c-3.866,0-7-3.137-7-7.01c0-3.872,3.134-7.011,7-7.011c3.865,0,7,3.139,7,7.011
				C21,13.847,17.865,16.984,14,16.984"/>
			<path clip-path="url(#SVGID_2_)" fill="#231F20" d="M18,8.972h-3V4.966c0-0.553-0.447-1.001-1-1.001c-0.553,0-1,0.448-1,1.001
				v6.009h5c0.553,0,1-0.448,1-1.002C19,9.42,18.553,8.972,18,8.972"/>
		</g>
	</g>

</svg>
