<?xml version="1.0" encoding="utf-8"?>
<?xml version="1.0" encoding="utf-8"?>
<svg version="1.1" id="Layer_1" xmlns="http://www.w3.org/2000/svg" xmlns:xlink="http://www.w3.org/1999/xlink" x="0px" y="0px"
	 viewBox="0 0 28 28" enable-background="new 0 0 28 28" xml:space="preserve">
<g>
	<defs>
		<rect id="SVGID_1_" width="28" height="28"/>
	</defs>
	<clipPath id="SVGID_2_">
		<use xlink:href="#SVGID_1_"  overflow="visible"/>
	</clipPath>
	<path clip-path="url(#SVGID_2_)" d="M9.5,1.803L9.33,1.601C8.263,0.534,6.864,0,5.466,0C4.066,0,2.667,0.534,1.6,1.602
		c-2.086,2.086-2.129,5.431-0.143,7.576C3,5.741,5.914,3.05,9.5,1.803"/>
	<path clip-path="url(#SVGID_2_)" d="M26.4,1.602C25.333,0.534,23.933,0,22.534,0s-2.797,0.534-3.864,1.601l-0.184,0.196
		c3.592,1.247,6.512,3.94,8.057,7.379C28.529,7.031,28.486,3.686,26.4,1.602"/>
	<path clip-path="url(#SVGID_2_)" d="M22.484,6.512C20.143,4.169,17.07,2.998,14,2.998c-3.072,0-6.143,1.173-8.484,3.514
		c-4.688,4.688-4.688,12.287,0,16.973c0.029,0.029,0.06,0.054,0.089,0.082l-3.019,3.02L4,28l3.156-3.155
		C9.207,26.276,11.6,27.001,14,27.001c2.398,0,4.793-0.725,6.846-2.156L24,28l1.414-1.413l-3.02-3.02
		c0.03-0.028,0.061-0.053,0.09-0.082C27.172,18.799,27.172,11.198,22.484,6.512 M20.415,21.312
		c-0.042,0.038-0.083,0.076-0.124,0.116l-0.51,0.502l-0.651,0.454c-1.517,1.057-3.291,1.617-5.13,1.617s-3.612-0.559-5.127-1.616
		l-0.66-0.461l-0.504-0.496c-0.039-0.038-0.079-0.075-0.12-0.113C5.919,19.621,5,17.381,5,14.999c0-2.404,0.936-4.666,2.637-6.366
		c1.7-1.699,3.96-2.635,6.363-2.635c2.404,0,4.664,0.936,6.363,2.635c1.7,1.7,2.637,3.961,2.637,6.366
		C23,17.387,22.076,19.633,20.415,21.312"/>
	<path clip-path="url(#SVGID_2_)" d="M15,12.711V8c0-0.552-0.447-1-1-1c-0.553,0-1,0.448-1,1v4.71
		c-0.576,0.252-1.038,0.714-1.29,1.29H8c-0.552,0-1,0.447-1,1c0,0.553,0.448,1,1,1h3.711c0.386,0.882,1.264,1.5,2.288,1.5
		c1.383,0,2.5-1.121,2.5-2.5C16.499,13.976,15.883,13.097,15,12.711"/>
</g>
</svg>
