<?xml version="1.0" encoding="utf-8"?>
<?xml version="1.0" encoding="utf-8"?>
<svg version="1.1" id="Layer_1" xmlns="http://www.w3.org/2000/svg" xmlns:xlink="http://www.w3.org/1999/xlink" x="0px" y="0px"
	 viewBox="0 0 28 28" enable-background="new 0 0 28 28" xml:space="preserve">
<g>
	<defs>
		<rect id="SVGID_1_" width="28" height="28"/>
	</defs>
	<clipPath id="SVGID_2_">
		<use xlink:href="#SVGID_1_"  overflow="visible"/>
	</clipPath>
	<path clip-path="url(#SVGID_2_)" d="M14,0C6.268,0,0,6.268,0,14c0,7.731,6.268,14,14,14s14-6.269,14-14C28,6.268,21.732,0,14,0
		 M14,26C7.383,26,2,20.617,2,14S7.383,2,14,2s12,5.383,12,12S20.617,26,14,26"/>
	<path clip-path="url(#SVGID_2_)" d="M14,3.001c-6.075,0-11,4.924-11,11c0,6.074,4.925,11,11,11s11-4.926,11-11
		C25,7.925,20.075,3.001,14,3.001 M13.999,16.5c-1.024,0-1.902-0.618-2.288-1.499H8c-0.552,0-1-0.448-1-1c0-0.553,0.448-1,1-1h3.71
		c0.252-0.577,0.714-1.039,1.29-1.29v-4.71c0-0.553,0.447-1,1-1c0.553,0,1,0.447,1,1v4.71c0.883,0.387,1.499,1.265,1.499,2.289
		C16.499,15.38,15.382,16.5,13.999,16.5"/>
</g>
</svg>
