<?xml version="1.0" encoding="utf-8"?>
<svg version="1.1" id="Layer_1" xmlns="http://www.w3.org/2000/svg" xmlns:xlink="http://www.w3.org/1999/xlink" x="0px" y="0px" viewBox="0 0 28 28"
	 enable-background="new 0 0 28 28" xml:space="preserve">

		<g>
			<defs>
				<rect id="SVGID_1_" width="28" height="28"/>
			</defs>
			<clipPath id="SVGID_2_">
				<use xlink:href="#SVGID_1_"  overflow="visible"/>
			</clipPath>
			<path clip-path="url(#SVGID_2_)" fill="#231F20" d="M27.194,24.011L16.057,11.919c1.694-1.843,3.302-3.782,3.302-6.252
				C19.359,2.542,16.956,0,14.001,0c-3.23,0-5.575,2.103-5.575,5c0,0.828,0.681,1.5,1.52,1.5c0.84,0,1.521-0.672,1.521-1.5
				c0-1.903,2.111-2,2.534-2c1.278,0,2.317,1.196,2.317,2.667c0,1.316-1.018,2.597-2.316,4.021l-0.001-0.001L0.808,24.012
				c-1.108,1.203-0.811,2.261-0.632,2.661C0.355,27.071,0.95,28,2.598,28h22.806c1.647,0,2.242-0.929,2.421-1.327
				C28.005,26.273,28.302,25.215,27.194,24.011 M4.006,25l9.995-10.852L23.996,25H4.006z"/>
		</g>

</svg>
