<?xml version="1.0" encoding="utf-8"?>
<svg version="1.1" id="Layer_1" xmlns="http://www.w3.org/2000/svg" xmlns:xlink="http://www.w3.org/1999/xlink" x="0px" y="0px" viewBox="0 0 28 28"
	 enable-background="new 0 0 28 28" xml:space="preserve">

		<g>
			<defs>
				<rect id="SVGID_1_" width="28" height="28"/>
			</defs>
			<clipPath id="SVGID_2_">
				<use xlink:href="#SVGID_1_"  overflow="visible"/>
			</clipPath>
			<path clip-path="url(#SVGID_2_)" fill="#231F20" d="M0,13.027c0,1.58,1.355,3.596,3,3.973v-7C1.262,10.002,0,11.265,0,13.027"/>
			<path clip-path="url(#SVGID_2_)" fill="#231F20" d="M25,10v7c1.643-0.377,3-2.393,3-3.973C28,11.266,26.738,10.002,25,10"/>
			<path clip-path="url(#SVGID_2_)" fill="#231F20" d="M14.002,0C8.311,0,4,5,4,10v7c0,6.059,2,11,10.002,11C22,28,24,23.059,24,17
				v-7C24,5,19.691,0,14.002,0 M16.5,15.5c0,1.381-1.119,2.5-2.5,2.5s-2.5-1.119-2.5-2.5S12.619,13,14,13S16.5,14.119,16.5,15.5
				 M18,12c-0.829,0-1.502-0.671-1.502-1.5C16.498,9.671,17.171,9,18,9c0.829,0,1.498,0.671,1.498,1.5
				C19.498,11.329,18.829,12,18,12 M19.5,13L18,14.5L16.5,13H19.5z M11.5,13L10,14.5L8.5,13H11.5z M8.5,10.5
				C8.5,9.671,9.173,9,10.002,9C10.83,9,11.5,9.671,11.5,10.5c0,0.829-0.67,1.5-1.498,1.5C9.173,12,8.5,11.329,8.5,10.5 M7,9.25
				C6.862,9.25,6.75,9.138,6.75,9c0-1.792,1.458-3.25,3.25-3.25S13.25,7.208,13.25,9c0,0.138-0.112,0.25-0.25,0.25
				S12.75,9.138,12.75,9c0-1.517-1.233-2.75-2.75-2.75S7.25,7.483,7.25,9C7.25,9.138,7.138,9.25,7,9.25 M14.002,25
				c-4.109,0-6.137-1.409-6.773-5h13.542C20.136,23.591,18.109,25,14.002,25 M21,9.25c-0.138,0-0.25-0.112-0.25-0.25
				c0-1.517-1.233-2.75-2.75-2.75c-1.517,0-2.75,1.233-2.75,2.75c0,0.138-0.112,0.25-0.25,0.25c-0.138,0-0.25-0.112-0.25-0.25
				c0-1.792,1.458-3.25,3.25-3.25S21.25,7.208,21.25,9C21.25,9.138,21.138,9.25,21,9.25"/>
		</g>

</svg>
