<?xml version="1.0" encoding="utf-8"?>
<?xml version="1.0" encoding="utf-8"?>
<svg version="1.1" id="Layer_1" xmlns="http://www.w3.org/2000/svg" xmlns:xlink="http://www.w3.org/1999/xlink" x="0px" y="0px"
	 viewBox="0 0 28 28" enable-background="new 0 0 28 28" xml:space="preserve">
<g>
	<defs>
		<rect id="SVGID_1_" width="28" height="28"/>
	</defs>
	<clipPath id="SVGID_2_">
		<use xlink:href="#SVGID_1_"  overflow="visible"/>
	</clipPath>
	<path clip-path="url(#SVGID_2_)" d="M14.912,0l-2.755,2.755L10.09,0.689C9.712,0.31,9.212,0.12,8.713,0.12
		c-0.499,0-0.999,0.19-1.378,0.569L1.136,6.888c-0.758,0.758-0.758,1.997,0,2.755l2.066,2.067l-2.066,2.066
		c-1.515,1.515-1.515,3.995,0,5.51l7.577,7.577c1.515,1.516,3.995,1.516,5.51,0l13.776-13.776L14.912,0z M2.587,8.266l6.126-6.127
		l2.03,2.03l-6.126,6.126L2.587,8.266z M12.837,18.053c-1.543,0-2.777-0.182-2.777-0.182s-0.948-5.878,1.225-8.05
		c0.624-0.625,1.542-0.993,2.394-0.993c0.605,0,1.177,0.185,1.588,0.596c0.716,0.718,0.875,1.792,0.503,2.737
		c0.328-0.128,0.671-0.193,1.009-0.193c0.639,0,1.261,0.23,1.73,0.7c0.988,0.989,0.67,2.912-0.397,3.978
		C16.966,17.792,14.681,18.053,12.837,18.053"/>
</g>
</svg>
