<?xml version="1.0" encoding="utf-8"?>
<svg version="1.1" id="Layer_1" xmlns="http://www.w3.org/2000/svg" xmlns:xlink="http://www.w3.org/1999/xlink" x="0px" y="0px" viewBox="0 0 28 28"
	 enable-background="new 0 0 28 28" xml:space="preserve">

		<g>
			<defs>
				<rect id="SVGID_1_" width="28" height="28"/>
			</defs>
			<clipPath id="SVGID_2_">
				<use xlink:href="#SVGID_1_"  overflow="visible"/>
			</clipPath>
			<path clip-path="url(#SVGID_2_)" fill="#231F20" d="M24.5,12H0c0.442,6.706,5.639,12,12,12c3.865,0,7.293-1.962,9.492-5H24.5
				c1.934,0,3.5-1.566,3.5-3.5S26.434,12,24.5,12 M24.5,17h-1.816c0.452-0.939,0.796-1.944,1.024-3H24.5c0.827,0,1.5,0.673,1.5,1.5
				C26,16.327,25.327,17,24.5,17"/>
			<path clip-path="url(#SVGID_2_)" fill="#231F20" d="M20.895,25H3c-0.552,0-1,0.447-1,1s0.895,2,2.895,2h14c2,0,3-1.447,3-2
				S21.448,25,20.895,25"/>
			<path clip-path="url(#SVGID_2_)" fill="#231F20" d="M9.731,9.999c-0.324-0.61-0.498-1.308-0.498-2.015
				c0-1.605,0.853-2.669,1.219-3.052c0.781-0.814,1.539-1.779,1.433-2.875l0.005,0.005C11.612,0.096,9.648,0.011,9.343,0
				c0.843,2.02,0.344,2.302-1.428,4.151c-0.367,0.382-1.02,1.274-1.02,2.513C6.895,8.389,8.135,9.805,9.731,9.999"/>
			<path clip-path="url(#SVGID_2_)" fill="#231F20" d="M15.615,10c-0.323-0.61-0.498-1.308-0.498-2.015
				c0-1.605,0.853-2.669,1.22-3.052c0.781-0.814,1.537-1.779,1.432-2.875l0.005,0.005c-0.278-1.966-2.242-2.051-2.547-2.062
				c0.843,2.019,0.344,2.302-1.428,4.151c-0.367,0.382-1.02,1.274-1.02,2.513C12.779,8.39,14.019,9.806,15.615,10"/>
		</g>

</svg>
