<?xml version="1.0" encoding="utf-8"?>
<svg version="1.1" id="Layer_1" xmlns="http://www.w3.org/2000/svg" xmlns:xlink="http://www.w3.org/1999/xlink" x="0px" y="0px" viewBox="0 0 28 28"
	 enable-background="new 0 0 28 28" xml:space="preserve">

		<g>
			<defs>
				<rect id="SVGID_1_" width="28" height="28"/>
			</defs>
			<clipPath id="SVGID_2_">
				<use xlink:href="#SVGID_1_"  overflow="visible"/>
			</clipPath>
			<path clip-path="url(#SVGID_2_)" fill="#231F20" d="M14,0C6.268,0,0,6.268,0,14s6.268,14,14,14s14-6.268,14-14S21.732,0,14,0
				 M14,26C7.383,26,2,20.617,2,14S7.383,2,14,2s12,5.383,12,12S20.617,26,14,26"/>
			<path clip-path="url(#SVGID_2_)" fill="#231F20" d="M14,3C7.925,3,3,7.925,3,14s4.925,11,11,11s11-4.925,11-11S20.075,3,14,3
				 M15.119,19.094v1.655h-2v-1.518c-1-0.051-2.201-0.376-2.856-0.737l0.549-2.007c0.719,0.394,1.746,0.753,2.862,0.753
				c0.996,0,1.672-0.393,1.672-1.062c0-0.652-0.542-1.064-1.829-1.494c-1.836-0.617-3.193-1.475-3.193-3.14
				c0-1.525,0.795-2.711,2.795-3.054V6.749h2V8.37c1,0.035,1.85,0.291,2.451,0.567l-0.543,1.938c-0.428-0.206-1.248-0.6-2.484-0.6
				c-1.114,0-1.483,0.498-1.483,0.978c0,0.549,0.598,0.926,2.073,1.458c2.045,0.72,2.937,1.664,2.937,3.227
				C18.07,17.465,17.119,18.769,15.119,19.094"/>
		</g>

</svg>
