<?xml version="1.0" encoding="utf-8"?>
<svg version="1.1" id="Layer_1" xmlns="http://www.w3.org/2000/svg" xmlns:xlink="http://www.w3.org/1999/xlink" x="0px" y="0px" viewBox="0 0 28 28"
	 enable-background="new 0 0 28 28" xml:space="preserve">

		<g>
			<defs>
				<rect id="SVGID_1_" width="28" height="28"/>
			</defs>
			<clipPath id="SVGID_2_">
				<use xlink:href="#SVGID_1_"  overflow="visible"/>
			</clipPath>
			<path clip-path="url(#SVGID_2_)" fill="#231F20" d="M0,16.596v0.69c0,2.367,3.358,4.286,7.5,4.286s7.5-1.919,7.5-4.286v-0.69
				c-1.419,1.657-4.214,2.761-7.5,2.761S1.419,18.253,0,16.596"/>
			<path clip-path="url(#SVGID_2_)" fill="#231F20" d="M7.5,8.714C3.358,8.714,0,10.633,0,13v1.071c0,2.367,3.358,4.286,7.5,4.286
				s7.5-1.919,7.5-4.286V13C15,10.633,11.642,8.714,7.5,8.714"/>
			<path clip-path="url(#SVGID_2_)" fill="#231F20" d="M0,19.81v0.69c0,2.367,3.358,4.286,7.5,4.286S15,22.867,15,20.5v-0.69
				c-1.419,1.657-4.214,2.761-7.5,2.761S1.419,21.467,0,19.81"/>
			<path clip-path="url(#SVGID_2_)" fill="#231F20" d="M0,23.024v0.69C0,26.081,3.358,28,7.5,28s7.5-1.919,7.5-4.286v-0.69
				c-1.419,1.657-4.214,2.761-7.5,2.761S1.419,24.681,0,23.024"/>
			<path clip-path="url(#SVGID_2_)" fill="#231F20" d="M16,14.928v1.868C17.271,17.538,19.04,18,21,18c3.866,0,7-1.791,7-4v-0.548
				C26.647,14.983,24.05,16,21,16C19.091,16,17.36,15.601,16,14.928"/>
			<path clip-path="url(#SVGID_2_)" fill="#231F20" d="M21,0c-3.866,0-7,1.791-7,4v1c0,2.209,3.134,4,7,4s7-1.791,7-4V4
				C28,1.791,24.866,0,21,0"/>
			<path clip-path="url(#SVGID_2_)" fill="#231F20" d="M15.784,11.806c0.137,0.383,0.217,0.781,0.217,1.194v0.797
				c1.27,0.742,3.04,1.203,5,1.203c3.866,0,7-1.791,7-4v-0.548c-1.353,1.531-3.95,2.548-7,2.548
				C18.985,13,17.176,12.549,15.784,11.806"/>
			<path clip-path="url(#SVGID_2_)" fill="#231F20" d="M14,7.452V8c0,2.209,3.134,4,7,4s7-1.791,7-4V7.452
				C26.647,8.983,24.05,10,21,10S15.352,8.983,14,7.452"/>
		</g>

</svg>
