<?xml version="1.0" encoding="utf-8"?>
<svg version="1.1" id="Layer_1" xmlns="http://www.w3.org/2000/svg" xmlns:xlink="http://www.w3.org/1999/xlink" x="0px" y="0px" viewBox="0 0 28 28"
	 enable-background="new 0 0 28 28" xml:space="preserve">

		<g>
			<defs>
				<rect id="SVGID_1_" width="28" height="28"/>
			</defs>
			<clipPath id="SVGID_2_">
				<use xlink:href="#SVGID_1_"  overflow="visible"/>
			</clipPath>
			<path clip-path="url(#SVGID_2_)" fill="#231F20" d="M26.478,8.501c0.338,0.339,0.923,0.338,1.26,0C27.908,8.334,28,8.11,28,7.871
				c0-0.238-0.092-0.462-0.261-0.629l-6.086-6.086c-0.744-0.745-1.735-1.155-2.789-1.155c-1.055,0-2.046,0.41-2.789,1.154
				L1.155,16.076C0.41,16.82,0,17.81,0,18.865c0,1.054,0.41,2.045,1.154,2.789l6.087,6.085c0.335,0.339,0.924,0.338,1.259,0.001
				c0.348-0.348,0.348-0.914,0-1.261l-5.585-5.586l0.805-0.804l0.09,0.089l5.496,5.496c0.336,0.336,0.921,0.337,1.261,0
				c0.347-0.347,0.347-0.913-0.001-1.26l-5.585-5.586l0.875-0.876l5.586,5.585c0.337,0.339,0.926,0.338,1.261,0.001
				c0.169-0.17,0.262-0.393,0.262-0.631s-0.093-0.462-0.262-0.631L7.118,16.69l0.876-0.875l0.089,0.089L13.58,21.4
				c0.337,0.337,0.922,0.336,1.261,0c0.347-0.346,0.347-0.913-0.001-1.26l-5.585-5.586l0.876-0.876l0.09,0.089l5.496,5.496
				c0.335,0.339,0.924,0.338,1.259,0.001c0.348-0.348,0.348-0.914,0-1.261l-5.585-5.586l0.875-0.875l0.09,0.089l5.496,5.496
				c0.337,0.339,0.925,0.338,1.26,0.001c0.17-0.169,0.263-0.392,0.263-0.631c0-0.238-0.093-0.462-0.263-0.63l-5.585-5.586
				l0.876-0.875l0.09,0.088l5.496,5.497c0.336,0.338,0.923,0.339,1.261,0c0.347-0.347,0.347-0.914,0-1.261l-5.585-5.586l0.875-0.876
				l0.089,0.089l5.497,5.496c0.337,0.339,0.925,0.338,1.26,0.001c0.169-0.168,0.262-0.392,0.262-0.63
				c0-0.239-0.093-0.462-0.262-0.631l-5.585-5.586l0.876-0.875l0.09,0.089l5.496,5.496c0.337,0.339,0.923,0.338,1.26,0
				c0.348-0.347,0.348-0.913,0-1.26l-5.585-5.586l0.954-0.955l0.09,0.089L26.478,8.501z"/>
		</g>

</svg>
