<?xml version="1.0" encoding="utf-8"?>
<?xml version="1.0" encoding="utf-8"?>
<svg version="1.1" id="Layer_1" xmlns="http://www.w3.org/2000/svg" xmlns:xlink="http://www.w3.org/1999/xlink" x="0px" y="0px"
	 viewBox="0 0 28 28" enable-background="new 0 0 28 28" xml:space="preserve">
<g>
	<defs>
		<rect id="SVGID_1_" width="28" height="28"/>
	</defs>
	<clipPath id="SVGID_2_">
		<use xlink:href="#SVGID_1_"  overflow="visible"/>
	</clipPath>
	<path clip-path="url(#SVGID_2_)" d="M14,0C6.268,0,0,6.268,0,14c0,7.731,6.268,14,14,14s14-6.269,14-14C28,6.268,21.732,0,14,0
		 M14,25C7.935,25,3,20.065,3,14S7.935,3,14,3s11,4.935,11,11S20.065,25,14,25"/>
	<path clip-path="url(#SVGID_2_)" d="M11.373,11.375L6.999,21l9.624-4.374h0.002L20.999,7l-9.624,4.376L11.373,11.375z M13.999,12.5
		c0.829,0,1.5,0.672,1.5,1.5c0,0.828-0.671,1.5-1.5,1.5c-0.829,0-1.5-0.672-1.5-1.5C12.499,13.172,13.17,12.5,13.999,12.5"/>
</g>
</svg>
