<?xml version="1.0" encoding="utf-8"?>
<?xml version="1.0" encoding="utf-8"?>
<svg version="1.1" id="Layer_1" xmlns="http://www.w3.org/2000/svg" xmlns:xlink="http://www.w3.org/1999/xlink" x="0px" y="0px"
	 viewBox="0 0 28 28" enable-background="new 0 0 28 28" xml:space="preserve">
<g>
	<defs>
		<rect id="SVGID_1_" width="28" height="28"/>
	</defs>
	<clipPath id="SVGID_2_">
		<use xlink:href="#SVGID_1_"  overflow="visible"/>
	</clipPath>
	<path clip-path="url(#SVGID_2_)" d="M27,4H1v4h26V4z M26,0H2v3h24V0z M0,9v19h8v-3H6v-1h4v1H9v3h10v-3h-1v-1h4v1h-2v3h8V9H0z
		 M5.5,11.427c1.035,0,1.871,0.838,1.871,1.869c0,1.034-0.836,1.872-1.871,1.872c-1.031,0-1.871-0.838-1.871-1.872
		C3.629,12.265,4.469,11.427,5.5,11.427 M8,21H3v-2.454c0-1.394,1.014-2.525,2.5-2.525c1.488,0,2.5,1.131,2.5,2.525V21z M25,20H13
		v-1h12V20z M25,17H13v-1h12V17z M25,14H13v-1h12V14z"/>
</g>
</svg>
