<?xml version="1.0" encoding="utf-8"?>
<svg version="1.1" id="Layer_1" xmlns="http://www.w3.org/2000/svg" xmlns:xlink="http://www.w3.org/1999/xlink" x="0px" y="0px" viewBox="0 0 28 28"
	 enable-background="new 0 0 28 28" xml:space="preserve">

		<g>
			<defs>
				<rect id="SVGID_1_" width="28" height="28"/>
			</defs>
			<clipPath id="SVGID_2_">
				<use xlink:href="#SVGID_1_"  overflow="visible"/>
			</clipPath>
			<path clip-path="url(#SVGID_2_)" fill="#231F20" d="M26.61,9.657C26.117,9.874,25.574,10,25.001,10
				c-1.39,0-2.613-0.71-3.329-1.786C20.898,8.705,19.986,9,19.001,9c-2.762,0-5-2.239-5-5c-1.859,0-3.407-1.274-3.856-2.992
				C9.986,1.041,9.828,1.079,9.673,1.129c-1.384,0.45-2.426,1.596-3.579,2.435c-1.164,0.847-2.573,1.49-3.42,2.654
				c-0.839,1.152-1.02,2.687-1.469,4.071c-0.434,1.336-1.204,2.678-1.204,4.158c0,1.481,0.77,2.822,1.204,4.158
				c0.449,1.385,0.63,2.919,1.469,4.072c0.847,1.164,2.256,1.806,3.42,2.653c1.152,0.839,2.194,1.986,3.579,2.435
				c1.336,0.434,2.847,0.133,4.328,0.133c1.48,0,2.991,0.301,4.327-0.132c1.385-0.45,2.427-1.597,3.579-2.436
				c1.164-0.847,2.573-1.489,3.421-2.653c0.838-1.153,1.019-2.687,1.469-4.072c0.434-1.336,1.204-2.677,1.204-4.158
				c0-1.48-0.77-2.821-1.204-4.157C26.729,10.082,26.669,9.87,26.61,9.657 M7.665,18.197C7.493,18.507,7.298,18.821,7.001,19
				c-0.289,0.173-0.643,0.197-1,0.197c-0.358,0-0.712-0.024-1.001-0.198c-0.297-0.179-0.492-0.493-0.664-0.802
				c-0.167-0.301-0.335-0.629-0.335-1c0-0.372,0.168-0.7,0.335-1.001c0.173-0.309,0.367-0.623,0.665-0.802
				c0.288-0.174,0.643-0.197,1-0.197s0.712,0.023,1,0.197c0.298,0.179,0.492,0.493,0.664,0.803c0.167,0.3,0.336,0.628,0.336,1
				C8.001,17.569,7.832,17.897,7.665,18.197 M8.855,10.035c-0.089,0.25-0.194,0.506-0.392,0.676
				c-0.192,0.163-0.452,0.224-0.716,0.268c-0.264,0.045-0.529,0.071-0.764-0.022c-0.242-0.096-0.425-0.304-0.59-0.512
				c-0.161-0.202-0.326-0.424-0.372-0.698C5.975,9.471,6.06,9.208,6.146,8.965c0.089-0.25,0.195-0.507,0.393-0.676
				C6.731,8.125,6.99,8.064,7.254,8.02c0.264-0.044,0.53-0.07,0.765,0.023c0.242,0.096,0.424,0.304,0.59,0.512
				c0.16,0.201,0.325,0.423,0.371,0.698C9.026,9.529,8.942,9.792,8.855,10.035 M14.917,21.702c-0.023,0.265-0.059,0.539-0.207,0.753
				c-0.144,0.208-0.379,0.333-0.624,0.443c-0.244,0.11-0.494,0.203-0.745,0.173c-0.258-0.031-0.488-0.186-0.701-0.345
				c-0.206-0.154-0.423-0.326-0.537-0.58c-0.115-0.255-0.1-0.531-0.078-0.788c0.022-0.265,0.058-0.539,0.207-0.753
				c0.143-0.208,0.379-0.333,0.623-0.443c0.244-0.11,0.494-0.203,0.745-0.173c0.259,0.031,0.488,0.186,0.701,0.345
				c0.207,0.153,0.423,0.326,0.537,0.58C14.953,21.169,14.939,21.445,14.917,21.702 M16.936,15.154
				c-0.038,0.341-0.092,0.706-0.308,1.008c-0.216,0.303-0.544,0.472-0.855,0.619c-0.32,0.152-0.66,0.295-1.007,0.267
				c-0.335-0.026-0.637-0.213-0.928-0.421c-0.291-0.207-0.566-0.432-0.699-0.742c-0.138-0.318-0.114-0.687-0.074-1.039
				c0.039-0.341,0.092-0.706,0.308-1.009c0.216-0.302,0.545-0.471,0.855-0.619c0.32-0.151,0.661-0.294,1.007-0.267
				c0.336,0.027,0.638,0.214,0.928,0.421c0.291,0.208,0.566,0.433,0.7,0.742C17.001,14.433,16.976,14.802,16.936,15.154
				 M22.636,19.412c-0.159,0.213-0.336,0.426-0.575,0.529c-0.232,0.1-0.498,0.081-0.763,0.045c-0.266-0.036-0.527-0.089-0.724-0.248
				c-0.202-0.163-0.315-0.416-0.412-0.664c-0.093-0.24-0.185-0.501-0.148-0.777c0.038-0.276,0.197-0.503,0.351-0.709
				c0.16-0.213,0.336-0.427,0.575-0.529c0.232-0.1,0.498-0.082,0.763-0.045c0.266,0.036,0.527,0.089,0.724,0.248
				c0.203,0.163,0.316,0.416,0.412,0.663c0.094,0.24,0.186,0.501,0.148,0.777C22.949,18.979,22.791,19.206,22.636,19.412"/>
			<path clip-path="url(#SVGID_2_)" fill="#231F20" d="M25.75,4.852C25.966,4.982,26.232,5,26.5,5c0.268,0,0.534-0.018,0.75-0.148
				c0.224-0.134,0.369-0.37,0.499-0.602C27.874,4.025,28,3.779,28,3.5s-0.126-0.525-0.251-0.75
				c-0.129-0.232-0.275-0.468-0.498-0.602C27.034,2.017,26.768,2,26.5,2c-0.267,0-0.533,0.017-0.75,0.148
				c-0.223,0.134-0.369,0.369-0.498,0.601C25.127,2.975,25,3.221,25,3.5s0.127,0.525,0.252,0.75
				C25.381,4.482,25.527,4.718,25.75,4.852"/>
			<path clip-path="url(#SVGID_2_)" fill="#231F20" d="M17.5,1.902c0.144,0.087,0.322,0.099,0.5,0.099
				c0.179,0,0.356-0.012,0.5-0.099c0.149-0.089,0.246-0.246,0.332-0.401C18.916,1.351,19,1.187,19,1.001s-0.084-0.35-0.167-0.5
				c-0.086-0.155-0.184-0.312-0.332-0.402C18.356,0.012,18.179,0.001,18,0.001c-0.178,0-0.355,0.011-0.5,0.098
				c-0.148,0.09-0.246,0.247-0.332,0.401C17.085,0.65,17,0.815,17,1.001c0,0.185,0.085,0.349,0.168,0.5
				C17.254,1.655,17.351,1.812,17.5,1.902"/>
		</g>

</svg>
