<?xml version="1.0" encoding="utf-8"?>
<?xml version="1.0" encoding="utf-8"?>
<svg version="1.1" id="Layer_1" xmlns="http://www.w3.org/2000/svg" xmlns:xlink="http://www.w3.org/1999/xlink" x="0px" y="0px"
	 viewBox="0 0 28 28" enable-background="new 0 0 28 28" xml:space="preserve">
<g>
	<defs>
		<rect id="SVGID_1_" width="28" height="28"/>
	</defs>
	<clipPath id="SVGID_2_">
		<use xlink:href="#SVGID_1_"  overflow="visible"/>
	</clipPath>
	<path clip-path="url(#SVGID_2_)" d="M0.5,28h6v-2h-6V28z M7.5,28h6v-2h-6V28z M7.5,25h6V7h-6V25z M10.5,12
		c0.828,0,1.5,1.567,1.5,3.5S11.328,19,10.5,19S9,17.433,9,15.5S9.672,12,10.5,12 M4.5,0h-2l-1,4h-1v2h6V4h-1L4.5,0z M0.5,25h6V7h-6
		V25z M3.5,12C4.328,12,5,13.567,5,15.5S4.328,19,3.5,19S2,17.433,2,15.5S2.672,12,3.5,12 M21.5,25h6V7h-6V25z M24.5,12
		c0.828,0,1.5,1.567,1.5,3.5S25.328,19,24.5,19c-0.828,0-1.5-1.567-1.5-3.5S23.672,12,24.5,12 M26.5,4l-1-4h-2l-1,4h-1v2h6V4H26.5z
		 M21.5,28h6v-2h-6V28z M14.5,28h6v-2h-6V28z M18.5,0h-2l-1,4h-1v2h6V4h-1L18.5,0z M11.5,0h-2l-1,4h-1v2h6V4h-1L11.5,0z M14.5,25h6
		V7h-6V25z M17.5,12c0.828,0,1.5,1.567,1.5,3.5S18.328,19,17.5,19c-0.828,0-1.5-1.567-1.5-3.5S16.672,12,17.5,12"/>
</g>
</svg>
