<?xml version="1.0" encoding="utf-8"?>
<?xml version="1.0" encoding="utf-8"?>
<svg version="1.1" id="Layer_1" xmlns="http://www.w3.org/2000/svg" xmlns:xlink="http://www.w3.org/1999/xlink" x="0px" y="0px"
	 viewBox="0 0 28 28" enable-background="new 0 0 28 28" xml:space="preserve">
<g>
	<defs>
		<rect id="SVGID_1_" width="28" height="28"/>
	</defs>
	<clipPath id="SVGID_2_">
		<use xlink:href="#SVGID_1_"  overflow="visible"/>
	</clipPath>
	<path clip-path="url(#SVGID_2_)" d="M2.696,5.496l0.189-2.063c-0.002-0.277,0.068-0.5,0.346-0.5
		c0.785,0.005,3.406,6.483,3.406,6.483l3.844,3.848l2.803-2.801L4.491,1.67C3.703,0.883,1.006-0.547,0.227,0.231
		C-0.55,1.008,0.854,3.654,1.641,4.442L2.696,5.496z M27.77,0.228C27.61,0.068,27.371,0,27.086,0c-1.103,0-2.902,1.015-3.527,1.641
		l-1.055,1.055l2.063,0.188h0.006c0.273,0,0.494,0.071,0.494,0.345c-0.004,0.785-6.483,3.406-6.483,3.406L0.008,25.192L2.825,28
		L26.328,4.49C27.116,3.704,28.547,1.006,27.77,0.228 M17.555,14.733l-2.805,2.806l10.444,10.455L28,25.175L17.555,14.733z"/>
</g>
</svg>
