<?xml version="1.0" encoding="utf-8"?>
<?xml version="1.0" encoding="utf-8"?>
<svg version="1.1" id="Layer_1" xmlns="http://www.w3.org/2000/svg" xmlns:xlink="http://www.w3.org/1999/xlink" x="0px" y="0px"
	 viewBox="0 0 28 28" enable-background="new 0 0 28 28" xml:space="preserve">
<g>
	<defs>
		<rect id="SVGID_1_" width="28" height="28"/>
	</defs>
	<clipPath id="SVGID_2_">
		<use xlink:href="#SVGID_1_"  overflow="visible"/>
	</clipPath>
	<path clip-path="url(#SVGID_2_)" d="M14,5c1.381,0,2.5-1.119,2.5-2.5S15.381,0,14,0c-1.379,0-2.5,1.119-2.5,2.5S12.621,5,14,5
		 M5,5.499c0-1.381-1.119-2.5-2.5-2.5c-1.379,0-2.5,1.119-2.5,2.5c0,1.381,1.121,2.5,2.5,2.5C3.881,7.999,5,6.88,5,5.499 M19,13
		l-4-7h-2l-4,7L5,8c0,0-2.967,1-3,1l3,13h18l3-13l-3-1L19,13z M25.5,2.999c-1.379,0-2.5,1.119-2.5,2.5c0,1.381,1.121,2.5,2.5,2.5
		c1.381,0,2.5-1.119,2.5-2.5C28,4.118,26.881,2.999,25.5,2.999 M4,28h20v-5H4V28z"/>
</g>
</svg>
