<?xml version="1.0" encoding="utf-8"?>
<svg version="1.1" id="Layer_1" xmlns="http://www.w3.org/2000/svg" xmlns:xlink="http://www.w3.org/1999/xlink" x="0px" y="0px" viewBox="0 0 28 28"
	 enable-background="new 0 0 28 28" xml:space="preserve">

		<g>
			<defs>
				<rect id="SVGID_1_" width="28" height="28"/>
			</defs>
			<clipPath id="SVGID_2_">
				<use xlink:href="#SVGID_1_"  overflow="visible"/>
			</clipPath>
			<path clip-path="url(#SVGID_2_)" fill="#231F20" d="M7.311,17.001C5.879,15.407,5,13.307,5,11.001c0-4.963,4.038-9,9-9
				c4.963,0,9,4.037,9,9c0,2.306-0.879,4.406-2.311,6h2.524c1.127-1.726,1.787-3.785,1.787-6c0-6.075-4.925-11-11-11
				s-11,4.925-11,11c0,2.215,0.661,4.274,1.788,6H7.311z"/>
			<path clip-path="url(#SVGID_2_)" fill="#231F20" d="M27.559,25.282l-2.956-3.281H3.396L0.44,25.282
				c-0.969,1.496-0.285,2.719,1.521,2.719h24.077C27.844,28.001,28.528,26.778,27.559,25.282"/>
			<path clip-path="url(#SVGID_2_)" fill="#231F20" d="M3.5,21.001h21c0.828,0,1.5-0.672,1.5-1.5c0-0.828-0.672-1.5-1.5-1.5h-21
				c-0.828,0-1.5,0.672-1.5,1.5C2,20.329,2.672,21.001,3.5,21.001"/>
			<path clip-path="url(#SVGID_2_)" fill="#231F20" d="M15.769,4.494c0.774,0,1.52,0.115,2.231,0.314
				c-1.167-0.778-2.566-1.233-4.07-1.233c-4.056,0-7.356,3.3-7.356,7.356c0,1.504,0.455,2.903,1.233,4.07
				c-0.199-0.711-0.314-1.457-0.314-2.231C7.493,8.207,11.206,4.494,15.769,4.494"/>
		</g>

</svg>
