<?xml version="1.0" encoding="utf-8"?>
<svg version="1.1" id="Layer_1" xmlns="http://www.w3.org/2000/svg" xmlns:xlink="http://www.w3.org/1999/xlink" x="0px" y="0px" viewBox="0 0 28 28"
	 enable-background="new 0 0 28 28" xml:space="preserve">

		<g>
			<defs>
				<rect id="SVGID_1_" width="28" height="28"/>
			</defs>
			<clipPath id="SVGID_2_">
				<use xlink:href="#SVGID_1_"  overflow="visible"/>
			</clipPath>
			<path clip-path="url(#SVGID_2_)" fill="#231F20" d="M10.806,27.928c0.004,0.025-0.004,0.048-0.004,0.072H13.5V18H9.365
				L10.806,27.928z"/>
			<polygon clip-path="url(#SVGID_2_)" fill="#231F20" points="5,18 7.084,28 9.805,28 8.355,18 			"/>
			<path clip-path="url(#SVGID_2_)" fill="#231F20" d="M18.635,18H14.5v10h2.698c0-0.024-0.007-0.047-0.003-0.072L18.635,18z"/>
			<polygon clip-path="url(#SVGID_2_)" fill="#231F20" points="18.195,28 20.916,28 23,18 19.645,18 			"/>
			<path clip-path="url(#SVGID_2_)" fill="#231F20" d="M25.944,11.166c0.02-0.15,0.056-0.297,0.056-0.451C26,3.17,14.008,0,14.008,0
				c1.785,4.285-2.57,4.285-2.57,4.285c-10.277-0.133-9.421,6.43-9.421,6.43c0,0.152,0.035,0.297,0.055,0.446
				C0.872,11.554,0,12.669,0,14c0,1.657,1.342,3,3,3h22c1.657,0,3-1.343,3-3C28,12.676,27.135,11.563,25.944,11.166"/>
		</g>

</svg>
