<?xml version="1.0" encoding="utf-8"?>
<?xml version="1.0" encoding="utf-8"?>
<svg version="1.1" id="Layer_1" xmlns="http://www.w3.org/2000/svg" xmlns:xlink="http://www.w3.org/1999/xlink" x="0px" y="0px"
	 viewBox="0 0 28 28" enable-background="new 0 0 28 28" xml:space="preserve">
<g>
	<defs>
		<rect id="SVGID_1_" width="28" height="28"/>
	</defs>
	<clipPath id="SVGID_2_">
		<use xlink:href="#SVGID_1_"  overflow="visible"/>
	</clipPath>
	<path clip-path="url(#SVGID_2_)" d="M6.676,7.407L8.709,9.44c0.225-0.262,0.469-0.507,0.733-0.732L7.408,6.675
		C7.151,6.906,6.906,7.15,6.676,7.407"/>
	<path clip-path="url(#SVGID_2_)" d="M4.705,10.711l2.658,1.101c0.11-0.331,0.244-0.649,0.399-0.956L5.103,9.754
		C4.955,10.065,4.822,10.383,4.705,10.711"/>
	<path clip-path="url(#SVGID_2_)" d="M10.711,4.704c-0.328,0.117-0.646,0.25-0.957,0.398l1.102,2.66
		c0.308-0.156,0.625-0.29,0.957-0.4L10.711,4.704z"/>
	<path clip-path="url(#SVGID_2_)" d="M14.519,7.034V4.155c-0.174-0.009-0.344-0.026-0.52-0.026c-0.173,0-0.343,0.017-0.517,0.026
		v2.879c0.172-0.013,0.344-0.026,0.517-0.026C14.175,7.008,14.347,7.021,14.519,7.034"/>
	<path clip-path="url(#SVGID_2_)" d="M16.19,7.362c0.33,0.109,0.65,0.244,0.957,0.399l1.102-2.659
		c-0.311-0.148-0.631-0.281-0.957-0.398L16.19,7.362z"/>
	<path clip-path="url(#SVGID_2_)" d="M22.898,9.754l-2.658,1.102c0.154,0.306,0.289,0.625,0.398,0.956l2.658-1.101
		C23.179,10.383,23.048,10.065,22.898,9.754"/>
	<path clip-path="url(#SVGID_2_)" d="M14,0C6.268,0,0,6.268,0,14s6.268,14,14,14s14-6.268,14-14S21.732,0,14,0 M14,24.889
		C7.996,24.889,3.111,20.004,3.111,14C3.111,7.995,7.996,3.111,14,3.111S24.889,7.995,24.889,14
		C24.889,20.004,20.004,24.889,14,24.889"/>
	<path clip-path="url(#SVGID_2_)" d="M20.594,6.675l-2.033,2.032c0.262,0.227,0.508,0.471,0.732,0.733l2.033-2.033
		C21.094,7.15,20.852,6.905,20.594,6.675"/>
	<path clip-path="url(#SVGID_2_)" d="M15,18.211V11c0-0.552-0.447-1-1-1c-0.553,0-1,0.448-1,1v7.211
		c-0.881,0.386-1.5,1.264-1.5,2.289c0,1.381,1.119,2.5,2.5,2.5s2.5-1.119,2.5-2.5C16.5,19.475,15.883,18.597,15,18.211"/>
</g>
</svg>
