<?xml version="1.0" encoding="utf-8"?>
<?xml version="1.0" encoding="utf-8"?>
<svg version="1.1" id="Layer_1" xmlns="http://www.w3.org/2000/svg" xmlns:xlink="http://www.w3.org/1999/xlink" x="0px" y="0px"
	 viewBox="0 0 28 28" enable-background="new 0 0 28 28" xml:space="preserve">
<g>
	<defs>
		<rect id="SVGID_1_" width="28" height="28"/>
	</defs>
	<clipPath id="SVGID_2_">
		<use xlink:href="#SVGID_1_"  overflow="visible"/>
	</clipPath>
	<path clip-path="url(#SVGID_2_)" d="M13.99,21.769c-3.84,0-7.454-0.252-10.201-0.711c-1.372-0.229-2.69-0.521-3.725-0.993v5.588
		c0,1.288,6.251,2.331,13.961,2.331s13.959-1.043,13.959-2.331v-5.599c-1.045,0.479-2.382,0.773-3.766,1.004
		C21.472,21.517,17.828,21.769,13.99,21.769 M13.978,4.677c7.709,0,13.959-1.042,13.959-2.33c0-1.287-6.25-2.331-13.959-2.331
		c-7.71,0-13.961,1.044-13.961,2.331C0.017,3.635,6.268,4.677,13.978,4.677 M13.99,13.786c-3.84,0-7.454-0.252-10.201-0.71
		c-1.372-0.23-2.69-0.522-3.725-0.994v6.32c0,1.288,6.251,2.331,13.961,2.331s13.959-1.043,13.959-2.331v-6.331
		c-1.045,0.478-2.382,0.773-3.766,1.005C21.472,13.534,17.828,13.786,13.99,13.786 M24.019,5.016
		c-2.691,0.45-6.258,0.697-10.041,0.697S6.628,5.466,3.936,5.016C2.128,4.715,0.865,4.353,0.064,3.894v6.525
		c0,1.287,6.251,2.33,13.961,2.33s13.959-1.043,13.959-2.33V3.838C27.191,4.324,25.9,4.702,24.019,5.016"/>
</g>
</svg>
