<?xml version="1.0" encoding="utf-8"?>
<svg version="1.1" id="Layer_1" xmlns="http://www.w3.org/2000/svg" xmlns:xlink="http://www.w3.org/1999/xlink" x="0px" y="0px" viewBox="0 0 28 28"
	 enable-background="new 0 0 28 28" xml:space="preserve">

		<g>
			<defs>
				<rect id="SVGID_1_" width="28" height="28"/>
			</defs>
			<clipPath id="SVGID_2_">
				<use xlink:href="#SVGID_1_"  overflow="visible"/>
			</clipPath>
			<path clip-path="url(#SVGID_2_)" fill="#231F20" d="M15,9h10c0.55,0,1-0.45,1-1V1c0-0.55-0.45-1-1-1H15c-0.55,0-1,0.45-1,1v7
				C14,8.55,14.45,9,15,9 M16,2h8v5h-8V2z"/>
			<path clip-path="url(#SVGID_2_)" fill="#231F20" d="M23,12c-0.55,0-1-0.45-1-1v-1h-4v1c0,0.55-0.45,1-1,1H9V7H4v5H0v3h28v-3H23z"
				/>
			<path clip-path="url(#SVGID_2_)" fill="#231F20" d="M1,28h4v-7.5C5,19.672,5.672,19,6.5,19h15c0.828,0,1.5,0.672,1.5,1.5V28h4V16
				H1V28z"/>
			<path clip-path="url(#SVGID_2_)" fill="#231F20" d="M5,2c0-0.276-0.224-0.5-0.5-0.5C4.224,1.5,4,1.724,4,2v4h1V2z"/>
			<path clip-path="url(#SVGID_2_)" fill="#231F20" d="M7,2c0-0.276-0.224-0.5-0.5-0.5C6.224,1.5,6,1.724,6,2v4h1V2z"/>
			<path clip-path="url(#SVGID_2_)" fill="#231F20" d="M9.518,2.172C9.579,1.903,9.41,1.635,9.14,1.574
				C8.871,1.513,8.604,1.682,8.543,1.952L7.628,6h1.025L9.518,2.172z"/>
		</g>

</svg>
