<?xml version="1.0" encoding="utf-8"?>
<svg version="1.1" id="Layer_1" xmlns="http://www.w3.org/2000/svg" xmlns:xlink="http://www.w3.org/1999/xlink" x="0px" y="0px" viewBox="0 0 28 28"
	 enable-background="new 0 0 28 28" xml:space="preserve">

	<g>

			<rect x="17.936" y="0.901" transform="matrix(-0.5966 -0.8026 0.8026 -0.5966 29.014 17.6205)" fill="#231F20" width="2" height="1.234"/>
		<g>
			<defs>
				<rect id="SVGID_1_" width="28" height="28"/>
			</defs>
			<clipPath id="SVGID_2_">
				<use xlink:href="#SVGID_1_"  overflow="visible"/>
			</clipPath>
			<path clip-path="url(#SVGID_2_)" fill="#231F20" d="M14,24.001c-2.408,0-4.533,1.725-5,4h19c-0.467-2.275-2.592-4-5-4h-2.676
				l2.408-6.622c1.02-0.315,1.768-1.256,1.768-2.378c0-1.378-1.122-2.5-2.5-2.5c-0.118,0-0.231,0.019-0.344,0.035l-4.327-4.327
				l0.535-0.397c1.324-0.986,1.601-2.875,0.616-4.198l-1.791-2.407c-0.985-1.324-2.874-1.601-4.197-0.616L6.049,5.384L0,5.82
				l9.258,12.481l2.164-5.696l3.475-2.586l4.638,4.638c-0.016,0.113-0.035,0.226-0.035,0.344c0,0.503,0.152,0.969,0.408,1.362
				l-2.777,7.638H14z M22,13.501c0.828,0,1.5,0.672,1.5,1.5c0,0.828-0.672,1.5-1.5,1.5c-0.828,0-1.5-0.672-1.5-1.5
				C20.5,14.173,21.172,13.501,22,13.501"/>
		</g>
	</g>

</svg>
