<?xml version="1.0" encoding="utf-8"?>
<?xml version="1.0" encoding="utf-8"?>
<svg version="1.1" id="Layer_1" xmlns="http://www.w3.org/2000/svg" xmlns:xlink="http://www.w3.org/1999/xlink" x="0px" y="0px"
	 viewBox="0 0 28 28" enable-background="new 0 0 28 28" xml:space="preserve">
<g>
	<defs>
		<rect id="SVGID_1_" width="28" height="28"/>
	</defs>
	<clipPath id="SVGID_2_">
		<use xlink:href="#SVGID_1_"  overflow="visible"/>
	</clipPath>
	<path clip-path="url(#SVGID_2_)" d="M27.988,24.642l-1.103-10.115c-0.116-1.037-1.002-1.812-2.025-1.812
		c-0.073,0-0.146,0.004-0.22,0.012l-4.11,0.449l-3.838-12.47c-0.121-0.393-0.468-0.671-0.878-0.703
		c-0.417-0.031-0.796,0.189-0.976,0.557l-4.737,9.686c-0.032,0.064-0.036,0.132-0.052,0.198l-5.25-1.247
		C4.644,9.16,4.489,9.143,4.337,9.143c-0.91,0-1.74,0.625-1.958,1.547l-2.324,9.778c-0.256,1.077,0.416,2.166,1.493,2.422
		l9.777,2.322c0.154,0.037,0.31,0.055,0.462,0.055c0.324,0,0.631-0.095,0.91-0.24l-0.966-8.844
		c-0.088-0.804,0.144-1.596,0.653-2.229s1.231-1.03,2.035-1.117l1.523-0.166c-0.243-0.558-0.729-1-1.364-1.152l-2.574-0.611
		l3.52-7.198l2.981,9.686l-3.978,0.435c-1.113,0.121-1.924,1.13-1.801,2.242l1.104,10.114c0.001,0.007,0.004,0.014,0.005,0.022
		C13.96,27.236,14.837,28,15.851,28c0.073,0,10.335-1.115,10.335-1.115C27.3,26.763,28.108,25.754,27.988,24.642 M7.75,18.667
		c-0.827,0-1.5-0.671-1.5-1.5c0-0.829,0.673-1.5,1.5-1.5s1.5,0.671,1.5,1.5C9.25,17.996,8.577,18.667,7.75,18.667 M16.916,26.082
		c-0.827,0-1.5-0.671-1.5-1.5c0-0.829,0.673-1.5,1.5-1.5s1.5,0.671,1.5,1.5C18.416,25.411,17.743,26.082,16.916,26.082
		 M20.584,21.916c-0.827,0-1.5-0.671-1.5-1.5c0-0.829,0.673-1.5,1.5-1.5c0.827,0,1.5,0.671,1.5,1.5
		C22.084,21.245,21.411,21.916,20.584,21.916 M23.834,17.833c-0.827,0-1.5-0.671-1.5-1.5c0-0.829,0.673-1.5,1.5-1.5
		c0.827,0,1.5,0.671,1.5,1.5C25.334,17.162,24.661,17.833,23.834,17.833"/>
</g>
</svg>
