<?xml version="1.0" encoding="utf-8"?>
<?xml version="1.0" encoding="utf-8"?>
<svg version="1.1" id="Layer_1" xmlns="http://www.w3.org/2000/svg" xmlns:xlink="http://www.w3.org/1999/xlink" x="0px" y="0px"
	 viewBox="0 0 28 28" enable-background="new 0 0 28 28" xml:space="preserve">
<g>
	<defs>
		<rect id="SVGID_1_" width="28" height="28"/>
	</defs>
	<clipPath id="SVGID_2_">
		<use xlink:href="#SVGID_1_"  overflow="visible"/>
	</clipPath>
	<path clip-path="url(#SVGID_2_)" d="M23.5,0C21.016,0,19,2.91,19,6.5c0,2.319,0.844,4.35,2.109,5.5H22v14.5
		c0,0.829,0.672,1.5,1.5,1.5c0.829,0,1.5-0.671,1.5-1.5V12h0.891C27.156,10.85,28,8.819,28,6.5C28,2.91,25.986,0,23.5,0 M6.5,0
		C6.225,0,6,0.224,6,0.5V7H5V0.5C5,0.224,4.777,0,4.5,0C4.225,0,4,0.224,4,0.5V7H3V0.5C3,0.224,2.777,0,2.5,0C2.225,0,2,0.224,2,0.5
		V7H1V0.5C1,0.224,0.777,0,0.5,0C0.225,0,0,0.224,0,0.5V9c0,1.105,0.896,2,2,2v15.5C2,27.329,2.672,28,3.5,28
		C4.329,28,5,27.329,5,26.5V11c1.105,0,2-0.895,2-2V0.5C7,0.224,6.777,0,6.5,0 M14,0h-1c-1.104,0-2,0.895-2,2v15h2v9.5
		c0,0.829,0.672,1.5,1.5,1.5c0.829,0,1.5-0.671,1.5-1.5V2C16,0.895,15.105,0,14,0"/>
</g>
</svg>
