<?xml version="1.0" encoding="utf-8"?>
<?xml version="1.0" encoding="utf-8"?>
<svg version="1.1" id="Layer_1" xmlns="http://www.w3.org/2000/svg" xmlns:xlink="http://www.w3.org/1999/xlink" x="0px" y="0px"
	 viewBox="0 0 28 28" enable-background="new 0 0 28 28" xml:space="preserve">
<g>
	<defs>
		<rect id="SVGID_1_" width="28" height="28"/>
	</defs>
	<clipPath id="SVGID_2_">
		<use xlink:href="#SVGID_1_"  overflow="visible"/>
	</clipPath>
	<path clip-path="url(#SVGID_2_)" d="M12,10c6.627,0,12-2.239,12-5c0-2.762-5.373-5-12-5S0,2.238,0,5C0,7.761,5.373,10,12,10
		 M12,4.166c1.104,0,2,0.371,2,0.834c0,0.461-0.896,0.834-2,0.834S10,5.461,10,5C10,4.537,10.896,4.166,12,4.166 M12,17.201
		c5.51,0,10.14-1.549,11.55-3.658c-2.103,0.669-4.688,1.058-7.551,1.058c-7.2,0-12.664-2.437-12.97-5.714C1.15,9.77,0,10.927,0,12.2
		C0,14.961,5.373,17.201,12,17.201 M12,18.201c-5.347,0-9.73-1.347-11.767-3.379C0.082,15.138,0,15.464,0,15.799
		C0,18.561,5.373,20.8,12,20.8s12-2.239,12-5.001c0-0.335-0.082-0.661-0.232-0.977C21.732,16.854,17.348,18.201,12,18.201
		 M24.971,5.288C24.664,8.563,19.2,11,12,11c-2.863,0-5.449-0.389-7.551-1.059c1.408,2.11,6.04,3.66,11.55,3.66
		C22.627,13.601,28,11.362,28,8.6C28,7.328,26.85,6.17,24.971,5.288 M12,21.8c-5.347,0-9.73-1.346-11.767-3.379
		C0.082,18.738,0,19.064,0,19.399C0,22.161,5.373,24.4,12,24.4s12-2.239,12-5.001c0-0.335-0.082-0.661-0.232-0.978
		C21.732,20.454,17.348,21.8,12,21.8 M12,25.4c-5.347,0-9.73-1.347-11.767-3.379C0.082,22.337,0,22.664,0,22.999
		C0,25.76,5.373,28,12,28s12-2.24,12-5.001c0-0.335-0.082-0.662-0.232-0.978C21.732,24.053,17.348,25.4,12,25.4"/>
</g>
</svg>
