<?xml version="1.0" encoding="utf-8"?>
<svg version="1.1" id="Layer_1" xmlns="http://www.w3.org/2000/svg" xmlns:xlink="http://www.w3.org/1999/xlink" x="0px" y="0px" viewBox="0 0 28 28"
	 enable-background="new 0 0 28 28" xml:space="preserve">

		<g>
			<defs>
				<rect id="SVGID_1_" width="28" height="28"/>
			</defs>
			<clipPath id="SVGID_2_">
				<use xlink:href="#SVGID_1_"  overflow="visible"/>
			</clipPath>
			<path clip-path="url(#SVGID_2_)" fill="#231F20" d="M15,1c0-0.552-0.447-1-1-1c-0.553,0-1,0.448-1,1v1h2V1z"/>
			<path clip-path="url(#SVGID_2_)" fill="#231F20" d="M28,3H0v18h8.627L5.33,26.485c-0.283,0.473-0.131,1.087,0.343,1.372
				C5.834,27.954,6.012,28,6.188,28c0.338,0,0.669-0.173,0.857-0.485L10.959,21h6.27l3.914,6.515C21.33,27.827,21.662,28,22.001,28
				c0.175,0,0.353-0.046,0.515-0.143c0.472-0.285,0.626-0.899,0.341-1.372L19.561,21H28V3z M23,12l-1.73-1.73l-0.063-0.063
				L16,15.414l-4-4l-5.293,5.293l-1.414-1.414L12,8.586l4,4l3.803-3.802L19.75,8.73L18,7h5V12z"/>
		</g>

</svg>
