<?xml version="1.0" encoding="utf-8"?>
<svg version="1.1" id="Layer_1" xmlns="http://www.w3.org/2000/svg" xmlns:xlink="http://www.w3.org/1999/xlink" x="0px" y="0px" viewBox="0 0 28 28"
	 enable-background="new 0 0 28 28" xml:space="preserve">

		<g>
			<defs>
				<rect id="SVGID_1_" width="28" height="28"/>
			</defs>
			<clipPath id="SVGID_2_">
				<use xlink:href="#SVGID_1_"  overflow="visible"/>
			</clipPath>
			<path clip-path="url(#SVGID_2_)" fill="#231F20" d="M24.5,14c0-3.066-2.325-4.957-5.345-6.451
				c-1.228,0.586-2.52,1.107-3.791,1.602c1.77,0.718,3.423,1.476,4.568,2.349H8.066c1.551-1.184,4.038-2.153,6.478-3.102
				C19.439,6.494,24.5,4.526,24.5,0h-3c0,0.171-0.023,0.337-0.061,0.5H6.565C6.527,0.337,6.5,0.171,6.5,0h-3
				c0,3.066,2.326,4.957,5.346,6.451c1.227-0.585,2.52-1.107,3.791-1.602c-1.061-0.43-2.078-0.874-2.971-1.349h8.673
				c-1.422,0.756-3.165,1.434-4.883,2.102C8.562,7.506,3.5,9.474,3.5,14c0,3.065,2.323,4.955,5.341,6.448
				c1.228-0.584,2.524-1.104,3.795-1.6c-1.77-0.717-3.423-1.474-4.567-2.348h11.865c-1.55,1.184-4.038,2.153-6.478,3.102
				C8.562,21.506,3.5,23.474,3.5,28h3c0-0.171,0.024-0.337,0.062-0.5h14.874c0.038,0.163,0.064,0.329,0.064,0.5h3
				c0-3.065-2.323-4.955-5.341-6.448c-1.227,0.585-2.524,1.104-3.794,1.6c1.06,0.429,2.077,0.874,2.97,1.348H9.662
				c1.422-0.756,3.164-1.434,4.882-2.102C19.439,20.494,24.5,18.526,24.5,14 M8.069,2.5c-0.415-0.317-0.764-0.649-1.025-1h13.907
				c-0.261,0.351-0.602,0.684-1.017,1H8.069z M7.05,12.5h13.907c0.236,0.317,0.398,0.65,0.479,1H6.562
				C6.643,13.149,6.814,12.817,7.05,12.5 M6.565,14.5h14.874c-0.081,0.351-0.252,0.683-0.488,1H7.044
				C6.808,15.183,6.646,14.851,6.565,14.5 M19.932,25.5c0.415,0.317,0.764,0.649,1.025,1H7.05c0.261-0.351,0.602-0.684,1.016-1
				H19.932z"/>
		</g>

</svg>
