<?xml version="1.0" encoding="utf-8"?>
<svg version="1.1" id="Layer_1" xmlns="http://www.w3.org/2000/svg" xmlns:xlink="http://www.w3.org/1999/xlink" x="0px" y="0px" viewBox="0 0 28 28"
	 enable-background="new 0 0 28 28" xml:space="preserve">

	<g>
		<path fill="#231F20" d="M3.001,23H8v1H3.001V23z M3.001,17h10v1h-10V17z M3.001,14h10v1h-10V14z M3.001,11h10v1h-10V11z M3.001,8
			h13v1h-13V8z M3.001,5h16v1h-16V5z M0,0v28h18v-6.537l-0.535-0.927l-1.162-0.671l-0.5-0.289v-0.577V17.66l-0.669-1.161L14.846,16
			l0.288-0.499l0.669-1.161V13v-0.577l0.5-0.289l1.161-0.671l0.67-1.159l0.289-0.5h0.578h1.34l1.159-0.67l0.501-0.288V0H0z"/>
		<polygon fill="#231F20" points="20.609,10.804 19.001,10.804 18.197,12.195 16.803,13 16.803,14.607 16,16.001 16.803,17.393 
			16.803,18.999 18.197,19.804 19.001,21.195 20.609,21.195 22,22 23.393,21.195 25.002,21.195 25.805,19.804 27.198,18.999 
			27.198,17.393 28,16.002 28,15.999 27.198,14.607 27.198,13 25.805,12.195 25.002,10.804 23.393,10.804 22,10 		"/>
		<polygon fill="#231F20" points="23.662,22.194 22.502,22.865 22.001,23.155 21.499,22.865 20.34,22.194 19.001,22.194 19.001,28 
			22.001,26 25,28 25,22.194 		"/>
	</g>

</svg>
