<?xml version="1.0" encoding="utf-8"?>
<?xml version="1.0" encoding="utf-8"?>
<svg version="1.1" id="Layer_1" xmlns="http://www.w3.org/2000/svg" xmlns:xlink="http://www.w3.org/1999/xlink" x="0px" y="0px"
	 viewBox="0 0 28 28" enable-background="new 0 0 28 28" xml:space="preserve">
<g>
	<defs>
		<rect id="SVGID_1_" width="28" height="28"/>
	</defs>
	<clipPath id="SVGID_2_">
		<use xlink:href="#SVGID_1_"  overflow="visible"/>
	</clipPath>
	<path clip-path="url(#SVGID_2_)" d="M28,28h-5l-2.965-7.889l-4.394,2.028c-0.598-1.948-2.453-3.133-4.641-3.138v0.614
		C11,19.609,10.877,20,10.963,20h0.024c2.056,0,3.82,1.416,3.83,3.42c0.003,0.328,0.029,0.435-0.053,0.738L18,24.186V28H6.977
		l-3.196-6.361C1.613,21.049,0.012,19.117,0,16.822c-0.002-0.259,0.024-0.523,0.061-0.771c0.095-0.434,0.302-0.971,0.67,0.07
		l0.007-0.051c0.598,1.475,1.877,2.526,3.473,2.934L14.264,10h7.73L28,28z M27.258,8l0.6-3.604C27.725,3.027,26.592,2,25.172,2
		h-8.324L14,0l0.955,8H27.258z"/>
</g>
</svg>
