<?xml version="1.0" encoding="utf-8"?>
<?xml version="1.0" encoding="utf-8"?>
<svg version="1.1" id="Layer_1" xmlns="http://www.w3.org/2000/svg" xmlns:xlink="http://www.w3.org/1999/xlink" x="0px" y="0px"
	 viewBox="0 0 28 28" enable-background="new 0 0 28 28" xml:space="preserve">
<g>
	<defs>
		<rect id="SVGID_1_" width="28" height="28"/>
	</defs>
	<clipPath id="SVGID_2_">
		<use xlink:href="#SVGID_1_"  overflow="visible"/>
	</clipPath>
	<path clip-path="url(#SVGID_2_)" d="M23.673,0.353c-2.47-1.215-5.134,0.998-6.504,2.337c-0.953-0.494-2.025-0.78-3.163-0.78
		c-1.139,0-2.211,0.286-3.164,0.78c-1.37-1.339-4.034-3.552-6.505-2.337C0.721,2.13-0.192,10.878,0.039,13.223
		c0,1.557,1.218,2.817,2.722,2.817s2.723-1.26,2.723-2.817c0-0.195-0.019-0.386-0.057-0.57C5.072,8.999,4.632,3.772,5.672,3.26
		c0.271-0.132,1.16,0.061,2.738,1.502C7.486,5.999,6.929,7.547,6.929,9.233v4.457c-1.369,1.518-2.208,3.47-2.208,5.615
		c0,4.652,3.88,8.441,8.767,8.697V18.16c-1.567-0.146-2.767-0.939-2.767-1.896c0-1.062,1.471-1.924,3.285-1.924
		c1.813,0,3.284,0.862,3.284,1.924c0,0.957-1.199,1.75-2.765,1.896v9.841c4.885-0.256,8.765-4.045,8.765-8.697
		c0-2.145-0.839-4.097-2.208-5.615V9.233c0-1.686-0.557-3.234-1.481-4.471c1.578-1.441,2.467-1.634,2.737-1.502
		c1.04,0.512,0.601,5.739,0.246,9.393c-0.037,0.184-0.057,0.375-0.057,0.57c0,1.557,1.219,2.817,2.723,2.817
		c1.503,0,2.722-1.26,2.722-2.817C28.203,10.878,27.289,2.13,23.673,0.353 M8.293,22.659c-0.214,0.22-0.586,0.221-0.799,0
		c-0.22-0.228-0.22-0.598,0-0.825c0.107-0.112,0.248-0.172,0.4-0.172c0.15,0,0.291,0.06,0.399,0.172
		C8.511,22.061,8.511,22.431,8.293,22.659 M8.398,18.992c-0.213,0.22-0.584,0.22-0.799,0c-0.22-0.228-0.22-0.599,0-0.825
		c0.108-0.111,0.248-0.171,0.4-0.171c0.151,0,0.292,0.06,0.399,0.171C8.617,18.393,8.617,18.764,8.398,18.992 M10.117,20.771
		c-0.215,0.22-0.584,0.22-0.799,0c-0.22-0.228-0.22-0.6,0-0.828c0.107-0.109,0.248-0.17,0.399-0.17s0.292,0.061,0.4,0.17
		c0.105,0.11,0.166,0.258,0.166,0.415C10.283,20.514,10.222,20.662,10.117,20.771 M11.607,11.525c-0.966,0-1.749-0.811-1.749-1.812
		c0-1,0.783-1.811,1.749-1.811c0.967,0,1.75,0.811,1.75,1.811C13.357,10.714,12.574,11.525,11.607,11.525 M20.721,22.659
		c-0.213,0.221-0.585,0.22-0.798,0c-0.219-0.228-0.219-0.598,0-0.825c0.106-0.112,0.248-0.172,0.399-0.172
		c0.151,0,0.293,0.06,0.399,0.172C20.941,22.061,20.941,22.431,20.721,22.659 M19.817,18.167c0.107-0.112,0.249-0.172,0.399-0.172
		c0.151,0,0.292,0.06,0.4,0.172c0.22,0.226,0.22,0.596,0,0.825c-0.214,0.219-0.585,0.219-0.799,0
		C19.597,18.764,19.597,18.394,19.817,18.167 M16.404,11.525c-0.967,0-1.75-0.811-1.75-1.812c0-1,0.783-1.811,1.75-1.811
		c0.966,0,1.75,0.811,1.75,1.811C18.154,10.714,17.37,11.525,16.404,11.525 M18.897,20.771c-0.214,0.218-0.585,0.22-0.799,0
		c-0.106-0.11-0.165-0.258-0.165-0.413c0-0.157,0.059-0.305,0.165-0.415c0.108-0.109,0.249-0.17,0.4-0.17
		c0.15,0,0.291,0.061,0.399,0.17C19.117,20.172,19.117,20.544,18.897,20.771"/>
</g>
</svg>
