<?xml version="1.0" encoding="utf-8"?>
<svg version="1.1" id="Layer_1" xmlns="http://www.w3.org/2000/svg" xmlns:xlink="http://www.w3.org/1999/xlink" x="0px" y="0px" viewBox="0 0 28 28"
	 enable-background="new 0 0 28 28" xml:space="preserve">

		<g>
			<defs>
				<rect id="SVGID_1_" width="28" height="28"/>
			</defs>
			<clipPath id="SVGID_2_">
				<use xlink:href="#SVGID_1_"  overflow="visible"/>
			</clipPath>
			<path clip-path="url(#SVGID_2_)" fill="#231F20" d="M14,25V10c0-1.824-2.609-2.813-6-2.974V6.769c0-0.005,0-0.01,0-0.015V6.716
				H7.994C7.99,6.342,7.789,5.983,7.429,5.81c-0.5-0.241-1.1-0.02-1.33,0.48V6.279c-0.068,0.142-0.091,0.29-0.091,0.437H6v0.31
				C2.609,7.187,0,8.176,0,10v15c0,2,3.134,3,7,3S14,27,14,25 M12,24.939C11.707,25.296,10.142,26,7,26
				c-3.143,0-4.707-0.704-5-1.061V10.061C2.293,9.704,3.857,9,7,9c3.142,0,4.707,0.704,5,1.061V24.939z"/>
			<path clip-path="url(#SVGID_2_)" fill="#231F20" d="M17.34,24.328c2.087-0.671,3.18-1.394,3.624-1.796l-4.22-13.136
				c-0.347-0.04-0.945-0.036-1.789,0.104C14.983,9.662,15,9.828,15,10v14.897C15.629,24.801,16.402,24.629,17.34,24.328"/>
			<path clip-path="url(#SVGID_2_)" fill="#231F20" d="M19.416,7.906c-0.567-1.765-3.434-1.886-6.781-0.954
				c0.912,0.412,1.575,0.949,1.962,1.597c1.664-0.3,2.652-0.155,2.934,0.027l4.551,14.165c-0.17,0.429-1.444,1.578-4.436,2.539
				c-1.113,0.358-2.046,0.555-2.801,0.65c-0.283,0.823-0.952,1.502-1.966,2.009c1.411,0.195,3.334-0.097,5.379-0.755
				c3.68-1.182,6.358-3.093,5.746-4.997L19.416,7.906z"/>
			<path clip-path="url(#SVGID_2_)" fill="#231F20" d="M3,10.601v13.798C3.546,24.645,4.808,25,7,25s3.454-0.355,4-0.601V10.601
				C10.454,10.354,9.192,10,7,10S3.546,10.354,3,10.601 M7.99,12.41c0.08,0.54-0.29,1.06-0.83,1.14C7.1,13.559,7.05,13.559,7,13.559
				c-0.48,0-0.91-0.349-0.99-0.839c-0.08-0.55,0.29-1.06,0.84-1.14C7.39,11.49,7.9,11.859,7.99,12.41"/>
			<path clip-path="url(#SVGID_2_)" fill="#231F20" d="M19.2,2.62c0.1,0.029,0.2,0.04,0.29,0.04c0.43,0,0.83-0.28,0.96-0.71
				c0.16-0.53-0.14-1.091-0.67-1.25c-0.53-0.16-1.08,0.14-1.24,0.67C18.37,1.899,18.67,2.46,19.2,2.62"/>
			<path clip-path="url(#SVGID_2_)" fill="#231F20" d="M16.49,2.001h0.06c0.52,0,0.96-0.41,0.99-0.939
				c0.03-0.551-0.39-1.031-0.94-1.061c-0.55-0.03-1.02,0.39-1.05,0.94C15.51,1.492,15.94,1.962,16.49,2.001"/>
			<path clip-path="url(#SVGID_2_)" fill="#231F20" d="M21.71,3.729c0.16,0.101,0.34,0.141,0.52,0.141c0.33,0,0.66-0.17,0.85-0.481
				c0.29-0.47,0.14-1.09-0.34-1.37c-0.47-0.29-1.08-0.14-1.37,0.33C21.08,2.819,21.23,3.44,21.71,3.729"/>
			<path clip-path="url(#SVGID_2_)" fill="#231F20" d="M25.29,7.66c0.17,0.369,0.53,0.58,0.91,0.58c0.14,0,0.28-0.02,0.42-0.08
				c0.5-0.23,0.72-0.83,0.49-1.33c-0.23-0.5-0.82-0.721-1.32-0.49C25.29,6.559,25.06,7.16,25.29,7.66"/>
			<path clip-path="url(#SVGID_2_)" fill="#231F20" d="M13.56,2.31c0.05,0,0.11-0.01,0.16-0.02c0.55-0.089,0.91-0.61,0.82-1.15
				c-0.09-0.55-0.61-0.91-1.151-0.82c-0.54,0.091-0.909,0.61-0.819,1.15C12.65,1.96,13.08,2.31,13.56,2.31"/>
			<path clip-path="url(#SVGID_2_)" fill="#231F20" d="M24.55,5.76c0.24,0,0.48-0.09,0.67-0.26c0.41-0.38,0.43-1.01,0.06-1.42
				c-0.37-0.4-1.01-0.43-1.41-0.05c-0.41,0.37-0.43,1-0.06,1.41C24.01,5.65,24.28,5.76,24.55,5.76"/>
			<path clip-path="url(#SVGID_2_)" fill="#231F20" d="M10.68,3.14c0.13,0,0.26-0.03,0.39-0.08c0.51-0.22,0.75-0.8,0.53-1.31
				C11.39,1.241,10.8,1,10.29,1.21c-0.51,0.22-0.75,0.8-0.53,1.31C9.92,2.911,10.29,3.14,10.68,3.14"/>
			<path clip-path="url(#SVGID_2_)" fill="#231F20" d="M27.427,9.1c-0.5-0.24-1.1-0.02-1.33,0.48V9.57
				c-0.24,0.5-0.02,1.1,0.48,1.341c0.13,0.059,0.28,0.089,0.42,0.089c0.38,0,0.74-0.21,0.91-0.57
				C28.137,9.92,27.927,9.33,27.427,9.1"/>
			<path clip-path="url(#SVGID_2_)" fill="#231F20" d="M8.255,5c0.21,0,0.42-0.061,0.6-0.2c0.44-0.33,0.53-0.96,0.19-1.401
				c-0.33-0.439-0.96-0.529-1.4-0.2c-0.44,0.341-0.53,0.96-0.19,1.41C7.645,4.87,7.945,5,8.255,5"/>
			<path clip-path="url(#SVGID_2_)" fill="#231F20" d="M26.62,11.84c-0.14-0.06-0.28-0.08-0.42-0.08c-0.38,0-0.74,0.211-0.91,0.58
				c-0.229,0.5,0,1.101,0.5,1.32c0.5,0.231,1.09,0.01,1.32-0.49C27.34,12.67,27.12,12.07,26.62,11.84"/>
			<path clip-path="url(#SVGID_2_)" fill="#231F20" d="M24.55,14.24c-0.27,0-0.54,0.11-0.74,0.32c-0.37,0.41-0.35,1.04,0.06,1.41
				c0.4,0.38,1.04,0.35,1.41-0.05c0.37-0.41,0.35-1.04-0.06-1.42C25.03,14.33,24.79,14.24,24.55,14.24"/>
		</g>

</svg>
