<?xml version="1.0" encoding="utf-8"?>
<svg version="1.1" id="Layer_1" xmlns="http://www.w3.org/2000/svg" xmlns:xlink="http://www.w3.org/1999/xlink" x="0px" y="0px" viewBox="0 0 28 28"
	 enable-background="new 0 0 28 28" xml:space="preserve">
		<g>
			<defs>
				<rect id="SVGID_1_" width="28" height="28"/>
			</defs>
			<clipPath id="SVGID_2_">
				<use xlink:href="#SVGID_1_"  overflow="visible"/>
			</clipPath>
			<path clip-path="url(#SVGID_2_)" fill="#231F20" d="M21.302,7.315c-3.687,0-6.685,2.999-6.685,6.685
				c0,0.832,0.151,1.641,0.449,2.41c1.065-1.352,2.548-2.328,4.203-2.768c0.174-0.984,1.033-1.715,2.033-1.715
				s1.859,0.731,2.032,1.715c1.656,0.44,3.139,1.416,4.204,2.768c0.298-0.769,0.449-1.578,0.449-2.41
				C27.987,10.314,24.989,7.315,21.302,7.315"/>
			<path clip-path="url(#SVGID_2_)" fill="#231F20" d="M21.302,14.631c-3.686,0-6.684,2.997-6.684,6.684
				c0,3.686,2.998,6.685,6.684,6.685c3.687,0,6.685-2.999,6.685-6.685C27.987,17.628,24.989,14.631,21.302,14.631 M22.563,15.891
				c0.348,0,0.631,0.283,0.631,0.631c0,0.347-0.283,0.631-0.631,0.631s-0.63-0.284-0.63-0.631
				C21.933,16.174,22.215,15.891,22.563,15.891 M20.545,16.901c0.348,0,0.631,0.281,0.631,0.63c0,0.347-0.283,0.631-0.631,0.631
				c-0.347,0-0.63-0.284-0.63-0.631C19.915,17.182,20.198,16.901,20.545,16.901 M16.509,23.207c-0.348,0-0.631-0.283-0.631-0.631
				c0-0.349,0.283-0.63,0.631-0.63s0.631,0.281,0.631,0.63C17.14,22.924,16.857,23.207,16.509,23.207 M17.518,25.225
				c-0.348,0-0.63-0.284-0.63-0.631c0-0.348,0.282-0.63,0.63-0.63c0.348,0,0.631,0.282,0.631,0.63
				C18.149,24.941,17.866,25.225,17.518,25.225 M17.518,19.171c-0.348,0-0.63-0.284-0.63-0.63c0-0.35,0.282-0.631,0.63-0.631
				c0.348,0,0.631,0.281,0.631,0.631C18.149,18.887,17.866,19.171,17.518,19.171 M19.537,25.225c-0.348,0-0.631-0.284-0.631-0.631
				c0-0.348,0.283-0.63,0.631-0.63c0.347,0,0.63,0.282,0.63,0.63C20.167,24.941,19.884,25.225,19.537,25.225 M22.563,27.243
				c-0.348,0-0.63-0.284-0.63-0.631c0-0.348,0.282-0.63,0.63-0.63s0.631,0.282,0.631,0.63
				C23.194,26.959,22.911,27.243,22.563,27.243 M21.302,23.387c-1.143,0-2.072-0.929-2.072-2.072c0-1.143,0.929-2.073,2.072-2.073
				s2.072,0.93,2.072,2.073C23.374,22.458,22.445,23.387,21.302,23.387 M24.581,24.216c-0.347,0-0.63-0.284-0.63-0.63
				c0-0.35,0.283-0.631,0.63-0.631c0.348,0,0.631,0.281,0.631,0.631C25.212,23.932,24.929,24.216,24.581,24.216 M24.581,19.171
				c-0.347,0-0.63-0.284-0.63-0.63c0-0.35,0.283-0.631,0.63-0.631c0.348,0,0.631,0.281,0.631,0.631
				C25.212,18.887,24.929,19.171,24.581,19.171 M26.599,22.198c-0.348,0-0.63-0.284-0.63-0.631c0-0.348,0.282-0.631,0.63-0.631
				c0.348,0,0.631,0.283,0.631,0.631C27.23,21.914,26.947,22.198,26.599,22.198"/>
			<path clip-path="url(#SVGID_2_)" fill="#231F20" d="M15.065,9.096c1.066-1.352,2.548-2.329,4.203-2.769
				c0.174-0.983,1.033-1.714,2.033-1.714s1.86,0.731,2.033,1.714c1.656,0.44,3.138,1.417,4.204,2.769
				c0.298-0.769,0.448-1.578,0.448-2.411C27.986,2.998,24.988,0,21.301,0c-3.686,0-6.684,2.998-6.684,6.685
				C14.617,7.518,14.767,8.327,15.065,9.096"/>
			<path clip-path="url(#SVGID_2_)" fill="#231F20" d="M6.679,0C2.992,0-0.006,2.998-0.006,6.685c0,0.833,0.151,1.642,0.449,2.411
				C1.508,7.744,2.99,6.767,4.647,6.327C4.82,5.344,5.679,4.612,6.679,4.612c1.001,0,1.859,0.732,2.033,1.715
				c1.655,0.44,3.138,1.417,4.203,2.769c0.298-0.769,0.449-1.578,0.449-2.411C13.364,2.998,10.365,0,6.679,0"/>
			<path clip-path="url(#SVGID_2_)" fill="#231F20" d="M6.679,7.315c-3.687,0-6.685,2.999-6.685,6.685
				c0,0.832,0.151,1.639,0.447,2.404c1.067-1.352,2.551-2.326,4.208-2.764c0.173-0.982,1.031-1.713,2.03-1.713
				c1.001,0,1.86,0.733,2.033,1.717c1.655,0.442,3.136,1.42,4.2,2.772c0.3-0.771,0.452-1.582,0.452-2.416
				C13.364,10.314,10.365,7.315,6.679,7.315"/>
			<path clip-path="url(#SVGID_2_)" fill="#231F20" d="M6.671,14.631c-3.687,0-6.685,2.997-6.685,6.685
				c0,3.685,2.998,6.684,6.685,6.684c3.686,0,6.684-2.999,6.684-6.684C13.355,17.628,10.357,14.631,6.671,14.631 M7.428,16.901
				c0.347,0,0.631,0.282,0.631,0.63c0,0.347-0.284,0.631-0.631,0.631c-0.348,0-0.631-0.284-0.631-0.631
				C6.797,17.183,7.08,16.901,7.428,16.901 M1.373,22.198c-0.348,0-0.63-0.284-0.63-0.631c0-0.348,0.282-0.63,0.63-0.63
				c0.349,0,0.631,0.282,0.631,0.63C2.004,21.914,1.722,22.198,1.373,22.198 M3.391,25.226c-0.347,0-0.629-0.284-0.629-0.631
				c0-0.349,0.282-0.631,0.629-0.631c0.349,0,0.631,0.282,0.631,0.631C4.022,24.942,3.74,25.226,3.391,25.226 M3.391,20.181
				c-0.347,0-0.629-0.284-0.629-0.631c0-0.349,0.282-0.631,0.629-0.631c0.349,0,0.631,0.282,0.631,0.631
				C4.022,19.897,3.74,20.181,3.391,20.181 M3.769,16.523c0-0.349,0.284-0.631,0.631-0.631c0.348,0,0.631,0.282,0.631,0.631
				c0,0.346-0.283,0.63-0.631,0.63C4.053,17.153,3.769,16.869,3.769,16.523 M5.41,27.243c-0.348,0-0.631-0.284-0.631-0.631
				c0-0.348,0.283-0.629,0.631-0.629s0.631,0.281,0.631,0.629C6.041,26.959,5.758,27.243,5.41,27.243 M7.428,25.226
				c-0.348,0-0.631-0.284-0.631-0.631c0-0.349,0.283-0.631,0.631-0.631c0.347,0,0.631,0.282,0.631,0.631
				C8.059,24.942,7.775,25.226,7.428,25.226 M6.671,23.387c-1.144,0-2.073-0.929-2.073-2.071c0-1.144,0.929-2.074,2.073-2.074
				c1.143,0,2.072,0.93,2.072,2.074C8.743,22.458,7.814,23.387,6.671,23.387 M10.455,25.226c-0.348,0-0.631-0.284-0.631-0.631
				c0-0.349,0.283-0.631,0.631-0.631c0.348,0,0.631,0.282,0.631,0.631C11.086,24.942,10.803,25.226,10.455,25.226 M10.455,22.198
				c-0.348,0-0.631-0.284-0.631-0.631c0-0.348,0.283-0.63,0.631-0.63c0.348,0,0.631,0.282,0.631,0.63
				C11.086,21.914,10.803,22.198,10.455,22.198 M10.455,19.171c-0.348,0-0.631-0.283-0.631-0.63c0-0.349,0.283-0.631,0.631-0.631
				c0.348,0,0.631,0.282,0.631,0.631C11.086,18.888,10.803,19.171,10.455,19.171"/>
		</g>
</svg>
