<?xml version="1.0" encoding="utf-8"?>
<svg version="1.1" id="Layer_1" xmlns="http://www.w3.org/2000/svg" xmlns:xlink="http://www.w3.org/1999/xlink" x="0px" y="0px" viewBox="0 0 28 28"
	 enable-background="new 0 0 28 28" xml:space="preserve">

		<g>
			<defs>
				<rect id="SVGID_1_" width="28" height="28"/>
			</defs>
			<clipPath id="SVGID_2_">
				<use xlink:href="#SVGID_1_"  overflow="visible"/>
			</clipPath>
			<path clip-path="url(#SVGID_2_)" fill="#231F20" d="M14,0C6.268,0,0,6.268,0,14c0,7.731,6.268,14,14,14s14-6.269,14-14
				C28,6.268,21.732,0,14,0 M25.899,17.709c-0.395,1.159-1.892,1.788-2.625,2.754c-0.74,0.975-0.908,2.532-1.924,3.242
				c-1.007,0.703-2.6,0.38-3.807,0.758C16.375,24.827,15.292,26,14,26c-1.293,0-2.376-1.173-3.543-1.537
				c-1.209-0.378-2.801-0.055-3.809-0.758c-1.016-0.71-1.182-2.267-1.922-3.242c-0.734-0.966-2.231-1.596-2.625-2.754
				c-0.38-1.121,0.432-2.47,0.432-3.709c0-1.24-0.812-2.589-0.432-3.709c0.394-1.158,1.892-1.787,2.625-2.754
				c0.74-0.974,0.907-2.532,1.924-3.242c1.006-0.703,2.598-0.381,3.807-0.758C11.624,3.173,12.707,2,14,2
				c1.292,0,2.376,1.173,3.543,1.537c1.209,0.378,2.8,0.055,3.807,0.758c1.016,0.71,1.184,2.268,1.924,3.242
				c0.733,0.967,2.23,1.596,2.625,2.754c0.379,1.12-0.432,2.469-0.432,3.709C25.467,15.239,26.278,16.589,25.899,17.709"/>
			<path clip-path="url(#SVGID_2_)" fill="#231F20" d="M14,9c-2.756,0-5,2.242-5,5s2.244,5,5,5c2.758,0,5-2.242,5-5S16.758,9,14,9
				 M14,17c-1.654,0-3-1.346-3-3s1.346-3,3-3s3,1.346,3,3S15.654,17,14,17"/>
			<path clip-path="url(#SVGID_2_)" fill="#231F20" d="M11,8c0.256,0,0.512-0.098,0.707-0.293l1.5-1.5
				c0.391-0.391,0.391-1.023,0-1.414c-0.391-0.391-1.023-0.391-1.414,0l-1.5,1.5c-0.391,0.391-0.391,1.023,0,1.414
				C10.488,7.902,10.744,8,11,8"/>
			<path clip-path="url(#SVGID_2_)" fill="#231F20" d="M20.342,12.627l1.867,1.006c0.152,0.082,0.314,0.12,0.474,0.12
				c0.356,0,0.701-0.19,0.882-0.526c0.261-0.486,0.08-1.092-0.407-1.354l-1.867-1.006c-0.488-0.261-1.094-0.08-1.355,0.406
				C19.674,11.759,19.856,12.365,20.342,12.627"/>
			<path clip-path="url(#SVGID_2_)" fill="#231F20" d="M9.793,19.793l-1.5,1.5c-0.391,0.391-0.391,1.023,0,1.414
				C8.488,22.902,8.744,23,9,23c0.256,0,0.512-0.098,0.707-0.293l1.5-1.5c0.391-0.391,0.391-1.023,0-1.414
				C10.816,19.402,10.184,19.402,9.793,19.793"/>
			<path clip-path="url(#SVGID_2_)" fill="#231F20" d="M16.753,20.508l-2.056,0.523c-0.535,0.136-0.859,0.68-0.722,1.216
				C14.09,22.699,14.496,23,14.944,23c0.08,0,0.164-0.01,0.247-0.031l2.056-0.524c0.535-0.135,0.859-0.679,0.722-1.215
				C17.832,20.695,17.285,20.367,16.753,20.508"/>
			<path clip-path="url(#SVGID_2_)" fill="#231F20" d="M22.728,16.459l-2.042,0.579c-0.531,0.151-0.84,0.703-0.689,1.235
				c0.125,0.44,0.525,0.727,0.96,0.727c0.091,0,0.183-0.012,0.274-0.038l2.042-0.579c0.531-0.151,0.84-0.703,0.689-1.235
				C23.81,16.616,23.254,16.308,22.728,16.459"/>
			<path clip-path="url(#SVGID_2_)" fill="#231F20" d="M20.025,6.754c-0.137-0.537-0.684-0.859-1.216-0.723l-2.057,0.524
				c-0.535,0.135-0.858,0.679-0.721,1.215c0.115,0.453,0.521,0.754,0.968,0.754c0.082,0,0.165-0.01,0.248-0.032l2.056-0.523
				C19.838,7.833,20.162,7.289,20.025,6.754"/>
			<path clip-path="url(#SVGID_2_)" fill="#231F20" d="M4.957,12c0.091,0,0.183-0.012,0.273-0.038l2.043-0.579
				c0.532-0.151,0.84-0.703,0.689-1.235c-0.15-0.531-0.703-0.837-1.235-0.689l-2.041,0.579c-0.532,0.151-0.84,0.704-0.69,1.235
				C4.121,11.713,4.521,12,4.957,12"/>
			<path clip-path="url(#SVGID_2_)" fill="#231F20" d="M7.475,16.119l-1.867-1.006c-0.487-0.262-1.094-0.079-1.356,0.406
				c-0.261,0.487-0.08,1.093,0.407,1.356l1.867,1.006C6.677,17.962,6.839,18,6.999,18c0.357,0,0.701-0.19,0.882-0.526
				C8.143,16.988,7.961,16.382,7.475,16.119"/>
		</g>

</svg>
