<?xml version="1.0" encoding="utf-8"?>
<?xml version="1.0" encoding="utf-8"?>
<svg version="1.1" id="Layer_1" xmlns="http://www.w3.org/2000/svg" xmlns:xlink="http://www.w3.org/1999/xlink" x="0px" y="0px"
	 viewBox="0 0 28 28" enable-background="new 0 0 28 28" xml:space="preserve">
<g>
	<defs>
		<rect id="SVGID_1_" width="28" height="28"/>
	</defs>
	<clipPath id="SVGID_2_">
		<use xlink:href="#SVGID_1_"  overflow="visible"/>
	</clipPath>
	<path clip-path="url(#SVGID_2_)" d="M18,25h10V3H18V25z M0,24.98L17,28V0.001L0,2.718V24.98z M13.793,19.56
		c-0.438,0.586-1.147,0.586-1.584,0c-0.438-0.586-0.438-1.536,0-2.12c0.437-0.587,1.146-0.587,1.584,0
		C14.23,18.025,14.23,18.974,13.793,19.56 M9,3.932l5-0.89v4.859L9,8.443V3.932z M9,9.449l5-0.542V14H9V9.449z M3,5l5-0.89v4.441
		L3,9.093V5z M3,10.099l5-0.542V14H3V10.099z"/>
</g>
</svg>
