<?xml version="1.0" encoding="utf-8"?>
<svg version="1.1" id="Layer_1" xmlns="http://www.w3.org/2000/svg" xmlns:xlink="http://www.w3.org/1999/xlink" x="0px" y="0px" viewBox="0 0 28 28"
	 enable-background="new 0 0 28 28" xml:space="preserve">

	<g>
		<rect y="0.001" fill="#231F20" width="28" height="3"/>
		<g>
			<defs>
				<rect id="SVGID_1_" width="28" height="28"/>
			</defs>
			<clipPath id="SVGID_2_">
				<use xlink:href="#SVGID_1_"  overflow="visible"/>
			</clipPath>
			<path clip-path="url(#SVGID_2_)" fill="#231F20" d="M1,28.001h4c0-1.105,0.895-2,2-2h14c1.105,0,2,0.895,2,2h4v-24H1V28.001z
				 M3,7.001h22v15H3V7.001z"/>
			<path clip-path="url(#SVGID_2_)" fill="#231F20" d="M24,8.001H4v6h20V8.001z M8,12.001c-0.552,0-1-0.448-1-1s0.448-1,1-1
				s1,0.448,1,1S8.552,12.001,8,12.001 M20,12.001c-0.552,0-1-0.448-1-1s0.448-1,1-1c0.552,0,1,0.448,1,1S20.552,12.001,20,12.001"
				/>
			<path clip-path="url(#SVGID_2_)" fill="#231F20" d="M24,15.001H4v6h20V15.001z M8,19.001c-0.552,0-1-0.448-1-1
				c0-0.552,0.448-1,1-1s1,0.448,1,1C9,18.553,8.552,19.001,8,19.001 M20,19.001c-0.552,0-1-0.448-1-1c0-0.552,0.448-1,1-1
				c0.552,0,1,0.448,1,1C21,18.553,20.552,19.001,20,19.001"/>
		</g>
	</g>

</svg>
