<?xml version="1.0" encoding="utf-8"?>
<svg version="1.1" id="Layer_1" xmlns="http://www.w3.org/2000/svg" xmlns:xlink="http://www.w3.org/1999/xlink" x="0px" y="0px" viewBox="0 0 28 28"
	 enable-background="new 0 0 28 28" xml:space="preserve">

	<g>
		<polygon fill="#231F20" points="8,0.001 7,3.001 10,6.001 12,3.001 9.333,1.001 18.667,1.001 16,3.001 18,6.001 21,3.001
			20,0.001 		"/>
		<g>
			<defs>
				<rect id="SVGID_1_" width="28" height="28"/>
			</defs>
			<clipPath id="SVGID_2_">
				<use xlink:href="#SVGID_1_"  overflow="visible"/>
			</clipPath>
			<path clip-path="url(#SVGID_2_)" fill="#231F20" d="M10.156,7.571L6.139,3.554C2.267,5.107,0,8.921,0,15.001v13h5v-14h1v14h7.5
				v-20.5l-1.099-3.298L10.156,7.571z"/>
			<path clip-path="url(#SVGID_2_)" fill="#231F20" d="M21.862,3.553L17.845,7.57L15.6,4.202L14.5,7.5V28H22V14h1v14h5V15
				C28,8.92,25.734,5.107,21.862,3.553"/>
		</g>
	</g>

</svg>
