<?xml version="1.0" encoding="utf-8"?>
<svg version="1.1" id="Layer_1" xmlns="http://www.w3.org/2000/svg" xmlns:xlink="http://www.w3.org/1999/xlink" x="0px" y="0px" viewBox="0 0 28 28"
	 enable-background="new 0 0 28 28" xml:space="preserve">

		<g>
			<defs>
				<rect id="SVGID_1_" width="28" height="28"/>
			</defs>
			<clipPath id="SVGID_2_">
				<use xlink:href="#SVGID_1_"  overflow="visible"/>
			</clipPath>
			<path clip-path="url(#SVGID_2_)" fill="#231F20" d="M12,12v-1.384c0-0.516,0.354-0.757,0.787-0.531l2.713,1.474l2.713-1.474
				C18.646,9.859,19,10.1,19,10.616V12h2l1-12h-3l-0.417,5H9.417L9,0H6l1,12H12z"/>
			<path clip-path="url(#SVGID_2_)" fill="#231F20" d="M21,13h-2v1.384c0,0.518-0.354,0.758-0.787,0.532L15.5,13.442l-2.713,1.474
				C12.354,15.142,12,14.902,12,14.384V13H7L0,28h28L21,13z"/>
		</g>

</svg>
