<?xml version="1.0" encoding="utf-8"?>
<svg version="1.1" id="Layer_1" xmlns="http://www.w3.org/2000/svg" xmlns:xlink="http://www.w3.org/1999/xlink" x="0px" y="0px" viewBox="0 0 28 28"
	 enable-background="new 0 0 28 28" xml:space="preserve">

		<g>
			<defs>
				<rect id="SVGID_1_" width="28" height="28"/>
			</defs>
			<clipPath id="SVGID_2_">
				<use xlink:href="#SVGID_1_"  overflow="visible"/>
			</clipPath>
			<path clip-path="url(#SVGID_2_)" fill="#231F20" d="M1.021,5.008l25.98-0.563c0.232-0.005,0.422-0.193,0.427-0.428
				c0.006-0.242-0.186-0.442-0.427-0.447L1.021,3.007c-0.013,0-0.03,0-0.043,0C0.426,3.019-0.012,3.477,0,4.029
				C0.012,4.582,0.469,5.02,1.021,5.008"/>
			<path clip-path="url(#SVGID_2_)" fill="#231F20" d="M0.999,1.445l25.98,0.563c0.013,0,0.03,0,0.043,0
				c0.552-0.012,0.989-0.47,0.978-1.022c-0.012-0.553-0.469-0.991-1.021-0.979L0.999,0.57C0.767,0.575,0.576,0.763,0.571,0.998
				C0.566,1.24,0.758,1.44,0.999,1.445"/>
			<path clip-path="url(#SVGID_2_)" fill="#231F20" d="M14.511,22.168c0.293,0.174,0.5,0.481,0.5,0.847v0.667
				c0,0.366-0.207,0.673-0.5,0.847v3.477c3.716-0.056,7.062-0.73,9.493-1.795v-3.683c-0.294-0.174-0.5-0.481-0.5-0.847v-0.667
				c0-0.366,0.206-0.673,0.5-0.847v-2.862c-2.5,1.025-5.782,1.648-9.493,1.7V22.168z"/>
			<path clip-path="url(#SVGID_2_)" fill="#231F20" d="M4.019,20.167c0.293,0.174,0.5,0.481,0.5,0.847v0.667
				c0,0.366-0.207,0.673-0.5,0.847v3.683c2.43,1.065,5.777,1.739,9.493,1.795v-3.477c-0.294-0.174-0.5-0.481-0.5-0.847v-0.667
				c0-0.366,0.206-0.673,0.5-0.847v-3.163c-3.711-0.052-6.994-0.675-9.493-1.7V20.167z"/>
			<path clip-path="url(#SVGID_2_)" fill="#231F20" d="M0.022,14.602v7.413c0,1.399,1.126,2.684,2.998,3.705v-3.192
				c-0.294-0.174-0.5-0.48-0.5-0.847v-0.667c0-0.366,0.206-0.672,0.5-0.847v-3.31C1.731,16.215,0.707,15.454,0.022,14.602"/>
			<path clip-path="url(#SVGID_2_)" fill="#231F20" d="M25.002,16.857v3.311c0.293,0.174,0.5,0.48,0.5,0.847v0.667
				c0,0.366-0.207,0.672-0.5,0.847v3.191C26.874,24.699,28,23.415,28,22.015v-7.413C27.315,15.454,26.29,16.215,25.002,16.857"/>
			<path clip-path="url(#SVGID_2_)" fill="#231F20" d="M28,12.011c0-3.315-6.264-6.002-13.989-6.002S0.022,8.696,0.022,12.011
				s6.264,6.003,13.989,6.003S28,15.326,28,12.011 M14.011,16.013c-6.622,0-11.991-1.792-11.991-4.002S7.389,8.01,14.011,8.01
				s11.991,1.791,11.991,4.001S20.633,16.013,14.011,16.013"/>
		</g>

</svg>
