<?xml version="1.0" encoding="utf-8"?>
<svg version="1.1" id="Layer_1" xmlns="http://www.w3.org/2000/svg" xmlns:xlink="http://www.w3.org/1999/xlink" x="0px" y="0px" viewBox="0 0 28 28"
	 enable-background="new 0 0 28 28" xml:space="preserve">

		<g>
			<defs>
				<rect id="SVGID_1_" width="28" height="28"/>
			</defs>
			<clipPath id="SVGID_2_">
				<use xlink:href="#SVGID_1_"  overflow="visible"/>
			</clipPath>
			<path clip-path="url(#SVGID_2_)" fill="#231F20" d="M21.164,14.998h5.209l-2.521,2.583l1.606,1.514l-1.574,1.484l1.574,1.483
				l-1.574,1.485l1.425,1.343C26.989,23.655,28,22.144,28,20.498v-9.915C26.723,12.49,24.299,14.052,21.164,14.998"/>
			<path clip-path="url(#SVGID_2_)" fill="#231F20" d="M22.426,23.547L24,22.063l-1.574-1.484L24,19.095l-1.574-1.484L24,15.998H14
				c-6.478,0-11.861-2.219-14-5.415v9.915c0,4.142,6.269,7.5,14,7.5h10l-1.574-1.484L24,25.03L22.426,23.547z"/>
			<path clip-path="url(#SVGID_2_)" fill="#231F20" d="M14,14.998c7.731,0,14-3.359,14-7.5c0-4.143-6.269-7.5-14-7.5
				S0,3.355,0,7.499C0,11.639,6.269,14.998,14,14.998 M14,4.355c3.24,0,5.867,1.407,5.867,3.143S17.24,10.64,14,10.64
				S8.133,9.235,8.133,7.499S10.76,4.355,14,4.355"/>
		</g>

</svg>
