<?xml version="1.0" encoding="utf-8"?>
<svg version="1.1" id="Layer_1" xmlns="http://www.w3.org/2000/svg" xmlns:xlink="http://www.w3.org/1999/xlink" x="0px" y="0px" viewBox="0 0 28 28"
	 enable-background="new 0 0 28 28" xml:space="preserve">

	<g>
		<rect y="9.001" fill="#231F20" width="4" height="4"/>
		<rect y="24.001" fill="#231F20" width="4" height="3.999"/>
		<rect x="5" y="15.001" fill="#231F20" width="4" height="7"/>
		<rect y="15.002" fill="#231F20" width="4" height="6.999"/>
		<rect x="5" y="9.001" fill="#231F20" width="4" height="4"/>
		<rect x="10" y="9.001" fill="#231F20" width="4" height="4"/>
		<rect x="10" y="15.001" fill="#231F20" width="4" height="7"/>
		<rect x="5" y="24.001" fill="#231F20" width="4" height="3.999"/>
		<rect x="15" y="9.001" fill="#231F20" width="4" height="4"/>
		<g>
			<defs>
				<rect id="SVGID_1_" width="28" height="28"/>
			</defs>
			<clipPath id="SVGID_2_">
				<use xlink:href="#SVGID_1_"  overflow="visible"/>
			</clipPath>
			<path clip-path="url(#SVGID_2_)" fill="#231F20" d="M20.5,5.501h-2.25c-0.949,0-1.75-1.03-1.75-2.25c0-1.792-1.57-3.25-3.5-3.25
				h-0.5c-1.93,0-3.5,1.57-3.5,3.5v4.5h1v-4.5c0-1.379,1.122-2.5,2.5-2.5H13c1.378,0,2.5,1.01,2.5,2.25
				c0,1.792,1.233,3.25,2.75,3.25h2.25c0.276,0,0.5-0.224,0.5-0.5C21,5.725,20.776,5.501,20.5,5.501"/>
			<path clip-path="url(#SVGID_2_)" fill="#231F20" d="M27.691,6.665l-1.656-0.686l1.656-0.686c0.256-0.106,0.377-0.398,0.271-0.653
				c-0.106-0.256-0.398-0.377-0.653-0.271l-1.657,0.686l0.686-1.656c0.106-0.255-0.015-0.548-0.27-0.653
				c-0.256-0.106-0.548,0.015-0.654,0.27l-0.686,1.656l-0.686-1.656c-0.106-0.255-0.398-0.376-0.653-0.271
				c-0.255,0.106-0.376,0.398-0.271,0.654l0.686,1.656l-1.656-0.686c-0.255-0.106-0.547,0.016-0.653,0.271
				c-0.106,0.255,0.016,0.547,0.271,0.653l1.656,0.686l-1.657,0.686c-0.255,0.106-0.376,0.398-0.27,0.653
				c0.106,0.256,0.398,0.377,0.653,0.271l1.657-0.686l-0.686,1.656c-0.106,0.255,0.015,0.547,0.27,0.653
				c0.128,0.053,0.265,0.049,0.383,0s0.217-0.143,0.27-0.27l0.686-1.657l0.686,1.657c0.106,0.255,0.398,0.376,0.654,0.271
				c0.255-0.106,0.376-0.398,0.27-0.654l-0.686-1.656l1.656,0.686c0.128,0.053,0.265,0.049,0.383,0
				c0.118-0.049,0.218-0.143,0.271-0.271C28.067,7.063,27.946,6.771,27.691,6.665"/>
			<rect x="15" y="15.001" clip-path="url(#SVGID_2_)" fill="#231F20" width="4" height="7"/>
			<rect x="15" y="24.001" clip-path="url(#SVGID_2_)" fill="#231F20" width="4" height="4"/>
			<rect x="10" y="24.001" clip-path="url(#SVGID_2_)" fill="#231F20" width="4" height="4"/>
		</g>
	</g>
</svg>
