<?xml version="1.0" encoding="utf-8"?>
<?xml version="1.0" encoding="utf-8"?>
<svg version="1.1" id="Layer_1" xmlns="http://www.w3.org/2000/svg" xmlns:xlink="http://www.w3.org/1999/xlink" x="0px" y="0px"
	 viewBox="0 0 28 28" enable-background="new 0 0 28 28" xml:space="preserve">
<g>
	<defs>
		<rect id="SVGID_1_" width="28" height="28"/>
	</defs>
	<clipPath id="SVGID_2_">
		<use xlink:href="#SVGID_1_"  overflow="visible"/>
	</clipPath>
	<path clip-path="url(#SVGID_2_)" d="M23.883,4.083C21.24,1.451,17.731,0,14,0c-0.422,0-0.84,0.024-1.256,0.06
		c-0.295,0.679-1.414,1.528-1.027,2.266c0.561,1.062,1.951-0.446,2.607-0.649c0.842-0.26,2.327-0.662,2.383,0.538
		c0.043,0.871-0.859,1.569-0.74,2.547c1.012,0.271,1.562-1.341,2.455-0.49c0.863,0.819-0.205,1.894-0.734,2.45
		c-0.86,0.905-0.799,1.382-1.196,2.437c-0.634,1.685-0.632-0.056-1.05-0.566c-0.51-0.62-1.858-0.585-2.489-0.262
		c-0.955,0.489-0.961,1.347-0.578,2.319c1.045,2.639,4.16,0.671,6.094,1.784c1.81,1.043,2.211,4.727,0.734,6.02
		c-0.523,0.457-1.525,0.976-1.947,1.734c-0.221,0.397-0.133,0.971-0.322,1.423c-0.135,0.32-1.489,3.205-2.067,2.067l-0.65-0.535
		c-1.418-1.476-0.498-4.575-2.076-6.27c-0.766-0.821-1.694-1.061-1.606-2.378c0.067-1.023,0.719-1.167,1.192-1.928
		c0.836-1.348-1.774-2.685-3.17-2.853c-1-0.122-1.363,0.89-1.811-0.341C6.457,8.581,6.68,7.555,6.635,6.701
		C6.572,5.508,6.092,4.025,5.031,3.256C4.719,3.52,4.412,3.791,4.117,4.083c-5.49,5.469-5.49,14.367,0,19.835
		C6.76,26.55,10.27,28,14,28c3.731,0,7.24-1.45,9.883-4.083C29.373,18.45,29.373,9.552,23.883,4.083"/>
</g>
</svg>
