<?xml version="1.0" encoding="utf-8"?>
<svg version="1.1" id="Layer_1" xmlns="http://www.w3.org/2000/svg" xmlns:xlink="http://www.w3.org/1999/xlink" x="0px" y="0px" viewBox="0 0 28 28"
	 enable-background="new 0 0 28 28" xml:space="preserve">

	<g>
		<rect x="5" y="19.001" fill="#231F20" width="18" height="2"/>
		<polygon fill="#231F20" points="17.2,22.001 19,28 23,28 21.2,22.001 		"/>
		<polygon fill="#231F20" points="6.8,22.001 5,28 9,28 10.8,22.001 		"/>
		<g>
			<defs>
				<rect id="SVGID_1_" width="28" height="28"/>
			</defs>
			<clipPath id="SVGID_2_">
				<use xlink:href="#SVGID_1_"  overflow="visible"/>
			</clipPath>
			<path clip-path="url(#SVGID_2_)" fill="#231F20" d="M16,2.001v-2h-4v2H0v18h4v-2h20v2h4v-18H16z M17.5,6.251
				c0.69,0,1.25,0.559,1.25,1.25s-0.56,1.25-1.25,1.25c-0.69,0-1.25-0.559-1.25-1.25S16.81,6.251,17.5,6.251 M9,14.001l4-7
				l2.568,4.492l0.932-1.492l2.5,4H9z"/>
		</g>
	</g>

</svg>
