<?xml version="1.0" encoding="utf-8"?>
<svg version="1.1" id="Layer_1" xmlns="http://www.w3.org/2000/svg" xmlns:xlink="http://www.w3.org/1999/xlink" x="0px" y="0px" viewBox="0 0 28 28"
	 enable-background="new 0 0 28 28" xml:space="preserve">

	<g>
		<rect x="5" y="19.001" fill="#231F20" width="18" height="2"/>
		<polygon fill="#231F20" points="17.2,22.001 19,28 23,28 21.2,22.001 		"/>
		<polygon fill="#231F20" points="6.8,22.001 5,28 9,28 10.8,22.001 		"/>
		<g>
			<defs>
				<rect id="SVGID_1_" width="28" height="28"/>
			</defs>
			<clipPath id="SVGID_2_">
				<use xlink:href="#SVGID_1_"  overflow="visible"/>
			</clipPath>
			<path clip-path="url(#SVGID_2_)" fill="#231F20" d="M16,2.001v-2h-4v2H0v18h4v-2h20v2h4v-18H16z M18.807,12.21
				c-0.234,0.506-1.133,0.641-2.355,0.437c0.109,1.233-0.09,2.12-0.615,2.315c-0.523,0.192-1.255-0.351-1.974-1.356
				c-0.795,0.949-1.564,1.434-2.071,1.203c-0.506-0.233-0.639-1.134-0.437-2.355c-1.231,0.108-2.121-0.093-2.316-0.615
				c-0.194-0.524,0.35-1.254,1.355-1.974C9.447,9.069,8.961,8.299,9.193,7.793c0.233-0.505,1.133-0.64,2.355-0.437
				c-0.11-1.233,0.09-2.123,0.612-2.316c0.524-0.193,1.257,0.351,1.979,1.356c0.793-0.948,1.564-1.433,2.07-1.2
				c0.505,0.232,0.64,1.132,0.437,2.353c1.23-0.111,2.12,0.093,2.316,0.615c0.192,0.524-0.35,1.255-1.358,1.974
				C18.555,10.933,19.04,11.704,18.807,12.21"/>
			<path clip-path="url(#SVGID_2_)" fill="#231F20" d="M14.696,8.488c-0.835-0.384-1.824-0.019-2.209,0.817
				c-0.385,0.837-0.019,1.828,0.816,2.21c0.836,0.385,1.828,0.018,2.212-0.818C15.899,9.861,15.533,8.871,14.696,8.488"/>
		</g>
	</g>

</svg>
