<?xml version="1.0" encoding="utf-8"?>
<svg version="1.1" id="Layer_1" xmlns="http://www.w3.org/2000/svg" xmlns:xlink="http://www.w3.org/1999/xlink" x="0px" y="0px" viewBox="0 0 28 28"
	 enable-background="new 0 0 28 28" xml:space="preserve">

	<g>
		<polygon fill="#231F20" points="17.2,22.001 19,28 23,28 21.2,22.001 		"/>
		<polygon fill="#231F20" points="6.8,22.001 5,28 9,28 10.8,22.001 		"/>
		<rect x="5" y="19.001" fill="#231F20" width="18" height="2"/>
		<g>
			<defs>
				<rect id="SVGID_1_" width="28" height="28"/>
			</defs>
			<clipPath id="SVGID_2_">
				<use xlink:href="#SVGID_1_"  overflow="visible"/>
			</clipPath>
			<path clip-path="url(#SVGID_2_)" fill="#231F20" d="M16,2.001v-2h-4v2H0v18h4v-2h20v2h4v-18H16z M12,6.876
				c0-1.035,0.896-1.875,2-1.875s2,0.84,2,1.875v1.25c0,1.294-1.333,1.875-2,1.875c-0.667,0-2-0.581-2-1.875V6.876z M10,15.001
				c0-1.333,0.572-4,4-4c3.43,0,4,2.667,4,4H10z"/>
		</g>
	</g>

</svg>
