<?xml version="1.0" encoding="utf-8"?>
<?xml version="1.0" encoding="utf-8"?>
<svg version="1.1" id="Layer_1" xmlns="http://www.w3.org/2000/svg" xmlns:xlink="http://www.w3.org/1999/xlink" x="0px" y="0px"
	 viewBox="0 0 28 28" enable-background="new 0 0 28 28" xml:space="preserve">
<g>
	<defs>
		<rect id="SVGID_1_" width="28" height="28"/>
	</defs>
	<clipPath id="SVGID_2_">
		<use xlink:href="#SVGID_1_"  overflow="visible"/>
	</clipPath>
	<path clip-path="url(#SVGID_2_)" d="M12.259,10.835c-1.84,0.137-3.279,1.689-3.279,3.536c0,0.286,0.232,0.52,0.519,0.52
		c0.285,0,0.518-0.234,0.518-0.52c0-1.306,1.017-2.406,2.318-2.501c0.285-0.021,0.5-0.27,0.479-0.556
		C12.792,11.028,12.554,10.81,12.259,10.835"/>
	<path clip-path="url(#SVGID_2_)" d="M25.442,14.254c-0.265-0.229-0.613-0.446-0.98-0.676c-0.953-0.592-2.139-1.331-2.834-2.841
		c-0.781-1.704-1.5-3.441-2.197-5.122l-0.6-1.44c-0.592-1.421-1.162-2.239-1.969-2.826l-0.064-0.046l-0.059-0.052
		C15.823,0.468,14.38,0,12.88,0c-1.666,0-3.244,0.574-4.121,1.499L8.714,1.548L8.663,1.594C8.105,2.11,7.655,2.734,7.329,3.448
		c-0.279,0.61-0.504,1.216-0.74,1.859C5.98,6.955,5.349,8.659,3.81,10.271l-0.477,0.494c-1.432,1.481-2.668,2.761-3.096,4.51
		c-0.812,3.307,0.483,6.893,3.008,8.341c1.422,0.815,3.164,1.039,5.01,1.276c0.373,0.048,0.746,0.096,1.115,0.148
		c1.979,0.282,3.596,0.972,5.162,1.639c0.776,0.33,1.506,0.643,2.283,0.909C17.614,27.862,18.437,28,19.265,28
		c3.49,0,6.963-2.516,8.258-5.983C28.149,20.336,28.714,17.093,25.442,14.254 M13.003,20.885c-3.244,0-5.885-2.64-5.885-5.884
		c0-3.245,2.641-5.885,5.885-5.885c3.246,0,5.885,2.64,5.885,5.885C18.888,18.245,16.249,20.885,13.003,20.885"/>
</g>
</svg>
