<?xml version="1.0" encoding="utf-8"?>
<?xml version="1.0" encoding="utf-8"?>
<svg version="1.1" id="Layer_1" xmlns="http://www.w3.org/2000/svg" xmlns:xlink="http://www.w3.org/1999/xlink" x="0px" y="0px"
	 viewBox="0 0 28 28" enable-background="new 0 0 28 28" xml:space="preserve">
<g>
	<defs>
		<rect id="SVGID_1_" width="28" height="28"/>
	</defs>
	<clipPath id="SVGID_2_">
		<use xlink:href="#SVGID_1_"  overflow="visible"/>
	</clipPath>
	<path clip-path="url(#SVGID_2_)" d="M14,0C6.27,0,0,6.268,0,14s6.27,14,14,14c7.733,0,14-6.268,14-14S21.733,0,14,0 M14.004,18.034
		c-4.418,0-7.998-3.58-7.998-8c0-4.421,3.58-8,7.998-8c4.42,0,8.002,3.579,8.002,8C22.006,14.454,18.424,18.034,14.004,18.034
		 M16.696,9.135c0.562-0.427,1.013-1.007,1.013-1.964C17.709,5.126,16.182,4,14.02,4c-2.168,0-3.717,1.126-3.717,3.171
		c0,0.957,0.475,1.613,1.012,1.993c-0.576,0.275-1.397,0.977-1.397,2.349c0,2.162,1.563,3.487,4.075,3.487
		c2.509,0,4.099-1.325,4.099-3.487C18.092,10.141,17.272,9.408,16.696,9.135 M13.991,6.001c1.107,0,1.515,0.509,1.515,1.022
		c0,0.51-0.379,0.978-1.484,0.978c-1.11,0-1.516-0.468-1.516-0.978C12.506,6.51,12.881,6.001,13.991,6.001 M14.016,13
		c-1.16,0-1.766-0.542-1.766-1.259c0-0.718,0.567-1.241,1.739-1.241c1.156,0,1.761,0.523,1.761,1.241
		C15.75,12.458,15.17,13,14.016,13"/>
</g>
</svg>
