<?xml version="1.0" encoding="utf-8"?>
<svg version="1.1" id="Layer_1" xmlns="http://www.w3.org/2000/svg" xmlns:xlink="http://www.w3.org/1999/xlink" x="0px" y="0px" viewBox="0 0 28 28"
	 enable-background="new 0 0 28 28" xml:space="preserve">

		<g>
			<defs>
				<rect id="SVGID_1_" width="28" height="28"/>
			</defs>
			<clipPath id="SVGID_2_">
				<use xlink:href="#SVGID_1_"  overflow="visible"/>
			</clipPath>
			<path clip-path="url(#SVGID_2_)" fill="#231F20" d="M24,13v3c0,0.663-0.337,1-1,1c-0.336,0-0.962,0-1-1.033V8
				c0-4.4-3.375-8-7.5-8c-2.354,0-4.461,1.175-5.839,3H8c-4.4,0-8,3.6-8,8v17h3.953v-3c0-0.55,0.45-1,1-1H5c0.55,0,1,0.45,1,1v3h2
				h1.953v-3c0-0.55,0.45-1,1-1H11c0.55,0,1,0.45,1,1v3h3.953v-3c0-0.55,0.45-1,1-1H17c0.55,0,1,0.45,1,1v3h4v-7.089
				C22.314,20.964,22.643,21,23,21c3.668,0,5-2.99,5-5v-3H24z M13,5.5h-2C9.07,5.5,7.5,7.07,7.5,9c0,1.251,0.689,2.415,1.798,3.038
				l0.308,0.173l-0.061,0.35C9.52,12.704,9.5,12.85,9.5,13c0,1.379,1.121,2.5,2.5,2.5h1v1h-1c-1.93,0-3.5-1.57-3.5-3.5
				c0-0.092,0.005-0.182,0.013-0.271C7.264,11.896,6.5,10.497,6.5,9c0-2.481,2.019-4.5,4.5-4.5h2V5.5z M18,12c-0.553,0-1-0.447-1-1
				c0-0.553,0.447-1,1-1c0.553,0,1,0.447,1,1C19,11.553,18.553,12,18,12"/>
		</g>

</svg>
