<?xml version="1.0" encoding="utf-8"?>
<?xml version="1.0" encoding="utf-8"?>
<svg version="1.1" id="Layer_1" xmlns="http://www.w3.org/2000/svg" xmlns:xlink="http://www.w3.org/1999/xlink" x="0px" y="0px"
	 viewBox="0 0 28 28" enable-background="new 0 0 28 28" xml:space="preserve">
<g>
	<defs>
		<rect id="SVGID_1_" width="28" height="28"/>
	</defs>
	<clipPath id="SVGID_2_">
		<use xlink:href="#SVGID_1_"  overflow="visible"/>
	</clipPath>
	<path clip-path="url(#SVGID_2_)" d="M24,0H14l5,5L24,0z M0,28h28V7H0V28z M19.006,10.314c1.435,0,2.596,1.161,2.596,2.593
		c0,1.433-1.161,2.595-2.596,2.595c-1.43,0-2.594-1.162-2.594-2.595C16.412,11.475,17.576,10.314,19.006,10.314 M8.961,10.314
		c1.434,0,2.594,1.161,2.594,2.593c0,1.433-1.16,2.595-2.594,2.595c-1.43,0-2.594-1.162-2.594-2.595
		C6.367,11.475,7.531,10.314,8.961,10.314 M13,25H5v-4.813c0-1.933,1.939-3.5,4-3.5c2.063,0,4,1.567,4,3.5V25z M23,25h-8v-4.813
		c0-1.933,1.941-3.5,4-3.5c2.063,0,4,1.567,4,3.5V25z M9,0L4,5h10L9,0z"/>
</g>
</svg>
