<?xml version="1.0" encoding="utf-8"?>
<svg version="1.1" id="Layer_1" xmlns="http://www.w3.org/2000/svg" xmlns:xlink="http://www.w3.org/1999/xlink" x="0px" y="0px" viewBox="0 0 28 28"
	 enable-background="new 0 0 28 28" xml:space="preserve">

		<g>
			<defs>
				<rect id="SVGID_1_" width="28" height="28"/>
			</defs>
			<clipPath id="SVGID_2_">
				<use xlink:href="#SVGID_1_"  overflow="visible"/>
			</clipPath>
			<path clip-path="url(#SVGID_2_)" fill="#231F20" d="M0,16.001c0,1.594,1.344,3.625,3,4v-5l-3-4V16.001z"/>
			<path clip-path="url(#SVGID_2_)" fill="#231F20" d="M25,20.001c1.656-0.375,3-2.406,3-4v-5l-3,4V20.001z"/>
			<path clip-path="url(#SVGID_2_)" fill="#231F20" d="M25,11.001c0-0.55-0.45-1-1-1v-9c0,0-20,3-20,9c-0.55,0-1,0.45-1,1v2
				c0,0.55,0.45,1,1,1h20c0.55,0,1-0.45,1-1V11.001z"/>
			<path clip-path="url(#SVGID_2_)" fill="#231F20" d="M26.5,3.001c0.828,0,1.5-0.672,1.5-1.5c0-0.828-0.672-1.5-1.5-1.5
				c-0.828,0-1.5,0.672-1.5,1.5C25,2.329,25.672,3.001,26.5,3.001"/>
			<path clip-path="url(#SVGID_2_)" fill="#231F20" d="M4,20.001c0,4.409,4.031,8,10,8s10-3.591,10-8v-5H4V20.001z M14,25.001
				c-2.441,0-4.48-0.762-5.716-2h11.432C18.48,24.239,16.441,25.001,14,25.001 M18.5,17.001c0.83,0,1.5,0.67,1.5,1.5
				c0,0.83-0.67,1.5-1.5,1.5s-1.5-0.67-1.5-1.5C17,17.671,17.67,17.001,18.5,17.001 M9.5,17.001c0.83,0,1.5,0.67,1.5,1.5
				c0,0.83-0.67,1.5-1.5,1.5c-0.83,0-1.5-0.67-1.5-1.5C8,17.671,8.67,17.001,9.5,17.001"/>
		</g>

</svg>
