<?xml version="1.0" encoding="utf-8"?>
<?xml version="1.0" encoding="utf-8"?>
<svg version="1.1" id="Layer_1" xmlns="http://www.w3.org/2000/svg" xmlns:xlink="http://www.w3.org/1999/xlink" x="0px" y="0px"
	 viewBox="0 0 28 28" enable-background="new 0 0 28 28" xml:space="preserve">
<g>
	<defs>
		<rect id="SVGID_1_" width="28" height="28"/>
	</defs>
	<clipPath id="SVGID_2_">
		<use xlink:href="#SVGID_1_"  overflow="visible"/>
	</clipPath>
	<path clip-path="url(#SVGID_2_)" d="M0,13.027c0,1.58,1.355,3.596,3,3.973v-7C1.262,10.002,0,11.266,0,13.027 M14.002,0
		C8.311,0,4,5,4,10v7c0,6.059,4.025,11,10.002,11C19.977,28,24,23.059,24,17v-7C24,5,19.691,0,14.002,0 M17.752,8.25
		c0.967,0,1.748,0.783,1.748,1.75c0,0.967-0.781,1.75-1.748,1.75C16.785,11.75,16,10.967,16,10C16,9.033,16.785,8.25,17.752,8.25
		 M10.252,8.25C11.219,8.25,12,9.033,12,10c0,0.967-0.781,1.75-1.748,1.75S8.5,10.967,8.5,10C8.5,9.033,9.285,8.25,10.252,8.25
		 M14.02,24h-0.04c-3.113,0-5.779-2-6.884-5h13.81C19.801,22,17.133,24,14.02,24 M25,10v7c1.643-0.377,3-2.393,3-3.973
		C28,11.266,26.738,10.002,25,10"/>
</g>
</svg>
