<?xml version="1.0" encoding="utf-8"?>
<svg version="1.1" id="Layer_1" xmlns="http://www.w3.org/2000/svg" xmlns:xlink="http://www.w3.org/1999/xlink" x="0px" y="0px" viewBox="0 0 28 28"
	 enable-background="new 0 0 28 28" xml:space="preserve">

	<g>
		<polygon fill="#231F20" points="16,0.001 16,9.28 20,7.947 20,0.001 		"/>
		<rect x="24" y="0.001" fill="#231F20" width="4" height="27.999"/>
		<path fill="#231F20" d="M4,21.001h3.001v3.001H4V21.001z M10,21.001h3v3.001h-3V21.001z M16.001,21.001h3v3.001h-3V21.001z
			 M4,15.002h3.001v3H4V15.002z M10,15.002h3v3h-3V15.002z M16.001,15.002h3v3h-3V15.002z M12,11.668V8.001l-12,4V28h23.001V8.001
			L12,11.668z"/>
	</g>

</svg>
