<?xml version="1.0" encoding="utf-8"?>
<svg version="1.1" id="Layer_1" xmlns="http://www.w3.org/2000/svg" xmlns:xlink="http://www.w3.org/1999/xlink" x="0px" y="0px" viewBox="0 0 28 28"
	 enable-background="new 0 0 28 28" xml:space="preserve">

		<g>
			<defs>
				<rect id="SVGID_1_" width="28" height="28"/>
			</defs>
			<clipPath id="SVGID_2_">
				<use xlink:href="#SVGID_1_"  overflow="visible"/>
			</clipPath>
			<path clip-path="url(#SVGID_2_)" fill="#231F20" d="M27.041,8.683c-4.093-0.707-7.428,0.434-9.668,1.66
				c-0.81-0.746-1.825-1.204-2.897-1.308c1.022-3.648,3.295-6.93,3.295-6.93c0.751-1.122-0.586-1.462-0.586-1.462
				C8.428-2.158,3.055,5.117,3.055,5.117c1.409,3.831,3.998,6.136,6.158,7.474c-0.318,1.079-0.259,2.254,0.201,3.344
				c-3.856,1.196-8.393,0.828-8.393,0.828c-1.348-0.09-0.973,1.238-0.973,1.238c1.952,8.985,10.939,10,10.939,10
				c2.599-3.119,3.307-6.494,3.392-9.03c0.725-0.054,1.449-0.251,2.12-0.639c0.674-0.389,1.208-0.92,1.618-1.523
				c2.544,2.685,4.174,6.124,4.174,6.124c0.597,1.213,1.56,0.224,1.56,0.224C30.655,16.974,27.041,8.683,27.041,8.683
				 M14.999,15.733c-0.956,0.552-2.179,0.225-2.732-0.732c-0.552-0.956-0.224-2.179,0.732-2.731c0.957-0.553,2.18-0.225,2.732,0.731
				C16.283,13.958,15.955,15.181,14.999,15.733"/>
		</g>

</svg>
