<?xml version="1.0" encoding="utf-8"?>
<svg version="1.1" id="Layer_1" xmlns="http://www.w3.org/2000/svg" xmlns:xlink="http://www.w3.org/1999/xlink" x="0px" y="0px" viewBox="0 0 28 28"
	 enable-background="new 0 0 28 28" xml:space="preserve">

		<g>
			<defs>
				<rect id="SVGID_1_" width="28" height="28"/>
			</defs>
			<clipPath id="SVGID_2_">
				<use xlink:href="#SVGID_1_"  overflow="visible"/>
			</clipPath>
			<path clip-path="url(#SVGID_2_)" fill="#231F20" d="M21,26c0,0.995,0.894,2,2,2c1.106,0,2-1.005,2-2c0-0.994-2-4-2-4
				S21,25.006,21,26"/>
			<path clip-path="url(#SVGID_2_)" fill="#231F20" d="M19,16h8v-2c0-3.925-3.514-7-8-7h-3.049C14.696,5.951,12.961,5.236,11,5.052
				V3h2.277C13.624,3.595,14.262,4,15,4c1.105,0,2-0.896,2-2c0-1.105-0.895-2-2-2c-0.738,0-1.376,0.405-1.723,1H11V0H9v1H6.723
				C6.376,0.405,5.738,0,5,0C3.895,0,3,0.895,3,2c0,1.104,0.895,2,2,2c0.738,0,1.376-0.405,1.723-1H9v2.052
				C7.039,5.236,5.304,5.951,4.049,7H0v8h4.049c1.465,1.225,3.585,2,5.951,2s4.486-0.775,5.951-2H19V16z"/>
			<rect x="18" y="17" clip-path="url(#SVGID_2_)" fill="#231F20" width="10" height="4"/>
		</g>

</svg>
