<?xml version="1.0" encoding="utf-8"?>
<?xml version="1.0" encoding="utf-8"?>
<svg version="1.1" id="Layer_1" xmlns="http://www.w3.org/2000/svg" xmlns:xlink="http://www.w3.org/1999/xlink" x="0px" y="0px"
	 viewBox="0 0 28 28" enable-background="new 0 0 28 28" xml:space="preserve">
<g>
	<defs>
		<rect id="SVGID_1_" width="28" height="28"/>
	</defs>
	<clipPath id="SVGID_2_">
		<use xlink:href="#SVGID_1_"  overflow="visible"/>
	</clipPath>
	<path clip-path="url(#SVGID_2_)" d="M16,0v7h7L16,0z M23,8h-8V0H5v16h18V8z M20,14H8v-1h12V14z M20,11H8v-1h12V11z M0,28h22V17H0
		V28z M8.501,20C9.328,20,10,20.674,10,21.501C10,22.33,9.328,23,8.501,23C7.673,23,7,22.33,7,21.501C7,20.674,7.673,20,8.501,20
		 M4.502,20C5.33,20,6,20.674,6,21.501C6,22.33,5.33,23,4.502,23C3.672,23,3,22.33,3,21.501C3,20.674,3.672,20,4.502,20 M23,28h5V17
		h-5V28z"/>
</g>
</svg>
