<?xml version="1.0" encoding="utf-8"?>
<svg version="1.1" id="Layer_1" xmlns="http://www.w3.org/2000/svg" xmlns:xlink="http://www.w3.org/1999/xlink" x="0px" y="0px" viewBox="0 0 28 28"
	 enable-background="new 0 0 28 28" xml:space="preserve">

		<g>
			<defs>
				<rect id="SVGID_1_" width="28" height="28"/>
			</defs>
			<clipPath id="SVGID_2_">
				<use xlink:href="#SVGID_1_"  overflow="visible"/>
			</clipPath>
			<path clip-path="url(#SVGID_2_)" fill="#231F20" d="M28,0.001c-5.323,0-9.593,1.117-13,2.917v2.083L12.923,4.17
				C11.421,5.196,10.117,6.363,9,7.629v2.372L7.574,9.43c-2.729,3.841-4.03,8.253-4.425,12.061
				c-2.199,3.318-2.996,4.961-3.053,5.082c-0.235,0.499-0.023,1.094,0.476,1.33c0.138,0.067,0.284,0.098,0.427,0.098
				c0.374,0,0.734-0.211,0.905-0.571c0.015-0.033,1.04-2.149,4.065-6.53c0.525-0.731,1.066-1.484,1.612-2.245
				c0.671-0.965,1.444-1.848,2.115-2.718c0.684-0.859,1.322-1.661,1.869-2.348c1.094-1.373,1.823-2.289,1.823-2.289
				c0.182-0.229,0.516-0.267,0.745-0.084c0.222,0.177,0.265,0.495,0.102,0.723l-0.015,0.02c0,0-0.678,0.946-1.695,2.364
				c-0.508,0.709-1.101,1.536-1.737,2.422c-0.62,0.894-1.344,1.809-1.956,2.793c-0.628,0.974-1.255,1.947-1.843,2.86
				c-0.294,0.456-0.578,0.897-0.848,1.314c-0.029,0.052-0.053,0.095-0.082,0.146c5.347-0.459,9.383-2.118,12.441-4.357l-1.5-1.5
				h3.315c1.39-1.288,2.53-2.698,3.463-4.148L21,12.001h3.855c0.607-1.161,1.096-2.319,1.491-3.436L24,7.001h2.853
				C27.996,3.065,28,0.001,28,0.001"/>
		</g>

</svg>
