<?xml version="1.0" encoding="utf-8"?>
<svg version="1.1" id="Layer_1" xmlns="http://www.w3.org/2000/svg" xmlns:xlink="http://www.w3.org/1999/xlink" x="0px" y="0px" viewBox="0 0 28 28"
	 enable-background="new 0 0 28 28" xml:space="preserve">

		<g>
			<defs>
				<rect id="SVGID_1_" width="28" height="28"/>
			</defs>
			<clipPath id="SVGID_2_">
				<use xlink:href="#SVGID_1_"  overflow="visible"/>
			</clipPath>
			<path clip-path="url(#SVGID_2_)" fill="#231F20" d="M1.5,0C0.672,0,0,0.672,0,1.5V28h3V1.5C3,0.672,2.328,0,1.5,0"/>
			<path clip-path="url(#SVGID_2_)" fill="#231F20" d="M26.5,0C25.672,0,25,0.672,25,1.5V28h3V1.5C28,0.672,27.328,0,26.5,0"/>
			<path clip-path="url(#SVGID_2_)" fill="#231F20" d="M17.293,2h-6.586H9.293H4v1h4.293L6,5.293l-2-2v1.414L5.293,6L4,7.293v1.414
				l2-2L9.293,10L6,13.293l-2-2v1.414L5.293,14L4,15.293v1.414l2-2L9.293,18L6,21.293l-2-2v1.414L5.293,22L4,23.293v1.414l2-2
				L8.293,25H4v1h5.293h1.414h6.586h1.414H24v-1h-4.293L22,22.707l2,2v-1.414L22.707,22L24,20.707v-1.414l-2,2L18.707,18L22,14.707
				l2,2v-1.414L22.707,14L24,12.707v-1.414l-2,2L18.707,10L22,6.707l2,2V7.293L22.707,6L24,4.707V3.293l-2,2L19.707,3H24V2h-5.293
				H17.293z M16.293,3L14,5.293L11.707,3H16.293z M10.707,10L14,6.707L17.293,10L14,13.293L10.707,10z M17.293,18L14,21.293
				L10.707,18L14,14.707L17.293,18z M6.707,6l3-3h0.586l3,3L10,9.293L6.707,6z M6.707,14L10,10.707L13.293,14L10,17.293L6.707,14z
				 M10.293,25H9.707l-3-3L10,18.707L13.293,22L10.293,25z M11.707,25L14,22.707L16.293,25H11.707z M21.293,22l-3,3h-0.586l-3-3
				L18,18.707L21.293,22z M21.293,14L18,17.293L14.707,14L18,10.707L21.293,14z M21.293,6L18,9.293L14.707,6l3-3h0.586L21.293,6z"/>
		</g>

</svg>
