<?xml version="1.0" encoding="utf-8"?>
<svg version="1.1" id="Layer_1" xmlns="http://www.w3.org/2000/svg" xmlns:xlink="http://www.w3.org/1999/xlink" x="0px" y="0px" viewBox="0 0 28 28"
	 enable-background="new 0 0 28 28" xml:space="preserve">

		<g>
			<defs>
				<rect id="SVGID_1_" width="28" height="28"/>
			</defs>
			<clipPath id="SVGID_2_">
				<use xlink:href="#SVGID_1_"  overflow="visible"/>
			</clipPath>
			<path clip-path="url(#SVGID_2_)" fill="#231F20" d="M0.293,26.294c-0.391,0.391-0.391,1.023,0,1.414
				C0.488,27.903,0.744,28.001,1,28.001s0.512-0.098,0.707-0.293l3.535-3.536l-1.414-1.414L0.293,26.294z"/>
			<path clip-path="url(#SVGID_2_)" fill="#231F20" d="M19.611,18.905l-4.904-4.904L27.854,0.854c0.195-0.195,0.195-0.511,0-0.707
				c-0.196-0.195-0.512-0.195-0.707,0L14,13.294L0.854,0.147c-0.196-0.195-0.512-0.195-0.707,0c-0.196,0.196-0.196,0.512,0,0.707
				l13.146,13.147l-4.904,4.904c-1.964-1.605-4.85-1.514-6.682,0.318l7.071,7.071c1.832-1.832,1.923-4.718,0.318-6.683L14,14.708
				l4.904,4.904c-1.604,1.964-1.513,4.85,0.318,6.682l7.071-7.071C24.462,17.391,21.575,17.3,19.611,18.905"/>
			<path clip-path="url(#SVGID_2_)" fill="#231F20" d="M24.171,22.759l-1.414,1.414l3.536,3.535c0.39,0.391,1.023,0.391,1.414,0
				C27.902,27.513,28,27.257,28,27.001c0-0.255-0.098-0.511-0.293-0.707L24.171,22.759z"/>
		</g>

</svg>
