<?xml version="1.0" encoding="utf-8"?>
<svg version="1.1" id="Layer_1" xmlns="http://www.w3.org/2000/svg" xmlns:xlink="http://www.w3.org/1999/xlink" x="0px" y="0px" viewBox="0 0 28 28"
	 enable-background="new 0 0 28 28" xml:space="preserve">

		<g>
			<defs>
				<rect id="SVGID_1_" width="28" height="28"/>
			</defs>
			<clipPath id="SVGID_2_">
				<use xlink:href="#SVGID_1_"  overflow="visible"/>
			</clipPath>
			<path clip-path="url(#SVGID_2_)" fill="#231F20" d="M27.312,9.673C24.922,2.322,17.025-1.702,9.676,0.688
				C2.324,3.076-1.699,10.973,0.69,18.324c2.389,7.35,10.284,11.375,17.637,8.985C25.676,24.92,29.701,17.024,27.312,9.673
				 M14,1.753c2.209,0,4,1.791,4,4.001c0,2.209-1.791,3.999-4,3.999s-4-1.79-4-3.999C10,3.545,11.791,1.753,14,1.753 M2.333,10.234
				c0.682-2.101,2.939-3.251,5.038-2.568c2.101,0.682,3.25,2.938,2.569,5.039c-0.683,2.1-2.94,3.25-5.04,2.567
				C2.8,14.59,1.651,12.333,2.333,10.234 M12.375,23.066c-1.296,1.786-3.799,2.183-5.586,0.885
				c-1.787-1.299-2.183-3.801-0.885-5.588c1.298-1.786,3.8-2.184,5.587-0.886C13.279,18.777,13.674,21.279,12.375,23.066 M14,15.999
				c-1.104,0-2-0.896-2-2c0-1.105,0.896-2,2-2c1.105,0,2,0.895,2,2C16,15.103,15.105,15.999,14,15.999 M21.212,23.95
				c-1.786,1.299-4.289,0.903-5.586-0.886c-1.299-1.784-0.904-4.286,0.883-5.586c1.788-1.299,4.29-0.902,5.589,0.886
				C23.394,20.149,22.999,22.651,21.212,23.95 M23.1,15.271c-2.1,0.684-4.355-0.466-5.038-2.565
				c-0.683-2.103,0.467-4.358,2.569-5.041c2.098-0.682,4.356,0.467,5.036,2.567C26.351,12.332,25.201,14.59,23.1,15.271"/>
		</g>

</svg>
