<?xml version="1.0" encoding="utf-8"?>
<?xml version="1.0" encoding="utf-8"?>
<svg version="1.1" id="Layer_1" xmlns="http://www.w3.org/2000/svg" xmlns:xlink="http://www.w3.org/1999/xlink" x="0px" y="0px"
	 viewBox="0 0 28 28" enable-background="new 0 0 28 28" xml:space="preserve">
<g>
	<defs>
		<rect id="SVGID_1_" width="28" height="28"/>
	</defs>
	<clipPath id="SVGID_2_">
		<use xlink:href="#SVGID_1_"  overflow="visible"/>
	</clipPath>
	<path clip-path="url(#SVGID_2_)" d="M0,28h28V16H0V28z M8.92,10L28,4.826L26.691,0L0,7.238V15h28v-5H8.92z M25.023,1.488
		l0.786,2.897l-3.86,1.047l-1.752-2.635L25.023,1.488z M17.303,3.584l1.75,2.633l-3.862,1.047l-1.75-2.633L17.303,3.584z M3.5,12
		C2.672,12,2,11.328,2,10.5C2,9.672,2.672,9,3.5,9S5,9.672,5,10.5C5,11.328,4.328,12,3.5,12 M10.547,5.416l1.75,2.633L8.435,9.096
		l-1.75-2.633L10.547,5.416z M11,14H7l1-3h4L11,14z M18,14h-4l1-3h4L18,14z M26,14h-5l1-3h4V14z"/>
</g>
</svg>
