<?xml version="1.0" encoding="utf-8"?>
<?xml version="1.0" encoding="utf-8"?>
<svg version="1.1" id="Layer_1" xmlns="http://www.w3.org/2000/svg" xmlns:xlink="http://www.w3.org/1999/xlink" x="0px" y="0px"
	 viewBox="0 0 28 28" enable-background="new 0 0 28 28" xml:space="preserve">
<path d="M5,25h18v-9H5V25z M5,12h18V3H5V12z M1,23h2v2.001H1V23z M25,23h2v2.001h-2V23z M1,19h2v2H1V19z M25,19h2v2h-2V19z M1,15h2
	v2H1V15z M4,15h20.001v11H4V15z M25,15h2v2h-2V15z M1,11h2v2H1V11z M25,11h2v2h-2V11z M1,7h2v2H1V7z M25,7h2v2h-2V7z M1,3h2v2H1V3z
	 M25,3h2v2h-2V3z M4,2h20.001v11H4V2z M0,28h28V0H0V28z"/>
</svg>
