<?xml version="1.0" encoding="utf-8"?>
<?xml version="1.0" encoding="utf-8"?>
<svg version="1.1" id="Layer_1" xmlns="http://www.w3.org/2000/svg" xmlns:xlink="http://www.w3.org/1999/xlink" x="0px" y="0px"
	 viewBox="0 0 28 28" enable-background="new 0 0 28 28" xml:space="preserve">
<g>
	<defs>
		<rect id="SVGID_1_" width="28" height="28"/>
	</defs>
	<clipPath id="SVGID_2_">
		<use xlink:href="#SVGID_1_"  overflow="visible"/>
	</clipPath>
	<path clip-path="url(#SVGID_2_)" d="M0,5h28V0H0V5z M0,6l11,11v11h3l3-4v-3.76c0.715,0.479,1.574,0.76,2.5,0.76
		c2.486,0,4.5-2.015,4.5-4.5c0-1.76-1.02-3.268-2.492-4.008L28,6H0z M22,16.5c0,1.379-1.121,2.5-2.5,2.5
		c-1.223,0-2.238-0.884-2.453-2.046l2.908-2.908C21.117,14.261,22,15.276,22,16.5"/>
</g>
</svg>
