<?xml version="1.0" encoding="utf-8"?>
<?xml version="1.0" encoding="utf-8"?>
<svg version="1.1" id="Layer_1" xmlns="http://www.w3.org/2000/svg" xmlns:xlink="http://www.w3.org/1999/xlink" x="0px" y="0px"
	 viewBox="0 0 28 28" enable-background="new 0 0 28 28" xml:space="preserve">
<g>
	<defs>
		<rect id="SVGID_1_" width="28" height="28"/>
	</defs>
	<clipPath id="SVGID_2_">
		<use xlink:href="#SVGID_1_"  overflow="visible"/>
	</clipPath>
	<path clip-path="url(#SVGID_2_)" d="M14,9c7.733,0,14-2.014,14-4.5C28,2.015,21.733,0,14,0C6.268,0,0,2.015,0,4.5
		C0,6.986,6.268,9,14,9 M13.985,10.359c-5.762,0-11.399-1.166-13.752-3.418L12,20.805V26c0,1.105,0.897,2,2,2c1.106,0,2-0.895,2-2
		v-5.195l0.936-0.93l0.23,0.152c1.449,1.451,3.862,1.451,5.311,0l2.437-2.416c1.451-1.451,1.461-3.824,0.01-5.274l-0.832-0.838
		l3.816-4.558C25.555,9.193,19.744,10.359,13.985,10.359 M23.469,16.146l-2.418,2.416c-0.645,0.647-1.697,0.647-2.342,0
		l-0.283-0.281l4.338-5.186l0.707,0.706C24.115,14.448,24.115,15.498,23.469,16.146"/>
</g>
</svg>
