<?xml version="1.0" encoding="utf-8"?>
<svg version="1.1" id="Layer_1" xmlns="http://www.w3.org/2000/svg" xmlns:xlink="http://www.w3.org/1999/xlink" x="0px" y="0px" viewBox="0 0 28 28"
	 enable-background="new 0 0 28 28" xml:space="preserve">

		<g>
			<defs>
				<rect id="SVGID_1_" width="28" height="28"/>
			</defs>
			<clipPath id="SVGID_2_">
				<use xlink:href="#SVGID_1_"  overflow="visible"/>
			</clipPath>
			<path clip-path="url(#SVGID_2_)" fill="#231F20" d="M18,11.995V15c0,1.103,0.895,2,2,2h1c1.104,0,2-0.897,2-2v-3.005
				c0-1.105-0.896-2-2-2h-1C18.895,9.995,18,10.89,18,11.995"/>
			<path clip-path="url(#SVGID_2_)" fill="#231F20" d="M11.121,10.443l3.303-7.293l-0.323-1.268
				c-0.341-1.337-1.703-2.146-3.041-1.804c-1.337,0.34-2.146,1.701-1.805,3.039L11.121,10.443z"/>
			<path clip-path="url(#SVGID_2_)" fill="#231F20" d="M26,13h-1c-0.366,0-0.705,0.105-1,0.277V15c0,0.883-0.391,1.67-1,2.22v0.785
				c0,1.103,0.895,2,2,2h1c1.104,0,2-0.897,2-2V15C28,13.895,27.104,13,26,13"/>
			<path clip-path="url(#SVGID_2_)" fill="#231F20" d="M22,18.005v-0.189C21.686,17.928,21.353,18,21,18h-1c-1.654,0-3-1.346-3-3
				v-2.99l3.549-7.837c0.568-1.258,0.01-2.741-1.247-3.311c-1.257-0.569-2.739-0.012-3.31,1.247l-2.181,4.817
				c-0.019,0.039-0.046,0.072-0.065,0.112l-3.441,7.602C9.525,16.05,9,16,9,16c-3.994-2.127-6.5-2-6.5-2C1.119,14,0,15.119,0,16.5
				S1.119,19,2.5,19c0.123,0,0.241-0.019,0.359-0.036c0.048,0.011,0.092,0.03,0.146,0.031c0.201,0.002,1.929,1.021,5.02,3.997
				C10,27,13.691,28,17.5,28c4.179,0,7.648-3.02,8.359-6.995H25C23.346,21.005,22,19.659,22,18.005"/>
		</g>

</svg>
