<?xml version="1.0" encoding="utf-8"?>
<svg version="1.1" id="Layer_1" xmlns="http://www.w3.org/2000/svg" xmlns:xlink="http://www.w3.org/1999/xlink" x="0px" y="0px" viewBox="0 0 28 28"
	 enable-background="new 0 0 28 28" xml:space="preserve">

		<g>
			<defs>
				<rect id="SVGID_1_" width="28" height="28"/>
			</defs>
			<clipPath id="SVGID_2_">
				<use xlink:href="#SVGID_1_"  overflow="visible"/>
			</clipPath>
			<path clip-path="url(#SVGID_2_)" fill="#231F20" d="M18.4,5.6c0.448,2.014,0.13,3.518-0.539,4.809C16.037,6.858,12.92,3.28,8,0
				c2,9-8,9.985-8,19c0,5,5,9,10,9h10c4.8,0,8-3.2,8-7.2C28,16,25.6,10.4,18.4,5.6 M18,26h-7.5C8.271,26,6,24.213,6,22.459
				c0-1.453,0.521-2.449,1.521-3.663c0.311,1.517,0.865,2.778,1.854,2.778c2.167,0,2.247-6.034,2.25-7.574
				c1.628,1.933,2.676,3.985,3.123,6.109C15.251,19.038,16.004,17.998,17,17c0.003,1.155,0.074,5.681,2,5.681
				c0.879,0,1.371-0.946,1.648-2.084C21.537,21.508,22,22.254,22,23.344C22,24.66,19.981,26,18,26"/>
		</g>

</svg>
