<?xml version="1.0" encoding="utf-8"?>
<svg version="1.1" id="Layer_1" xmlns="http://www.w3.org/2000/svg" xmlns:xlink="http://www.w3.org/1999/xlink" x="0px" y="0px" viewBox="0 0 28 28"
	 enable-background="new 0 0 28 28" xml:space="preserve">

		<g>
			<defs>
				<rect id="SVGID_1_" width="28" height="28"/>
			</defs>
			<clipPath id="SVGID_2_">
				<use xlink:href="#SVGID_1_"  overflow="visible"/>
			</clipPath>
			<path clip-path="url(#SVGID_2_)" fill="#231F20" d="M27.5,24h-1.793l1.268-1.268c0.195-0.195,0.195-0.511,0-0.707
				c-0.196-0.195-0.512-0.195-0.707,0L25,23.293V21.5c0-0.276-0.224-0.5-0.5-0.5c-0.276,0-0.5,0.224-0.5,0.5v1.793l-1.268-1.268
				c-0.195-0.195-0.511-0.195-0.707,0c-0.195,0.196-0.195,0.512,0,0.707L23.293,24H21.5c-0.276,0-0.5,0.224-0.5,0.5
				c0,0.276,0.224,0.5,0.5,0.5h1.793l-1.268,1.268c-0.195,0.195-0.195,0.511,0,0.707c0.098,0.097,0.226,0.146,0.354,0.146
				s0.256-0.049,0.353-0.146L24,25.707V27.5c0,0.276,0.224,0.5,0.5,0.5c0.276,0,0.5-0.224,0.5-0.5v-1.793l1.268,1.268
				c0.097,0.097,0.225,0.146,0.353,0.146c0.128,0,0.256-0.049,0.354-0.146c0.195-0.196,0.195-0.512,0-0.707L25.707,25H27.5
				c0.276,0,0.5-0.224,0.5-0.5C28,24.224,27.776,24,27.5,24"/>
			<path clip-path="url(#SVGID_2_)" fill="#231F20" d="M14.026,6.525V4.733L15.294,6c0.097,0.097,0.225,0.146,0.353,0.146
				c0.128,0,0.256-0.049,0.354-0.146c0.195-0.196,0.195-0.512,0-0.707l-1.268-1.268h1.793c0.276,0,0.5-0.224,0.5-0.5
				c0-0.276-0.224-0.5-0.5-0.5h-1.793l1.268-1.268c0.195-0.195,0.195-0.511,0-0.707c-0.196-0.195-0.512-0.195-0.707,0l-1.268,1.268
				V0.525c0-0.276-0.224-0.5-0.5-0.5c-0.276,0-0.5,0.224-0.5,0.5v1.793l-1.268-1.268c-0.195-0.195-0.511-0.195-0.707,0
				c-0.195,0.196-0.195,0.512,0,0.707l1.268,1.268h-1.793c-0.276,0-0.5,0.224-0.5,0.5c0,0.276,0.224,0.5,0.5,0.5h1.793l-1.268,1.268
				c-0.195,0.195-0.195,0.511,0,0.707c0.098,0.097,0.226,0.146,0.354,0.146S11.661,6.097,11.758,6l1.268-1.268v1.793
				c0,0.276,0.224,0.5,0.5,0.5C13.802,7.025,14.026,6.802,14.026,6.525"/>
			<path clip-path="url(#SVGID_2_)" fill="#231F20" d="M0,7.2C0,8.194,2.239,9,5,9s5-0.806,5-1.8L5,0L0,7.2z"/>
			<path clip-path="url(#SVGID_2_)" fill="#231F20" d="M4.57,10.492L7,12.057v2.379L3,11.86v-1.495
				c-0.704-0.096-1.387-0.246-2-0.462V21c0,0.749,1.278,1.648,3,1.915V28h2v-5.085C7.722,22.648,9,21.749,9,21V9.903
				C7.809,10.322,6.355,10.5,5,10.5C4.858,10.5,4.714,10.496,4.57,10.492 M7,20.504c-0.114,0.07-0.286,0.147-0.483,0.222L3,18.461
				v-2.378l4,2.576V20.504z"/>
			<path clip-path="url(#SVGID_2_)" fill="#231F20" d="M22.718,8.085c2.48,1.213,4.845,1.473,5.282,0.58L26.673,0l-7.656,4.271
				C18.581,5.164,20.237,6.871,22.718,8.085"/>
			<path clip-path="url(#SVGID_2_)" fill="#231F20" d="M25.924,10.635c-1.158-0.132-2.517-0.544-3.865-1.203
				c-0.134-0.066-0.259-0.14-0.39-0.209l1.503,2.487l-1.046,2.136l-2.461-4.072l0.659-1.346c-0.613-0.413-1.157-0.851-1.593-1.295
				l-4.879,9.973c-0.329,0.673,0.424,2.042,1.854,3.039l-2.235,4.567l1.797,0.879l2.234-4.568c1.664,0.518,3.207,0.271,3.536-0.401
				L25.924,10.635z M19.46,19.297c-0.133,0.012-0.322,0.007-0.532-0.012l-2.164-3.581l1.046-2.136l2.461,4.071L19.46,19.297z"/>
		</g>

</svg>
