<?xml version="1.0" encoding="utf-8"?>
<?xml version="1.0" encoding="utf-8"?>
<svg version="1.1" id="Layer_1" xmlns="http://www.w3.org/2000/svg" xmlns:xlink="http://www.w3.org/1999/xlink" x="0px" y="0px"
	 viewBox="0 0 28 28" enable-background="new 0 0 28 28" xml:space="preserve">
<g>
	<defs>
		<rect id="SVGID_1_" width="28" height="28"/>
	</defs>
	<clipPath id="SVGID_2_">
		<use xlink:href="#SVGID_1_"  overflow="visible"/>
	</clipPath>
	<path clip-path="url(#SVGID_2_)" d="M15.529,20.847c-0.67,0.588-1.863,1.954-1.863,3.859c0,1.207,0.475,2.315,1.264,3.193
		c2.935-0.389,5.187-2.609,5.187-5.297c0-2.227-0.707-4.086-1.689-5.596C18.18,18.087,17.352,19.252,15.529,20.847 M14.541,19.718
		c1.453-1.271,2.246-2.268,2.424-3.046l0.275-1.199c-2.133-2.37-4.674-3.504-4.674-3.504c0.76,2.135,0.657,3.673-2.714,6.621
		c-0.696,0.611-1.936,2.033-1.936,4.012c0,2.678,2.236,4.889,5.156,5.288c-0.586-0.973-0.906-2.068-0.906-3.184
		C12.166,22.083,13.826,20.345,14.541,19.718 M1,28h4V10h18v18h4V6H1V28z M0,5h28V0H0V5z"/>
</g>
</svg>
