<?xml version="1.0" encoding="utf-8"?>
<svg version="1.1" id="Layer_1" xmlns="http://www.w3.org/2000/svg" xmlns:xlink="http://www.w3.org/1999/xlink" x="0px" y="0px" viewBox="0 0 28 28"
	 enable-background="new 0 0 28 28" xml:space="preserve">

	<g>
		<rect x="3.001" y="24" fill="#231F20" width="12" height="4"/>
		<rect x="3.001" y="14" fill="#231F20" width="11.999" height="9"/>
		<g>
			<defs>
				<rect id="SVGID_1_" width="28" height="28"/>
			</defs>
			<clipPath id="SVGID_2_">
				<use xlink:href="#SVGID_1_"  overflow="visible"/>
			</clipPath>
			<path clip-path="url(#SVGID_2_)" fill="#231F20" d="M22,8l1.5,10h0.502v6c0,1.103-0.898,2-2,2C20.899,26,20,25.103,20,24V9
				c0-3.3-2.7-6-5.999-6h-3V2H7.924C7.491,0.834,6.378,0,5.062,0C3.372,0,2.001,1.37,2.001,3.063c0,1.027,0.509,1.931,1.286,2.486
				C2.263,6.333,1.27,7.316,0.294,8.293c-0.391,0.391-0.391,1.023,0,1.414C0.49,9.902,0.746,10,1.002,10
				c0.255,0,0.511-0.098,0.706-0.293C3.53,7.885,5.415,6,7.001,6v0.353c-2.324,0.829-4,3.048-4,5.647v1H15v-1
				c0-2.599-1.676-4.818-3.999-5.647V5h3c2.206,0,4,1.794,4,4v15c0,2.206,1.793,4,4,4C24.208,28,26,26.206,26,24v-6h0.5L28,8H22z
				 M5.062,4.124c-0.585,0-1.061-0.477-1.061-1.061C4.001,2.477,4.477,2,5.062,2c0.586,0,1.062,0.477,1.062,1.063
				C6.124,3.647,5.648,4.124,5.062,4.124"/>
		</g>
	</g>

</svg>
