<?xml version="1.0" encoding="utf-8"?>
<svg version="1.1" id="Layer_1" xmlns="http://www.w3.org/2000/svg" xmlns:xlink="http://www.w3.org/1999/xlink" x="0px" y="0px" viewBox="0 0 28 28"
	 enable-background="new 0 0 28 28" xml:space="preserve">

		<g>
			<defs>
				<rect id="SVGID_1_" width="28" height="28"/>
			</defs>
			<clipPath id="SVGID_2_">
				<use xlink:href="#SVGID_1_"  overflow="visible"/>
			</clipPath>
			<path clip-path="url(#SVGID_2_)" fill="#231F20" d="M27.896,1.321c-0.077-0.594-0.624-1.142-1.219-1.218
				c0,0-9.239-1.178-14.791,4.375C8.353,8.011,8.05,15.431,8.05,15.431c-0.025,0.58-0.495,1.154-1.046,1.277L0,18.25l3.131,1.745
				l2.12,1.18c0.556,0.311,1.263,1.018,1.572,1.573l1.181,2.119L9.748,28l1.542-7.006c0.123-0.55,0.697-1.02,1.278-1.046
				c0,0,7.42-0.301,10.954-3.836C29.072,10.562,27.896,1.321,27.896,1.321 M22.962,6.836c-0.586,0.586-1.534,0.586-2.12,0.001
				c-0.588-0.588-0.589-1.537-0.001-2.122c0.586-0.589,1.533-0.589,2.12-0.001C23.549,5.301,23.547,6.248,22.962,6.836"/>
		</g>

</svg>
