<?xml version="1.0" encoding="utf-8"?>
<svg version="1.1" id="Layer_1" xmlns="http://www.w3.org/2000/svg" xmlns:xlink="http://www.w3.org/1999/xlink" x="0px" y="0px" viewBox="0 0 28 28"
	 enable-background="new 0 0 28 28" xml:space="preserve">

		<g>
			<defs>
				<rect id="SVGID_1_" width="28" height="28"/>
			</defs>
			<clipPath id="SVGID_2_">
				<use xlink:href="#SVGID_1_"  overflow="visible"/>
			</clipPath>
			<path clip-path="url(#SVGID_2_)" fill="#231F20" d="M2,2h24c0.553,0,1-0.447,1-1c0-0.553-0.447-1-1-1H2C1.447,0,1,0.447,1,1
				C1,1.553,1.447,2,2,2"/>
			<path clip-path="url(#SVGID_2_)" fill="#231F20" d="M17,17c-0.552-0.001-0.998,0.445-1,1c0,0.553,0.448,1,1,1
				c0.556,0,1-0.447,1-1C18,17.445,17.558,16.999,17,17"/>
			<path clip-path="url(#SVGID_2_)" fill="#231F20" d="M24,3H4c-1.61,2.8-4,9-4,13c0,6,3,10,8,12h12c5-2,8-6,8-12
				C28,12,25.61,5.8,24,3 M20.88,18.419c0,0-2.498,3.581-5.935,3.581c-2.186,0.001-4.579-2.445-4.579-2.445
				c-0.187-0.193-0.511-0.228-0.72-0.081L7,21.353l0.431-1.676L7.72,18.54c0.078-0.297,0.077-0.783,0.002-1.08l-0.291-1.137
				l-0.43-1.675l2.645,1.878c0.209,0.147,0.533,0.112,0.72-0.082c0,0,2.392-2.444,4.579-2.444c3.439,0,5.935,3.581,5.935,3.581
				C21.04,17.812,21.04,18.189,20.88,18.419 M20,14c-0.553,0-1-0.447-1-1c0-0.553,0.447-1,1-1c0.553,0,1,0.447,1,1
				C21,13.553,20.553,14,20,14 M21,10.5c-0.828,0-1.5-0.672-1.5-1.5c0-0.828,0.672-1.5,1.5-1.5c0.828,0,1.5,0.672,1.5,1.5
				C22.5,9.828,21.828,10.5,21,10.5"/>
		</g>

</svg>
