<?xml version="1.0" encoding="utf-8"?>
<svg version="1.1" id="Layer_1" xmlns="http://www.w3.org/2000/svg" xmlns:xlink="http://www.w3.org/1999/xlink" x="0px" y="0px" viewBox="0 0 28 28"
	 enable-background="new 0 0 28 28" xml:space="preserve">

		<g>
			<defs>
				<rect id="SVGID_1_" width="28" height="28"/>
			</defs>
			<clipPath id="SVGID_2_">
				<use xlink:href="#SVGID_1_"  overflow="visible"/>
			</clipPath>
			<path clip-path="url(#SVGID_2_)" fill="#231F20" d="M25.298,13.893c3.499-5.488,2.598-12.57,2.598-12.57
				c-0.076-0.594-0.624-1.142-1.219-1.218c0,0-7.08-0.902-12.569,2.598l5.242,5.242l-1.767,1.768l-1.707-1.707
				c-0.196-0.195-0.512-0.195-0.708,0c-0.195,0.195-0.195,0.512,0,0.707l1.707,1.707l-1.414,1.414l-1.707-1.707
				c-0.195-0.195-0.511-0.195-0.707,0c-0.195,0.196-0.195,0.512,0,0.707l1.707,1.708l-1.414,1.414l-1.707-1.707
				c-0.195-0.196-0.512-0.196-0.707,0c-0.196,0.195-0.196,0.511,0,0.707l1.707,1.707l-1.414,1.414L9.512,14.37
				c-0.196-0.195-0.512-0.195-0.708,0c-0.195,0.195-0.195,0.512,0,0.707l1.707,1.707l-1.767,1.768L6.92,16.729L0,18.252l3.131,1.745
				l2.12,1.18c0.556,0.311,1.263,1.017,1.572,1.573l1.181,2.119l1.744,3.133l1.524-6.922l-1.821-1.821l1.768-1.768l1.828,1.829
				c0.196,0.195,0.512,0.195,0.707,0c0.196-0.196,0.196-0.512,0-0.707l-1.828-1.829l1.414-1.414l1.828,1.829
				c0.196,0.195,0.512,0.195,0.708,0c0.195-0.196,0.195-0.512,0-0.708l-1.829-1.828l1.414-1.414l1.829,1.828
				c0.195,0.196,0.511,0.196,0.707,0c0.195-0.195,0.195-0.512,0-0.707l-1.829-1.828l1.415-1.415l1.828,1.829
				c0.196,0.195,0.512,0.195,0.707,0c0.196-0.196,0.196-0.512,0-0.707L18.29,10.42l1.767-1.767L25.298,13.893z M20.841,4.717
				c0.586-0.589,1.533-0.589,2.12-0.001c0.588,0.587,0.586,1.534,0.001,2.122c-0.586,0.586-1.534,0.586-2.12,0.001
				C20.254,6.251,20.253,5.302,20.841,4.717"/>
		</g>

</svg>
