<?xml version="1.0" encoding="utf-8"?>
<svg version="1.1" id="Layer_1" xmlns="http://www.w3.org/2000/svg" xmlns:xlink="http://www.w3.org/1999/xlink" x="0px" y="0px" viewBox="0 0 28 28"
	 enable-background="new 0 0 28 28" xml:space="preserve">

		<g>
			<defs>
				<rect id="SVGID_1_" width="28" height="28"/>
			</defs>
			<clipPath id="SVGID_2_">
				<use xlink:href="#SVGID_1_"  overflow="visible"/>
			</clipPath>
			<path clip-path="url(#SVGID_2_)" fill="#231F20" d="M28.001,3.119v-2c-8.334-1.44-16.667,1.441-25,0v10
				c8.333,1.441,16.666-1.44,25,0v-2c-5-0.864-10-0.173-15,0.207v-2c5-0.38,10-1.071,15-0.207v-2c-5-0.864-10-0.173-15,0.207v-2
				C18.001,2.946,23.001,2.255,28.001,3.119 M5.618,10.439c-0.206-0.129-0.411-0.26-0.617-0.395
				c-0.207,0.095-0.412,0.186-0.618,0.276c0.039-0.237,0.078-0.473,0.118-0.71c-0.167-0.19-0.333-0.383-0.5-0.576
				c0.23-0.004,0.46-0.011,0.69-0.021c0.103-0.208,0.207-0.417,0.31-0.627C5.104,8.615,5.207,8.845,5.31,9.072
				C5.54,9.127,5.77,9.18,6.001,9.229C5.834,9.389,5.667,9.549,5.5,9.706C5.54,9.951,5.579,10.195,5.618,10.439 M5.5,6.706
				c0.04,0.245,0.079,0.489,0.118,0.733C5.412,7.31,5.207,7.179,5.001,7.044C4.794,7.139,4.589,7.23,4.383,7.32
				c0.039-0.237,0.078-0.473,0.118-0.71c-0.167-0.19-0.333-0.383-0.5-0.576c0.23-0.004,0.46-0.011,0.69-0.021
				c0.103-0.208,0.207-0.417,0.31-0.627C5.104,5.615,5.207,5.845,5.31,6.072C5.54,6.127,5.77,6.18,6.001,6.229
				C5.834,6.389,5.667,6.549,5.5,6.706 M5.5,3.706c0.04,0.245,0.079,0.489,0.118,0.733C5.412,4.31,5.207,4.179,5.001,4.044
				C4.794,4.139,4.589,4.23,4.383,4.32c0.039-0.237,0.078-0.473,0.118-0.71c-0.167-0.19-0.333-0.383-0.5-0.576
				c0.23-0.004,0.46-0.011,0.69-0.021c0.103-0.208,0.207-0.417,0.31-0.627C5.104,2.615,5.207,2.845,5.31,3.072
				C5.54,3.127,5.77,3.18,6.001,3.229C5.834,3.389,5.667,3.549,5.5,3.706 M8.618,10.533c-0.206-0.112-0.411-0.225-0.617-0.341
				c-0.207,0.113-0.412,0.224-0.618,0.332c0.039-0.24,0.078-0.48,0.118-0.72c-0.167-0.175-0.333-0.351-0.5-0.528
				c0.23-0.026,0.46-0.055,0.69-0.088c0.103-0.217,0.207-0.435,0.31-0.654c0.103,0.22,0.206,0.44,0.309,0.659
				c0.23,0.034,0.46,0.068,0.691,0.099C8.834,9.466,8.667,9.639,8.5,9.811C8.54,10.052,8.579,10.293,8.618,10.533 M8.5,6.811
				c0.04,0.241,0.079,0.482,0.118,0.722C8.412,7.421,8.207,7.308,8.001,7.192C7.794,7.305,7.589,7.416,7.383,7.524
				c0.039-0.24,0.078-0.48,0.118-0.72c-0.167-0.175-0.333-0.351-0.5-0.528c0.23-0.026,0.46-0.055,0.69-0.088
				c0.103-0.217,0.207-0.435,0.31-0.654c0.103,0.22,0.206,0.44,0.309,0.659c0.23,0.034,0.46,0.068,0.691,0.099
				C8.834,6.466,8.667,6.639,8.5,6.811 M8.5,3.811c0.04,0.241,0.079,0.482,0.118,0.722C8.412,4.421,8.207,4.308,8.001,4.192
				C7.794,4.305,7.589,4.416,7.383,4.524c0.039-0.24,0.078-0.48,0.118-0.72c-0.167-0.175-0.333-0.351-0.5-0.528
				c0.23-0.026,0.46-0.055,0.69-0.088c0.103-0.217,0.207-0.435,0.31-0.654c0.103,0.22,0.206,0.44,0.309,0.659
				c0.23,0.034,0.46,0.068,0.691,0.099C8.834,3.466,8.667,3.639,8.5,3.811 M11.618,10.422c-0.206-0.101-0.411-0.203-0.617-0.307
				c-0.207,0.125-0.412,0.249-0.618,0.372c0.039-0.243,0.078-0.486,0.118-0.729c-0.167-0.163-0.333-0.327-0.5-0.493
				c0.23-0.043,0.46-0.088,0.69-0.134c0.103-0.224,0.207-0.448,0.31-0.674c0.103,0.215,0.206,0.428,0.309,0.642
				c0.23,0.021,0.46,0.042,0.691,0.061c-0.167,0.183-0.334,0.364-0.501,0.546C11.54,9.944,11.579,10.184,11.618,10.422 M11.5,6.706
				c0.04,0.238,0.079,0.478,0.118,0.716c-0.206-0.101-0.411-0.203-0.617-0.307c-0.207,0.125-0.412,0.249-0.618,0.372
				c0.039-0.243,0.078-0.486,0.118-0.729c-0.167-0.163-0.333-0.327-0.5-0.493c0.23-0.043,0.46-0.088,0.69-0.134
				c0.103-0.224,0.207-0.448,0.31-0.674c0.103,0.215,0.206,0.428,0.309,0.642c0.23,0.021,0.46,0.042,0.691,0.061
				C11.834,6.343,11.667,6.524,11.5,6.706 M11.5,3.706c0.04,0.238,0.079,0.478,0.118,0.716c-0.206-0.101-0.411-0.203-0.617-0.307
				c-0.207,0.125-0.412,0.249-0.618,0.372c0.039-0.243,0.078-0.486,0.118-0.729c-0.167-0.163-0.333-0.327-0.5-0.493
				c0.23-0.043,0.46-0.088,0.69-0.134c0.103-0.224,0.207-0.448,0.31-0.674c0.103,0.215,0.206,0.428,0.309,0.642
				c0.23,0.021,0.46,0.042,0.691,0.061C11.834,3.343,11.667,3.524,11.5,3.706"/>
			<path clip-path="url(#SVGID_2_)" fill="#231F20" d="M3,13.119v2c8.333,1.44,16.667-1.44,25,0v-2
				C19.667,11.679,11.333,14.559,3,13.119"/>
			<path clip-path="url(#SVGID_2_)" fill="#231F20" d="M3,17.119v2c8.333,1.44,16.667-1.44,25,0v-2
				C19.667,15.679,11.333,18.559,3,17.119"/>
			<path clip-path="url(#SVGID_2_)" fill="#231F20" d="M1,0.119c-0.552,0-1,0.447-1,1v27h2v-27C2,0.566,1.552,0.119,1,0.119"/>
		</g>

</svg>
