<?xml version="1.0" encoding="utf-8"?>
<?xml version="1.0" encoding="utf-8"?>
<svg version="1.1" id="Layer_1" xmlns="http://www.w3.org/2000/svg" xmlns:xlink="http://www.w3.org/1999/xlink" x="0px" y="0px"
	 viewBox="0 0 28 28" enable-background="new 0 0 28 28" xml:space="preserve">
<g>
	<defs>
		<rect id="SVGID_1_" width="28" height="28"/>
	</defs>
	<clipPath id="SVGID_2_">
		<use xlink:href="#SVGID_1_"  overflow="visible"/>
	</clipPath>
	<path clip-path="url(#SVGID_2_)" d="M6.999,12l1,1l-3,3l-1-1L6.999,12z M4.999,28L0,23l12.146-12.147l4.999,5.001L4.999,28z M23,14
		c-0.951,0.95-2.143,1.191-3.382,1.191c-0.564,0-1.139-0.05-1.704-0.106l-0.062,0.062l-4.999-5.001l0.061-0.061
		C12.736,8.28,12.614,6.383,13.999,5l1.864-1.864l0.23-0.336l9.107,9.108l-0.336,0.229L23,14z M26.041,11.334l-9.376-9.377L17.999,0
		L28,10L26.041,11.334z"/>
</g>
</svg>
