<?xml version="1.0" encoding="utf-8"?>
<?xml version="1.0" encoding="utf-8"?>
<svg version="1.1" id="Layer_1" xmlns="http://www.w3.org/2000/svg" xmlns:xlink="http://www.w3.org/1999/xlink" x="0px" y="0px"
	 viewBox="0 0 28 28" enable-background="new 0 0 28 28" xml:space="preserve">
<g>
	<defs>
		<rect id="SVGID_1_" width="28" height="28"/>
	</defs>
	<clipPath id="SVGID_2_">
		<use xlink:href="#SVGID_1_"  overflow="visible"/>
	</clipPath>
	<path clip-path="url(#SVGID_2_)" d="M28,14.002c0-1.477-2.02-2.793-5.178-3.656C24.445,7.5,24.943,5.141,23.9,4.098
		c-1.043-1.043-3.402-0.545-6.246,1.078C16.789,2.019,15.475,0,14,0s-2.789,2.019-3.654,5.176C7.502,3.553,5.144,3.057,4.1,4.1
		c-1.041,1.043-0.543,3.402,1.078,6.246C2.019,11.209,0,12.525,0,14.002c0,1.475,2.019,2.789,5.178,3.652
		c-1.621,2.844-2.119,5.201-1.076,6.244c1.042,1.043,3.4,0.547,6.244-1.074C11.209,25.98,12.523,28,14,28s2.791-2.02,3.654-5.176
		c2.844,1.621,5.201,2.117,6.246,1.076c1.043-1.043,0.547-3.402-1.076-6.246C25.98,16.791,28,15.477,28,14.002 M14,18.751
		c-2.623,0-4.75-2.127-4.75-4.749c0-2.624,2.127-4.751,4.75-4.751c2.625,0,4.75,2.127,4.75,4.751
		C18.75,16.624,16.625,18.751,14,18.751"/>
</g>
</svg>
