<?xml version="1.0" encoding="utf-8"?>
<svg version="1.1" id="Layer_1" xmlns="http://www.w3.org/2000/svg" xmlns:xlink="http://www.w3.org/1999/xlink" x="0px" y="0px" viewBox="0 0 28 28"
	 enable-background="new 0 0 28 28" xml:space="preserve">

	<g>
		<polygon fill="#231F20" points="6,18 8,28 19.999,28 21.999,18 		"/>
		<g>
			<defs>
				<rect id="SVGID_1_" width="28" height="28"/>
			</defs>
			<clipPath id="SVGID_2_">
				<use xlink:href="#SVGID_1_"  overflow="visible"/>
			</clipPath>
			<path clip-path="url(#SVGID_2_)" fill="#231F20" d="M26.549,5.342c1.047-0.749,1.611-1.508,1.411-2.053
				c-0.202-0.544-1.128-0.755-2.407-0.641c0.211-1.268,0.071-2.205-0.454-2.446c-0.527-0.242-1.329,0.262-2.154,1.249
				c-0.75-1.046-1.511-1.611-2.056-1.411c-0.544,0.201-0.752,1.126-0.638,2.408c-1.27-0.211-2.206-0.071-2.448,0.454
				c-0.242,0.527,0.263,1.327,1.25,2.154c-1.047,0.749-1.612,1.508-1.41,2.053c0.203,0.544,1.127,0.752,2.408,0.641
				c-0.211,1.268-0.073,2.206,0.455,2.448c0.525,0.241,1.327-0.264,2.152-1.25c0.748,1.043,1.509,1.609,2.053,1.409
				c0.546-0.202,0.754-1.125,0.64-2.407c1.27,0.212,2.206,0.072,2.448-0.455C28.041,6.969,27.537,6.168,26.549,5.342 M24.164,5.825
				c-0.346,0.753-1.238,1.083-1.99,0.737c-0.752-0.344-1.082-1.237-0.736-1.99c0.346-0.753,1.238-1.082,1.99-0.736
				C24.18,4.18,24.51,5.072,24.164,5.825"/>
			<path clip-path="url(#SVGID_2_)" fill="#231F20" d="M6,12c0.633,0,1.196-0.865,1.566-2.218c1.219,0.695,2.229,0.907,2.676,0.461
				c0.447-0.446,0.235-1.458-0.461-2.676C11.135,7.196,12,6.634,12,6.001c0-0.633-0.865-1.197-2.219-1.567
				c0.696-1.22,0.908-2.231,0.461-2.678C9.796,1.31,8.785,1.522,7.566,2.218C7.195,0.865,6.633,0,6,0S4.805,0.865,4.434,2.218
				C3.215,1.522,2.205,1.311,1.758,1.757C1.311,2.204,1.524,3.215,2.219,4.434C0.865,4.804,0,5.368,0,6.001
				c0,0.633,0.865,1.195,2.219,1.566c-0.695,1.218-0.908,2.229-0.461,2.675c0.447,0.447,1.457,0.235,2.676-0.46
				C4.804,11.135,5.367,12,6,12 M6,4.5c0.829,0,1.5,0.672,1.5,1.5c0,0.828-0.671,1.5-1.5,1.5C5.172,7.5,4.5,6.828,4.5,6
				C4.5,5.172,5.172,4.5,6,4.5"/>
			<path clip-path="url(#SVGID_2_)" fill="#231F20" d="M18.185,9.727c0.399-0.102,0.643-0.508,0.542-0.908
				c-0.101-0.402-0.507-0.651-0.909-0.546c-0.033,0.008-2.36,0.623-3.68,2.997c-0.328-1.004-0.833-2.024-1.608-2.8
				c-0.293-0.293-0.768-0.293-1.061,0c-0.293,0.293-0.293,0.768,0,1.061c1.21,1.21,1.598,3.338,1.722,4.552H3.999v2.876h20v-2.876
				h-9.191C15.235,10.553,18.05,9.762,18.185,9.727"/>
		</g>
	</g>
</svg>
