<?xml version="1.0" encoding="utf-8"?>
<?xml version="1.0" encoding="utf-8"?>
<svg version="1.1" id="Layer_1" xmlns="http://www.w3.org/2000/svg" xmlns:xlink="http://www.w3.org/1999/xlink" x="0px" y="0px"
	 viewBox="0 0 28 28" enable-background="new 0 0 28 28" xml:space="preserve">
<g>
	<defs>
		<rect id="SVGID_1_" width="28" height="28"/>
	</defs>
	<clipPath id="SVGID_2_">
		<use xlink:href="#SVGID_1_"  overflow="visible"/>
	</clipPath>
	<path clip-path="url(#SVGID_2_)" d="M21.5,3C19.567,3,18,4.567,18,6.5c0,0.723,0.22,1.394,0.595,1.951l1.133-1.042
		C19.588,7.135,19.5,6.829,19.5,6.5c0-1.104,0.897-2,2-2c1.102,0,2,0.896,2,2s-0.898,2-2,2c-0.411,0-0.794-0.125-1.112-0.339
		l-1.112,1.021C19.883,9.686,20.651,10,21.5,10c1.933,0,3.5-1.567,3.5-3.5S23.433,3,21.5,3"/>
	<path clip-path="url(#SVGID_2_)" d="M6.5,3C4.567,3,3,4.567,3,6.5S4.567,10,6.5,10c0.849,0,1.617-0.314,2.224-0.818L7.612,8.161
		C7.294,8.375,6.911,8.5,6.5,8.5c-1.103,0-2-0.896-2-2s0.897-2,2-2c1.102,0,2,0.896,2,2c0,0.329-0.088,0.635-0.229,0.909
		l1.134,1.042C9.78,7.894,10,7.223,10,6.5C10,4.567,8.433,3,6.5,3"/>
	<path clip-path="url(#SVGID_2_)" d="M14.5,19.678c0.334,0.087,0.652,0.252,0.914,0.514c0.781,0.782,0.779,2.049,0,2.83
		c-0.78,0.778-2.048,0.779-2.828,0c-0.781-0.781-0.779-2.049,0-2.83c0.262-0.262,0.58-0.427,0.914-0.514v-1.522
		c-0.723,0.104-1.42,0.421-1.975,0.976c-1.367,1.367-1.367,3.583,0,4.949c0.683,0.684,1.579,1.026,2.475,1.026
		c0.895,0,1.792-0.342,2.475-1.026c1.367-1.366,1.367-3.582,0-4.949c-0.555-0.555-1.252-0.872-1.975-0.976V19.678z"/>
	<path clip-path="url(#SVGID_2_)" d="M24,0H4C1.8,0,0,1.8,0,4v20c0,2.2,1.8,4,4,4h20c2.2,0,4-1.8,4-4V4C28,1.8,26.2,0,24,0 M21.5,11
		c-1.139,0-2.169-0.439-2.962-1.139l-3.28,3.015c0.011,0.334-0.105,0.67-0.359,0.925c-0.118,0.117-0.255,0.203-0.399,0.263v3.092
		c1.011,0.113,1.952,0.539,2.682,1.269c0.85,0.849,1.318,1.98,1.318,3.181c0,1.203-0.468,2.333-1.318,3.182
		c-0.85,0.851-1.98,1.318-3.182,1.318s-2.332-0.467-3.182-1.318C9.968,23.939,9.5,22.809,9.5,21.606
		c0-1.201,0.468-2.332,1.318-3.181c0.73-0.73,1.671-1.156,2.682-1.269v-3.111c-0.132-0.061-0.26-0.136-0.368-0.244
		c-0.248-0.248-0.367-0.575-0.363-0.901L9.462,9.861C8.669,10.561,7.639,11,6.5,11C4.019,11,2,8.981,2,6.5S4.019,2,6.5,2
		S11,4.019,11,6.5c0,0.982-0.325,1.885-0.861,2.625l3.089,2.841c0.455-0.375,1.097-0.378,1.557-0.013l3.076-2.828
		C17.325,8.385,17,7.482,17,6.5C17,4.019,19.019,2,21.5,2S26,4.019,26,6.5S23.981,11,21.5,11"/>
</g>
</svg>
