<?xml version="1.0" encoding="utf-8"?>
<svg version="1.1" id="Layer_1" xmlns="http://www.w3.org/2000/svg" xmlns:xlink="http://www.w3.org/1999/xlink" x="0px" y="0px" viewBox="0 0 28 28"
	 enable-background="new 0 0 28 28" xml:space="preserve">

		<g>
			<defs>
				<rect id="SVGID_1_" width="28" height="28"/>
			</defs>
			<clipPath id="SVGID_2_">
				<use xlink:href="#SVGID_1_"  overflow="visible"/>
			</clipPath>
			<path clip-path="url(#SVGID_2_)" fill="#231F20" d="M12,18.815v-7.186c0-2.258-1.307-2.799-2.904-1.202l-2.407,2.405
				c-1.597,1.597-3.669,4.586-4.604,6.642L0.35,23.289c-0.935,2.056,0.067,3.195,2.226,2.531l5.498-1.691
				C10.233,23.464,12,21.073,12,18.815"/>
			<path clip-path="url(#SVGID_2_)" fill="#231F20" d="M27.65,23.289l-1.735-3.816c-0.935-2.056-3.007-5.044-4.604-6.641
				l-2.406-2.405C17.307,8.83,16,9.371,16,11.629v7.186c0,2.258,1.767,4.649,3.926,5.313l5.498,1.691
				C27.583,26.484,28.585,25.345,27.65,23.289"/>
			<polygon clip-path="url(#SVGID_2_)" fill="#231F20" points="20.44,10.548 24,9.361 24,7.001 23,7.001 23,8.64 19.649,9.757 			
				"/>
			<polygon clip-path="url(#SVGID_2_)" fill="#231F20" points="8.351,9.757 5,8.64 5,7.001 4,7.001 4,9.361 7.56,10.548 			"/>
			<path clip-path="url(#SVGID_2_)" fill="#231F20" d="M22.017,12.125c0.258,0.258,0.529,0.558,0.804,0.876h1.971l1.854,1.853
				l0.707-0.707l-2.146-2.146h-3.314L22.017,12.125z"/>
			<path clip-path="url(#SVGID_2_)" fill="#231F20" d="M15,18.815v-7.186c0-2.134,0.994-3.015,2-3.128c1.657,0,3-1.343,3-3
				c0-1.657-1.343-3-3-3c-0.144,0-0.281,0.021-0.419,0.042l0.925-1.78c0.128-0.245,0.032-0.547-0.213-0.674
				c-0.242-0.129-0.547-0.033-0.674,0.213l-1.104,2.124C15.071,2.159,14.556,2.001,14,2.001c-0.544,0-1.049,0.152-1.487,0.408
				l-1.066-2.131c-0.124-0.248-0.424-0.348-0.671-0.224c-0.247,0.124-0.346,0.424-0.223,0.671l0.911,1.822
				C11.312,2.522,11.159,2.501,11,2.501c-1.657,0-3,1.343-3,3c0,1.657,1.343,3,3,3c1.006,0.113,2,0.994,2,3.128v7.186
				c0,2.376-1.557,4.781-3.685,5.881c0.696,1.923,2.522,3.305,4.685,3.305s3.989-1.382,4.685-3.305
				C16.557,23.596,15,21.191,15,18.815"/>
			<path clip-path="url(#SVGID_2_)" fill="#231F20" d="M3.207,13.001h1.972c0.274-0.318,0.546-0.618,0.803-0.876l0.125-0.124H2.793
				l-2.147,2.146l0.707,0.708L3.207,13.001z"/>
		</g>

</svg>
