<?xml version="1.0" encoding="utf-8"?>
<svg version="1.1" id="Layer_1" xmlns="http://www.w3.org/2000/svg" xmlns:xlink="http://www.w3.org/1999/xlink" x="0px" y="0px" viewBox="0 0 28 28"
	 enable-background="new 0 0 28 28" xml:space="preserve">

		<g>
			<defs>
				<rect id="SVGID_1_" width="28" height="28"/>
			</defs>
			<clipPath id="SVGID_2_">
				<use xlink:href="#SVGID_1_"  overflow="visible"/>
			</clipPath>
			<path clip-path="url(#SVGID_2_)" fill="#231F20" d="M7,7.001c1.936,0,3.5-1.566,3.5-3.5c0-1.932-1.564-3.5-3.5-3.5
				c-1.93,0-3.5,1.568-3.5,3.5C3.5,5.435,5.07,7.001,7,7.001"/>
			<path clip-path="url(#SVGID_2_)" fill="#231F20" d="M10,24.001H4c-0.55,0-1,0.45-1,1v3h8v-3C11,24.451,10.55,24.001,10,24.001"/>
			<path clip-path="url(#SVGID_2_)" fill="#231F20" d="M21,7.001c1.936,0,3.5-1.566,3.5-3.5c0-1.932-1.564-3.5-3.5-3.5
				c-1.93,0-3.5,1.568-3.5,3.5C17.5,5.435,19.07,7.001,21,7.001"/>
			<path clip-path="url(#SVGID_2_)" fill="#231F20" d="M24,24.001h-6c-0.55,0-1,0.45-1,1v3h8v-3C25,24.451,24.55,24.001,24,24.001"
				/>
			<path clip-path="url(#SVGID_2_)" fill="#231F20" d="M26,12.001c0-2.407-2.257-4-5.014-4c-2.754,0-4.986,1.593-4.986,4h-4
				c0-2.407-2.257-4-5.014-4c-2.754,0-4.986,1.593-4.986,4H0v3h2l2,4.4v3.6h6v-3.6l2-4.4h4l2,4.4v3.6h6v-3.6l2-4.4h2v-3H26z"/>
		</g>

</svg>
