<?xml version="1.0" encoding="utf-8"?>
<svg version="1.1" id="Layer_1" xmlns="http://www.w3.org/2000/svg" xmlns:xlink="http://www.w3.org/1999/xlink" x="0px" y="0px" viewBox="0 0 28 28"
	 enable-background="new 0 0 28 28" xml:space="preserve">

		<g>
			<defs>
				<rect id="SVGID_1_" width="28" height="28"/>
			</defs>
			<clipPath id="SVGID_2_">
				<use xlink:href="#SVGID_1_"  overflow="visible"/>
			</clipPath>
			<path clip-path="url(#SVGID_2_)" fill="#231F20" d="M24.855,11.133C24.501,12.82,24.858,11.163,24.855,11.133"/>
			<path clip-path="url(#SVGID_2_)" fill="#231F20" d="M23.556,6.007c-1.208-1.146-3.089-1.871-4.735-1.394
				c-1.509,0.437-2.571,1.694-2.129,3.038c1.959,5.944-1.111,7.297-1.352,7.419c-1.081,0.545-1.858,1-2.349,2.057
				c-0.884,1.904,1.18,3.583,2.873,3.902c0.903,0.17,1.87,0.006,2.61-0.561c0.964-0.737,1.304-2.02,2.069-2.933
				c1.742-2.077,3.721-3.586,4.312-6.402c0.013,0.116,0.116-0.714,0.13-0.88c0.048-0.588,0.019-1.184-0.106-1.762
				C24.681,7.57,24.243,6.659,23.556,6.007"/>
			<path clip-path="url(#SVGID_2_)" fill="#231F20" d="M26.205,8.378c0.239,0.087,0.511,0.1,0.777,0.027
				c0.673-0.197,1.065-0.9,0.868-1.575c-0.187-0.68-0.896-1.069-1.568-0.872c-0.67,0.191-1.061,0.893-0.868,1.575L25.41,7.524
				C25.531,7.939,25.83,8.242,26.205,8.378"/>
			<path clip-path="url(#SVGID_2_)" fill="#231F20" d="M18.019,3.918c0.409-0.062,0.8-0.304,1.07-0.709
				c0.544-0.847,0.386-2.088-0.368-2.772c-0.744-0.685-1.803-0.547-2.356,0.301c-0.554,0.836-0.388,2.076,0.357,2.761
				C17.115,3.85,17.573,3.986,18.019,3.918"/>
			<path clip-path="url(#SVGID_2_)" fill="#231F20" d="M24.277,5.315c0.484,0.176,1.05,0.04,1.4-0.375
				c0.457-0.539,0.385-1.348-0.147-1.796c-0.537-0.459-1.342-0.387-1.789,0.148c-0.456,0.539-0.385,1.347,0.147,1.796
				C24.005,5.193,24.14,5.265,24.277,5.315"/>
			<path clip-path="url(#SVGID_2_)" fill="#231F20" d="M21.043,3.652c0.048,0.018,0.089,0.032,0.139,0.043
				c0.68,0.169,1.364-0.256,1.533-0.939c0.162-0.685-0.261-1.372-0.943-1.535c-0.68-0.169-1.362,0.248-1.527,0.941
				C20.087,2.793,20.443,3.434,21.043,3.652"/>
			<path clip-path="url(#SVGID_2_)" fill="#231F20" d="M27.884,10.251c-0.283-0.606-1.088-0.898-1.692-0.615
				c-0.3,0.147-0.54,0.409-0.654,0.724c-0.113,0.315-0.095,0.67,0.042,0.976c0.147,0.3,0.407,0.542,0.72,0.656
				c0.314,0.114,0.668,0.095,0.972-0.042c0.299-0.147,0.54-0.408,0.654-0.723C28.039,10.912,28.02,10.556,27.884,10.251"/>
			<path clip-path="url(#SVGID_2_)" fill="#231F20" d="M2.926,15.017C2.911,15.044,2.592,16.745,2.926,15.017"/>
			<path clip-path="url(#SVGID_2_)" fill="#231F20" d="M11.179,11.294c-1.359-1.106-3.414-1.174-5.003-0.579
				c-0.905,0.339-1.676,1.021-2.227,1.808c-0.346,0.493-0.609,1.042-0.796,1.615C3.1,14.299,2.868,15.12,2.926,15.016
				c-0.558,2.884,0.705,5.092,1.521,7.74c0.359,1.163,0.171,2.506,0.785,3.584c0.472,0.827,1.316,1.368,2.233,1.568
				c1.717,0.376,4.322-0.378,4.244-2.522c-0.043-1.19-0.594-1.927-1.394-2.871c-0.178-0.211-2.529-2.708,1.663-7.515
				C12.926,13.913,12.425,12.308,11.179,11.294"/>
			<path clip-path="url(#SVGID_2_)" fill="#231F20" d="M3.824,11.409c0.452-0.564,0.362-1.381-0.193-1.827
				C3.077,9.128,2.256,9.211,1.812,9.776c-0.452,0.556-0.362,1.373,0.193,1.826c0.221,0.176,0.482,0.272,0.741,0.286
				c0.407,0.021,0.808-0.144,1.086-0.486L3.824,11.409z"/>
			<path clip-path="url(#SVGID_2_)" fill="#231F20" d="M15.021,8.631c-0.185-1.018-1.125-1.57-2.097-1.223
				c-0.979,0.342-1.618,1.446-1.442,2.46c0.094,0.488,0.365,0.871,0.726,1.093c0.393,0.242,0.877,0.297,1.385,0.124
				C14.563,10.738,15.21,9.639,15.021,8.631"/>
			<path clip-path="url(#SVGID_2_)" fill="#231F20" d="M5.771,9.777c0.148,0.008,0.304-0.006,0.456-0.058
				c0.677-0.21,1.064-0.941,0.849-1.63c-0.209-0.681-0.938-1.07-1.624-0.853c-0.678,0.209-1.065,0.941-0.849,1.63
				C4.768,9.396,5.246,9.749,5.771,9.777"/>
			<path clip-path="url(#SVGID_2_)" fill="#231F20" d="M9.322,9.489c0.052,0.01,0.096,0.012,0.148,0.015
				c0.65,0.035,1.238-0.426,1.34-1.083c0.118-0.716-0.358-1.381-1.064-1.494C9.041,6.808,8.371,7.286,8.252,7.995
				C8.14,8.704,8.616,9.377,9.322,9.489"/>
			<path clip-path="url(#SVGID_2_)" fill="#231F20" d="M0.427,12.978c-0.249,0.233-0.407,0.559-0.425,0.901
				c-0.018,0.342,0.105,0.683,0.328,0.941c0.232,0.25,0.557,0.409,0.897,0.427c0.34,0.018,0.68-0.106,0.937-0.33
				c0.25-0.232,0.407-0.559,0.425-0.901c0.018-0.341-0.104-0.683-0.328-0.941C1.805,12.568,0.933,12.521,0.427,12.978"/>
		</g>

</svg>
