<?xml version="1.0" encoding="utf-8"?>
<?xml version="1.0" encoding="utf-8"?>
<svg version="1.1" id="Layer_1" xmlns="http://www.w3.org/2000/svg" xmlns:xlink="http://www.w3.org/1999/xlink" x="0px" y="0px"
	 viewBox="0 0 28 28" enable-background="new 0 0 28 28" xml:space="preserve">
<g>
	<defs>
		<rect id="SVGID_1_" width="28" height="28"/>
	</defs>
	<clipPath id="SVGID_2_">
		<use xlink:href="#SVGID_1_"  overflow="visible"/>
	</clipPath>
	<path clip-path="url(#SVGID_2_)" d="M0.622,9.493C0.294,6.502,0.326,1.462,4.629,0.096C4.939,0.03,5.24,0,5.531,0
		c2.591,0,4.392,2.448,5.075,4.265c1.077,2.865,0.39,5.769,0.445,8.788c0.006,0.297,0.224,1.685,0.359,2.46
		c-0.011,0.002-0.021-0.002-0.032,0.001l-7.217,1.805C3.07,15.196,0.821,11.3,0.622,9.493 M9.951,22.849
		C9.552,22.957,9.15,23.01,8.758,23.01c-0.625,0-1.23-0.133-1.777-0.395c-1.652-0.791-1.956-2.768-2.412-4.367l7.051-1.763
		c0.047-0.012,0.086-0.037,0.126-0.06c0.309,0.463,0.731,0.965,0.897,1.466C13.331,19.974,12.711,22.022,9.951,22.849 M14.584,11.78
		c-0.374-2.127,0.045-5.629,3.025-6.629C18.057,5.048,18.485,5,18.896,5c3.624,0,5.829,3.738,6.941,6.2
		c0.778,1.721,0.618,6.076,0.748,8.311c-0.033,0.002-0.066-0.002-0.099,0.007l-7.045,1.979c-0.24-0.653-0.631-1.678-0.769-1.925
		C17.183,16.945,15.115,14.793,14.584,11.78 M27.04,26.113c-0.551,0.819-1.405,1.426-2.438,1.712C24.121,27.944,23.678,28,23.269,28
		c-1.97,0-3.118-1.298-3.507-3.074c-0.118-0.543-0.096-1.691-0.117-2.448l7.103-1.995C27.204,22.174,28.018,24.657,27.04,26.113"/>
</g>
</svg>
