<?xml version="1.0" encoding="utf-8"?>
<svg version="1.1" id="Layer_1" xmlns="http://www.w3.org/2000/svg" xmlns:xlink="http://www.w3.org/1999/xlink" x="0px" y="0px" viewBox="0 0 28 28"
	 enable-background="new 0 0 28 28" xml:space="preserve">

	<g>
		<polygon fill="#231F20" points="0,12.603 4.001,18.603 5,18.603 5,12.603 		"/>
		<g>
			<defs>
				<rect id="SVGID_1_" width="28" height="28"/>
			</defs>
			<clipPath id="SVGID_2_">
				<use xlink:href="#SVGID_1_"  overflow="visible"/>
			</clipPath>
			<path clip-path="url(#SVGID_2_)" fill="#231F20" d="M11.081,14.312c0.162,0.38,0.531,0.606,0.919,0.606
				c0.132,0,0.266-0.025,0.394-0.081l11-4.919c0.507-0.217,0.742-0.805,0.525-1.312c-0.217-0.508-0.806-0.745-1.313-0.525l-11,4.919
				C11.099,13.218,10.863,13.806,11.081,14.312"/>
			<path clip-path="url(#SVGID_2_)" fill="#231F20" d="M27.651,17.241c-0.221-0.191-0.515-0.273-0.803-0.23l-12.035,1.852
				l-1.785-3.213l-0.236,0.105c-0.25,0.109-0.517,0.164-0.791,0.164c-0.803,0-1.525-0.477-1.839-1.212
				c-0.211-0.491-0.217-1.035-0.019-1.531c0.199-0.496,0.578-0.885,1.055-1.089l11.01-4.924c0.072-0.031,0.147-0.048,0.221-0.07
				C20.368,3.458,16.477,1,12,1C5.373,1,0,6.372,0,13c0,6.627,5.373,12,12,12c0,0,2.682-0.007,3.859-1.207l2.373,2.847
				C18.422,26.868,18.703,27,19,27h8c0.552,0,1-0.448,1-1v-8C28,17.708,27.873,17.43,27.651,17.241 M9.5,21.5c-0.552,0-1-0.448-1-1
				c0-0.553,0.448-1,1-1s1,0.447,1,1C10.5,21.052,10.052,21.5,9.5,21.5 M26,25h-6.532l-1.76-2.113L26,21.8V25z M26,20.791
				l-9.051,1.186l-1.048-1.258L26,19.166V20.791z"/>
		</g>
	</g>

</svg>
