<?xml version="1.0" encoding="utf-8"?>
<?xml version="1.0" encoding="utf-8"?>
<svg version="1.1" id="Layer_1" xmlns="http://www.w3.org/2000/svg" xmlns:xlink="http://www.w3.org/1999/xlink" x="0px" y="0px"
	 viewBox="0 0 28 28" enable-background="new 0 0 28 28" xml:space="preserve">
<g>
	<defs>
		<rect id="SVGID_1_" width="28" height="28"/>
	</defs>
	<clipPath id="SVGID_2_">
		<use xlink:href="#SVGID_1_"  overflow="visible"/>
	</clipPath>
	<path clip-path="url(#SVGID_2_)" d="M5.518,5.512c4.031-4.035,10.619-5.511,15.441-5.511c2.04,0,3.756,0.265,4.838,0.711
		c-3.568,1.536-6.839,3.405-9.785,5.592L15.67,5.863c-0.337-0.436-0.964-0.517-1.402-0.177c-0.435,0.339-0.514,0.968-0.176,1.403
		l0.34,0.439c-0.199,0.162-0.389,0.333-0.584,0.498l-0.379-0.428c-0.365-0.414-0.994-0.451-1.41-0.087
		c-0.414,0.366-0.453,0.997-0.086,1.412l0.377,0.426c-0.187,0.174-0.375,0.351-0.559,0.529l-0.412-0.412
		C10.987,9.077,10.354,9.08,9.965,9.47c-0.39,0.392-0.386,1.026,0.004,1.414l0.414,0.413c-0.175,0.184-0.353,0.367-0.527,0.553
		L9.43,11.47c-0.414-0.366-1.045-0.33-1.412,0.084c-0.365,0.413-0.328,1.045,0.084,1.412l0.434,0.384
		C8.37,13.545,8.2,13.735,8.038,13.931l-0.44-0.346c-0.433-0.341-1.06-0.269-1.404,0.165c-0.342,0.433-0.266,1.062,0.166,1.405
		l0.445,0.352c-2.463,3.263-4.49,6.812-5.994,10.509C-0.798,22.598-0.33,11.366,5.518,5.512 M22.479,22.487
		C18.448,26.523,11.858,28,7.034,28c-2.547,0-4.59-0.415-5.516-1.081c1.488-3.8,3.547-7.448,6.072-10.792l0.338,0.267
		c0.184,0.145,0.403,0.215,0.617,0.215c0.297,0,0.59-0.13,0.788-0.38c0.339-0.433,0.265-1.062-0.167-1.405l-0.343-0.273
		c0.15-0.181,0.306-0.357,0.459-0.537l0.314,0.28c0.19,0.169,0.428,0.252,0.664,0.252c0.276,0,0.549-0.114,0.746-0.336
		c0.368-0.413,0.33-1.045-0.084-1.412l-0.318-0.284c0.16-0.173,0.326-0.342,0.488-0.513l0.293,0.293
		c0.196,0.194,0.451,0.291,0.705,0.291c0.258,0,0.514-0.099,0.709-0.295c0.389-0.392,0.387-1.026-0.004-1.414L12.5,10.583
		c0.168-0.162,0.338-0.325,0.51-0.485l0.285,0.323c0.198,0.223,0.473,0.337,0.748,0.337c0.237,0,0.471-0.083,0.663-0.251
		c0.414-0.365,0.453-0.997,0.086-1.411l-0.284-0.321c0.18-0.151,0.356-0.308,0.537-0.456l0.272,0.35
		c0.197,0.254,0.492,0.386,0.791,0.386c0.213,0,0.43-0.068,0.611-0.21c0.438-0.338,0.516-0.967,0.178-1.403l-0.272-0.348
		c3.045-2.26,6.45-4.174,10.18-5.723C28.838,3.746,28.752,16.208,22.479,22.487"/>
</g>
</svg>
