<?xml version="1.0" encoding="utf-8"?>
<svg version="1.1" id="Layer_1" xmlns="http://www.w3.org/2000/svg" xmlns:xlink="http://www.w3.org/1999/xlink" x="0px" y="0px" viewBox="0 0 28 28"
	 enable-background="new 0 0 28 28" xml:space="preserve">

		<g>
			<defs>
				<rect id="SVGID_1_" width="28" height="28"/>
			</defs>
			<clipPath id="SVGID_2_">
				<use xlink:href="#SVGID_1_"  overflow="visible"/>
			</clipPath>
			<path clip-path="url(#SVGID_2_)" fill="#231F20" d="M28,10.193c0-1.9-2.074-1.9-2.074-3.8S28,4.493,28,2.593
				C28,1.161,26.84,0,25.408,0c-1.904,0-1.904,2.074-3.806,2.074C19.697,2.074,19.697,0,17.793,0c-1.9,0-1.9,2.074-3.801,2.074
				c-1.9,0-1.9-2.074-3.799-2.074c-1.9,0-1.9,2.074-3.8,2.074C4.492,2.074,4.492,0,2.594,0C1.16,0,0,1.161,0,2.593
				c0,1.903,2.074,1.903,2.074,3.806C2.074,8.303,0,8.303,0,10.207c0,1.9,2.074,1.9,2.074,3.801c0,1.9-2.074,1.9-2.074,3.799
				c0,1.9,2.074,1.9,2.074,3.8S0,23.507,0,25.407C0,26.839,1.16,28,2.594,28c1.902,0,1.902-2.074,3.806-2.074
				c1.903,0,1.903,2.074,3.807,2.074c1.9,0,1.9-2.074,3.801-2.074c1.9,0,1.9,2.074,3.799,2.074c1.9,0,1.9-2.074,3.8-2.074
				c1.901,0,1.901,2.074,3.801,2.074C26.84,28,28,26.839,28,25.407c0-1.903-2.074-1.903-2.074-3.806
				c0-1.904,2.074-1.904,2.074-3.808c0-1.9-2.074-1.9-2.074-3.801C25.926,12.092,28,12.092,28,10.193 M23,23H5V5h18V23z"/>
			<path clip-path="url(#SVGID_2_)" fill="#231F20" d="M14,15c1,0.001,3-0.929,3-3v-1.999c0-1.657-1.344-3-3-3s-3,1.343-3,3V12
				C11,14.071,13,14.999,14,15"/>
			<path clip-path="url(#SVGID_2_)" fill="#231F20" d="M14,16c-5.143,0-6,4-6,6h12C20,20,19.145,16,14,16"/>
		</g>

</svg>
