<?xml version="1.0" encoding="utf-8"?>
<svg version="1.1" id="Layer_1" xmlns="http://www.w3.org/2000/svg" xmlns:xlink="http://www.w3.org/1999/xlink" x="0px" y="0px"
	 viewBox="0 0 28 28" enable-background="new 0 0 28 28" xml:space="preserve">
<g>
	<defs>
		<rect id="SVGID_1_" width="28" height="28"/>
	</defs>
	<clipPath id="SVGID_2_">
		<use xlink:href="#SVGID_1_"  overflow="visible"/>
	</clipPath>
	<path clip-path="url(#SVGID_2_)" d="M10,22.741C10,20.676,11.635,19,14.002,19C16.367,19,18,20.676,18,22.741V25h7V8H3v17h7V22.741
		z M14,12.5c1.383,0,2.5,1.119,2.5,2.5c0,1.383-1.117,2.5-2.5,2.5c-1.379,0-2.5-1.117-2.5-2.5C11.5,13.619,12.621,12.5,14,12.5
		 M18.668,5l-4.672-5L9.33,5H0v23h28V5H18.668z M13.996,1.467L17.199,5h-6.4L13.996,1.467z M26,26H2V7h24V26z"/>
</g>
</svg>
