<?xml version="1.0" encoding="utf-8"?>
<svg version="1.1" id="Layer_1" xmlns="http://www.w3.org/2000/svg" xmlns:xlink="http://www.w3.org/1999/xlink" x="0px" y="0px"
	 viewBox="0 0 28 28" enable-background="new 0 0 28 28" xml:space="preserve">
<g>
	<defs>
		<rect id="SVGID_1_" width="28" height="28"/>
	</defs>
	<clipPath id="SVGID_2_">
		<use xlink:href="#SVGID_1_"  overflow="visible"/>
	</clipPath>
	<path clip-path="url(#SVGID_2_)" d="M18.668,5l-4.672-5L9.33,5H0v23h28V5H18.668z M13.996,1.467L17.199,5h-6.4L13.996,1.467z
		 M26,26H2V7h24V26z M25,8H3v17h22V8z M14.002,22c0,0-5.002-3.424-5.002-6.606C9,13.83,10.178,12,11.625,12
		c1.053,0,1.959,0.669,2.377,1.636C14.42,12.669,15.324,12,16.379,12C17.824,12,19,13.83,19,15.394C19,18.47,14.002,22,14.002,22"/>
</g>
</svg>
