<?xml version="1.0" encoding="utf-8"?>
<svg version="1.1" id="Layer_1" xmlns="http://www.w3.org/2000/svg" xmlns:xlink="http://www.w3.org/1999/xlink" x="0px" y="0px" viewBox="0 0 28 28"
	 enable-background="new 0 0 28 28" xml:space="preserve">

		<g>
			<defs>
				<rect id="SVGID_1_" width="28" height="28"/>
			</defs>
			<clipPath id="SVGID_2_">
				<use xlink:href="#SVGID_1_"  overflow="visible"/>
			</clipPath>
			<path clip-path="url(#SVGID_2_)" fill="#231F20" d="M28,10.193c0-1.9-2.074-1.9-2.074-3.8c0-1.901,2.074-1.901,2.074-3.8
				C28,1.16,26.84,0,25.408,0c-1.904,0-1.904,2.074-3.806,2.074C19.697,2.074,19.697,0,17.793,0c-1.9,0-1.9,2.074-3.801,2.074
				c-1.9,0-1.9-2.074-3.799-2.074c-1.9,0-1.9,2.074-3.8,2.074C4.492,2.074,4.492,0,2.594,0C1.16,0,0,1.16,0,2.593
				c0,1.903,2.074,1.903,2.074,3.806C2.074,8.303,0,8.303,0,10.207c0,1.9,2.074,1.9,2.074,3.801c0,1.9-2.074,1.9-2.074,3.799
				c0,1.9,2.074,1.9,2.074,3.8c0,1.901-2.074,1.901-2.074,3.8C0,26.84,1.16,28,2.594,28c1.902,0,1.902-2.074,3.806-2.074
				c1.903,0,1.903,2.074,3.807,2.074c1.9,0,1.9-2.074,3.801-2.074c1.9,0,1.9,2.074,3.799,2.074c1.9,0,1.9-2.074,3.8-2.074
				c1.901,0,1.901,2.074,3.801,2.074C26.84,28,28,26.84,28,25.407c0-1.903-2.074-1.903-2.074-3.806c0-1.904,2.074-1.904,2.074-3.808
				c0-1.9-2.074-1.9-2.074-3.801C25.926,12.092,28,12.092,28,10.193 M23,23H5V5h18V23z"/>
			<path clip-path="url(#SVGID_2_)" fill="#231F20" d="M8.043,16.205c0.235,0.627,1.303,0.867,2.78,0.738
				c-0.243,1.465-0.082,2.547,0.525,2.826c0.607,0.278,1.531-0.304,2.484-1.443c0.864,1.205,1.743,1.858,2.37,1.627
				c0.63-0.234,0.869-1.299,0.738-2.778c1.467,0.245,2.545,0.083,2.826-0.525c0.279-0.607-0.303-1.532-1.443-2.486
				c1.209-0.863,1.859-1.74,1.629-2.369c-0.235-0.627-1.303-0.871-2.78-0.738c0.244-1.465,0.082-2.545-0.523-2.825
				c-0.608-0.279-1.533,0.303-2.485,1.442c-0.867-1.207-1.746-1.86-2.375-1.628c-0.627,0.231-0.867,1.3-0.734,2.779
				c-1.467-0.243-2.547-0.082-2.826,0.525c-0.279,0.607,0.305,1.531,1.441,2.486C8.463,14.7,7.811,15.576,8.043,16.205
				 M12.182,13.164c0.461-1.003,1.648-1.441,2.65-0.98c1.004,0.459,1.444,1.647,0.983,2.65c-0.461,1.004-1.651,1.444-2.654,0.982
				C12.159,15.357,11.719,14.168,12.182,13.164"/>
		</g>

</svg>
