<?xml version="1.0" encoding="utf-8"?>
<svg version="1.1" id="Layer_1" xmlns="http://www.w3.org/2000/svg" xmlns:xlink="http://www.w3.org/1999/xlink" x="0px" y="0px"
	 viewBox="0 0 28 28" enable-background="new 0 0 28 28" xml:space="preserve">
<g>
	<defs>
		<rect id="SVGID_1_" width="28" height="28"/>
	</defs>
	<clipPath id="SVGID_2_">
		<use xlink:href="#SVGID_1_"  overflow="visible"/>
	</clipPath>
	<path clip-path="url(#SVGID_2_)" d="M14,14.469c-1.123,0-2.033,0.91-2.033,2.033c0,1.123,0.91,2.031,2.033,2.031
		c1.125,0,2.035-0.908,2.035-2.031C16.035,15.379,15.125,14.469,14,14.469 M25,8H3v17h22V8z M17.779,18.064
		c0.699,1.219,0.914,2.231,0.465,2.68c-0.451,0.447-1.459,0.233-2.678-0.463C15.197,21.637,14.633,22.5,14,22.5
		s-1.197-0.863-1.565-2.219c-1.218,0.696-2.228,0.91-2.677,0.461c-0.449-0.449-0.233-1.459,0.465-2.678
		C8.863,17.697,8,17.133,8,16.502c0-0.633,0.863-1.199,2.223-1.565c-0.698-1.218-0.914-2.232-0.467-2.681
		c0.451-0.449,1.461-0.235,2.679,0.465C12.805,11.363,13.369,10.5,14,10.5s1.195,0.863,1.566,2.221
		c1.219-0.7,2.229-0.914,2.678-0.467c0.449,0.449,0.233,1.465-0.465,2.683C19.137,15.303,20,15.869,20,16.502
		C20,17.133,19.137,17.697,17.779,18.064 M18.668,5l-4.672-5L9.33,5H0v23h28V5H18.668z M13.996,1.467L17.199,5h-6.4L13.996,1.467z
		 M26,26H2V7h24V26z"/>
</g>
</svg>
