<?xml version="1.0" encoding="utf-8"?>
<svg version="1.1" id="Layer_1" xmlns="http://www.w3.org/2000/svg" xmlns:xlink="http://www.w3.org/1999/xlink" x="0px" y="0px"
	 viewBox="0 0 28 28" enable-background="new 0 0 28 28" xml:space="preserve">
<g>
	<defs>
		<rect id="SVGID_1_" width="28" height="28"/>
	</defs>
	<clipPath id="SVGID_2_">
		<use xlink:href="#SVGID_1_"  overflow="visible"/>
	</clipPath>
	<path clip-path="url(#SVGID_2_)" d="M6,18.908c-0.58-0.207-1-0.756-1-1.408v-5C5,12.224,5.225,12,5.5,12C5.777,12,6,12.224,6,12.5
		V16h1v-3.5C7,12.224,7.225,12,7.5,12C7.777,12,8,12.224,8,12.5V16h1v-3.5C9,12.224,9.225,12,9.5,12c0.277,0,0.5,0.224,0.5,0.5v5
		c0,0.652-0.418,1.201-1,1.408V25h5v-2h-2v-9c0-1.105,0.896-2,2-2c1.105,0,2,0.895,2,2v11h4v-5h-0.5
		c-0.844-0.768-1.5-2.119-1.5-3.666C18,13.941,19.344,12,21,12c1.658,0,3,1.941,3,4.334c0,1.547-0.654,2.898-1.5,3.666H22v5h3V8H3
		v17h3V18.908z M18.668,5l-4.672-5L9.33,5H0v23h28V5H18.668z M13.996,1.467L17.199,5h-6.4L13.996,1.467z M26,26H2V7h24V26z"/>
</g>
</svg>
