<?xml version="1.0" encoding="utf-8"?>
<svg version="1.1" id="Layer_1" xmlns="http://www.w3.org/2000/svg" xmlns:xlink="http://www.w3.org/1999/xlink" x="0px" y="0px"
	 viewBox="0 0 28 28" enable-background="new 0 0 28 28" xml:space="preserve">
<g>
	<defs>
		<rect id="SVGID_1_" width="28" height="28"/>
	</defs>
	<clipPath id="SVGID_2_">
		<use xlink:href="#SVGID_1_"  overflow="visible"/>
	</clipPath>
	<path clip-path="url(#SVGID_2_)" d="M25,8H3v17h22V8z M13.684,22c-0.666,0-1.233-0.565-1.233-1.231c0-0.666,0.567-1.23,1.233-1.23
		s1.226,0.564,1.226,1.23C14.91,21.435,14.35,22,13.684,22 M16.439,16.527c-1.271,0.605-1.589,1.167-1.636,1.783h-2.076
		c0-1.232,0.425-2.267,2.138-3.054c0.758-0.351,0.987-0.558,0.987-1.104c0-0.697-0.518-1.09-1.805-1.09
		c-1.153,0-1.973,0.554-2.653,1.282l-1.363-1.588C10.955,11.788,12.273,11,14.047,11c2.318,0,3.924,0.951,3.924,3.059
		C17.971,15.47,17.168,16.179,16.439,16.527 M18.668,5l-4.672-5L9.33,5H0v23h28V5H18.668z M13.996,1.467L17.199,5h-6.4L13.996,1.467
		z M26,26H2V7h24V26z"/>
</g>
</svg>
