<?xml version="1.0" encoding="utf-8"?>
<svg version="1.1" id="Layer_1" xmlns="http://www.w3.org/2000/svg" xmlns:xlink="http://www.w3.org/1999/xlink" x="0px" y="0px" viewBox="0 0 28 28"
	 enable-background="new 0 0 28 28" xml:space="preserve">

		<g>
			<defs>
				<rect id="SVGID_1_" width="28" height="28"/>
			</defs>
			<clipPath id="SVGID_2_">
				<use xlink:href="#SVGID_1_"  overflow="visible"/>
			</clipPath>
			<path clip-path="url(#SVGID_2_)" fill="#231F20" d="M26,16.001v2h-2v-11h-2v0.5c0,0.275-0.225,0.5-0.5,0.5
				c-0.275,0-0.5-0.225-0.5-0.5v-0.5h-2v0.5c0,0.275-0.225,0.5-0.5,0.5c-0.275,0-0.5-0.225-0.5-0.5v-0.5h-2v0.5
				c0,0.275-0.225,0.5-0.5,0.5c-0.275,0-0.5-0.225-0.5-0.5v-0.5h-2v0.5c0,0.275-0.225,0.5-0.5,0.5S12,7.776,12,7.501v-0.5h-1.5
				c-0.275,0-0.5-0.225-0.5-0.5s0.225-0.5,0.5-0.5H12v-0.5c0-0.275,0.225-0.5,0.5-0.5s0.5,0.225,0.5,0.5v0.5h2v-0.5
				c0-0.275,0.225-0.5,0.5-0.5c0.275,0,0.5,0.225,0.5,0.5v0.5h2v-0.5c0-0.275,0.225-0.5,0.5-0.5c0.275,0,0.5,0.225,0.5,0.5v0.5h2
				v-0.5c0-0.275,0.225-0.5,0.5-0.5c0.275,0,0.5,0.225,0.5,0.5v0.5h2v-6l-3.333,2l-2.222-2l-2.223,2l-2.222-2l-2.222,2l-2.222-2
				l-2.223,2L4,0.001v18H2v-2H0v6h2v-2h2v4c0,2.2,1.8,4,4,4h12c2.2,0,4-1.8,4-4v-4h2v2h2v-6H26z M10.003,15.501
				c-1.381,0-2.503-1.119-2.503-2.5h5C12.5,14.382,11.384,15.501,10.003,15.501 M18.003,15.501c-1.381,0-2.503-1.119-2.503-2.5h5
				C20.5,14.382,19.384,15.501,18.003,15.501"/>
		</g>

</svg>
