<?xml version="1.0" encoding="utf-8"?>
<svg version="1.1" id="Layer_1" xmlns="http://www.w3.org/2000/svg" xmlns:xlink="http://www.w3.org/1999/xlink" x="0px" y="0px"
	 viewBox="0 0 28 28" enable-background="new 0 0 28 28" xml:space="preserve">
<g>
	<defs>
		<rect id="SVGID_1_" width="28" height="28"/>
	</defs>
	<clipPath id="SVGID_2_">
		<use xlink:href="#SVGID_1_"  overflow="visible"/>
	</clipPath>
	<path clip-path="url(#SVGID_2_)" d="M18,0l-2,1v9.888c0.68-0.074,1.352-0.178,2-0.318V0z M21,0l-2,1v9.322
		c0.709-0.194,1.381-0.426,2-0.688V0z M24,7.639V3l-2-1v7.159C22.838,8.709,23.521,8.194,24,7.639 M15,3l-2-1v9h2V3z M25,8
		c-1.9,2.566-6.869,4-11,4c-4.133,0-9.098-1.435-11-4L0,8.002L5,28c3.254-0.512,5.166-1,9-1c3.83,0,5.746,0.487,9,1l5-20H25z
		 M6,9.158V2L4,3v4.638C4.48,8.193,5.164,8.708,6,9.158 M12,0l-2,1v9.569c0.65,0.14,1.32,0.245,2,0.319V0z M9,2L7,3v6.633
		c0.619,0.263,1.291,0.495,2,0.689V2z"/>
</g>
</svg>
