<?xml version="1.0" encoding="utf-8"?>
<svg version="1.1" id="Layer_1" xmlns="http://www.w3.org/2000/svg" xmlns:xlink="http://www.w3.org/1999/xlink" x="0px" y="0px"
	 viewBox="0 0 28 28" enable-background="new 0 0 28 28" xml:space="preserve">
<g>
	<defs>
		<rect id="SVGID_1_" width="28" height="28"/>
	</defs>
	<clipPath id="SVGID_2_">
		<use xlink:href="#SVGID_1_"  overflow="visible"/>
	</clipPath>
	<path clip-path="url(#SVGID_2_)" d="M14,0C6.268,0,0,6.268,0,14s6.268,14,14,14c7.733,0,14-6.268,14-14S21.733,0,14,0 M17.629,7.64
		c1.031,0,1.867,0.836,1.867,1.866c0,1.031-0.836,1.867-1.867,1.867c-1.029,0-1.867-0.836-1.867-1.867
		C15.762,8.476,16.6,7.64,17.629,7.64 M10.369,7.64c1.031,0,1.867,0.836,1.867,1.866c0,1.031-0.836,1.867-1.867,1.867
		c-1.029,0-1.865-0.836-1.865-1.867C8.504,8.476,9.34,7.64,10.369,7.64 M20.338,21.844c-1.043-2.414-3.523-3.975-6.316-3.975
		c-2.862,0-5.356,1.555-6.356,3.962L5.75,21.034c1.322-3.182,4.568-5.238,8.272-5.238c3.621,0,6.847,2.05,8.22,5.225L20.338,21.844z
		"/>
</g>
</svg>
