<?xml version="1.0" encoding="utf-8"?>
<svg version="1.1" id="Layer_1" xmlns="http://www.w3.org/2000/svg" xmlns:xlink="http://www.w3.org/1999/xlink" x="0px" y="0px"
	 viewBox="0 0 28 28" enable-background="new 0 0 28 28" xml:space="preserve">
<g>
	<defs>
		<rect id="SVGID_1_" width="28" height="28"/>
	</defs>
	<clipPath id="SVGID_2_">
		<use xlink:href="#SVGID_1_"  overflow="visible"/>
	</clipPath>
	<path clip-path="url(#SVGID_2_)" d="M24.5,24c-1.168,0-1.5-1-1.5-1l-2.115-4.23l2.099-2.561C23.518,16.695,24.221,17,25,17
		c1.656,0,3-1.344,3-3s-1.344-3-3-3c-0.93,0-1.75,0.432-2.299,1.095l-3.146,4.013L17,11H7.865l0.608-2.671
		c0.021-0.126,0.412-2.268,2.173-3.49C11.195,5.541,12.039,6,13,6c1.658,0,3-1.342,3-3c0-1.656-1.342-3-3-3
		C6.961,0,5.006,4.943,4.537,7.611L3.783,11H0v3h3.115L0,28h4l3.184-14H14l2.809,5.614l-2.653,3.384
		C13.607,22.39,12.82,22,11.937,22c-1.656,0-3,1.344-3,3s1.344,3,3,3c0.862,0,1.622-0.376,2.167-0.957l3.986-4.863L19,24
		c1,2,2,4,5,4c2,0,4-1.502,4-6h-2C26,23.498,25.375,24,24.5,24"/>
</g>
</svg>
