<?xml version="1.0" encoding="utf-8"?>
<svg version="1.1" id="Layer_1" xmlns="http://www.w3.org/2000/svg" xmlns:xlink="http://www.w3.org/1999/xlink" x="0px" y="0px" viewBox="0 0 28 28"
	 enable-background="new 0 0 28 28" xml:space="preserve">

		<g>
			<defs>
				<rect id="SVGID_1_" width="28" height="28"/>
			</defs>
			<clipPath id="SVGID_2_">
				<use xlink:href="#SVGID_1_"  overflow="visible"/>
			</clipPath>
			<path clip-path="url(#SVGID_2_)" fill="#231F20" d="M23,0v24c0,1.124-0.448,2.896-1.844,4H22c4,0,4-4,4-4V0H23z"/>
			<path clip-path="url(#SVGID_2_)" fill="#231F20" d="M22,0H2v28h16c4,0,4-4,4-4V0z M5,3h14v11H5V3z M10,22H8v2H6v-2H4v-2h2v-2h2v2
				h2V22z M13.5,24c-0.828,0-1.5-0.672-1.5-1.5c0-0.828,0.672-1.5,1.5-1.5s1.5,0.672,1.5,1.5C15,23.328,14.328,24,13.5,24 M17.5,22
				c-0.828,0-1.5-0.672-1.5-1.5c0-0.828,0.672-1.5,1.5-1.5c0.828,0,1.5,0.672,1.5,1.5C19,21.328,18.328,22,17.5,22"/>
		</g>

</svg>
