<?xml version="1.0" encoding="utf-8"?>
<svg version="1.1" id="Layer_1" xmlns="http://www.w3.org/2000/svg" xmlns:xlink="http://www.w3.org/1999/xlink" x="0px" y="0px"
	 viewBox="0 0 28 28" enable-background="new 0 0 28 28" xml:space="preserve">
<g>
	<defs>
		<rect id="SVGID_1_" width="28" height="28"/>
	</defs>
	<clipPath id="SVGID_2_">
		<use xlink:href="#SVGID_1_"  overflow="visible"/>
	</clipPath>
	<path clip-path="url(#SVGID_2_)" d="M20,12H8c-4.418,0-8,3.581-8,8s3.582,8,8,8h12c4.418,0,8-3.581,8-8S24.418,12,20,12 M11,21H8v3
		h-2v-3h-3v-2h3v-3h2v3h3V21z M19.091,24.093c-0.879,0.878-2.3,0.877-3.179-0.002c-0.881-0.881-0.883-2.304-0.004-3.183
		c0.877-0.878,2.302-0.877,3.181,0.003C19.969,21.79,19.97,23.214,19.091,24.093 M24.091,20.093c-0.879,0.878-2.3,0.877-3.179-0.002
		c-0.881-0.881-0.883-2.304-0.004-3.183c0.877-0.878,2.302-0.877,3.181,0.003C24.969,17.79,24.97,19.214,24.091,20.093 M9.356,5H20
		v2h-5.918C13.222,7,13,7.427,13,8.285V11h3v-1h5.201C22.06,10,23,9.144,23,8.285V3.494C23,2.636,22.06,2,21.201,2H11V0H8v3.494
		C8,4.352,8.498,5,9.356,5"/>
</g>
</svg>
