<?xml version="1.0" encoding="utf-8"?>
<svg version="1.1" id="Layer_1" xmlns="http://www.w3.org/2000/svg" xmlns:xlink="http://www.w3.org/1999/xlink" x="0px" y="0px" viewBox="0 0 28 28"
	 enable-background="new 0 0 28 28" xml:space="preserve">

		<g>
			<defs>
				<rect id="SVGID_1_" width="28" height="28"/>
			</defs>
			<clipPath id="SVGID_2_">
				<use xlink:href="#SVGID_1_"  overflow="visible"/>
			</clipPath>
			<path clip-path="url(#SVGID_2_)" fill="#231F20" d="M21.494,10.683l-4.988-4.365C15.678,5.593,14.1,5,13,5V3.735
				C13,1.681,11.318,0,9.264,0H5.736C3.682,0,2,1.681,2,3.735V5C0.9,5,0,6,0,7v19c0,1.1,0.9,2,2,2h19c1.1,0,1.991-0.9,2-2l-0.016-12
				C22.993,12.901,22.322,11.407,21.494,10.683 M4,3.735C4,2.82,4.82,2,5.736,2h3.528C10.18,2,11,2.82,11,3.735V5H4V3.735z
				 M19.121,23.717c0.434,0.343,0.506,0.972,0.162,1.404C19.086,25.37,18.794,25.5,18.5,25.5c-0.219,0-0.438-0.07-0.621-0.217
				l-6.629-5.256l-6.629,5.256C4.437,25.43,4.219,25.5,4,25.5c-0.294,0-0.586-0.13-0.783-0.379
				c-0.344-0.432-0.272-1.061,0.162-1.404l6.262-4.967l-6.262-4.967c-0.434-0.342-0.506-0.971-0.162-1.404
				c0.343-0.432,0.971-0.506,1.404-0.162l6.629,5.257l6.629-5.257c0.432-0.345,1.06-0.271,1.404,0.162
				c0.344,0.433,0.272,1.062-0.162,1.404l-6.262,4.967L19.121,23.717z"/>
			<polygon clip-path="url(#SVGID_2_)" fill="#231F20" points="21.172,3 17.934,6.238 20.951,8.878 22.828,7 28,7 28,3 			"/>
		</g>

</svg>
