<?xml version="1.0" encoding="utf-8"?>
<svg version="1.1" id="Layer_1" xmlns="http://www.w3.org/2000/svg" xmlns:xlink="http://www.w3.org/1999/xlink" x="0px" y="0px"
	 viewBox="0 0 28 28" enable-background="new 0 0 28 28" xml:space="preserve">
<g>
	<defs>
		<rect id="SVGID_1_" width="28" height="28"/>
	</defs>
	<clipPath id="SVGID_2_">
		<use xlink:href="#SVGID_1_"  overflow="visible"/>
	</clipPath>
	<path clip-path="url(#SVGID_2_)" d="M9,0H8C3.285,0,0,3.179,0,7v21h17V7C17,3.179,13.715,0,9,0 M14,11H3V7c0-2.28,2.15-4,5-4h1
		c2.852,0,5,1.72,5,4V11z"/>
	<path clip-path="url(#SVGID_2_)" d="M27.998,8c0.007-1-0.274-1.671-0.846-2.244L22.57,1.089l-1.467,1.425l2.625,2.606
		c-0.244,0.131-0.477,0.275-0.682,0.481c-1.132,1.132-1.095,2.969,0.035,4.101c0.78,0.779,1.918,1.005,2.918,0.71v14.219
		c0,0.714-0.783,1.295-1.498,1.295c-0.714,0-1.502-0.581-1.502-1.295v-9.442c0-1.858-1.177-3.189-3.037-3.189h-1.963v2h1.963
		c0.715,0,1.037,0.474,1.037,1.189v9.442c0,1.858,1.643,3.37,3.502,3.37c1.858,0,3.498-1.512,3.498-3.37L27.998,8L27.998,8z
		 M25.685,8.231c-0.324,0.322-0.852,0.322-1.174-0.001c-0.324-0.324-0.324-0.849,0.002-1.174c0.322-0.322,0.85-0.322,1.17,0
		C26.009,7.381,26.009,7.906,25.685,8.231"/>
</g>
</svg>
