<?xml version="1.0" encoding="utf-8"?>
<svg version="1.1" id="Layer_1" xmlns="http://www.w3.org/2000/svg" xmlns:xlink="http://www.w3.org/1999/xlink" x="0px" y="0px"
	 viewBox="0 0 28 28" enable-background="new 0 0 28 28" xml:space="preserve">
<g>
	<defs>
		<rect id="SVGID_1_" width="28" height="28"/>
	</defs>
	<clipPath id="SVGID_2_">
		<use xlink:href="#SVGID_1_"  overflow="visible"/>
	</clipPath>
	<path clip-path="url(#SVGID_2_)" d="M28,7.327c0-1.934-1.515-3.5-3.387-3.5c-1.035,0-1.949,0.488-2.57,1.242
		c0,0,0.001-0.001,0.002-0.002c-0.064-0.001-0.124-0.007-0.188-0.007c-0.913,0-1.936,0.136-3.02,0.373C17.717,2.133,15.97,0,14,0
		c-1.994,0-3.761,2.19-4.879,5.562C8.069,5.347,7.074,5.224,6.18,5.224C4.122,5.225,2.564,5.807,1.87,7.01
		c-1.006,1.747,0.041,4.41,2.462,7.093c-0.864,1-1.555,1.993-2.018,2.936C0.973,17.504,0,18.799,0,20.342
		c0,1.934,1.516,3.5,3.388,3.5c0.878,0,1.669-0.353,2.271-0.918c0.16,0.008,0.318,0.018,0.484,0.018c0.913,0,1.936-0.135,3.02-0.373
		C10.284,25.868,12.031,28,14,28c1.994,0,3.761-2.188,4.879-5.56c1.052,0.216,2.047,0.339,2.94,0.339
		c2.059,0,3.616-0.582,4.31-1.788c1.008-1.746-0.04-4.408-2.46-7.09c0.983-1.139,1.729-2.269,2.187-3.324
		c-0.006,0.001-0.011,0.002-0.017,0.004C27.102,10.073,28,8.813,28,7.327 M14,1.75c0.999,0,2.25,1.498,3.159,4.126
		c-1.044,0.322-2.127,0.732-3.233,1.242c-1.067-0.465-2.111-0.84-3.119-1.135C11.718,3.288,12.989,1.75,14,1.75 M18.375,14
		c0,0.842-0.037,1.644-0.097,2.413c-0.641,0.461-1.312,0.907-2.014,1.331c-0.732,0.444-1.473,0.841-2.211,1.206
		c-0.748-0.35-1.498-0.731-2.237-1.158c-0.746-0.43-1.439-0.873-2.089-1.321C9.663,15.685,9.625,14.863,9.625,14
		c0-0.839,0.037-1.637,0.098-2.406c0.629-0.452,1.291-0.9,2.013-1.337c0.732-0.443,1.472-0.841,2.211-1.205
		c0.748,0.351,1.498,0.732,2.237,1.157c0.747,0.432,1.44,0.875,2.09,1.323C18.337,12.318,18.375,13.139,18.375,14 M20.101,12.909
		c0.412,0.337,0.802,0.676,1.159,1.012c-0.363,0.357-0.75,0.709-1.156,1.057c0.01-0.324,0.021-0.648,0.021-0.978
		C20.125,13.631,20.114,13.27,20.101,12.909 M17.999,18.707c-0.094,0.571-0.202,1.115-0.325,1.628
		c-0.504-0.147-1.014-0.315-1.533-0.508c0.343-0.19,0.686-0.377,1.028-0.584C17.456,19.069,17.723,18.886,17.999,18.707
		 M11.976,19.869c-0.549,0.216-1.09,0.409-1.622,0.573c-0.131-0.535-0.247-1.103-0.347-1.701c0.307,0.192,0.615,0.382,0.935,0.568
		C11.286,19.507,11.632,19.687,11.976,19.869 M7.9,15.095c-0.412-0.339-0.802-0.677-1.16-1.013c0.359-0.351,0.741-0.706,1.157-1.062
		c-0.01,0.325-0.022,0.649-0.022,0.98C7.875,14.369,7.887,14.733,7.9,15.095 M10.002,9.292c0.094-0.569,0.202-1.112,0.325-1.626
		c0.502,0.149,1.013,0.317,1.532,0.508c-0.343,0.191-0.686,0.378-1.028,0.585C10.545,8.932,10.277,9.114,10.002,9.292 M17.058,8.694
		c-0.345-0.2-0.69-0.378-1.035-0.562c0.55-0.215,1.092-0.408,1.623-0.573c0.132,0.536,0.248,1.104,0.348,1.702
		C17.687,9.07,17.378,8.878,17.058,8.694 M3.386,7.885c0.329-0.57,1.374-0.91,2.795-0.911c0.751,0,1.581,0.099,2.455,0.27
		c-0.255,1.057-0.447,2.2-0.576,3.401c-0.932,0.71-1.786,1.443-2.541,2.184C3.596,10.668,2.876,8.77,3.386,7.885 M6.672,21.162
		c0.062-0.263,0.104-0.536,0.104-0.82c0-1.595-1.038-2.925-2.45-3.347c0.325-0.519,0.734-1.073,1.22-1.645
		c0.752,0.709,1.602,1.405,2.522,2.079c0.135,1.224,0.337,2.384,0.602,3.454C7.97,21.031,7.298,21.129,6.672,21.162 M14,26.25
		c-0.998,0-2.249-1.497-3.157-4.125c1.043-0.322,2.125-0.731,3.231-1.24c1.067,0.465,2.111,0.84,3.12,1.135
		C16.282,24.712,15.012,26.25,14,26.25 M24.613,20.118c-0.328,0.571-1.373,0.911-2.794,0.911c-0.751,0-1.581-0.099-2.455-0.271
		c0.255-1.058,0.448-2.204,0.577-3.407c0.932-0.71,1.779-1.444,2.533-2.186C24.401,17.329,25.124,19.232,24.613,20.118
		 M23.825,10.723c-0.161,0.279-0.337,0.563-0.542,0.854c-0.251,0.355-0.537,0.711-0.838,1.067c-0.749-0.704-1.597-1.399-2.513-2.071
		c-0.134-1.223-0.336-2.382-0.602-3.454c0.68-0.142,1.333-0.241,1.942-0.277c-0.021,0.16-0.047,0.318-0.047,0.485
		c0,1.653,1.112,3.03,2.603,3.396H23.825z"/>
</g>
</svg>
