<?xml version="1.0" encoding="utf-8"?>
<svg version="1.1" id="Layer_1" xmlns="http://www.w3.org/2000/svg" xmlns:xlink="http://www.w3.org/1999/xlink" x="0px" y="0px" viewBox="0 0 28 28"
	 enable-background="new 0 0 28 28" xml:space="preserve">

		<g>
			<defs>
				<rect id="SVGID_1_" width="28" height="28"/>
			</defs>
			<clipPath id="SVGID_2_">
				<use xlink:href="#SVGID_1_"  overflow="visible"/>
			</clipPath>
			<path clip-path="url(#SVGID_2_)" fill="#231F20" d="M20,18.627V16.97l2.788-0.69c1.741-0.431,2.415-2.123,2.365-3.899
				C25.063,9.157,22,10.001,22,10.001l-3.807,0.868c0,0-1.019,0.232-1.193-0.196c-0.172-0.422,0.517-0.961,0.517-0.961
				C18.724,8.703,19.5,7.197,19.5,5.501c0-3.038-2.462-5.5-5.5-5.5s-5.5,2.462-5.5,5.5c0,1.696,0.776,3.202,1.983,4.211
				c0,0,0.689,0.539,0.517,0.961c-0.174,0.428-1.193,0.196-1.193,0.196L6,10.001c0,0-3.063-0.844-3.153,2.38
				c-0.05,1.776,0.624,3.468,2.365,3.899L8,16.97v1.657c-1.675,1.184-5,3.739-5,5.374c0,2.186,1.791,4,4,4c0,0,2,0,3-1l4-4l4,4
				c1,1,3,1,3,1c2.209,0,4-1.814,4-4C25,22.366,21.675,19.811,20,18.627 M16,3.251c0.414,0,0.75,0.336,0.75,0.75
				s-0.336,0.75-0.75,0.75c-0.414,0-0.75-0.336-0.75-0.75S15.586,3.251,16,3.251 M12,3.251c0.414,0,0.75,0.336,0.75,0.75
				s-0.336,0.75-0.75,0.75c-0.414,0-0.75-0.336-0.75-0.75S11.586,3.251,12,3.251 M11.107,6.94c0.172-0.215,0.486-0.251,0.704-0.082
				c1.015,0.805,3.363,0.805,4.378,0c0.215-0.169,0.532-0.133,0.704,0.082c0.17,0.217,0.133,0.532-0.082,0.704
				C16.12,8.189,15.097,8.501,14,8.501s-2.12-0.312-2.811-0.857C10.974,7.472,10.937,7.157,11.107,6.94 M14,18.501
				c-0.552,0-1-0.448-1-1c0-0.552,0.448-1,1-1c0.552,0,1,0.448,1,1C15,18.053,14.552,18.501,14,18.501 M14,14.501
				c-0.552,0-1-0.448-1-1s0.448-1,1-1c0.552,0,1,0.448,1,1S14.552,14.501,14,14.501"/>
		</g>

</svg>
