<?xml version="1.0" encoding="utf-8"?>
<svg version="1.1" id="Layer_1" xmlns="http://www.w3.org/2000/svg" xmlns:xlink="http://www.w3.org/1999/xlink" x="0px" y="0px" viewBox="0 0 28 28"
	 enable-background="new 0 0 28 28" xml:space="preserve">

		<g>
			<defs>
				<rect id="SVGID_1_" width="28" height="28"/>
			</defs>
			<clipPath id="SVGID_2_">
				<use xlink:href="#SVGID_1_"  overflow="visible"/>
			</clipPath>
			<path clip-path="url(#SVGID_2_)" fill="#231F20" d="M26,17.088h-7.883c-1.433,0-2.635,0.948-2.996,2.221
				c-0.346-0.14-0.724-0.221-1.121-0.221c-0.396,0-0.774,0.081-1.121,0.221c-0.36-1.273-1.562-2.221-2.996-2.221H2
				c-1.105,0-2,0.895-2,2v0.5h0.013c0.004,0.149,0.008,0.297,0.037,0.451l0.962,5.098C1.319,26.76,2.973,28,4.688,28h5.195
				C11.598,28,13,26.651,13,25v-2.912c0-0.552,0.448-1,1-1s1,0.448,1,1v3C15,26.739,16.402,28,18.117,28h5.196
				c1.714,0,3.368-1.24,3.675-2.863l0.962-5.098c0.03-0.154,0.034-0.302,0.037-0.451H28v-0.5C28,17.983,27.106,17.088,26,17.088
				 M10.662,24.088c0,0.825-0.701,1.5-1.558,1.5H4.966c-0.857,0-1.703-0.66-1.881-1.468l-0.673-3.064
				c-0.178-0.808,0.379-1.468,1.237-1.468h5.455c0.857,0,1.558,0.675,1.558,1.5V24.088z M25.588,21.056l-0.673,3.064
				c-0.178,0.808-1.023,1.468-1.881,1.468h-4.137c-0.858,0-1.559-0.675-1.559-1.5v-3c0-0.825,0.701-1.5,1.559-1.5h5.455
				C25.209,19.588,25.766,20.248,25.588,21.056"/>
			<path clip-path="url(#SVGID_2_)" fill="#231F20" d="M6.045,3.623c0.124-0.52,0.444-0.96,0.899-1.239
				C7.4,2.103,7.937,2.019,8.456,2.144c0.52,0.125,0.959,0.444,1.238,0.899c0.28,0.455,0.366,0.992,0.241,1.513
				c-0.129,0.537,0.203,1.076,0.74,1.205c0.538,0.129,1.076-0.203,1.205-0.741c0.249-1.039,0.078-2.112-0.48-3.022
				c-0.559-0.911-1.439-1.55-2.478-1.799C7.879-0.049,6.808,0.12,5.899,0.679C4.988,1.237,4.35,2.117,4.1,3.156L1,16.088h2.057
				L6.045,3.623z"/>
			<path clip-path="url(#SVGID_2_)" fill="#231F20" d="M17.325,5.761c0.537-0.129,0.869-0.668,0.74-1.205
				c-0.125-0.52-0.039-1.058,0.24-1.513c0.28-0.455,0.719-0.774,1.239-0.898c0.519-0.126,1.055-0.041,1.511,0.239
				c0.456,0.279,0.776,0.72,0.9,1.239l2.988,12.465H27L23.9,3.157c-0.25-1.039-0.889-1.919-1.799-2.478
				c-0.909-0.559-1.98-0.727-3.023-0.479c-1.039,0.249-1.919,0.887-2.478,1.798c-0.558,0.911-0.729,1.984-0.48,3.023
				C16.249,5.558,16.787,5.89,17.325,5.761"/>
		</g>

</svg>
