<?xml version="1.0" encoding="utf-8"?>
<svg version="1.1" id="Layer_1" xmlns="http://www.w3.org/2000/svg" xmlns:xlink="http://www.w3.org/1999/xlink" x="0px" y="0px"
	 viewBox="0 0 28 28" enable-background="new 0 0 28 28" xml:space="preserve">
<g>
	<defs>
		<rect id="SVGID_1_" width="28" height="28"/>
	</defs>
	<clipPath id="SVGID_2_">
		<use xlink:href="#SVGID_1_"  overflow="visible"/>
	</clipPath>
	<path clip-path="url(#SVGID_2_)" d="M16.537,0L1.051,15.494c-1.289,1.304-1.41,3.301-0.266,4.447l7.27,7.273
		C8.58,27.743,9.285,28,10.024,28c0.871,0,1.785-0.362,2.492-1.068l1.586-1.587l0.013,0.014L28,11.47L16.537,0z M16.537,2.829
		L22.704,9H10.37L16.537,2.829z M7,15h3v3H7V15z M10.121,24L8,21.879l2.121-2.121l2.121,2.121L10.121,24z M14.879,18.719L12,17.88
		L12.838,15l2.881,0.839L14.879,18.719z"/>
</g>
</svg>
