<?xml version="1.0" encoding="utf-8"?>
<svg version="1.1" id="Layer_1" xmlns="http://www.w3.org/2000/svg" xmlns:xlink="http://www.w3.org/1999/xlink" x="0px" y="0px"
	 viewBox="0 0 28 28" enable-background="new 0 0 28 28" xml:space="preserve">
<g>
	<defs>
		<rect id="SVGID_1_" width="28" height="28"/>
	</defs>
	<clipPath id="SVGID_2_">
		<use xlink:href="#SVGID_1_"  overflow="visible"/>
	</clipPath>
	<path clip-path="url(#SVGID_2_)" d="M13,18c2.305,0,4.605-0.878,6.363-2.635c3.516-3.515,3.516-9.214,0-12.729
		C17.605,0.879,15.305,0,13,0c-2.303,0-4.607,0.879-6.363,2.636c-3.516,3.515-3.516,9.214,0,12.729C8.393,17.122,10.697,18,13,18
		 M16,25.034v-2.37c2.527-0.552,4.934-1.799,6.898-3.764c5.018-5.016,5.416-12.883,1.231-18.371L21.986,2.67
		C23.289,4.511,24,6.699,24,9.001c0,2.937-1.145,5.7-3.223,7.777C18.699,18.856,15.937,20,13,20c-2.707,0-5.258-0.982-7.268-2.76
		l-1.414-1.414L0.99,19.154l1.914,1.914l1.254-1.255c2.297,1.883,5.039,2.94,7.842,3.142v2.079C5.219,25.242,0,26.489,0,28h28
		C28,26.489,22.781,25.242,16,25.034"/>
</g>
</svg>
