<?xml version="1.0" encoding="utf-8"?>
<svg version="1.1" id="Layer_1" xmlns="http://www.w3.org/2000/svg" xmlns:xlink="http://www.w3.org/1999/xlink" x="0px" y="0px"
	 viewBox="0 0 28 28" enable-background="new 0 0 28 28" xml:space="preserve">
<g>
	<defs>
		<rect id="SVGID_1_" width="28" height="28"/>
	</defs>
	<clipPath id="SVGID_2_">
		<use xlink:href="#SVGID_1_"  overflow="visible"/>
	</clipPath>
	<path clip-path="url(#SVGID_2_)" d="M24.875,10.521c0.094-0.053,0.076-0.103,0.168-0.161c-1.639-0.369-3.719-2.477-4.756-4.269
		c0,0-3.287-7.191-9.287-5.904v8.55C17,7.475,20.187,12.659,24.875,10.521 M24.502,21C22.568,21,21,22.568,21,24.5
		c0,1.933,1.568,3.5,3.502,3.5C26.434,28,28,26.433,28,24.5C28,22.568,26.434,21,24.502,21 M7,24.789c-4,0.134-7,0.795-7,1.591
		C0,27.275,3.814,28,8.344,28c0.504,0,0.617-0.012,1.617-0.027V0H7V24.789z M11,24.841v3.08c3-0.209,5.646-0.819,5.646-1.541
		C16.646,25.661,14,25.051,11,24.841"/>
</g>
</svg>
