<?xml version="1.0" encoding="utf-8"?>
<svg version="1.1" id="Layer_1" xmlns="http://www.w3.org/2000/svg" xmlns:xlink="http://www.w3.org/1999/xlink" x="0px" y="0px" viewBox="0 0 28 28"
	 enable-background="new 0 0 28 28" xml:space="preserve">

		<g>
			<defs>
				<rect id="SVGID_1_" width="28" height="28"/>
			</defs>
			<clipPath id="SVGID_2_">
				<use xlink:href="#SVGID_1_"  overflow="visible"/>
			</clipPath>
			<path clip-path="url(#SVGID_2_)" fill="#231F20" d="M3.067,21.759C1.344,21.789-0.029,23.21,0,24.934
				C0.03,26.657,1.452,28.03,3.175,28c1.724-0.029,3.097-1.451,3.067-3.174C6.212,23.102,4.791,21.729,3.067,21.759"/>
			<path clip-path="url(#SVGID_2_)" fill="#231F20" d="M9.2,15.409c0.03,1.723,1.451,3.096,3.175,3.067
				c1.723-0.03,3.096-1.452,3.067-3.175c-0.03-1.724-1.452-3.097-3.175-3.067C10.543,12.264,9.17,13.685,9.2,15.409"/>
			<path clip-path="url(#SVGID_2_)" fill="#231F20" d="M17.558,17.345c-1.724,0.03-3.097,1.452-3.067,3.175
				c0.03,1.724,1.452,3.097,3.175,3.067c1.724-0.03,3.097-1.452,3.067-3.175C20.703,18.688,19.282,17.315,17.558,17.345"/>
			<path clip-path="url(#SVGID_2_)" fill="#231F20" d="M7.083,13.365c1.724-0.03,3.096-1.451,3.067-3.175
				c-0.03-1.723-1.452-3.096-3.175-3.067c-1.724,0.03-3.097,1.452-3.067,3.175C3.938,12.022,5.359,13.395,7.083,13.365"/>
			<path clip-path="url(#SVGID_2_)" fill="#231F20" d="M5.129,20.683c1.724-0.03,3.096-1.451,3.067-3.175
				c-0.03-1.723-1.452-3.096-3.175-3.066c-1.724,0.029-3.097,1.451-3.067,3.174C1.984,19.34,3.406,20.713,5.129,20.683"/>
			<path clip-path="url(#SVGID_2_)" fill="#231F20" d="M10.312,19.552c-1.723,0.03-3.097,1.451-3.066,3.175
				c0.029,1.723,1.451,3.096,3.174,3.066c1.724-0.03,3.097-1.451,3.067-3.175C13.457,20.895,12.036,19.522,10.312,19.552"/>
			<path clip-path="url(#SVGID_2_)" fill="#231F20" d="M14.329,11.158c1.723-0.03,3.096-1.451,3.067-3.175
				c-0.03-1.723-1.452-3.096-3.175-3.067c-1.724,0.03-3.097,1.452-3.067,3.175C11.184,9.815,12.605,11.188,14.329,11.158"/>
			<path clip-path="url(#SVGID_2_)" fill="#231F20" d="M19.512,10.027c-1.724,0.03-3.096,1.451-3.067,3.175
				c0.03,1.723,1.452,3.096,3.175,3.067c1.724-0.03,3.097-1.452,3.067-3.175C22.657,11.37,21.236,9.997,19.512,10.027"/>
			<path clip-path="url(#SVGID_2_)" fill="#231F20" d="M27.608,5.513c-0.161-0.035-3.37-0.717-6.1,0.425
				C21.786,5.362,22,4.708,22,4.001c0-2.209-2-4-2-4s-2,1.791-2,4s2,4,2,4s3.281-2.406,7.391-1.511
				c0.275,0.059,0.537-0.112,0.597-0.38C28.047,5.84,27.878,5.573,27.608,5.513"/>
		</g>

</svg>
