<?xml version="1.0" encoding="utf-8"?>
<svg version="1.1" id="Layer_1" xmlns="http://www.w3.org/2000/svg" xmlns:xlink="http://www.w3.org/1999/xlink" x="0px" y="0px" viewBox="0 0 28 28"
	 enable-background="new 0 0 28 28" xml:space="preserve">

		<g>
			<defs>
				<rect id="SVGID_1_" width="28" height="28"/>
			</defs>
			<clipPath id="SVGID_2_">
				<use xlink:href="#SVGID_1_"  overflow="visible"/>
			</clipPath>
			<path clip-path="url(#SVGID_2_)" fill="#231F20" d="M27,3H1c0,4.491,2.677,8.4,6.635,10.457L5.734,17.05
				c1.401,0.171,2.65,0.821,3.58,1.786l2.152-4.067C12.285,14.918,13.133,15,14,15s1.714-0.082,2.534-0.231L20.359,22H10.91
				c0.055,0.326,0.09,0.658,0.09,1s-0.035,0.674-0.09,1h10.507l2.048,3.871L27,26l-6.635-12.543C24.323,11.399,27,7.491,27,3"/>
			<path clip-path="url(#SVGID_2_)" fill="#231F20" d="M5,18c-2.762,0-5,2.238-5,5s2.238,5,5,5s5-2.238,5-5S7.762,18,5,18 M5,25
				c-1.104,0-2-0.897-2-2c0-1.102,0.896-2,2-2s2,0.898,2,2C7,24.103,6.104,25,5,25"/>
			<rect clip-path="url(#SVGID_2_)" fill="#231F20" width="28" height="2"/>
		</g>

</svg>
