<?xml version="1.0" encoding="utf-8"?>
<svg version="1.1" id="Layer_1" xmlns="http://www.w3.org/2000/svg" xmlns:xlink="http://www.w3.org/1999/xlink" x="0px" y="0px" viewBox="0 0 28 28"
	 enable-background="new 0 0 28 28" xml:space="preserve">

		<g>
			<defs>
				<rect id="SVGID_1_" width="28" height="28"/>
			</defs>
			<clipPath id="SVGID_2_">
				<use xlink:href="#SVGID_1_"  overflow="visible"/>
			</clipPath>
			<path clip-path="url(#SVGID_2_)" fill="#231F20" d="M0,12c0,1.105,0.895,2,2,2h1v12.5C3,27.328,3.672,28,4.5,28S6,27.328,6,26.5
				V14h1c1.105,0,2-0.895,2-2V0H0V12z M7,2.5C7,2.224,7.224,2,7.5,2S8,2.224,8,2.5v9C8,11.776,7.776,12,7.5,12S7,11.776,7,11.5V2.5z
				 M5,2.5C5,2.224,5.224,2,5.5,2S6,2.224,6,2.5v9C6,11.776,5.776,12,5.5,12S5,11.776,5,11.5V2.5z M3,2.5C3,2.224,3.224,2,3.5,2
				S4,2.224,4,2.5v9C4,11.776,3.776,12,3.5,12S3,11.776,3,11.5V2.5z M1,2.5C1,2.224,1.224,2,1.5,2S2,2.224,2,2.5v9
				C2,11.776,1.776,12,1.5,12S1,11.776,1,11.5V2.5z"/>
			<path clip-path="url(#SVGID_2_)" fill="#231F20" d="M27,0l-1,8c0,0.828-0.672,1.5-1.5,1.5C23.672,9.5,23,8.828,23,8l-1-8h-1v9.5
				c0,1.105,0.896,2,2,2v15c0,0.828,0.672,1.5,1.5,1.5c0.828,0,1.5-0.672,1.5-1.5v-15c1.105,0,2-0.895,2-2V0H27z"/>
			<path clip-path="url(#SVGID_2_)" fill="#231F20" d="M12,0l-1.814,27.866l1.996,0.13c1.103,0.07,2.053-0.761,2.125-1.861
				c0.072-1.101-0.763-2.049-1.867-2.12c1.104,0.071,2.055-0.761,2.126-1.861c0.072-1.1-0.762-2.049-1.866-2.12L13.614,6h2.772
				L17.3,20.034c-1.104,0.071-1.938,1.02-1.866,2.12c0.071,1.1,1.022,1.932,2.126,1.861c-1.104,0.071-1.939,1.019-1.867,2.12
				c0.072,1.1,1.022,1.931,2.125,1.861l1.996-0.13L18,0H12z M15,4c-0.553,0-1-0.447-1-1c0-0.553,0.447-1,1-1c0.553,0,1,0.447,1,1
				C16,3.553,15.553,4,15,4"/>
		</g>

</svg>
