<?xml version="1.0" encoding="utf-8"?>
<svg version="1.1" id="Layer_1" xmlns="http://www.w3.org/2000/svg" xmlns:xlink="http://www.w3.org/1999/xlink" x="0px" y="0px"
	 viewBox="0 0 28 28" enable-background="new 0 0 28 28" xml:space="preserve">
<g>
	<defs>
		<rect id="SVGID_1_" width="28" height="28"/>
	</defs>
	<clipPath id="SVGID_2_">
		<use xlink:href="#SVGID_1_"  overflow="visible"/>
	</clipPath>
	<path clip-path="url(#SVGID_2_)" d="M21.5,2.499l-2.41,1.255c-0.096-0.727-0.422-1.43-0.981-1.988
		c-0.676-0.676-1.56-1.014-2.447-1.014c-0.885,0-1.77,0.338-2.446,1.014c-0.984,0.982-1.248,2.411-0.798,3.636
		c-0.969,0.131-1.973,0.554-2.94,1.522l-8.885,8.882c-0.935,0.938-0.742,2.664,0.426,3.836l7.338,7.338
		c1.172,1.17,2.899,1.362,3.836,0.424l8.883-8.882c2.41-2.41,1.473-5.044,0.924-6.81l3.5-5.213L21.5,2.499z M14.683,3.232
		c0.262-0.261,0.61-0.406,0.979-0.406s0.719,0.145,0.98,0.406c0.262,0.261,0.407,0.61,0.407,0.98c0,0.369-0.145,0.718-0.407,0.979
		c-0.261,0.261-0.611,0.407-0.98,0.407s-0.717-0.145-0.979-0.407c-0.263-0.261-0.406-0.61-0.406-0.979
		C14.277,3.842,14.42,3.493,14.683,3.232 M12.871,23.77l-8.658-8.657l4.611-4.612l8.658,8.658L12.871,23.77z M27.695,4.63
		l-4.324-4.325C23.17,0.105,22.914,0,22.675,0c-0.183,0-0.357,0.062-0.486,0.191c-0.291,0.293-0.24,0.822,0.117,1.178l4.325,4.325
		c0.201,0.201,0.457,0.305,0.693,0.305c0.185,0,0.359-0.061,0.486-0.188C27.939,5.682,28,5.509,28,5.324
		C28,5.087,27.894,4.829,27.695,4.63"/>
</g>
</svg>
