<?xml version="1.0" encoding="utf-8"?>
<svg version="1.1" id="Layer_1" xmlns="http://www.w3.org/2000/svg" xmlns:xlink="http://www.w3.org/1999/xlink" x="0px" y="0px" viewBox="0 0 28 28"
	 enable-background="new 0 0 28 28" xml:space="preserve">

	<g>
		<polygon fill="#231F20" points="6,12 22,17 22,14.462 6,9.462 		"/>
		<polygon fill="#231F20" points="23,0 23,2 5,2 5,0 1.999,0 1.999,2 0,2 0,4.999 1.999,4.999 1.999,28 5,28 5,4.999 13.124,4.999
			13.124,6 6,6 6,8.413 21.999,13.413 21.999,6 14.875,6 14.875,4.999 23,4.999 23,28 26,28 26,4.999 27.999,4.999 27.999,2 26,2
			26,0 		"/>
		<g>
			<defs>
				<rect id="SVGID_1_" width="28" height="28"/>
			</defs>
			<clipPath id="SVGID_2_">
				<use xlink:href="#SVGID_1_"  overflow="visible"/>
			</clipPath>
			<path clip-path="url(#SVGID_2_)" fill="#231F20" d="M14,25c-2.209,0-4-1.791-4-4H6v7h16v-7h-4C18,23.209,16.209,25,14,25"/>
		</g>
	</g>
</svg>
