<?xml version="1.0" encoding="utf-8"?>
<svg version="1.1" id="Layer_1" xmlns="http://www.w3.org/2000/svg" xmlns:xlink="http://www.w3.org/1999/xlink" x="0px" y="0px" viewBox="0 0 28 28"
	 enable-background="new 0 0 28 28" xml:space="preserve">

		<g>
			<defs>
				<rect id="SVGID_1_" width="28" height="28"/>
			</defs>
			<clipPath id="SVGID_2_">
				<use xlink:href="#SVGID_1_"  overflow="visible"/>
			</clipPath>
			<path clip-path="url(#SVGID_2_)" fill="#231F20" d="M14.573,22.297c0.198-1.094,1.139-2.402,2.093-2.905
				c0,0,1.638-0.86,2.361-1.585c1.626-1.624,1.498-4.458-0.143-6.773l4.153-4.154c0.44,0.29,1.032,0.262,1.418-0.124l3.213-3.214
				c0.441-0.44,0.442-1.164,0-1.605l-1.607-1.605c-0.441-0.442-1.165-0.442-1.606,0l-3.213,3.21
				c-0.386,0.388-0.414,0.979-0.123,1.42l-4.153,4.152c-2.315-1.64-5.149-1.769-6.774-0.144c-0.724,0.724-1.586,2.363-1.586,2.363
				c-0.501,0.954-1.809,1.895-2.903,2.094c0,0-2.902,0.527-4.231,1.856c-2.39,2.39-1.809,6.844,1.296,9.95
				c3.107,3.105,7.56,3.685,9.95,1.294C14.046,25.2,14.573,22.297,14.573,22.297 M14.013,13.986c0.887,0.887,0.888,2.326,0,3.212
				c-0.886,0.887-2.326,0.887-3.213-0.001c-0.886-0.885-0.886-2.324,0-3.211C11.687,13.099,13.127,13.099,14.013,13.986
				 M10.396,21.104l-3.5-3.5c-0.195-0.195-0.195-0.512,0-0.707c0.195-0.195,0.512-0.195,0.707,0l3.5,3.499
				c0.195,0.196,0.195,0.512,0,0.708C10.908,21.299,10.591,21.299,10.396,21.104"/>
		</g>

</svg>
