<?xml version="1.0" encoding="utf-8"?>
<svg version="1.1" id="Layer_1" xmlns="http://www.w3.org/2000/svg" xmlns:xlink="http://www.w3.org/1999/xlink" x="0px" y="0px" viewBox="0 0 28 28"
	 enable-background="new 0 0 28 28" xml:space="preserve">

	<g>
		<polygon fill="#231F20" points="24,2.001 24,12.001 28,14.002 28,0.001 		"/>
		<g>
			<defs>
				<rect id="SVGID_1_" width="28" height="28"/>
			</defs>
			<clipPath id="SVGID_2_">
				<use xlink:href="#SVGID_1_"  overflow="visible"/>
			</clipPath>
			<path clip-path="url(#SVGID_2_)" fill="#231F20" d="M8,1.001c-1.533,0-2.951,0.453-4.167,1.202C3.524,1.496,2.821,1.001,2,1.001
				c-1.104,0-2,0.895-2,2c0,0.82,0.495,1.524,1.203,1.832C0.454,6.05,0,7.467,0,9.001c0,3.648,2.445,6.72,5.784,7.682l0.894,5.345
				c0.181,1.085,1.217,1.824,2.302,1.643l0.216-0.037c0.066,0.611-0.066,1.17-0.406,1.594C8.391,25.726,7.755,26.001,7,26.001H0v2h7
				c1.354,0,2.575-0.555,3.351-1.522c0.691-0.862,0.959-2,0.807-3.173l0.768-0.128c1.085-0.182,1.824-1.218,1.642-2.303
				l-0.901-5.386c1.216-0.876,2.176-2.08,2.746-3.488H23v-10H11.87C10.723,1.365,9.405,1.001,8,1.001 M2,4.001c-0.551,0-1-0.449-1-1
				c0-0.552,0.449-1,1-1c0.552,0,1,0.448,1,1C3,3.552,2.552,4.001,2,4.001 M4.8,12.201c-0.87-0.871-1.308-2.009-1.32-3.15
				l4.469,4.47C6.808,13.508,5.671,13.071,4.8,12.201 M9.509,13.252l-5.76-5.76c0.148-0.421,0.363-0.818,0.64-1.188l6.308,6.308
				C10.327,12.888,9.929,13.104,9.509,13.252 M11.611,11.697L5.303,5.39c0.371-0.277,0.768-0.492,1.188-0.641l5.761,5.76
				C12.103,10.93,11.888,11.327,11.611,11.697 M8.051,4.48C9.192,4.493,10.33,4.93,11.2,5.801c0.871,0.87,1.308,2.008,1.321,3.149
				L8.051,4.48z"/>
		</g>
	</g>
</svg>
