<?xml version="1.0" encoding="utf-8"?>
<svg version="1.1" id="Layer_1" xmlns="http://www.w3.org/2000/svg" xmlns:xlink="http://www.w3.org/1999/xlink" x="0px" y="0px" viewBox="0 0 28 28"
	 enable-background="new 0 0 28 28" xml:space="preserve">

		<g>
			<defs>
				<rect id="SVGID_1_" width="28" height="28"/>
			</defs>
			<clipPath id="SVGID_2_">
				<use xlink:href="#SVGID_1_"  overflow="visible"/>
			</clipPath>
			<path clip-path="url(#SVGID_2_)" fill="#231F20" d="M27.538,8.784L25.73,7.483c-0.498-0.358-1.197-0.244-1.555,0.253L23.85,8.189
				l-1.357-0.976l0.286-0.398c0.38-0.527,0.259-1.269-0.269-1.649l-7.178-5.164L4.322,0.999l13.96,10.044
				c0.527,0.38,1.269,0.259,1.649-0.269l0.286-0.397l1.356,0.976l-0.326,0.452c-0.357,0.497-0.243,1.197,0.254,1.555l1.808,1.301
				c0.498,0.358,1.197,0.244,1.555-0.254l2.928-4.068C28.149,9.841,28.035,9.142,27.538,8.784"/>
			<path clip-path="url(#SVGID_2_)" fill="#231F20" d="M0.521,23.593c-0.894,1.243-0.609,2.992,0.634,3.887
				c1.243,0.894,2.992,0.609,3.887-0.634l11.427-15.875l-4.521-3.253L0.521,23.593z"/>
		</g>

</svg>
