<?xml version="1.0" encoding="utf-8"?>
<svg version="1.1" id="Layer_1" xmlns="http://www.w3.org/2000/svg" xmlns:xlink="http://www.w3.org/1999/xlink" x="0px" y="0px"
	 viewBox="0 0 28 28" enable-background="new 0 0 28 28" xml:space="preserve">
<g>
	<defs>
		<rect id="SVGID_1_" width="28" height="28"/>
	</defs>
	<clipPath id="SVGID_2_">
		<use xlink:href="#SVGID_1_"  overflow="visible"/>
	</clipPath>
	<path clip-path="url(#SVGID_2_)" d="M0,4.409V8h7v16.987c0,1.664,1.336,3.012,3,3.013c0.832,0,1.674-0.336,2.217-0.881
		C12.764,26.573,13,25.782,13,24.952V8h6V0H6.297C6.295-0.001,0,4.409,0,4.409 M28,18.669c0-1.147-0.641-2.143-1.582-2.651L26,8
		l1.58-2.815L26.918,0h-3.859l-0.665,5.185L24,8l-0.443,8.016c-0.258,0.14-0.481,0.315-0.686,0.521
		c-0.545,0.546-0.871,1.3-0.871,2.13v6.32c0,1.664,1.338,3.012,3.002,3.013c0.83,0,1.578-0.336,2.123-0.881
		c0.545-0.546,0.875-1.3,0.875-2.13V18.669z"/>
</g>
</svg>
