<?xml version="1.0" encoding="utf-8"?>
<svg version="1.1" id="Layer_1" xmlns="http://www.w3.org/2000/svg" xmlns:xlink="http://www.w3.org/1999/xlink" x="0px" y="0px"
	 viewBox="0 0 28 28" enable-background="new 0 0 28 28" xml:space="preserve">
<g>
	<defs>
		<rect id="SVGID_1_" width="28" height="28"/>
	</defs>
	<clipPath id="SVGID_2_">
		<use xlink:href="#SVGID_1_"  overflow="visible"/>
	</clipPath>
	<path clip-path="url(#SVGID_2_)" d="M26,5c-1.104,0-2,1.119-2,2.5V13h-1V3.5C23,2.119,21.881,1,20.5,1C19.119,1,18,2.119,18,3.5V13
		h-1V2.5C17,1.119,15.881,0,14.5,0S12,1.119,12,2.5V13h-1V4.5C11,3.119,9.881,2,8.5,2S6,3.119,6,4.5V16H5v-3.5
		C5,11.119,3.881,10,2.5,10S0,11.119,0,12.5V16c0,6.628,6.268,12,14,12s14-5.372,14-12V7.5C28,6.119,27.105,5,26,5"/>
</g>
</svg>
