<?xml version="1.0" encoding="utf-8"?>
<svg version="1.1" id="Layer_1" xmlns="http://www.w3.org/2000/svg" xmlns:xlink="http://www.w3.org/1999/xlink" x="0px" y="0px" viewBox="0 0 28 28"
	 enable-background="new 0 0 28 28" xml:space="preserve">

		<g>
			<defs>
				<rect id="SVGID_1_" width="28" height="28"/>
			</defs>
			<clipPath id="SVGID_2_">
				<use xlink:href="#SVGID_1_"  overflow="visible"/>
			</clipPath>
			<path clip-path="url(#SVGID_2_)" fill="#231F20" d="M27.507,17.082l-3.063-1.999c-0.488-0.319-0.769-0.714-0.769-1.081
				c0-0.372,0.279-0.767,0.769-1.083l3.063-2c0.406-0.263,0.59-0.768,0.445-1.233c-0.146-0.466-0.576-1.007-1.068-0.987
				l-3.709-0.122h-0.08c-0.604,0-1.078,0.033-1.307-0.293c-0.209-0.301-0.221-0.632-0.033-1.134l1.246-3.272
				c0.166-0.45,0.02-0.928-0.363-1.22c-0.383-0.287-0.912-0.28-1.299,0.004l-2.943,2.163c-0.368,0.267-0.747,0.414-1.09,0.414
				c-0.559,0-1.002-0.397-1.217-1.089l-1.051-3.385C14.897,0.309,14.478,0,14.001,0c-0.477,0-0.898,0.309-1.039,0.765l-1.049,3.387
				c-0.215,0.692-0.658,1.091-1.217,1.091c-0.343,0-0.72-0.143-1.09-0.412L6.663,2.675c-0.387-0.283-0.916-0.277-1.299,0.01
				C4.981,2.977,4.835,3.483,5.003,3.933l1.244,3.328c0.188,0.502,0.176,0.943-0.033,1.245C5.987,8.834,5.511,9.023,4.907,9.023
				L1.116,8.921C0.636,8.9,0.194,9.22,0.05,9.686c-0.145,0.465,0.037,0.97,0.445,1.233l3.063,2c0.488,0.316,0.767,0.711,0.767,1.083
				c0,0.367-0.279,0.762-0.767,1.081l-3.063,1.999c-0.408,0.263-0.59,0.768-0.445,1.231c0.144,0.466,0.574,0.591,1.068,0.571
				l3.709-0.295h0.08c0.604,0,1.078,0.383,1.307,0.709c0.207,0.302,0.221,0.841,0.033,1.344l-1.246,3.375
				c-0.168,0.45-0.02,0.982,0.363,1.272c0.383,0.291,0.912,0.306,1.299,0.023l2.943-2.147c0.368-0.27,0.745-0.411,1.088-0.411
				c0.561,0,1.004,0.399,1.219,1.091l1.051,3.389C13.105,27.69,13.524,28,14.001,28c0.477,0,0.898-0.31,1.039-0.766l1.049-3.387
				c0.215-0.692,0.658-1.089,1.217-1.089c0.343,0,0.72,0.143,1.09,0.412l2.943,2.154c0.387,0.283,0.916,0.279,1.299-0.012
				c0.383-0.288,0.529-0.796,0.361-1.246l-1.244-3.328c-0.188-0.502-0.176-0.943,0.033-1.243c0.229-0.329,0.703-0.517,1.307-0.517
				l3.791,0.1c0.48,0.023,0.92-0.299,1.066-0.765C28.097,17.85,27.915,17.345,27.507,17.082 M14.001,21.104
				c-3.918,0-7.105-3.188-7.105-7.104c0-3.917,3.187-7.103,7.105-7.103s7.104,3.186,7.104,7.103
				C21.105,17.916,17.919,21.104,14.001,21.104"/>
			<path clip-path="url(#SVGID_2_)" fill="#231F20" d="M14.001,19c2.049,0,3.805-1.235,4.578-3H9.423
				C10.196,17.765,11.952,19,14.001,19"/>
			<path clip-path="url(#SVGID_2_)" fill="#231F20" d="M11.001,13c0.553,0,1-0.447,1-1c0-0.553-0.447-1-1-1c-0.553,0-1,0.447-1,1
				C10.001,12.553,10.448,13,11.001,13"/>
			<path clip-path="url(#SVGID_2_)" fill="#231F20" d="M17.001,13c0.553,0,1-0.447,1-1c0-0.553-0.447-1-1-1c-0.553,0-1,0.447-1,1
				C16.001,12.553,16.448,13,17.001,13"/>
		</g>

</svg>
