<?xml version="1.0" encoding="utf-8"?>
<svg version="1.1" id="Layer_1" xmlns="http://www.w3.org/2000/svg" xmlns:xlink="http://www.w3.org/1999/xlink" x="0px" y="0px"
	 viewBox="0 0 28 28" enable-background="new 0 0 28 28" xml:space="preserve">
<g>
	<defs>
		<rect id="SVGID_1_" width="28" height="28"/>
	</defs>
	<clipPath id="SVGID_2_">
		<use xlink:href="#SVGID_1_"  overflow="visible"/>
	</clipPath>
	<path clip-path="url(#SVGID_2_)" d="M0,28h28v-5H0V28z M6,6h16V4H6V6z M6.152,10c-0.656,1-0.998,1.8-0.998,2.722
		c0,3.242,3.969,5.903,8.846,5.903c4.879,0,8.848-2.674,8.848-5.916c0-0.922-0.344-1.709-0.998-2.709H6.152z M0,22h28V0H0V22z M5,3
		h18v4H5V3z M2.707,20.709c-0.391,0.389-1.024,0.389-1.414,0c-0.391-0.391-0.391-1.025,0-1.416c0.39-0.389,1.023-0.389,1.414,0
		C3.098,19.684,3.098,20.318,2.707,20.709 M2.707,2.707c-0.391,0.391-1.024,0.391-1.414,0c-0.391-0.391-0.391-1.023,0-1.414
		c0.39-0.391,1.023-0.391,1.414,0C3.098,1.684,3.098,2.316,2.707,2.707 M14,19.686c-5.457,0-9.881-3.126-9.881-6.947
		C4.119,11.374,4.693,10,5.672,9h16.656c0.979,1,1.555,2.374,1.555,3.739C23.883,16.56,19.459,19.686,14,19.686 M26.707,20.738
		c-0.391,0.391-1.023,0.391-1.414,0c-0.391-0.388-0.391-1.023,0-1.414c0.391-0.39,1.023-0.39,1.414,0
		C27.098,19.715,27.098,20.35,26.707,20.738 M26.707,2.707c-0.391,0.391-1.024,0.391-1.414,0c-0.391-0.391-0.391-1.023,0-1.414
		c0.39-0.391,1.023-0.391,1.414,0C27.098,1.684,27.098,2.316,26.707,2.707"/>
</g>
</svg>
