<?xml version="1.0" encoding="utf-8"?>
<svg version="1.1" id="Layer_1" xmlns="http://www.w3.org/2000/svg" xmlns:xlink="http://www.w3.org/1999/xlink" x="0px" y="0px" viewBox="0 0 28 28"
	 enable-background="new 0 0 28 28" xml:space="preserve">

		<g>
			<defs>
				<rect id="SVGID_1_" width="28" height="28"/>
			</defs>
			<clipPath id="SVGID_2_">
				<use xlink:href="#SVGID_1_"  overflow="visible"/>
			</clipPath>
			<path clip-path="url(#SVGID_2_)" fill="#231F20" d="M1,16h26c0.553,0,1-0.447,1-1c0-0.553-0.447-1-1-1H1c-0.553,0-1,0.447-1,1
				C0,15.553,0.447,16,1,16"/>
			<path clip-path="url(#SVGID_2_)" fill="#231F20" d="M24.833,10.833C24.833,4.875,19.958,0,14,0S3.167,4.875,3.167,10.833V13
				h21.666V10.833z"/>
			<path clip-path="url(#SVGID_2_)" fill="#231F20" d="M17,19c-1.201,0-2.267,0.559-3,1.426C13.267,19.559,12.201,19,11,19
				c-5,0-4,6.2-11,2.643c3.267,7.969,11.201,7.361,14,4.054c2.799,3.307,10.733,3.915,14-4.054C21,25.2,22,19,17,19"/>
		</g>

</svg>
