<?xml version="1.0" encoding="utf-8"?>
<svg version="1.1" id="Layer_1" xmlns="http://www.w3.org/2000/svg" xmlns:xlink="http://www.w3.org/1999/xlink" x="0px" y="0px" viewBox="0 0 28 28"
	 enable-background="new 0 0 28 28" xml:space="preserve">

		<g>
			<defs>
				<rect id="SVGID_1_" width="28" height="28"/>
			</defs>
			<clipPath id="SVGID_2_">
				<use xlink:href="#SVGID_1_"  overflow="visible"/>
			</clipPath>
			<path clip-path="url(#SVGID_2_)" fill="#231F20" d="M28,14.25c0-1.631-0.791-3.066-2-3.979l-0.037-0.005
				C25.583,4.543,20.818,0,15,0h-2C7.182,0,2.417,4.543,2.037,10.266L2,10.271c-1.209,0.913-2,2.348-2,3.979
				c0,2.419,1.719,4.436,4,4.899v-2.815V11c0-4.963,4.037-9,9-9h2c4.963,0,9,4.037,9,9v5v3.149c0.35-0.071,0.681-0.19,1-0.33V22.5
				c0,1.93-1.57,3.5-3.5,3.5h-0.592c-0.207-0.581-0.756-1-1.408-1h-6.75c-0.828,0-1.5,0.672-1.5,1.5c0,0.829,0.672,1.5,1.5,1.5h6.75
				c0.652,0,1.201-0.418,1.408-1H21.5c2.481,0,4.5-2.019,4.5-4.5v-4.272C27.208,17.316,28,15.881,28,14.25"/>
			<path clip-path="url(#SVGID_2_)" fill="#231F20" d="M7,11c-1.104,0-2,0.896-2,2v7c0,1.105,0.896,2,2,2c1.105,0,2-0.895,2-2v-7
				C9,11.896,8.105,11,7,11"/>
			<path clip-path="url(#SVGID_2_)" fill="#231F20" d="M21,22c1.105,0,2-0.895,2-2v-7c0-1.104-0.895-2-2-2c-1.104,0-2,0.896-2,2v7
				C19,21.105,19.896,22,21,22"/>
		</g>

</svg>
