<?xml version="1.0" encoding="utf-8"?>
<svg version="1.1" id="Layer_1" xmlns="http://www.w3.org/2000/svg" xmlns:xlink="http://www.w3.org/1999/xlink" x="0px" y="0px" viewBox="0 0 28 28"
	 enable-background="new 0 0 28 28" xml:space="preserve">

		<g>
			<defs>
				<rect id="SVGID_1_" width="28" height="28"/>
			</defs>
			<clipPath id="SVGID_2_">
				<use xlink:href="#SVGID_1_"  overflow="visible"/>
			</clipPath>
			<path clip-path="url(#SVGID_2_)" fill="#231F20" d="M24.623,8.37L28,4.993l-3.622-1.37L23.007,0L19.63,3.378l0.982,2.596
				l-0.973,0.973c-0.807-0.531-1.712-0.856-2.673-0.856c-2.417,0-4.5,1.405-5.465,3.419C10.537,7.496,8.454,6.091,6.04,6.091
				C2.703,6.091,0,9.913,0,13.181c0,2.98,2.306,6.059,4.852,8.553l-1.479,1.479l-1.725-1.725C0.742,20.582,0,20.89,0,22.171V28
				h5.829c1.281,0,1.589-0.742,0.683-1.649l-1.785-1.785l7.919-7.92c0.196-0.195,0.512-0.195,0.707,0
				c0.196,0.196,0.196,0.512,0,0.707L7.017,23.69C9.413,25.697,11.501,27,11.501,27S23,19.625,23,13.181
				c0-1.684-0.723-3.513-1.875-4.892l0.901-0.901L24.623,8.37z"/>
		</g>

</svg>
