<?xml version="1.0" encoding="utf-8"?>
<svg version="1.1" id="Layer_1" xmlns="http://www.w3.org/2000/svg" xmlns:xlink="http://www.w3.org/1999/xlink" x="0px" y="0px"
	 viewBox="0 0 28 28" enable-background="new 0 0 28 28" xml:space="preserve">
<g>
	<defs>
		<rect id="SVGID_1_" width="28" height="28"/>
	</defs>
	<clipPath id="SVGID_2_">
		<use xlink:href="#SVGID_1_"  overflow="visible"/>
	</clipPath>
	<path clip-path="url(#SVGID_2_)" d="M6.492,7.312L2.607,6.365L0,17.051L3.887,18L6.492,7.312z M12.34,5.926
		c1.615,0.365,3.222-0.654,3.586-2.268c0.363-1.616-0.655-3.219-2.272-3.584c-1.613-0.363-3.219,0.65-3.582,2.266
		C9.711,3.953,10.726,5.563,12.34,5.926 M18,17h4l1-4h-4c-2-1-5-6-7-6c0,0-4-1-5,4L3,28h5.164L10,21l3,2v5h4v-8l-4.817-3.594L13,13
		L18,17z M27.078,6.941C27,6.925,26.922,6.92,26.844,6.92c-0.536,0-1.016,0.337-1.129,0.828l-4.348,19.004
		c-0.129,0.562,0.274,1.111,0.899,1.226C22.344,27.992,22.422,28,22.498,28c0.537,0,1.019-0.338,1.131-0.829l4.347-19.005
		C28.103,7.605,27.703,7.055,27.078,6.941"/>
</g>
</svg>
