<?xml version="1.0" encoding="utf-8"?>
<svg version="1.1" id="Layer_1" xmlns="http://www.w3.org/2000/svg" xmlns:xlink="http://www.w3.org/1999/xlink" x="0px" y="0px" viewBox="0 0 28 28"
	 enable-background="new 0 0 28 28" xml:space="preserve">

		<g>
			<defs>
				<rect id="SVGID_1_" width="28" height="28"/>
			</defs>
			<clipPath id="SVGID_2_">
				<use xlink:href="#SVGID_1_"  overflow="visible"/>
			</clipPath>
			<path clip-path="url(#SVGID_2_)" fill="#231F20" d="M27,9h-1.112c0.186,1.645,0.142,3.346-0.048,5H27c0.55,0,1-0.45,1-1v-3
				C28,9.45,27.55,9,27,9"/>
			<path clip-path="url(#SVGID_2_)" fill="#231F20" d="M2.113,9H1c-0.55,0-1,0.45-1,1v3c0,0.55,0.45,1,1,1h1.161
				C1.97,12.346,1.927,10.645,2.113,9"/>
			<path clip-path="url(#SVGID_2_)" fill="#231F20" d="M14.001,0C2.195,0,1.851,10.19,4.063,18.616C5.594,24.446,9.874,28,14.001,28
				c4.126,0,8.407-3.554,9.937-9.384C26.151,10.19,25.805,0,14.001,0 M15.5,3c0.552,0,1,0.449,1,1s-0.448,1-1,1s-1-0.449-1-1
				S14.948,3,15.5,3 M12.5,3c0.552,0,1,0.449,1,1s-0.448,1-1,1s-1-0.449-1-1S11.948,3,12.5,3 M12,25c-0.552,0-1-0.449-1-1
				c0-0.551,0.448-1,1-1s1,0.449,1,1C13,24.551,12.552,25,12,25 M12,22c-0.552,0-1-0.449-1-1c0-0.551,0.448-1,1-1s1,0.449,1,1
				C13,21.551,12.552,22,12,22 M12,19c-0.552,0-1-0.449-1-1c0-0.551,0.448-1,1-1s1,0.449,1,1C13,18.551,12.552,19,12,19 M13,12.006
				c0,0.006-0.004,0.011-0.004,0.017C12.98,13.39,12,14,11,14H9c-2,0.012-3-1.003-3-2.985c0-0.003,0.001-0.006,0.001-0.01
				c0-0.003-0.001-0.007-0.001-0.01c0-0.006,0.004-0.012,0.004-0.018C6.021,9.61,7,9,8,9l2,0.013c2-0.013,3,0.991,3,2.972
				c0,0.004-0.001,0.007-0.001,0.011C12.999,11.999,13,12.003,13,12.006 M14,8c-0.552,0-1-0.449-1-1s0.448-1,1-1s1,0.449,1,1
				S14.552,8,14,8 M16,25c-0.552,0-1-0.449-1-1c0-0.551,0.448-1,1-1s1,0.449,1,1C17,24.551,16.552,25,16,25 M16,22
				c-0.552,0-1-0.449-1-1c0-0.551,0.448-1,1-1s1,0.449,1,1C17,21.551,16.552,22,16,22 M16,19c-0.552,0-1-0.449-1-1
				c0-0.551,0.448-1,1-1s1,0.449,1,1C17,18.551,16.552,19,16,19 M22,10.995c0,0.003-0.001,0.007-0.001,0.01
				c0,0.004,0.001,0.007,0.001,0.01c0,1.982-1,2.997-3,2.985h-2c-1,0-1.979-0.61-1.996-1.977c0-0.006-0.004-0.011-0.004-0.017
				c0-0.003,0.001-0.007,0.001-0.01c0-0.004-0.001-0.007-0.001-0.011c0-1.981,1-2.985,3-2.972L20,9c1,0,1.98,0.61,1.996,1.977
				C21.996,10.983,22,10.989,22,10.995"/>
		</g>

</svg>
