<?xml version="1.0" encoding="utf-8"?>
<svg version="1.1" id="Layer_1" xmlns="http://www.w3.org/2000/svg" xmlns:xlink="http://www.w3.org/1999/xlink" x="0px" y="0px" viewBox="0 0 28 28"
	 enable-background="new 0 0 28 28" xml:space="preserve">

		<g>
			<defs>
				<rect id="SVGID_1_" width="28" height="28"/>
			</defs>
			<clipPath id="SVGID_2_">
				<use xlink:href="#SVGID_1_"  overflow="visible"/>
			</clipPath>
			<path clip-path="url(#SVGID_2_)" fill="#231F20" d="M22.895,0.212c-0.99-0.495-2.189-0.093-2.684,0.895L14.56,12.41l2.171,4.343
				l7.059-13.857C24.284,1.907,23.882,0.706,22.895,0.212"/>
			<rect x="3" y="22.001" clip-path="url(#SVGID_2_)" fill="#231F20" width="1" height="6"/>
			<rect y="22.001" clip-path="url(#SVGID_2_)" fill="#231F20" width="2" height="6"/>
			<polygon clip-path="url(#SVGID_2_)" fill="#231F20" points="9.764,22.001 5,22.001 5,28.001 11,28.001 13.439,23.213 
				11.278,18.972 			"/>
			<rect x="24" y="22.001" clip-path="url(#SVGID_2_)" fill="#231F20" width="1" height="6"/>
			<rect x="26" y="22.001" clip-path="url(#SVGID_2_)" fill="#231F20" width="2" height="6"/>
			<path clip-path="url(#SVGID_2_)" fill="#231F20" d="M7.789,1.107C7.295,0.12,6.096-0.283,5.105,0.212
				C4.117,0.707,3.717,1.908,4.211,2.896L17,28.002h6v-6h-4.764L7.789,1.107z"/>
		</g>

</svg>
