<?xml version="1.0" encoding="utf-8"?>
<svg version="1.1" id="Layer_1" xmlns="http://www.w3.org/2000/svg" xmlns:xlink="http://www.w3.org/1999/xlink" x="0px" y="0px" viewBox="0 0 28 28"
	 enable-background="new 0 0 28 28" xml:space="preserve">

		<g>
			<defs>
				<rect id="SVGID_1_" width="28" height="28"/>
			</defs>
			<clipPath id="SVGID_2_">
				<use xlink:href="#SVGID_1_"  overflow="visible"/>
			</clipPath>
			<path clip-path="url(#SVGID_2_)" fill="#231F20" d="M7,9.329c0,1.657,1.343,3,3,3s3-1.343,3-3c0-1.657-1.343-3-3-3
				S7,7.672,7,9.329"/>
			<path clip-path="url(#SVGID_2_)" fill="#231F20" d="M6,9.329c0-1.657-1.343-3-3-3s-3,1.343-3,3c0,1.657,1.343,3,3,3
				S6,10.986,6,9.329"/>
			<path clip-path="url(#SVGID_2_)" fill="#231F20" d="M6.5,6c1.657,0,3-1.343,3-3c0-1.657-1.343-3-3-3s-3,1.343-3,3
				C3.5,4.657,4.843,6,6.5,6"/>
			<path clip-path="url(#SVGID_2_)" fill="#231F20" d="M27.964,3.626c-0.003-0.004-0.006-0.011-0.008-0.019
				c-0.086-0.214-0.312-0.346-0.549-0.306c-1.841,0.319-3.68-0.917-4.393-2.964c-0.045-0.176-0.208-0.299-0.389-0.33
				c-0.18-0.03-0.364,0.04-0.476,0.183c-0.586,0.744-1.341,1.213-2.185,1.358c-1.204,0.208-2.43-0.246-3.363-1.243
				c-0.115-0.124-0.283-0.18-0.45-0.152c-0.165,0.029-0.306,0.139-0.373,0.293C15.232,1.7,14.23,2.537,13.026,2.744
				c-0.843,0.146-1.713-0.043-2.515-0.547c-0.031-0.019-0.068-0.019-0.101-0.031C10.467,2.436,10.5,2.714,10.5,3
				c0,0.834-0.262,1.606-0.7,2.247c0.001,0.029,0.003,0.059,0.005,0.088C9.87,5.332,9.935,5.329,10,5.329c2.206,0,4,1.794,4,4
				c0,0.124-0.025,0.242-0.037,0.364c0.084-0.021,0.166-0.049,0.252-0.064c1.203-0.207,2.427,0.246,3.361,1.245
				c0.115,0.123,0.284,0.179,0.45,0.152c0.165-0.029,0.306-0.139,0.373-0.295c0.546-1.252,1.548-2.09,2.751-2.298
				c0.845-0.145,1.715,0.044,2.515,0.548c0.155,0.097,0.351,0.102,0.51,0.013c0.16-0.089,0.258-0.259,0.256-0.442
				c-0.023-2.104,1.241-3.865,3.023-4.241c0.076,0.007,0.156-0.004,0.232-0.035C27.943,4.173,28.067,3.882,27.964,3.626"/>
			<path clip-path="url(#SVGID_2_)" fill="#231F20" d="M12.154,19.886c-0.256-1.194,0.148-2.437,1.107-3.409
				c0.12-0.12,0.169-0.292,0.134-0.456c-0.036-0.165-0.151-0.301-0.308-0.362c-1.184-0.459-2.018-1.328-2.337-2.406
				c-0.243,0.046-0.493,0.076-0.749,0.076c-1.504,0-2.817-0.835-3.5-2.065c-0.63,1.133-1.796,1.922-3.152,2.041
				c0.241,0.356,0.41,0.746,0.498,1.162c0.256,1.194-0.147,2.437-1.107,3.41c-0.118,0.119-0.168,0.291-0.133,0.455
				c0.036,0.165,0.151,0.301,0.309,0.362c1.273,0.494,2.151,1.463,2.406,2.657c0.181,0.837,0.026,1.713-0.445,2.533
				c-0.091,0.158-0.088,0.355,0.007,0.511c0.096,0.156,0.271,0.262,0.452,0.237c2.165-0.1,3.997,1.146,4.387,2.973
				C9.774,27.839,9.981,28,10.212,28c0.007-0.001,0.015-0.001,0.02,0c0.276,0,0.5-0.223,0.5-0.5c0-0.082-0.019-0.16-0.055-0.228
				c-0.314-1.794,0.849-3.623,2.81-4.386c0.17-0.066,0.291-0.221,0.314-0.402c0.024-0.181-0.054-0.361-0.202-0.468
				C12.834,21.46,12.334,20.724,12.154,19.886"/>
		</g>

</svg>
