<?xml version="1.0" encoding="utf-8"?>
<svg version="1.1" id="Layer_1" xmlns="http://www.w3.org/2000/svg" xmlns:xlink="http://www.w3.org/1999/xlink" x="0px" y="0px" viewBox="0 0 28 28"
	 enable-background="new 0 0 28 28" xml:space="preserve">

		<g>
			<defs>
				<rect id="SVGID_1_" width="28" height="28"/>
			</defs>
			<clipPath id="SVGID_2_">
				<use xlink:href="#SVGID_1_"  overflow="visible"/>
			</clipPath>
			<path clip-path="url(#SVGID_2_)" fill="#231F20" d="M27,0H1C0.45,0,0,0.45,0,1c0,0.55,0.45,1,1,1h26c0.55,0,1-0.45,1-1
				C28,0.45,27.55,0,27,0"/>
			<path clip-path="url(#SVGID_2_)" fill="#231F20" d="M14.742,13.184h1.238V8h5.52L24,3H4l2.5,5h5.521v2.132
				c-4.265,0.707-7.52,4.403-7.52,8.868c0,4.971,4.029,9,9,9c4.97,0,9-4.029,9-9c0-0.698-0.567-1.264-1.265-1.264
				S19.971,18.302,19.971,19c-0.271,2.664-2.494,4.75-5.229,4.75c-2.918,0-5.283-2.365-5.283-5.283
				C9.459,15.55,11.824,13.184,14.742,13.184"/>
		</g>

</svg>
