<?xml version="1.0" encoding="utf-8"?>
<svg version="1.1" id="Layer_1" xmlns="http://www.w3.org/2000/svg" xmlns:xlink="http://www.w3.org/1999/xlink" x="0px" y="0px"
	 viewBox="0 0 28 28" enable-background="new 0 0 28 28" xml:space="preserve">
<g>
	<defs>
		<rect id="SVGID_1_" width="28" height="28"/>
	</defs>
	<clipPath id="SVGID_2_">
		<use xlink:href="#SVGID_1_"  overflow="visible"/>
	</clipPath>
	<path clip-path="url(#SVGID_2_)" d="M1.318,20.318l19-19L20,1c-1.012-0.888-2.049-1.275-3.116-1.275
		c-3.109,0-6.468,3.281-10.173,6.986C1.734,11.689-2.475,16.043,1,20L1.318,20.318z"/>
	<path clip-path="url(#SVGID_2_)" d="M27,4.5C27,2.567,25.431,1,23.5,1c-0.967,0-1.842,0.391-2.475,1.025l-19,19
		C1.39,21.658,1,22.533,1,23.5C1,25.432,2.566,27,4.5,27c0.965,0,1.84-0.392,2.474-1.026l19-19C26.607,6.342,27,5.467,27,4.5
		 M8.994,21.033h-1v1h-1v-1h-1v-1h1v-1h1v1h1V21.033z M14.994,15.033h-1v1h-1v-1h-1v-1h1v-1h1v1h1V15.033z M20.994,9.033h-1v1h-1v-1
		h-1v-1h1v-1h1v1h1V9.033z"/>
	<path clip-path="url(#SVGID_2_)" d="M27,8l-0.318-0.318l-19,19L8,27c1.01,0.889,2.047,1.275,3.115,1.275
		c3.108,0,6.467-3.279,10.172-6.984C26.266,16.312,30.475,11.956,27,8"/>
</g>
</svg>
