<?xml version="1.0" encoding="utf-8"?>
<svg version="1.1" id="Layer_1" xmlns="http://www.w3.org/2000/svg" xmlns:xlink="http://www.w3.org/1999/xlink" x="0px" y="0px"
	 viewBox="0 0 28 28" enable-background="new 0 0 28 28" xml:space="preserve">
<g>
	<defs>
		<rect id="SVGID_1_" width="28" height="28"/>
	</defs>
	<clipPath id="SVGID_2_">
		<use xlink:href="#SVGID_1_"  overflow="visible"/>
	</clipPath>
	<path clip-path="url(#SVGID_2_)" d="M1,25h2V15H1V25z M7,25h2V15H7V25z M4,25h2V15H4V25z M0,28h28v-2H0V28z M20.523,6
		c1.655,0,3.002-1.341,3.002-3c0-1.654-1.347-3-3.002-3c-1.658,0-2.998,1.346-2.998,3C17.525,4.659,18.865,6,20.523,6 M7,6
		c1.66,0,3-1.341,3-3c0-1.654-1.34-3-3-3C5.348,0,4,1.346,4,3C4,4.659,5.348,6,7,6 M0.629,11h10.894c-1.49-1.776-3.88-4-5.255-4
		C4,7,0,9.403,0,10.198v0.313C0,10.823,0.279,11,0.629,11 M10,25h2V15h-2V25z M13,25h2V15h-2V25z M25,25h2V15h-2V25z M21.496,7
		C20.121,7,17.492,9.224,16,11h10.894C27.244,11,28,10.823,28,10.511v-0.313C28,9.403,23.762,7,21.496,7 M0,14h28v-2H0V14z M22,25h2
		V15h-2V25z M16,25h2V15h-2V25z M19,25h2V15h-2V25z"/>
</g>
</svg>
