<?xml version="1.0" encoding="utf-8"?>
<svg version="1.1" id="Layer_1" xmlns="http://www.w3.org/2000/svg" xmlns:xlink="http://www.w3.org/1999/xlink" x="0px" y="0px"
	 viewBox="0 0 28 28" enable-background="new 0 0 28 28" xml:space="preserve">
<g>
	<defs>
		<rect id="SVGID_1_" width="28" height="28"/>
	</defs>
	<clipPath id="SVGID_2_">
		<use xlink:href="#SVGID_1_"  overflow="visible"/>
	</clipPath>
	<path clip-path="url(#SVGID_2_)" d="M22,7V6H6v1l7,5.428V19l-7,3.711v1.145h16v-1.145L15,19v-6.572L22,7z M22.166,11.673
		C24.354,10.026,26,6.974,26,4.573V3h2V0H0v3h2v1.573c0,2.402,1.649,5.454,3.834,7.098c1.188,0.889,1.945,1.861,2.217,2.334
		c-0.266,0.475-1.014,1.444-2.186,2.321C3.66,17.987,2,21.037,2,23.428V25H0v3h28v-3h-2v-1.572c0-2.401-1.646-5.453-3.83-7.098
		c-1.137-0.85-1.953-1.819-2.26-2.33C20.217,13.49,21.033,12.522,22.166,11.673 M20.967,17.928c1.725,1.299,3.033,3.775,3.033,5.5
		V25H4v-1.572c0-1.725,1.338-4.201,3.063-5.5c1.73-1.295,3.064-3.063,3.064-3.928c0-0.865-1.359-2.632-3.09-3.927
		C5.311,8.774,4,6.298,4,4.573V3h20v1.573c0,1.725-1.308,4.201-3.033,5.5c-1.73,1.295-3.145,3.062-3.145,3.927
		C17.822,14.865,19.237,16.633,20.967,17.928"/>
</g>
</svg>
