<?xml version="1.0" encoding="utf-8"?>
<svg version="1.1" id="Layer_1" xmlns="http://www.w3.org/2000/svg" xmlns:xlink="http://www.w3.org/1999/xlink" x="0px" y="0px" viewBox="0 0 28 28"
	 enable-background="new 0 0 28 28" xml:space="preserve">

		<g>
			<defs>
				<rect id="SVGID_1_" width="28" height="28"/>
			</defs>
			<clipPath id="SVGID_2_">
				<use xlink:href="#SVGID_1_"  overflow="visible"/>
			</clipPath>
			<path clip-path="url(#SVGID_2_)" fill="#231F20" d="M27,26.001h-3v-3h2v-19H10.678l0.31,2H14.5c0.275,0,0.5,0.225,0.5,0.5
				s-0.225,0.5-0.5,0.5h-3.357l0.311,2H14.5c0.275,0,0.5,0.225,0.5,0.5s-0.225,0.5-0.5,0.5h-2.891l0.31,2H14.5
				c0.275,0,0.5,0.225,0.5,0.5c0,0.275-0.225,0.5-0.5,0.5H9c-3.314,0-6,2.686-6,6c0,1.539,0.584,2.938,1.537,4H7v3H4
				c-1.825,0-1.992-1.534-2-2.006c-0.003-0.55-0.45-0.994-1-0.994c-0.553,0-1,0.447-1,1c0,1.607,1.065,4,4,4h23c0.553,0,1-0.447,1-1
				C28,26.448,27.553,26.001,27,26.001 M9,23.001h13v3H9V23.001z"/>
			<path clip-path="url(#SVGID_2_)" fill="#231F20" d="M9.891,3.001h16.218C26.599,3.001,27,2.6,27,2.11V0.892
				c0-0.49-0.401-0.891-0.891-0.891H9.891C9.401,0.001,9,0.402,9,0.892V2.11C9,2.6,9.401,3.001,9.891,3.001"/>
		</g>

</svg>
