<?xml version="1.0" encoding="utf-8"?>
<svg version="1.1" id="Layer_1" xmlns="http://www.w3.org/2000/svg" xmlns:xlink="http://www.w3.org/1999/xlink" x="0px" y="0px" viewBox="0 0 28 28"
	 enable-background="new 0 0 28 28" xml:space="preserve">

	<g>
		<polygon fill="#231F20" points="3.213,15 9,28 15,15 		"/>
		<polygon fill="#231F20" points="16.102,15 14.631,18.185 19,28 25,15 		"/>
		<g>
			<defs>
				<rect id="SVGID_1_" width="28" height="28"/>
			</defs>
			<clipPath id="SVGID_2_">
				<use xlink:href="#SVGID_1_"  overflow="visible"/>
			</clipPath>
			<path clip-path="url(#SVGID_2_)" fill="#231F20" d="M18,11.5c0-1.211-0.86-2.22-2.003-2.45C15.963,2.049,9.008,0,9.008,0
				c1.187,3.992-1.713,3.992-1.713,3.992C0.777,3.88,1.864,8.589,1.987,9.054C0.852,9.29,0,10.295,0,11.5C0,12.881,1.119,14,2.5,14
				h13C16.881,14,18,12.881,18,11.5"/>
			<path clip-path="url(#SVGID_2_)" fill="#231F20" d="M25.997,9.05c0-0.044-0.008-0.08-0.009-0.122C25.99,8.874,26,8.823,26,8.77
				c0-3.315-2.687-6-6-6c-1.608,0-3.052,0.644-4.127,1.674c0.575,1.091,0.993,2.368,1.098,3.88C18.183,8.887,19,10.118,19,11.5
				c0,0.98-0.407,1.864-1.059,2.5H25.5c1.381,0,2.5-1.119,2.5-2.5C28,10.289,27.14,9.28,25.997,9.05"/>
		</g>
	</g>
</svg>
