<?xml version="1.0" encoding="utf-8"?>
<svg version="1.1" id="Layer_1" xmlns="http://www.w3.org/2000/svg" xmlns:xlink="http://www.w3.org/1999/xlink" x="0px" y="0px"
	 viewBox="0 0 28 28" enable-background="new 0 0 28 28" xml:space="preserve">
<g>
	<defs>
		<rect id="SVGID_1_" width="28" height="28"/>
	</defs>
	<clipPath id="SVGID_2_">
		<use xlink:href="#SVGID_1_"  overflow="visible"/>
	</clipPath>
	<path clip-path="url(#SVGID_2_)" d="M14,0C6.268,0,0,6.267,0,14c0,7.734,6.268,14,14,14c7.73,0,14-6.266,14-14
		C28,6.267,21.73,0,14,0 M14.026,5.074c1.07,0,1.974,0.889,1.974,2s-0.959,2-2.027,2c-1.069,0-1.973-0.889-1.973-2
		S12.958,5.074,14.026,5.074 M18,23.033h-7V20h1.983v-5.967h-2V11H16v9h2V23.033z"/>
</g>
</svg>
