<?xml version="1.0" encoding="utf-8"?>
<svg version="1.1" id="Layer_1" xmlns="http://www.w3.org/2000/svg" xmlns:xlink="http://www.w3.org/1999/xlink" x="0px" y="0px"
	 viewBox="0 0 28 28" enable-background="new 0 0 28 28" xml:space="preserve">
<g>
	<defs>
		<rect id="SVGID_1_" width="28" height="28"/>
	</defs>
	<clipPath id="SVGID_2_">
		<use xlink:href="#SVGID_1_"  overflow="visible"/>
	</clipPath>
	<path clip-path="url(#SVGID_2_)" d="M12,7h-1V3.815V3h6V0l10.852,3.32l-4.231,1.775L23,5.319V4H12V7z M24.581,5.855l-0.819,0.367
		L17,9.136V24h-5v-1h2.5c0.829,0,1.5-0.672,1.5-1.5c0-0.829-0.671-1.5-1.5-1.5H10v-1h4.5c0.829,0,1.5-0.672,1.5-1.5
		c0-0.829-0.671-1.5-1.5-1.5H10v-1h4.5c0.829,0,1.5-0.672,1.5-1.5c0-0.829-0.671-1.5-1.5-1.5H10v-1h4.5c0.829,0,1.5-0.672,1.5-1.5
		C16,8.671,15.329,8,14.5,8H10H9.5H7V7h3V4C4.477,4,0,7.478,0,13c0,5.238,4.031,9.529,9.16,9.957C9.269,22.983,9.383,23,9.5,23H11
		v0.734V25h6v3l11-3.518V4.391L24.581,5.855z"/>
</g>
</svg>
