<?xml version="1.0" encoding="utf-8"?>
<svg version="1.1" id="Layer_1" xmlns="http://www.w3.org/2000/svg" xmlns:xlink="http://www.w3.org/1999/xlink" x="0px" y="0px" viewBox="0 0 28 28"
	 enable-background="new 0 0 28 28" xml:space="preserve">

		<g>
			<defs>
				<rect id="SVGID_1_" width="28" height="28"/>
			</defs>
			<clipPath id="SVGID_2_">
				<use xlink:href="#SVGID_1_"  overflow="visible"/>
			</clipPath>
			<path clip-path="url(#SVGID_2_)" fill="#231F20" d="M11,6.001h5c0.55,0,1-0.45,1-1v-4c0-0.55-0.45-1-1-1h-5c-0.55,0-1,0.45-1,1v4
				C10,5.551,10.45,6.001,11,6.001"/>
			<path clip-path="url(#SVGID_2_)" fill="#231F20" d="M20,12.001H8c-0.55,0-1,0.45-1,1v4c0,0.55,0.45,1,1,1h12c0.55,0,1-0.45,1-1
				v-4C21,12.451,20.55,12.001,20,12.001"/>
			<path clip-path="url(#SVGID_2_)" fill="#231F20" d="M27,7.001H2.648c-0.55,0-1.202,0.402-1.447,0.894l-1.106,2.211
				c-0.246,0.492,0.003,0.895,0.553,0.895H27c0.55,0,1-0.45,1-1v-2C28,7.451,27.55,7.001,27,7.001"/>
			<path clip-path="url(#SVGID_2_)" fill="#231F20" d="M12,19.001h-2c-0.55,0-1.098,0.439-1.217,0.976l-1.566,7.048
				C7.098,27.562,7.45,28.001,8,28.001h4c0.55,0,1-0.45,1-1v-7C13,19.451,12.55,19.001,12,19.001"/>
			<path clip-path="url(#SVGID_2_)" fill="#231F20" d="M19,19.001h-3c-0.55,0-1,0.45-1,1v7c0,0.55,0.45,1,1,1h4
				c0.55,0,0.95-0.447,0.89-0.994l-0.78-7.012C20.05,19.448,19.55,19.001,19,19.001"/>
		</g>

</svg>
