<?xml version="1.0" encoding="utf-8"?>
<svg version="1.1" id="Layer_1" xmlns="http://www.w3.org/2000/svg" xmlns:xlink="http://www.w3.org/1999/xlink" x="0px" y="0px"
	 viewBox="0 0 28 28" enable-background="new 0 0 28 28" xml:space="preserve">
<g>
	<defs>
		<rect id="SVGID_1_" width="28" height="28"/>
	</defs>
	<clipPath id="SVGID_2_">
		<use xlink:href="#SVGID_1_"  overflow="visible"/>
	</clipPath>
	<path clip-path="url(#SVGID_2_)" d="M23.399,0H4.601C3.164,0,2,1.164,2,2.6v22.8C2,26.836,3.164,28,4.601,28h18.798
		C24.836,28,26,26.836,26,25.4V2.6C26,1.164,24.836,0,23.399,0 M14.001,26.5c-0.83-0.002-1.502-0.672-1.502-1.502
		c0-0.827,0.67-1.498,1.494-1.498h0.004h0.004c0.83,0,1.498,0.671,1.498,1.498C15.499,25.826,14.829,26.498,14.001,26.5 M24,22H4V3
		h20V22z"/>
</g>
</svg>
