<?xml version="1.0" encoding="utf-8"?>
<svg version="1.1" id="Layer_1" xmlns="http://www.w3.org/2000/svg" xmlns:xlink="http://www.w3.org/1999/xlink" x="0px" y="0px" viewBox="0 0 28 28"
	 enable-background="new 0 0 28 28" xml:space="preserve">

		<g>
			<defs>
				<rect id="SVGID_1_" width="28" height="28"/>
			</defs>
			<clipPath id="SVGID_2_">
				<use xlink:href="#SVGID_1_"  overflow="visible"/>
			</clipPath>
			<path clip-path="url(#SVGID_2_)" fill="#231F20" d="M24,0H5.282c-1.104,0-2,0.896-2,2c0,1.105,0.896,2,2,2h15.282l1.524,8H18
				c0-0.55-0.45-1-1-1h-3c-0.55,0-1,0.45-1,1v0.007c-0.057,0-0.11-0.007-0.167-0.007C5.746,12,0,16.925,0,23v1h28L24,0z M5.5,22
				C4.672,22,4,21.328,4,20.5S4.672,19,5.5,19S7,19.672,7,20.5S6.328,22,5.5,22 M11.5,22c-0.828,0-1.5-0.672-1.5-1.5
				s0.672-1.5,1.5-1.5s1.5,0.672,1.5,1.5S12.328,22,11.5,22 M17.5,22c-0.828,0-1.5-0.672-1.5-1.5s0.672-1.5,1.5-1.5
				c0.828,0,1.5,0.672,1.5,1.5S18.328,22,17.5,22 M23.5,22c-0.828,0-1.5-0.672-1.5-1.5s0.672-1.5,1.5-1.5c0.828,0,1.5,0.672,1.5,1.5
				S24.328,22,23.5,22"/>
			<rect y="25" clip-path="url(#SVGID_2_)" fill="#231F20" width="28" height="3"/>
		</g>

</svg>
