<?xml version="1.0" encoding="utf-8"?>
<svg version="1.1" id="Layer_1" xmlns="http://www.w3.org/2000/svg" xmlns:xlink="http://www.w3.org/1999/xlink" x="0px" y="0px"
	 viewBox="0 0 28 28" enable-background="new 0 0 28 28" xml:space="preserve">
<g>
	<defs>
		<rect id="SVGID_1_" width="28" height="28"/>
	</defs>
	<clipPath id="SVGID_2_">
		<use xlink:href="#SVGID_1_"  overflow="visible"/>
	</clipPath>
	<path clip-path="url(#SVGID_2_)" d="M20.812,15h-2.383c0-1-0.611-2.377-1.73-3.246C16.424,11.541,16,11.137,16,10.908v8.176
		c0,1.983-2.084,3.592-4.451,3.592c-2.362,0-4.453-1.609-4.453-3.592s1.826-3.593,4.187-3.593c0.686,0,1.717,0.14,1.717,0.378V5
		h2.754c0.127,1,0.588,3.151,1.218,3.79c0.28,0.283,0.661,0.769,1.063,1.081C19.273,10.83,20.812,13,20.812,15 M28,14
		c0,7.732-6.268,14-14,14C6.269,28,0,21.732,0,14S6.269,0,14,0C21.732,0,28,6.268,28,14 M25.408,14
		c0-6.29-5.117-11.407-11.408-11.407C7.711,2.593,2.594,7.71,2.594,14S7.711,25.407,14,25.407C20.291,25.407,25.408,20.29,25.408,14
		"/>
</g>
</svg>
