<?xml version="1.0" encoding="utf-8"?>
<svg version="1.1" id="Layer_1" xmlns="http://www.w3.org/2000/svg" xmlns:xlink="http://www.w3.org/1999/xlink" x="0px" y="0px"
	 viewBox="0 0 28 28" enable-background="new 0 0 28 28" xml:space="preserve">
<g>
	<defs>
		<rect id="SVGID_1_" width="28" height="28"/>
	</defs>
	<clipPath id="SVGID_2_">
		<use xlink:href="#SVGID_1_"  overflow="visible"/>
	</clipPath>
	<path clip-path="url(#SVGID_2_)" d="M16.32,6.263c0.127-1.356,0.641-2.858,1.836-3.377l-1.235-2.85
		c-2.662,1.154-4.496,3.676-5.263,6.223C12.429,6.395,13.226,6.63,14,7.038C14.767,6.634,15.556,6.399,16.32,6.263 M18.668,7.073
		c-1.704,0-3.293,0.233-4.668,1.123c-1.373-0.89-2.963-1.123-4.666-1.123C4.179,7.073,0,11.749,0,17.518
		c0,5.768,4.179,10.446,9.334,10.446h9.334c5.154,0,9.332-4.678,9.332-10.446C28,11.749,23.822,7.073,18.668,7.073 M18.021,10.964
		l2.002,4h-4.006L18.021,10.964z M10.011,10.964l2.002,4H8.009L10.011,10.964z M18.941,22.997l-0.635-1.221
		c-0.183-0.355-0.623-0.494-0.978-0.31l-1.487,0.769c-0.353,0.184-0.494,0.623-0.308,0.977l0.551,1.066
		c-0.674,0.162-1.377,0.25-2.104,0.25c-3.576,0-6.703-2.453-7.973-5.564h16.018C21.42,20.513,20.279,22.071,18.941,22.997"/>
</g>
</svg>
