<?xml version="1.0" encoding="utf-8"?>
<svg version="1.1" id="Layer_1" xmlns="http://www.w3.org/2000/svg" xmlns:xlink="http://www.w3.org/1999/xlink" x="0px" y="0px" viewBox="0 0 28 28"
	 enable-background="new 0 0 28 28" xml:space="preserve">

		<g>
			<defs>
				<rect id="SVGID_1_" width="28" height="28"/>
			</defs>
			<clipPath id="SVGID_2_">
				<use xlink:href="#SVGID_1_"  overflow="visible"/>
			</clipPath>
			<path clip-path="url(#SVGID_2_)" fill="#231F20" d="M2,26.198C2,27.398,3,28,4,28s2-0.601,2-1.802V23H2V26.198z"/>
			<path clip-path="url(#SVGID_2_)" fill="#231F20" d="M22,26.198c0,1.2,1,1.802,2,1.802s2-0.601,2-1.802V23h-4V26.198z"/>
			<path clip-path="url(#SVGID_2_)" fill="#231F20" d="M27,18v-4c0-1.469-0.812-2.746-2-3.441V3c0-1.65-1.35-3-3-3H6
				C4.35,0,3,1.35,3,3v7.559C1.811,11.254,1,12.531,1,14v4H0v3.99h28V18H27z M6,3h16v7H6V3z M5.5,17C4.119,17,3,15.881,3,14.5
				S4.119,12,5.5,12S8,13.119,8,14.5S6.881,17,5.5,17 M10,18.5c0,0.275-0.225,0.5-0.5,0.5S9,18.775,9,18.5v-6
				C9,12.225,9.225,12,9.5,12s0.5,0.225,0.5,0.5V18.5z M12.25,18.5c0,0.275-0.225,0.5-0.5,0.5s-0.5-0.225-0.5-0.5v-6
				c0-0.275,0.225-0.5,0.5-0.5s0.5,0.225,0.5,0.5V18.5z M14.5,18.5c0,0.275-0.225,0.5-0.5,0.5s-0.5-0.225-0.5-0.5v-6
				c0-0.275,0.225-0.5,0.5-0.5s0.5,0.225,0.5,0.5V18.5z M16.75,18.5c0,0.275-0.225,0.5-0.5,0.5c-0.275,0-0.5-0.225-0.5-0.5v-6
				c0-0.275,0.225-0.5,0.5-0.5c0.275,0,0.5,0.225,0.5,0.5V18.5z M19,18.5c0,0.275-0.225,0.5-0.5,0.5c-0.275,0-0.5-0.225-0.5-0.5v-6
				c0-0.275,0.225-0.5,0.5-0.5c0.275,0,0.5,0.225,0.5,0.5V18.5z M22.5,17c-1.381,0-2.5-1.119-2.5-2.5s1.119-2.5,2.5-2.5
				c1.381,0,2.5,1.119,2.5,2.5S23.881,17,22.5,17"/>
		</g>

</svg>
