<?xml version="1.0" encoding="utf-8"?>
<svg version="1.1" id="Layer_1" xmlns="http://www.w3.org/2000/svg" xmlns:xlink="http://www.w3.org/1999/xlink" x="0px" y="0px" viewBox="0 0 28 28"
	 enable-background="new 0 0 28 28" xml:space="preserve">

		<g>
			<defs>
				<rect id="SVGID_1_" width="28" height="28"/>
			</defs>
			<clipPath id="SVGID_2_">
				<use xlink:href="#SVGID_1_"  overflow="visible"/>
			</clipPath>
			<path clip-path="url(#SVGID_2_)" fill="#231F20" d="M3,24c-1.2,0-2.266-0.542-3-1.382V25c0,1.65,1.35,3,3,3h22c1.65,0,3-1.35,3-3
				v-2.382C27.266,23.458,26.2,24,25,24H3z"/>
			<path clip-path="url(#SVGID_2_)" fill="#231F20" d="M25,9h-9v4.211c1.764,0.386,3,1.264,3,2.289c0,1.381-2.239,2.5-5,2.5
				s-5-1.119-5-2.5c0-1.025,1.236-1.903,3-2.289V9H3c-1.65,0-3,1.35-3,3v8c0,1.65,1.35,3,3,3h22c1.65,0,3-1.35,3-3v-8
				C28,10.35,26.65,9,25,9 M5,20c-1.105,0-2-0.672-2-1.5C3,17.672,3.895,17,5,17s2,0.672,2,1.5C7,19.328,6.105,20,5,20"/>
			<path clip-path="url(#SVGID_2_)" fill="#231F20" d="M13,7.859V15.5c0,0.276,0.448,0.5,1,0.5c0.552,0,1-0.224,1-0.5V7.859
				C16.722,7.413,18,5.862,18,4c0-2.209-1.791-4-4-4s-4,1.791-4,4C10,5.862,11.278,7.413,13,7.859 M14,0.889
				c0.736,0,1.333,0.597,1.333,1.333S14.736,3.556,14,3.556c-0.736,0-1.333-0.598-1.333-1.334S13.264,0.889,14,0.889"/>
		</g>

</svg>
