<?xml version="1.0" encoding="utf-8"?>
<svg version="1.1" id="Layer_1" xmlns="http://www.w3.org/2000/svg" xmlns:xlink="http://www.w3.org/1999/xlink" x="0px" y="0px" viewBox="0 0 28 28"
	 enable-background="new 0 0 28 28" xml:space="preserve">

		<g>
			<defs>
				<rect id="SVGID_1_" width="28" height="28"/>
			</defs>
			<clipPath id="SVGID_2_">
				<use xlink:href="#SVGID_1_"  overflow="visible"/>
			</clipPath>
			<path clip-path="url(#SVGID_2_)" fill="#231F20" d="M11,18h-0.229H9.92H1.08H0.229H0c0,1.656,2.462,3,5.5,3
				C8.537,21,11,19.656,11,18"/>
			<path clip-path="url(#SVGID_2_)" fill="#231F20" d="M27.771,18h-0.852H18.08h-0.852H17c0,1.656,2.461,3,5.5,3
				c3.037,0,5.5-1.344,5.5-3H27.771z"/>
			<path clip-path="url(#SVGID_2_)" fill="#231F20" d="M15,24.034V6.793c0.205,0.136,0.395,0.304,0.607,0.503
				c0.571,0.536,1.28,1.204,2.641,1.204c1.36,0,2.069-0.667,2.64-1.204c0.081-0.076,0.155-0.142,0.231-0.21
				c0.065,0.152,0.158,0.289,0.268,0.411L17.349,17h1.156l3.831-9.017C22.391,7.989,22.443,8,22.5,8
				c0.057,0,0.109-0.011,0.164-0.017L26.495,17h1.156l-4.038-9.503C23.852,7.231,24,6.885,24,6.5C24,5.672,23.328,5,22.5,5
				c-1.36,0-2.069,0.667-2.64,1.204C19.369,6.666,19.014,7,18.248,7c-0.767,0-1.121-0.334-1.613-0.797
				C16.226,5.818,15.741,5.371,15,5.145V3.418c0.515-0.33,0.857-0.904,0.857-1.561C15.857,0.831,15.025,0,14,0
				s-1.857,0.831-1.857,1.857c0,0.657,0.342,1.231,0.857,1.561v1.724c-0.746,0.224-1.232,0.675-1.643,1.062
				C10.866,6.666,10.511,7,9.746,7C8.982,7,8.628,6.666,8.138,6.204C7.567,5.668,6.859,5,5.5,5C4.672,5,4,5.672,4,6.5
				c0,0.385,0.149,0.731,0.387,0.997L0.349,17h1.156l3.831-9.017C5.391,7.989,5.443,8,5.5,8s0.109-0.011,0.164-0.017L9.495,17h1.156
				L6.613,7.497C6.722,7.375,6.814,7.24,6.88,7.088c0.075,0.067,0.148,0.133,0.228,0.208C7.679,7.832,8.387,8.5,9.746,8.5
				c1.36,0,2.069-0.668,2.639-1.204C12.6,7.094,12.791,6.924,13,6.787v17.247C9.055,24.281,6,25.961,6,28h16
				C22,25.961,18.945,24.281,15,24.034"/>
		</g>

</svg>
