<?xml version="1.0" encoding="utf-8"?>
<svg version="1.1" id="Layer_1" xmlns="http://www.w3.org/2000/svg" xmlns:xlink="http://www.w3.org/1999/xlink" x="0px" y="0px" viewBox="0 0 28 28"
	 enable-background="new 0 0 28 28" xml:space="preserve">

		<g>
			<defs>
				<rect id="SVGID_1_" width="28" height="28"/>
			</defs>
			<clipPath id="SVGID_2_">
				<use xlink:href="#SVGID_1_"  overflow="visible"/>
			</clipPath>
			<path clip-path="url(#SVGID_2_)" fill="#231F20" d="M27.573,23.202l-4.277-4.27l-4.945-2.09l-7.22-7.208L9.038,4.698L4.76,0.427
				c-0.787-0.786-2.395-0.455-3.592,0.74c-1.196,1.194-1.528,2.799-0.74,3.585l4.277,4.271l5.009,2.117l0.036-0.037l7.13,7.117
				l-0.037,0.037l2.12,5l4.278,4.27c0.787,0.786,2.395,0.455,3.592-0.739C28.029,25.594,28.36,23.988,27.573,23.202"/>
			<path clip-path="url(#SVGID_2_)" fill="#231F20" d="M13.127,10.204c1.332-0.336,2.798,0.001,3.84,1.041
				c1.041,1.04,1.379,2.504,1.042,3.833l0.915,0.913l1.544,0.653c6.115-7.11,8.293-15.107,7.258-16.14
				c-1.04-1.038-9.119,1.16-16.265,7.328l0.522,1.23L13.127,10.204z"/>
			<path clip-path="url(#SVGID_2_)" fill="#231F20" d="M15.187,17.955c-1.354,0.373-2.86,0.046-3.924-1.016
				s-1.391-2.566-1.018-3.918l-0.979-0.977l-1.43-0.605c-6.23,7.153-8.45,15.273-7.407,16.315c1.039,1.037,9.104-1.156,16.245-7.312
				l-0.737-1.739L15.187,17.955z"/>
		</g>

</svg>
