<?xml version="1.0" encoding="utf-8"?>
<svg version="1.1" id="Layer_1" xmlns="http://www.w3.org/2000/svg" xmlns:xlink="http://www.w3.org/1999/xlink" x="0px" y="0px" viewBox="0 0 28 28"
	 enable-background="new 0 0 28 28" xml:space="preserve">

	<g>
		<rect y="26" fill="#231F20" width="24" height="2"/>
		<g>
			<defs>
				<rect id="SVGID_1_" width="28" height="28"/>
			</defs>
			<clipPath id="SVGID_2_">
				<use xlink:href="#SVGID_1_"  overflow="visible"/>
			</clipPath>
			<path clip-path="url(#SVGID_2_)" fill="#231F20" d="M24,25v-2.667L28,21l-1.93-5.79l-3.815,1.272
				c-0.369-0.577-0.787-1.121-1.255-1.625V8c0-4.4-3.6-8-8-8h-2C6.6,0,3,3.6,3,8v6.857C1.217,16.775,0.102,19.265,0.018,22H0v3H24z
				 M5,8c0-3.309,2.691-6,6-6h2c3.309,0,6,2.691,6,6v5.146c-1.546-1.054-3.365-1.767-5.344-2.026C13.873,10.801,14,10.415,14,10
				c0-1.104-0.896-2-2-2c-1.105,0-2,0.896-2,2c0,0.415,0.127,0.801,0.344,1.12C8.365,11.379,6.546,12.092,5,13.146V8z"/>
		</g>
	</g>

</svg>
