<?xml version="1.0" encoding="utf-8"?>
<svg version="1.1" id="Layer_1" xmlns="http://www.w3.org/2000/svg" xmlns:xlink="http://www.w3.org/1999/xlink" x="0px" y="0px"
	 viewBox="0 0 28 28" enable-background="new 0 0 28 28" xml:space="preserve">
<g>
	<defs>
		<rect id="SVGID_1_" width="28" height="28"/>
	</defs>
	<clipPath id="SVGID_2_">
		<use xlink:href="#SVGID_1_"  overflow="visible"/>
	</clipPath>
	<path clip-path="url(#SVGID_2_)" d="M25.475,2.527c-3.346-3.345-8.741-3.372-12.053-0.061C11.197,4.693,10.215,8.146,11,11L0,21.95
		V28h5v-3h3v-3h3v-3h4l2-2c2.848,0.774,6.314-0.203,8.535-2.422C28.846,11.268,28.818,5.873,25.475,2.527 M21,9.1
		c-1.199-0.001-2.172-0.974-2.172-2.172c-0.002-1.2,0.973-2.172,2.172-2.174c1.199,0.002,2.172,0.972,2.172,2.174
		C23.172,8.126,22.199,9.1,21,9.1"/>
</g>
</svg>
