<?xml version="1.0" encoding="utf-8"?>
<svg version="1.1" id="Layer_1" xmlns="http://www.w3.org/2000/svg" xmlns:xlink="http://www.w3.org/1999/xlink" x="0px" y="0px"
	 viewBox="0 0 28 28" enable-background="new 0 0 28 28" xml:space="preserve">
<g>
	<defs>
		<rect id="SVGID_1_" width="28" height="28"/>
	</defs>
	<clipPath id="SVGID_2_">
		<use xlink:href="#SVGID_1_"  overflow="visible"/>
	</clipPath>
	<path clip-path="url(#SVGID_2_)" d="M26.634,6.16l-4.793-4.793c-1.824-1.822-4.779-1.822-6.599,0l-3.869,3.868
		C9.759,6.846,9.761,9.181,11,11L0,21.976V28h5v-3h3v-3h3v-3h4l2-2c1.816,1.221,4.16,1.233,5.765-0.372l3.869-3.868
		C28.457,10.938,28.457,7.983,26.634,6.16 M24.898,9.822c-0.199,0.198-0.459,0.298-0.721,0.298c-0.259,0-0.519-0.1-0.716-0.298
		l-5.282-5.28c-0.396-0.397-0.396-1.04,0-1.437c0.397-0.396,1.039-0.396,1.438,0l5.281,5.28C25.294,8.782,25.294,9.424,24.898,9.822
		"/>
</g>
</svg>
