<?xml version="1.0" encoding="utf-8"?>
<svg version="1.1" id="Layer_1" xmlns="http://www.w3.org/2000/svg" xmlns:xlink="http://www.w3.org/1999/xlink" x="0px" y="0px" viewBox="0 0 28 28"
	 enable-background="new 0 0 28 28" xml:space="preserve">

		<g>
			<defs>
				<rect id="SVGID_1_" width="28" height="28"/>
			</defs>
			<clipPath id="SVGID_2_">
				<use xlink:href="#SVGID_1_"  overflow="visible"/>
			</clipPath>
			<path clip-path="url(#SVGID_2_)" fill="#231F20" d="M26.066,23.366l0.511-1.933l-1.933-0.511l0.511-1.934l-2.46-3.109
				C22.891,15.287,23,14.657,23,14c0-1.949-0.934-3.676-2.373-4.771C20.862,8.523,21,7.775,21,7c0-3.859-3.141-7-7-7S7,3.141,7,7
				c0,0.405,0.042,0.799,0.108,1.186C7.692,7.793,8.339,7.49,9.029,7.287C9.023,7.19,9,7.099,9,7c0-2.757,2.243-5,5-5s5,2.243,5,5
				c0,0.442-0.064,0.873-0.172,1.286C18.252,8.102,17.638,8,17,8c-3.314,0-6,2.687-6,6c0,3.314,2.686,6,6,6
				c0.491,0,0.966-0.065,1.423-0.177l5.654,7.155L28,28v-4.123L26.066,23.366z M16.5,14.5c-1.104,0-2-0.895-2-2c0-1.104,0.896-2,2-2
				c0.31,0,0.602,0.077,0.864,0.204c-0.345,0.312-0.737,0.578-1.171,0.79c-0.496,0.242-0.701,0.842-0.459,1.338
				c0.174,0.355,0.53,0.561,0.9,0.561c0.147,0,0.297-0.033,0.438-0.102c0.519-0.254,0.986-0.573,1.414-0.93
				c0.003,0.047,0.014,0.091,0.014,0.139C18.5,13.605,17.604,14.5,16.5,14.5"/>
			<path clip-path="url(#SVGID_2_)" fill="#231F20" d="M10,14c0-2.338,1.157-4.407,2.924-5.679C12.319,8.116,11.674,8,11,8
				c-3.314,0-6,2.687-6,6c0,0.917,0.212,1.783,0.58,2.561L0,24v4l4-1v-2h2v-2h2l2.285-3.047C10.519,19.981,10.758,20,11,20
				c0.674,0,1.319-0.116,1.924-0.321C11.157,18.407,10,16.338,10,14"/>
		</g>

</svg>
