<?xml version="1.0" encoding="utf-8"?>
<svg version="1.1" id="Layer_1" xmlns="http://www.w3.org/2000/svg" xmlns:xlink="http://www.w3.org/1999/xlink" x="0px" y="0px" viewBox="0 0 28 28"
	 enable-background="new 0 0 28 28" xml:space="preserve">

		<g>
			<defs>
				<rect id="SVGID_1_" width="28" height="28"/>
			</defs>
			<clipPath id="SVGID_2_">
				<use xlink:href="#SVGID_1_"  overflow="visible"/>
			</clipPath>
			<path clip-path="url(#SVGID_2_)" fill="#231F20" d="M21.5,11c1.936,0,3.5-1.566,3.5-3.5C25,5.568,23.436,4,21.5,4
				C19.57,4,18,5.568,18,7.5C18,9.434,19.57,11,21.5,11"/>
			<path clip-path="url(#SVGID_2_)" fill="#231F20" d="M6.5,11C8.435,11,10,9.434,10,7.5C10,5.568,8.435,4,6.5,4
				C4.57,4,3,5.568,3,7.5C3,9.434,4.57,11,6.5,11"/>
			<path clip-path="url(#SVGID_2_)" fill="#231F20" d="M6.483,12c-3.58,0-6.482,2.155-6.482,5v5h2v6h4v-4c0-0.275,0.224-0.5,0.5-0.5
				c0.275,0,0.5,0.225,0.5,0.5v4h4v-6h1.964l0.036-5C13.001,14.155,10.067,12,6.483,12"/>
			<path clip-path="url(#SVGID_2_)" fill="#231F20" d="M21.483,12c-3.58,0-4.941,2.042-5.482,5l-1,7h2v4h4v-4h1v4h4v-4h2l-1-7
				C26.584,14.125,25.067,12,21.483,12"/>
			<polygon clip-path="url(#SVGID_2_)" fill="#231F20" points="23.14,0 21,2.942 24.478,3.254 			"/>
			<polygon clip-path="url(#SVGID_2_)" fill="#231F20" points="28,3.611 24.478,3.254 25.86,6.509 			"/>
		</g>

</svg>
