<?xml version="1.0" encoding="utf-8"?>
<svg version="1.1" id="Layer_1" xmlns="http://www.w3.org/2000/svg" xmlns:xlink="http://www.w3.org/1999/xlink" x="0px" y="0px" viewBox="0 0 28 28"
	 enable-background="new 0 0 28 28" xml:space="preserve">

	<g>
		<polygon fill="#231F20" points="23.245,0 11.766,4.711 28,11.375 		"/>
		<g>
			<defs>
				<rect id="SVGID_1_" width="28" height="28"/>
			</defs>
			<clipPath id="SVGID_2_">
				<use xlink:href="#SVGID_1_"  overflow="visible"/>
			</clipPath>
			<path clip-path="url(#SVGID_2_)" fill="#231F20" d="M13.43,22.308c-0.113,0.227-0.228,0.439-0.34,0.68
				c-1.337,2.886-2.557,4.011-4.35,4.011c-2.484,0-2.954-3.152-2.973-3.286c-0.088-0.63-0.137-1.263-0.185-1.893
				c-0.092-1.185-0.193-2.393-0.543-3.56l2.734,0.178c0.011,0,0.022,0.001,0.033,0.001c0.163,0,0.316-0.078,0.411-0.21
				c0.102-0.141,0.122-0.325,0.055-0.484l-1.228-2.894c-0.068-0.16-0.215-0.274-0.388-0.301c-0.026-0.004-0.052-0.006-0.078-0.006
				c-0.146,0-0.286,0.063-0.383,0.175l-1.777,2.053c-0.163-0.296-0.343-0.588-0.562-0.872C2.892,14.645,1.539,13.987,0,14.01v0.507
				l0.013,0.494c0.852-0.021,2.059,0.218,3.04,1.495c0.163,0.212,0.305,0.429,0.432,0.65l-2.714-0.177
				c-0.011,0-0.022-0.001-0.033-0.001c-0.163,0-0.316,0.078-0.411,0.21c-0.102,0.142-0.123,0.325-0.055,0.485L1.5,20.566
				c0.068,0.16,0.215,0.274,0.388,0.301c0.026,0.004,0.052,0.006,0.078,0.006c0.146,0,0.286-0.063,0.383-0.175l1.759-2.031
				c0.289,1.024,0.38,2.108,0.467,3.23c0.05,0.65,0.101,1.304,0.192,1.953C4.983,25.392,6.062,28,8.74,28
				c2.759,0,4.163-2.209,5.268-4.594c0.147-0.317,0.298-0.603,0.449-0.897L27.81,12.38L11.184,5.556L13.43,22.308z"/>
		</g>
	</g>

</svg>
