<?xml version="1.0" encoding="utf-8"?>
<svg version="1.1" id="Layer_1" xmlns="http://www.w3.org/2000/svg" xmlns:xlink="http://www.w3.org/1999/xlink" x="0px" y="0px"
	 viewBox="0 0 28 28" enable-background="new 0 0 28 28" xml:space="preserve">
<path d="M14.734,16.127l9.67,9.667L27.345,28l0.654-0.656l-2.228-2.968l-9.643-9.644L14.734,16.127z M4.895,6.287l6.98,6.98
	l1.393-1.395l-6.978-6.98L4.895,6.287z M2.205,24.403L0,27.344L0.656,28l2.969-2.229L23.107,6.287l-1.395-1.395L2.205,24.403z
	 M2.778,0L0,2.777l1.049,1.049L1.395,3.48l2.42,2.42l0.111-0.112L4.16,5.555L5.9,3.814l-2.42-2.42l0.347-0.346L2.778,0z M25.222,0
	l-1.049,1.048l0.346,0.346l-2.42,2.42l1.742,1.741L24.187,5.9l2.418-2.42l0.346,0.346l1.048-1.049L25.222,0z"/>
</svg>
