<?xml version="1.0" encoding="utf-8"?>
<svg version="1.1" id="Layer_1" xmlns="http://www.w3.org/2000/svg" xmlns:xlink="http://www.w3.org/1999/xlink" x="0px" y="0px" viewBox="0 0 28 28"
	 enable-background="new 0 0 28 28" xml:space="preserve">

		<g>
			<defs>
				<rect id="SVGID_1_" width="28" height="28"/>
			</defs>
			<clipPath id="SVGID_2_">
				<use xlink:href="#SVGID_1_"  overflow="visible"/>
			</clipPath>
			<path clip-path="url(#SVGID_2_)" fill="#231F20" d="M10.664,13.837c1.381,0.81,2.859,1.179,3.336,1.179
				c0.474,0,1.953-0.369,3.334-1.179c4.599,0.099,6.139-1.752,6.139-1.752c-3.311-1.303-3.382-5.184-3.382-5.184
				C19.151-0.888,14,0.034,14,0.034S8.848-0.888,7.906,6.901c0,0-0.07,3.881-3.382,5.184C4.524,12.085,6.064,13.936,10.664,13.837
				 M4.998,20.01C3.997,22.008,0,28,0,28h6.496l-0.555-1.105c-0.246-0.49-0.338-1.328-0.205-1.861l1.019-4.055
				c0.134-0.533,0.243-1.418,0.243-1.969v-0.848C6.101,18.606,5.4,19.203,4.998,20.01 M21.5,28h6.498
				c0.105-0.572-2.996-4.994-4.996-7.99c-0.473-0.709-1.17-1.254-2-1.689v0.689c0,0.551,0.107,1.436,0.242,1.969l1.012,4.055
				c0.133,0.533,0.041,1.371-0.204,1.861L21.5,28z M18.705,17.938c-0.18,0.18-0.441,0.289-0.701,0.289
				c-0.27,0-0.52-0.109-0.709-0.289c-0.192-0.192-0.291-0.451-0.291-0.709c0-0.014,0.008-0.028,0.008-0.041
				c-0.952-0.117-1.957-0.174-2.993-0.174c-1.033,0-2.058,0.041-3.031,0.143c0.002,0.023,0.015,0.046,0.015,0.072
				c0,0.258-0.111,0.517-0.3,0.709c-0.191,0.18-0.441,0.289-0.701,0.289c-0.27,0-0.52-0.109-0.709-0.289
				c-0.133-0.133-0.203-0.301-0.245-0.475c-0.29,0.065-0.57,0.141-0.841,0.225l0.668,5.326c0.068,0.545,0.535,1.174,1.037,1.398
				c0,0,1.325,0.592,4.088,0.592c2.762,0,4.088-0.592,4.088-0.592c0.502-0.224,0.968-0.853,1.037-1.398l0.652-5.215
				c-0.269-0.092-0.55-0.174-0.84-0.248C18.887,17.694,18.813,17.828,18.705,17.938 M11.883,20.764
				c-0.19,0.199-0.451,0.299-0.71,0.299c-0.25,0-0.5-0.1-0.7-0.289c-0.391-0.389-0.391-1.03,0-1.418c0.39-0.389,1.019-0.389,1.41,0
				C12.273,19.744,12.273,20.373,11.883,20.764 M14.004,22.221c-0.551,0-1-0.449-1-0.998s0.449-0.998,1-0.998
				c0.55,0,1,0.437,1,0.998C15.004,21.772,14.564,22.221,14.004,22.221 M17.534,20.764c-0.19,0.189-0.45,0.289-0.7,0.289
				c-0.26,0-0.52-0.1-0.711-0.289c-0.389-0.4-0.389-1.029,0-1.418c0.391-0.391,1.021-0.391,1.411,0
				C17.924,19.735,17.924,20.364,17.534,20.764"/>
		</g>

</svg>
