<?xml version="1.0" encoding="utf-8"?>
<svg version="1.1" id="Layer_1" xmlns="http://www.w3.org/2000/svg" xmlns:xlink="http://www.w3.org/1999/xlink" x="0px" y="0px"
	 viewBox="0 0 28 28" enable-background="new 0 0 28 28" xml:space="preserve">
<g>
	<defs>
		<rect id="SVGID_1_" width="28" height="28"/>
	</defs>
	<clipPath id="SVGID_2_">
		<use xlink:href="#SVGID_1_"  overflow="visible"/>
	</clipPath>
	<path clip-path="url(#SVGID_2_)" d="M0.036,3.414c0.047,1.295,0.156,3.062,0.4,5.062l4.998,0.337L0.036,3.414z M6.55,9.927
		L0.571,9.526c0.283,1.999,0.701,4.174,1.322,6.307l11.325,0.76L6.55,9.927z M14.331,17.71L2.222,16.895
		c0.636,1.955,1.457,3.842,2.515,5.489l13.998-0.271L14.331,17.71z M5.448,23.409c1.998,2.648,4.727,4.472,8.455,4.579
		c3.235,0.159,6.395-1.278,8.321-2.388l-2.471-2.469L5.448,23.409z M27.995,13.899h0.002c-0.107-3.731-1.934-6.459-4.586-8.458
		L23.1,21.345l-1.017-1.017L22.386,4.73c-1.647-1.055-3.536-1.874-5.489-2.512l0.93,13.855l-1.115-1.116L15.835,1.891
		c-2.133-0.621-4.309-1.038-6.309-1.318l0.518,7.718L8.931,7.175L8.477,0.434c-3.886-0.471-6.9-0.437-7.257-0.43l-1.196,0.02
		L0.003,1.219c0,0.087-0.004,0.326-0.002,0.694l3.164,3.163l3.842,3.843l1.115,1.114L14.79,16.7l1.113,1.115l4.272,4.271
		l1.017,1.017l1.942,1.942l2.502,2.502c0.254,0.252,0.584,0.378,0.916,0.378s0.664-0.126,0.918-0.378
		c0.504-0.507,0.504-1.328,0-1.834l-2.51-2.509l1.471-2.292C27.526,18.391,28.056,16.041,27.995,13.899"/>
</g>
</svg>
