<?xml version="1.0" encoding="utf-8"?>
<svg version="1.1" id="Layer_1" xmlns="http://www.w3.org/2000/svg" xmlns:xlink="http://www.w3.org/1999/xlink" x="0px" y="0px"
	 viewBox="0 0 28 28" enable-background="new 0 0 28 28" xml:space="preserve">
<g>
	<defs>
		<rect id="SVGID_1_" width="28" height="28"/>
	</defs>
	<clipPath id="SVGID_2_">
		<use xlink:href="#SVGID_1_"  overflow="visible"/>
	</clipPath>
	<path clip-path="url(#SVGID_2_)" d="M21,0.001V7h6.994L21,0.001z M20,8V0H0v28h28V8H20z M7.398,10.935
		c-1.836-0.618-3.193-1.475-3.193-3.14C4.205,6.27,5,5.084,7,4.741V3h2v1.621c1,0.034,1.85,0.291,2.451,0.567l-0.543,1.938
		C10.48,6.92,9.66,6.525,8.424,6.525c-1.114,0-1.483,0.498-1.483,0.979c0,0.549,0.598,0.926,2.073,1.458
		c2.045,0.72,2.937,1.664,2.937,3.227c0,1.527-0.951,2.831-2.951,3.156V17H7v-1.519c-1-0.05-2.201-0.376-2.856-0.736l0.549-2.008
		c0.719,0.395,1.746,0.754,2.862,0.754c0.996,0,1.672-0.393,1.672-1.062C9.227,11.776,8.685,11.364,7.398,10.935 M13,25H3v-1h10V25z
		 M13,22H3v-1h10V22z M25,25H15v-1h10V25z M25,22H15v-1h10V22z M25,19H15v-1h10V19z M25,16H15v-1h10V16z"/>
</g>
</svg>
