<?xml version="1.0" encoding="utf-8"?>
<svg version="1.1" id="Layer_1" xmlns="http://www.w3.org/2000/svg" xmlns:xlink="http://www.w3.org/1999/xlink" x="0px" y="0px" viewBox="0 0 28 28"
	 enable-background="new 0 0 28 28" xml:space="preserve">

	<g>
		<rect y="21.001" fill="#231F20" width="28" height="6.999"/>
		<g>
			<defs>
				<rect id="SVGID_1_" width="28" height="28"/>
			</defs>
			<clipPath id="SVGID_2_">
				<use xlink:href="#SVGID_1_"  overflow="visible"/>
			</clipPath>
			<path clip-path="url(#SVGID_2_)" fill="#231F20" d="M26,3.001v2.5c0,1.311-1.033,2.4-2.623,3c1.59,0.6,2.623,1.688,2.623,3v3
				c0,1.995-2.365,3.5-5.5,3.5c-3.136,0-5.5-1.505-5.5-3.5v-3c0-1.312,1.033-2.4,2.623-3c-1.59-0.6-2.623-1.689-2.623-3v-2.5h-2v2.5
				c0,1.311-1.033,2.4-2.623,3c1.59,0.6,2.623,1.688,2.623,3v3c0,1.995-2.365,3.5-5.5,3.5c-3.136,0-5.5-1.505-5.5-3.5v-3
				c0-1.312,1.033-2.4,2.623-3C3.033,7.901,2,6.812,2,5.501v-2.5H0v17h28v-17H26z"/>
			<path clip-path="url(#SVGID_2_)" fill="#231F20" d="M7.5,8.001c2.485,0,4.5-1.119,4.5-2.5V4.552
				c-0.978,0.887-2.592,1.449-4.5,1.449S3.978,5.439,3,4.552v0.949C3,6.882,5.015,8.001,7.5,8.001"/>
			<path clip-path="url(#SVGID_2_)" fill="#231F20" d="M7.5,5.001c2.485,0,4.5-1.119,4.5-2.5c0-1.381-2.015-2.5-4.5-2.5
				S3,1.12,3,2.501C3,3.882,5.015,5.001,7.5,5.001"/>
			<path clip-path="url(#SVGID_2_)" fill="#231F20" d="M20.5,5.001c2.485,0,4.5-1.119,4.5-2.5c0-1.381-2.015-2.5-4.5-2.5
				S16,1.12,16,2.501C16,3.882,18.015,5.001,20.5,5.001"/>
			<path clip-path="url(#SVGID_2_)" fill="#231F20" d="M20.5,8.001c2.485,0,4.5-1.119,4.5-2.5V4.552
				c-0.978,0.887-2.592,1.449-4.5,1.449S16.978,5.439,16,4.552v0.949C16,6.882,18.015,8.001,20.5,8.001"/>
			<path clip-path="url(#SVGID_2_)" fill="#231F20" d="M20.5,9.001c-2.485,0-4.5,1.119-4.5,2.5c0,1.381,2.015,2.5,4.5,2.5
				s4.5-1.119,4.5-2.5C25,10.12,22.985,9.001,20.5,9.001"/>
			<path clip-path="url(#SVGID_2_)" fill="#231F20" d="M16,13.552v0.949c0,1.38,2.015,2.5,4.5,2.5s4.5-1.12,4.5-2.5v-0.949
				c-0.978,0.886-2.592,1.449-4.5,1.449S16.978,14.439,16,13.552"/>
			<path clip-path="url(#SVGID_2_)" fill="#231F20" d="M7.5,9.001c-2.485,0-4.5,1.119-4.5,2.5c0,1.381,2.015,2.5,4.5,2.5
				s4.5-1.119,4.5-2.5C12,10.12,9.985,9.001,7.5,9.001"/>
			<path clip-path="url(#SVGID_2_)" fill="#231F20" d="M3,13.552v0.949c0,1.38,2.015,2.5,4.5,2.5s4.5-1.12,4.5-2.5v-0.949
				c-0.978,0.886-2.592,1.449-4.5,1.449S3.978,14.439,3,13.552"/>
		</g>
	</g>

</svg>
