<?xml version="1.0" encoding="utf-8"?>
<svg version="1.1" id="Layer_1" xmlns="http://www.w3.org/2000/svg" xmlns:xlink="http://www.w3.org/1999/xlink" x="0px" y="0px"
	 viewBox="0 0 28 28" enable-background="new 0 0 28 28" xml:space="preserve">
<g>
	<defs>
		<rect id="SVGID_1_" width="28" height="28"/>
	</defs>
	<clipPath id="SVGID_2_">
		<use xlink:href="#SVGID_1_"  overflow="visible"/>
	</clipPath>
	<path clip-path="url(#SVGID_2_)" d="M20.999,0h-14v13h14V0z M15.343,10L14.95,9h-2.178l-0.395,1h-2.158l2.637-7h2.031l2.635,7
		H15.343z M13.861,4.885c-0.094,0.488-0.209,0.802-0.469,1.726L13.257,7h1.205l-0.136-0.389C14.068,5.677,13.953,5.373,13.861,4.885
		 M-0.001,28h13V14h-13V28z M3.999,17H7.24c1.804,0,2.541,0.871,2.541,2.086c0,0.787-0.383,1.239-0.869,1.519
		c0.652,0.28,1.035,1.01,1.035,1.828C9.947,23.917,9.044,25,7.22,25H3.999V17z M13.999,28h14V14h-14V28z M21.433,24.597
		c-2.156,0-3.309-1.597-3.309-3.745c0-2.333,1.372-3.744,3.321-3.744c1.783,0,2.49,0.768,2.986,2.136l-1.824,0.717
		c-0.26-0.675-0.508-1.1-1.174-1.1c-0.838,0-1.201,0.84-1.201,1.991c0,1.111,0.351,1.992,1.223,1.992
		c0.632,0,0.902-0.342,1.296-1.028l1.702,0.903C23.964,23.675,23.156,24.597,21.433,24.597 M7.81,19.5c0-0.323-0.156-0.5-0.633-0.5
		H5.999v1h1.178C7.644,20,7.81,19.842,7.81,19.5 M7.978,22.488c0-0.424-0.24-0.488-0.717-0.488H5.999v1h1.252
		C7.748,23,7.978,22.904,7.978,22.488"/>
</g>
</svg>
