<?xml version="1.0" encoding="utf-8"?>
<svg version="1.1" id="Layer_1" xmlns="http://www.w3.org/2000/svg" xmlns:xlink="http://www.w3.org/1999/xlink" x="0px" y="0px"
	 viewBox="0 0 28 28" enable-background="new 0 0 28 28" xml:space="preserve">
<g>
	<defs>
		<rect id="SVGID_1_" width="28" height="28"/>
	</defs>
	<clipPath id="SVGID_2_">
		<use xlink:href="#SVGID_1_"  overflow="visible"/>
	</clipPath>
	<path clip-path="url(#SVGID_2_)" d="M26.875,8.494c-1.416-3.307-4.067-5.957-7.375-7.371C17.812,0.402,15.953,0,14.002,0
		c-1.953,0-3.813,0.402-5.498,1.123C5.195,2.537,2.543,5.187,1.127,8.494C0.404,10.184,0,12.045,0,14
		c0,1.951,0.402,3.809,1.121,5.494c1.416,3.313,4.07,5.967,7.381,7.383C10.189,27.6,12.049,28,14.002,28c1.951,0,3.81-0.4,5.5-1.123
		c3.31-1.416,5.963-4.07,7.379-7.383C27.601,17.809,28,15.951,28,14C28,12.045,27.599,10.184,26.875,8.494 M14.002,2.074
		c1.095,0,2.172,0.147,3.213,0.438l-0.528,3.797c-0.841-0.295-1.746-0.456-2.685-0.456c-0.942,0-1.844,0.161-2.686,0.456
		l-0.527-3.797C11.828,2.221,12.904,2.074,14.002,2.074 M6.316,16.68l-3.804,0.527C2.222,16.17,2.076,15.096,2.076,14
		c0-1.1,0.148-2.178,0.439-3.219l3.801,0.528c-0.295,0.839-0.455,1.746-0.455,2.685C5.861,14.934,6.021,15.838,6.316,16.68
		 M14.002,25.928c-1.098,0-2.176-0.149-3.215-0.44l0.529-3.808c0.842,0.295,1.744,0.455,2.686,0.455c0.939,0,1.844-0.16,2.685-0.455
		l0.53,3.808C16.176,25.779,15.099,25.928,14.002,25.928 M14.002,20C10.687,20,8,17.312,8,14c0-3.313,2.687-6,6.002-6
		C17.316,8,20,10.687,20,14C20,17.312,17.316,20,14.002,20 M25.492,17.207l-3.807-0.527c0.295-0.842,0.457-1.746,0.457-2.686
		c0-0.939-0.162-1.846-0.457-2.685l3.803-0.528c0.293,1.041,0.44,2.119,0.44,3.219C25.928,15.096,25.781,16.17,25.492,17.207"/>
</g>
</svg>
