<?xml version="1.0" encoding="utf-8"?>
<svg version="1.1" id="Layer_1" xmlns="http://www.w3.org/2000/svg" xmlns:xlink="http://www.w3.org/1999/xlink" x="0px" y="0px"
	 viewBox="0 0 28 28" enable-background="new 0 0 28 28" xml:space="preserve">
<g>
	<defs>
		<rect id="SVGID_1_" width="28" height="28"/>
	</defs>
	<clipPath id="SVGID_2_">
		<use xlink:href="#SVGID_1_"  overflow="visible"/>
	</clipPath>
	<path clip-path="url(#SVGID_2_)" d="M17.667,0c0.141,0,0.284,0.035,0.416,0.111l9.482,5.362c0.41,0.233,0.555,0.757,0.326,1.17
		l-0.579,1.04c-0.155,0.28-0.443,0.437-0.74,0.437c-0.141,0-0.285-0.035-0.417-0.11l-9.481-5.365
		c-0.411-0.23-0.557-0.753-0.327-1.166l0.578-1.04C17.081,0.157,17.369,0,17.667,0 M13.914,3.253c0.178,0,0.364,0.047,0.537,0.146
		l11.003,6.223c0.477,0.271,0.677,0.824,0.448,1.24l-0.58,1.037c-0.145,0.263-0.43,0.407-0.741,0.407
		c-0.177,0-0.363-0.047-0.537-0.145L13.04,5.934c-0.476-0.268-0.675-0.82-0.445-1.234l0.578-1.041
		C13.32,3.397,13.604,3.253,13.914,3.253 M10.878,7.156c0.178,0,0.363,0.046,0.536,0.144l11.004,6.227
		c0.477,0.267,0.676,0.821,0.446,1.235l-0.575,1.042c-0.147,0.262-0.433,0.404-0.744,0.404c-0.178,0-0.363-0.046-0.535-0.143
		l-8.289-4.689c0.045,0.851-1.125,2.938-1.577,4.009l-1.983-1.982c0.039-0.272,1.107-1.578,1.11-1.828
		c0.011-1.53-1.026-2.373-0.711-2.974l0.577-1.037C10.283,7.299,10.568,7.156,10.878,7.156 M6.672,12.327l8.999,9.001L11,26H6
		c0,0-1.644,2-3,2H2.998C1.342,28,0,26.657,0,25c0-1.356,1.999-3,1.999-3L2,16.999L6.672,12.327 M16.471,14.971
		c0.025,0,0.049,0.001,0.072,0.003c1.249,0.089,2.085,0.459,2.17,0.494c0.623,0.277,0.903,1.009,0.629,1.636
		c-0.204,0.465-0.653,0.741-1.124,0.741c-0.166,0-0.335-0.034-0.496-0.106c-0.009-0.003-0.029-0.012-0.058-0.023
		c-0.059-0.022-0.15-0.054-0.273-0.089c-0.243-0.069-0.601-0.148-1.016-0.179h-0.009c-0.338,0-1.702,1.038-2.062,1.097l-1.953-1.953
		C13.465,16.096,15.544,14.971,16.471,14.971"/>
</g>
</svg>
