<?xml version="1.0" encoding="utf-8"?>
<svg version="1.1" id="Layer_1" xmlns="http://www.w3.org/2000/svg" xmlns:xlink="http://www.w3.org/1999/xlink" x="0px" y="0px"
	 viewBox="0 0 28 28" enable-background="new 0 0 28 28" xml:space="preserve">
<g>
	<defs>
		<rect id="SVGID_1_" width="28" height="28"/>
	</defs>
	<clipPath id="SVGID_2_">
		<use xlink:href="#SVGID_1_"  overflow="visible"/>
	</clipPath>
	<path clip-path="url(#SVGID_2_)" d="M19.579,0c2.155,0,4.31,0.813,5.955,2.44c3.288,3.256,3.288,8.532,0,11.787
		c-1.1,1.087-2.432,1.802-3.836,2.163c-0.003,0.001-0.003,0.008-0.005,0.008c-0.241,0.059-4.341,1.266-4.72,1.437
		c-0.249,0.115-0.885,0.646-1.142,0.823l-1.704-1.704l6.542-3.717c0.257-0.139,0.35-0.459,0.21-0.713
		c-0.097-0.175-0.277-0.273-0.464-0.273c-0.087,0-0.174,0.021-0.256,0.065l-6.807,3.863l-1.691-1.691l3.892-6.728
		c0.14-0.253,0.048-0.574-0.21-0.713c-0.081-0.044-0.168-0.065-0.254-0.065c-0.188,0-0.37,0.099-0.466,0.274l-3.742,6.452
		l-1.706-1.705c0.166-0.241,0.69-0.861,0.8-1.093c0.172-0.374,1.393-4.432,1.45-4.669c0-0.002,0.008-0.003,0.01-0.005
		c0.363-1.389,1.088-2.706,2.187-3.795C15.267,0.813,17.422,0,19.579,0 M7.38,11.62l9,9.001L11.001,26h-5c0,0-1.643,2-3,2
		C1.344,28,0,26.657,0,25c0-1.357,2.001-3,2.001-3v-5.001L7.38,11.62"/>
</g>
</svg>
