<?xml version="1.0" encoding="utf-8"?>
<svg version="1.1" id="Layer_1" xmlns="http://www.w3.org/2000/svg" xmlns:xlink="http://www.w3.org/1999/xlink" x="0px" y="0px" viewBox="0 0 28 28"
	 enable-background="new 0 0 28 28" xml:space="preserve">

		<g>
			<defs>
				<rect id="SVGID_1_" width="28" height="28"/>
			</defs>
			<clipPath id="SVGID_2_">
				<use xlink:href="#SVGID_1_"  overflow="visible"/>
			</clipPath>
			<path clip-path="url(#SVGID_2_)" fill="#231F20" d="M13,11.001H3v4h10V11.001z M5,13.751c-0.414,0-0.75-0.336-0.75-0.75
				c0-0.414,0.336-0.75,0.75-0.75s0.75,0.336,0.75,0.75C5.75,13.415,5.414,13.751,5,13.751 M8,13.751c-0.414,0-0.75-0.336-0.75-0.75
				c0-0.414,0.336-0.75,0.75-0.75c0.414,0,0.75,0.336,0.75,0.75C8.75,13.415,8.414,13.751,8,13.751 M11,13.751
				c-0.414,0-0.75-0.336-0.75-0.75c0-0.414,0.336-0.75,0.75-0.75c0.414,0,0.75,0.336,0.75,0.75
				C11.75,13.415,11.414,13.751,11,13.751"/>
			<path clip-path="url(#SVGID_2_)" fill="#231F20" d="M8.005,10.001c1.377,0,2.495-1.343,2.495-3.003
				c0-1.66-2.495-6.997-2.495-6.997S5.5,5.338,5.5,6.998C5.5,8.658,6.618,10.001,8.005,10.001"/>
			<path clip-path="url(#SVGID_2_)" fill="#231F20" d="M26.589,1.646l-5.341-1.645L17.087,13.51
				c-0.03-0.001-0.057-0.009-0.087-0.009c-1.378,0-2.5,1.121-2.5,2.5H0v10c0,1.1,0.9,2,2,2h13c1.1,0,2-0.9,2-2v-7.5
				c0.958,0,1.783-0.548,2.202-1.342l2.382,0.734c1.051,0.324,2.176-0.271,2.5-1.323l3.828-12.423
				C28.236,3.095,27.64,1.97,26.589,1.646 M17,16.751c-0.414,0-0.75-0.336-0.75-0.75c0-0.414,0.336-0.75,0.75-0.75
				c0.414,0,0.75,0.336,0.75,0.75C17.75,16.415,17.414,16.751,17,16.751"/>
		</g>

</svg>
