<?xml version="1.0" encoding="utf-8"?>
<svg version="1.1" id="Layer_1" xmlns="http://www.w3.org/2000/svg" xmlns:xlink="http://www.w3.org/1999/xlink" x="0px" y="0px" viewBox="0 0 28 28"
	 enable-background="new 0 0 28 28" xml:space="preserve">

		<g>
			<defs>
				<rect id="SVGID_1_" width="28" height="28"/>
			</defs>
			<clipPath id="SVGID_2_">
				<use xlink:href="#SVGID_1_"  overflow="visible"/>
			</clipPath>
			<path clip-path="url(#SVGID_2_)" fill="#231F20" d="M0,28h8.659c-2.118-0.811-4.005-2.084-5.537-3.702
				C1.292,24.892,0,26.323,0,28"/>
			<path clip-path="url(#SVGID_2_)" fill="#231F20" d="M20.998,9c0-1.104-1.119-2-2.5-2c-0.791,0-1.488,0.3-1.946,0.758
				C15.802,7.282,14.925,7,13.982,7c-0.935,0-1.805,0.276-2.552,0.745C10.972,7.294,10.281,7,9.498,7c-1.381,0-2.5,0.896-2.5,2
				c0,0.966,0.863,1.757,2.002,1.943v4.674c-1.192,0.594-2.002,1.687-2.002,2.954c0,1.896,1.79,3.429,4,3.429
				c1.202,0,2.267-0.463,3-1.182c0.734,0.719,1.799,1.182,3,1.182c2.209,0,4-1.534,4-3.429c0-1.265-0.81-2.354-1.998-2.948v-4.682
				C20.137,10.754,20.998,9.965,20.998,9 M10.998,13c0-0.551,0.447-1,1-1c0.553,0,1,0.449,1,1c0,0.553-0.447,1-1,1
				C11.445,14,10.998,13.553,10.998,13 M13.998,18l-2-2h4L13.998,18z M15.998,14c-0.553,0-1-0.447-1-1c0-0.551,0.447-1,1-1
				c0.553,0,1,0.449,1,1C16.998,13.553,16.551,14,15.998,14"/>
			<path clip-path="url(#SVGID_2_)" fill="#231F20" d="M27.998,14c0-7.735-6.265-14-13.999-14S0,6.265,0,14
				c0,7.739,6.265,14,13.999,14S27.998,21.739,27.998,14 M21.998,18.571c0,2.442-2.243,4.429-5,4.429c-1.084,0-2.137-0.321-3-0.899
				c-0.862,0.578-1.915,0.899-3,0.899c-2.757,0-5-1.987-5-4.429c0-1.394,0.753-2.699,2.002-3.529v-3.346
				C6.802,11.212,5.998,10.172,5.998,9c0-1.654,1.57-3,3.5-3c0.73,0,1.436,0.198,2.023,0.557C12.294,6.191,13.133,6,13.982,6
				c0.855,0,1.7,0.194,2.478,0.566C17.049,6.201,17.76,6,18.498,6c1.93,0,3.5,1.346,3.5,3c0,1.191-0.789,2.217-1.998,2.697v3.351
				C21.246,15.878,21.998,17.182,21.998,18.571"/>
			<path clip-path="url(#SVGID_2_)" fill="#231F20" d="M24.877,24.297c-1.533,1.619-3.419,2.892-5.538,3.703H28
				C28,26.323,26.707,24.891,24.877,24.297"/>
		</g>

</svg>
