<?xml version="1.0" encoding="utf-8"?>
<svg version="1.1" id="Layer_1" xmlns="http://www.w3.org/2000/svg" xmlns:xlink="http://www.w3.org/1999/xlink" x="0px" y="0px" viewBox="0 0 28 28"
	 enable-background="new 0 0 28 28" xml:space="preserve">

		<g>
			<defs>
				<rect id="SVGID_1_" width="28" height="28"/>
			</defs>
			<clipPath id="SVGID_2_">
				<use xlink:href="#SVGID_1_"  overflow="visible"/>
			</clipPath>
			<path clip-path="url(#SVGID_2_)" fill="#231F20" d="M17.917,5.792l-1.063,1.063c-0.098,0.098-0.226,0.147-0.354,0.147
				c-0.128,0-0.256-0.049-0.353-0.147c-0.195-0.195-0.195-0.512,0-0.707l1.227-1.227c-0.228-0.403-0.429-0.804-0.585-1.195
				c-0.296-0.74-0.414-1.353-0.438-1.876L11,7.201V4.002l-4,1v6.199l-6.464,6.464c-1.298,1.298-0.156,4.544,2.551,7.25
				c0.771,0.771,1.585,1.41,2.386,1.907l2.674-2.674c0.195-0.195,0.512-0.195,0.707,0c0.195,0.195,0.195,0.512,0,0.707l-2.472,2.472
				c1.664,0.811,3.168,0.926,3.955,0.139l15.815-15.816c-1.806-0.088-4.191-1.408-6.292-3.508
				C19.11,7.391,18.458,6.593,17.917,5.792"/>
			<path clip-path="url(#SVGID_2_)" fill="#231F20" d="M24.767,3.234c-2.706-2.706-5.841-3.96-7-2.8c-1.16,1.16,0.093,4.294,2.8,7
				c2.706,2.707,5.84,3.96,7,2.8C28.727,9.075,27.473,5.94,24.767,3.234"/>
		</g>

</svg>
