<?xml version="1.0" encoding="utf-8"?>
<svg version="1.1" id="Layer_1" xmlns="http://www.w3.org/2000/svg" xmlns:xlink="http://www.w3.org/1999/xlink" x="0px" y="0px" viewBox="0 0 28 28"
	 enable-background="new 0 0 28 28" xml:space="preserve">

		<g>
			<defs>
				<rect id="SVGID_1_" width="28" height="28"/>
			</defs>
			<clipPath id="SVGID_2_">
				<use xlink:href="#SVGID_1_"  overflow="visible"/>
			</clipPath>
			<path clip-path="url(#SVGID_2_)" fill="#231F20" d="M7.545,19.469l-0.366-0.144L6,18.863V26.5C6,27.328,6.672,28,7.5,28
				S9,27.328,9,26.5v-7.602l-1.09,0.427L7.545,19.469z"/>
			<path clip-path="url(#SVGID_2_)" fill="#231F20" d="M20.545,19.469l-0.366-0.144L19,18.863V26.5c0,0.828,0.672,1.5,1.5,1.5
				c0.828,0,1.5-0.672,1.5-1.5v-7.602l-1.09,0.427L20.545,19.469z"/>
			<path clip-path="url(#SVGID_2_)" fill="#231F20" d="M15,7.5C15,3.358,11.642,0,7.5,0S0,3.358,0,7.5
				c0,3.194,2.002,5.916,4.816,6.997l-2.605,4.216l3.158-1.173l2.176,0.855l2.174-0.854l3.16,1.171l-2.624-4.241
				C13.032,13.372,15,10.668,15,7.5"/>
			<path clip-path="url(#SVGID_2_)" fill="#231F20" d="M28,7.5C28,3.358,24.642,0,20.5,0c-2.389,0-4.513,1.121-5.887,2.862
				C15.487,4.197,16,5.789,16,7.5c0,1.69-0.504,3.276-1.377,4.621c0.83,1.051,1.921,1.888,3.193,2.376l-2.605,4.216l3.158-1.173
				l2.176,0.855l2.174-0.854l3.16,1.171l-2.624-4.241C26.032,13.372,28,10.668,28,7.5"/>
		</g>

</svg>
