<?xml version="1.0" encoding="utf-8"?>
<svg version="1.1" id="Layer_1" xmlns="http://www.w3.org/2000/svg" xmlns:xlink="http://www.w3.org/1999/xlink" x="0px" y="0px" viewBox="0 0 28 28"
	 enable-background="new 0 0 28 28" xml:space="preserve">

	<g>
		<rect x="3" y="11" fill="#231F20" width="14" height="14"/>
		<g>
			<defs>
				<rect id="SVGID_1_" width="28" height="28"/>
			</defs>
			<clipPath id="SVGID_2_">
				<use xlink:href="#SVGID_1_"  overflow="visible"/>
			</clipPath>
			<path clip-path="url(#SVGID_2_)" fill="#231F20" d="M26,8h-4V4.615c0.099-0.089,0.19-0.191,0.265-0.308
				c0.445-0.699,0.24-1.625-0.458-2.072C21.664,2.145,18.255,0,14,0S6.336,2.145,6.193,2.235c-0.697,0.446-0.901,1.37-0.458,2.068
				C5.81,4.42,5.902,4.518,6,4.607V8H2c-1.1,0-2,0.9-2,2v16c0,1.1,0.9,2,2,2h16c1.1,0,2-0.9,2-2V10c0-1.1-0.9-2-2-2H8V4.652
				C8.686,4.265,11.143,3,14,3c2.856,0,5.313,1.264,6,1.652V7.78c0.609,0.55,1,1.337,1,2.22v16c0,0.771-0.3,1.468-0.78,2H26
				c1.1,0,2-0.9,2-2V10C28,8.9,27.1,8,26,8 M18,26H2V10h16V26z"/>
		</g>
	</g>

</svg>
