<?xml version="1.0" encoding="utf-8"?>
<svg version="1.1" id="Layer_1" xmlns="http://www.w3.org/2000/svg" xmlns:xlink="http://www.w3.org/1999/xlink" x="0px" y="0px" viewBox="0 0 28 28"
	 enable-background="new 0 0 28 28" xml:space="preserve">

		<g>
			<defs>
				<rect id="SVGID_1_" width="28" height="28"/>
			</defs>
			<clipPath id="SVGID_2_">
				<use xlink:href="#SVGID_1_"  overflow="visible"/>
			</clipPath>
			<path clip-path="url(#SVGID_2_)" fill="#231F20" d="M26.579,0L7.366,18.384l2.747,2.601c0,0,14.903-9.797,15.151-9.985
				C30.526,7,26.579,0,26.579,0"/>
			<path clip-path="url(#SVGID_2_)" fill="#231F20" d="M0.323,25.03c-0.431,0.409-0.43,1.077,0.002,1.485l1.246,1.18
				c0.431,0.408,1.134,0.407,1.563-0.002l6.286-5.985l-2.811-2.665L0.323,25.03z M2.306,26.336C2,26.337,1.753,26.103,1.753,25.812
				c0-0.29,0.245-0.524,0.552-0.525c0.305,0,0.552,0.234,0.552,0.524C2.857,26.101,2.611,26.336,2.306,26.336 M4.513,24.233
				c-0.304,0-0.552-0.233-0.552-0.523c-0.001-0.292,0.246-0.527,0.551-0.527s0.553,0.233,0.554,0.524
				C5.066,23.999,4.818,24.233,4.513,24.233 M7.273,21.605c0.001,0.29-0.246,0.524-0.551,0.525c-0.306,0-0.553-0.234-0.554-0.524
				c0-0.291,0.248-0.524,0.553-0.524C7.026,21.082,7.273,21.315,7.273,21.605"/>
		</g>

</svg>
