<?xml version="1.0" encoding="utf-8"?>
<svg version="1.1" id="Layer_1" xmlns="http://www.w3.org/2000/svg" xmlns:xlink="http://www.w3.org/1999/xlink" x="0px" y="0px"
	 viewBox="0 0 28 28" enable-background="new 0 0 28 28" xml:space="preserve">
<path d="M22.146,22l-3.09,0.473l2.237,2.29L20.764,28l2.763-1.527L26.292,28l-0.529-3.237L28,22.473L24.91,22l-1.383-2.943
	L22.146,22z M13.656,11.721l3.693-3.694l2.623,2.625l-3.693,3.691L13.656,11.721z M12.451,11.461L0,23.91L4.087,28l12.192-12.192
	l5.16-5.156l-4.09-4.092L12.451,11.461z M5.833,0L4.031,3.842L0,4.457l2.916,2.99l-0.688,4.219l3.605-1.99l3.606,1.99l-0.69-4.219
	l2.916-2.99L7.636,3.842L5.833,0z M24.306,0l-1.142,2.434l-2.553,0.388l1.847,1.895l-0.435,2.672l2.283-1.262l2.283,1.262
	l-0.435-2.672L28,2.822l-2.551-0.388L24.306,0z"/>
</svg>
