<?xml version="1.0" encoding="utf-8"?>
<svg version="1.1" id="Layer_1" xmlns="http://www.w3.org/2000/svg" xmlns:xlink="http://www.w3.org/1999/xlink" x="0px" y="0px" viewBox="0 0 28 28"
	 enable-background="new 0 0 28 28" xml:space="preserve">

		<g>
			<defs>
				<rect id="SVGID_1_" width="28" height="28"/>
			</defs>
			<clipPath id="SVGID_2_">
				<use xlink:href="#SVGID_1_"  overflow="visible"/>
			</clipPath>
			<path clip-path="url(#SVGID_2_)" fill="#231F20" d="M27.705,6c-0.216-2.322-0.513-4.422-0.773-6h-9.139
				c0.228,1.232,0.599,3.431,0.87,6H27.705z"/>
			<path clip-path="url(#SVGID_2_)" fill="#231F20" d="M9.337,6c0.271-2.569,0.642-4.768,0.87-6H1.069
				C0.808,1.578,0.511,3.678,0.295,6H9.337z"/>
			<path clip-path="url(#SVGID_2_)" fill="#231F20" d="M18.761,7C18.903,8.568,19,10.238,19,11.894C19,16.012,16.897,19,14,19
				c-2.896,0-5-2.988-5-7.106C9,10.238,9.098,8.568,9.24,7H0.207C0.082,8.575,0,10.232,0,11.894C0,21.076,6.019,28,14,28
				c7.982,0,14-6.924,14-16.106c0-1.662-0.082-3.319-0.207-4.894H18.761z"/>
		</g>

</svg>
