<?xml version="1.0" encoding="utf-8"?>
<svg version="1.1" id="Layer_1" xmlns="http://www.w3.org/2000/svg" xmlns:xlink="http://www.w3.org/1999/xlink" x="0px" y="0px" viewBox="0 0 28 28"
	 enable-background="new 0 0 28 28" xml:space="preserve">

	<g>
		<rect x="4" y="3" fill="#231F20" width="7" height="3"/>
		<rect x="17" fill="#231F20" width="7" height="3"/>
		<g>
			<defs>
				<rect id="SVGID_1_" width="28" height="28"/>
			</defs>
			<clipPath id="SVGID_2_">
				<use xlink:href="#SVGID_1_"  overflow="visible"/>
			</clipPath>
			<path clip-path="url(#SVGID_2_)" fill="#231F20" d="M27.996,12.028c0-3.018-2.234-5.608-4.997-6.589V4h-4.997v1.439
				c-1.953,0.693-3.631,2.207-4.452,4.09c1.002,0.983,1.745,2.177,2.132,3.471H26v7H16v5h9.997c1.099,0,1.999-0.903,1.999-2.004
				C27.996,22.996,28.006,12.023,27.996,12.028"/>
			<path clip-path="url(#SVGID_2_)" fill="#231F20" d="M9.999,8.439V7H5.002v1.439c-2.754,0.978-4.997,3.572-4.997,6.56
				c-0.012-0.006,0,10.997,0,10.997C0.005,27.098,0.904,28,2.004,28h10.993c1.099,0,1.999-0.902,1.999-2.004
				c0,0,0.01-10.973,0-10.968C14.996,12.011,12.762,9.42,9.999,8.439 M12,20H9v3H6v-3H3v-3h3v-3h3v3h3V20z"/>
		</g>
	</g>

</svg>
