<?xml version="1.0" encoding="utf-8"?>
<svg version="1.1" id="Layer_1" xmlns="http://www.w3.org/2000/svg" xmlns:xlink="http://www.w3.org/1999/xlink" x="0px" y="0px"
	 viewBox="0 0 28 28" enable-background="new 0 0 28 28" xml:space="preserve">
<g>
	<defs>
		<rect id="SVGID_1_" width="28" height="28"/>
	</defs>
	<clipPath id="SVGID_2_">
		<use xlink:href="#SVGID_1_"  overflow="visible"/>
	</clipPath>
	<path clip-path="url(#SVGID_2_)" d="M26,11l-0.002-1.843C25.998,7.48,24.43,6,22.5,6h-0.006C20.559,6,18.998,7.487,19,9.169
		L19.008,11H26z M13.498,4.999c0.043,0,0.084-0.002,0.129-0.006c1.381-0.07,2.439-1.249,2.371-2.625C15.928,1.035,14.824,0,13.502,0
		c-0.045,0-0.086,0.001-0.133,0.006c-1.375,0.07-2.437,1.245-2.365,2.621C11.072,3.96,12.178,4.999,13.498,4.999 M17,11
		l-0.002-1.843C16.998,7.48,15.43,6,13.5,6h-0.006C11.559,6,9.998,7.487,10,9.169L10.008,11H17z M22.498,4.999
		c0.043,0,0.084-0.002,0.129-0.006c1.381-0.07,2.439-1.249,2.371-2.625C24.928,1.035,23.824,0,22.502,0
		c-0.045,0-0.086,0.001-0.133,0.006c-1.375,0.07-2.437,1.245-2.365,2.621C20.072,3.96,21.178,4.999,22.498,4.999 M8,19v9h3v-7h14v7
		h3v-9H8z M3.5,11H3.494C1.559,11-0.002,12.318,0,14l0.008,14H7V14C7,12.322,5.43,11,3.5,11 M27,12H9.006L8,18h20L27,12z
		 M3.498,9.999c0.043,0,0.084-0.002,0.129-0.006c1.381-0.07,2.439-1.249,2.371-2.625C5.928,6.035,4.824,5,3.502,5
		C3.457,5,3.416,5.001,3.369,5.006c-1.375,0.07-2.437,1.245-2.365,2.621C1.072,8.96,2.178,9.999,3.498,9.999"/>
</g>
</svg>
