<?xml version="1.0" encoding="utf-8"?>
<svg version="1.1" id="Layer_1" xmlns="http://www.w3.org/2000/svg" xmlns:xlink="http://www.w3.org/1999/xlink" x="0px" y="0px"
	 viewBox="0 0 28 28" enable-background="new 0 0 28 28" xml:space="preserve">
<g>
	<defs>
		<rect id="SVGID_1_" width="28" height="28"/>
	</defs>
	<clipPath id="SVGID_2_">
		<use xlink:href="#SVGID_1_"  overflow="visible"/>
	</clipPath>
	<path clip-path="url(#SVGID_2_)" d="M6.5,7C8.435,7,10,5.434,10,3.5C10,1.568,8.435,0,6.5,0C4.57,0,3,1.568,3,3.5
		C3,5.434,4.57,7,6.5,7 M21.5,7C23.435,7,25,5.434,25,3.5C25,1.568,23.435,0,21.5,0C19.57,0,18,1.568,18,3.5
		C18,5.434,19.57,7,21.5,7 M6.482,8C2.902,8,0,10.155,0,13v6h2v9h4v-6c0-0.275,0.224-0.5,0.5-0.5C6.775,21.5,7,21.725,7,22v6h4v-9
		h1.964L13,13C13,10.155,10.066,8,6.482,8 M21.482,8C17.902,8,15,10.155,15,13v6h2v9h4v-6c0-0.275,0.224-0.5,0.5-0.5
		c0.275,0,0.5,0.225,0.5,0.5v6h4v-9h1.964L28,13C28,10.155,25.066,8,21.482,8"/>
</g>
</svg>
