<?xml version="1.0" encoding="utf-8"?>
<svg version="1.1" id="Layer_1" xmlns="http://www.w3.org/2000/svg" xmlns:xlink="http://www.w3.org/1999/xlink" x="0px" y="0px"
	 viewBox="0 0 28 28" enable-background="new 0 0 28 28" xml:space="preserve">
<g>
	<defs>
		<rect id="SVGID_1_" width="28" height="28"/>
	</defs>
	<clipPath id="SVGID_2_">
		<use xlink:href="#SVGID_1_"  overflow="visible"/>
	</clipPath>
	<path clip-path="url(#SVGID_2_)" d="M14.002,4.017C14.553,4.017,15,3.48,15,2.816c0-0.664-0.998-2.799-0.998-2.799
		S13,2.152,13,2.816C13,3.48,13.447,4.017,14.002,4.017 M18.002,7.017C18.553,7.017,19,6.48,19,5.816
		c0-0.664-0.998-2.799-0.998-2.799S17,5.152,17,5.816C17,6.48,17.447,7.017,18.002,7.017 M24.002,7.017
		C24.553,7.017,25,6.48,25,5.816c0-0.664-0.998-2.799-0.998-2.799S23,5.152,23,5.816C23,6.48,23.447,7.017,24.002,7.017
		 M27.002,7.017C27.553,7.017,28,6.48,28,5.816c0-0.664-0.998-2.799-0.998-2.799S26,5.152,26,5.816
		C26,6.48,26.447,7.017,27.002,7.017 M21.002,7.017C21.553,7.017,22,6.48,22,5.816c0-0.664-0.998-2.799-0.998-2.799
		S20,5.152,20,5.816C20,6.48,20.447,7.017,21.002,7.017 M1.002,7.017C1.553,7.017,2,6.48,2,5.816c0-0.664-0.998-2.799-0.998-2.799
		S0,5.152,0,5.816C0,6.48,0.447,7.017,1.002,7.017 M26,14.017c0,1.006-0.385,1.914-1,2.618V8.017h-2v9.858
		c-0.32,0.083-0.652,0.142-1,0.142v-10h-2v10h-1v-10h-2v10h-2v-13h-2v13h-2v-10H9v10H8v-10H6v10c-0.348,0-0.678-0.059-1-0.142V8.017
		H3v8.618c-0.613-0.704-1-1.612-1-2.618v-6H0v6c0,3.313,2.687,6,6,6h7v3h-0.041v0.02C9.584,23.393,7,25.017,6.992,27.984h13.983
		c0.025-2.967-2.581-4.582-5.946-4.945v-0.022H15v-3h7c3.314,0,6-2.687,6-6v-6h-2V14.017z M10.002,7.017
		C10.553,7.017,11,6.48,11,5.816c0-0.664-0.998-2.799-0.998-2.799S9,5.152,9,5.816C9,6.48,9.447,7.017,10.002,7.017 M7.002,7.017
		C7.553,7.017,8,6.48,8,5.816c0-0.664-0.998-2.799-0.998-2.799S6,5.152,6,5.816C6,6.48,6.447,7.017,7.002,7.017 M4.002,7.017
		C4.553,7.017,5,6.48,5,5.816c0-0.664-0.998-2.799-0.998-2.799S3,5.152,3,5.816C3,6.48,3.447,7.017,4.002,7.017"/>
</g>
</svg>
