<?xml version="1.0" encoding="utf-8"?>
<svg version="1.1" id="Layer_1" xmlns="http://www.w3.org/2000/svg" xmlns:xlink="http://www.w3.org/1999/xlink" x="0px" y="0px"
	 viewBox="0 0 28 28" enable-background="new 0 0 28 28" xml:space="preserve">
<g>
	<defs>
		<rect id="SVGID_1_" width="28" height="28"/>
	</defs>
	<clipPath id="SVGID_2_">
		<use xlink:href="#SVGID_1_"  overflow="visible"/>
	</clipPath>
	<path clip-path="url(#SVGID_2_)" d="M14,18c3.314,0,5.121-2.239,5.121-5V5c0-2.761-1.807-5-5.121-5c-3.315,0-5,2.239-5,5v8
		C9,15.761,10.685,18,14,18"/>
	<path clip-path="url(#SVGID_2_)" d="M28,10h-5V6.001h-2V13c0,3.86-2.588,7-7,7c-4.41,0-7-3.14-7-7V6.001H5V10H0v2h5v0.983V13
		c0,4.633,3.5,8.444,8,8.941v3.107C10.211,25.277,7.914,26.437,7,28h14c-0.914-1.563-3.211-2.723-6-2.952v-3.107
		c4.5-0.498,7.998-4.309,7.998-8.94H23V12h5V10z"/>
</g>
</svg>
