<?xml version="1.0" encoding="utf-8"?>
<svg version="1.1" id="Layer_1" xmlns="http://www.w3.org/2000/svg" xmlns:xlink="http://www.w3.org/1999/xlink" x="0px" y="0px" viewBox="0 0 28 28"
	 enable-background="new 0 0 28 28" xml:space="preserve">

		<g>
			<defs>
				<rect id="SVGID_1_" width="28" height="28"/>
			</defs>
			<clipPath id="SVGID_2_">
				<use xlink:href="#SVGID_1_"  overflow="visible"/>
			</clipPath>
			<path clip-path="url(#SVGID_2_)" fill="#231F20" d="M7.799,23.158l0.958,3.885l0.971-0.239L8.77,22.919L7.799,23.158z
				 M9.741,22.679l0.958,3.885l0.971-0.239l-0.958-3.885L9.741,22.679z M5.857,23.637l0.958,3.885l0.971-0.239l-0.958-3.885
				L5.857,23.637z M3.916,24.115l0.957,3.886l0.971-0.24l-0.957-3.885L3.916,24.115z M17.847,15.446
				c0.818-1.113,0.58-2.679-0.532-3.497c-1.114-0.818-2.678-0.579-3.496,0.532l-1.114,1.514L11.08,9.42
				c-1.017-2.863-4.173-4.376-7.024-3.343c-4.21,1.526-4.463,4.68-3.745,7.594l3.365,9.474l10.68-2.635L17.847,15.446z
				 M17.635,22.325l0.925,0.379l1.514-3.705l-0.926-0.378L17.635,22.325z M17.297,17.864l-1.514,3.704l0.926,0.379l1.514-3.705
				L17.297,17.864z M27.883,12.898c-0.418-1.318-1.823-2.045-3.138-1.63l-1.792,0.568l1.38-4.655
				c0.865-2.914-0.796-5.996-3.708-6.841c-4.301-1.248-6.362,1.152-7.497,3.93l-1.299,4.382c0.064,0.145,1.187,3.232,1.187,3.232
				c0.658-0.89,1.712-1.422,2.819-1.422c0.75,0,1.466,0.235,2.072,0.681c1.555,1.144,1.889,3.34,0.763,4.871l-0.716,1.038
				l2.498,1.021l5.802-2.036C27.57,15.621,28.3,14.214,27.883,12.898 M13.625,21.721l0.957,3.885l0.971-0.239l-0.957-3.886
				L13.625,21.721z M11.683,22.2l0.958,3.885l0.971-0.239l-0.958-3.886L11.683,22.2z"/>
		</g>

</svg>
