<?xml version="1.0" encoding="utf-8"?>
<svg version="1.1" id="Layer_1" xmlns="http://www.w3.org/2000/svg" xmlns:xlink="http://www.w3.org/1999/xlink" x="0px" y="0px"
	 viewBox="0 0 28 28" enable-background="new 0 0 28 28" xml:space="preserve">
<g>
	<defs>
		<rect id="SVGID_1_" width="28" height="28"/>
	</defs>
	<clipPath id="SVGID_2_">
		<use xlink:href="#SVGID_1_"  overflow="visible"/>
	</clipPath>
	<path clip-path="url(#SVGID_2_)" d="M11.323,5l-0.847-2.715c-0.09-0.273,0.058-0.621,0.331-0.71
		c0.039-0.013,0.08-0.019,0.121-0.019c0.233,0,0.455,0.203,0.531,0.434L12.412,5h3.148l0.95-3.038
		c0.074-0.228,0.293-0.408,0.521-0.408c0.044,0,0.089,0.007,0.132,0.021c0.273,0.089,0.421,0.465,0.333,0.737L16.647,5h1.961
		l4.767-5H4.595l4.766,5H11.323z"/>
	<path clip-path="url(#SVGID_2_)" d="M18.989,6h-8.98C4.623,7,0.125,12.282,0.002,16.946c-0.004,0.069,0,7.026,0,7.026
		C0.002,26.375,1.471,28,4.023,28h19.957c2.554,0,3.991-1.596,3.991-4L28,17.014C27.88,12.35,24.375,7,18.989,6 M17.162,22.643
		c0.273,0.6,0.545,1.2,0.816,1.801c-0.588,0.231-1.172,0.48-1.747,0.739c-0.253-0.558-0.509-1.117-0.762-1.676
		c-1.126,0.447-2.302,0.705-3.124,0.705c-0.059,0-0.117-0.001-0.172-0.004l-0.422-2.337c0.072,0.002,0.144,0.003,0.22,0.003
		c0.874,0,1.967-0.158,3.031-0.621c1.009-0.441,1.542-1.088,1.221-1.796c-0.247-0.544-0.812-0.793-1.835-0.793
		c-0.23,0-0.483,0.013-0.762,0.038c-0.444,0.042-0.866,0.067-1.262,0.067c-1.55,0-2.713-0.395-3.335-1.765
		c-0.705-1.545-0.21-3.361,1.508-4.589c-0.253-0.558-0.509-1.117-0.76-1.675c0.575-0.258,1.159-0.505,1.748-0.737
		c0.235,0.519,0.471,1.037,0.705,1.554c0.855-0.288,1.572-0.385,2.179-0.385c0.271,0,0.521,0.019,0.752,0.049
		c0.123,0.718,0.244,1.438,0.367,2.16c-0.218-0.015-0.507-0.044-0.852-0.044c-0.553,0-1.252,0.075-2.049,0.4
		c-1.165,0.48-1.303,1.159-1.081,1.648c0.228,0.503,0.826,0.623,2.112,0.623c0.218,0,0.457-0.004,0.718-0.01
		c0.115-0.003,0.228-0.005,0.339-0.005c2.279,0,3.561,0.775,4.245,2.278C19.677,19.851,19.076,21.48,17.162,22.643"/>
</g>
</svg>
