<?xml version="1.0" encoding="utf-8"?>
<svg version="1.1" id="Layer_1" xmlns="http://www.w3.org/2000/svg" xmlns:xlink="http://www.w3.org/1999/xlink" x="0px" y="0px" viewBox="0 0 28 28"
	 enable-background="new 0 0 28 28" xml:space="preserve">

		<g>
			<defs>
				<rect id="SVGID_1_" width="28" height="28"/>
			</defs>
			<clipPath id="SVGID_2_">
				<use xlink:href="#SVGID_1_"  overflow="visible"/>
			</clipPath>
			<path clip-path="url(#SVGID_2_)" fill="#231F20" d="M20,14v-3c0-3.69-3.232-5-6-5s-6,1.31-6,5v3c0,4.143,5,6,6,6S20,18.143,20,14
				"/>
			<path clip-path="url(#SVGID_2_)" fill="#231F20" d="M23,9c0-4.963-4.037-9-9-9S5,4.037,5,9c0,0,0,9-5,13v6h13.5v-2.72
				C7.027,21.756,7,14,7,14v-3c0-3.86,3.14-6,7-6s7,2.14,7,6v3c0,0-0.027,7.756-6.5,11.28V28H28v-6C23,18,23,9,23,9"/>
		</g>

</svg>
