<?xml version="1.0" encoding="utf-8"?>
<svg version="1.1" id="Layer_1" xmlns="http://www.w3.org/2000/svg" xmlns:xlink="http://www.w3.org/1999/xlink" x="0px" y="0px"
	 viewBox="0 0 28 28" enable-background="new 0 0 28 28" xml:space="preserve">
<g>
	<defs>
		<rect id="SVGID_1_" width="28" height="28"/>
	</defs>
	<clipPath id="SVGID_2_">
		<use xlink:href="#SVGID_1_"  overflow="visible"/>
	</clipPath>
	<path clip-path="url(#SVGID_2_)" d="M13.999,28C21.688,28,28,21.687,28,14.001C28,6.31,21.688,0,13.999,0C6.307,0,0,6.31,0,14.001
		C0,21.687,6.307,28,13.999,28 M26.25,14.001c0,6.535-5.149,11.877-11.601,12.217c4.343-2.351,7.299-6.933,7.299-12.218
		s-2.956-9.868-7.299-12.218C21.102,2.122,26.25,7.465,26.25,14.001"/>
	<path clip-path="url(#SVGID_2_)" d="M14,2c6.617,0,11.999,5.383,11.999,11.999C25.999,20.616,20.617,26,14,26
		S1.999,20.616,1.999,13.999C1.999,7.383,7.383,2,14,2 M14,0C6.311,0-0.001,6.314-0.001,13.999C-0.001,21.689,6.311,28,14,28
		c7.692,0,13.999-6.311,13.999-14.001C27.999,6.314,21.692,0,14,0"/>
</g>
</svg>
