<?xml version="1.0" encoding="utf-8"?>
<svg version="1.1" id="Layer_1" xmlns="http://www.w3.org/2000/svg" xmlns:xlink="http://www.w3.org/1999/xlink" x="0px" y="0px"
	 viewBox="0 0 28 28" enable-background="new 0 0 28 28" xml:space="preserve">
<g>
	<defs>
		<rect id="SVGID_1_" width="28" height="28"/>
	</defs>
	<clipPath id="SVGID_2_">
		<use xlink:href="#SVGID_1_"  overflow="visible"/>
	</clipPath>
	<path clip-path="url(#SVGID_2_)" d="M27.929,15.398C27.975,14.938,28,14.473,28,14.001V14v-0.001C28,6.313,21.692,0,14.001,0H14
		C6.983,0,1.14,5.252,0.16,12.008c-0.027,0.189-0.067,0.376-0.088,0.568c0,0.009,0,0.017-0.001,0.026
		C0.025,13.062,0,13.527,0,13.999V14v0.001C0,21.686,6.305,28,14,28h0.001c6.96,0,12.769-5.172,13.814-11.854
		c0.038-0.24,0.087-0.478,0.113-0.722C27.928,15.415,27.928,15.407,27.929,15.398 M2,13.999C2,7.649,6.962,2.45,13.21,2.04
		C17.795,4.084,21,8.655,21,14s-3.205,9.918-7.791,11.96C6.961,25.549,2,20.349,2,13.999"/>
</g>
</svg>
