<?xml version="1.0" encoding="utf-8"?>
<svg version="1.1" id="Layer_1" xmlns="http://www.w3.org/2000/svg" xmlns:xlink="http://www.w3.org/1999/xlink" x="0px" y="0px"
	 viewBox="0 0 28 28" enable-background="new 0 0 28 28" xml:space="preserve">
<g>
	<defs>
		<rect id="SVGID_1_" width="28" height="28"/>
	</defs>
	<clipPath id="SVGID_2_">
		<use xlink:href="#SVGID_1_"  overflow="visible"/>
	</clipPath>
	<path clip-path="url(#SVGID_2_)" d="M24,12V7h-3.041l1.1,5H24z M22.051,16.099c-0.047,0-0.094,0.008-0.14,0.008L18.268,0h-6.266v2
		h4.409l1.14,5h-2.967l-3.369,3H0.002v2h1.912l1.938,3.1C1.551,16.452,0,19,0,22h1.086c0.151-4,3.217-6.82,6.973-6.82
		c1.715,0,3.287,0.566,4.504,1.597l2.475-0.026l4.025-2.785l0.592,2.647c-2.092,0.924-3.553,3.008-3.553,5.439
		c0,3.287,2.615,5.948,5.9,5.948C25.288,28,28,25.337,28,22.05C28,18.764,25.336,16.099,22.051,16.099 M22.051,25.277
		c-1.781,0-3.226-1.447-3.226-3.227c0-1.122,0.574-2.311,1.443-2.891L20.948,22h0.007c0.125,1,0.579,1.076,1.12,1.076
		c0.642,0,1.162-0.363,1.162-1.004c0-0.077-0.01-0.072-0.024-0.072h0.006l-0.685-3.082c1.55,0.235,2.744,1.544,2.744,3.159
		C25.278,23.857,23.832,25.277,22.051,25.277 M8.059,16.099c-0.029,0-0.057,0.003-0.086,0.004c-3.246,0.047-5.865,2.69-5.865,5.947
		c0,3.286,2.664,5.95,5.951,5.95c3.285,0,5.949-2.664,5.949-5.95C14.008,18.763,11.344,16.099,8.059,16.099 M8.059,25.277
		c-1.781,0-3.229-1.447-3.229-3.227c0-0.097,0.006-0.192,0.014-0.286c0.147-1.647,1.529-2.942,3.215-2.942
		c1.777,0,3.227,1.447,3.227,3.228C11.286,23.83,9.836,25.277,8.059,25.277"/>
</g>
</svg>
