<?xml version="1.0" encoding="utf-8"?>
<svg version="1.1" id="Layer_1" xmlns="http://www.w3.org/2000/svg" xmlns:xlink="http://www.w3.org/1999/xlink" x="0px" y="0px" viewBox="0 0 28 28"
	 enable-background="new 0 0 28 28" xml:space="preserve">

	<g>
		<polygon fill="#231F20" points="10.628,23.001 10,28 18,28 17.373,23.001 		"/>
		<g>
			<defs>
				<rect id="SVGID_1_" width="28" height="28"/>
			</defs>
			<clipPath id="SVGID_2_">
				<use xlink:href="#SVGID_1_"  overflow="visible"/>
			</clipPath>
			<path clip-path="url(#SVGID_2_)" fill="#231F20" d="M27.253,14.389l-3.331-6.776C21.864,3.427,18.696,0.001,14,0.001
				c-4.249,0-7.864,3.426-9.922,7.612l-3.331,6.776c-2.058,4.186,0.283,7.612,5.203,7.612h16.1
				C26.97,22.001,29.311,18.575,27.253,14.389 M4.71,8.594l0.265-0.54c0.848-1.724,2.1-3.506,3.659-4.849
				C10.007,3.678,11,4.967,11,6.501c0,1.933-1.567,3.5-3.5,3.5C6.355,10.001,5.349,9.444,4.71,8.594 M11.5,19.001
				c-1.933,0-3.5-1.567-3.5-3.5s1.567-3.5,3.5-3.5s3.5,1.567,3.5,3.5S13.433,19.001,11.5,19.001 M22.5,14.001
				c-1.933,0-3.5-1.567-3.5-3.5c0-1.917,1.542-3.47,3.453-3.495c0.193,0.343,0.388,0.676,0.571,1.048l2.245,4.566
				C24.629,13.454,23.633,14.001,22.5,14.001"/>
		</g>
	</g>

</svg>
