<?xml version="1.0" encoding="utf-8"?>
<svg version="1.1" id="Layer_1" xmlns="http://www.w3.org/2000/svg" xmlns:xlink="http://www.w3.org/1999/xlink" x="0px" y="0px"
	 viewBox="0 0 28 28" enable-background="new 0 0 28 28" xml:space="preserve">
<g>
	<defs>
		<rect id="SVGID_1_" width="28" height="28"/>
	</defs>
	<clipPath id="SVGID_2_">
		<use xlink:href="#SVGID_1_"  overflow="visible"/>
	</clipPath>
	<path clip-path="url(#SVGID_2_)" d="M20,10h8l-3-3V0h-4v3l-3-3h-7l9,9.9V10z M20,28h8V11h-8V28z M0,11v17h19V11L9,0L0,11z
		 M11.537,10.7c0.215,0.215,0.504,0.364,0.812,0.605C13.293,12.037,14.467,14,14.467,15H12.65c0,0-0.365-1.619-1.218-2.281
		C11.221,12.555,11,12.439,11,12.264v9.265c0,1.514-1.656,2.74-3.463,2.74c-1.801,0-3.363-1.226-3.363-2.74
		c0-1.513,1.519-2.739,3.32-2.739C8.017,18.79,8,18.894,9,19.078V8h1.609C10.705,9,11.057,10.213,11.537,10.7"/>
</g>
</svg>
