<?xml version="1.0" encoding="utf-8"?>
<svg version="1.1" id="Layer_1" xmlns="http://www.w3.org/2000/svg" xmlns:xlink="http://www.w3.org/1999/xlink" x="0px" y="0px"
	 viewBox="0 0 28 28" enable-background="new 0 0 28 28" xml:space="preserve">
<g>
	<defs>
		<rect id="SVGID_1_" width="28" height="28"/>
	</defs>
	<clipPath id="SVGID_2_">
		<use xlink:href="#SVGID_1_"  overflow="visible"/>
	</clipPath>
	<path clip-path="url(#SVGID_2_)" d="M8.014,2.076v17.08c-1-0.31-1.554-0.488-2.447-0.488C2.487,18.668,0,20.756,0,23.332
		C0,25.91,2.426,28,5.505,28c3.089,0,5.507-2.09,5.507-4.668V6.937l13.99-1.429v11.574c-1-0.313-1.642-0.492-2.536-0.492
		c-3.079,0-5.61,2.09-5.61,4.666c0,2.578,2.492,4.668,5.57,4.668c3.09,0,5.574-2.09,5.574-4.668V0L8.014,2.076z"/>
</g>
</svg>
