<?xml version="1.0" encoding="utf-8"?>
<svg version="1.1" id="Layer_1" xmlns="http://www.w3.org/2000/svg" xmlns:xlink="http://www.w3.org/1999/xlink" x="0px" y="0px" viewBox="0 0 28 28"
	 enable-background="new 0 0 28 28" xml:space="preserve">

		<g>
			<defs>
				<rect id="SVGID_1_" width="28" height="28"/>
			</defs>
			<clipPath id="SVGID_2_">
				<use xlink:href="#SVGID_1_"  overflow="visible"/>
			</clipPath>
			<path clip-path="url(#SVGID_2_)" fill="#231F20" d="M26.271,9.978l-5.291,3.081l0.641,3.061c0.173,0.829,0.021,1.591-0.43,2.146
				c-0.412,0.507-1.024,0.786-1.723,0.786c-0.308,0-0.629-0.055-0.953-0.162l-4.807-1.597l-0.98,0.57c-0.95,0.554-0.95,1.46,0,2.014
				l13.543,7.886C27.222,28.316,28,27.869,28,26.77V10.971C28,9.871,27.222,9.424,26.271,9.978 M25.001,24
				C24.45,24,24,23.553,24,22.999C24,22.447,24.45,22,25.001,22C25.551,22,26,22.447,26,22.999C26,23.553,25.551,24,25.001,24"/>
			<path clip-path="url(#SVGID_2_)" fill="#231F20" d="M3.916,12.723l14.993,4.98c1.044,0.347,1.714-0.25,1.488-1.326l-3.213-15.34
				c-0.226-1.076-1.085-1.361-1.91-0.634L3.519,10.769C2.693,11.496,2.873,12.376,3.916,12.723 M17,8.999
				C17,9.553,16.551,10,16.001,10C15.45,10,15,9.553,15,8.999C15,8.447,15.45,8,16.001,8C16.551,8,17,8.447,17,8.999 M15.001,4
				C15.551,4,16,4.447,16,4.999C16,5.553,15.551,6,15.001,6C14.45,6,14,5.553,14,4.999C14,4.447,14.45,4,15.001,4"/>
			<path clip-path="url(#SVGID_2_)" fill="#231F20" d="M20.835,26.043L12.1,20.957c-0.849-0.494-1.334-1.254-1.334-2.087
				s0.485-1.593,1.334-2.087l0.027-0.015l-5.325-1.769L0.237,26.271C-0.316,27.223,0.131,28,1.231,28h18.743
				c1.1,0,1.547-0.777,0.994-1.729L20.835,26.043z M5.001,26C4.45,26,4,25.553,4,24.999C4,24.447,4.45,24,5.001,24
				C5.551,24,6,24.447,6,24.999C6,25.553,5.551,26,5.001,26 M7.001,23C6.45,23,6,22.553,6,21.999C6,21.447,6.45,21,7.001,21
				C7.551,21,8,21.447,8,21.999C8,22.553,7.551,23,7.001,23 M9.001,26C8.45,26,8,25.553,8,24.999C8,24.447,8.45,24,9.001,24
				C9.551,24,10,24.447,10,24.999C10,25.553,9.551,26,9.001,26"/>
		</g>

</svg>
