<?xml version="1.0" encoding="utf-8"?>
<svg version="1.1" id="Layer_1" xmlns="http://www.w3.org/2000/svg" xmlns:xlink="http://www.w3.org/1999/xlink" x="0px" y="0px" viewBox="0 0 28 28"
	 enable-background="new 0 0 28 28" xml:space="preserve">

		<g>
			<defs>
				<rect id="SVGID_1_" width="28" height="28"/>
			</defs>
			<clipPath id="SVGID_2_">
				<use xlink:href="#SVGID_1_"  overflow="visible"/>
			</clipPath>
			<path clip-path="url(#SVGID_2_)" fill="#231F20" d="M14,0.001c-7.732,0-14,2.239-14,5c0,2.342,4.513,4.301,10.598,4.845
				l-0.567-2.658C10.005,7.069,9.997,6.95,9.994,6.833C6.467,6.524,4,5.82,4,5.001c0-1.105,4.477-2,10-2s10,0.895,10,2
				c0,0.819-2.467,1.523-5.994,1.832c-0.003,0.117-0.011,0.236-0.037,0.355l-0.567,2.658C23.487,9.302,28,7.343,28,5.001
				C28,2.24,21.732,0.001,14,0.001"/>
			<path clip-path="url(#SVGID_2_)" fill="#231F20" d="M12.867,11.001h2.267c0.55,0,1.094-0.44,1.208-0.978l0.65-3.044
				c0.114-0.538-0.242-0.978-0.792-0.978h-4.4c-0.55,0-0.906,0.44-0.791,0.978l0.649,3.044
				C11.773,10.561,12.317,11.001,12.867,11.001"/>
			<polygon clip-path="url(#SVGID_2_)" fill="#231F20" points="12.258,12.001 10,23.001 14,28.024 18,23.001 15.74,12.001 			"/>
		</g>

</svg>
