<?xml version="1.0" encoding="utf-8"?>
<svg version="1.1" id="Layer_1" xmlns="http://www.w3.org/2000/svg" xmlns:xlink="http://www.w3.org/1999/xlink" x="0px" y="0px" viewBox="0 0 28 28"
	 enable-background="new 0 0 28 28" xml:space="preserve">

	<g>
		<polygon fill="#231F20" points="9,22.001 14,28 14.001,28 19,22.001 14,15.002 		"/>
		<g>
			<defs>
				<rect id="SVGID_1_" width="28" height="28"/>
			</defs>
			<clipPath id="SVGID_2_">
				<use xlink:href="#SVGID_1_"  overflow="visible"/>
			</clipPath>
			<path clip-path="url(#SVGID_2_)" fill="#231F20" d="M14,3.001c0.828,0,1.5-0.672,1.5-1.5c0-0.828-0.672-1.5-1.5-1.5
				c-0.828,0-1.5,0.672-1.5,1.5C12.5,2.329,13.172,3.001,14,3.001"/>
			<path clip-path="url(#SVGID_2_)" fill="#231F20" d="M5.5,6.001c0.828,0,1.5-0.672,1.5-1.5c0-0.828-0.672-1.5-1.5-1.5
				S4,3.673,4,4.501C4,5.329,4.672,6.001,5.5,6.001"/>
			<path clip-path="url(#SVGID_2_)" fill="#231F20" d="M9.5,4.001c0.828,0,1.5-0.672,1.5-1.5c0-0.828-0.672-1.5-1.5-1.5
				c-0.828,0-1.5,0.672-1.5,1.5C8,3.329,8.672,4.001,9.5,4.001"/>
			<path clip-path="url(#SVGID_2_)" fill="#231F20" d="M22.5,6.001c0.828,0,1.5-0.672,1.5-1.5c0-0.828-0.672-1.5-1.5-1.5
				c-0.828,0-1.5,0.672-1.5,1.5C21,5.329,21.672,6.001,22.5,6.001"/>
			<path clip-path="url(#SVGID_2_)" fill="#231F20" d="M18.5,4.001c0.828,0,1.5-0.672,1.5-1.5c0-0.828-0.672-1.5-1.5-1.5
				c-0.828,0-1.5,0.672-1.5,1.5C17,3.329,17.672,4.001,18.5,4.001"/>
			<path clip-path="url(#SVGID_2_)" fill="#231F20" d="M5,9.501c0-1.381-1.119-2.5-2.5-2.5S0,8.12,0,9.501
				c0,1.381,1.119,2.5,2.5,2.5S5,10.882,5,9.501"/>
			<path clip-path="url(#SVGID_2_)" fill="#231F20" d="M25.5,7.001c-1.381,0-2.5,1.119-2.5,2.5c0,1.381,1.119,2.5,2.5,2.5
				c1.381,0,2.5-1.119,2.5-2.5C28,8.12,26.881,7.001,25.5,7.001"/>
			<path clip-path="url(#SVGID_2_)" fill="#231F20" d="M6,13.001c-1.657,0-3,1.343-3,3c0,1.657,1.343,3,3,3s3-1.343,3-3
				C9,14.344,7.657,13.001,6,13.001"/>
			<path clip-path="url(#SVGID_2_)" fill="#231F20" d="M22,13.001c-1.657,0-3,1.343-3,3c0,1.657,1.343,3,3,3c1.657,0,3-1.343,3-3
				C25,14.344,23.657,13.001,22,13.001"/>
		</g>
	</g>

</svg>
