<?xml version="1.0" encoding="utf-8"?>
<svg version="1.1" id="Layer_1" xmlns="http://www.w3.org/2000/svg" xmlns:xlink="http://www.w3.org/1999/xlink" x="0px" y="0px" viewBox="0 0 28 28"
	 enable-background="new 0 0 28 28" xml:space="preserve">

		<g>
			<defs>
				<rect id="SVGID_1_" width="28" height="28"/>
			</defs>
			<clipPath id="SVGID_2_">
				<use xlink:href="#SVGID_1_"  overflow="visible"/>
			</clipPath>
			<path clip-path="url(#SVGID_2_)" fill="#231F20" d="M21,15.001c0-0.552-0.448-1-1-1c-0.552,0-1,0.448-1,1c0,0.552,0.448,1,1,1
				C20.552,16.001,21,15.553,21,15.001"/>
			<path clip-path="url(#SVGID_2_)" fill="#231F20" d="M9,15.001c0-0.552-0.448-1-1-1c-0.552,0-1,0.448-1,1c0,0.552,0.448,1,1,1
				C8.552,16.001,9,15.553,9,15.001"/>
			<path clip-path="url(#SVGID_2_)" fill="#231F20" d="M14,5.001c-6.065,0-11,3.086-11,6.88c0,1.467,0.744,2.825,2,3.943v-0.323
				c0-1.933,1.567-3.5,3.5-3.5c0.156,0,0.304,0.026,0.454,0.046L11,10.001v3h2l-1.243,1.242C11.909,14.635,12,15.056,12,15.501
				v3.141c0.65,0.075,1.316,0.119,2,0.119s1.35-0.044,2-0.119v-3.141c0-0.445,0.091-0.866,0.242-1.258L15,13.001h2v-3l2.046,2.046
				c0.15-0.02,0.298-0.046,0.454-0.046c1.933,0,3.5,1.567,3.5,3.5v0.323c1.256-1.118,2-2.476,2-3.943
				C25,8.087,20.065,5.001,14,5.001"/>
			<path clip-path="url(#SVGID_2_)" fill="#231F20" d="M28,11.881c0-2.964-1.859-5.616-4.788-7.427l2.012-1.006
				c0.247-0.124,0.347-0.424,0.223-0.671c-0.124-0.246-0.423-0.348-0.671-0.223L22.5,3.692V2.001c0-0.276-0.224-0.5-0.5-0.5
				c-0.276,0-0.5,0.224-0.5,0.5v1.547c-2.17-0.975-4.738-1.547-7.5-1.547c-0.855,0-1.688,0.063-2.5,0.166V0.501
				c0-0.276-0.224-0.5-0.5-0.5s-0.5,0.224-0.5,0.5v1.824C8.997,2.598,7.59,3.036,6.328,3.622L5.354,2.648
				c-0.196-0.196-0.512-0.196-0.708,0c-0.195,0.195-0.195,0.511,0,0.707L5.392,4.1C4.843,4.403,4.328,4.734,3.849,5.09L2.158,4.526
				C1.894,4.437,1.613,4.581,1.526,4.843C1.438,5.105,1.58,5.388,1.842,5.476l1.096,0.365C1.103,7.512,0,9.603,0,11.881v2.6
				c0,1.882,0.683,3.98,1.86,5.953l-1.214,1.214c-0.195,0.195-0.195,0.511,0,0.707C0.744,22.452,0.872,22.501,1,22.501
				s0.256-0.049,0.354-0.146l1.052-1.052c0.522,0.762,1.123,1.494,1.785,2.179L2.7,24.601c-0.221,0.166-0.266,0.479-0.1,0.7
				c0.098,0.131,0.248,0.2,0.4,0.2c0.105,0,0.21-0.032,0.3-0.1l1.2-0.9v1.5c0,0.276,0.224,0.5,0.5,0.5s0.5-0.224,0.5-0.5v-1.313
				c2.358,1.97,5.299,3.313,8.5,3.313c3.672,0,7.003-1.763,9.5-4.219v1.219c0,0.276,0.224,0.5,0.5,0.5c0.276,0,0.5-0.224,0.5-0.5
				v-1.793l1.146,1.147c0.098,0.097,0.226,0.146,0.354,0.146s0.256-0.049,0.354-0.146c0.195-0.196,0.195-0.512,0-0.707l-1.436-1.436
				c0.433-0.549,0.821-1.118,1.172-1.698l1.097,0.878c0.093,0.073,0.203,0.109,0.312,0.109c0.147,0,0.293-0.064,0.392-0.187
				c0.172-0.216,0.137-0.531-0.079-0.704l-1.227-0.982C27.482,17.898,28,16.109,28,14.481V11.881z M14,19.761
				c-6.627,0-12-3.528-12-7.88s5.373-7.88,12-7.88s12,3.528,12,7.88S20.627,19.761,14,19.761"/>
		</g>

</svg>
