<?xml version="1.0" encoding="utf-8"?>
<svg version="1.1" id="Layer_1" xmlns="http://www.w3.org/2000/svg" xmlns:xlink="http://www.w3.org/1999/xlink" x="0px" y="0px"
	 viewBox="0 0 28 28" enable-background="new 0 0 28 28" xml:space="preserve">
<g>
	<defs>
		<rect id="SVGID_1_" width="28" height="28"/>
	</defs>
	<clipPath id="SVGID_2_">
		<use xlink:href="#SVGID_1_"  overflow="visible"/>
	</clipPath>
	<path clip-path="url(#SVGID_2_)" d="M3.001,0.002V23.12c0,0.285-0.213,0.517-0.5,0.517c-0.286,0-0.5-0.232-0.5-0.517V3.002h-2
		v20.333c0,2.578,2.09,4.667,4.667,4.667h18.667c2.577,0,4.666-2.089,4.666-4.667V0.002H3.001z M5.001,4.002h6v1h-6V4.002z
		 M5.001,7.002h6v1h-6V7.002z M5.001,10.002h6v1h-6V10.002z M26.001,23.002h-21v-1h21V23.002z M26.001,20.002h-21v-1h21V20.002z
		 M26.001,17.002h-21v-1h21V17.002z M26.001,14.002h-21v-1h21V14.002z M26.001,11.002h-13v-7h13V11.002z"/>
</g>
</svg>
