<?xml version="1.0" encoding="utf-8"?>
<svg version="1.1" id="Layer_1" xmlns="http://www.w3.org/2000/svg" xmlns:xlink="http://www.w3.org/1999/xlink" x="0px" y="0px"
	 viewBox="0 0 28 28" enable-background="new 0 0 28 28" xml:space="preserve">
<g>
	<defs>
		<rect id="SVGID_1_" width="28" height="28"/>
	</defs>
	<clipPath id="SVGID_2_">
		<use xlink:href="#SVGID_1_"  overflow="visible"/>
	</clipPath>
	<path clip-path="url(#SVGID_2_)" d="M23.898,4.1C21.166,1.366,17.582,0,14,0c-3.584,0-7.166,1.368-9.898,4.1
		c-5.469,5.468-5.469,14.333,0,19.801C6.834,26.635,10.416,28,14,28c3.582,0,7.166-1.367,9.898-4.099
		C29.367,18.433,29.367,9.568,23.898,4.1 M14,24.893c-2.908,0-5.643-1.139-7.697-3.195c-2.059-2.057-3.192-4.791-3.192-7.699
		c0-2.383,0.772-4.641,2.178-6.512l3.184,3.286l-2.405,3.226h5.526l0.556,0.453l-4.087,7.532l6.695-5.002l5.756,5.742
		C18.641,24.128,16.383,24.893,14,24.893 M22.713,20.511l-5.432-5.432L22,11.999h-7l5-6h-8l-1.613,2.185L7.488,5.286
		C9.359,3.881,11.619,3.111,14,3.111c2.91,0,5.643,1.132,7.701,3.189c2.057,2.057,3.19,4.791,3.19,7.699
		C24.891,16.381,24.119,18.64,22.713,20.511"/>
</g>
</svg>
