<?xml version="1.0" encoding="utf-8"?>
<svg version="1.1" id="Layer_1" xmlns="http://www.w3.org/2000/svg" xmlns:xlink="http://www.w3.org/1999/xlink" x="0px" y="0px"
	 viewBox="0 0 28 28" enable-background="new 0 0 28 28" xml:space="preserve">
<g>
	<defs>
		<rect id="SVGID_1_" width="28" height="28"/>
	</defs>
	<clipPath id="SVGID_2_">
		<use xlink:href="#SVGID_1_"  overflow="visible"/>
	</clipPath>
	<path clip-path="url(#SVGID_2_)" d="M20,16.034h1v-3h-1V16.034z M22,16.034h1v-3h-1V16.034z M21.707,8.812
		c-0.424-0.623-1.119-0.805-1.471-0.848l-0.789-0.141c-0.336-0.043-1.172-0.221-1.693-0.987c-0.246-0.36-0.373-0.793-0.371-1.241
		c-0.973,0.739-1.274,2.016-0.662,2.915c0.425,0.623,1.121,0.806,1.47,0.848l0.789,0.143c0.336,0.041,1.17,0.219,1.694,0.985
		c0.244,0.361,0.373,0.793,0.371,1.241C22.017,10.989,22.32,9.711,21.707,8.812 M14,0C6.267,0,0,6.269,0,14c0,7.733,6.267,14,14,14
		c7.732,0,14-6.267,14-14C28,6.269,21.732,0,14,0 M14,24.86C7.996,24.86,3.111,20.004,3.111,14c0-2.486,0.848-4.793,2.254-6.627
		l5.682,5.661H5v3h9.127l6.48,6.541C18.773,23.981,16.486,24.86,14,24.86 M22.783,20.35l-4.256-4.316H19v-3h-3.553L7.59,5.197
		c1.8-1.318,4.013-2.095,6.41-2.095c6.004,0,10.888,4.894,10.888,10.898C24.888,16.398,24.101,18.549,22.783,20.35"/>
</g>
</svg>
