<?xml version="1.0" encoding="utf-8"?>
<svg version="1.1" id="Layer_1" xmlns="http://www.w3.org/2000/svg" xmlns:xlink="http://www.w3.org/1999/xlink" x="0px" y="0px" viewBox="0 0 28 28"
	 enable-background="new 0 0 28 28" xml:space="preserve">

		<g>
			<defs>
				<rect id="SVGID_1_" width="28" height="28"/>
			</defs>
			<clipPath id="SVGID_2_">
				<use xlink:href="#SVGID_1_"  overflow="visible"/>
			</clipPath>
			<path clip-path="url(#SVGID_2_)" fill="#231F20" d="M22.167,1.001H5.833c-3.221,0-5.833,5.82-5.833,13s2.612,13,5.833,13h16.334
				c3.221,0,5.833-5.82,5.833-13S25.388,1.001,22.167,1.001 M10,15.001c0,0.55-0.45,1-1,1H8c-0.55,0-1-0.45-1-1v-7
				c0-0.55,0.45-1,1-1h1c0.55,0,1,0.45,1,1V15.001z M17,23.001h-6v-1c0-1.657,1.343-3,3-3s3,1.343,3,3V23.001z M21,15.001
				c0,0.55-0.45,1-1,1h-1c-0.55,0-1-0.45-1-1v-7c0-0.55,0.45-1,1-1h1c0.55,0,1,0.45,1,1V15.001z"/>
		</g>

</svg>
