<?xml version="1.0" encoding="utf-8"?>
<svg version="1.1" id="Layer_1" xmlns="http://www.w3.org/2000/svg" xmlns:xlink="http://www.w3.org/1999/xlink" x="0px" y="0px"
	 viewBox="0 0 28 28" enable-background="new 0 0 28 28" xml:space="preserve">
<g>
	<defs>
		<rect id="SVGID_1_" width="28" height="28"/>
	</defs>
	<clipPath id="SVGID_2_">
		<use xlink:href="#SVGID_1_"  overflow="visible"/>
	</clipPath>
	<path clip-path="url(#SVGID_2_)" d="M23,7h5V0h-5V7z M0,28h22V8H0V28z M3,11h16v1H3V11z M3,15h16v10H3V15z M0,7h22V0H0V7z
		 M17.502,2C18.328,2,19,2.673,19,3.5C19,4.329,18.328,5,17.502,5C16.674,5,16,4.329,16,3.5C16,2.673,16.674,2,17.502,2 M13.502,2
		C14.33,2,15,2.673,15,3.5C15,4.329,14.33,5,13.502,5C12.672,5,12,4.329,12,3.5C12,2.673,12.672,2,13.502,2 M8.502,2
		C9.328,2,10,2.673,10,3.5C10,4.329,9.328,5,8.502,5C7.674,5,7,4.329,7,3.5C7,2.673,7.674,2,8.502,2 M4.502,2C5.33,2,6,2.673,6,3.5
		C6,4.329,5.33,5,4.502,5C3.672,5,3,4.329,3,3.5C3,2.673,3.672,2,4.502,2 M23,28h5V8h-5V28z"/>
</g>
</svg>
