<?xml version="1.0" encoding="utf-8"?>
<svg version="1.1" id="Layer_1" xmlns="http://www.w3.org/2000/svg" xmlns:xlink="http://www.w3.org/1999/xlink" x="0px" y="0px" viewBox="0 0 28 28"
	 enable-background="new 0 0 28 28" xml:space="preserve">

		<g>
			<defs>
				<rect id="SVGID_1_" width="28" height="28"/>
			</defs>
			<clipPath id="SVGID_2_">
				<use xlink:href="#SVGID_1_"  overflow="visible"/>
			</clipPath>
			<path clip-path="url(#SVGID_2_)" fill="#231F20" d="M5,24c-0.55,0-1,0.45-1,1v2c0,0.55,0.45,1,1,1s1-0.45,1-1v-2
				C6,24.45,5.55,24,5,24"/>
			<path clip-path="url(#SVGID_2_)" fill="#231F20" d="M8,24c-0.55,0-1,0.45-1,1v2c0,0.55,0.45,1,1,1c0.55,0,1-0.45,1-1v-2
				C9,24.45,8.55,24,8,24"/>
			<path clip-path="url(#SVGID_2_)" fill="#231F20" d="M11,24c-0.55,0-1,0.45-1,1v2c0,0.55,0.45,1,1,1c0.55,0,1-0.45,1-1v-2
				C12,24.45,11.55,24,11,24"/>
			<path clip-path="url(#SVGID_2_)" fill="#231F20" d="M16,24c-0.55,0-1,0.45-1,1v2c0,0.55,0.45,1,1,1c0.55,0,1-0.45,1-1v-2
				C17,24.45,16.55,24,16,24"/>
			<path clip-path="url(#SVGID_2_)" fill="#231F20" d="M19,24c-0.55,0-1,0.45-1,1v2c0,0.55,0.45,1,1,1c0.55,0,1-0.45,1-1v-2
				C20,24.45,19.55,24,19,24"/>
			<path clip-path="url(#SVGID_2_)" fill="#231F20" d="M22,24c-0.55,0-1,0.45-1,1v2c0,0.55,0.45,1,1,1c0.55,0,1-0.45,1-1v-2
				C23,24.45,22.55,24,22,24"/>
			<path clip-path="url(#SVGID_2_)" fill="#231F20" d="M17.5,7c-1.105,0-2,0.895-2,2c0,1.105,0.895,2,2,2c1.105,0,2-0.895,2-2
				C19.5,7.895,18.605,7,17.5,7"/>
			<path clip-path="url(#SVGID_2_)" fill="#231F20" d="M24,10h-0.025c-0.141-2.94-1.498-5.568-3.585-7.393
				c0.007-0.007,0.017-0.014,0.024-0.021l1.172-1.172c0.778-0.778,0.533-1.229-0.543-1.002l-3.015,0.635
				C16.654,0.383,15.121,0,13.5,0s-3.154,0.383-4.528,1.047L5.957,0.412C4.881,0.185,4.636,0.636,5.414,1.414l1.172,1.172
				C6.593,2.593,6.602,2.6,6.61,2.607C4.523,4.432,3.166,7.06,3.025,10H3l-3,9h3.352C4.181,21.323,6.401,23,9,23h9
				c2.598,0,4.819-1.677,5.648-4H28L24,10z M6,9c0-1.934,1.566-3.5,3.5-3.5S13,7.066,13,9s-1.566,3.5-3.5,3.5S6,10.934,6,9 M13.5,19
				c0,0-3-2.4-3-4.2c0-0.994,1.343-1.8,3-1.8s3,0.806,3,1.8C16.5,16.6,13.5,19,13.5,19 M17.5,12.5c-1.934,0-3.5-1.566-3.5-3.5
				s1.566-3.5,3.5-3.5S21,7.066,21,9S19.434,12.5,17.5,12.5"/>
			<path clip-path="url(#SVGID_2_)" fill="#231F20" d="M9.5,7c-1.105,0-2,0.895-2,2c0,1.105,0.895,2,2,2s2-0.895,2-2
				C11.5,7.895,10.605,7,9.5,7"/>
		</g>

</svg>
