<?xml version="1.0" encoding="utf-8"?>
<svg version="1.1" id="Layer_1" xmlns="http://www.w3.org/2000/svg" xmlns:xlink="http://www.w3.org/1999/xlink" x="0px" y="0px"
	 viewBox="0 0 28 28" enable-background="new 0 0 28 28" xml:space="preserve">
<g>
	<defs>
		<rect id="SVGID_1_" width="28" height="28"/>
	</defs>
	<clipPath id="SVGID_2_">
		<use xlink:href="#SVGID_1_"  overflow="visible"/>
	</clipPath>
	<path clip-path="url(#SVGID_2_)" d="M16.745,13.218l-0.297,0.3l-4.299,8.326l-5.287,5.342C6.335,27.719,5.678,28,5.095,28
		c-0.392,0-0.753-0.129-1.015-0.394l-1.776-1.795L0.529,24.02c-0.654-0.662-0.468-1.918,0.416-2.811l5.287-5.34l8.243-4.342
		l7.636-7.709l0.41-1.414c-0.544-0.55-0.544-1.441,0-1.992C22.794,0.137,23.151,0,23.507,0c0.359,0,0.714,0.139,0.988,0.412
		L27.452,3.4c0.546,0.551,0.547,1.444,0,1.995c-0.272,0.273-0.628,0.41-0.985,0.41c-0.356,0-0.715-0.137-0.987-0.412l-1.398,0.416
		L16.745,13.218z M3.818,5.889l-1.414-0.41C2.128,5.75,1.768,5.887,1.408,5.887c-0.361,0-0.721-0.137-0.996-0.408
		C0.136,5.205,0,4.849,0,4.492c0-0.358,0.138-0.714,0.412-0.987L3.4,0.548c0.275-0.274,0.637-0.41,0.997-0.41
		c0.361,0,0.722,0.136,0.997,0.41c0.274,0.271,0.41,0.628,0.41,0.984c0,0.357-0.136,0.715-0.412,0.988l0.416,1.398l7.28,7.209
		l-2.599,1.369L3.818,5.889z M27.605,23.92l-1.795,1.775l-1.791,1.776c-0.267,0.263-0.63,0.39-1.027,0.39
		c-0.588,0-1.25-0.279-1.783-0.806l-5.34-5.287l-1.29-2.45l2.687-5.206l0.41-0.414l4.167,2.153l5.342,5.287
		C27.718,21.664,28,22.321,28,22.904C28,23.297,27.871,23.657,27.605,23.92"/>
</g>
</svg>
