<?xml version="1.0" encoding="utf-8"?>
<svg version="1.1" id="Layer_1" xmlns="http://www.w3.org/2000/svg" xmlns:xlink="http://www.w3.org/1999/xlink" x="0px" y="0px"
	 viewBox="0 0 28 28" enable-background="new 0 0 28 28" xml:space="preserve">
<g>
	<defs>
		<rect id="SVGID_1_" width="28" height="28"/>
	</defs>
	<clipPath id="SVGID_2_">
		<use xlink:href="#SVGID_1_"  overflow="visible"/>
	</clipPath>
	<path clip-path="url(#SVGID_2_)" d="M17.137,10.218l2.698,2.897l5.594-5.594l-4.95-4.95l-4.352,4.353
		c0.329,0.855,0.508,1.782,0.529,2.778L17.137,10.218z M27.556,5.387c0.915-0.915,0.311-2.529-1.054-3.894
		c-1.368-1.367-2.981-1.97-3.897-1.057l-1.408,1.41l4.949,4.95L27.556,5.387z M0.544,3.402C3.51,4.128,4.236,8.079,4.236,8.079
		c0.633,4.883,5.598,5.82,7.373,5.817l3.543-3.544C15.637,1.013,0.721,2.033,0.721,2.033S-0.014,2.163,0,2.707
		C0.015,3.251,0.544,3.402,0.544,3.402 M16.039,11.24l-3.543,3.541l12.848,11.965L28,24.089L16.039,11.24z M10.922,15.365
		c-0.794-0.062-1.725-0.241-2.668-0.569l-5.779,5.779l4.95,4.95l6.946-6.947l-2.898-2.699L10.922,15.365z M0,28l6.718-1.768
		l-4.95-4.95L0,28z"/>
</g>
</svg>
