<?xml version="1.0" encoding="utf-8"?>
<svg version="1.1" id="Layer_1" xmlns="http://www.w3.org/2000/svg" xmlns:xlink="http://www.w3.org/1999/xlink" x="0px" y="0px" viewBox="0 0 28 28"
	 enable-background="new 0 0 28 28" xml:space="preserve">

		<g>
			<defs>
				<rect id="SVGID_1_" width="28" height="28"/>
			</defs>
			<clipPath id="SVGID_2_">
				<use xlink:href="#SVGID_1_"  overflow="visible"/>
			</clipPath>
			<path clip-path="url(#SVGID_2_)" fill="#231F20" d="M13.734,0.238c-0.993-0.995-4.819,1.22-8.546,4.948
				c-3.73,3.727-5.946,7.555-4.949,8.547c0.994,0.997,4.821-1.219,8.547-4.947C12.515,5.059,14.731,1.233,13.734,0.238"/>
			<path clip-path="url(#SVGID_2_)" fill="#231F20" d="M27.762,14.265l-5.403-5.402c-0.515,0.585-1.075,1.192-1.726,1.847
				l-1.356,1.355c-0.195,0.195-0.511,0.195-0.707,0c-0.195-0.195-0.195-0.511-0.001-0.706l1.357-1.356
				c0.32-0.322,0.976-0.999,1.717-1.853c0.002-0.001,0.002-0.001,0.002-0.002c2.009-2.318,4.654-5.973,2.997-7.63
				C24.403,0.279,23.97-0.005,23.26,0c-1.636,0.016-4.096,1.661-6.246,3.518l-2.086-2.087c-0.369,2.298-3.084,5.712-5.436,8.062
				c-2.349,2.352-5.762,5.067-8.061,5.434l12.835,12.834c0.994,0.997,4.821-1.218,8.548-4.948
				C26.543,19.087,28.758,15.259,27.762,14.265 M23.247,1.113c0.262-0.002,0.466,0.062,0.601,0.199
				c0.723,0.724-0.572,3.243-2.985,6.055L17.81,4.313C20.081,2.347,22.145,1.122,23.247,1.113"/>
		</g>

</svg>
