<?xml version="1.0" encoding="utf-8"?>
<svg version="1.1" id="Layer_1" xmlns="http://www.w3.org/2000/svg" xmlns:xlink="http://www.w3.org/1999/xlink" x="0px" y="0px"
	 viewBox="0 0 28 28" enable-background="new 0 0 28 28" xml:space="preserve">
<g>
	<defs>
		<rect id="SVGID_1_" width="28" height="28"/>
	</defs>
	<clipPath id="SVGID_2_">
		<use xlink:href="#SVGID_1_"  overflow="visible"/>
	</clipPath>
	<path clip-path="url(#SVGID_2_)" d="M22.728,6.85c-0.81-0.365-1.625-0.593-2.414-0.707l1.402-1.641l-0.371-1.679l1.469,0.4
		l1.607-1.882c-2.011-2.351-5.976-1.53-8.853,1.833C14.935,3.911,14.416,4.712,14,5.535c-0.416-0.823-0.936-1.624-1.567-2.361
		C9.554-0.189,5.591-1.01,3.58,1.341l1.625,1.9l1.3-0.392L6.197,4.404l1.488,1.739C6.896,6.257,6.082,6.485,5.273,6.85
		c-3.797,1.708-6.049,5.611-5.027,8.712l2.146-0.963l0.219-1.553l1.092,0.962l2.675-1.203l0.245-1.711l1.203,1.059l0.931-0.419
		C8.433,12.699,7,21,10.173,28H18c-8-8-5.336-17.726-5.336-17.726c0.521-1.188,1.707-2.02,3.086-2.02
		c1.859,0,3.371,1.513,3.371,3.37c0,0.019-0.004,0.035-0.004,0.054l1.056,0.475l1.204-1.059l0.246,1.711l2.673,1.203l1.094-0.962
		l0.219,1.553l2.144,0.963C28.775,12.461,26.525,8.558,22.728,6.85 M13.982,11.293c0,1.106,0.898,2.002,2.002,2.002
		c1.107,0,2.004-0.896,2.004-2.002c0-1.105-0.897-2.001-2.004-2.001C14.88,9.292,13.982,10.188,13.982,11.293"/>
</g>
</svg>
