<?xml version="1.0" encoding="utf-8"?>
<svg version="1.1" id="Layer_1" xmlns="http://www.w3.org/2000/svg" xmlns:xlink="http://www.w3.org/1999/xlink" x="0px" y="0px" viewBox="0 0 28 28"
	 enable-background="new 0 0 28 28" xml:space="preserve">

		<g>
			<defs>
				<rect id="SVGID_1_" width="28" height="28"/>
			</defs>
			<clipPath id="SVGID_2_">
				<use xlink:href="#SVGID_1_"  overflow="visible"/>
			</clipPath>
			<path clip-path="url(#SVGID_2_)" fill="#231F20" d="M17.5,0C11.701,0,7,4.701,7,10.5c0,1.993,0.565,3.849,1.529,5.436
				l-7.797,7.796c-0.976,0.977-0.976,2.559,0,3.536C1.221,27.756,1.86,28,2.5,28s1.279-0.244,1.768-0.732l7.796-7.797
				C13.651,20.435,15.507,21,17.5,21C23.299,21,28,16.299,28,10.5S23.299,0,17.5,0 M2.5,26.5c-0.552,0-1-0.448-1-1s0.448-1,1-1
				s1,0.448,1,1S3.052,26.5,2.5,26.5 M19.5,3.1c-5.183,0-9.4,4.217-9.4,9.4c0,0.9,0.135,1.769,0.372,2.594
				C9.607,13.773,9.1,12.197,9.1,10.5c0-4.639,3.761-8.4,8.4-8.4c1.697,0,3.273,0.507,4.594,1.372C21.269,3.235,20.401,3.1,19.5,3.1
				"/>
		</g>

</svg>
