<?xml version="1.0" encoding="utf-8"?>
<svg version="1.1" id="Layer_1" xmlns="http://www.w3.org/2000/svg" xmlns:xlink="http://www.w3.org/1999/xlink" x="0px" y="0px"
	 viewBox="0 0 28 28" enable-background="new 0 0 28 28" xml:space="preserve">
<g>
	<defs>
		<rect id="SVGID_1_" width="28" height="28"/>
	</defs>
	<clipPath id="SVGID_2_">
		<use xlink:href="#SVGID_1_"  overflow="visible"/>
	</clipPath>
	<path clip-path="url(#SVGID_2_)" d="M5.572,9.691c0,0-1.013,8.069-1.013,8.738c0,1.468,1.433,2.251,2.146,2.251
		c0.723,0,1.875-0.783,1.875-2.251c0-2.831-3.051-10.114,0.082-10.114c0.076,0,0.158,0.005,0.24,0.012
		c0.768,0.141,1.582,0.249,2.434,0.324c0.5,0.043,1.439,0.29,0.771,2.625c-0.447,1.564-0.777,2.565-0.779,3.168
		c0,1.183,0.842,2.142,1.881,2.142c1.037,0,1.879-0.959,1.879-2.142c0-0.629-0.529-2.481-1.028-4.08
		c-0.097-0.645-0.021-1.55,1.143-1.618c5.879-0.227,10.465-1.055,10.465-3.324C25.668,3.001,20.443,0,14.002,0
		C7.559,0,2.439,3.004,2.336,5.422C2.24,7.667,5.703,6.815,5.572,9.691 M9.703,4.072l1.039-2.287C10.916,1.434,11.277,1,11.67,1
		h4.664c0.391,0,0.75,0.434,0.926,0.785l1.039,2.18c0.16,0.32,0.142,0.97-0.047,1.276C18.064,5.547,17.73,6,17.371,6h-6.74
		c-0.36,0-0.694-0.4-0.883-0.706C9.56,4.988,9.543,4.392,9.703,4.072 M16.334,2H11.67l-1.039,3h6.74L16.334,2z M8.762,9.356
		c-0.035-0.003-0.069-0.005-0.1-0.005c-0.109,0-0.176,0.016-0.201,0.048c-0.463,0.579,0.055,3.113,0.424,4.772
		c0.457,0.071,0.927,0.134,1.41,0.187c0.019-0.625,0.244-1.406,0.584-2.565c0.072-0.249,0.15-0.516,0.23-0.802
		c0.235-0.81,0.203-1.175,0.176-1.303c-0.012-0.001-0.025-0.003-0.041-0.004C10.381,9.609,9.545,9.498,8.762,9.356 M15.086,9.811
		c-0.012,0.04-0.031,0.139-0.01,0.328c1.049,3.38,1.049,4.05,1.049,4.305c0,0.017-0.002,0.034-0.002,0.05
		C22.848,14.085,28,11.763,28,8.958c0-0.907-0.541-1.762-1.498-2.52c-1.096,2.595-6.488,3.161-11.238,3.343
		C15.168,9.786,15.111,9.801,15.086,9.811 M14,20.283c-1.584,0-3.19-0.113-4.734-0.331c-0.532,1.085-1.584,1.765-2.561,1.765
		c-1.316,0-3.143-1.227-3.18-3.226c-1.259-0.512-2.341-1.129-3.152-1.852C0.133,17.05,0,17.478,0,17.919c0,3.093,6.269,5.6,14,5.6
		c7.73,0,14-2.507,14-5.6c0-0.441-0.131-0.869-0.371-1.28C24.951,19.024,19.353,20.283,14,20.283 M14,24.763
		c-5.354,0-10.949-1.261-13.627-3.645C0.133,21.53,0,21.959,0,22.4C0,25.492,6.269,28,14,28c7.73,0,14-2.508,14-5.6
		c0-0.441-0.131-0.869-0.371-1.282C24.949,23.502,19.353,24.763,14,24.763 M15.863,15.75c-0.457,1.103-1.474,1.873-2.654,1.873
		c-1.227,0-2.279-0.831-2.709-2.002c-0.445-0.047-0.889-0.098-1.328-0.162c0.246,1.128,0.447,2.17,0.447,2.97
		c0,0.112-0.006,0.22-0.016,0.327c1.381,0.182,2.86,0.283,4.397,0.283c7.73,0,14-2.507,14-5.6c0-0.442-0.131-0.869-0.371-1.28
		C25.26,14.266,20.611,15.494,15.863,15.75 M3.629,17.2c0.084-0.802,0.213-1.892,0.346-3.017c-1.452-0.543-2.696-1.218-3.602-2.024
		C0.133,12.57,0,12.997,0,13.439C0,14.887,1.375,16.206,3.629,17.2 M4.127,12.928c0.164-1.354,0.322-2.615,0.41-3.322
		c0.025-0.783-0.293-0.987-1.193-1.439C2.709,7.846,1.828,7.402,1.465,6.465C0.529,7.217,0,8.063,0,8.958
		C0,10.509,1.58,11.913,4.127,12.928"/>
</g>
</svg>
