<?xml version="1.0" encoding="utf-8"?>
<svg version="1.1" id="Layer_1" xmlns="http://www.w3.org/2000/svg" xmlns:xlink="http://www.w3.org/1999/xlink" x="0px" y="0px" viewBox="0 0 28 28"
	 enable-background="new 0 0 28 28" xml:space="preserve">

		<g>
			<defs>
				<rect id="SVGID_1_" width="28" height="28"/>
			</defs>
			<clipPath id="SVGID_2_">
				<use xlink:href="#SVGID_1_"  overflow="visible"/>
			</clipPath>
			<path clip-path="url(#SVGID_2_)" fill="#231F20" d="M8.2,28c-1.842,0-3.685-0.697-5.088-2.089C1.75,24.56,1,22.762,1,20.849
				c0-1.913,0.751-3.712,2.113-5.065L17.676,1.347c2.216-1.89,5.569-1.79,7.668,0.292C26.412,2.699,27,4.109,27,5.611
				c0.001,1.502-0.587,2.914-1.655,3.976L14.749,20.108c-1.595,1.586-4.193,1.584-5.792-0.002c-0.776-0.769-1.203-1.794-1.203-2.885
				c0-1.092,0.427-2.117,1.203-2.888c0,0,2.054-2.039,5.845-5.8l1.408,1.42l-5.844,5.801c-0.395,0.391-0.612,0.912-0.612,1.466
				c0,0.553,0.217,1.075,0.612,1.466c0.81,0.803,2.119,0.815,2.94,0.036L23.935,8.168C24.622,7.484,25,6.577,25,5.612
				c0-0.966-0.378-1.872-1.065-2.553c-1.422-1.413-3.738-1.413-5.163-0.004l-0.003,0.003v0.001L4.522,17.204
				C3.541,18.179,3,19.473,3,20.849c0,1.376,0.54,2.669,1.521,3.641c2.03,2.015,5.33,2.016,7.358,0l9.498-9.431l1.409,1.42
				l-9.498,9.432C11.886,27.303,10.043,28,8.2,28"/>
		</g>

</svg>
