<?xml version="1.0" encoding="utf-8"?>
<svg version="1.1" id="Layer_1" xmlns="http://www.w3.org/2000/svg" xmlns:xlink="http://www.w3.org/1999/xlink" x="0px" y="0px" viewBox="0 0 28 28"
	 enable-background="new 0 0 28 28" xml:space="preserve">

		<g>
			<defs>
				<rect id="SVGID_1_" width="28" height="28"/>
			</defs>
			<clipPath id="SVGID_2_">
				<use xlink:href="#SVGID_1_"  overflow="visible"/>
			</clipPath>
			<path clip-path="url(#SVGID_2_)" fill="#231F20" d="M26.549,3.227l-6.628-1.894C19.97,1.546,20,1.766,20,1.993v24.015
				c0,0.705-0.256,1.347-0.668,1.86l0.197,0.055c1.059,0.303,2.17-0.312,2.471-1.366l5.924-20.864
				C28.225,4.639,27.606,3.53,26.549,3.227"/>
			<path clip-path="url(#SVGID_2_)" fill="#231F20" d="M9,18.9V14H6.629C6.761,16.586,7.856,18.465,9,18.9"/>
			<path clip-path="url(#SVGID_2_)" fill="#231F20" d="M6.629,13H9V8.1C7.856,8.534,6.76,10.413,6.629,13"/>
			<path clip-path="url(#SVGID_2_)" fill="#231F20" d="M10,8.1V13h2.371C12.239,10.414,11.144,8.535,10,8.1"/>
			<path clip-path="url(#SVGID_2_)" fill="#231F20" d="M4.025,14c0.171,1.884,1.293,3.496,2.884,4.35
				C6.177,17.263,5.694,15.727,5.615,14H4.025z"/>
			<path clip-path="url(#SVGID_2_)" fill="#231F20" d="M6.909,8.65C5.319,9.504,4.196,11.116,4.025,13h1.59
				C5.694,11.272,6.178,9.737,6.909,8.65"/>
			<path clip-path="url(#SVGID_2_)" fill="#231F20" d="M10,14v4.906c0.023-0.008,0.046-0.015,0.07-0.025l0.037-0.018
				c1.069-0.478,2.14-2.287,2.268-4.863H10z"/>
			<path clip-path="url(#SVGID_2_)" fill="#231F20" d="M17,0h-7H0v28h17c1.099,0,2-0.897,2-1.993V1.992C19,0.896,18.099,0,17,0
				 M11.189,19.777c-0.021,0.006-0.044,0.013-0.064,0.019c-0.135,0.034-0.272,0.062-0.407,0.088C10.323,19.959,9.916,20,9.5,20
				C5.911,20,3,17.089,3,13.5S5.909,7,9.5,7c3.589,0,6.5,2.911,6.5,6.5C16,16.506,13.96,19.033,11.189,19.777"/>
			<path clip-path="url(#SVGID_2_)" fill="#231F20" d="M12.104,18.326c1.6-0.864,2.685-2.48,2.854-4.326h-1.584
				C13.294,15.715,12.828,17.242,12.104,18.326"/>
			<path clip-path="url(#SVGID_2_)" fill="#231F20" d="M12.09,8.65c0.732,1.087,1.216,2.622,1.295,4.35h1.59
				C14.804,11.115,13.681,9.504,12.09,8.65"/>
		</g>

</svg>
