<?xml version="1.0" encoding="utf-8"?>
<svg version="1.1" id="Layer_1" xmlns="http://www.w3.org/2000/svg" xmlns:xlink="http://www.w3.org/1999/xlink" x="0px" y="0px"
	 viewBox="0 0 28 28" enable-background="new 0 0 28 28" xml:space="preserve">
<g>
	<defs>
		<rect id="SVGID_1_" width="28" height="28"/>
	</defs>
	<clipPath id="SVGID_2_">
		<use xlink:href="#SVGID_1_"  overflow="visible"/>
	</clipPath>
	<path clip-path="url(#SVGID_2_)" d="M0,21h7V5.016H0V21z M3.5,28L7,22H0L3.5,28z M3.502,0C1.568,0,0,0.714,0,2.008V4h7V2.008
		C7,0.714,5.434,0,3.502,0 M11.551,0.16c0,0-0.487-0.342-0.785-0.027c-0.299,0.314-0.088,0.7-0.088,0.7
		c1.265,2.081-0.557,4.724-0.557,4.724C7.727,8.668,9.997,12,11.001,13h4C20.545,8,11.551,0.16,11.551,0.16 M24.5,0
		C22.567,0,21,1.567,21,3.5V4h-2v11h1V5h1v10h7V3.5C28,1.567,26.434,0,24.5,0 M11.5,28h3l0.501-14h-4L11.5,28z M21,22l3.5,6l3.5-6
		v-6h-7V22z"/>
</g>
</svg>
