<?xml version="1.0" encoding="utf-8"?>
<svg version="1.1" id="Layer_1" xmlns="http://www.w3.org/2000/svg" xmlns:xlink="http://www.w3.org/1999/xlink" x="0px" y="0px" viewBox="0 0 28 28"
	 enable-background="new 0 0 28 28" xml:space="preserve">

		<g>
			<defs>
				<rect id="SVGID_1_" width="28" height="28"/>
			</defs>
			<clipPath id="SVGID_2_">
				<use xlink:href="#SVGID_1_"  overflow="visible"/>
			</clipPath>
			<path clip-path="url(#SVGID_2_)" fill="#231F20" d="M6.894,17.698c0.123,0,0.218-0.039,0.254-0.074l0.922-0.91
				c0.347-0.34,0.778-0.526,1.213-0.526c0.359,0,0.688,0.122,0.962,0.337C10.783,15.059,12.184,14,13.83,14h0.34
				c1.646,0,3.047,1.059,3.585,2.525c0.274-0.215,0.603-0.337,0.962-0.337c0.435,0,0.866,0.186,1.214,0.528l0.92,0.907
				c0.037,0.036,0.132,0.075,0.254,0.075c0.096,0,0.188-0.024,0.25-0.065l1.239-0.838C21.083,12.915,20,8.558,20,6c0-3.3-2.7-6-6-6
				c-3.299,0-5.999,2.7-6,6c0,2.558-1.083,6.915-2.594,10.796l1.238,0.836C6.707,17.674,6.799,17.698,6.894,17.698 M14,13
				c-1.513,0-3.094-1.055-3.715-2h7.43C17.094,11.945,15.513,13,14,13 M16,4c0.553,0,1,0.447,1,1c0,0.553-0.447,1-1,1
				c-0.553,0-1-0.447-1-1C15,4.447,15.447,4,16,4 M12,4c0.553,0,1,0.447,1,1c0,0.553-0.447,1-1,1c-0.553,0-1-0.447-1-1
				C11,4.447,11.447,4,12,4 M14,7c1.933,0,4,3,4,3h-8C10,10,12.067,7,14,7"/>
			<path clip-path="url(#SVGID_2_)" fill="#231F20" d="M14.17,25h-0.34c-0.791,0-1.527-0.243-2.139-0.658
				c-0.181,1.428-0.69,2.762-1.76,3.655C9.954,27.997,9.976,28,10,28h8c0.025,0,0.046-0.003,0.069-0.003
				c-1.07-0.893-1.579-2.227-1.759-3.655C15.697,24.757,14.961,25,14.17,25"/>
			<path clip-path="url(#SVGID_2_)" fill="#231F20" d="M9.937,17.79c-0.205-0.631-0.729-0.792-1.166-0.362L7.85,18.336
				c-0.436,0.429-1.229,0.486-1.766,0.125l-1.562-1.056c-0.535-0.361-1.036-0.132-1.111,0.509l-0.223,1.872
				c-0.077,0.642-0.64,1.205-1.249,1.254L0.65,21.145c-0.611,0.048-0.831,0.551-0.488,1.118c0,0,4.39,7.275,8.4,5.44
				C12.573,25.868,9.937,17.79,9.937,17.79"/>
			<path clip-path="url(#SVGID_2_)" fill="#231F20" d="M27.349,21.145L26.06,21.04c-0.609-0.048-1.172-0.612-1.249-1.253
				l-0.223-1.872c-0.075-0.642-0.576-0.871-1.111-0.509l-1.563,1.055c-0.536,0.362-1.33,0.304-1.765-0.125l-0.921-0.908
				c-0.438-0.429-0.961-0.268-1.166,0.362c0,0-2.636,8.079,1.375,9.914c4.01,1.835,8.4-5.441,8.4-5.441
				C28.18,21.696,27.96,21.194,27.349,21.145"/>
		</g>

</svg>
