<?xml version="1.0" encoding="utf-8"?>
<svg version="1.1" id="Layer_1" xmlns="http://www.w3.org/2000/svg" xmlns:xlink="http://www.w3.org/1999/xlink" x="0px" y="0px" viewBox="0 0 28 28"
	 enable-background="new 0 0 28 28" xml:space="preserve">

		<g>
			<defs>
				<rect id="SVGID_1_" width="28" height="28"/>
			</defs>
			<clipPath id="SVGID_2_">
				<use xlink:href="#SVGID_1_"  overflow="visible"/>
			</clipPath>
			<path clip-path="url(#SVGID_2_)" fill="#231F20" d="M28,8.146l-3.778-1.044l-0.667-2.655l-2.654-0.668l-1.049-3.777L17.03,6.665
				c-2.869-1.122-6.255-0.528-8.573,1.791c-2.318,2.316-2.912,5.702-1.791,8.573L0,19.856l3.78,1.043l0.667,2.655l2.655,0.669
				L8.149,28l2.776-6.554c2.925,1.272,6.452,0.718,8.845-1.674c2.393-2.393,2.946-5.921,1.676-8.846L28,8.146z M19.643,17.074
				l-0.133,0.237l-0.269,0.02c-0.14,0.009-0.28,0.013-0.42,0.013c-1.576,0-3.059-0.598-4.175-1.683
				c-0.301-0.296-0.576-0.643-0.84-1.061l-0.005-0.012c-1.425,1.077-2.159,2.752-1.968,4.481l0.105,0.927l-0.83-0.428
				c-0.548-0.281-1.052-0.645-1.495-1.077c-0.42-0.41-0.778-0.876-1.066-1.387l-0.134-0.24l0.202-0.369
				c0.795-1.347,2.073-2.299,3.603-2.696c0.368-0.098,0.774-0.155,1.278-0.176c-0.15-1.081-0.67-2.098-1.464-2.868
				c-0.383-0.373-0.83-0.686-1.328-0.928L9.892,9.435l0.762-0.479c0.948-0.598,2.059-0.94,3.212-0.985l0.292-0.013l0.153,0.247
				c0.832,1.343,1.073,2.973,0.662,4.468c-0.105,0.383-0.267,0.767-0.51,1.215c1.748,0.714,3.726,0.446,5.135-0.599l0.721-0.536
				l0.074,0.895C20.489,14.838,20.231,16.023,19.643,17.074"/>
		</g>

</svg>
