<?xml version="1.0" encoding="utf-8"?>
<svg version="1.1" id="Layer_1" xmlns="http://www.w3.org/2000/svg" xmlns:xlink="http://www.w3.org/1999/xlink" x="0px" y="0px"
	 viewBox="0 0 28 28" enable-background="new 0 0 28 28" xml:space="preserve">
<g>
	<defs>
		<rect id="SVGID_1_" width="28" height="28"/>
	</defs>
	<clipPath id="SVGID_2_">
		<use xlink:href="#SVGID_1_"  overflow="visible"/>
	</clipPath>
	<path clip-path="url(#SVGID_2_)" d="M10.003,23.136l-4.429,4.43c-0.612,0.611-1.63,0.584-2.275-0.06l-0.758-0.762l6.642-6.643
		l0.76,0.761C10.587,21.507,10.615,22.524,10.003,23.136 M11.107,11.106c-2.572,2.572-3.64,4.959-4.505,6.414l1.874,1.874
		l-6.641,6.641l-0.048-0.048l0.002-0.002c-0.494-0.515-0.969-1.211-1.306-2.071c-0.195-0.506-0.347-1.062-0.421-1.676
		C-0.409,18.3,1.42,12.876,7.144,7.151C7.146,7.15,7.147,7.148,7.147,7.148C7.149,7.146,7.15,7.146,7.151,7.144
		C12.876,1.42,18.3-0.41,22.239,0.063c0.614,0.071,1.169,0.226,1.676,0.419c0.86,0.337,1.556,0.812,2.071,1.306l0.002-0.002
		l0.048,0.048l-6.641,6.641l-1.873-1.874C16.067,7.465,13.679,8.534,11.107,11.106 M27.567,5.573l-4.43,4.431
		c-0.612,0.61-1.63,0.582-2.274-0.062l-0.761-0.76l6.643-6.642l0.761,0.758C28.151,3.943,28.178,4.962,27.567,5.573"/>
</g>
</svg>
