<?xml version="1.0" encoding="utf-8"?>
<svg version="1.1" id="Layer_1" xmlns="http://www.w3.org/2000/svg" xmlns:xlink="http://www.w3.org/1999/xlink" x="0px" y="0px"
	 viewBox="0 0 28 28" enable-background="new 0 0 28 28" xml:space="preserve">
<g>
	<defs>
		<rect id="SVGID_1_" width="28" height="28"/>
	</defs>
	<clipPath id="SVGID_2_">
		<use xlink:href="#SVGID_1_"  overflow="visible"/>
	</clipPath>
	<path clip-path="url(#SVGID_2_)" d="M21,10V7c-1-1-3-1.231-4-1.337V8h-6V5.663C10,5.769,8,6,7,7v3H6c-1.995,3-5.359,10-6,13h0.005
		H28c-0.641-3-4.006-10-6-13H21z M9,20c-1.105,0-2-0.448-2-1s0.895-1,2-1c1.104,0,2,0.448,2,1S10.104,20,9,20 M9,17
		c-1.105,0-2-0.448-2-1s0.895-1,2-1c1.104,0,2,0.448,2,1S10.104,17,9,17 M9,14c-1.105,0-2-0.448-2-1s0.895-1,2-1
		c1.104,0,2,0.448,2,1S10.104,14,9,14 M14,20c-1.105,0-2-0.448-2-1s0.895-1,2-1c1.104,0,2,0.448,2,1S15.104,20,14,20 M14,17
		c-1.105,0-2-0.448-2-1s0.895-1,2-1c1.104,0,2,0.448,2,1S15.104,17,14,17 M14,14c-1.105,0-2-0.448-2-1s0.895-1,2-1
		c1.104,0,2,0.448,2,1S15.104,14,14,14 M19,20c-1.105,0-2-0.448-2-1s0.895-1,2-1c1.104,0,2,0.448,2,1S20.104,20,19,20 M19,17
		c-1.105,0-2-0.448-2-1s0.895-1,2-1c1.104,0,2,0.448,2,1S20.104,17,19,17 M19,14c-1.105,0-2-0.448-2-1s0.895-1,2-1
		c1.104,0,2,0.448,2,1S20.104,14,19,14"/>
	<polygon clip-path="url(#SVGID_2_)" points="0,28 27.968,28 27.993,24 0,24 	"/>
	<path clip-path="url(#SVGID_2_)" d="M14.464,0c-0.151,0-0.307,0.001-0.459,0.003C13.853,0.002,13.69,0,13.54,0
		C2.409,0,0,4.785,0,6.09V9h6V7c0.002-1.066,2.821-2.178,5.217-2.427c0.841-0.085,1.789-0.135,2.784-0.137
		c0.994,0.002,1.943,0.052,2.782,0.137C19.18,4.822,21.872,5.618,22,7v2h6V6.09C28,4.787,25.591,0,14.464,0"/>
</g>
</svg>
