<?xml version="1.0" encoding="utf-8"?>
<svg version="1.1" id="Layer_1" xmlns="http://www.w3.org/2000/svg" xmlns:xlink="http://www.w3.org/1999/xlink" x="0px" y="0px"
	 viewBox="0 0 28 28" enable-background="new 0 0 28 28" xml:space="preserve">
<g>
	<defs>
		<rect id="SVGID_1_" width="28" height="28"/>
	</defs>
	<clipPath id="SVGID_2_">
		<use xlink:href="#SVGID_1_"  overflow="visible"/>
	</clipPath>
	<path clip-path="url(#SVGID_2_)" d="M3.004,0L0,28h23.027l3.004-28H3.004z M21.025,24H3.971L6.008,4h16.019L21.025,24z M12.015,17
		c3.51,0,6.321,2.535,7.008,5l2.006-17H7.008l-1,17C7.053,19.605,8.658,17,12.015,17 M13.34,7.79c2.088,0,3.64,1.668,3.478,3.672
		c-0.156,1.953-1.887,3.496-3.871,3.496c-1.98,0-3.545-1.543-3.486-3.496C9.519,9.458,11.26,7.79,13.34,7.79 M27.033,8l-2.004,20H28
		L27.033,8z"/>
</g>
</svg>
