<?xml version="1.0" encoding="utf-8"?>
<svg version="1.1" id="Layer_1" xmlns="http://www.w3.org/2000/svg" xmlns:xlink="http://www.w3.org/1999/xlink" x="0px" y="0px" viewBox="0 0 28 28"
	 enable-background="new 0 0 28 28" xml:space="preserve">

	<g>
		<polygon fill="#231F20" points="8.5,3 8,3 8,2 5,2 5,3 4.5,3 4.5,4 8.5,4 		"/>
		<g>
			<defs>
				<rect id="SVGID_1_" width="28" height="28"/>
			</defs>
			<clipPath id="SVGID_2_">
				<use xlink:href="#SVGID_1_"  overflow="visible"/>
			</clipPath>
			<path clip-path="url(#SVGID_2_)" fill="#231F20" d="M24.853,14l1.552-2.687c1.919-3.322,1.959-6.925,0.089-8.003
				c-1.683-0.973-4.363,0.423-6.281,3.139l2.414,2.413c0.194,0.193,0.194,0.512-0.001,0.707l-0.001-0.001
				c-0.193,0.195-0.511,0.195-0.707,0.001l-2.261-2.261c-0.016,0.028-0.034,0.053-0.05,0.082l-1.084,1.877l2.453,2.453
				c0.194,0.195,0.194,0.513,0,0.707c-0.194,0.195-0.513,0.195-0.706-0.001l-2.264-2.264L17,11.904V17h10h1v-3H24.853z"/>
			<path clip-path="url(#SVGID_2_)" fill="#231F20" d="M17,20c0,1.654-1.346,3-3,3s-3-1.346-3-3v-2H1v2c0,4.4,3.6,8,8,8h10
				c4.4,0,8-3.6,8-8v-2H17V20z"/>
			<path clip-path="url(#SVGID_2_)" fill="#231F20" d="M11,17v-5c0-1.738-1.256-3.204-3-3.755V5H5v3.245C3.256,8.796,2,10.262,2,12
				v2H0v3h1H11z M4,12h5v2H4V12z"/>
			<path clip-path="url(#SVGID_2_)" fill="#231F20" d="M14,22c1.105,0,2-0.896,2-2V0h-4v20C12,21.104,12.896,22,14,22"/>
		</g>
	</g>

</svg>
