<?xml version="1.0" encoding="utf-8"?>
<svg version="1.1" id="Layer_1" xmlns="http://www.w3.org/2000/svg" xmlns:xlink="http://www.w3.org/1999/xlink" x="0px" y="0px" viewBox="0 0 28 28"
	 enable-background="new 0 0 28 28" xml:space="preserve">

		<g>
			<defs>
				<rect id="SVGID_1_" width="28" height="28"/>
			</defs>
			<clipPath id="SVGID_2_">
				<use xlink:href="#SVGID_1_"  overflow="visible"/>
			</clipPath>
			<path clip-path="url(#SVGID_2_)" fill="#231F20" d="M11.953,9.999c-0.324-0.61-0.498-1.308-0.498-2.015
				c0-1.605,0.853-2.669,1.219-3.052c0.781-0.814,1.539-1.779,1.433-2.875l0.005,0.005C13.834,0.096,11.87,0.011,11.565,0
				c0.843,2.02,0.344,2.302-1.428,4.151c-0.367,0.382-1.02,1.274-1.02,2.513C9.117,8.389,10.357,9.805,11.953,9.999"/>
			<path clip-path="url(#SVGID_2_)" fill="#231F20" d="M17.836,10c-0.323-0.61-0.498-1.308-0.498-2.015
				c0-1.605,0.853-2.669,1.22-3.052c0.781-0.814,1.537-1.779,1.432-2.875l0.005,0.005c-0.278-1.966-2.242-2.051-2.547-2.062
				c0.843,2.02,0.344,2.302-1.428,4.151C15.653,4.534,15,5.426,15,6.665C15,8.39,16.24,9.806,17.836,10"/>
			<path clip-path="url(#SVGID_2_)" fill="#231F20" d="M23.751,22.649c-0.247,0-0.265,0.012-0.576,0.203
				c-0.484,0.298-1.294,0.797-2.672,0.797c-1.377,0-2.187-0.498-2.673-0.798c-0.309-0.19-0.327-0.202-0.572-0.202
				c-0.247,0-0.272,0.015-0.576,0.203c-0.484,0.298-1.294,0.797-2.673,0.797c-1.378,0-2.189-0.499-2.675-0.798
				c-0.31-0.191-0.329-0.202-0.574-0.202c-0.246,0-0.264,0.011-0.58,0.206c-0.484,0.297-1.294,0.794-2.67,0.794
				c-1.379,0-2.19-0.498-2.675-0.796c-0.313-0.192-0.332-0.204-0.58-0.204c-0.247,0-0.273,0.015-0.582,0.205
				c-0.261,0.16-0.628,0.373-1.116,0.54L4.4,28h19.2l1.843-4.607c-0.488-0.168-0.856-0.382-1.118-0.543
				C24.015,22.66,23.996,22.649,23.751,22.649"/>
			<path clip-path="url(#SVGID_2_)" fill="#231F20" d="M27,20.649c-0.267,0-0.454-0.034-0.62-0.096
				c-0.835-3.134-3.203-5.754-6.38-7.238v1.686c0,0.552-0.448,1-1,1s-1-0.448-1-1v-2.433c-0.955-0.276-1.958-0.459-3-0.53v1.963
				c0,0.552-0.448,1-1,1s-1-0.448-1-1v-1.963c-1.042,0.071-2.045,0.254-3,0.53v2.433c0,0.552-0.448,1-1,1s-1-0.448-1-1v-1.686
				c-3.177,1.485-5.545,4.104-6.38,7.239C1.454,20.615,1.267,20.649,1,20.649c-0.553,0-1,0.447-1,1s0.447,1,1,1
				c1.097,0,1.706-0.375,2.151-0.648c0.358-0.219,0.574-0.352,1.104-0.352c0.531,0,0.747,0.133,1.104,0.353
				c0.446,0.273,1.055,0.647,2.151,0.647c1.095,0,1.704-0.375,2.149-0.648c0.357-0.219,0.571-0.352,1.101-0.352
				c0.529,0,0.744,0.133,1.1,0.352c0.445,0.273,1.054,0.648,2.149,0.648c1.096,0,1.705-0.375,2.149-0.648
				c0.356-0.22,0.571-0.352,1.1-0.352c0.527,0,0.742,0.132,1.097,0.352c0.445,0.273,1.053,0.648,2.148,0.648
				c1.095,0,1.704-0.375,2.148-0.648c0.356-0.22,0.571-0.352,1.1-0.352c0.529,0,0.744,0.133,1.101,0.352
				c0.444,0.273,1.053,0.648,2.148,0.648c0.553,0,1-0.447,1-1S27.553,20.649,27,20.649"/>
		</g>

</svg>
