<?xml version="1.0" encoding="utf-8"?>
<svg version="1.1" id="Layer_1" xmlns="http://www.w3.org/2000/svg" xmlns:xlink="http://www.w3.org/1999/xlink" x="0px" y="0px"
	 viewBox="0 0 28 28" enable-background="new 0 0 28 28" xml:space="preserve">
<g>
	<defs>
		<rect id="SVGID_1_" width="28" height="28"/>
	</defs>
	<clipPath id="SVGID_2_">
		<use xlink:href="#SVGID_1_"  overflow="visible"/>
	</clipPath>
	<path clip-path="url(#SVGID_2_)" d="M15,0.065v12.387l11.197-5.304C23.951,3.165,19.812,0.401,15,0.065 M12.966,0
		C5.72,0.524,0,6.569,0,13.97C0,21.718,6.261,28,13.984,28c3.492,0,6.674-1.298,9.125-3.421L12.966,14.41V0z M27.099,9.067
		l-2.533,1.065l-8.855,4.196l8.847,8.848C26.695,20.719,28,17.52,28,14.008C28,12.269,27.679,10.604,27.099,9.067 M24.318,20.108
		l-5.187-5.187l6.251-2.962l0.413-0.173C25.931,12.515,26,13.258,26,14.008C26,16.162,25.412,18.267,24.318,20.108"/>
</g>
</svg>
