<?xml version="1.0" encoding="utf-8"?>
<svg version="1.1" id="Layer_1" xmlns="http://www.w3.org/2000/svg" xmlns:xlink="http://www.w3.org/1999/xlink" x="0px" y="0px"
	 viewBox="0 0 28 28" enable-background="new 0 0 28 28" xml:space="preserve">
<g>
	<defs>
		<rect id="SVGID_1_" width="28" height="28"/>
	</defs>
	<clipPath id="SVGID_2_">
		<use xlink:href="#SVGID_1_"  overflow="visible"/>
	</clipPath>
	<path clip-path="url(#SVGID_2_)" d="M14.333,14h-0.666c-2.75,0-5,1.8-5,4s2.25,4,5,4h0.666c2.75,0,5-1.8,5-4S17.083,14,14.333,14
		 M12,19c-0.553,0-1-0.447-1-1c0-0.551,0.447-1,1-1c0.553,0,1,0.449,1,1C13,18.553,12.553,19,12,19 M16,19c-0.553,0-1-0.447-1-1
		c0-0.551,0.447-1,1-1c0.553,0,1,0.449,1,1C17,18.553,16.553,19,16,19"/>
	<path clip-path="url(#SVGID_2_)" d="M21,5.416V0h-0.5C18.567,0,17,1.567,17,3.5v0.754C16.032,4.094,15.032,4,14,4
		s-2.032,0.094-3,0.254V3.5C11,1.567,9.433,0,7.5,0H7v5.416C2.819,7.232,0,10.615,0,14.5s2.819,7.268,7,9.084V28h5v-3.119
		C12.655,24.951,13.319,25,14,25c0.681,0,1.345-0.049,2-0.119V28h5v-4.416c4.181-1.816,7-5.199,7-9.084S25.181,7.232,21,5.416
		 M16,10c0.553,0,1,0.449,1,1c0,0.553-0.447,1-1,1c-0.553,0-1-0.447-1-1C15,10.449,15.447,10,16,10 M12,10c0.553,0,1,0.449,1,1
		c0,0.553-0.447,1-1,1c-0.553,0-1-0.447-1-1C11,10.449,11.447,10,12,10 M14.333,23h-0.666c-3.309,0-6-2.243-6-5s2.691-5,6-5h0.666
		c3.309,0,6,2.243,6,5S17.642,23,14.333,23"/>
</g>
</svg>
