<?xml version="1.0" encoding="utf-8"?>
<svg version="1.1" id="Layer_1" xmlns="http://www.w3.org/2000/svg" xmlns:xlink="http://www.w3.org/1999/xlink" x="0px" y="0px" viewBox="0 0 28 28"
	 enable-background="new 0 0 28 28" xml:space="preserve">

		<g>
			<defs>
				<rect id="SVGID_1_" width="28" height="28"/>
			</defs>
			<clipPath id="SVGID_2_">
				<use xlink:href="#SVGID_1_"  overflow="visible"/>
			</clipPath>
			<path clip-path="url(#SVGID_2_)" fill="#231F20" d="M27.258,7.365c-1.007-4.302-2.66-7.594-3.693-7.352
				c-0.07,0.016-0.931,0.335-0.931,0.335c-1.485,0.549-3.962,1.294-5.504,1.655l-7.478,1.75C8.109,4.114,5.578,4.489,4.026,4.586
				l-0.09,0.021c-0.899,0.21-1.03,3.03-0.385,6.595c1.378,0.157,3.02,0.269,4.129,0.269h7.68c1.554,0,4.072-0.156,5.613-0.349
				C21.945,11,22.014,11,22.08,11c1.584,0,2.145,2.341,2.33,3.11c0.129,0.538,0.23,1.151,0.319,1.79
				c0.545-0.08,1.062-0.148,1.499-0.195c0,0,0.913-0.097,0.984-0.113C28.244,15.35,28.265,11.667,27.258,7.365"/>
			<path clip-path="url(#SVGID_2_)" fill="#231F20" d="M22.08,12c-0.072,0-0.983,0.114-0.983,0.114
				c-1.571,0.196-4.153,0.357-5.737,0.357H7.68c-1.584,0-4.135-0.212-5.668-0.471H1.92C0.86,12,0,15.582,0,20s0.86,8,1.92,8h0.092
				c1.533-0.259,4.084-0.471,5.668-0.471h7.68c1.584,0,4.166,0.161,5.737,0.357c0,0,0.911,0.114,0.983,0.114
				c1.06,0,1.92-3.582,1.92-8S23.14,12,22.08,12 M2.5,26c-0.552,0-1-2.686-1-6s0.448-6,1-6s1,2.686,1,6S3.052,26,2.5,26"/>
		</g>

</svg>
