<?xml version="1.0" encoding="utf-8"?>
<svg version="1.1" id="Layer_1" xmlns="http://www.w3.org/2000/svg" xmlns:xlink="http://www.w3.org/1999/xlink" x="0px" y="0px" viewBox="0 0 28 28"
	 enable-background="new 0 0 28 28" xml:space="preserve">

		<g>
			<defs>
				<rect id="SVGID_1_" width="28" height="28"/>
			</defs>
			<clipPath id="SVGID_2_">
				<use xlink:href="#SVGID_1_"  overflow="visible"/>
			</clipPath>
			<path clip-path="url(#SVGID_2_)" fill="#231F20" d="M26,0c-5.137,0-7,4.186-7,7v2h-1c-0.553,0-1,0.447-1,1v5v1
				c0,1.104-0.897,2-2,2c-1.106,0-2-0.896-2-2v-1H6H1v1h0.023C1.279,22.66,6.545,28,13,28c6.617,0,12-5.607,12-12.5V10
				c0-0.553-0.447-1-1-1h-1V7V6.667C23,4.791,24.242,2,27.666,2H28V0H26z"/>
			<path clip-path="url(#SVGID_2_)" fill="#231F20" d="M13,14c0.553,0,1-0.447,1-1c0-0.553-0.447-1-1-1H1c-0.553,0-1,0.447-1,1
				c0,0.553,0.447,1,1,1H13z"/>
		</g>

</svg>
