<?xml version="1.0" encoding="utf-8"?>
<svg version="1.1" id="Layer_1" xmlns="http://www.w3.org/2000/svg" xmlns:xlink="http://www.w3.org/1999/xlink" x="0px" y="0px" viewBox="0 0 28 28"
	 enable-background="new 0 0 28 28" xml:space="preserve">

		<g>
			<defs>
				<rect id="SVGID_1_" width="28" height="28"/>
			</defs>
			<clipPath id="SVGID_2_">
				<use xlink:href="#SVGID_1_"  overflow="visible"/>
			</clipPath>
			<path clip-path="url(#SVGID_2_)" fill="#231F20" d="M3,11c0-2.206,1.794-4,4-4c1.115,0,2.124,0.461,2.85,1.2
				C9.842,8.148,9.835,8.105,9.827,8.052C9.73,7.393,9.606,6.515,9.485,5.637C9.428,5.216,9.37,4.797,9.315,4.4
				C8.59,4.146,7.812,4,7,4c-3.866,0-7,3.134-7,7c0,3.546,2.639,6.469,6.059,6.93C6.032,17.621,6,17.314,6,17
				c0-0.712,0.077-1.404,0.2-2.081C4.377,14.548,3,12.933,3,11 M28,2c0,0-1-2-6-2c-6,0-9.185,3-12,3l1,6c-2.545,1.825-4,4.732-4,8
				c0,3.6,2.004,6.745,5,8.507V28h11v-2.493c2.996-1.762,5-4.907,5-8.507c0-2.726-1.148-5.194-3.006-6.998C24.994,10.002,20,6,28,2"
				/>
		</g>

</svg>
