<?xml version="1.0" encoding="utf-8"?>
<svg version="1.1" id="Layer_1" xmlns="http://www.w3.org/2000/svg" xmlns:xlink="http://www.w3.org/1999/xlink" x="0px" y="0px" viewBox="0 0 28 28"
	 enable-background="new 0 0 28 28" xml:space="preserve">

		<g>
			<defs>
				<rect id="SVGID_1_" width="28" height="28"/>
			</defs>
			<clipPath id="SVGID_2_">
				<use xlink:href="#SVGID_1_"  overflow="visible"/>
			</clipPath>
			<path clip-path="url(#SVGID_2_)" fill="#231F20" d="M0.293,17.101l4.95-4.95c2.34-2.34,6.145-2.34,8.485,0l0.001,0.002
				L25.44,0.44c0.585-0.586,1.536-0.586,2.121,0c0.585,0.585,0.585,1.535,0,2.121L15.85,14.274c2.338,2.338,2.338,6.144,0,8.483
				l-4.951,4.95C10.704,27.903,10.448,28,10.192,28c-0.256,0-0.511-0.097-0.707-0.293c-0.39-0.39-0.39-1.023,0-1.414l4.951-4.95
				c1.559-1.559,1.559-4.096,0-5.656l-0.355-0.355l-7.778,7.779c-0.196,0.195-0.451,0.293-0.707,0.293s-0.512-0.098-0.707-0.293
				c-0.391-0.391-0.391-1.024,0-1.414l7.778-7.779l-0.354-0.353c-1.558-1.559-4.097-1.559-5.656,0l-4.95,4.95
				c-0.391,0.391-1.023,0.391-1.414,0C-0.098,18.124-0.098,17.492,0.293,17.101"/>
		</g>

</svg>
