<?xml version="1.0" encoding="utf-8"?>
<svg version="1.1" id="Layer_1" xmlns="http://www.w3.org/2000/svg" xmlns:xlink="http://www.w3.org/1999/xlink" x="0px" y="0px"
	 viewBox="0 0 28 28" enable-background="new 0 0 28 28" xml:space="preserve">
<g>
	<defs>
		<rect id="SVGID_1_" width="28" height="28"/>
	</defs>
	<clipPath id="SVGID_2_">
		<use xlink:href="#SVGID_1_"  overflow="visible"/>
	</clipPath>
	<path clip-path="url(#SVGID_2_)" d="M13.5,0.025v2c-2.93,0.121-5.588,1.294-7.611,3.156L4.471,3.763
		C6.857,1.542,10.013,0.148,13.5,0.025 M13.5,3.025v9.768L6.593,5.885C8.433,4.204,10.841,3.145,13.5,3.025 M3.764,4.47l1.418,1.418
		C3.32,7.912,2.148,10.569,2.026,13.5h-2C0.149,10.012,1.542,6.856,3.764,4.47 M24.238,4.472c2.221,2.385,3.614,5.541,3.737,9.028
		h-2c-0.122-2.93-1.294-5.587-3.155-7.61L24.238,4.472 M5.886,6.592l6.907,6.908H3.026C3.146,10.84,4.205,8.432,5.886,6.592
		 M22.117,6.594c1.679,1.84,2.738,4.248,2.858,6.906H15.21L22.117,6.594 M27.975,14.5c-0.123,3.487-1.517,6.643-3.738,9.029
		l-1.418-1.418c1.862-2.023,3.034-4.681,3.156-7.611H27.975 M24.975,14.5c-0.12,2.659-1.179,5.067-2.86,6.907L15.207,14.5H24.975
		 M12.796,14.5l-6.909,6.909c-1.681-1.841-2.741-4.25-2.861-6.909H12.796 M2.026,14.5c0.122,2.931,1.295,5.59,3.158,7.612
		l-1.419,1.419c-2.223-2.387-3.616-5.543-3.739-9.031H2.026 M14.5,15.207l6.908,6.907c-1.84,1.682-4.248,2.74-6.908,2.86V15.207
		 M13.5,15.21v9.764c-2.658-0.12-5.065-1.178-6.906-2.858L13.5,15.21 M22.112,22.818l1.418,1.418
		c-2.386,2.222-5.542,3.615-9.03,3.738v-2C17.431,25.853,20.088,24.68,22.112,22.818 M5.891,22.819
		c2.023,1.861,4.68,3.034,7.609,3.155v2c-3.486-0.123-6.642-1.515-9.027-3.737L5.891,22.819"/>
</g>
</svg>
