<?xml version="1.0" encoding="utf-8"?>
<svg version="1.1" id="Layer_1" xmlns="http://www.w3.org/2000/svg" xmlns:xlink="http://www.w3.org/1999/xlink" x="0px" y="0px"
	 viewBox="0 0 28 28" enable-background="new 0 0 28 28" xml:space="preserve">
<g>
	<defs>
		<rect id="SVGID_1_" width="28" height="28"/>
	</defs>
	<clipPath id="SVGID_2_">
		<use xlink:href="#SVGID_1_"  overflow="visible"/>
	</clipPath>
	<path clip-path="url(#SVGID_2_)" d="M22,21c-0.893,0-1.639,0.589-1.897,1.396l-1.523-1.522c1.324-0.712,2.381-1.729,3.054-2.924
		c-1.736-0.066-3.904-0.363-5.302-1.086C15.783,17.551,14.947,18,14.002,18c-0.948,0-1.784-0.449-2.334-1.136
		c-1.399,0.723-3.567,1.02-5.303,1.086c0.672,1.19,1.722,2.204,3.041,2.917L7.892,22.38C7.63,21.581,6.886,21,6,21
		c-1.104,0-2,0.896-2,2v3c0,1.105,0.896,2,2,2c1.105,0,2-0.895,2-2v-1h12v1c0,1.105,0.896,2,2,2c1.105,0,2-0.895,2-2v-3
		C24,21.896,23.105,21,22,21 M20,24H8v-0.314l2.373-2.373C11.472,21.749,12.701,22,14,22c1.295,0,2.515-0.249,3.611-0.681L20,23.707
		V24z M11.193,16.03C11.074,15.708,11,15.363,11,15s0.074-0.708,0.193-1.03C10.048,13.39,7.974,13,5.599,13
		C1.992,13,0.002,13.896,0,15c0,1.105,1.992,2,5.601,2C7.976,17,10.048,16.611,11.193,16.03 M15,3V1c0-0.552-0.448-1-1-1
		c-0.553,0-1,0.448-1,1v2H0v3h7.804l-2.115,6.035c1.815,0.009,4.387,0.282,5.975,1.104C12.214,12.45,13.05,12,13.998,12
		c0.949,0,1.785,0.451,2.336,1.14c1.587-0.823,4.164-1.096,5.978-1.105L20.197,6H28V3H15z M14,8c-1.815,0-3.491,0.48-4.868,1.289
		l0.424-1.473c0.42-1.236,1.039-1.815,2.408-1.815h4.073c1.369,0,1.988,0.579,2.408,1.815l0.422,1.473C17.492,8.48,15.814,8,14,8
		 M15.5,15c0-0.086-0.012-0.169-0.026-0.251v0.001c-0.119-0.709-0.732-1.25-1.476-1.25c-0.828,0-1.498,0.672-1.498,1.5
		c0,0.829,0.67,1.5,1.502,1.5c0.74,0,1.353-0.541,1.472-1.25v0.001C15.488,15.169,15.5,15.086,15.5,15 M22.4,13
		c-2.377,0-4.451,0.39-5.594,0.971C16.925,14.294,17,14.637,17,15s-0.075,0.706-0.194,1.029C17.949,16.61,20.023,17,22.4,17
		c3.609,0,5.6-0.895,5.6-2C28,13.896,26.009,13,22.4,13"/>
</g>
</svg>
