<?xml version="1.0" encoding="utf-8"?>
<svg version="1.1" id="Layer_1" xmlns="http://www.w3.org/2000/svg" xmlns:xlink="http://www.w3.org/1999/xlink" x="0px" y="0px" viewBox="0 0 28 28"
	 enable-background="new 0 0 28 28" xml:space="preserve">

		<g>
			<defs>
				<rect id="SVGID_1_" width="28" height="28"/>
			</defs>
			<clipPath id="SVGID_2_">
				<use xlink:href="#SVGID_1_"  overflow="visible"/>
			</clipPath>
			<path clip-path="url(#SVGID_2_)" fill="#231F20" d="M27.535,0.461c-1.174-1.174-4.379-0.045-8.355,2.635
				c0.839,0.398,1.642,0.898,2.389,1.501c1.101-0.776,1.842-1.134,2.047-0.929c0.251,0.25-0.328,1.288-1.49,2.816
				c-0.098-0.108-0.187-0.218-0.29-0.321c-4.328-4.329-11.346-4.329-15.674,0c-4.329,4.328-4.33,11.346-0.001,15.673
				c0.103,0.103,0.214,0.193,0.321,0.291c-1.526,1.162-2.564,1.74-2.815,1.49c-0.205-0.205,0.153-0.945,0.927-2.045
				c-0.598-0.737-1.107-1.532-1.511-2.375c-2.669,3.97-3.794,7.165-2.62,8.338c1.967,1.968,9.623-2.499,17.098-9.974
				C25.037,10.086,29.503,2.43,27.535,0.461"/>
			<path clip-path="url(#SVGID_2_)" fill="#231F20" d="M18.622,18.621c-2.396,2.396-4.788,4.479-7.039,6.168
				c3.577,0.798,7.469-0.17,10.253-2.953c2.787-2.785,3.752-6.682,2.951-10.262C23.063,13.873,20.962,16.281,18.622,18.621"/>
		</g>

</svg>
