<?xml version="1.0" encoding="utf-8"?>
<svg version="1.1" id="Layer_1" xmlns="http://www.w3.org/2000/svg" xmlns:xlink="http://www.w3.org/1999/xlink" x="0px" y="0px" viewBox="0 0 28 28"
	 enable-background="new 0 0 28 28" xml:space="preserve">

		<g>
			<defs>
				<rect id="SVGID_1_" width="28" height="28"/>
			</defs>
			<clipPath id="SVGID_2_">
				<use xlink:href="#SVGID_1_"  overflow="visible"/>
			</clipPath>
			<path clip-path="url(#SVGID_2_)" fill="#231F20" d="M17,7.001v-5.5c0-0.825-0.675-1.5-1.5-1.5c-0.825,0-1.5,0.675-1.5,1.5v5.5H17
				z"/>
			<path clip-path="url(#SVGID_2_)" fill="#231F20" d="M6,7.001v-5.5c0-0.825-0.675-1.5-1.5-1.5S3,0.676,3,1.501v5.5H6z"/>
			<path clip-path="url(#SVGID_2_)" fill="#231F20" d="M2,16.001v1c0,2.2,1.8,4,4,4h8c2.2,0,4-1.8,4-4v-1v-4h2v-4H0v4h2V16.001z"/>
			<path clip-path="url(#SVGID_2_)" fill="#231F20" d="M24,0.001v22c0,1.102-0.898,2-2,2h-8c-1.103,0-2-0.898-2-2H8
				c0,3.309,2.691,6,6,6h8c3.309,0,6-2.691,6-6v-22H24z"/>
		</g>

</svg>
