<?xml version="1.0" encoding="utf-8"?>
<svg version="1.1" id="Layer_1" xmlns="http://www.w3.org/2000/svg" xmlns:xlink="http://www.w3.org/1999/xlink" x="0px" y="0px" viewBox="0 0 28 28"
	 enable-background="new 0 0 28 28" xml:space="preserve">

		<g>
			<defs>
				<rect id="SVGID_1_" width="28" height="28"/>
			</defs>
			<clipPath id="SVGID_2_">
				<use xlink:href="#SVGID_1_"  overflow="visible"/>
			</clipPath>
			<path clip-path="url(#SVGID_2_)" fill="#231F20" d="M26,5v1c-2.209,0-4,1.791-4,4h4v4c0,0.553-0.447,1-1,1c-0.553,0-1-0.447-1-1
				v-2h-2v6h1.5c1.859,0,3.504,0.931,4.5,2.348V5H26z"/>
			<path clip-path="url(#SVGID_2_)" fill="#231F20" d="M23.5,19H10.963H4.5C2.015,19,0,21.015,0,23.5C0,25.984,2.015,28,4.5,28h19
				c2.484,0,4.5-2.016,4.5-4.5C28,21.015,25.984,19,23.5,19 M4.5,25C3.672,25,3,24.328,3,23.5C3,22.672,3.672,22,4.5,22
				S6,22.672,6,23.5C6,24.328,5.328,25,4.5,25 M23.5,25c-0.828,0-1.5-0.672-1.5-1.5c0-0.828,0.672-1.5,1.5-1.5
				c0.828,0,1.5,0.672,1.5,1.5C25,24.328,24.328,25,23.5,25"/>
			<path clip-path="url(#SVGID_2_)" fill="#231F20" d="M7.342,18l1.561-5.822C10.475,6.309,8.852,0.776,5.953,0L0.726,19.51
				C1.712,18.576,3.039,18,4.5,18H7.342z"/>
			<path clip-path="url(#SVGID_2_)" fill="#231F20" d="M11.205,17.236L11,18h0.517h0.519l0.215-0.804
				c0.049-0.183-0.01-0.377-0.151-0.503l-0.188-0.166l0.11-0.411l2.186,0.037c0.21,0.008,0.432-0.148,0.492-0.37
				c0.059-0.222-0.04-0.456-0.24-0.568l-1.857-1.03l2.123,0.036c0.225-0.041,0.432-0.149,0.492-0.37
				c0.058-0.221-0.04-0.456-0.241-0.567l-1.856-1.03l2.122,0.036c0.203-0.014,0.433-0.149,0.492-0.37
				c0.059-0.222-0.04-0.456-0.24-0.568l-1.856-1.03l2.122,0.036c0.218,0.014,0.432-0.148,0.492-0.37
				c0.058-0.222-0.04-0.456-0.24-0.567L14.155,8.39l2.124,0.035h0.008c0.206,0,0.392-0.126,0.466-0.318
				c0.076-0.195,0.022-0.417-0.134-0.556l-1.442-1.278l0.179-0.667c0.072-0.267-0.087-0.541-0.353-0.613
				c-0.269-0.066-0.541,0.088-0.613,0.353l-0.259,0.966c-0.049,0.184,0.01,0.378,0.151,0.504l0.188,0.166l-0.111,0.411l-2.186-0.036
				h-0.008c-0.226,0-0.425,0.151-0.483,0.371c-0.059,0.221,0.04,0.455,0.24,0.567l1.856,1.03l-2.122-0.036
				c-0.247,0.016-0.433,0.148-0.492,0.37s0.04,0.456,0.24,0.567l1.857,1.03l-2.122-0.036c-0.225-0.01-0.433,0.149-0.493,0.37
				c-0.058,0.222,0.04,0.457,0.241,0.568l1.856,1.03l-2.122-0.036c-0.24-0.038-0.432,0.148-0.492,0.37
				c-0.059,0.222,0.04,0.456,0.24,0.568l1.857,1.03l-2.123-0.036c-0.188,0.036-0.398,0.123-0.474,0.318s-0.023,0.417,0.134,0.556
				L11.205,17.236z"/>
		</g>

</svg>
