<?xml version="1.0" encoding="utf-8"?>
<svg version="1.1" id="Layer_1" xmlns="http://www.w3.org/2000/svg" xmlns:xlink="http://www.w3.org/1999/xlink" x="0px" y="0px"
	 viewBox="0 0 28 28" enable-background="new 0 0 28 28" xml:space="preserve">
<g>
	<defs>
		<rect id="SVGID_1_" width="28" height="28"/>
	</defs>
	<clipPath id="SVGID_2_">
		<use xlink:href="#SVGID_1_"  overflow="visible"/>
	</clipPath>
	<path clip-path="url(#SVGID_2_)" d="M20.045,20.452c1.704-1.627,2.787-3.911,2.787-6.468c0-4.94-3.955-8.943-8.832-8.943
		s-8.83,4.003-8.83,8.943c0,2.555,1.08,4.838,2.781,6.464c0.35-0.779,0.881-1.489,1.545-2.078c-1.089-1.14-1.769-2.678-1.769-4.386
		c0-3.503,2.814-6.353,6.273-6.353s6.274,2.85,6.274,6.353c0,1.708-0.682,3.247-1.771,4.388
		C19.168,18.962,19.697,19.672,20.045,20.452 M13.999,18.149c-2.54,0-4.986,1.843-4.998,4.361V28H19v-2v-3.474
		C19,20.109,16.543,18.149,13.999,18.149 M14,0C6.373,0,0,6.26,0,13.984c0,5.692,3.996,10.587,8,12.769v-2.909
		c-2.002-1.973-5.443-5.652-5.443-9.86C2.557,7.7,7.7,2.589,13.906,2.589c6.204,0,11.489,5.111,11.489,11.395
		c0,4.208-3.393,7.886-5.395,9.86v2.909c4.004-2.183,8-7.077,8-12.769C28,6.26,21.627,0,14,0 M10.799,13.925
		c0,1.791,1.436,3.242,3.201,3.242c1.773,0,3.205-1.451,3.205-3.242c0-1.79-1.432-3.241-3.205-3.241
		C12.235,10.684,10.799,12.135,10.799,13.925"/>
</g>
</svg>
