<?xml version="1.0" encoding="utf-8"?>
<svg version="1.1" id="Layer_1" xmlns="http://www.w3.org/2000/svg" xmlns:xlink="http://www.w3.org/1999/xlink" x="0px" y="0px" viewBox="0 0 28 28"
	 enable-background="new 0 0 28 28" xml:space="preserve">

		<g>
			<defs>
				<rect id="SVGID_1_" width="28" height="28"/>
			</defs>
			<clipPath id="SVGID_2_">
				<use xlink:href="#SVGID_1_"  overflow="visible"/>
			</clipPath>
			<path clip-path="url(#SVGID_2_)" fill="#231F20" d="M24,5H7V3.5C7,2.673,7.673,2,8.5,2h1.592c0.207,0.581,0.756,1,1.408,1h3
				C15.328,3,16,2.328,16,1.5C16,0.672,15.328,0,14.5,0h-3c-0.652,0-1.201,0.419-1.408,1H8.5C7.121,1,6,2.121,6,3.5V5H4L0,15h28
				L24,5z"/>
			<polygon clip-path="url(#SVGID_2_)" fill="#231F20" points="0,18 12,18 12,26 10,26 10,28 19,28 19,26 17,26 17,18 28,18 28,16 
				0,16 			"/>
		</g>

</svg>
