<?xml version="1.0" encoding="utf-8"?>
<svg version="1.1" id="Layer_1" xmlns="http://www.w3.org/2000/svg" xmlns:xlink="http://www.w3.org/1999/xlink" x="0px" y="0px" viewBox="0 0 28 28"
	 enable-background="new 0 0 28 28" xml:space="preserve">

	<g>
		<rect x="13" fill="#231F20" width="2.001" height="3"/>
		<g>
			<defs>
				<rect id="SVGID_1_" width="28" height="28"/>
			</defs>
			<clipPath id="SVGID_2_">
				<use xlink:href="#SVGID_1_"  overflow="visible"/>
			</clipPath>
			<path clip-path="url(#SVGID_2_)" fill="#231F20" d="M12,0H8C6.9,0,6,0.9,6,2v1h6V0z"/>
			<path clip-path="url(#SVGID_2_)" fill="#231F20" d="M21.938,2c0-1.1-0.9-2-2-2H16v3h5.937V2z"/>
			<path clip-path="url(#SVGID_2_)" fill="#231F20" d="M2,26.197C2,27.398,3,27.999,4,28c1,0,2-0.602,2-1.803V23H2V26.197z"/>
			<path clip-path="url(#SVGID_2_)" fill="#231F20" d="M22,26.197c0,1.201,1,1.802,2,1.803c1,0,2-0.602,2-1.803V23h-4V26.197z"/>
			<path clip-path="url(#SVGID_2_)" fill="#231F20" d="M25,12v-2c0-4-2-6-7-6h-8c-5,0-7,2-7,6v2c-2,1-3,3-3,6v4h28v-4
				C28,15,27,13,25,12 M3.969,19c-1.106,0-2-0.896-2-2s0.894-2,2-2c1.103,0,2,0.896,2,2S5.072,19,3.969,19 M6,10c0-2,1-3,4-3h8
				c3,0,4,1,4,3v2H6V10z M24,19c-1.105,0-2-0.896-2-2s0.895-2,2-2c1.104,0,2,0.896,2,2S25.104,19,24,19"/>
		</g>
	</g>

</svg>
