<?xml version="1.0" encoding="utf-8"?>
<svg version="1.1" id="Layer_1" xmlns="http://www.w3.org/2000/svg" xmlns:xlink="http://www.w3.org/1999/xlink" x="0px" y="0px" viewBox="0 0 28 28"
	 enable-background="new 0 0 28 28" xml:space="preserve">

		<g>
			<defs>
				<rect id="SVGID_1_" width="28" height="28"/>
			</defs>
			<clipPath id="SVGID_2_">
				<use xlink:href="#SVGID_1_"  overflow="visible"/>
			</clipPath>
			<path clip-path="url(#SVGID_2_)" fill="#231F20" d="M24.566,20.388c0.269-0.514,0.435-1.085,0.435-1.697
				c0-2.109-1.8-3.833-4-3.833h-0.065c1.026-2.191-0.131-5.28-5.365-5.173c0,0-4.609-0.304-1.695-4.685c0,0-8.914,2.191-6.89,9.858
				h0.015c-2.201,0-4,1.724-4,3.833c0,0.612,0.165,1.183,0.434,1.697c-1.932,0.268-3.434,1.856-3.434,3.779
				c0,2.108,1.799,3.833,4,3.833h20c2.2,0,4-1.725,4-3.833C28.001,22.244,26.499,20.656,24.566,20.388"/>
			<path clip-path="url(#SVGID_2_)" fill="#231F20" d="M3,4c0.552,0,1-0.447,1-1c0-0.553-0.448-1-1-1S2,2.447,2,3
				C2,3.553,2.448,4,3,4"/>
			<path clip-path="url(#SVGID_2_)" fill="#231F20" d="M27,2c0.552,0,1-0.447,1-1c0-0.553-0.448-1-1-1c-0.552,0-1,0.447-1,1
				C26,1.553,26.448,2,27,2"/>
			<path clip-path="url(#SVGID_2_)" fill="#231F20" d="M20,7c0.552,0,1-0.447,1-1c0-0.553-0.448-1-1-1c-0.552,0-1,0.447-1,1
				C19,6.553,19.448,7,20,7"/>
		</g>

</svg>
