<?xml version="1.0" encoding="utf-8"?>
<svg version="1.1" id="Layer_1" xmlns="http://www.w3.org/2000/svg" xmlns:xlink="http://www.w3.org/1999/xlink" x="0px" y="0px" viewBox="0 0 28 28"
	 enable-background="new 0 0 28 28" xml:space="preserve">

	<g>
		<polygon fill="#231F20" points="7.745,14 9.392,28 12.5,28 12.5,14 		"/>
		<polygon fill="#231F20" points="15.5,14 15.5,28 18.608,28 20.255,14 		"/>
		<polygon fill="#231F20" points="23.274,14 21.627,28 23.315,28 26.935,14 		"/>
		<polygon fill="#231F20" points="1.218,14 4.84,28 6.373,28 4.726,14 		"/>
		<g>
			<defs>
				<rect id="SVGID_1_" width="28" height="28"/>
			</defs>
			<clipPath id="SVGID_2_">
				<use xlink:href="#SVGID_1_"  overflow="visible"/>
			</clipPath>
			<path clip-path="url(#SVGID_2_)" fill="#231F20" d="M27,11h-1.051C25.982,10.838,26,10.67,26,10.498
				c0-1.231-0.892-2.249-2.064-2.456C23.975,7.866,24,7.685,24,7.498c0-1.381-1.119-2.5-2.5-2.5c-0.198,0-0.388,0.028-0.573,0.072
				C20.971,4.886,21,4.695,21,4.498c0-1.381-1.119-2.5-2.5-2.5c-0.444,0-0.855,0.125-1.216,0.328C16.8,0.973,15.52-0.002,14-0.002
				c-1.521,0-2.801,0.975-3.284,2.328C10.354,2.123,9.943,1.998,9.5,1.998c-1.381,0-2.5,1.119-2.5,2.5
				C7,4.695,7.028,4.886,7.072,5.07C6.887,5.026,6.697,4.998,6.5,4.998c-1.381,0-2.5,1.119-2.5,2.5c0,0.187,0.024,0.368,0.063,0.544
				C2.891,8.249,2,9.267,2,10.498C2,10.67,2.017,10.838,2.05,11H1c-0.553,0-1,0.447-1,1s0.447,1,1,1h26c0.552,0,1-0.447,1-1
				S27.552,11,27,11 M11.488,5.998c0.01-0.012,0.02-0.022,0.029-0.034c0.012,0.012,0.026,0.022,0.037,0.034H11.488z M16.445,5.998
				c0.012-0.012,0.025-0.022,0.037-0.034c0.01,0.012,0.02,0.022,0.029,0.034H16.445z"/>
		</g>
	</g>

</svg>
