<?xml version="1.0" encoding="utf-8"?>
<svg version="1.1" id="Layer_1" xmlns="http://www.w3.org/2000/svg" xmlns:xlink="http://www.w3.org/1999/xlink" x="0px" y="0px" viewBox="0 0 28 28"
	 enable-background="new 0 0 28 28" xml:space="preserve">

		<g>
			<defs>
				<rect id="SVGID_1_" width="28" height="28"/>
			</defs>
			<clipPath id="SVGID_2_">
				<use xlink:href="#SVGID_1_"  overflow="visible"/>
			</clipPath>
			<path clip-path="url(#SVGID_2_)" fill="#231F20" d="M5,26c0,1.105,0.895,2,2,2c1.104,0,2-0.895,2-2v-4H5V26z"/>
			<path clip-path="url(#SVGID_2_)" fill="#231F20" d="M19,26c0,1.105,0.896,2,2,2s2-0.895,2-2v-4h-4V26z"/>
			<path clip-path="url(#SVGID_2_)" fill="#231F20" d="M7,0C3.134,0,0,3.134,0,7v12c0,1.104,0.895,2,2,2h10c1.104,0,2-0.896,2-2V7
				C14,3.134,10.866,0,7,0"/>
			<path clip-path="url(#SVGID_2_)" fill="#231F20" d="M21,0c-2.919,0-5.418,1.788-6.469,4.327C14.829,5.164,15,6.061,15,7v12
				c0,0.524-0.146,1.01-0.385,1.439C14.976,20.785,15.462,21,16,21h10c1.104,0,2-0.896,2-2V7C28,3.134,24.866,0,21,0"/>
		</g>

</svg>
