<?xml version="1.0" encoding="utf-8"?>
<svg version="1.1" id="Layer_1" xmlns="http://www.w3.org/2000/svg" xmlns:xlink="http://www.w3.org/1999/xlink" x="0px" y="0px"
	 viewBox="0 0 28 28" enable-background="new 0 0 28 28" xml:space="preserve">
<g>
	<defs>
		<rect id="SVGID_1_" width="28" height="28"/>
	</defs>
	<clipPath id="SVGID_2_">
		<use xlink:href="#SVGID_1_"  overflow="visible"/>
	</clipPath>
	<path clip-path="url(#SVGID_2_)" d="M24,4H4v20h20V4z M20,17c0,0.495-0.447,1-1,1h-7c-0.543,0-1-0.514-1-1v-2c0-0.496,0.457-1,1-1
		h4v-3h-4v1h-1v-1c0-0.496,0.457-1,1-1h4c0.562,0,1,0.486,1,1v6h2V8H9v12h10v1H9c-0.541,0-1-0.514-1-1V8c0-0.487,0.469-1,1-1h10
		c0.562,0,1,0.486,1,1V17z M12.019,17H16v-2h-3.981V17z M28,2.092V0h-2.092c-0.205,0.582-0.756,1-1.408,1s-1.201-0.418-1.408-1
		h-1.383c-0.207,0.582-0.756,1-1.408,1c-0.653,0-1.203-0.418-1.408-1h-1.385c-0.205,0.582-0.756,1-1.408,1
		c-0.651,0-1.202-0.418-1.409-1h-1.382c-0.207,0.582-0.758,1-1.409,1c-0.652,0-1.201-0.418-1.408-1H9.107C8.9,0.582,8.352,1,7.701,1
		C7.049,1,6.498,0.582,6.293,0H4.908C4.701,0.582,4.152,1,3.5,1S2.299,0.582,2.092,0H0v2.092C0.582,2.298,1,2.848,1,3.5
		c0,0.651-0.418,1.201-1,1.408v1.384C0.582,6.498,1,7.047,1,7.7c0,0.651-0.418,1.2-1,1.407v1.385c0.582,0.206,1,0.756,1,1.408
		c0,0.651-0.418,1.201-1,1.408v1.383c0.582,0.207,1,0.758,1,1.409c0,0.652-0.418,1.202-1,1.408v1.384c0.582,0.206,1,0.754,1,1.408
		c0,0.653-0.418,1.202-1,1.408v1.384c0.582,0.206,1,0.756,1,1.408s-0.418,1.202-1,1.408V28h2.092c0.207-0.582,0.756-1,1.408-1
		s1.201,0.418,1.408,1h1.385c0.205-0.582,0.756-1,1.408-1c0.651,0,1.199,0.418,1.406,1h1.385c0.207-0.582,0.756-1,1.408-1
		c0.651,0,1.202,0.418,1.409,1h1.382c0.207-0.582,0.758-1,1.409-1c0.652,0,1.203,0.418,1.408,1h1.385c0.205-0.582,0.755-1,1.408-1
		c0.652,0,1.201,0.418,1.408,1h1.383c0.207-0.582,0.756-1,1.408-1s1.203,0.418,1.408,1H28v-2.092c-0.58-0.206-1-0.756-1-1.408
		s0.42-1.202,1-1.408v-1.384c-0.58-0.206-1-0.755-1-1.408c0-0.654,0.42-1.202,1-1.408v-1.384c-0.58-0.206-1-0.756-1-1.408
		c0-0.651,0.42-1.202,1-1.409v-1.383c-0.58-0.207-1-0.757-1-1.408c0-0.652,0.42-1.202,1-1.408V9.107C27.42,8.9,27,8.351,27,7.7
		c0-0.653,0.42-1.202,1-1.408V4.908c-0.58-0.207-1-0.757-1-1.408C27,2.848,27.42,2.298,28,2.092 M25,25H3V3h22V25z"/>
</g>
</svg>
