<?xml version="1.0" encoding="utf-8"?>
<svg version="1.1" id="Layer_1" xmlns="http://www.w3.org/2000/svg" xmlns:xlink="http://www.w3.org/1999/xlink" x="0px" y="0px" viewBox="0 0 28 28"
	 enable-background="new 0 0 28 28" xml:space="preserve">

		<g>
			<defs>
				<rect id="SVGID_1_" width="28" height="28"/>
			</defs>
			<clipPath id="SVGID_2_">
				<use xlink:href="#SVGID_1_"  overflow="visible"/>
			</clipPath>
			<path clip-path="url(#SVGID_2_)" fill="#231F20" d="M27.784,12.378c-0.342-0.431-0.975-0.503-1.405-0.161L25,13.313v-2.312H3
				v2.312l-1.379-1.096c-0.431-0.342-1.063-0.27-1.405,0.161c-0.342,0.431-0.27,1.063,0.161,1.405L3,15.868v12.133h22V15.868
				l2.623-2.085C28.054,13.441,28.126,12.809,27.784,12.378"/>
			<path clip-path="url(#SVGID_2_)" fill="#231F20" d="M3,10.001h22c0.55,0,1-0.45,1-1c0-0.55-0.45-1-1-1h-0.341
				c-1.017-2.973-4.234-4.977-7.749-5.699C16.594,0.984,15.415,0.001,14,0.001s-2.594,0.983-2.91,2.301
				C7.575,3.024,4.358,5.028,3.341,8.001H3c-0.55,0-1,0.45-1,1C2,9.551,2.45,10.001,3,10.001 M14,1.001
				c0.785,0,1.459,0.459,1.786,1.119C15.19,2.045,14.592,2.001,14,2.001s-1.19,0.044-1.786,0.119C12.541,1.46,13.215,1.001,14,1.001
				"/>
		</g>

</svg>
