<?xml version="1.0" encoding="utf-8"?>
<svg version="1.1" id="Layer_1" xmlns="http://www.w3.org/2000/svg" xmlns:xlink="http://www.w3.org/1999/xlink" x="0px" y="0px" viewBox="0 0 28 28"
	 enable-background="new 0 0 28 28" xml:space="preserve">

		<g>
			<defs>
				<rect id="SVGID_1_" width="28" height="28"/>
			</defs>
			<clipPath id="SVGID_2_">
				<use xlink:href="#SVGID_1_"  overflow="visible"/>
			</clipPath>
			<path clip-path="url(#SVGID_2_)" fill="#231F20" d="M27.926,11.46c0.418-3.87-0.928-7.965-4.109-10.159
				c-3.457-2.383-7.51-0.776-10.174,2.137c-2.785,3.043-4.311,7.237-2.438,11.201c1.137-1.631,1.817-3.442,2.815-5.153
				c1.299-2.224,3.695-5.539,6.576-5.132c3.533,0.497,4.146,5.469,3.301,8.298c-0.567,1.897-1.664,3.498-2.989,4.895
				c-0.316,0.335-0.646,0.659-0.988,0.968c-0.498,0.446-0.504,0.724-1.017,0.158c-0.67-0.741-1.321-1.502-1.946-2.284
				c-0.408,0.71-0.855,1.395-1.328,2.059c-0.318,0.446-0.65,0.883-0.988,1.312c0.314,0.383,0.631,0.763,0.955,1.134
				c-1.045,0.213-2.129,0.213-3.174,0c1.811-2.061,3.635-4.316,4.691-6.923c0.932-2.301,0.706-4.432-0.271-6.696
				c-2.066,2.157-2.812,4.995-4.488,7.399c-0.918,1.313-1.905,2.576-3,3.731c-0.59,0.647-0.573,0.724-1.256,0.11
				c-0.707-0.638-1.379-1.339-1.979-2.089c-1.91-2.395-3.103-5.893-1.957-8.943c1.221-3.242,4.217-3.885,6.756-1.822
				c0.637-1.194,1.436-2.297,2.362-3.261c-2.104-1.802-4.973-2.984-7.641-1.893C3.252,1.482,1.442,3.713,0.612,6.221
				C-1.316,12.027,1.572,18,5.742,21.785l-2.636,2.692c-0.821,0.838-0.807,2.183,0.033,3.004c0.412,0.405,0.949,0.607,1.486,0.607
				c0.551,0,1.102-0.213,1.518-0.639l3.154-3.22c0.162,0.073,0.289,0.129,0.365,0.163c0.526,0.224,1.067,0.41,1.618,0.552
				c1.925,0.498,3.972,0.457,5.876-0.117c0.407-0.122,0.807-0.267,1.198-0.435c0.058-0.025,0.154-0.056,0.263-0.09l3.082,3.147
				c0.416,0.426,0.969,0.639,1.52,0.639c0.535,0,1.072-0.202,1.486-0.607c0.838-0.821,0.854-2.166,0.032-3.004l-2.551-2.607
				C25.168,19.201,27.475,15.628,27.926,11.46"/>
		</g>

</svg>
