<?xml version="1.0" encoding="utf-8"?>
<svg version="1.1" id="Layer_1" xmlns="http://www.w3.org/2000/svg" xmlns:xlink="http://www.w3.org/1999/xlink" x="0px" y="0px"
	 viewBox="0 0 28 28" enable-background="new 0 0 28 28" xml:space="preserve">
<polygon points="18,28 22.999,23 18.001,22.999 "/>
<path d="M8,19h12v1H8V19z M8,16.001h12v1H8V16.001z M5,14v5v2v7h12v-6h6v-8H5z"/>
<polygon points="6,0 5,4 23,4 21.999,0 "/>
<g>
	<defs>
		<rect id="SVGID_1_" width="28" height="28"/>
	</defs>
	<clipPath id="SVGID_2_">
		<use xlink:href="#SVGID_1_"  overflow="visible"/>
	</clipPath>
	<path clip-path="url(#SVGID_2_)" d="M0,5v12h4v-4h20v4h4V5H0z M4.501,10C3.672,10,3,9.33,3,8.502C3,7.674,3.672,7,4.501,7
		C5.329,7,6,7.674,6,8.502C6,9.33,5.329,10,4.501,10 M8.501,10C7.673,10,7,9.33,7,8.502C7,7.674,7.673,7,8.501,7
		C9.327,7,10,7.674,10,8.502C10,9.33,9.327,10,8.501,10"/>
</g>
</svg>
