<?xml version="1.0" encoding="utf-8"?>
<svg version="1.1" id="Layer_1" xmlns="http://www.w3.org/2000/svg" xmlns:xlink="http://www.w3.org/1999/xlink" x="0px" y="0px"
	 viewBox="0 0 28 28" enable-background="new 0 0 28 28" xml:space="preserve">
<g>
	<defs>
		<rect id="SVGID_1_" width="28" height="28"/>
	</defs>
	<clipPath id="SVGID_2_">
		<use xlink:href="#SVGID_1_"  overflow="visible"/>
	</clipPath>
	<path clip-path="url(#SVGID_2_)" d="M26.041,3.199c0.259,0,0.515-0.117,0.687-0.342l1.083-1.407c0.3-0.388,0.235-0.952-0.144-1.258
		c-0.38-0.307-0.929-0.239-1.23,0.149l-1.083,1.407C25.056,2.137,25.12,2.7,25.5,3.006C25.66,3.135,25.851,3.199,26.041,3.199"/>
	<path clip-path="url(#SVGID_2_)" d="M23.19,4.562l-1.084,1.408c-0.299,0.389-0.233,0.951,0.146,1.258
		c0.16,0.13,0.351,0.192,0.541,0.192c0.258,0,0.515-0.116,0.687-0.34l1.084-1.409c0.299-0.387,0.233-0.951-0.145-1.257
		C24.039,4.11,23.489,4.175,23.19,4.562"/>
	<path clip-path="url(#SVGID_2_)" d="M19.939,8.785l-1.082,1.407c-0.299,0.39-0.233,0.953,0.146,1.26
		c0.161,0.128,0.352,0.191,0.541,0.191c0.258,0,0.515-0.117,0.688-0.341l1.083-1.408c0.298-0.388,0.233-0.953-0.146-1.259
		C20.788,8.33,20.239,8.398,19.939,8.785"/>
	<path clip-path="url(#SVGID_2_)" d="M26.729,25.142c-0.298-0.386-0.849-0.454-1.228-0.148c-0.38,0.306-0.445,0.87-0.146,1.258
		l1.083,1.408c0.173,0.223,0.43,0.34,0.689,0.34c0.189,0,0.379-0.063,0.541-0.192c0.378-0.306,0.444-0.87,0.144-1.258L26.729,25.142
		z"/>
	<path clip-path="url(#SVGID_2_)" d="M23.48,20.92c-0.299-0.389-0.848-0.454-1.228-0.149c-0.379,0.307-0.445,0.87-0.146,1.258
		l1.084,1.408c0.173,0.224,0.429,0.34,0.688,0.34c0.189,0,0.379-0.061,0.541-0.191c0.378-0.307,0.444-0.87,0.145-1.258L23.48,20.92z
		"/>
	<path clip-path="url(#SVGID_2_)" d="M20.232,16.697c-0.3-0.387-0.848-0.453-1.229-0.149c-0.379,0.306-0.445,0.87-0.146,1.259
		l1.082,1.408c0.174,0.223,0.43,0.34,0.689,0.34c0.189,0,0.38-0.063,0.541-0.191c0.379-0.306,0.444-0.87,0.146-1.259L20.232,16.697z
		"/>
	<path clip-path="url(#SVGID_2_)" d="M0,22h13v-3.2V9.2V7.598V6H0V22z M4,10.799c0-0.276,0.224-0.5,0.5-0.5s0.5,0.224,0.5,0.5v6.402
		c0,0.277-0.224,0.5-0.5,0.5S4,17.478,4,17.201V10.799z M2,10.799c0-0.276,0.224-0.5,0.5-0.5s0.5,0.224,0.5,0.5v6.402
		c0,0.277-0.224,0.5-0.5,0.5S2,17.478,2,17.201V10.799z"/>
	<rect x="14" y="9" clip-path="url(#SVGID_2_)" width="2.062" height="10"/>
</g>
</svg>
