<?xml version="1.0" encoding="utf-8"?>
<svg version="1.1" id="Layer_1" xmlns="http://www.w3.org/2000/svg" xmlns:xlink="http://www.w3.org/1999/xlink" x="0px" y="0px"
	 viewBox="0 0 28 28" enable-background="new 0 0 28 28" xml:space="preserve">
<g>
	<defs>
		<rect id="SVGID_1_" width="28" height="28"/>
	</defs>
	<clipPath id="SVGID_2_">
		<use xlink:href="#SVGID_1_"  overflow="visible"/>
	</clipPath>
	<path clip-path="url(#SVGID_2_)" d="M12.883,24.774c-1.858,0-3.19-1.509-3.19-3.366c0-1.856,1.332-3.367,3.19-3.367
		c0.439,0,1.117,0.09,1.117,0.268V14h-3.732c-0.502,0-0.907-0.197-0.907-0.698c0-0.145,0.09-0.298,0.086-0.3
		c0.153-0.309,0.246-0.599,0.246-0.968c0-1.287-1.045-2.305-2.332-2.305c-1.285,0-2.33,1.057-2.33,2.344
		c0,0.356,0.086,0.698,0.231,1c0,0,0.101,0.07,0.101,0.226C5.363,13.8,4.957,14,4.457,14H0v14h14v-3.492
		C14,24.686,13.324,24.774,12.883,24.774 M3.996,11.896c0-1.857,1.51-3.272,3.365-3.272c1.858,0,3.367,1.368,3.367,3.225
		c0,0.441-0.089,1.151-0.267,1.151H14v-2.67c0-0.5,0.582-0.906,1.084-0.906c0.141,0,0.48,0.087,0.492,0.087
		c0.309,0.151,0.695,0.244,1.065,0.244c1.287,0,2.351-1.043,2.351-2.331c0-1.286-1.031-2.33-2.318-2.33
		c-0.356,0-0.686,0.088-0.989,0.23c0,0-0.449,0.102-0.605,0.102C14.58,5.426,14,5.02,14,4.52V0H0v13h4.262
		C4.084,13,3.996,12.338,3.996,11.896 M24.25,14c-0.5,0-0.906,0.613-0.906,1.114c0,0.157,0.103,0.534,0.103,0.534
		c0.143,0.303,0.229,0.691,0.229,1.046c0,1.288-1.043,2.357-2.33,2.357c-1.287,0-2.33-1.03-2.33-2.318
		c0-0.367,0.091-0.704,0.244-1.014c-0.004-0.001,0.086-0.463,0.086-0.608c0-0.501-0.405-1.111-0.907-1.111H15v4.503
		c0,0.501-0.211,0.906-0.711,0.906c-0.143,0-0.295-0.086-0.305-0.086h0.047c-0.31-0.152-0.629-0.246-0.996-0.246
		c-1.287,0-2.318,1.044-2.318,2.331c0,1.287,1.049,2.33,2.336,2.33c0.357,0,0.693-0.087,0.996-0.228c0,0,0.082-0.103,0.238-0.103
		c0.5,0,0.713,0.407,0.713,0.907V28h13V14H24.25z"/>
</g>
</svg>
