<?xml version="1.0" encoding="utf-8"?>
<svg version="1.1" id="Layer_1" xmlns="http://www.w3.org/2000/svg" xmlns:xlink="http://www.w3.org/1999/xlink" x="0px" y="0px"
	 viewBox="0 0 28 28" enable-background="new 0 0 28 28" xml:space="preserve">
<g>
	<defs>
		<rect id="SVGID_1_" width="28" height="28"/>
	</defs>
	<clipPath id="SVGID_2_">
		<use xlink:href="#SVGID_1_"  overflow="visible"/>
	</clipPath>
	<path clip-path="url(#SVGID_2_)" d="M23.898,4.102C21.165,1.368,17.583,0,14,0S6.834,1.368,4.1,4.1
		c-5.468,5.469-5.468,14.332,0,19.799C6.834,26.633,10.417,28,14,28s7.166-1.367,9.898-4.101
		C29.367,18.432,29.366,9.569,23.898,4.102 M14,22c-0.811,0-1.5-0.687-1.5-1.5c0-0.812,0.689-1.5,1.5-1.5c0.812,0,1.5,0.688,1.5,1.5
		C15.5,21.313,14.812,22,14,22 M17.462,14.516C15.782,15.33,15.06,15.799,15,17h-2c0-1.934,0.121-3.135,2.381-4.195
		c1.001-0.468,1.301-0.794,1.301-1.528c0-0.937-0.68-1.487-2.381-1.487c-1.52,0-2.6,0.734-3.501,1.711L9,9.363
		C10.22,8.059,11.961,7,14.301,7c3.061,0,5.181,1.324,5.181,4.155C19.482,13.049,18.422,14.047,17.462,14.516"/>
</g>
</svg>
