<?xml version="1.0" encoding="utf-8"?>
<svg version="1.1" id="Layer_1" xmlns="http://www.w3.org/2000/svg" xmlns:xlink="http://www.w3.org/1999/xlink" x="0px" y="0px" viewBox="0 0 28 28"
	 enable-background="new 0 0 28 28" xml:space="preserve">

		<g>
			<defs>
				<rect id="SVGID_1_" width="28" height="28"/>
			</defs>
			<clipPath id="SVGID_2_">
				<use xlink:href="#SVGID_1_"  overflow="visible"/>
			</clipPath>
			<path clip-path="url(#SVGID_2_)" fill="#231F20" d="M22.029,12.899l2.426-7.466c0.85-2.615-0.637-5.042-3.304-5.392
				C20.943,0.013,20.738,0,20.535,0c-2.402,0-4.404,1.862-4.58,4.392L15.426,12h-2.851l-0.529-7.608C11.87,1.862,9.868,0,7.466,0
				C7.263,0,7.058,0.014,6.85,0.041c-2.667,0.35-4.154,2.777-3.305,5.392l2.426,7.466C3.603,14.031,2,16.118,2,18.5
				c0,2.73,2.102,5.076,5.054,6.035C7.318,26.489,8.974,28,11,28c1.202,0,2.267-0.54,3-1.379C14.734,27.46,15.799,28,17,28
				c2.026,0,3.683-1.511,3.946-3.465C23.898,23.576,26,21.23,26,18.5C26,16.118,24.398,14.031,22.029,12.899 M6.399,4.506
				C6.262,4.084,6.277,3.708,6.442,3.447C6.628,3.152,6.979,3.05,7.241,3.015C7.317,3.005,7.392,3,7.466,3
				c0.855,0,1.523,0.673,1.587,1.6l0.516,7.418c-0.24,0.011-0.477,0.029-0.711,0.057L6.399,4.506z M10.5,19
				C9.672,19,9,18.329,9,17.5c0-0.828,0.672-1.5,1.5-1.5c0.829,0,1.5,0.672,1.5,1.5C12,18.329,11.329,19,10.5,19 M14,23l-2.666-2
				h5.333L14,23z M17.5,19c-0.828,0-1.5-0.671-1.5-1.5c0-0.828,0.672-1.5,1.5-1.5c0.829,0,1.5,0.672,1.5,1.5
				C19,18.329,18.329,19,17.5,19 M21.602,4.506l-2.459,7.569c-0.234-0.028-0.471-0.046-0.711-0.057L18.948,4.6
				C19.012,3.673,19.68,3,20.535,3c0.074,0,0.149,0.005,0.225,0.015c0.262,0.035,0.613,0.137,0.799,0.432
				C21.724,3.708,21.739,4.084,21.602,4.506"/>
		</g>

</svg>
