<?xml version="1.0" encoding="utf-8"?>
<svg version="1.1" id="Layer_1" xmlns="http://www.w3.org/2000/svg" xmlns:xlink="http://www.w3.org/1999/xlink" x="0px" y="0px" viewBox="0 0 28 28"
	 enable-background="new 0 0 28 28" xml:space="preserve">

		<g>
			<defs>
				<rect id="SVGID_1_" width="28" height="28"/>
			</defs>
			<clipPath id="SVGID_2_">
				<use xlink:href="#SVGID_1_"  overflow="visible"/>
			</clipPath>
			<path clip-path="url(#SVGID_2_)" fill="#231F20" d="M14,13c0.171,0,0.335,0.06,0.487,0.148l0.953-1.668
				c-0.435-0.25-0.924-0.394-1.44-0.394c-0.778,0-1.51,0.303-2.06,0.854c-1.136,1.135-1.136,2.985-0.001,4.121
				c0.551,0.55,1.283,0.853,2.061,0.853c0.778,0,1.51-0.303,2.06-0.853c0.949-0.949,1.094-2.388,0.46-3.5l-1.667,0.952
				c0.218,0.382,0.18,0.868-0.146,1.194C14.512,14.902,14.256,15,14,15c-0.256,0-0.512-0.098-0.707-0.293
				c-0.391-0.391-0.391-1.023,0-1.414C13.488,13.098,13.744,13,14,13"/>
			<path clip-path="url(#SVGID_2_)" fill="#231F20" d="M7.182,15.543c0.28,1.249,0.898,2.438,1.869,3.407
				C10.373,20.272,12.131,21,14,21c1.87,0,3.628-0.728,4.95-2.05c2.278-2.278,2.647-5.747,1.122-8.42l-2.687,1.535
				c0.855,1.495,0.659,3.426-0.617,4.703c-0.764,0.764-1.766,1.146-2.768,1.146s-2.003-0.382-2.767-1.146
				c-1.529-1.53-1.529-4.006,0-5.536c0.764-0.764,1.765-1.146,2.767-1.146c0.671,0,1.335,0.186,1.935,0.529l1.537-2.689
				C16.425,7.325,15.239,7,14,7c-1.869,0-3.627,0.727-4.949,2.05c-0.801,0.801-1.36,1.751-1.691,2.76
				c0.229,0.097,0.444,0.236,0.63,0.422c0.781,0.782,0.781,2.047,0,2.828C7.756,15.295,7.477,15.449,7.182,15.543"/>
			<path clip-path="url(#SVGID_2_)" fill="#231F20" d="M19.5,22.5c0-1.104,0.895-2,2-2c0.229,0,0.444,0.047,0.649,0.117
				C23.618,18.811,24.5,16.509,24.5,14c0-1.896-0.51-3.671-1.39-5.206l-2.17,1.24c1.748,3.056,1.326,7.014-1.283,9.623
				C18.095,21.219,16.047,22,14,22s-4.095-0.781-5.657-2.343c-1.153-1.152-1.877-2.57-2.179-4.055
				c-0.367-0.078-0.718-0.256-1.003-0.541c-0.781-0.782-0.781-2.047,0-2.829c0.333-0.333,0.754-0.514,1.187-0.564
				c0.37-1.217,1.033-2.363,1.995-3.325C9.905,6.781,11.953,6,14,6c1.372,0,2.74,0.359,3.965,1.061l1.241-2.171
				c-1.536-0.88-3.31-1.39-5.207-1.39C8.2,3.5,3.5,8.201,3.5,14s4.7,10.5,10.501,10.5c2.036,0,3.931-0.59,5.541-1.593
				C19.515,22.775,19.5,22.64,19.5,22.5"/>
			<path clip-path="url(#SVGID_2_)" fill="#231F20" d="M23.899,4.101C21.165,1.367,17.583,0,14,0S6.834,1.367,4.101,4.101
				c-5.468,5.466-5.468,14.331,0,19.798C6.835,26.633,10.417,28,14,28s7.166-1.367,9.899-4.101
				C29.367,18.433,29.367,9.568,23.899,4.101 M23.5,22.5c0,1.105-0.895,2-2,2c-0.416,0-0.802-0.127-1.121-0.344
				C18.484,25.351,16.294,26,14,26c-3.205,0-6.218-1.248-8.485-3.515C3.248,20.219,2,17.205,2,14s1.248-6.219,3.515-8.485
				C7.781,3.248,10.795,2,14,2s6.218,1.248,8.485,3.515C24.752,7.781,26,10.795,26,14c0,2.808-0.958,5.468-2.719,7.607
				C23.417,21.878,23.5,22.178,23.5,22.5"/>
		</g>

</svg>
