<?xml version="1.0" encoding="utf-8"?>
<svg version="1.1" id="Layer_1" xmlns="http://www.w3.org/2000/svg" xmlns:xlink="http://www.w3.org/1999/xlink" x="0px" y="0px"
	 viewBox="0 0 28 28" enable-background="new 0 0 28 28" xml:space="preserve">
<g>
	<defs>
		<rect id="SVGID_1_" width="28" height="28"/>
	</defs>
	<clipPath id="SVGID_2_">
		<use xlink:href="#SVGID_1_"  overflow="visible"/>
	</clipPath>
	<path clip-path="url(#SVGID_2_)" d="M14,12c-1.103,0-2,0.895-2,2c0,1.104,0.897,2,2,2c1.106,0,2-0.896,2-2
		C16,12.895,15.106,12,14,12 M14.002,0C6.27,0,0,6.268,0,14c0,7.731,6.27,14,14.002,14C21.733,28,28,21.731,28,14
		C28,6.268,21.733,0,14.002,0 M20.379,24.069l-3.473-6.014C16.086,18.644,15.088,19,14,19c-1.086,0-2.084-0.356-2.904-0.945
		l-3.473,6.014c-3.191-2.028-5.359-5.528-5.535-9.541h6.967C9.035,14.352,9,14.18,9,14c0-2.026,1.211-3.759,2.941-4.545L8.467,3.438
		c1.656-0.869,3.537-1.364,5.535-1.364c1.994,0,3.877,0.495,5.533,1.366l-3.474,6.015C17.791,10.241,19,11.975,19,14
		c0,0.18-0.033,0.352-0.053,0.528h6.967C25.736,18.541,23.57,22.041,20.379,24.069"/>
</g>
</svg>
