<?xml version="1.0" encoding="utf-8"?>
<svg version="1.1" id="Layer_1" xmlns="http://www.w3.org/2000/svg" xmlns:xlink="http://www.w3.org/1999/xlink" x="0px" y="0px" viewBox="0 0 28 28"
	 enable-background="new 0 0 28 28" xml:space="preserve">

		<g>
			<defs>
				<rect id="SVGID_1_" width="28" height="28"/>
			</defs>
			<clipPath id="SVGID_2_">
				<use xlink:href="#SVGID_1_"  overflow="visible"/>
			</clipPath>
			<path clip-path="url(#SVGID_2_)" fill="#231F20" d="M13,0.001H6c-3.3,0-6,2.7-6,6v16c0,3.3,2.7,6,6,6h7c3.3,0,6-2.7,6-6v-16
				C19,2.701,16.3,0.001,13,0.001 M15,22.001c0,1.084-0.916,2-2,2H6c-1.084,0-2-0.916-2-2v-16c0-1.084,0.916-2,2-2h7
				c1.084,0,2,0.916,2,2V22.001z"/>
			<path clip-path="url(#SVGID_2_)" fill="#231F20" d="M26,12.001v-10c0.55,0,1-0.45,1-1c0-0.55-0.45-1-1-1h-3c-0.55,0-1,0.45-1,1
				c0,0.55,0.45,1,1,1v10l-2,8v6c0,1.1,0.9,2,2,2h3c1.1,0,2-0.9,2-2v-6L26,12.001z"/>
			<rect x="5" y="9.001" clip-path="url(#SVGID_2_)" fill="#231F20" width="9" height="3"/>
			<rect x="5" y="16.001" clip-path="url(#SVGID_2_)" fill="#231F20" width="9" height="3"/>
		</g>

</svg>
