<?xml version="1.0" encoding="utf-8"?>
<svg version="1.1" id="Layer_1" xmlns="http://www.w3.org/2000/svg" xmlns:xlink="http://www.w3.org/1999/xlink" x="0px" y="0px"
	 viewBox="0 0 28 28" enable-background="new 0 0 28 28" xml:space="preserve">
<g>
	<defs>
		<rect id="SVGID_1_" width="28" height="28"/>
	</defs>
	<clipPath id="SVGID_2_">
		<use xlink:href="#SVGID_1_"  overflow="visible"/>
	</clipPath>
	<path clip-path="url(#SVGID_2_)" d="M23,18c-0.395,0-0.774,0.057-1.144,0.144C21.231,15.205,18.625,13,15.5,13
		C11.909,13,9,15.91,9,19.5c0,0.169,0.013,0.334,0.025,0.5H7.53c-0.011-0.167-0.03-0.331-0.03-0.5c0-1.101,0.224-2.149,0.628-3.104
		C7.466,16.144,6.75,16,6,16c-3.313,0-6,2.687-6,6c0,3.314,2.687,6,6,6h3h14c2.762,0,5-2.238,5-5S25.762,18,23,18"/>
	<path clip-path="url(#SVGID_2_)" d="M5.016,12c0-4.963,4.037-9,9-9s9,4.037,9,9v5.001c1.094,0.003,2.117,0.304,3,0.82V12
		c0-6.626-5.373-12-12-12s-12,5.374-12,12v4.252c0.876-0.609,1.897-1.018,3-1.175V12z"/>
	<path clip-path="url(#SVGID_2_)" d="M22.016,15.815V12c0-4.412-3.589-8-8-8s-8,3.588-8,8v3.001c0.839,0.002,1.669,0.156,2.468,0.46
		l0.532,0.203V12c0-2.757,2.243-5,5-5s5,2.243,5,5v0.896C20.263,13.565,21.309,14.574,22.016,15.815"/>
</g>
</svg>
