<?xml version="1.0" encoding="utf-8"?>
<svg version="1.1" id="Layer_1" xmlns="http://www.w3.org/2000/svg" xmlns:xlink="http://www.w3.org/1999/xlink" x="0px" y="0px"
	 viewBox="0 0 28 28" enable-background="new 0 0 28 28" xml:space="preserve">
<g>
	<defs>
		<rect id="SVGID_1_" width="28" height="28"/>
	</defs>
	<clipPath id="SVGID_2_">
		<use xlink:href="#SVGID_1_"  overflow="visible"/>
	</clipPath>
	<path clip-path="url(#SVGID_2_)" d="M18.638,0c-0.246,0-0.495,0.016-0.733,0.038c-0.877,0.068-1.719,0.257-2.51,0.55
		c-0.013,0.004-0.025,0.01-0.041,0.014c-0.242,0.092-0.478,0.189-0.711,0.301c-0.019,0.008-0.041,0.019-0.062,0.029
		c-0.229,0.109-0.451,0.227-0.668,0.354c-0.018,0.011-0.035,0.021-0.051,0.033c-1.125,0.666-2.095,1.562-2.851,2.623
		c-0.147,0.207-0.282,0.42-0.413,0.639c-0.011,0.021-0.027,0.043-0.039,0.066c-0.127,0.215-0.242,0.435-0.349,0.66
		c-0.012,0.022-0.022,0.045-0.033,0.067c-0.11,0.232-0.209,0.468-0.299,0.71C9.874,6.096,9.87,6.108,9.866,6.118
		C9.63,6.753,9.462,7.417,9.37,8.111c-0.023,0.17-0.043,0.342-0.057,0.515C9.292,8.869,9.276,9.111,9.276,9.358
		c0,1.834,0.535,3.537,1.446,4.98l-4.549,4.555c-0.473-0.158-0.975-0.25-1.498-0.25c-2.582,0-4.676,2.096-4.676,4.68
		c0,2.582,2.094,4.677,4.676,4.677s4.673-2.095,4.673-4.677c0-0.526-0.089-1.026-0.247-1.496l4.55-4.555
		c1.444,0.91,3.145,1.445,4.975,1.445c0.246-0.002,0.488-0.015,0.728-0.037c0.875-0.068,1.715-0.26,2.508-0.551
		c0.014-0.005,0.026-0.009,0.035-0.013c0.242-0.092,0.479-0.19,0.709-0.299c0.024-0.012,0.045-0.022,0.067-0.033
		c0.226-0.11,0.447-0.225,0.662-0.35c0.021-0.014,0.043-0.025,0.064-0.039c1.34-0.799,2.461-1.922,3.258-3.264l0.035-0.058
		c0.125-0.215,0.242-0.436,0.35-0.662c0.012-0.024,0.023-0.045,0.035-0.069c0.107-0.23,0.207-0.465,0.297-0.705
		c0.006-0.015,0.01-0.031,0.015-0.047c0.092-0.248,0.174-0.5,0.245-0.759l0.002-0.002c0.107-0.397,0.238-0.805,0.293-1.223
		l0.047,0.002v-0.012c0-0.166-0.004-0.334,0.009-0.504c0.022-0.242,0.014-0.484,0.014-0.734C27.999,4.19,23.802,0,18.638,0
		 M4.675,25.321c-1.102,0-1.998-0.897-1.998-1.999c0-1.105,0.896-2.001,1.998-2.001c1.099,0,1.998,0.896,1.998,2.001
		C6.673,24.424,5.774,25.321,4.675,25.321 M18.626,16.642c-0.262,0-0.52-0.018-0.775-0.043l-6.459-6.467
		c-0.026-0.254-0.041-0.511-0.041-0.775c0-0.236,0.013-0.469,0.035-0.699l7.941,7.947C19.097,16.628,18.864,16.642,18.626,16.642
		 M22.544,15.486L12.505,5.435c0.568-0.883,1.318-1.637,2.203-2.205l10.039,10.051C24.181,14.164,23.429,14.917,22.544,15.486
		 M25.868,10.06l-7.943-7.949c0.23-0.024,0.464-0.037,0.701-0.037c0.262,0,0.521,0.015,0.775,0.043l6.459,6.464
		c0.028,0.256,0.043,0.514,0.043,0.776C25.903,9.596,25.889,9.83,25.868,10.06"/>
</g>
</svg>
