<?xml version="1.0" encoding="utf-8"?>
<svg version="1.1" id="Layer_1" xmlns="http://www.w3.org/2000/svg" xmlns:xlink="http://www.w3.org/1999/xlink" x="0px" y="0px" viewBox="0 0 28 28"
	 enable-background="new 0 0 28 28" xml:space="preserve">

		<g>
			<defs>
				<rect id="SVGID_1_" width="28" height="28"/>
			</defs>
			<clipPath id="SVGID_2_">
				<use xlink:href="#SVGID_1_"  overflow="visible"/>
			</clipPath>
			<path clip-path="url(#SVGID_2_)" fill="#231F20" d="M2,0v5.526c1.784-1.379,4.225-2.3,6.962-2.488L2,0z"/>
			<path clip-path="url(#SVGID_2_)" fill="#231F20" d="M26.5,9.5c-0.652,0-1.201,0.419-1.408,1H24v1h1.092
				c0.207,0.581,0.756,1,1.408,1c0.828,0,1.5-0.672,1.5-1.5C28,10.172,27.328,9.5,26.5,9.5"/>
			<path clip-path="url(#SVGID_2_)" fill="#231F20" d="M22,7c-0.553,0-1,0.447-1,1v6c0,0.553,0.447,0.999,1,0.999
				c0.553,0,1-0.446,1-0.999V8C23,7.447,22.553,7,22,7"/>
			<path clip-path="url(#SVGID_2_)" fill="#231F20" d="M19,5c-0.553,0-1,0.447-1,1v0.813C16.176,5.108,13.277,4,10,4
				C4.477,4,0,7.135,0,11c0,2.363,1.678,4.449,4.241,5.716L0.24,24.095c-0.523,0.967-0.162,2.186,0.805,2.711l1.759,0.953
				c0.966,0.526,2.183,0.162,2.704-0.806l3.783-7.043c0.443,0.892,1.355,1.511,2.42,1.511c0.469,0,0.904-0.131,1.289-0.34
				c-1.081-0.527-1.832-1.628-1.832-2.912c0-0.076,0.017-0.148,0.021-0.222c2.786-0.233,5.211-1.266,6.811-2.76v0.812
				c0,0.553,0.447,1,1,1c0.553,0,1-0.447,1-1V6C20,5.447,19.553,5,19,5 M9,10c0.553,0,1,0.448,1,1s-0.447,1-1,1
				c-0.553,0-1-0.448-1-1S8.447,10,9,10 M3,11c0-0.552,0.447-1,1-1s1,0.448,1,1s-0.447,1-1,1S3,11.552,3,11 M14,12
				c-0.553,0-1-0.448-1-1s0.447-1,1-1c0.553,0,1,0.448,1,1S14.553,12,14,12"/>
		</g>

</svg>
