<?xml version="1.0" encoding="utf-8"?>
<svg version="1.1" id="Layer_1" xmlns="http://www.w3.org/2000/svg" xmlns:xlink="http://www.w3.org/1999/xlink" x="0px" y="0px" viewBox="0 0 28 28"
	 enable-background="new 0 0 28 28" xml:space="preserve">

		<g>
			<defs>
				<rect id="SVGID_1_" width="28" height="28"/>
			</defs>
			<clipPath id="SVGID_2_">
				<use xlink:href="#SVGID_1_"  overflow="visible"/>
			</clipPath>
			<path clip-path="url(#SVGID_2_)" fill="#231F20" d="M16.99,12v3c0,1.104,0.896,2,2,2h1c1.105,0,2-0.896,2-2v-3
				c0-1.105-0.895-2-2-2h-1C17.886,10,16.99,10.895,16.99,12"/>
			<path clip-path="url(#SVGID_2_)" fill="#231F20" d="M25.99,12h-1c-1.104,0-2,0.895-2,2v3c0,1.104,0.896,2,2,2h1
				c1.105,0,2-0.896,2-2v-3C27.99,12.895,27.095,12,25.99,12"/>
			<path clip-path="url(#SVGID_2_)" fill="#231F20" d="M18.5,8.5h1c0-1.604-0.771-2.51-1.653-3c0.882-0.49,1.653-1.396,1.653-3h-1
				c0,2.409-2.239,2.498-2.5,2.5v1C16.102,6,18.5,6.028,18.5,8.5"/>
			<path clip-path="url(#SVGID_2_)" fill="#231F20" d="M24.99,20c-1.585,0-2.873-1.239-2.979-2.797C21.476,17.694,20.77,18,19.99,18
				h-1c-1.654,0-3-1.345-3-3V6H11V5h5V2.5C16,1.119,14.881,0,13.5,0c-0.922,0-1.719,0.505-2.153,1.248
				c-0.031-0.05-0.055-0.106-0.088-0.153C10.575,0.144,9.763,0.01,9.133,0H9.097L9.059,0.002C6.679,0.138,6.016,1.724,6,2.64
				C6.009,3.822,7.071,4.756,9.198,5.5C7.071,6.243,6.009,7.175,6,8.335c0.016,0.942,0.679,2.528,3.059,2.663L9.097,11h0.036
				c0.55-0.009,1.238-0.112,1.857-0.767V16c-3.993-2.127-8.24-2-8.49-2C1.119,14,0,15.119,0,16.5S1.119,19,2.5,19h0.472
				c0.201,0.002,3.952,1.016,7.043,3.992C11.99,27,15.681,28,19.49,28c4.694,0,8.5-3.806,8.5-8.5v-0.28
				c-0.532,0.48-1.229,0.78-2,0.78H24.99z M10.99,7.488c-0.025,0.743-0.226,1.387-0.546,1.837C10.056,9.866,9.667,9.991,9.117,10
				C7.155,9.888,7.005,8.615,7,8.343c0.008-0.998,1.946-1.816,3.939-2.326L10.99,6.03V7.488z M10.99,4.971l-0.051,0.013
				C8.946,4.474,7.008,3.656,7,2.657C7.005,2.386,7.155,1.113,9.117,1c0.55,0.009,0.939,0.134,1.327,0.675
				c0.32,0.45,0.521,1.095,0.546,1.838V4.971z"/>
		</g>

</svg>
