<?xml version="1.0" encoding="utf-8"?>
<svg version="1.1" id="Layer_1" xmlns="http://www.w3.org/2000/svg" xmlns:xlink="http://www.w3.org/1999/xlink" x="0px" y="0px" viewBox="0 0 28 28"
	 enable-background="new 0 0 28 28" xml:space="preserve">

		<g>
			<defs>
				<rect id="SVGID_1_" width="28" height="28"/>
			</defs>
			<clipPath id="SVGID_2_">
				<use xlink:href="#SVGID_1_"  overflow="visible"/>
			</clipPath>
			<path clip-path="url(#SVGID_2_)" fill="#231F20" d="M23.696,4.305c-3.041-3.041-7.244-4.594-11.531-4.259
				c-0.481,0.038-0.842,0.457-0.806,0.941c0.04,0.482,0.46,0.841,0.942,0.803c3.776-0.293,7.48,1.075,10.158,3.752
				c2.678,2.678,4.044,6.381,3.752,10.157c-0.036,0.48,0.322,0.901,0.802,0.939c0.268,0.02,0.514-0.079,0.688-0.254
				c0.143-0.141,0.237-0.336,0.255-0.55C28.289,11.546,26.736,7.345,23.696,4.305"/>
			<path clip-path="url(#SVGID_2_)" fill="#231F20" d="M13.165,3.995c-0.479,0.037-0.841,0.457-0.804,0.939
				c0.038,0.485,0.456,0.842,0.94,0.806c2.434-0.188,4.816,0.692,6.543,2.418c1.723,1.724,2.604,4.107,2.417,6.54
				c-0.035,0.484,0.323,0.903,0.805,0.938c0.267,0.023,0.512-0.078,0.686-0.252c0.143-0.144,0.237-0.334,0.254-0.55
				c0.226-2.944-0.841-5.829-2.925-7.913C18.993,4.832,16.107,3.767,13.165,3.995"/>
			<path clip-path="url(#SVGID_2_)" fill="#231F20" d="M14.018,9.74c-0.778-0.778-2.051-0.778-2.828,0L0.583,20.346
				c-0.778,0.778-0.778,2.051,0,2.829l4.243,4.243c0.777,0.777,2.05,0.777,2.828,0l10.607-10.607c0.778-0.778,0.778-2.051,0-2.829
				L14.018,9.74z M8.361,22.468c-0.781,0.781-2.047,0.781-2.828,0c-0.781-0.781-0.781-2.048,0-2.829s2.047-0.781,2.828,0
				C9.142,20.42,9.142,21.687,8.361,22.468 M13.311,17.518c-0.781,0.781-2.047,0.781-2.829,0c-0.78-0.781-0.78-2.047,0-2.828
				c0.782-0.781,2.048-0.781,2.829,0C14.092,15.471,14.092,16.737,13.311,17.518"/>
		</g>

</svg>
