<?xml version="1.0" encoding="utf-8"?>
<svg version="1.1" id="Layer_1" xmlns="http://www.w3.org/2000/svg" xmlns:xlink="http://www.w3.org/1999/xlink" x="0px" y="0px"
	 viewBox="0 0 28 28" enable-background="new 0 0 28 28" xml:space="preserve">
<g>
	<defs>
		<rect id="SVGID_1_" width="28" height="28"/>
	</defs>
	<clipPath id="SVGID_2_">
		<use xlink:href="#SVGID_1_"  overflow="visible"/>
	</clipPath>
	<path clip-path="url(#SVGID_2_)" d="M21.5,7C23.435,7,25,5.434,25,3.5C25,1.568,23.435,0,21.5,0C19.57,0,18,1.568,18,3.5
		C18,5.434,19.57,7,21.5,7 M5.5,7C7.435,7,9,5.434,9,3.5C9,1.568,7.435,0,5.5,0C3.57,0,2,1.568,2,3.5C2,5.434,3.57,7,5.5,7 M13,28h1
		V0h-1V28z M5.5,8C1.92,8,0,10.155,0,13v6h1v9h4v-6c0-0.275,0.225-0.5,0.5-0.5S6,21.725,6,22v6h4v-9h1l0.037-6
		C11.037,10.155,9.084,8,5.5,8 M25,16l2-3c0-2.845-1.934-5-5.518-5C17.902,8,16,10.155,16,13l2,3l-3,8h2v4h4v-4h1v4h4v-4h2L25,16z"
		/>
</g>
</svg>
