<?xml version="1.0" encoding="utf-8"?>
<svg version="1.1" id="Layer_1" xmlns="http://www.w3.org/2000/svg" xmlns:xlink="http://www.w3.org/1999/xlink" x="0px" y="0px"
	 viewBox="0 0 28 28" enable-background="new 0 0 28 28" xml:space="preserve">
<g>
	<defs>
		<rect id="SVGID_1_" width="28" height="28"/>
	</defs>
	<clipPath id="SVGID_2_">
		<use xlink:href="#SVGID_1_"  overflow="visible"/>
	</clipPath>
	<path clip-path="url(#SVGID_2_)" d="M14,0C6.268,0,0,6.266,0,14c0,7.733,6.268,14,14,14c7.734,0,14-6.267,14-14
		C28,6.266,21.734,0,14,0 M15,24.949V20h-2v4.949C7.725,24.473,3.527,20.276,3.051,15H8v-2H3.051C3.527,7.723,7.725,3.526,13,3.051
		V8h2V3.051c5.277,0.475,9.475,4.672,9.949,9.949H20v2h4.949C24.475,20.276,20.277,24.473,15,24.949"/>
</g>
</svg>
