<?xml version="1.0" encoding="utf-8"?>
<svg version="1.1" id="Layer_1" xmlns="http://www.w3.org/2000/svg" xmlns:xlink="http://www.w3.org/1999/xlink" x="0px" y="0px"
	 viewBox="0 0 28 28" enable-background="new 0 0 28 28" xml:space="preserve">
<g>
	<defs>
		<rect id="SVGID_1_" width="28" height="28"/>
	</defs>
	<clipPath id="SVGID_2_">
		<use xlink:href="#SVGID_1_"  overflow="visible"/>
	</clipPath>
	<path clip-path="url(#SVGID_2_)" d="M17.627,10.393h-0.944v1.412h0.916c0.567,0,0.791-0.243,0.791-0.719
		C18.39,10.673,18.185,10.393,17.627,10.393 M11.5,0C5.064,0,0,4.232,0,9.453V28h23V9.453C23,4.232,17.935,0,11.5,0 M6.123,15.266
		l-1.024-2.122H4.398v2.122H2.679V8.972h2.815c1.474,0,2.455,0.558,2.455,2.051c0,0.944-0.442,1.529-1.133,1.843l1.258,2.4H6.123z
		 M12.07,15.266h-1.781V8.972h1.781V15.266z M17.554,13.225h-0.871v2.041h-1.717V8.972h2.706c1.474,0,2.455,0.567,2.455,2.086
		C20.127,12.659,19.066,13.225,17.554,13.225 M5.449,10.393H4.398v1.376h1.024c0.566,0,0.791-0.252,0.791-0.702
		C6.213,10.673,5.998,10.393,5.449,10.393 M17.068,0.031C21.281,1.739,24,5.32,24,9.453V28h4V9.453
		C28,4.48,23.08,0.407,17.068,0.031"/>
</g>
</svg>
