<?xml version="1.0" encoding="utf-8"?>
<svg version="1.1" id="Layer_1" xmlns="http://www.w3.org/2000/svg" xmlns:xlink="http://www.w3.org/1999/xlink" x="0px" y="0px"
	 viewBox="0 0 28 28" enable-background="new 0 0 28 28" xml:space="preserve">
<g>
	<defs>
		<rect id="SVGID_1_" width="28" height="28"/>
	</defs>
	<clipPath id="SVGID_2_">
		<use xlink:href="#SVGID_1_"  overflow="visible"/>
	</clipPath>
	<path clip-path="url(#SVGID_2_)" d="M25,15.112c0-4.953-4.727-9.982-10.5-10.453V2.908c0.582-0.207,1-0.756,1-1.408
		C15.5,0.671,14.828,0,14,0s-1.5,0.671-1.5,1.5c0,0.653,0.418,1.202,1,1.408v1.751C7.727,5.13,3,10.159,3,15.112V19h22V15.112z
		 M9.723,15.763c-1.289,0-2.334-1.045-2.334-2.334c0-1.288,1.045-2.333,2.334-2.333c1.287,0,2.334,1.045,2.334,2.333
		C12.057,14.718,11.01,15.763,9.723,15.763 M18.277,15.763c-1.289,0-2.332-1.045-2.332-2.334c0-1.288,1.043-2.333,2.332-2.333
		s2.334,1.045,2.334,2.333C20.611,14.718,19.566,15.763,18.277,15.763 M0,28h28v-8H0V28z"/>
</g>
</svg>
