<?xml version="1.0" encoding="utf-8"?>
<svg version="1.1" id="Layer_1" xmlns="http://www.w3.org/2000/svg" xmlns:xlink="http://www.w3.org/1999/xlink" x="0px" y="0px" viewBox="0 0 28 28"
	 enable-background="new 0 0 28 28" xml:space="preserve">

		<g>
			<defs>
				<rect id="SVGID_1_" width="28" height="28"/>
			</defs>
			<clipPath id="SVGID_2_">
				<use xlink:href="#SVGID_1_"  overflow="visible"/>
			</clipPath>
			<path clip-path="url(#SVGID_2_)" fill="#231F20" d="M21,6c0-3.3-2.7-6-6-6h-2C9.7,0,7,2.7,7,6v6h14V6z M14,10
				c-2.209,0-4-1.791-4-4s1.791-4,4-4s4,1.791,4,4S16.209,10,14,10"/>
			<path clip-path="url(#SVGID_2_)" fill="#231F20" d="M14,3c-1.657,0-3,1.343-3,3c0,1.657,1.343,3,3,3s3-1.343,3-3
				C17,4.343,15.657,3,14,3 M14,7c-0.552,0-1-0.448-1-1s0.448-1,1-1c0.552,0,1,0.448,1,1S14.552,7,14,7"/>
			<path clip-path="url(#SVGID_2_)" fill="#231F20" d="M22,13H6l-3,2V8.908C3.581,8.702,4,8.152,4,7.5C4,6.672,3.328,6,2.5,6
				S1,6.672,1,7.5c0,0.652,0.419,1.202,1,1.408v6.759L0,17v6h28v-6L22,13z M4,21c-0.829,0-1.5-0.672-1.5-1.5S3.171,18,4,18
				c0.828,0,1.5,0.672,1.5,1.5S4.828,21,4,21 M24,21c-0.828,0-1.5-0.672-1.5-1.5S23.172,18,24,18c0.828,0,1.5,0.672,1.5,1.5
				S24.828,21,24,21"/>
			<path clip-path="url(#SVGID_2_)" fill="#231F20" d="M22,26c0,1.1,0.9,2,2,2c1.1,0,2-0.9,2-2v-2h-4V26z"/>
			<path clip-path="url(#SVGID_2_)" fill="#231F20" d="M2,26c0,1.1,0.9,2,2,2s2-0.9,2-2v-2H2V26z"/>
		</g>

</svg>
