<?xml version="1.0" encoding="utf-8"?>
<svg version="1.1" id="Layer_1" xmlns="http://www.w3.org/2000/svg" xmlns:xlink="http://www.w3.org/1999/xlink" x="0px" y="0px" viewBox="0 0 28 28"
	 enable-background="new 0 0 28 28" xml:space="preserve">

		<g>
			<defs>
				<rect id="SVGID_1_" width="28" height="28"/>
			</defs>
			<clipPath id="SVGID_2_">
				<use xlink:href="#SVGID_1_"  overflow="visible"/>
			</clipPath>
			<path clip-path="url(#SVGID_2_)" fill="#231F20" d="M27.939,4.471c-0.171-0.345-0.565-0.444-1.134-0.159
				c-0.014,0.007-1.576,0.764-3.065,0.764C23.174,2.874,21.346,1.219,19,1.034V0l-3.461,1.827h0.011
				c-1.565,0.97-2.61,2.697-2.61,4.673c0,1.482,0.589,2.824,1.541,3.813l-0.006-0.002c4.986,6.731-9.673,4.711-12.661,2.158
				C1.374,12.093,1.206,12,0.798,12.011c-0.42,0.011-0.738,0.353-0.794,0.721C-0.041,13.028,0.004,28,14.309,28
				c2.714,0,11.568-0.549,11.568-7.619c0-0.045-0.064-3.043-3.498-5.027h-0.002c-0.188-0.113-0.362-0.226-0.529-0.339
				c-0.087-0.07-0.156-0.133-0.257-0.209c-3.568-2.702,1.121-4.021,1.121-4.021l-0.003-0.005c0,0,2.285,0.2,2.346,0.2
				c0.565,0,0.759-0.254,0.815-0.364c0.076-0.144,0.133-0.441-0.319-0.802L24.772,9.19l2.935-3.78
				C27.823,5.26,28.13,4.861,27.939,4.471 M20.335,21.006c0.16-0.229,0.473-0.28,0.696-0.124c0.227,0.158,0.283,0.47,0.124,0.696
				c-1.491,2.136-4.205,2.537-6.035,2.537c-1.04,0-1.794-0.13-1.876-0.144C6.899,23.1,6.283,18.783,6.26,18.6
				c-0.034-0.275,0.16-0.525,0.434-0.559c0.278-0.04,0.523,0.159,0.558,0.432c0.022,0.158,0.581,3.746,6.148,4.51
				C13.47,22.994,18.363,23.828,20.335,21.006 M20,7c-0.552,0-1-0.448-1-1s0.448-1,1-1c0.552,0,1,0.448,1,1S20.552,7,20,7"/>
		</g>

</svg>
