<?xml version="1.0" encoding="utf-8"?>
<svg version="1.1" id="Layer_1" xmlns="http://www.w3.org/2000/svg" xmlns:xlink="http://www.w3.org/1999/xlink" x="0px" y="0px"
	 viewBox="0 0 28 28" enable-background="new 0 0 28 28" xml:space="preserve">
<rect x="17.661" y="2.635" transform="matrix(0.7071 0.7071 -0.7071 0.7071 11.1635 -12.6483)" width="6.378" height="9.033"/>
<rect x="4.591" y="16.221" transform="matrix(-0.707 -0.7073 0.7073 -0.707 -1.0235 40.0187)" width="6.377" height="8"/>
<polygon points="0,28 6.035,25.835 2.166,21.966 "/>
<g>
	<defs>
		<rect id="SVGID_1_" width="28" height="28"/>
	</defs>
	<clipPath id="SVGID_2_">
		<use xlink:href="#SVGID_1_"  overflow="visible"/>
	</clipPath>
	<path clip-path="url(#SVGID_2_)" d="M27.065,0.934c-1.225-1.226-3.197-1.237-4.448-0.05l4.498,4.499
		C28.306,4.133,28.294,2.162,27.065,0.934"/>
	<polygon clip-path="url(#SVGID_2_)" points="25.646,19.75 22.209,23.189 21.389,22.371 24.826,18.932 22.882,16.988 20.672,19.198 
		19.854,18.381 22.064,16.17 20.119,14.225 16.682,17.664 15.862,16.846 19.301,13.406 17.358,11.461 15.147,13.672 14.326,12.854 
		16.537,10.642 14.593,8.697 11.157,12.137 10.336,11.318 13.775,7.879 11.831,5.936 9.621,8.146 8.801,7.327 11.012,5.116 
		9.066,3.172 5.63,6.611 4.81,5.793 8.248,2.353 5.894,0 0.261,5.633 22.366,27.738 28,22.104 	"/>
</g>
</svg>
