<?xml version="1.0" encoding="utf-8"?>
<svg version="1.1" id="Layer_1" xmlns="http://www.w3.org/2000/svg" xmlns:xlink="http://www.w3.org/1999/xlink" x="0px" y="0px"
	 viewBox="0 0 28 28" enable-background="new 0 0 28 28" xml:space="preserve">
<g>
	<defs>
		<rect id="SVGID_1_" width="28" height="28"/>
	</defs>
	<clipPath id="SVGID_2_">
		<use xlink:href="#SVGID_1_"  overflow="visible"/>
	</clipPath>
	<path clip-path="url(#SVGID_2_)" d="M22,17l6-2l-1-3l-4.049,1.433c-2.426-7.421-7.472-8.979-11.279-8.979H11.67
		c-1.723,0-2.939,0.341-2.951,0.345l-4.59,1.5L5.086,8.9l3.955-1.281c0.389-0.139,0.861-0.21,1.398-0.21
		c1.163,0,2.5,0.642,2.5,0.642L7,18l-7,3l2,3l8-3l2.5-3l3.5,4l-1,6h4l1-7l-4-5.5l3-3.5L22,17z M21.002,6C22.658,6,24,4.657,24,3
		c0-1.656-1.342-3-2.998-3C19.344,0,18,1.344,18,3C18,4.657,19.344,6,21.002,6"/>
</g>
</svg>
