<?xml version="1.0" encoding="utf-8"?>
<svg version="1.1" id="Layer_1" xmlns="http://www.w3.org/2000/svg" xmlns:xlink="http://www.w3.org/1999/xlink" x="0px" y="0px"
	 viewBox="0 0 28 28" enable-background="new 0 0 28 28" xml:space="preserve">
<g>
	<defs>
		<rect id="SVGID_1_" width="28" height="28"/>
	</defs>
	<clipPath id="SVGID_2_">
		<use xlink:href="#SVGID_1_"  overflow="visible"/>
	</clipPath>
	<path clip-path="url(#SVGID_2_)" d="M23,14.002h2v-4h-2V14.002z M25,18.002h-2v4h2V18.002z M26,0.002H2.01l-2.008,3H28L26,0.002z
		 M22,17.002h1v-2h-1v-6h1v-2H4v17h19v-1h-1V17.002z M13,21.003c-2.756,0-5-2.244-5-5c0-2.757,2.244-5,5-5c2.758,0,5,2.243,5,5
		C18,18.759,15.758,21.003,13,21.003 M13,12.45c-1.959,0-3.551,1.594-3.551,3.553c0,1.958,1.592,3.552,3.551,3.552
		s3.551-1.594,3.551-3.552C16.551,14.044,14.959,12.45,13,12.45 M13,18.518c-1.387,0-2.516-1.128-2.516-2.515
		c0-1.388,1.129-2.516,2.516-2.516s2.514,1.128,2.514,2.516C15.514,17.39,14.387,18.518,13,18.518 M0,28.002h28v-24H0V28.002z
		 M3,6.002h21v3h2v6h-2v2h2v6h-2v2H3V6.002z"/>
</g>
</svg>
