<?xml version="1.0" encoding="utf-8"?>
<svg version="1.1" id="Layer_1" xmlns="http://www.w3.org/2000/svg" xmlns:xlink="http://www.w3.org/1999/xlink" x="0px" y="0px" viewBox="0 0 28 28"
	 enable-background="new 0 0 28 28" xml:space="preserve">

		<g>
			<defs>
				<rect id="SVGID_1_" width="28" height="28"/>
			</defs>
			<clipPath id="SVGID_2_">
				<use xlink:href="#SVGID_1_"  overflow="visible"/>
			</clipPath>
			<path clip-path="url(#SVGID_2_)" fill="#231F20" d="M14,4c0-2.209-2.91-4-6.5-4S1,1.791,1,4v2h13V4z M4.5,3.25
				c-0.414,0-0.75-0.336-0.75-0.75c0-0.414,0.336-0.75,0.75-0.75S5.25,2.086,5.25,2.5C5.25,2.914,4.914,3.25,4.5,3.25 M7.5,2.25
				c-0.414,0-0.75-0.336-0.75-0.75c0-0.414,0.336-0.75,0.75-0.75S8.25,1.086,8.25,1.5C8.25,1.914,7.914,2.25,7.5,2.25 M10.5,3.25
				c-0.414,0-0.75-0.336-0.75-0.75c0-0.414,0.336-0.75,0.75-0.75c0.414,0,0.75,0.336,0.75,0.75C11.25,2.914,10.914,3.25,10.5,3.25"
				/>
			<path clip-path="url(#SVGID_2_)" fill="#231F20" d="M14,14h13v-2c0-2.209-2.91-4-6.5-4S14,9.791,14,12V14z M23.5,9.75
				c0.414,0,0.75,0.336,0.75,0.75c0,0.414-0.336,0.75-0.75,0.75c-0.414,0-0.75-0.336-0.75-0.75C22.75,10.086,23.086,9.75,23.5,9.75
				 M20.5,8.75c0.414,0,0.75,0.336,0.75,0.75c0,0.414-0.336,0.75-0.75,0.75c-0.414,0-0.75-0.336-0.75-0.75
				C19.75,9.086,20.086,8.75,20.5,8.75 M17.5,9.75c0.414,0,0.75,0.336,0.75,0.75c0,0.414-0.336,0.75-0.75,0.75
				c-0.414,0-0.75-0.336-0.75-0.75C16.75,10.086,17.086,9.75,17.5,9.75"/>
			<path clip-path="url(#SVGID_2_)" fill="#231F20" d="M14.075,7h-13L0.152,19.003C0.109,19.552,0.525,20,1.075,20h11.538
				l0.388-5.038V14v-2c0-1.042,0.456-1.999,1.244-2.792L14.075,7z"/>
			<path clip-path="url(#SVGID_2_)" fill="#231F20" d="M26.926,15h-13l-0.923,12.003C12.96,27.552,13.376,28,13.926,28h13
				c0.55,0,0.966-0.448,0.923-0.997L26.926,15z M15.086,26l0.692-9h9.295l0.693,9H15.086z"/>
		</g>

</svg>
