<?xml version="1.0" encoding="utf-8"?>
<svg version="1.1" id="Layer_1" xmlns="http://www.w3.org/2000/svg" xmlns:xlink="http://www.w3.org/1999/xlink" x="0px" y="0px" viewBox="0 0 28 28"
	 enable-background="new 0 0 28 28" xml:space="preserve">

		<g>
			<defs>
				<rect id="SVGID_1_" width="28" height="28"/>
			</defs>
			<clipPath id="SVGID_2_">
				<use xlink:href="#SVGID_1_"  overflow="visible"/>
			</clipPath>
			<path clip-path="url(#SVGID_2_)" fill="#231F20" d="M19.316,10.23l-9.193,9.191l1.415,1.416c1.563,1.561,4.887,0.769,7.424-1.77
				c2.539-2.538,3.331-5.861,1.768-7.422L19.316,10.23z M15.605,19.952c-0.294,0.292-0.769,0.292-1.061,0
				c-0.293-0.293-0.293-0.767,0-1.06c0.292-0.292,0.768-0.293,1.061,0C15.897,19.184,15.896,19.659,15.605,19.952 M18.432,18.537
				c-0.293,0.293-0.767,0.294-1.061,0c-0.293-0.291-0.293-0.767,0-1.06c0.294-0.292,0.768-0.291,1.061,0
				C18.726,17.77,18.726,18.245,18.432,18.537 M19.846,15.709c-0.293,0.293-0.767,0.293-1.06,0.001
				c-0.293-0.294-0.293-0.768,0-1.062c0.293-0.292,0.768-0.293,1.061,0C20.14,14.941,20.139,15.416,19.846,15.709"/>
			<path clip-path="url(#SVGID_2_)" fill="#231F20" d="M10.827,0.329C10.47-0.089,9.859-0.111,9.47,0.277L0.278,9.47
				c-0.389,0.388-0.367,1.001,0.051,1.357l9.141,7.835l9.193-9.192L10.827,0.329z"/>
			<path clip-path="url(#SVGID_2_)" fill="#231F20" d="M24.952,15.053c-0.293,0.293-0.293,0.768,0,1.061
				c0.292,0.292,0.768,0.293,1.061,0c0.292-0.292,0.292-0.769,0-1.061C25.72,14.76,25.244,14.761,24.952,15.053"/>
			<path clip-path="url(#SVGID_2_)" fill="#231F20" d="M23.699,20.281c0.291-0.293,0.291-0.77,0-1.061
				c-0.294-0.294-0.77-0.293-1.061,0c-0.293,0.292-0.293,0.767,0,1.061C22.929,20.572,23.405,20.573,23.699,20.281"/>
			<path clip-path="url(#SVGID_2_)" fill="#231F20" d="M20.281,23.698c0.292-0.292,0.292-0.768,0-1.061
				c-0.293-0.293-0.769-0.291-1.061,0c-0.293,0.293-0.293,0.768,0,1.061C19.512,23.99,19.988,23.991,20.281,23.698"/>
			<path clip-path="url(#SVGID_2_)" fill="#231F20" d="M23.009,23.362c-0.294,0.292-0.294,0.767,0,1.061
				c0.291,0.291,0.767,0.291,1.06-0.001c0.292-0.292,0.292-0.769,0.001-1.06C23.776,23.069,23.3,23.069,23.009,23.362"/>
			<path clip-path="url(#SVGID_2_)" fill="#231F20" d="M19.65,26.721c-0.293,0.292-0.293,0.768,0,1.061
				c0.292,0.291,0.768,0.291,1.061,0c0.292-0.294,0.292-0.769,0-1.061C20.418,26.428,19.942,26.428,19.65,26.721"/>
			<path clip-path="url(#SVGID_2_)" fill="#231F20" d="M14.7,25.306c-0.294,0.292-0.293,0.768,0,1.061
				c0.291,0.292,0.768,0.293,1.061,0c0.292-0.293,0.292-0.769,0-1.061C15.468,25.013,14.992,25.013,14.7,25.306"/>
			<path clip-path="url(#SVGID_2_)" fill="#231F20" d="M27.781,19.65c-0.293-0.294-0.769-0.294-1.061,0
				c-0.292,0.291-0.292,0.767,0,1.061c0.292,0.292,0.769,0.291,1.061,0C28.074,20.417,28.074,19.942,27.781,19.65"/>
		</g>

</svg>
