<?xml version="1.0" encoding="utf-8"?>
<svg version="1.1" id="Layer_1" xmlns="http://www.w3.org/2000/svg" xmlns:xlink="http://www.w3.org/1999/xlink" x="0px" y="0px" viewBox="0 0 28 28"
	 enable-background="new 0 0 28 28" xml:space="preserve">

		<g>
			<defs>
				<rect id="SVGID_1_" width="28" height="28"/>
			</defs>
			<clipPath id="SVGID_2_">
				<use xlink:href="#SVGID_1_"  overflow="visible"/>
			</clipPath>
			<path clip-path="url(#SVGID_2_)" fill="#231F20" d="M26.409,6.601c-1.458-1.812-3.978-2.23-5.917-0.938
				c-2.034,1.355-2.983,3.791-3.565,6.064c-0.776,3.036,0.189,6.315-1.037,9.261c-0.81,1.948-2.036,4.297,0.02,5.962
				c2.287,1.852,5.297,1.194,6.445-1.483c0.467-1.09,0.761-2.216,1.343-3.26c0.606-1.089,1.338-2.101,2.015-3.146
				c1.14-1.76,2.036-4.121,2.242-6.473c0.008,0.04,0.014,0.071,0.02,0.1c-0.006-0.03-0.012-0.062-0.02-0.1
				C28.145,10.426,27.753,8.272,26.409,6.601 M25.968,14.73c-0.05,0.598-0.122,1.788-0.629,2.203
				c-0.377,0.309-0.965,0.098-1.058-0.381c-0.108-0.557,0.295-1.271,0.338-1.836c0.052-0.677-0.008-1.36-0.162-2.02
				c-0.297-1.277-0.91-2.498-1.7-3.54c-1.246,0.988-2.457,2.206-3.107,3.681c-0.27,0.627-0.142,1.489-0.459,2.044
				c-0.289,0.505-1.085,0.303-1.096-0.28c0.001,0.072,0.004,0.216,0,0c-0.001-0.054-0.001-0.036,0-0.001
				c-0.044-2.583,1.694-4.769,3.535-6.409c0.656-0.583,1.299-1.245,2.025-0.318c0.524,0.669,0.973,1.401,1.342,2.164
				C25.702,11.493,26.104,13.107,25.968,14.73"/>
			<path clip-path="url(#SVGID_2_)" fill="#231F20" d="M11.09,6.768c-0.011-0.044-0.022-0.085-0.032-0.127
				c0.008,0.032,0.012,0.05,0.021,0.086C11.084,6.743,11.086,6.753,11.09,6.768"/>
			<path clip-path="url(#SVGID_2_)" fill="#231F20" d="M11.232,7.325c-0.033-0.13-0.07-0.272-0.107-0.419
				C11.168,7.077,11.203,7.21,11.232,7.325"/>
			<path clip-path="url(#SVGID_2_)" fill="#231F20" d="M11.232,7.325C11.347,7.773,11.409,8.015,11.232,7.325"/>
			<path clip-path="url(#SVGID_2_)" fill="#231F20" d="M10.938,6.175c0.013,0.051,0.04,0.156,0.089,0.347
				C10.986,6.362,10.954,6.237,10.938,6.175"/>
			<path clip-path="url(#SVGID_2_)" fill="#231F20" d="M10.938,6.175C10.925,6.125,10.926,6.126,10.938,6.175"/>
			<path clip-path="url(#SVGID_2_)" fill="#231F20" d="M11.079,6.815c-0.581-2.273-1.53-4.709-3.564-6.065
				C5.576-0.541,3.056-0.124,1.597,1.689c-2.805,3.487-1.492,9.08,0.697,12.461c0.676,1.044,1.408,2.056,2.015,3.145
				c0.581,1.044,0.875,2.17,1.343,3.26c1.147,2.677,4.158,3.335,6.445,1.483c2.056-1.665,0.83-4.014,0.019-5.962
				C10.89,13.13,11.856,9.851,11.079,6.815 M9.912,9.689C9.908,9.905,9.911,9.761,9.912,9.689c-0.011,0.583-0.807,0.785-1.096,0.28
				c-0.317-0.555-0.189-1.417-0.46-2.044c-0.65-1.475-1.86-2.693-3.107-3.681C4.46,5.286,3.847,6.507,3.55,7.784
				c-0.154,0.66-0.214,1.343-0.162,2.02c0.043,0.565,0.446,1.279,0.337,1.835c-0.093,0.48-0.681,0.691-1.058,0.382
				c-0.506-0.415-0.578-1.605-0.628-2.203c-0.136-1.623,0.265-3.237,0.97-4.693c0.37-0.763,0.819-1.496,1.343-2.164
				C5.078,2.034,5.72,2.697,6.377,3.279C8.218,4.919,9.955,7.105,9.912,9.689C9.912,9.653,9.913,9.635,9.912,9.689"/>
			<path clip-path="url(#SVGID_2_)" fill="#231F20" d="M16.737,12.532c0.034-0.133,0.076-0.297,0.138-0.537
				C16.825,12.187,16.777,12.377,16.737,12.532"/>
			<path clip-path="url(#SVGID_2_)" fill="#231F20" d="M16.737,12.532c-0.039,0.154-0.063,0.248-0.073,0.286
				C16.676,12.769,16.703,12.666,16.737,12.532"/>
			<path clip-path="url(#SVGID_2_)" fill="#231F20" d="M16.664,12.818C16.655,12.853,16.656,12.851,16.664,12.818"/>
		</g>

</svg>
