<?xml version="1.0" encoding="utf-8"?>
<svg version="1.1" id="Layer_1" xmlns="http://www.w3.org/2000/svg" xmlns:xlink="http://www.w3.org/1999/xlink" x="0px" y="0px" viewBox="0 0 28 28"
	 enable-background="new 0 0 28 28" xml:space="preserve">

	<g>
		<polygon fill="#231F20" points="24,17 24,20 22,20 22,17 18,17 18,20 16,20 16,17 12,17 12,20 10,20 10,17 6,17 6,20 4,20 4,17
			0,17 0,20 0,28 28,28 28,17 		"/>
		<polygon fill="#231F20" points="13,0 13,7 12,7 12,10 10,10 10,7 6,7 6,10 6,16 22,16 22,10 22,7 17.999,7 17.999,10 16,10 16,7
			14,7 14,4 17.999,2 		"/>
	</g>

</svg>
