<?xml version="1.0" encoding="utf-8"?>
<svg version="1.1" id="Layer_1" xmlns="http://www.w3.org/2000/svg" xmlns:xlink="http://www.w3.org/1999/xlink" x="0px" y="0px" viewBox="0 0 28 28"
	 enable-background="new 0 0 28 28" xml:space="preserve">

		<g>
			<defs>
				<rect id="SVGID_1_" width="28" height="28"/>
			</defs>
			<clipPath id="SVGID_2_">
				<use xlink:href="#SVGID_1_"  overflow="visible"/>
			</clipPath>
			<path clip-path="url(#SVGID_2_)" fill="#231F20" d="M14.5,14.914c0.165,0.044,0.334,0.074,0.513,0.074
				c1.105,0,1.999-0.894,1.999-2.001c0-1.105-0.894-1.999-1.999-1.999c-1.107,0-2.001,0.894-2.001,1.999
				c0,0.179,0.03,0.348,0.074,0.513L12,14.586L1.846,4.432C0.672,6.665,0,9.203,0,11.901C0,20.792,7.208,28,16.099,28
				c2.698,0,5.236-0.672,7.469-1.846L13.414,16L14.5,14.914z"/>
			<path clip-path="url(#SVGID_2_)" fill="#231F20" d="M23.696,4.304c-3.041-3.041-7.244-4.594-11.531-4.259
				c-0.481,0.038-0.842,0.457-0.806,0.941c0.04,0.482,0.46,0.841,0.941,0.803c3.777-0.293,7.481,1.075,10.159,3.752
				c2.678,2.678,4.044,6.381,3.752,10.157c-0.037,0.48,0.322,0.901,0.802,0.939c0.268,0.02,0.514-0.079,0.688-0.254
				c0.142-0.141,0.237-0.336,0.255-0.55C28.289,11.545,26.736,7.344,23.696,4.304"/>
			<path clip-path="url(#SVGID_2_)" fill="#231F20" d="M13.165,3.994c-0.479,0.037-0.841,0.457-0.804,0.939
				c0.038,0.485,0.456,0.842,0.94,0.806c2.434-0.188,4.816,0.692,6.543,2.418c1.723,1.724,2.604,4.108,2.417,6.54
				c-0.035,0.484,0.323,0.904,0.805,0.938c0.267,0.023,0.512-0.078,0.686-0.252c0.143-0.144,0.237-0.334,0.254-0.55
				c0.226-2.944-0.841-5.829-2.925-7.913C18.993,4.831,16.107,3.767,13.165,3.994"/>
		</g>

</svg>
