<?xml version="1.0" encoding="utf-8"?>
<svg version="1.1" id="Layer_1" xmlns="http://www.w3.org/2000/svg" xmlns:xlink="http://www.w3.org/1999/xlink" x="0px" y="0px" viewBox="0 0 28 28"
	 enable-background="new 0 0 28 28" xml:space="preserve">

		<g>
			<defs>
				<rect id="SVGID_1_" width="28" height="28"/>
			</defs>
			<clipPath id="SVGID_2_">
				<use xlink:href="#SVGID_1_"  overflow="visible"/>
			</clipPath>
			<path clip-path="url(#SVGID_2_)" fill="#231F20" d="M24,4.001c-2.209,0-4,1.791-4,4c0,0.509-0.042,1.007-0.104,1.5H22
				c0.276,0,0.5,0.224,0.5,0.5c0,0.276-0.224,0.5-0.5,0.5h-2.266c-0.455,2.138-1.487,4.059-2.916,5.611l1.536,1.535
				c0.195,0.196,0.195,0.512,0,0.708c-0.098,0.097-0.226,0.146-0.354,0.146c-0.128,0-0.256-0.049-0.354-0.146l-1.535-1.536
				c-1.552,1.429-3.473,2.461-5.611,2.916v2.266c0,0.276-0.224,0.5-0.5,0.5s-0.5-0.224-0.5-0.5v-2.104
				c-0.493,0.062-0.991,0.104-1.5,0.104c-2.209,0-4,1.791-4,4s1.791,4,4,4c11.028,0,20-8.972,20-20C28,5.792,26.209,4.001,24,4.001"
				/>
			<path clip-path="url(#SVGID_2_)" fill="#231F20" d="M22.5,3.001h3l1.053-2.106C26.799,0.403,26.55,0.001,26,0.001h-4
				c-0.55,0-0.799,0.402-0.553,0.894L22.5,3.001z"/>
			<path clip-path="url(#SVGID_2_)" fill="#231F20" d="M0,22.001v4c0,0.55,0.402,0.799,0.894,0.553L3,25.501v-3l-2.106-1.053
				C0.402,21.202,0,21.451,0,22.001"/>
		</g>

</svg>
