<?xml version="1.0" encoding="utf-8"?>
<svg version="1.1" id="Layer_1" xmlns="http://www.w3.org/2000/svg" xmlns:xlink="http://www.w3.org/1999/xlink" x="0px" y="0px" viewBox="0 0 28 28"
	 enable-background="new 0 0 28 28" xml:space="preserve">

		<g>
			<defs>
				<rect id="SVGID_1_" width="28" height="28"/>
			</defs>
			<clipPath id="SVGID_2_">
				<use xlink:href="#SVGID_1_"  overflow="visible"/>
			</clipPath>
			<path clip-path="url(#SVGID_2_)" fill="#231F20" d="M27.607,6.487c-0.459-0.38-1.143-0.313-1.52,0.149h-0.001l-5.863-4.86
				c0.378-0.461,0.311-1.149-0.148-1.529c-0.459-0.379-1.143-0.312-1.521,0.149L13.75,6.27l7.532,6.239
				c0.918,0.759,2.287,0.625,3.042-0.298l3.432-4.195C28.133,7.554,28.066,6.866,27.607,6.487 M24.027,9.153l-0.686,0.839
				c-0.378,0.462-1.062,0.529-1.521,0.149l-4.194-3.479c-0.459-0.38-0.526-1.068-0.148-1.529l0.686-0.839
				c0.378-0.462,1.062-0.529,1.521-0.149l4.194,3.479C24.338,8.003,24.405,8.692,24.027,9.153"/>
			<polygon clip-path="url(#SVGID_2_)" fill="#231F20" points="13.07,7.005 0,23.001 5,28.001 8,28.001 8,25.001 11,25.001 
				11,22.001 14,22.001 14,19.001 17,19.001 17,16.001 20,16.001 20,12.746 13.112,7.04 			"/>
		</g>

</svg>
