<?xml version="1.0" encoding="utf-8"?>
<svg version="1.1" id="Layer_1" xmlns="http://www.w3.org/2000/svg" xmlns:xlink="http://www.w3.org/1999/xlink" x="0px" y="0px" viewBox="0 0 28 28"
	 enable-background="new 0 0 28 28" xml:space="preserve">

		<g>
			<defs>
				<rect id="SVGID_1_" width="28" height="28"/>
			</defs>
			<clipPath id="SVGID_2_">
				<use xlink:href="#SVGID_1_"  overflow="visible"/>
			</clipPath>
			<path clip-path="url(#SVGID_2_)" fill="#231F20" d="M22,26.198c0,1.2,1,1.802,2,1.802s2-0.601,2-1.802V25h-4V26.198z"/>
			<path clip-path="url(#SVGID_2_)" fill="#231F20" d="M2,26.198C2,27.398,3,28,4,28s2-0.601,2-1.802V25H2V26.198z"/>
			<path clip-path="url(#SVGID_2_)" fill="#231F20" d="M27,5h-1v7h1c0.55,0,1-0.45,1-1V6C28,5.45,27.55,5,27,5"/>
			<path clip-path="url(#SVGID_2_)" fill="#231F20" d="M1,12h1V5H1C0.45,5,0,5.45,0,6v5C0,11.55,0.45,12,1,12"/>
			<path clip-path="url(#SVGID_2_)" fill="#231F20" d="M25,13V5c0-2.75-2.25-5-5-5H8C5.25,0,3,2.25,3,5v8
				c-1.718,0.449-3,2.004-3,3.857V19v1v4h28v-4v-1v-2.143C28,15.004,26.718,13.449,25,13 M23,12h-8V6h8V12z M10,2h8
				c0.553,0,1,0.447,1,1s-0.447,1-1,1h-8C9.448,4,9,3.553,9,3S9.448,2,10,2 M5,6h8v6H5V6z M4,21c-1.105,0-2-0.896-2-2s0.895-2,2-2
				s2,0.896,2,2S5.105,21,4,21 M18.5,21h-9C9.224,21,9,20.776,9,20.5S9.224,20,9.5,20h9c0.276,0,0.5,0.224,0.5,0.5
				S18.776,21,18.5,21 M18.5,19h-9C9.224,19,9,18.776,9,18.5S9.224,18,9.5,18h9c0.276,0,0.5,0.224,0.5,0.5S18.776,19,18.5,19
				 M18.5,17h-9C9.224,17,9,16.776,9,16.5S9.224,16,9.5,16h9c0.276,0,0.5,0.224,0.5,0.5S18.776,17,18.5,17 M24,21
				c-1.104,0-2-0.896-2-2s0.896-2,2-2c1.105,0,2,0.896,2,2S25.105,21,24,21"/>
		</g>

</svg>
