<?xml version="1.0" encoding="utf-8"?>
<svg version="1.1" id="Layer_1" xmlns="http://www.w3.org/2000/svg" xmlns:xlink="http://www.w3.org/1999/xlink" x="0px" y="0px"
	 viewBox="0 0 28 28" enable-background="new 0 0 28 28" xml:space="preserve">
<g>
	<defs>
		<rect id="SVGID_1_" width="28" height="28"/>
	</defs>
	<clipPath id="SVGID_2_">
		<use xlink:href="#SVGID_1_"  overflow="visible"/>
	</clipPath>
	<path clip-path="url(#SVGID_2_)" d="M21,3l-1.033-3H19l-1,3v18h3V3z M5.549,28l2.135-7.076l-1.858-6.155
		C1.396,22.203,5.549,28,5.549,28 M13.936,0.137c-0.19-0.058-0.379-0.097-0.571-0.117c-0.701-0.078-1.402,0.078-2.043,0.42
		c-1.021,0.546-1.875,1.572-2.269,2.886C8.875,3.904,8.809,4.481,8.83,5.036c0.002,0.004,0.002,0.007,0,0.011
		C8.832,5.095,8.838,5.142,8.84,5.19c0.181,2.258,0.002,3.85-0.274,4.958c-0.101,0.321-0.218,0.617-0.339,0.889
		c-0.123-0.272-0.241-0.568-0.342-0.889C7.609,9.04,7.617,7.448,7.797,5.19c0.002-0.048,0.197-0.095,0.197-0.143V5.036
		c0-0.555-0.232-1.132-0.408-1.71C7.189,2.012,6.244,0.986,5.223,0.44c-0.639-0.342-1.391-0.498-2.09-0.42
		C2.941,0.04,2.729,0.079,2.539,0.137c-1.984,0.598-3.027,2.998-2.314,5.36c0.396,1.314,1.244,2.339,2.263,2.886
		c0.641,0.343,1.34,0.497,2.037,0.42c0.186-0.021,0.37-0.058,0.553-0.112l1.49,4.94l1.659,5.497L10.902,28
		c0,0,4.578-6.396-1.017-14.369l1.492-4.94c0.184,0.054,0.367,0.091,0.551,0.112c0.699,0.077,1.402-0.077,2.041-0.42
		c1.019-0.547,1.875-1.572,2.271-2.886C16.951,3.135,15.922,0.735,13.936,0.137 M4.514,6.755C4.443,6.776,4.373,6.79,4.305,6.798
		c-0.34,0.038-0.653-0.077-0.867-0.193C2.844,6.288,2.371,5.672,2.143,4.914C1.76,3.644,2.197,2.34,3.096,2.066
		c0.074-0.02,0.142-0.035,0.211-0.042c0.341-0.038,0.654,0.078,0.867,0.193C4.76,2.531,5.242,3.164,5.469,3.909
		C5.854,5.18,5.416,6.482,4.514,6.755 M14.307,4.914c-0.227,0.758-0.7,1.374-1.293,1.691c-0.215,0.116-0.528,0.231-0.868,0.193
		c-0.068-0.008-0.138-0.022-0.209-0.043C11.035,6.482,10.6,5.18,10.982,3.909c0.227-0.745,0.709-1.378,1.295-1.692
		c0.215-0.115,0.526-0.231,0.869-0.193c0.067,0.007,0.137,0.022,0.209,0.042C14.254,2.34,14.691,3.644,14.307,4.914 M23,0v2h1v4h3V2
		h1V0H23z M24,25l1,3h1l1-3V7h-3V25z M21,22h-3v4.011l-1,0.002V28h5v-2h-1V22z"/>
</g>
</svg>
