<?xml version="1.0" encoding="utf-8"?>
<svg version="1.1" id="Layer_1" xmlns="http://www.w3.org/2000/svg" xmlns:xlink="http://www.w3.org/1999/xlink" x="0px" y="0px"
	 viewBox="0 0 28 28" enable-background="new 0 0 28 28" xml:space="preserve">
<g>
	<defs>
		<rect id="SVGID_1_" width="28" height="28"/>
	</defs>
	<clipPath id="SVGID_2_">
		<use xlink:href="#SVGID_1_"  overflow="visible"/>
	</clipPath>
	<path clip-path="url(#SVGID_2_)" d="M0.049,28L12.94,15.106l-2.922-2.921C-1.262,17.879,0.049,28,0.049,28 M16.108,11.319
		c0,0-2.969-0.669-5.922-7.406C10.16,3.857,10.137,3.8,10.11,3.745c-0.002-0.003-0.004-0.007-0.006-0.013v0.002
		c-0.315-0.65-0.748-1.27-1.303-1.826C7.543,0.65,5.936,0,4.432,0C3.236,0,2.101,0.411,1.257,1.255
		C-0.648,3.16-0.354,6.539,1.91,8.804c1.262,1.261,2.866,1.91,4.369,1.91c1.19,0,2.315-0.406,3.157-1.238L27.951,28
		C27.951,28,29.422,16.778,16.108,11.319 M7.606,7.605C7.199,8.01,6.66,8.094,6.279,8.094c-0.873,0-1.791-0.417-2.517-1.143
		C2.545,5.734,2.244,3.972,3.111,3.108c0.402-0.406,0.941-0.49,1.322-0.49c0.861,0,1.803,0.429,2.517,1.145
		C8.168,4.981,8.469,6.74,7.606,7.605 M16.504,9.858l0.174,0.072c0.344,0.141,0.67,0.287,0.996,0.437l0.891-0.891
		c0.841,0.832,1.964,1.238,3.154,1.238c1.504,0,3.109-0.649,4.369-1.91c2.264-2.265,2.559-5.644,0.656-7.549
		C25.901,0.411,24.766,0,23.569,0c-1.504,0-3.11,0.65-4.372,1.908c-0.552,0.556-0.986,1.176-1.3,1.826l-0.002-0.002
		c-0.002,0.006-0.004,0.01-0.006,0.013C17.861,3.8,17.84,3.857,17.815,3.913c-0.971,2.215-1.944,3.768-2.811,4.864
		c0.772,0.762,1.316,1.02,1.457,1.079L16.504,9.858z M21.049,3.763c0.717-0.716,1.658-1.145,2.52-1.145
		c0.38,0,0.918,0.084,1.322,0.49c0.863,0.864,0.564,2.626-0.654,3.843c-0.725,0.726-1.643,1.143-2.518,1.143
		c-0.381,0-0.92-0.084-1.324-0.489C19.529,6.74,19.83,4.981,21.049,3.763"/>
</g>
</svg>
