<?xml version="1.0" encoding="utf-8"?>
<svg version="1.1" id="Layer_1" xmlns="http://www.w3.org/2000/svg" xmlns:xlink="http://www.w3.org/1999/xlink" x="0px" y="0px"
	 viewBox="0 0 28 28" enable-background="new 0 0 28 28" xml:space="preserve">
<polygon points="0.057,28 6.081,25.835 2.219,21.965 "/>
<g>
	<defs>
		<rect id="SVGID_1_" width="28" height="28"/>
	</defs>
	<clipPath id="SVGID_2_">
		<use xlink:href="#SVGID_1_"  overflow="visible"/>
	</clipPath>
	<path clip-path="url(#SVGID_2_)" d="M22.628,0.879l4.489,4.5c1.189-1.249,1.176-3.222-0.049-4.449
		C25.844-0.296,23.877-0.306,22.628,0.879"/>
	<path clip-path="url(#SVGID_2_)" d="M13.42,10.834c0.37-1.225,0.122-2.563-0.795-3.482c-0.984-0.986-5.368-5.379-6.351-6.365
		C4.91-0.38,2.617-0.3,1.153,1.167c-1.465,1.469-1.545,3.765-0.18,5.132c0.984,0.986,5.368,5.38,6.351,6.366
		c0.956,0.957,2.364,1.189,3.626,0.747l6.747,6.294l1.614,4.231L24.544,28L28,24.534l-4.053-5.254l-4.222-1.632L13.42,10.834z"/>
	<path clip-path="url(#SVGID_2_)" d="M10.678,14.525c-0.579,0.123-1.16,0.134-1.717,0.041l-6.213,6.227l4.499,4.512l7.226-7.24
		L10.678,14.525z"/>
	<path clip-path="url(#SVGID_2_)" d="M14.519,8.996c0.083,0.503,0.083,1.026-0.006,1.547l3.591,3.883l1.846-1.85l6.353-6.365
		l-4.504-4.512L15.45,8.063L14.519,8.996z"/>
</g>
</svg>
