<?xml version="1.0" encoding="utf-8"?>
<svg version="1.1" id="Layer_1" xmlns="http://www.w3.org/2000/svg" xmlns:xlink="http://www.w3.org/1999/xlink" x="0px" y="0px" viewBox="0 0 28 28"
	 enable-background="new 0 0 28 28" xml:space="preserve">

	<g>
		<polygon fill="#231F20" points="5,0 5,1 2.999,1 2.999,0 0,0 0,1 1.999,4 6,4 8,1 8,0 		"/>
		<rect x="2" y="4.999" fill="#231F20" width="4.001" height="1.001"/>
		<rect x="2" y="7" fill="#231F20" width="4.001" height="1"/>
		<rect x="2" y="9" fill="#231F20" width="4.001" height="1"/>
		<rect x="2" y="11" fill="#231F20" width="4" height="1"/>
		<rect x="2" y="13" fill="#231F20" width="4.001" height="1"/>
		<rect x="2" y="15" fill="#231F20" width="4.001" height="1"/>
		<rect x="2" y="17" fill="#231F20" width="4.001" height="1"/>
		<rect x="2" y="19" fill="#231F20" width="4.001" height="1"/>
		<rect x="2" y="21" fill="#231F20" width="4.001" height="1"/>
		<rect x="2" y="22.999" fill="#231F20" width="4.001" height="1.001"/>
		<polygon fill="#231F20" points="2,25 4,28 6.001,25 		"/>
		<polygon fill="#231F20" points="15,0 15,1 12.999,1 12.999,0 10,0 10,1 11.999,4 16,4 18,1 18,0 		"/>
		<rect x="12" y="4.999" fill="#231F20" width="4.001" height="1.001"/>
		<rect x="12" y="7" fill="#231F20" width="4.001" height="1"/>
		<rect x="12" y="9" fill="#231F20" width="4.001" height="1"/>
		<rect x="12" y="11" fill="#231F20" width="4" height="1"/>
		<rect x="12" y="13" fill="#231F20" width="4.001" height="1"/>
		<rect x="12" y="15" fill="#231F20" width="4.001" height="1"/>
		<rect x="12" y="17" fill="#231F20" width="4.001" height="1"/>
		<rect x="12" y="19" fill="#231F20" width="4.001" height="1"/>
		<rect x="12" y="21" fill="#231F20" width="4.001" height="1"/>
		<rect x="12" y="22.999" fill="#231F20" width="4.001" height="1.001"/>
		<polygon fill="#231F20" points="12,25 14.001,28 16.001,25 		"/>
		<g>
			<defs>
				<rect id="SVGID_1_" width="28" height="28"/>
			</defs>
			<clipPath id="SVGID_2_">
				<use xlink:href="#SVGID_1_"  overflow="visible"/>
			</clipPath>
			<path clip-path="url(#SVGID_2_)" fill="#231F20" d="M26.439,12.146L20.853,6.56c-1.217,1.569-1.123,3.827,0.318,5.268
				S24.87,13.364,26.439,12.146"/>
			<path clip-path="url(#SVGID_2_)" fill="#231F20" d="M26.828,6.172c-1.441-1.441-3.698-1.535-5.268-0.318l5.586,5.586
				C28.364,9.871,28.269,7.613,26.828,6.172"/>
			<path clip-path="url(#SVGID_2_)" fill="#231F20" d="M24,15.001c-2.209,0-4,1.79-4,4c0,2.209,1.791,4,4,4c2.21,0,4-1.791,4-4
				C28,16.791,26.209,15.001,24,15.001 M26.354,20.646l-0.707,0.707L24,19.708l-1.646,1.646l-0.707-0.707L23.292,19l-1.646-1.647
				l0.707-0.707L24,18.292l1.647-1.646l0.707,0.707L24.707,19L26.354,20.646z"/>
		</g>
	</g>

</svg>
