<?xml version="1.0" encoding="utf-8"?>
<svg version="1.1" id="Layer_1" xmlns="http://www.w3.org/2000/svg" xmlns:xlink="http://www.w3.org/1999/xlink" x="0px" y="0px"
	 viewBox="0 0 28 28" enable-background="new 0 0 28 28" xml:space="preserve">
<g>
	<defs>
		<rect id="SVGID_1_" width="28" height="28"/>
	</defs>
	<clipPath id="SVGID_2_">
		<use xlink:href="#SVGID_1_"  overflow="visible"/>
	</clipPath>
	<path clip-path="url(#SVGID_2_)" d="M9.334,23.29c0-0.825-0.226-1.593-0.601-2.266H0.602C0.227,21.697,0,22.465,0,23.29
		c0,2.576,2.09,4.666,4.667,4.666C7.244,27.956,9.334,25.866,9.334,23.29 M10.37,4.667c0,1.261-0.415,2.424-1.112,3.37h17.333
		C27.459,7.173,28,5.975,28,4.667c0-2.432-1.859-4.428-4.232-4.647V0H7.936C9.406,1.032,10.37,2.737,10.37,4.667 M22.297,9.375
		c0.062-0.105,0.115-0.205,0.158-0.302H7.205l1.051-1.425c0.339-0.407,0.607-0.875,0.791-1.383c0.002-0.008,0.006-0.014,0.008-0.022
		c0.14-0.391,0.23-0.804,0.262-1.235c0.001-0.014,0.005-0.026,0.005-0.039H9.318c0.006-0.101,0.016-0.2,0.016-0.302
		C9.334,2.089,7.244,0,4.667,0C2.09,0,0,2.089,0,4.667C0,4.91,0.026,5.148,0.061,5.382c0.084,7.367,7.933,13.24,7.933,13.24H7.936
		c1.47,1.034,2.434,2.739,2.434,4.668c0,1.954-0.987,3.682-2.491,4.71h15.889C26.141,27.781,28,25.721,28,23.29
		c0-1.276-0.517-2.712-1.263-3.651C25.821,18.55,20.481,12.457,22.297,9.375"/>
</g>
</svg>
