<?xml version="1.0" encoding="utf-8"?>
<svg version="1.1" id="Layer_1" xmlns="http://www.w3.org/2000/svg" xmlns:xlink="http://www.w3.org/1999/xlink" x="0px" y="0px" viewBox="0 0 28 28"
	 enable-background="new 0 0 28 28" xml:space="preserve">

		<g>
			<defs>
				<rect id="SVGID_1_" width="28" height="28"/>
			</defs>
			<clipPath id="SVGID_2_">
				<use xlink:href="#SVGID_1_"  overflow="visible"/>
			</clipPath>
			<path clip-path="url(#SVGID_2_)" fill="#231F20" d="M3.502,21.392c0.771,1.08,2.051,1.791,3.498,1.791
				c1.448,0,2.729-0.711,3.499-1.791c0.774,1.08,2.054,1.791,3.501,1.791s2.729-0.711,3.5-1.791c0.587,0.821,1.468,1.426,2.491,1.67
				c0.001-0.02,0.009-0.04,0.009-0.061c0-4-4.802-8-10-8s-10,3-10,8c0,0.062,0.018,0.12,0.026,0.18
				C1.029,23.17,2.735,22.464,3.502,21.392"/>
			<path clip-path="url(#SVGID_2_)" fill="#231F20" d="M24.5,23.696c-0.771,1.08-2.053,1.791-3.5,1.791
				c-1.447,0-2.727-0.711-3.5-1.791c-0.771,1.08-2.053,1.791-3.5,1.791s-2.727-0.711-3.501-1.791
				c-0.77,1.08-2.051,1.791-3.499,1.791c-1.447,0-2.727-0.711-3.498-1.791C2.729,24.776,1,25.487,0,25.487v2.514
				c1,0,2.729-0.709,3.502-1.789c0.771,1.08,2.051,1.789,3.498,1.789c1.448,0,2.729-0.709,3.499-1.789
				c0.774,1.08,2.054,1.789,3.501,1.789s2.729-0.709,3.5-1.789c0.773,1.08,2.053,1.789,3.5,1.789c1.447,0,2.729-0.709,3.5-1.789
				c0.773,1.08,2.5,1.789,3.5,1.789v-2.514C27,25.487,25.273,24.776,24.5,23.696"/>
			<path clip-path="url(#SVGID_2_)" fill="#231F20" d="M21.728,10.091c-1.451-0.362-1.725-1.013-1.723-2.085V8.001h3c1,0,3-1,3-3
				s-2-3-3-3c-0.169,0-0.435-0.003-0.767-0.004c-0.808-1.203-2.18-1.996-3.738-1.996c-1.773,0-3.292,1.035-4.025,2.525L12,5.001
				l1.5,1.5l-1.5,1.5l1.776,1.776L13,12.107l2.01,0.669l0.035,2.225l2.747-0.043l0.515,1.602l1.991-0.64
				C21.148,16.143,22,16.923,22,18.001v5.063c1.028-0.243,1.912-0.849,2.5-1.672c0.773,1.08,2.5,1.791,3.5,1.791v-5.182
				C28,14.267,25.421,11.014,21.728,10.091 M19,4.001c-0.552,0-1-0.448-1-1s0.448-1,1-1c0.552,0,1,0.448,1,1S19.552,4.001,19,4.001"
				/>
		</g>

</svg>
