<?xml version="1.0" encoding="utf-8"?>
<svg version="1.1" id="Layer_1" xmlns="http://www.w3.org/2000/svg" xmlns:xlink="http://www.w3.org/1999/xlink" x="0px" y="0px" viewBox="0 0 28 28"
	 enable-background="new 0 0 28 28" xml:space="preserve">

	<g>
		<rect x="4.001" y="0.001" fill="#231F20" width="4.999" height="5"/>
		<g>
			<defs>
				<rect id="SVGID_1_" width="28" height="28"/>
			</defs>
			<clipPath id="SVGID_2_">
				<use xlink:href="#SVGID_1_"  overflow="visible"/>
			</clipPath>
			<path clip-path="url(#SVGID_2_)" fill="#231F20" d="M19,3.5h-1c-0.317,0-0.683,0.135-0.757,0.191l-0.478,0.5l-1.446-1.382
				l0.479-0.5C16.33,1.753,17.312,1.5,18,1.5h1V0h5v5h-5V3.5z"/>
			<path clip-path="url(#SVGID_2_)" fill="#231F20" d="M9,6H4c-1.828,1.15-4,4.68-4,7v13c0,1.1,0.9,2,2,2h9c1.1,0,2-0.9,2-2V13
				C13,10.68,10.828,7.15,9,6 M4,13c0.552,0,1,0.448,1,1s-0.448,1-1,1s-1-0.448-1-1S3.448,13,4,13 M6.5,23C4.567,23,3,21.433,3,19.5
				S4.567,16,6.5,16c0.173,0,0.339,0.027,0.505,0.051C7.033,17.13,7.915,18,9,18c0.209,0,0.406-0.041,0.596-0.101
				C9.845,18.381,10,18.92,10,19.5C10,21.433,8.433,23,6.5,23 M9,17c-0.552,0-1-0.448-1-1c0-0.552,0.448-1,1-1c0.552,0,1,0.448,1,1
				C10,16.552,9.552,17,9,17 M9,12c-0.552,0-1-0.448-1-1s0.448-1,1-1c0.552,0,1,0.448,1,1S9.552,12,9,12"/>
			<path clip-path="url(#SVGID_2_)" fill="#231F20" d="M24,6h-5c-1.828,1.15-4,4.68-4,7v13c0,1.1,0.9,2,2,2h9c1.1,0,2-0.9,2-2V13
				C28,10.68,25.828,7.15,24,6 M19,13c0.552,0,1,0.448,1,1s-0.448,1-1,1s-1-0.448-1-1S18.448,13,19,13 M21.5,23
				c-1.933,0-3.5-1.567-3.5-3.5s1.567-3.5,3.5-3.5c0.173,0,0.339,0.027,0.505,0.051C22.033,17.13,22.915,18,24,18
				c0.209,0,0.406-0.041,0.596-0.101C24.845,18.381,25,18.92,25,19.5C25,21.433,23.433,23,21.5,23 M25,16c0,0.552-0.448,1-1,1
				c-0.552,0-1-0.448-1-1c0-0.552,0.448-1,1-1C24.552,15,25,15.448,25,16"/>
		</g>
	</g>
</svg>
