<?xml version="1.0" encoding="utf-8"?>
<svg version="1.1" id="Layer_1" xmlns="http://www.w3.org/2000/svg" xmlns:xlink="http://www.w3.org/1999/xlink" x="0px" y="0px"
	 viewBox="0 0 28 28" enable-background="new 0 0 28 28" xml:space="preserve">
<g>
	<defs>
		<rect id="SVGID_1_" width="28" height="28"/>
	</defs>
	<clipPath id="SVGID_2_">
		<use xlink:href="#SVGID_1_"  overflow="visible"/>
	</clipPath>
	<path clip-path="url(#SVGID_2_)" d="M23,18c-1.215,0-2.315,0.451-3.182,1.173l-9.843-4.921C9.978,14.166,10,14.086,10,14
		s-0.022-0.166-0.025-0.252l9.843-4.921C20.685,9.549,21.785,10,23,10c2.762,0,5-2.238,5-5s-2.238-5-5-5s-5,2.238-5,5
		c0,0.086,0.021,0.166,0.025,0.251l-9.843,4.922C7.316,9.451,6.217,9,5,9c-2.762,0-5,2.238-5,5s2.238,5,5,5
		c1.217,0,2.316-0.451,3.182-1.173l9.843,4.922C18.021,22.834,18,22.914,18,23c0,2.762,2.238,5,5,5s5-2.238,5-5S25.762,18,23,18
		 M23,2c1.654,0,3,1.346,3,3s-1.346,3-3,3c-1.654,0-3-1.346-3-3S21.346,2,23,2 M5,17c-1.654,0-3-1.346-3-3s1.346-3,3-3s3,1.346,3,3
		S6.654,17,5,17 M23,26c-1.654,0-3-1.346-3-3s1.346-3,3-3c1.654,0,3,1.346,3,3S24.654,26,23,26"/>
</g>
</svg>
