<?xml version="1.0" encoding="utf-8"?>
<svg version="1.1" id="Layer_1" xmlns="http://www.w3.org/2000/svg" xmlns:xlink="http://www.w3.org/1999/xlink" x="0px" y="0px"
	 viewBox="0 0 28 28" enable-background="new 0 0 28 28" xml:space="preserve">
<g>
	<defs>
		<rect id="SVGID_1_" width="28" height="28"/>
	</defs>
	<clipPath id="SVGID_2_">
		<use xlink:href="#SVGID_1_"  overflow="visible"/>
	</clipPath>
	<path clip-path="url(#SVGID_2_)" d="M28,11.686c0-0.73-0.877-1.407-2.326-1.973c1.07-0.991,1.533-1.89,1.193-2.561
		c-0.332-0.652-1.375-1.001-2.902-1.068c0.496-1.2,0.508-2.138-0.092-2.638c-0.617-0.514-1.793-0.493-3.297-0.04
		c-0.084-1.334-0.521-2.243-1.33-2.517c-0.787-0.266-1.82,0.101-2.955,0.951C15.625,0.698,14.834,0,13.984,0
		c-0.875,0-1.687,0.737-2.367,1.945c-1.189-0.892-2.269-1.277-3.074-0.994C7.76,1.227,7.342,2.098,7.262,3.369
		C5.82,2.956,4.695,2.946,4.096,3.445C3.478,3.961,3.504,4.939,4.047,6.192c-1.6,0.072-2.69,0.434-3.018,1.109
		C0.711,7.957,1.15,8.816,2.17,9.764C0.799,10.318,0,10.979,0,11.686c0,0.729,0.846,1.407,2.297,1.973
		c-1.07,0.992-1.533,1.891-1.194,2.562c0.332,0.652,1.375,1.002,2.903,1.068c-0.496,1.199-0.508,2.138,0.092,2.637
		C4.631,20.37,5.785,20.287,7,20v8h5v-3.75c-2.484-0.832-4.281-3.178-4.281-5.938V17.08c-2.246-0.099-3.842-1.139-3.842-2.546
		c0-1.479,1.764-2.553,4.193-2.554c0.865-2.478,3.227-4.199,5.914-4.199c2.688,0,5.049,1.721,5.914,4.199
		c2.43,0,4.194,1.075,4.194,2.554c0,1.407-1.596,2.447-3.842,2.546v1.232c0,2.749-1.783,5.084-4.25,5.926V28h5v-8
		c1.217,0.288,2.34,0.369,2.873-0.074c0.617-0.516,0.592-1.493,0.049-2.747c1.599-0.071,2.689-0.434,3.019-1.11
		c0.319-0.655-0.121-1.515-1.14-2.461C27.172,13.052,28,12.394,28,11.686 M13.984,23.577c2.91,0,5.266-2.358,5.266-5.265v-2.255
		c0.209,0.02,0.426,0.031,0.648,0.031c1.762,0,3.194-0.695,3.194-1.554c0-0.858-1.432-1.554-3.194-1.554
		c-0.257,0-0.509,0.017-0.75,0.045c-0.474-2.418-2.605-4.244-5.164-4.244c-2.558,0-4.689,1.826-5.164,4.244
		c-0.242-0.028-0.49-0.045-0.748-0.045c-1.763,0-3.195,0.696-3.195,1.554c0,0.859,1.432,1.554,3.195,1.554
		c0.221,0,0.438-0.011,0.647-0.031v2.255C8.719,21.219,11.076,23.577,13.984,23.577 M16,14c0.553,0,1,0.449,1,1c0,0.553-0.447,1-1,1
		c-0.553,0-1-0.447-1-1C15,14.449,15.447,14,16,14 M12,14c0.553,0,1,0.449,1,1c0,0.553-0.447,1-1,1c-0.553,0-1-0.447-1-1
		C11,14.449,11.447,14,12,14"/>
</g>
</svg>
