<?xml version="1.0" encoding="utf-8"?>
<svg version="1.1" id="Layer_1" xmlns="http://www.w3.org/2000/svg" xmlns:xlink="http://www.w3.org/1999/xlink" x="0px" y="0px" viewBox="0 0 28 28"
	 enable-background="new 0 0 28 28" xml:space="preserve">

		<g>
			<defs>
				<rect id="SVGID_1_" width="28" height="28"/>
			</defs>
			<clipPath id="SVGID_2_">
				<use xlink:href="#SVGID_1_"  overflow="visible"/>
			</clipPath>
			<path clip-path="url(#SVGID_2_)" fill="#231F20" d="M14,0C2.812,0,0,6,0,6c0,6.904,2,18,14,22c12-4,14-15.096,14-22
				C28,6,25.187,0,14,0 M24.947,14H19.5c0,3.033-2.467,5.5-5.5,5.5v6.381C9.756,24.313,5.09,20.98,3.052,14H8.5
				c0-3.033,2.467-5.5,5.5-5.5V2c8.258,0,11.259,3.455,11.996,4.535C25.955,9.406,25.57,11.867,24.947,14"/>
			<path clip-path="url(#SVGID_2_)" fill="#231F20" d="M18,14c0-2.209-1.789-4-4-4c-2.209,0-4,1.791-4,4c0,2.21,1.791,4,4,4
				C16.211,18,18,16.21,18,14"/>
		</g>

</svg>
