<?xml version="1.0" encoding="utf-8"?>
<svg version="1.1" id="Layer_1" xmlns="http://www.w3.org/2000/svg" xmlns:xlink="http://www.w3.org/1999/xlink" x="0px" y="0px"
	 viewBox="0 0 28 28" enable-background="new 0 0 28 28" xml:space="preserve">
<g>
	<defs>
		<rect id="SVGID_1_" width="28" height="28"/>
	</defs>
	<clipPath id="SVGID_2_">
		<use xlink:href="#SVGID_1_"  overflow="visible"/>
	</clipPath>
	<path clip-path="url(#SVGID_2_)" d="M18,7h-4V5c0-2.762-2.238-5-5-5S4,2.238,4,5v2H0v5h18V7z M12,7H6V5c0-1.654,1.346-3,3-3
		s3,1.346,3,3V7z M25,16V6.949c1.695-0.244,3-1.687,3-3.449C28,1.567,26.434,0,24.5,0h-3C19.568,0,18,1.567,18,3.5
		c0,1.762,1.307,3.205,3,3.449V16c-1.656,0-3,1.343-3,3v9h10v-9C28,17.343,26.658,16,25,16 M21.5,5C20.674,5,20,4.327,20,3.5
		S20.674,2,21.5,2h3C25.328,2,26,2.673,26,3.5S25.328,5,24.5,5H21.5z M3,28h12l2-15H1L3,28z"/>
</g>
</svg>
