<?xml version="1.0" encoding="utf-8"?>
<svg version="1.1" id="Layer_1" xmlns="http://www.w3.org/2000/svg" xmlns:xlink="http://www.w3.org/1999/xlink" x="0px" y="0px" viewBox="0 0 28 28"
	 enable-background="new 0 0 28 28" xml:space="preserve">

		<g>
			<defs>
				<rect id="SVGID_1_" width="28" height="28"/>
			</defs>
			<clipPath id="SVGID_2_">
				<use xlink:href="#SVGID_1_"  overflow="visible"/>
			</clipPath>
			<path clip-path="url(#SVGID_2_)" fill="#231F20" d="M0.29,26.29C0.109,26.481,0,26.74,0,27s0.109,0.52,0.29,0.71
				C0.48,27.89,0.74,28,1,28s0.52-0.11,0.71-0.29C1.89,27.52,2,27.26,2,27s-0.11-0.519-0.29-0.71C1.34,25.92,0.67,25.92,0.29,26.29"
				/>
			<path clip-path="url(#SVGID_2_)" fill="#231F20" d="M4.39,19.08c-0.5-0.221-1.09,0.02-1.31,0.529c-0.22,0.5,0.02,1.09,0.53,1.311
				C3.731,20.97,3.87,21,4,21c0.39,0,0.76-0.231,0.92-0.61C5.14,19.89,4.901,19.3,4.39,19.08"/>
			<path clip-path="url(#SVGID_2_)" fill="#231F20" d="M6.42,16.89c0.22-0.5-0.02-1.09-0.53-1.31c-0.5-0.22-1.09,0.02-1.31,0.53
				c-0.221,0.5,0.02,1.09,0.52,1.31c0.131,0.05,0.269,0.08,0.4,0.08C5.89,17.5,6.26,17.27,6.42,16.89"/>
			<path clip-path="url(#SVGID_2_)" fill="#231F20" d="M2.89,22.58c-0.5-0.221-1.09,0.02-1.31,0.529c-0.22,0.5,0.02,1.09,0.53,1.311
				c0.121,0.05,0.26,0.08,0.39,0.08c0.39,0,0.76-0.231,0.92-0.61C3.64,23.39,3.401,22.8,2.89,22.58"/>
			<path clip-path="url(#SVGID_2_)" fill="#231F20" d="M7,14c0.26,0,0.52-0.11,0.71-0.29C7.89,13.52,8,13.27,8,13
				c0-0.27-0.11-0.52-0.29-0.71c-0.37-0.37-1.04-0.37-1.42,0C6.109,12.48,6,12.73,6,13c0,0.26,0.109,0.52,0.29,0.71
				C6.48,13.89,6.74,14,7,14"/>
			<path clip-path="url(#SVGID_2_)" fill="#231F20" d="M6.29,26.286C6.109,26.477,6,26.737,6,26.997c0,0.269,0.109,0.519,0.29,0.709
				c0.19,0.18,0.45,0.291,0.71,0.291c0.26,0,0.52-0.111,0.71-0.291C7.89,27.516,8,27.257,8,26.997c0-0.26-0.11-0.52-0.29-0.711
				C7.34,25.917,6.66,25.917,6.29,26.286"/>
			<path clip-path="url(#SVGID_2_)" fill="#231F20" d="M9.869,15.526c-0.539-0.129-1.079,0.189-1.209,0.73
				c-0.141,0.53,0.189,1.081,0.72,1.209c0.08,0.022,0.17,0.032,0.25,0.032c0.44,0,0.85-0.301,0.96-0.76
				C10.73,16.206,10.4,15.657,9.869,15.526"/>
			<path clip-path="url(#SVGID_2_)" fill="#231F20" d="M8.119,22.526C7.58,22.397,7.04,22.715,6.9,23.256
				c-0.131,0.53,0.199,1.081,0.73,1.209c0.08,0.022,0.16,0.032,0.239,0.032c0.451,0,0.861-0.301,0.98-0.76
				C8.98,23.206,8.65,22.657,8.119,22.526"/>
			<path clip-path="url(#SVGID_2_)" fill="#231F20" d="M8.99,19.026c-0.53-0.129-1.08,0.189-1.211,0.73
				c-0.129,0.53,0.191,1.071,0.731,1.209c0.08,0.022,0.16,0.032,0.24,0.032c0.449,0,0.859-0.301,0.97-0.76
				C9.849,19.706,9.529,19.157,8.99,19.026"/>
			<path clip-path="url(#SVGID_2_)" fill="#231F20" d="M9.79,12.286c-0.181,0.191-0.29,0.441-0.29,0.711
				c0,0.269,0.109,0.519,0.29,0.709c0.19,0.18,0.45,0.291,0.71,0.291c0.26,0,0.52-0.111,0.71-0.291c0.18-0.19,0.29-0.449,0.29-0.709
				s-0.11-0.52-0.29-0.711C10.83,11.917,10.16,11.927,9.79,12.286"/>
			<path clip-path="url(#SVGID_2_)" fill="#231F20" d="M27.71,26.29c-0.37-0.37-1.05-0.37-1.42,0C26.109,26.481,26,26.74,26,27
				s0.109,0.52,0.29,0.71C26.48,27.89,26.74,28,27,28c0.27,0,0.52-0.11,0.71-0.29C27.89,27.52,28,27.26,28,27
				S27.89,26.481,27.71,26.29"/>
			<path clip-path="url(#SVGID_2_)" fill="#231F20" d="M26.42,23.109c-0.221-0.51-0.811-0.75-1.311-0.529
				c-0.509,0.219-0.75,0.809-0.529,1.309c0.16,0.38,0.529,0.611,0.92,0.611c0.13,0,0.27-0.031,0.39-0.08
				C26.4,24.199,26.64,23.609,26.42,23.109"/>
			<path clip-path="url(#SVGID_2_)" fill="#231F20" d="M24.92,19.609c-0.221-0.51-0.811-0.75-1.311-0.529
				c-0.509,0.219-0.75,0.809-0.529,1.309C23.24,20.769,23.609,21,24,21c0.13,0,0.27-0.031,0.39-0.08
				C24.9,20.699,25.14,20.109,24.92,19.609"/>
			<path clip-path="url(#SVGID_2_)" fill="#231F20" d="M23.42,16.109c-0.221-0.51-0.811-0.75-1.32-0.529
				c-0.5,0.219-0.741,0.809-0.52,1.309c0.16,0.38,0.529,0.611,0.92,0.611c0.13,0,0.26-0.031,0.39-0.08
				C23.4,17.199,23.64,16.609,23.42,16.109"/>
			<path clip-path="url(#SVGID_2_)" fill="#231F20" d="M20.29,12.29C20.109,12.481,20,12.731,20,13c0,0.26,0.109,0.52,0.29,0.71
				C20.48,13.89,20.74,14,21,14s0.52-0.11,0.71-0.29C21.89,13.52,22,13.26,22,13c0-0.269-0.11-0.519-0.29-0.71
				C21.33,11.92,20.67,11.92,20.29,12.29"/>
			<path clip-path="url(#SVGID_2_)" fill="#231F20" d="M20.29,26.29C20.109,26.481,20,26.74,20,27s0.109,0.52,0.29,0.71
				C20.48,27.89,20.74,28,21,28s0.52-0.11,0.71-0.29C21.89,27.52,22,27.27,22,27c0-0.26-0.11-0.519-0.29-0.71
				C21.34,25.92,20.66,25.92,20.29,26.29"/>
			<path clip-path="url(#SVGID_2_)" fill="#231F20" d="M19.49,20.97c0.539-0.14,0.859-0.68,0.73-1.21
				c-0.13-0.54-0.68-0.859-1.21-0.73c-0.54,0.131-0.871,0.68-0.731,1.211C18.389,20.7,18.8,21,19.25,21
				C19.33,21,19.41,20.991,19.49,20.97"/>
			<path clip-path="url(#SVGID_2_)" fill="#231F20" d="M18.619,17.47c0.531-0.13,0.861-0.68,0.721-1.21
				c-0.13-0.54-0.67-0.859-1.21-0.73c-0.531,0.131-0.861,0.68-0.72,1.211c0.109,0.459,0.52,0.759,0.959,0.759
				C18.449,17.5,18.54,17.491,18.619,17.47"/>
			<path clip-path="url(#SVGID_2_)" fill="#231F20" d="M20.369,24.47c0.531-0.13,0.861-0.68,0.73-1.21
				c-0.139-0.54-0.679-0.859-1.219-0.73c-0.531,0.131-0.861,0.68-0.73,1.211c0.119,0.459,0.53,0.759,0.969,0.759
				C20.21,24.5,20.29,24.491,20.369,24.47"/>
			<path clip-path="url(#SVGID_2_)" fill="#231F20" d="M18.21,13.71c0.18-0.191,0.29-0.441,0.29-0.71c0-0.27-0.11-0.52-0.29-0.71
				c-0.37-0.37-1.05-0.37-1.42,0c-0.181,0.19-0.29,0.44-0.29,0.71c0,0.26,0.109,0.519,0.29,0.71C16.98,13.89,17.24,14,17.5,14
				S18.02,13.89,18.21,13.71"/>
			<path clip-path="url(#SVGID_2_)" fill="#231F20" d="M13.29,26.29C13.109,26.481,13,26.74,13,27s0.109,0.52,0.29,0.71
				C13.48,27.89,13.74,28,14,28c0.26,0,0.52-0.11,0.71-0.29C14.89,27.52,15,27.26,15,27s-0.11-0.519-0.29-0.71
				C14.34,25.92,13.66,25.92,13.29,26.29"/>
			<path clip-path="url(#SVGID_2_)" fill="#231F20" d="M14,19c-0.551,0-1,0.449-1,1c0,0.55,0.449,1,1,1c0.55,0,1-0.45,1-1
				C15,19.449,14.55,19,14,19"/>
			<path clip-path="url(#SVGID_2_)" fill="#231F20" d="M14,15.5c-0.551,0-1,0.449-1,1c0,0.55,0.449,1,1,1c0.55,0,1-0.45,1-1
				C15,15.949,14.55,15.5,14,15.5"/>
			<path clip-path="url(#SVGID_2_)" fill="#231F20" d="M14,22.5c-0.551,0-1,0.449-1,1c0,0.55,0.449,1,1,1c0.55,0,1-0.45,1-1
				C15,22.949,14.55,22.5,14,22.5"/>
			<path clip-path="url(#SVGID_2_)" fill="#231F20" d="M13.29,12.29C13.109,12.481,13,12.74,13,13c0,0.26,0.109,0.52,0.29,0.71
				C13.48,13.89,13.74,14,14,14c0.26,0,0.52-0.11,0.71-0.29C14.89,13.52,15,13.26,15,13c0-0.26-0.11-0.519-0.29-0.71
				C14.34,11.92,13.66,11.92,13.29,12.29"/>
			<rect x="7" y="8" clip-path="url(#SVGID_2_)" fill="#231F20" width="14" height="2"/>
			<path clip-path="url(#SVGID_2_)" fill="#231F20" d="M20.985,5.834c0-3.222-3.134-5.834-7-5.834c-3.865,0-7,2.612-7,5.834V7h14
				V5.834z"/>
		</g>
</svg>
