<?xml version="1.0" encoding="utf-8"?>
<svg version="1.1" id="Layer_1" xmlns="http://www.w3.org/2000/svg" xmlns:xlink="http://www.w3.org/1999/xlink" x="0px" y="0px"
	 viewBox="0 0 28 28" enable-background="new 0 0 28 28" xml:space="preserve">
<g>
	<defs>
		<rect id="SVGID_1_" width="28" height="28"/>
	</defs>
	<clipPath id="SVGID_2_">
		<use xlink:href="#SVGID_1_"  overflow="visible"/>
	</clipPath>
	<path clip-path="url(#SVGID_2_)" d="M7,28h1v-6H7V28z M5,25.497C4.998,25.748,4.912,27,3.5,27v1C5.478,28,6,26.365,6,25.5V22H5
		V25.497z M16,0v7h7L16,0z M23,8h-8V0H5v13h18V8z M20,11H8v-1h12V11z M22,14H0v7h22V14z M4.502,19C3.672,19,3,18.329,3,17.5
		C3,16.673,3.672,16,4.502,16C5.33,16,6,16.673,6,17.5C6,18.329,5.33,19,4.502,19 M8.502,19C7.674,19,7,18.329,7,17.5
		C7,16.673,7.674,16,8.502,16C9.328,16,10,16.673,10,17.5C10,18.329,9.328,19,8.502,19 M19,28h1v-6h-1V28z M22,25.497V22h-1v3.5
		c0,0.865,0.523,2.5,2.5,2.5v-1C22.09,27,22.004,25.748,22,25.497 M17,28h1v-6h-1V28z M23,21h5v-7h-5V21z M15,28h1v-6h-1V28z M9,28
		h1v-6H9V28z M11,28h1v-6h-1V28z M13,28h1v-6h-1V28z"/>
</g>
</svg>
