<?xml version="1.0" encoding="utf-8"?>
<svg version="1.1" id="Layer_1" xmlns="http://www.w3.org/2000/svg" xmlns:xlink="http://www.w3.org/1999/xlink" x="0px" y="0px" viewBox="0 0 28 28"
	 enable-background="new 0 0 28 28" xml:space="preserve">

		<g>
			<defs>
				<rect id="SVGID_1_" width="28" height="28"/>
			</defs>
			<clipPath id="SVGID_2_">
				<use xlink:href="#SVGID_1_"  overflow="visible"/>
			</clipPath>
			<path clip-path="url(#SVGID_2_)" fill="#231F20" d="M17.623,27.529c2.286-0.612,4.39-1.809,6.1-3.465L9.527,20.262l2.013,7.514
				C13.591,28.144,15.638,28.061,17.623,27.529"/>
			<path clip-path="url(#SVGID_2_)" fill="#231F20" d="M27.582,10.606l-10.402,10.4l7.525,2.017
				C27.603,19.575,28.671,14.956,27.582,10.606"/>
			<path clip-path="url(#SVGID_2_)" fill="#231F20" d="M10.16,27.458L6.355,13.259l-5.512,5.508
				C2.367,22.989,5.835,26.221,10.16,27.458"/>
			<path clip-path="url(#SVGID_2_)" fill="#231F20" d="M0.417,17.406l10.402-10.4L3.294,4.99C0.395,8.438-0.673,13.057,0.417,17.406
				"/>
			<path clip-path="url(#SVGID_2_)" fill="#231F20" d="M17.84,0.554l3.805,14.2l5.511-5.509C25.632,5.023,22.164,1.791,17.84,0.554"
				/>
			<path clip-path="url(#SVGID_2_)" fill="#231F20" d="M10.376,0.483c-2.287,0.613-4.391,1.809-6.1,3.465l14.197,3.803l-2.014-7.515
				C14.408-0.132,12.361-0.049,10.376,0.483"/>
		</g>

</svg>
