<?xml version="1.0" encoding="utf-8"?>
<svg version="1.1" id="Layer_1" xmlns="http://www.w3.org/2000/svg" xmlns:xlink="http://www.w3.org/1999/xlink" x="0px" y="0px" viewBox="0 0 28 28"
	 enable-background="new 0 0 28 28" xml:space="preserve">

		<g>
			<defs>
				<rect id="SVGID_1_" width="28" height="28"/>
			</defs>
			<clipPath id="SVGID_2_">
				<use xlink:href="#SVGID_1_"  overflow="visible"/>
			</clipPath>
			<path clip-path="url(#SVGID_2_)" fill="#231F20" d="M14,2.667L17.25,7h2.5L14.8,0.4c-0.377-0.504-1.223-0.504-1.6,0L8.25,7h2.5
				L14,2.667z"/>
			<path clip-path="url(#SVGID_2_)" fill="#231F20" d="M23.836,14.149h-0.134v8.018h0.113c0.394,0,0.563-0.471,0.563-4.069
				C24.378,14.536,24.232,14.149,23.836,14.149"/>
			<path clip-path="url(#SVGID_2_)" fill="#231F20" d="M0,28h28V8H0V28z M3.983,24.217C2.62,24.217,2,22.601,2,18.181
				c0-4.385,0.61-6.1,2.006-6.1c1.386,0,1.757,1.579,1.837,3.866L4.31,16.282c-0.045-1.697-0.057-2.201-0.315-2.201
				c-0.305,0-0.372,0.554-0.372,4.035c0,3.612,0.079,4.099,0.394,4.099c0.202,0,0.282-0.284,0.339-2.184l1.509,0.337
				C5.686,23.074,5.234,24.217,3.983,24.217 M9.463,24.03H6.476V12.265h1.578v9.682h1.409V24.03z M11.739,24.217
				c-1.397,0-1.982-1.681-1.982-6.051s0.608-6.085,2.006-6.085c1.396,0,1.993,1.697,1.993,6.051
				C13.756,22.502,13.148,24.217,11.739,24.217 M15.967,24.217c-1.319,0-1.746-1.345-1.858-3.345l1.486-0.421
				c0.079,1.563,0.17,1.864,0.384,1.864c0.248,0,0.326-0.25,0.326-1.04c0-1.127-0.203-1.58-0.834-2.436
				c-1.025-1.246-1.306-2.27-1.306-3.617c0-1.864,0.597-3.141,1.768-3.141c1.195,0,1.678,1.093,1.826,3.043l-1.454,0.437
				c-0.068-1.378-0.169-1.579-0.372-1.579c-0.225,0-0.304,0.233-0.304,0.955c0,0.824,0.158,1.194,0.777,2
				c1.082,1.312,1.409,2.37,1.409,4.136C17.815,22.988,17.162,24.217,15.967,24.217 M21.592,24.03h-3.268V12.265h3.201v2.084h-1.623
				v2.438h1.239v2.084h-1.239v3.076h1.69V24.03z M23.836,24.03h-1.679V12.265h1.815c1.59,0,2.028,2.151,2.028,5.8
				C26,22.098,25.323,24.03,23.836,24.03"/>
			<path clip-path="url(#SVGID_2_)" fill="#231F20" d="M11.751,14.081c-0.305,0-0.371,0.488-0.371,4.051s0.078,4.083,0.371,4.083
				c0.304,0,0.384-0.487,0.384-4.049C12.135,14.602,12.055,14.081,11.751,14.081"/>
		</g>

</svg>
