<?xml version="1.0" encoding="utf-8"?>
<svg version="1.1" id="Layer_1" xmlns="http://www.w3.org/2000/svg" xmlns:xlink="http://www.w3.org/1999/xlink" x="0px" y="0px" viewBox="0 0 28 28"
	 enable-background="new 0 0 28 28" xml:space="preserve">

		<g>
			<defs>
				<rect id="SVGID_1_" width="28" height="28"/>
			</defs>
			<clipPath id="SVGID_2_">
				<use xlink:href="#SVGID_1_"  overflow="visible"/>
			</clipPath>
			<path clip-path="url(#SVGID_2_)" fill="#231F20" d="M4.993,13.978c-0.459,0-0.559,0.481-0.559,4.006
				c0,3.522,0.118,4.039,0.559,4.039c0.455,0,0.574-0.483,0.574-4.006S5.448,13.978,4.993,13.978"/>
			<path clip-path="url(#SVGID_2_)" fill="#231F20" d="M11.276,13.851h-0.275v3.482h0.245c0.497,0,0.646-0.5,0.646-1.75
				C11.892,14.263,11.757,13.851,11.276,13.851"/>
			<path clip-path="url(#SVGID_2_)" fill="#231F20" d="M0,28h28V8H0V28z M4.975,24C2.879,24,2,22.338,2,18.017
				C2,13.695,2.912,12,5.008,12S8,13.678,8,17.983C8,22.304,7.087,24,4.975,24 M11.41,19.199H11V24H9V12h2.577
				C12.855,12,14,12.857,14,15.496C14,18.138,12.901,19.199,11.41,19.199 M20,14h-3v3h2v2h-2v3h3v2h-5V12h5V14z M26,24h-1.599
				l-0.726-2.76c-0.35-1.354-0.727-2.948-0.873-3.771c0.029,0.823,0.058,2.297,0.058,3.583V24H21V12h1.76l0.494,1.766
				c0.377,1.354,0.812,3.085,0.972,3.908c-0.042-0.788-0.086-2.521-0.086-3.737V12H26V24z"/>
			<path clip-path="url(#SVGID_2_)" fill="#231F20" d="M14,2.667L17.25,7h2.5L14.8,0.4c-0.377-0.504-1.223-0.504-1.6,0L8.25,7h2.5
				L14,2.667z"/>
		</g>

</svg>
