<?xml version="1.0" encoding="utf-8"?>
<svg version="1.1" id="Layer_1" xmlns="http://www.w3.org/2000/svg" xmlns:xlink="http://www.w3.org/1999/xlink" x="0px" y="0px" viewBox="0 0 28 28"
	 enable-background="new 0 0 28 28" xml:space="preserve">

		<g>
			<defs>
				<rect id="SVGID_1_" width="28" height="28"/>
			</defs>
			<clipPath id="SVGID_2_">
				<use xlink:href="#SVGID_1_"  overflow="visible"/>
			</clipPath>
			<path clip-path="url(#SVGID_2_)" fill="#231F20" d="M16,19h-4v6.367C10.484,24.005,8,24,8,24c2.552,1.334,2.592,4,2.592,4H12
				h1.143h1.714H16h1.408c0,0,0.04-2.666,2.592-4c0,0-2.484,0.005-4,1.367V19z"/>
			<path clip-path="url(#SVGID_2_)" fill="#231F20" d="M0,18h28V0H0V18z M14,16c-0.553,0-1-0.447-1-1s0.447-1,1-1
				c0.553,0,1,0.447,1,1S14.553,16,14,16 M14,4c-0.553,0-1-0.447-1-1c0-0.553,0.447-1,1-1c0.553,0,1,0.447,1,1
				C15,3.553,14.553,4,14,4"/>
		</g>

</svg>
