<?xml version="1.0" encoding="utf-8"?>
<svg version="1.1" id="Layer_1" xmlns="http://www.w3.org/2000/svg" xmlns:xlink="http://www.w3.org/1999/xlink" x="0px" y="0px" viewBox="0 0 28 28"
	 enable-background="new 0 0 28 28" xml:space="preserve">

		<g>
			<defs>
				<rect id="SVGID_1_" width="28" height="28"/>
			</defs>
			<clipPath id="SVGID_2_">
				<use xlink:href="#SVGID_1_"  overflow="visible"/>
			</clipPath>
			<path clip-path="url(#SVGID_2_)" fill="#231F20" d="M27,2c0-1.475-2.066-2-4-2s-4,0.525-4,2l-0.768,1.535
				C18.482,3.518,18.732,3.5,19,3.5c2.935,0,4.813,1.042,4.987,2.737l0.841,1.683C25.661,7.8,26.41,7.611,27,7.355v7.273
				c-0.549,0.238-1.236,0.42-2,0.542v2.661c1.764-0.31,3-1.013,3-1.831V4L27,2z M23,3c-1.657,0-3-0.449-3-1c0-0.551,1.343-1,3-1
				c1.657,0,3,0.449,3,1C26,2.551,24.657,3,23,3"/>
			<path clip-path="url(#SVGID_2_)" fill="#231F20" d="M12.987,6.237L13.5,7.264l0.513-1.027c0.127-1.235,1.166-2.117,2.851-2.508
				L16,2c0-1.475-2.066-2-4-2S8,0.525,8,2L7.232,3.535C7.482,3.518,7.732,3.5,8,3.5C10.935,3.5,12.813,4.542,12.987,6.237 M12,1
				c1.657,0,3,0.449,3,1c0,0.551-1.343,1-3,1S9,2.551,9,2C9,1.449,10.343,1,12,1"/>
			<path clip-path="url(#SVGID_2_)" fill="#231F20" d="M13,9.498V8.5l-1-2c0-1.475-2.066-2-4-2s-4,0.525-4,2l-1,2v0.691
				C3.593,9.066,4.263,9,5,9c2.935,0,4.813,1.042,4.987,2.737l0.513,1.027l0.513-1.027C11.117,10.731,11.832,9.963,13,9.498 M8,7.5
				c-1.657,0-3-0.449-3-1c0-0.551,1.343-1,3-1s3,0.449,3,1C11,7.051,9.657,7.5,8,7.5"/>
			<path clip-path="url(#SVGID_2_)" fill="#231F20" d="M5,10c-1.934,0-4,0.525-4,2l-1,2v12c0,1.103,2.239,2,5,2s5-0.897,5-2V14l-1-2
				C9,10.525,6.934,10,5,10 M5,11c1.657,0,3,0.448,3,1c0,0.551-1.343,1-3,1s-3-0.449-3-1C2,11.448,3.343,11,5,11 M9,24.628
				c-0.996,0.431-2.418,0.703-4,0.703s-3.004-0.272-4-0.703v-7.273c0.996,0.431,2.418,0.703,4,0.703s3.004-0.272,4-0.703V24.628z"/>
			<path clip-path="url(#SVGID_2_)" fill="#231F20" d="M19,4.5c-1.934,0-4,0.525-4,2l-1,2v0.691C14.593,9.066,15.263,9,16,9
				c2.935,0,4.813,1.042,4.987,2.737l0.307,0.615c0.646-0.121,1.227-0.289,1.706-0.497v7.273c-0.295,0.128-0.637,0.236-1,0.333
				v2.629c1.208-0.365,2-0.939,2-1.59v-12l-1-2C23,5.025,20.934,4.5,19,4.5 M19,7.5c-1.657,0-3-0.449-3-1c0-0.551,1.343-1,3-1
				c1.657,0,3,0.449,3,1C22,7.051,20.657,7.5,19,7.5"/>
			<path clip-path="url(#SVGID_2_)" fill="#231F20" d="M16,10c-1.934,0-4,0.525-4,2l-1,2v12c0,1.103,2.239,2,5,2s5-0.897,5-2V14
				l-1-2C20,10.525,17.934,10,16,10 M16,11c1.657,0,3,0.448,3,1c0,0.551-1.343,1-3,1s-3-0.449-3-1C13,11.448,14.343,11,16,11
				 M20,24.628c-0.996,0.431-2.418,0.703-4,0.703s-3.004-0.272-4-0.703v-7.273c0.996,0.431,2.418,0.703,4,0.703s3.004-0.272,4-0.703
				V24.628z"/>
		</g>

</svg>
