<?xml version="1.0" encoding="utf-8"?>
<svg version="1.1" id="Layer_1" xmlns="http://www.w3.org/2000/svg" xmlns:xlink="http://www.w3.org/1999/xlink" x="0px" y="0px"
	 viewBox="0 0 28 28" enable-background="new 0 0 28 28" xml:space="preserve">
<g>
	<defs>
		<rect id="SVGID_1_" width="28" height="28"/>
	</defs>
	<clipPath id="SVGID_2_">
		<use xlink:href="#SVGID_1_"  overflow="visible"/>
	</clipPath>
	<path clip-path="url(#SVGID_2_)" d="M21,0h0.004 M21,0l-1.048,4h-4.397l0.76-2.725l0.027-0.058L21,0 M4.601,1.131l10.308,1.088
		L14.477,4h-2.141l-0.202,0.549l-0.605,2.078L11.185,8h2.04l-0.457,2h-1.899l-0.205,0.549l-0.606,2.078L9.716,14h1.803l-0.648,2.213
		C10.859,16.244,9.23,19.875,1,20L4.601,1.131 M20.913,5h0.005 M20.913,5l-0.692,2H12.53l0.605-2H20.913 M18.708,8h0.004 M18.708,8
		l-0.456,2h-4.406l0.459-2H18.708 M19.444,11h0.005 M19.444,11l-0.692,2h-7.69l0.604-2H19.444 M17.008,14h0.005 M17.008,14
		l-0.543,2.287L27,20.139v4.785l1,0.349V28H0l1-7c9.263-0.088,10.81-4.309,10.863-4.482L12.596,14H17.008 M11.519,14h0.005"/>
</g>
</svg>
