<?xml version="1.0" encoding="utf-8"?>
<svg version="1.1" id="Layer_1" xmlns="http://www.w3.org/2000/svg" xmlns:xlink="http://www.w3.org/1999/xlink" x="0px" y="0px"
	 viewBox="0 0 28 28" enable-background="new 0 0 28 28" xml:space="preserve">
<g>
	<defs>
		<rect id="SVGID_1_" width="28" height="28"/>
	</defs>
	<clipPath id="SVGID_2_">
		<use xlink:href="#SVGID_1_"  overflow="visible"/>
	</clipPath>
	<path clip-path="url(#SVGID_2_)" d="M11.267,1.331c0.409-0.913,1.306-1.455,2.248-1.455c0.334,0,0.675,0.068,1,0.214
		c0.338,0.149,0.625,0.368,0.853,0.632c0.607,0.699,0.79,1.714,0.39,2.615l-4.453,9.971L8.554,7.407L11.267,1.331z M10.955,14.928
		l-4.424,2.143L4.754,13.26l-0.198-0.426L8.98,10.69L10.955,14.928z M0.26,3.622c-0.572-1.229-0.041-2.691,1.189-3.266
		c0.334-0.158,0.688-0.231,1.038-0.231c0.925,0,1.812,0.526,2.23,1.42l2.735,5.868l1.106,2.371l-4.425,2.144L0.26,3.622z
		 M4.735,28.022l-4.489-2.003L4.821,15.77l2.751,5.898L4.735,28.022z M11.686,28.124l-3.574-7.665v0.001l-1.158-2.482l4.425-2.144
		l4.761,10.212L11.686,28.124z M22.971,6.124c0,0.767-0.437,1.424-1.069,1.76l-0.409,16.317c0.85,0.232,1.478,1,1.478,1.923h-1l-1,2
		l-1-2h-1c0-0.922,0.627-1.69,1.476-1.922L20.04,7.884c-0.633-0.336-1.069-0.993-1.069-1.76v-4c0-1.104,0.895-2,2-2
		c1.104,0,2,0.896,2,2V6.124z M27.971,6.124c0,0.767-0.437,1.424-1.069,1.76l-0.409,16.317c0.85,0.232,1.478,1,1.478,1.923h-1l-1,2
		l-1-2h-1c0-0.922,0.627-1.69,1.476-1.922L25.04,7.884c-0.633-0.336-1.069-0.993-1.069-1.76v-4c0-1.104,0.895-2,2-2
		c1.104,0,2,0.896,2,2V6.124z"/>
</g>
</svg>
