<?xml version="1.0" encoding="utf-8"?>
<svg version="1.1" id="Layer_1" xmlns="http://www.w3.org/2000/svg" xmlns:xlink="http://www.w3.org/1999/xlink" x="0px" y="0px" viewBox="0 0 28 28"
	 enable-background="new 0 0 28 28" xml:space="preserve">

		<g>
			<defs>
				<rect id="SVGID_1_" width="28" height="28"/>
			</defs>
			<clipPath id="SVGID_2_">
				<use xlink:href="#SVGID_1_"  overflow="visible"/>
			</clipPath>
			<path clip-path="url(#SVGID_2_)" fill="#231F20" d="M27.382,21.405c-0.824-0.826-2.163-0.826-2.986,0l-2.395-2.394v-0.128
				c1.608-1.579,2.588-3.633,2.588-5.885c0-1.806-0.631-3.483-1.708-4.893l1.513-1.513c0.826,0.826,2.164,0.826,2.988,0
				c0.825-0.824,0.825-2.162,0-2.987c-0.826-0.826-2.163-0.826-2.988,0c-0.055,0.056-0.055,0.056,0,0
				c0.825-0.826,0.826-2.162,0-2.988c-0.824-0.823-2.162-0.823-2.986,0c-0.825,0.826-0.825,2.162,0,2.988l-1.78,1.779
				c-1.631-0.873-3.557-1.386-5.627-1.386s-3.996,0.513-5.628,1.386l-1.78-1.78c0.826-0.826,0.826-2.164,0-2.988
				c-0.823-0.824-2.162-0.824-2.986,0c-0.826,0.826-0.826,2.163,0,2.988c0.056,0.055,0.056,0.055,0,0
				c-0.826-0.825-2.162-0.826-2.988,0c-0.824,0.825-0.824,2.163,0,2.987c0.826,0.825,2.162,0.825,2.988,0l1.515,1.514
				c-1.078,1.41-1.709,3.087-1.709,4.893c0,2.252,0.98,4.306,2.588,5.885v0.128l-2.395,2.394c-0.824-0.825-2.163-0.825-2.986,0
				c-0.826,0.825-0.826,2.163,0,2.989c0.823,0.824,2.162,0.824,2.986,0c0.028-0.029,0.028-0.029,0,0
				c-0.824,0.824-0.824,2.162,0,2.987c0.825,0.825,2.162,0.825,2.987,0c0.826-0.825,0.826-2.163,0-2.987l0.396-0.396h2.012v-2
				c0-0.553,0.448-1,1-1s1,0.447,1,1v2h2v-2c0-0.553,0.448-1,1-1s1,0.447,1,1v2h2v-2c0-0.553,0.448-1,1-1c0.552,0,1,0.447,1,1v2
				h2.012l0.394,0.395c-0.825,0.824-0.825,2.163,0,2.986c0.825,0.826,2.163,0.826,2.989,0c0.823-0.823,0.823-2.162,0-2.986
				c-0.029-0.029-0.029-0.029,0,0c0.823,0.824,2.162,0.824,2.986,0C28.208,23.567,28.208,22.23,27.382,21.405 M10.001,14.998
				c-1.104,0-2-0.896-2-2s0.896-2,2-2c1.105,0,2,0.896,2,2S11.106,14.998,10.001,14.998 M18.001,14.998c-1.104,0-2-0.896-2-2
				s0.896-2,2-2c1.104,0,2,0.896,2,2S19.105,14.998,18.001,14.998"/>
		</g>

</svg>
