<?xml version="1.0" encoding="utf-8"?>
<svg version="1.1" id="Layer_1" xmlns="http://www.w3.org/2000/svg" xmlns:xlink="http://www.w3.org/1999/xlink" x="0px" y="0px"
	 viewBox="0 0 28 28" enable-background="new 0 0 28 28" xml:space="preserve">
<g>
	<defs>
		<rect id="SVGID_1_" width="28" height="28"/>
	</defs>
	<clipPath id="SVGID_2_">
		<use xlink:href="#SVGID_1_"  overflow="visible"/>
	</clipPath>
	<path clip-path="url(#SVGID_2_)" d="M14.002,0C6.27,0-0.002,5,0,11.5c0,3.5,2,6.551,5,8.672V28h3v-2.836c0-0.568,0.428-1.03,1-1.03
		c0.575,0,1,0.462,1,1.03V28h3v-2.836c0-0.568,0.428-1.03,1-1.03c0.575,0,1,0.462,1,1.03V28h3v-2.836c0-0.568,0.428-1.03,1.002-1.03
		c0.573,0,0.998,0.462,0.998,1.03V28h3v-7.828c3-2.121,4.998-5.172,5-8.672C28,5,21.733,0,14.002,0 M8.645,15.202
		c-1.719,0-3.111-1.384-3.111-3.092c0-1.707,1.392-3.092,3.111-3.092c1.717,0,3.109,1.385,3.109,3.092
		C11.754,13.818,10.362,15.202,8.645,15.202 M19.014,15.202c-1.719,0-3.111-1.384-3.111-3.092c0-1.707,1.392-3.092,3.111-3.092
		c1.719,0,3.109,1.385,3.109,3.092C22.123,13.818,20.733,15.202,19.014,15.202"/>
</g>
</svg>
