<?xml version="1.0" encoding="utf-8"?>
<svg version="1.1" id="Layer_1" xmlns="http://www.w3.org/2000/svg" xmlns:xlink="http://www.w3.org/1999/xlink" x="0px" y="0px" viewBox="0 0 28 28"
	 enable-background="new 0 0 28 28" xml:space="preserve">

		<g>
			<defs>
				<rect id="SVGID_1_" width="28" height="28"/>
			</defs>
			<clipPath id="SVGID_2_">
				<use xlink:href="#SVGID_1_"  overflow="visible"/>
			</clipPath>
			<path clip-path="url(#SVGID_2_)" fill="#231F20" d="M12.679,12.722L5.001,2.535v3.366l5.92,7.855
				C11.587,13.539,12.193,13.193,12.679,12.722"/>
			<path clip-path="url(#SVGID_2_)" fill="#231F20" d="M26.81,12.453L20,2.436v3.606l5.113,7.52
				c0.773,1.137,1.033,2.463,0.715,3.638c-0.284,1.05-1.004,1.903-2.028,2.405c-2.349,1.153-5.765,0.225-7.46-2.025l-0.044-0.058
				c-0.516,0.434-1.074,0.82-1.67,1.15l0.074,0.097c1.596,2.118,4.266,3.331,6.835,3.331c1.109,0,2.201-0.227,3.178-0.706
				c1.554-0.761,2.65-2.069,3.087-3.681C28.268,15.984,27.907,14.067,26.81,12.453"/>
			<rect clip-path="url(#SVGID_2_)" fill="#231F20" width="4" height="3"/>
			<path clip-path="url(#SVGID_2_)" fill="#231F20" d="M19,9.637V5h-4v4.637C15,12.594,12.532,15,9.5,15S4,12.594,4,9.637V5H0v4.637
				c0,4.321,2.989,7.958,7.034,9.032C7.015,18.777,7,18.887,7,19v7c0,1.1,0.9,2,2,2h1c1.1,0,2-0.9,2-2v-7
				c0-0.113-0.015-0.223-0.034-0.331C16.011,17.595,19,13.958,19,9.637"/>
			<rect x="15" clip-path="url(#SVGID_2_)" fill="#231F20" width="4" height="3"/>
		</g>

</svg>
