<?xml version="1.0" encoding="utf-8"?>
<svg version="1.1" id="Layer_1" xmlns="http://www.w3.org/2000/svg" xmlns:xlink="http://www.w3.org/1999/xlink" x="0px" y="0px"
	 viewBox="0 0 28 28" enable-background="new 0 0 28 28" xml:space="preserve">
<g>
	<defs>
		<rect id="SVGID_1_" width="28" height="28"/>
	</defs>
	<clipPath id="SVGID_2_">
		<use xlink:href="#SVGID_1_"  overflow="visible"/>
	</clipPath>
	<path clip-path="url(#SVGID_2_)" d="M14.017,0C6.277,0,0,6.268,0,14c0,7.731,6.277,14,14.017,14C21.76,28,28,21.731,28,14
		C28,6.268,21.76,0,14.017,0 M17.488,7.5c1.106,0,2.002,0.896,2.002,2c0,1.105-0.896,2-2.002,2c-1.105,0-2.004-0.895-2.004-2
		C15.484,8.396,16.383,7.5,17.488,7.5 M10.478,7.5c1.108,0,2.002,0.896,2.002,2c0,1.105-0.894,2-2.002,2
		c-1.107,0-2.002-0.895-2.002-2C8.476,8.396,9.371,7.5,10.478,7.5 M13.992,23c-4.031,0-7.586-3-9.02-6h18.022
		C21.594,20,18.074,23,13.992,23"/>
</g>
</svg>
