<?xml version="1.0" encoding="utf-8"?>
<svg version="1.1" id="Layer_1" xmlns="http://www.w3.org/2000/svg" xmlns:xlink="http://www.w3.org/1999/xlink" x="0px" y="0px"
	 viewBox="0 0 28 28" enable-background="new 0 0 28 28" xml:space="preserve">
<g>
	<defs>
		<rect id="SVGID_1_" width="28" height="28"/>
	</defs>
	<clipPath id="SVGID_2_">
		<use xlink:href="#SVGID_1_"  overflow="visible"/>
	</clipPath>
	<path clip-path="url(#SVGID_2_)" d="M14,0C6.269,0,0,6.268,0,14s6.269,14,14,14c7.732,0,14-6.268,14-14S21.732,0,14,0
		 M17.629,7.639c1.031,0,1.867,0.836,1.867,1.867c0,1.032-0.836,1.867-1.867,1.867s-1.867-0.835-1.867-1.867
		C15.762,8.475,16.598,7.639,17.629,7.639 M10.371,7.639c1.029,0,1.865,0.836,1.865,1.867c0,1.032-0.836,1.867-1.865,1.867
		c-1.031,0-1.867-0.835-1.867-1.867C8.504,8.475,9.34,7.639,10.371,7.639 M18,21.84V20h-3v2.794c-1,0.012-0.613,0.106-0.818,0.106
		c-4.026,0-7.684-2.9-9.116-5.9h17.868C22.064,19,20,20.816,18,21.84"/>
</g>
</svg>
