<?xml version="1.0" encoding="utf-8"?>
<svg version="1.1" id="Layer_1" xmlns="http://www.w3.org/2000/svg" xmlns:xlink="http://www.w3.org/1999/xlink" x="0px" y="0px"
	 viewBox="0 0 28 28" enable-background="new 0 0 28 28" xml:space="preserve">
<g>
	<defs>
		<rect id="SVGID_1_" width="28" height="28"/>
	</defs>
	<clipPath id="SVGID_2_">
		<use xlink:href="#SVGID_1_"  overflow="visible"/>
	</clipPath>
	<path clip-path="url(#SVGID_2_)" d="M14,0C6.269,0,0,6.268,0,14c0,7.731,6.269,14,14,14c7.732,0,14-6.269,14-14
		C28,6.268,21.732,0,14,0 M17.628,7.639c1.032,0,1.87,0.836,1.87,1.867c0,1.032-0.838,1.867-1.87,1.867
		c-1.029,0-1.865-0.835-1.865-1.867C15.763,8.475,16.599,7.639,17.628,7.639 M10.371,7.639c1.029,0,1.867,0.836,1.867,1.867
		c0,1.032-0.838,1.867-1.867,1.867c-1.032,0-1.868-0.835-1.868-1.867C8.503,8.475,9.339,7.639,10.371,7.639 M8.966,22.821
		c-1-0.504-1.9-0.821-2.638-1.821h2.638V22.821z M13.966,24.177c-2-0.06-3-0.348-4-0.841V21h4V24.177z M17.966,23.347
		c-1,0.482-2,0.764-3,0.829V21h3V23.347z M18.966,22.842V21h2.758C20.974,22,19.966,22.337,18.966,22.842 M22.648,20h-3.682v-3
		h-0.298h-0.487h-3.662h-0.453h-0.1v3h-4v-3h-1v3h-3.57c-0.863-1-1.572-2-2.07-4h21.349C24.193,18,23.502,19,22.648,20"/>
</g>
</svg>
