<?xml version="1.0" encoding="utf-8"?>
<svg version="1.1" id="Layer_1" xmlns="http://www.w3.org/2000/svg" xmlns:xlink="http://www.w3.org/1999/xlink" x="0px" y="0px" viewBox="0 0 28 28"
	 enable-background="new 0 0 28 28" xml:space="preserve">

		<g>
			<defs>
				<rect id="SVGID_1_" width="28" height="28"/>
			</defs>
			<clipPath id="SVGID_2_">
				<use xlink:href="#SVGID_1_"  overflow="visible"/>
			</clipPath>
			<path clip-path="url(#SVGID_2_)" fill="#231F20" d="M25.759,1.224c-2.532-1.969-6.18-1.514-8.15,1.017c0,0-0.21,0.27-0.595,0.726
				c-0.391,0.45-0.93,1.112-1.612,1.87c-1.354,1.527-3.219,3.504-5.137,5.428c-1.924,1.918-3.901,3.783-5.428,5.137
				c-0.758,0.682-1.42,1.221-1.87,1.612c-0.456,0.385-0.726,0.595-0.726,0.595c-0.362,0.285-0.721,0.636-1.017,1.017
				c-1.969,2.531-1.514,6.18,1.017,8.15c2.532,1.969,6.18,1.514,8.15-1.017c0,0,0.21-0.27,0.595-0.727
				c0.391-0.449,0.93-1.111,1.612-1.869c1.354-1.527,3.219-3.504,5.137-5.428c1.924-1.918,3.901-3.783,5.428-5.137
				c0.758-0.683,1.42-1.221,1.869-1.612c0.457-0.385,0.727-0.595,0.727-0.595c0.362-0.285,0.721-0.636,1.017-1.017
				C28.745,6.843,28.29,3.194,25.759,1.224 M13.207,20.207C13.012,20.402,12.756,20.5,12.5,20.5c-0.256,0-0.512-0.098-0.707-0.293
				l-4-4c-0.391-0.391-0.391-1.023,0-1.414c0.391-0.391,1.023-0.391,1.414,0l4,4C13.598,19.184,13.598,19.816,13.207,20.207
				 M20.707,12.707C20.512,12.902,20.256,13,20,13s-0.512-0.098-0.707-0.293l-4-4c-0.391-0.391-0.391-1.023,0-1.414
				c0.391-0.391,1.023-0.391,1.414,0l4,4C21.098,11.684,21.098,12.316,20.707,12.707"/>
		</g>

</svg>
