<?xml version="1.0" encoding="utf-8"?>
<svg version="1.1" id="Layer_1" xmlns="http://www.w3.org/2000/svg" xmlns:xlink="http://www.w3.org/1999/xlink" x="0px" y="0px" viewBox="0 0 28 28"
	 enable-background="new 0 0 28 28" xml:space="preserve">

		<g>
			<defs>
				<rect id="SVGID_1_" width="28" height="28"/>
			</defs>
			<clipPath id="SVGID_2_">
				<use xlink:href="#SVGID_1_"  overflow="visible"/>
			</clipPath>
			<path clip-path="url(#SVGID_2_)" fill="#231F20" d="M27,13h-5.586l3.293-3.293c0.391-0.391,0.391-1.023,0-1.414
				c-0.391-0.391-1.023-0.391-1.414,0L18.586,13h-2.879l5.647-5.646c0.195-0.196,0.195-0.512,0-0.708
				c-0.196-0.195-0.512-0.195-0.708,0L15,12.293V8.414l4.707-4.707c0.391-0.391,0.391-1.023,0-1.414
				c-0.391-0.391-1.023-0.391-1.414,0L15,5.586V1c0-0.553-0.447-1-1-1s-1,0.447-1,1v4.586L9.707,2.293
				c-0.391-0.391-1.023-0.391-1.414,0c-0.391,0.391-0.391,1.023,0,1.414L13,8.414v3.879L7.354,6.646
				c-0.196-0.195-0.512-0.195-0.708,0c-0.195,0.196-0.195,0.512,0,0.708L12.293,13H8.414L3.707,8.293
				c-0.391-0.391-1.023-0.391-1.414,0c-0.391,0.391-0.391,1.023,0,1.414L5.586,13H1c-0.553,0-1,0.447-1,1c0,0.553,0.447,1,1,1h4.586
				l-3.293,3.293c-0.391,0.391-0.391,1.023,0,1.414C2.488,19.902,2.744,20,3,20s0.512-0.098,0.707-0.293L8.414,15h3.879
				l-5.647,5.646c-0.195,0.196-0.195,0.512,0,0.708C6.744,21.451,6.872,21.5,7,21.5s0.256-0.049,0.354-0.146L13,15.707v2.879
				l-4.707,4.707c-0.391,0.391-0.391,1.023,0,1.414c0.391,0.391,1.023,0.391,1.414,0L13,21.414V27c0,0.553,0.447,1,1,1s1-0.447,1-1
				v-5.586l3.293,3.293C18.488,24.902,18.744,25,19,25c0.256,0,0.512-0.098,0.707-0.293c0.391-0.391,0.391-1.023,0-1.414L15,18.586
				v-2.879l5.646,5.647C20.744,21.451,20.872,21.5,21,21.5c0.128,0,0.256-0.049,0.354-0.146c0.195-0.196,0.195-0.512,0-0.708
				L15.707,15h2.879l4.707,4.707C23.488,19.902,23.744,20,24,20c0.256,0,0.512-0.098,0.707-0.293c0.391-0.391,0.391-1.023,0-1.414
				L21.414,15H27c0.553,0,1-0.447,1-1C28,13.447,27.553,13,27,13"/>
		</g>

</svg>
