<?xml version="1.0" encoding="utf-8"?>
<svg version="1.1" id="Layer_1" xmlns="http://www.w3.org/2000/svg" xmlns:xlink="http://www.w3.org/1999/xlink" x="0px" y="0px" viewBox="0 0 28 28"
	 enable-background="new 0 0 28 28" xml:space="preserve">

		<g>
			<defs>
				<rect id="SVGID_1_" width="28" height="28"/>
			</defs>
			<clipPath id="SVGID_2_">
				<use xlink:href="#SVGID_1_"  overflow="visible"/>
			</clipPath>
			<path clip-path="url(#SVGID_2_)" fill="#231F20" d="M27.757,4.571c-0.233-0.142-0.543-0.065-0.686,0.172l-1.369,2.282
				l-0.727-2.183c-0.088-0.262-0.371-0.403-0.633-0.317c-0.262,0.088-0.404,0.371-0.317,0.633l0.999,2.997l-0.866,1.444L20.98,10.87
				c-0.576-1.106-1.502-2.05-2.661-2.728C19.091,7.283,19.556,6.191,19.556,5c0-2.761-2.488-5-5.556-5S8.444,2.239,8.444,5
				c0,1.191,0.465,2.283,1.237,3.142c-1.043,0.61-1.895,1.437-2.476,2.402L4.83,9.594L3.052,6.927l0.923-2.769
				C4.062,3.896,3.92,3.613,3.658,3.525C3.398,3.439,3.114,3.58,3.025,3.842l-0.676,2.03L0.916,3.723
				C0.762,3.491,0.45,3.431,0.223,3.584c-0.23,0.153-0.292,0.464-0.139,0.693l4.086,6.129l2.591,1.036
				C6.507,12.09,6.364,12.78,6.364,13.5c0,1.038,0.293,2.016,0.801,2.886C5.457,17.83,4.4,19.812,4.4,22
				c0,1.482,0.488,2.866,1.332,4.054C5.313,26.173,5,26.543,5,27c0,0.552,0.448,1,1,1h1.665h12.67H22c0.552,0,1-0.448,1-1
				c0-0.457-0.313-0.827-0.732-0.946C23.112,24.866,23.6,23.482,23.6,22c0-2.188-1.057-4.17-2.765-5.614
				c0.508-0.87,0.801-1.848,0.801-2.886c0-0.592-0.101-1.162-0.275-1.707l3.481-1.392l3.087-5.144
				C28.071,5.021,27.994,4.713,27.757,4.571 M12,4.75c-0.414,0-0.75-0.336-0.75-0.75c0-0.414,0.336-0.75,0.75-0.75
				c0.414,0,0.75,0.336,0.75,0.75C12.75,4.414,12.414,4.75,12,4.75 M14,21c-0.552,0-1-0.448-1-1s0.448-1,1-1s1,0.448,1,1
				S14.552,21,14,21 M14,17c-0.552,0-1-0.448-1-1s0.448-1,1-1s1,0.448,1,1S14.552,17,14,17 M14,13c-0.552,0-1-0.448-1-1s0.448-1,1-1
				s1,0.448,1,1S14.552,13,14,13 M14,8c0,0-1-1.448-1-2c0-0.552,0.448-1,1-1s1,0.448,1,1C15,6.552,14,8,14,8 M16,4.75
				c-0.414,0-0.75-0.336-0.75-0.75c0-0.414,0.336-0.75,0.75-0.75c0.414,0,0.75,0.336,0.75,0.75C16.75,4.414,16.414,4.75,16,4.75"/>
		</g>

</svg>
