<?xml version="1.0" encoding="utf-8"?>
<svg version="1.1" id="Layer_1" xmlns="http://www.w3.org/2000/svg" xmlns:xlink="http://www.w3.org/1999/xlink" x="0px" y="0px" viewBox="0 0 28 28"
	 enable-background="new 0 0 28 28" xml:space="preserve">

		<g>
			<defs>
				<rect id="SVGID_1_" width="28" height="28"/>
			</defs>
			<clipPath id="SVGID_2_">
				<use xlink:href="#SVGID_1_"  overflow="visible"/>
			</clipPath>
			<path clip-path="url(#SVGID_2_)" fill="#231F20" d="M26,11h-5.051C20.982,10.839,21,10.671,21,10.5C21,9.119,19.881,8,18.5,8
				C17.119,8,16,9.119,16,10.5c0,0.171,0.018,0.339,0.051,0.5H2c-1.1,0-2,0.9-2,2v7c0,1.1,0.9,2,2,2h24c1.1,0,2-0.9,2-2v-7
				C28,11.9,27.1,11,26,11 M18.5,9c0.827,0,1.5,0.673,1.5,1.5c0,0.827-0.673,1.5-1.5,1.5S17,11.327,17,10.5
				C17,9.673,17.673,9,18.5,9 M26,18.5c0,0.827-0.673,1.5-1.5,1.5h-21C2.673,20,2,19.327,2,18.5v-4C2,13.673,2.673,13,3.5,13h15h6
				c0.827,0,1.5,0.673,1.5,1.5V18.5z"/>
			<path clip-path="url(#SVGID_2_)" fill="#231F20" d="M24.5,14h-21C3.225,14,3,14.225,3,14.5v4C3,18.775,3.225,19,3.5,19h21
				c0.275,0,0.5-0.225,0.5-0.5v-4C25,14.225,24.775,14,24.5,14"/>
			<path clip-path="url(#SVGID_2_)" fill="#231F20" d="M22.5,7C24.434,7,26,5.434,26,3.5S24.434,0,22.5,0S19,1.566,19,3.5
				S20.566,7,22.5,7 M22.5,1C23.879,1,25,2.121,25,3.5C25,4.879,23.879,6,22.5,6C21.121,6,20,4.879,20,3.5C20,2.121,21.121,1,22.5,1
				"/>
			<path clip-path="url(#SVGID_2_)" fill="#231F20" d="M2.5,5C3.881,5,5,3.881,5,2.5C5,1.119,3.881,0,2.5,0S0,1.119,0,2.5
				C0,3.881,1.119,5,2.5,5 M2.5,1C3.327,1,4,1.673,4,2.5C4,3.327,3.327,4,2.5,4S1,3.327,1,2.5C1,1.673,1.673,1,2.5,1"/>
			<path clip-path="url(#SVGID_2_)" fill="#231F20" d="M9.5,9C11.433,9,13,7.433,13,5.5c0-0.187-0.026-0.366-0.055-0.545
				C14.113,4.744,15,3.729,15,2.5C15,1.119,13.881,0,12.5,0c-1.229,0-2.244,0.887-2.455,2.055C9.866,2.026,9.686,2,9.5,2
				C7.567,2,6,3.567,6,5.5S7.567,9,9.5,9 M12.5,1C13.327,1,14,1.673,14,2.5C14,3.327,13.327,4,12.5,4C11.673,4,11,3.327,11,2.5
				C11,1.673,11.673,1,12.5,1 M9.5,3c0.197,0,0.388,0.028,0.572,0.072c0.216,0.919,0.937,1.64,1.856,1.856
				C11.972,5.112,12,5.303,12,5.5C12,6.879,10.879,8,9.5,8S7,6.879,7,5.5C7,4.121,8.121,3,9.5,3"/>
			<path clip-path="url(#SVGID_2_)" fill="#231F20" d="M2,23c-0.771,0-1.468-0.301-2-0.78V26c0,1.1,0.9,2,2,2h24c1.1,0,2-0.9,2-2
				v-3.78C27.468,22.699,26.771,23,26,23H2z"/>
		</g>

</svg>
