<?xml version="1.0" encoding="utf-8"?>
<svg version="1.1" id="Layer_1" xmlns="http://www.w3.org/2000/svg" xmlns:xlink="http://www.w3.org/1999/xlink" x="0px" y="0px" viewBox="0 0 28 28"
	 enable-background="new 0 0 28 28" xml:space="preserve">

		<g>
			<defs>
				<rect id="SVGID_1_" width="28" height="28"/>
			</defs>
			<clipPath id="SVGID_2_">
				<use xlink:href="#SVGID_1_"  overflow="visible"/>
			</clipPath>
			<path clip-path="url(#SVGID_2_)" fill="#231F20" d="M17.586,1.685l-0.971-0.242l-0.961,3.883l0.97,0.24L17.586,1.685z
				 M15.645,1.202l-0.971-0.24l-0.962,3.884l0.971,0.24L15.645,1.202z M13.703,0.722l-0.97-0.242l-0.962,3.884l0.971,0.241
				L13.703,0.722z M11.763,0.24L10.791,0L9.829,3.883l0.971,0.24L11.763,0.24z M19.001,11h1V7h-1V11z M24.001,7h-1v4h1V7z
				 M21.001,11h1V7h-1V11z M27.001,11h1V7h-1V11z M26.001,7h-1v4h1V7z M17.001,16c0,2-2,2-2,2c-2.762,0-5,2.238-5,5s2.238,5,5,5h7
				c0,0,6,0,6-6V12h-11V16z M17.001,11h1V7h-1V11z M14.989,17c0.462-0.012,1.012-0.194,1.012-1V6.442L9.589,4.854L8.627,8.736
				c-0.481,1.942-2.422,1.46-2.422,1.46c-2.681-0.664-5.392,0.97-6.056,3.651c-0.665,2.68,0.97,5.391,3.651,6.055l5.461,1.354
				C10.01,18.796,12.297,17,14.989,17 M21.469,2.646l-0.971-0.241L19.607,6h1.031L21.469,2.646z M18.577,6l0.951-3.835l-0.971-0.24
				l-0.962,3.882L18.373,6H18.577z"/>
		</g>

</svg>
