<?xml version="1.0" encoding="utf-8"?>
<svg version="1.1" id="Layer_1" xmlns="http://www.w3.org/2000/svg" xmlns:xlink="http://www.w3.org/1999/xlink" x="0px" y="0px"
	 viewBox="0 0 28 28" enable-background="new 0 0 28 28" xml:space="preserve">
<g>
	<defs>
		<rect id="SVGID_1_" width="28" height="28"/>
	</defs>
	<clipPath id="SVGID_2_">
		<use xlink:href="#SVGID_1_"  overflow="visible"/>
	</clipPath>
	<path clip-path="url(#SVGID_2_)" d="M11.004,14H13c3.314,0,6-2.686,6-6V6c0-3.314-2.686-6-6-6H6C2.688,0,0,2.686,0,6v2
		c0,3.314,2.688,6,6,6v5L11.004,14z M22,9h-1.068c-0.496,3.939-3.86,7-7.932,7h-1.168l-2.607,2.605C9.928,21.139,12.244,23,15,23
		h1.998L22,28v-5c3.314,0,6-2.686,6-6v-2C28,11.686,25.314,9,22,9"/>
</g>
</svg>
