<?xml version="1.0" encoding="utf-8"?>
<svg version="1.1" id="Layer_1" xmlns="http://www.w3.org/2000/svg" xmlns:xlink="http://www.w3.org/1999/xlink" x="0px" y="0px"
	 viewBox="0 0 28 28" enable-background="new 0 0 28 28" xml:space="preserve">
<g>
	<defs>
		<rect id="SVGID_1_" width="28" height="28"/>
	</defs>
	<clipPath id="SVGID_2_">
		<use xlink:href="#SVGID_1_"  overflow="visible"/>
	</clipPath>
	<path clip-path="url(#SVGID_2_)" d="M18.833,0H9.334C4.177,0,0,4.179,0,9.333v2.421C0,16.909,4.177,21,9.334,21H10v7l6.504-7h2.163
		C23.822,21,28,16.909,28,11.754V9.333C28,4.179,23.988,0,18.833,0 M14,18c-0.811,0-1.5-0.687-1.5-1.5c0-0.812,0.689-1.5,1.5-1.5
		c0.812,0,1.5,0.688,1.5,1.5C15.5,17.313,14.812,18,14,18 M17.462,10.516C15.782,11.33,15.06,11.799,15,13h-2
		c0-1.934,0.121-3.135,2.381-4.195c1.001-0.468,1.301-0.794,1.301-1.528c0-0.937-0.68-1.487-2.381-1.487
		c-1.52,0-2.6,0.734-3.501,1.711L9,5.363C10.22,4.059,11.961,3,14.301,3c3.061,0,5.181,1.324,5.181,4.155
		C19.482,9.049,18.422,10.047,17.462,10.516"/>
</g>
</svg>
