<?xml version="1.0" encoding="utf-8"?>
<svg version="1.1" id="Layer_1" xmlns="http://www.w3.org/2000/svg" xmlns:xlink="http://www.w3.org/1999/xlink" x="0px" y="0px"
	 viewBox="0 0 28 28" enable-background="new 0 0 28 28" xml:space="preserve">
<g>
	<defs>
		<rect id="SVGID_1_" width="28" height="28"/>
	</defs>
	<clipPath id="SVGID_2_">
		<use xlink:href="#SVGID_1_"  overflow="visible"/>
	</clipPath>
	<path clip-path="url(#SVGID_2_)" d="M18.833,0h-9.5C4.177,0,0,4.179,0,9.333v2.421C0,16.908,4.177,21,9.333,21H10v7l6.504-7h2.162
		C23.822,21,28,16.908,28,11.754V9.333C28,4.179,23.988,0,18.833,0 M14,18c-0.829,0-1.5-0.672-1.5-1.5c0-0.828,0.671-1.5,1.5-1.5
		c0.829,0,1.5,0.672,1.5,1.5C15.5,17.328,14.829,18,14,18 M15.5,13h-3l-1-10h5L15.5,13z"/>
</g>
</svg>
