<?xml version="1.0" encoding="utf-8"?>
<svg version="1.1" id="Layer_1" xmlns="http://www.w3.org/2000/svg" xmlns:xlink="http://www.w3.org/1999/xlink" x="0px" y="0px"
	 viewBox="0 0 28 28" enable-background="new 0 0 28 28" xml:space="preserve">
<g>
	<defs>
		<rect id="SVGID_1_" width="28" height="28"/>
	</defs>
	<clipPath id="SVGID_2_">
		<use xlink:href="#SVGID_1_"  overflow="visible"/>
	</clipPath>
	<path clip-path="url(#SVGID_2_)" d="M18.833,0h-9.5C4.177,0,0,4.179,0,9.333v2.421C0,16.908,4.177,21,9.333,21H10v7l6.504-7h2.163
		C23.822,21,28,16.908,28,11.754V9.333C28,4.179,23.988,0,18.833,0 M7,6h14c0.276,0,0.5,0.224,0.5,0.5C21.5,6.776,21.276,7,21,7H7
		C6.724,7,6.5,6.776,6.5,6.5C6.5,6.224,6.724,6,7,6 M21,15H7c-0.276,0-0.5-0.224-0.5-0.5S6.724,14,7,14h14
		c0.276,0,0.5,0.224,0.5,0.5S21.276,15,21,15 M24,11H4c-0.276,0-0.5-0.224-0.5-0.5C3.5,10.224,3.724,10,4,10h20
		c0.276,0,0.5,0.224,0.5,0.5C24.5,10.776,24.276,11,24,11"/>
</g>
</svg>
