<?xml version="1.0" encoding="utf-8"?>
<svg version="1.1" id="Layer_1" xmlns="http://www.w3.org/2000/svg" xmlns:xlink="http://www.w3.org/1999/xlink" x="0px" y="0px"
	 viewBox="0 0 28 28" enable-background="new 0 0 28 28" xml:space="preserve">
<g>
	<defs>
		<rect id="SVGID_1_" width="28" height="28"/>
	</defs>
	<clipPath id="SVGID_2_">
		<use xlink:href="#SVGID_1_"  overflow="visible"/>
	</clipPath>
	<path clip-path="url(#SVGID_2_)" d="M18.833,0h-9.5C4.177,0,0,4.179,0,9.333v2.421C0,16.908,4.177,21,9.333,21H10v7l6.505-7h2.162
		C23.821,21,28,16.908,28,11.754V9.333C28,4.179,23.988,0,18.833,0 M8.5,12C7.672,12,7,11.328,7,10.5C7,9.672,7.672,9,8.5,9
		S10,9.672,10,10.5C10,11.328,9.328,12,8.5,12 M14.5,12c-0.828,0-1.5-0.672-1.5-1.5C13,9.672,13.672,9,14.5,9S16,9.672,16,10.5
		C16,11.328,15.328,12,14.5,12 M20.5,12c-0.828,0-1.5-0.672-1.5-1.5C19,9.672,19.672,9,20.5,9c0.828,0,1.5,0.672,1.5,1.5
		C22,11.328,21.328,12,20.5,12"/>
</g>
</svg>
