<?xml version="1.0" encoding="utf-8"?>
<svg version="1.1" id="Layer_1" xmlns="http://www.w3.org/2000/svg" xmlns:xlink="http://www.w3.org/1999/xlink" x="0px" y="0px"
	 viewBox="0 0 28 28" enable-background="new 0 0 28 28" xml:space="preserve">
<path d="M5.001,4h2V0h-2V4z M10,4h2V0h-2V4z M16.001,4h2V0h-2V4z M3,24h22.001v1H3V24z M3,21h22.001v1H3V21z M3,18h22.001v1H3V18z
	 M3,15h22.001v1H3V15z M3,12h22.001v1H3V12z M21,0v4h-3v3h-1.999V4H12v3h-2V4H7.001v3h-2V4H0v24h28V4h-4.999v3H21V4h2.001V0H21z"/>
</svg>
