<?xml version="1.0" encoding="utf-8"?>
<svg version="1.1" id="Layer_1" xmlns="http://www.w3.org/2000/svg" xmlns:xlink="http://www.w3.org/1999/xlink" x="0px" y="0px" viewBox="0 0 28 28"
	 enable-background="new 0 0 28 28" xml:space="preserve">

	<g>
		<rect y="14" fill="#231F20" width="14" height="14"/>
		<rect x="4" y="3" fill="#231F20" width="6" height="5"/>
		<g>
			<defs>
				<rect id="SVGID_1_" width="28" height="28"/>
			</defs>
			<clipPath id="SVGID_2_">
				<use xlink:href="#SVGID_1_"  overflow="visible"/>
			</clipPath>
			<path clip-path="url(#SVGID_2_)" fill="#231F20" d="M12.29,3.29C12.109,3.481,12,3.74,12,4c0,0.27,0.109,0.52,0.29,0.71
				C12.481,4.89,12.74,5,13,5c0.26,0,0.52-0.11,0.71-0.29C13.89,4.52,14,4.27,14,4c0-0.26-0.11-0.519-0.29-0.71
				C13.34,2.92,12.66,2.92,12.29,3.29"/>
			<path clip-path="url(#SVGID_2_)" fill="#231F20" d="M16.29,2.27c-0.54,0.12-0.88,0.65-0.771,1.19
				C15.62,3.93,16.04,4.25,16.5,4.25c0.069,0,0.14-0.009,0.21-0.019c0.54-0.121,0.88-0.65,0.769-1.191
				C17.359,2.5,16.83,2.161,16.29,2.27"/>
			<path clip-path="url(#SVGID_2_)" fill="#231F20" d="M19.79,1.52c-0.54,0.12-0.88,0.65-0.771,1.19C19.12,3.18,19.54,3.5,20,3.5
				c0.069,0,0.14-0.009,0.21-0.019c0.54-0.121,0.88-0.65,0.769-1.191C20.859,1.75,20.33,1.401,19.79,1.52"/>
			<path clip-path="url(#SVGID_2_)" fill="#231F20" d="M23.29,0.77c-0.54,0.12-0.88,0.65-0.771,1.19
				C22.62,2.43,23.04,2.75,23.5,2.75c0.069,0,0.14-0.009,0.21-0.019c0.54-0.121,0.88-0.65,0.769-1.191
				C24.359,1,23.83,0.661,23.29,0.77"/>
			<path clip-path="url(#SVGID_2_)" fill="#231F20" d="M27,2c0.26,0,0.52-0.11,0.71-0.29C27.89,1.52,28,1.26,28,1
				c0-0.26-0.11-0.52-0.29-0.71c-0.37-0.37-1.05-0.37-1.42,0C26.109,0.48,26,0.74,26,1c0,0.26,0.109,0.52,0.29,0.71
				C26.479,1.89,26.74,2,27,2"/>
			<path clip-path="url(#SVGID_2_)" fill="#231F20" d="M12.29,6.29C12.109,6.481,12,6.74,12,7s0.109,0.52,0.29,0.71
				C12.481,7.89,12.74,8,13,8c0.26,0,0.52-0.11,0.71-0.29C13.89,7.52,14,7.26,14,7s-0.11-0.519-0.29-0.71
				C13.34,5.92,12.66,5.92,12.29,6.29"/>
			<path clip-path="url(#SVGID_2_)" fill="#231F20" d="M20.21,7.52c-0.54-0.109-1.07,0.23-1.191,0.77
				C18.91,8.831,19.25,9.36,19.79,9.481C19.859,9.491,19.93,9.5,20,9.5c0.46,0,0.88-0.32,0.979-0.79
				C21.09,8.17,20.75,7.64,20.21,7.52"/>
			<path clip-path="url(#SVGID_2_)" fill="#231F20" d="M16.71,6.77C16.17,6.661,15.64,7,15.519,7.54
				C15.41,8.081,15.75,8.61,16.29,8.731c0.069,0.01,0.14,0.019,0.21,0.019c0.46,0,0.88-0.32,0.979-0.79
				C17.59,7.42,17.25,6.89,16.71,6.77"/>
			<path clip-path="url(#SVGID_2_)" fill="#231F20" d="M23.71,8.27c-0.54-0.109-1.07,0.23-1.191,0.77
				c-0.109,0.541,0.231,1.07,0.771,1.191c0.069,0.01,0.14,0.019,0.21,0.019c0.46,0,0.88-0.32,0.979-0.79
				C24.59,8.92,24.25,8.39,23.71,8.27"/>
			<path clip-path="url(#SVGID_2_)" fill="#231F20" d="M26.29,9.29C26.109,9.481,26,9.731,26,10c0,0.26,0.109,0.52,0.29,0.71
				C26.479,10.89,26.74,11,27,11s0.519-0.11,0.71-0.29C27.89,10.52,28,10.26,28,10c0-0.269-0.11-0.519-0.29-0.71
				C27.34,8.92,26.66,8.92,26.29,9.29"/>
			<path clip-path="url(#SVGID_2_)" fill="#231F20" d="M7,9c-3.866,0-7,1.779-7,4h14C14,10.779,10.866,9,7,9"/>
		</g>
	</g>
</svg>
