<?xml version="1.0" encoding="utf-8"?>
<svg version="1.1" id="Layer_1" 
xmlns="http://www.w3.org/2000/svg" xmlns:xlink="http://www.w3.org/1999/xlink" x="0px" y="0px" viewBox="0 0 28 28"
	 enable-background="new 0 0 28 28" xml:space="preserve">

	<g>
		<defs>
			<rect id="SVGID_1_" width="28" height="28"/>
		</defs>
		<clipPath id="SVGID_2_">
			<use xlink:href="#SVGID_1_"  overflow="visible"/>
		</clipPath>
		<path clip-path="url(#SVGID_2_)" fill="#231F20" d="M24.286,20h-6.757c-1.229,0-2.259,0.69-2.568,1.615
			c-0.297-0.102-0.621-0.16-0.961-0.16s-0.663,0.058-0.961,0.16C12.731,20.69,11.7,20,10.471,20H3.715C2.767,20,2,20.651,2,21.455
			v0.363h0.011c0.004,0.108,0.007,0.216,0.032,0.328l0.824,3.708C3.131,27.034,4.548,28,6.018,28h4.453
			C11.941,28,13,27.018,13,25.818v-2.182c0-0.401,0.527-0.727,1-0.727c0.473,0,1,0.326,1,0.727v2.182
			c0,1.2,1.059,2.182,2.529,2.182h4.453c1.47,0,2.887-0.966,3.151-2.146l0.825-3.708c0.025-0.112,0.028-0.22,0.031-0.328H26v-0.363
			C26,20.651,25.234,20,24.286,20"/>
		<path clip-path="url(#SVGID_2_)" fill="#231F20" d="M27,16H1c-0.553,0-1,0.447-1,1c0,0.553,0.447,1,1,1h26c0.553,0,1-0.447,1-1
			C28,16.447,27.553,16,27,16"/>
		<path clip-path="url(#SVGID_2_)" fill="#231F20" d="M21.699,2.046c-0.384-1.711-1.927-2.513-3.427-1.781l-1.544,0.752
			c-1.5,0.732-3.956,0.732-5.456,0L9.728,0.265c-1.5-0.732-3.042,0.07-3.427,1.781L4.29,10h19.42L21.699,2.046z"/>
		<polygon clip-path="url(#SVGID_2_)" fill="#231F20" points="23.935,11 4.066,11 3.167,15 24.833,15 			"/>
	</g>
</svg>
