<?xml version="1.0" encoding="utf-8"?>
<svg version="1.1" id="Layer_1" xmlns="http://www.w3.org/2000/svg" xmlns:xlink="http://www.w3.org/1999/xlink" x="0px" y="0px" viewBox="0 0 28 28"
	 enable-background="new 0 0 28 28" xml:space="preserve">

		<g>
			<defs>
				<rect id="SVGID_1_" width="28" height="28"/>
			</defs>
			<clipPath id="SVGID_2_">
				<use xlink:href="#SVGID_1_"  overflow="visible"/>
			</clipPath>
			<path clip-path="url(#SVGID_2_)" fill="#231F20" d="M23.254,21.186c-0.328-0.168-0.638-0.345-0.939-0.525
				c-0.327-0.161-1.596-0.638-1.596,1.619c0,2.16,1.076,2.358,1.434,2.365c1.364-0.127,2.047-0.47,2.155-0.569
				c0.485-0.452,0.645-0.922,0.518-1.522C24.765,22.262,24.316,21.729,23.254,21.186"/>
			<path clip-path="url(#SVGID_2_)" fill="#231F20" d="M17.821,16.671c-1.358-1.834-2.013-3.994-1.943-6.471
				c0.125-4.566-0.043-5.456-2.43-6.423c-0.487-0.196-1.006-0.296-1.542-0.296c-1.932,0-4.04,1.309-5.639,3.503
				c-0.62,0.85-1.154,1.81-1.588,2.854c-1.283,3.067-1.519,5.228-0.77,7.007c0.906,2.153,3.403,4.014,7.633,5.693
				c0.211,0.084,0.407,0.15,0.612,0.227c1.066,0.341,4.932,1.301,6.591-2.017c0,0,0.786-1.601-0.952-4.096L17.821,16.671z"/>
			<path clip-path="url(#SVGID_2_)" fill="#231F20" d="M24.424,17.948c-3.256-1.667-5.283-3.905-5.176-7.768
				c0.12-4.418,0.212-7.726-4.495-9.633C10.984-0.977,6.545,0.742,3.482,4.944c-0.763,1.044-1.44,2.245-2.001,3.588
				c-2.814,6.734-2.5,12.72,8.863,17.23c7.007,2.781,14.269,3.075,16.304,0.285C29.356,22.334,27.68,19.613,24.424,17.948
				 M24.838,24.811c-0.468,0.436-1.966,0.987-4.398,0.987c-2.287,0-5.4-0.488-9.256-2.018C1.408,19.901,1.009,15.377,3.533,9.335
				c0.483-1.16,1.076-2.22,1.757-3.155c1.888-2.59,4.336-4.034,6.639-4.034c0.675,0,1.338,0.124,1.97,0.38
				c3.149,1.275,3.264,2.946,3.136,7.596c-0.119,4.292,1.961,7.471,6.356,9.72c1.316,0.673,2.177,1.474,2.345,2.268
				C26.016,23.437,25.391,24.296,24.838,24.811"/>
		</g>

</svg>
