<?xml version="1.0" encoding="utf-8"?>
<svg version="1.1" id="Layer_1" xmlns="http://www.w3.org/2000/svg" xmlns:xlink="http://www.w3.org/1999/xlink" x="0px" y="0px" viewBox="0 0 28 28"
	 enable-background="new 0 0 28 28" xml:space="preserve">

		<g>
			<defs>
				<rect id="SVGID_1_" width="28" height="28"/>
			</defs>
			<clipPath id="SVGID_2_">
				<use xlink:href="#SVGID_1_"  overflow="visible"/>
			</clipPath>
			<path clip-path="url(#SVGID_2_)" fill="#231F20" d="M11,17h2c1.608,0,3.046-1.247,3.273-2.838L18,4
				c0.115-0.807-0.112-1.606-0.622-2.195c-0.511-0.588-1.271-0.926-2.085-0.926L14,1c0-0.553-0.448-1-1-1s-1,0.447-1,1v2
				c0,0.553,0.448,1,1,1s1-0.447,1-1l1.293-0.121c0.238,0,0.441,0.084,0.574,0.236c0.132,0.154,0.187,0.366,0.154,0.602
				l-1.728,10.162C14.207,14.477,13.604,15,13,15H5c-0.604,0-1.208-0.523-1.293-1.121L1.98,3.717C1.946,3.481,2,3.269,2.133,3.115
				c0.133-0.152,0.336-0.236,0.574-0.236L4,3c0,0.553,0.448,1,1,1s1-0.447,1-1V1c0-0.553-0.448-1-1-1S4,0.447,4,1L2.707,0.879
				c-0.814,0-1.574,0.338-2.085,0.926C0.112,2.394-0.115,3.193,0,4l1.727,10.162C1.954,15.753,3.392,17,5,17h2H11z"/>
			<path clip-path="url(#SVGID_2_)" fill="#231F20" d="M24,8c-2.209,0-4,1.791-4,4c0,1.861,1.278,3.412,3,3.858V20
				c-0.258,3.351-3.075,6-6.5,6s-6.236-2.649-6.494-6H11v-2H7v2h1c0.261,4.46,3.961,8,8.5,8s8.239-3.54,8.5-8v-4.142
				c1.722-0.446,3-1.997,3-3.858C28,9.791,26.209,8,24,8 M24,14c-1.103,0-2-0.897-2-2c0-1.102,0.897-2,2-2c1.103,0,2,0.898,2,2
				C26,13.103,25.103,14,24,14"/>
			<path clip-path="url(#SVGID_2_)" fill="#231F20" d="M24,11c-0.552,0-1,0.448-1,1c0,0.552,0.448,1,1,1c0.552,0,1-0.448,1-1
				C25,11.448,24.552,11,24,11"/>
		</g>

</svg>
