<?xml version="1.0" encoding="utf-8"?>
<svg version="1.1" id="Layer_1" xmlns="http://www.w3.org/2000/svg" xmlns:xlink="http://www.w3.org/1999/xlink" x="0px" y="0px" viewBox="0 0 28 28"
	 enable-background="new 0 0 28 28" xml:space="preserve">

		<g>
			<defs>
				<rect id="SVGID_1_" width="28" height="28"/>
			</defs>
			<clipPath id="SVGID_2_">
				<use xlink:href="#SVGID_1_"  overflow="visible"/>
			</clipPath>
			<path clip-path="url(#SVGID_2_)" fill="#231F20" d="M26.709,0.001c-2.062,2.176-4.018,5.074-5.954,6.978
				c-0.779,0.766-1.649,1.437-2.551,2.077l0.888-5.937L17.43,2.751l-2.564,8.607c-0.461,0.333-0.916,0.673-1.349,1.034
				c-2.446,2.043-4.047,4.926-6.217,7.217c-1.636,1.727-5.12,3.629-7.3,5.449c0.934,0.981,1.869,1.962,2.803,2.943
				c2.327-2.182,5.128-3.865,7.289-6.205c0.208-0.246,0.396-0.504,0.595-0.755l6.798-2.204l-0.452-1.804l-3.876,0.688
				c0.753-1.052,1.511-2.101,2.346-3.106c0.464-0.428,1.68-1.591,2.455-2.184c1.653-1.246,3.317-2.42,4.732-3.926
				c1.662-1.769,2.658-3.94,4.22-5.757L28,1.188C27.57,0.793,27.139,0.397,26.709,0.001"/>
		</g>

</svg>
