<?xml version="1.0" encoding="utf-8"?>
<svg version="1.1" id="Layer_1" xmlns="http://www.w3.org/2000/svg" xmlns:xlink="http://www.w3.org/1999/xlink" x="0px" y="0px" viewBox="0 0 28 28"
	 enable-background="new 0 0 28 28" xml:space="preserve">

		<g>
			<defs>
				<rect id="SVGID_1_" width="28" height="28"/>
			</defs>
			<clipPath id="SVGID_2_">
				<use xlink:href="#SVGID_1_"  overflow="visible"/>
			</clipPath>
			<path clip-path="url(#SVGID_2_)" fill="#231F20" d="M26,0.001H2c-1.1,0-2,0.9-2,2v1c0,1.1,0.9,2,2,2h24c1.1,0,2-0.9,2-2v-1
				C28,0.901,27.1,0.001,26,0.001"/>
			<path clip-path="url(#SVGID_2_)" fill="#231F20" d="M22.199,6.001h-4.093l1.957,9H7.938l1.957-9H5.802L1.546,25.576
				c-0.235,1.079,0.451,2.145,1.53,2.379c0.143,0.031,0.286,0.046,0.426,0.046c0.921,0,1.749-0.639,1.953-1.575l2.048-9.425h12.994
				l2.049,9.425c0.203,0.936,1.032,1.575,1.952,1.575c0.141,0,0.285-0.015,0.427-0.046c1.079-0.234,1.765-1.3,1.53-2.379
				L22.199,6.001z"/>
		</g>

</svg>
