<?xml version="1.0" encoding="utf-8"?>
<svg version="1.1" id="Layer_1" xmlns="http://www.w3.org/2000/svg" xmlns:xlink="http://www.w3.org/1999/xlink" x="0px" y="0px"
	 viewBox="0 0 28 28" enable-background="new 0 0 28 28" xml:space="preserve">
<g>
	<defs>
		<rect id="SVGID_1_" width="28" height="28"/>
	</defs>
	<clipPath id="SVGID_2_">
		<use xlink:href="#SVGID_1_"  overflow="visible"/>
	</clipPath>
	<path clip-path="url(#SVGID_2_)" d="M14,12.711V8c0-0.552-0.447-1-1-1c-0.553,0-1,0.448-1,1v4.71
		c-0.576,0.252-1.038,0.714-1.29,1.29H7c-0.552,0-1,0.447-1,1c0,0.553,0.448,1,1,1h3.711c0.386,0.882,1.264,1.5,2.288,1.5
		c1.383,0,2.5-1.121,2.5-2.5C15.499,13.976,14.883,13.097,14,12.711"/>
	<path clip-path="url(#SVGID_2_)" d="M23.403,6.011l2.476,2.474L28,6.364L21.635,0l-2.121,2.121l2.474,2.475V4.595l0.001,0.002
		l-0.537,0.537C19.179,3.185,16.23,2,13,2C5.819,2,0,7.82,0,15c0,7.179,5.819,13,13,13s13-5.821,13-13
		c0-3.23-1.185-6.178-3.134-8.452L23.403,6.011z M13,25C7.486,25,3,20.514,3,15S7.486,5,13,5s10,4.486,10,10S18.514,25,13,25"/>
</g>
</svg>
