<?xml version="1.0" encoding="utf-8"?>
<svg version="1.1" id="Layer_1" xmlns="http://www.w3.org/2000/svg" xmlns:xlink="http://www.w3.org/1999/xlink" x="0px" y="0px" viewBox="0 0 28 28"
	 enable-background="new 0 0 28 28" xml:space="preserve">

		<g>
			<defs>
				<rect id="SVGID_1_" width="28" height="28"/>
			</defs>
			<clipPath id="SVGID_2_">
				<use xlink:href="#SVGID_1_"  overflow="visible"/>
			</clipPath>
			<path clip-path="url(#SVGID_2_)" fill="#231F20" d="M20.431,13.022l-0.985-5.55l2.008-1.122l-0.859-5.768
				c-0.46-0.219-0.846-0.383-1.123-0.494l-4.561,18.328L20.431,13.022z"/>
			<path clip-path="url(#SVGID_2_)" fill="#231F20" d="M7.51,13.023l5.583,5.408L8.528,0.089c-0.277,0.11-0.663,0.276-1.122,0.496
				L6.546,6.35l2.013,1.124L7.51,13.023z"/>
			<path clip-path="url(#SVGID_2_)" fill="#231F20" d="M12.938,3.409l-0.934,6.505L14,17.935l1.995-8.013l-0.933-6.511l1.19-1.683
				c0.317-0.449,0.298-0.816-0.251-0.816h-4c-0.55,0-0.569,0.367-0.252,0.816L12.938,3.409z"/>
			<path clip-path="url(#SVGID_2_)" fill="#231F20" d="M27.969,9.912c0.02-4.465-3.63-7.297-6.279-8.766l0.856,5.74l-1.991,1.112
				l0.952,5.37l-7.505,7.335l-7.574-7.336l1.014-5.371l-1.988-1.11L6.31,1.15C3.668,2.622,0.032,5.452,0.032,9.912L0,27.912h28
				L27.969,9.912z"/>
		</g>

</svg>
