<?xml version="1.0" encoding="utf-8"?>
<svg version="1.1" id="Layer_1" xmlns="http://www.w3.org/2000/svg" xmlns:xlink="http://www.w3.org/1999/xlink" x="0px" y="0px"
	 viewBox="0 0 28 28" enable-background="new 0 0 28 28" xml:space="preserve">
<g>
	<defs>
		<rect id="SVGID_1_" width="28" height="28"/>
	</defs>
	<clipPath id="SVGID_2_">
		<use xlink:href="#SVGID_1_"  overflow="visible"/>
	</clipPath>
	<path clip-path="url(#SVGID_2_)" d="M27.506,17.081l-3.063-1.999c-0.488-0.318-0.769-0.714-0.769-1.081
		c0-0.371,0.279-0.766,0.769-1.083l3.063-1.999c0.406-0.263,0.59-0.768,0.445-1.233c-0.146-0.466-0.576-1.007-1.068-0.987
		l-3.709-0.122h-0.08c-0.604,0-1.078,0.033-1.307-0.293c-0.209-0.301-0.221-0.632-0.033-1.134L23,3.878
		c0.166-0.45,0.019-0.928-0.363-1.22c-0.383-0.288-0.912-0.28-1.299,0.003l-2.944,2.164c-0.367,0.267-0.746,0.414-1.089,0.414
		c-0.559,0-1.002-0.397-1.217-1.089l-1.051-3.385C14.896,0.309,14.477,0,14,0c-0.477,0-0.898,0.309-1.039,0.765l-1.049,3.387
		c-0.215,0.692-0.658,1.091-1.217,1.091c-0.343,0-0.72-0.143-1.09-0.413L6.662,2.675c-0.387-0.283-0.916-0.277-1.299,0.01
		C4.98,2.977,4.834,3.483,5.002,3.933l1.244,3.328c0.188,0.502,0.176,0.943-0.033,1.245C5.986,8.833,5.51,9.023,4.906,9.023
		L1.115,8.921C0.635,8.9,0.193,9.22,0.049,9.686c-0.145,0.465,0.037,0.97,0.445,1.233l3.063,1.999
		c0.488,0.317,0.767,0.712,0.767,1.083c0,0.367-0.279,0.763-0.767,1.081l-3.063,1.999c-0.408,0.264-0.59,0.769-0.445,1.232
		c0.144,0.466,0.574,0.591,1.068,0.571l3.709-0.295h0.08c0.604,0,1.078,0.383,1.307,0.709c0.207,0.302,0.221,0.841,0.033,1.344
		L5,24.017c-0.168,0.45-0.02,0.981,0.363,1.272c0.383,0.29,0.912,0.306,1.299,0.023l2.943-2.148c0.368-0.269,0.745-0.41,1.088-0.41
		c0.561,0,1.004,0.399,1.219,1.091l1.051,3.389C13.103,27.69,13.523,28,14,28c0.477,0,0.898-0.31,1.039-0.766l1.049-3.387
		c0.215-0.692,0.658-1.089,1.217-1.089c0.343,0,0.72,0.143,1.089,0.412l2.944,2.154c0.387,0.283,0.916,0.279,1.299-0.012
		c0.382-0.288,0.529-0.796,0.361-1.246l-1.244-3.328c-0.188-0.502-0.176-0.943,0.033-1.243c0.229-0.33,0.703-0.517,1.307-0.517
		l3.791,0.099c0.48,0.024,0.92-0.298,1.066-0.764C28.096,17.85,27.914,17.345,27.506,17.081 M14,21.104
		c-3.918,0-7.106-3.188-7.106-7.105S10.082,6.897,14,6.897s7.103,3.185,7.103,7.102S17.918,21.104,14,21.104 M14,7.934
		c-3.35,0-6.066,2.716-6.066,6.065c0,3.352,2.716,6.068,6.066,6.068s6.066-2.716,6.066-6.068C20.066,10.65,17.35,7.934,14,7.934"/>
</g>
</svg>
