<?xml version="1.0" encoding="utf-8"?>
<svg version="1.1" id="Layer_1" xmlns="http://www.w3.org/2000/svg" xmlns:xlink="http://www.w3.org/1999/xlink" x="0px" y="0px"
	 viewBox="0 0 28 28" enable-background="new 0 0 28 28" xml:space="preserve">
<g>
	<defs>
		<rect id="SVGID_1_" width="28" height="28"/>
	</defs>
	<clipPath id="SVGID_2_">
		<use xlink:href="#SVGID_1_"  overflow="visible"/>
	</clipPath>
	<path clip-path="url(#SVGID_2_)" d="M12.123,14.612l1.104,0.072c1.67,0.109,3.218,0.811,4.406,1.912
		c2.074-0.61,3.596-2.522,3.596-4.801c0-2.768-2.243-5.013-5.006-5.013c-2.766,0-5.006,2.245-5.006,5.013
		c0,1.069,0.338,2.05,0.906,2.862V14.612z M19.283,19.959c-0.228,0-0.451,0.024-0.67,0.061c-0.74-2.376-2.881-4.132-5.455-4.302
		v0.006c-0.135-0.01-0.269-0.022-0.408-0.022c-0.185,0-0.369,0.012-0.553,0.028c-0.047,0.004-0.095,0.01-0.14,0.015
		c-0.172,0.02-0.338,0.043-0.502,0.075c-0.014,0.002-0.028,0.006-0.041,0.007c-0.17,0.036-0.336,0.079-0.5,0.129
		c-0.053,0.016-0.106,0.032-0.158,0.049c-0.133,0.043-0.262,0.091-0.389,0.142c-0.033,0.014-0.065,0.027-0.098,0.041
		c-1.998,0.878-3.388,2.868-3.392,5.193H5.94c0-1.079,0.259-2.096,0.71-3.002c-0.525-0.195-1.093-0.312-1.693-0.312
		C2.221,18.067,0,20.292,0,23.034c0,2.61,2.012,4.762,4.565,4.965h14.718c2.217,0,4.014-1.799,4.014-4.019
		C23.297,21.758,21.5,19.959,19.283,19.959 M27.586,14.39l-2.58-1.682c-0.41-0.267-0.645-0.599-0.645-0.913
		c0-0.31,0.235-0.643,0.645-0.911l2.58-1.683c0.342-0.223,0.494-0.65,0.373-1.04c-0.123-0.392-0.482-0.662-0.898-0.644L23.94,7.601
		h-0.067c-0.51,0-0.908-0.158-1.099-0.434c-0.176-0.255-0.186-0.626-0.028-1.05l1.047-2.802c0.141-0.379,0.018-0.808-0.307-1.052
		c-0.322-0.245-0.765-0.247-1.089-0.008L19.918,4.07c-0.309,0.226-0.625,0.347-0.914,0.347c-0.473,0-0.846-0.334-1.025-0.919
		l-0.881-2.852C16.979,0.26,16.623,0,16.223,0c-0.401,0-0.756,0.26-0.873,0.646l-0.883,2.852c-0.182,0.585-0.555,0.919-1.026,0.919
		c-0.291,0-0.605-0.121-0.916-0.347l-2.476-1.815C9.723,2.016,9.279,2.02,8.957,2.263C8.635,2.507,8.51,2.936,8.652,3.315
		l1.045,2.802c0.159,0.424,0.149,0.795-0.027,1.05c-0.191,0.276-0.59,0.434-1.1,0.434L5.383,7.517
		c-0.404-0.02-0.776,0.252-0.897,0.644c-0.123,0.39,0.03,0.817,0.373,1.04l2.579,1.683c0.41,0.268,0.644,0.601,0.644,0.911
		c0,0.314-0.234,0.646-0.644,0.913L4.859,14.39c-0.343,0.226-0.496,0.649-0.373,1.041c0.121,0.391,0.481,0.667,0.897,0.643
		l3.123-0.084H8.57c0.037,0,0.067,0.007,0.102,0.009c0.396-0.295,0.822-0.56,1.287-0.763l0.127-0.054
		c0.145-0.059,0.295-0.113,0.457-0.166l0.096-0.029l0.076-0.024c0.111-0.033,0.215-0.054,0.32-0.082
		c-0.539-0.905-0.855-1.957-0.855-3.086c0-3.336,2.711-6.05,6.043-6.05c3.33,0,6.041,2.714,6.041,6.05
		c0,2.568-1.61,4.76-3.869,5.636c0.257,0.323,0.486,0.669,0.683,1.034c0.113,0.05,0.231,0.085,0.358,0.085
		c0.8,0.004,1.556,0.272,2.185,0.774c0.168,0.133,0.369,0.198,0.572,0.198h0.008c0.506,0,0.916-0.409,0.916-0.915
		c0-0.159-0.041-0.308-0.111-0.437l-0.26-0.696c-0.158-0.424-0.148-0.796,0.028-1.05c0.191-0.275,0.589-0.434,1.099-0.434
		l3.188,0.084c0.402,0.024,0.775-0.252,0.898-0.643C28.08,15.039,27.928,14.616,27.586,14.39"/>
</g>
</svg>
