<?xml version="1.0" encoding="utf-8"?>
<svg version="1.1" id="Layer_1" xmlns="http://www.w3.org/2000/svg" xmlns:xlink="http://www.w3.org/1999/xlink" x="0px" y="0px" viewBox="0 0 28 28"
	 enable-background="new 0 0 28 28" xml:space="preserve">

		<g>
			<defs>
				<rect id="SVGID_1_" width="28" height="28"/>
			</defs>
			<clipPath id="SVGID_2_">
				<use xlink:href="#SVGID_1_"  overflow="visible"/>
			</clipPath>
			<path clip-path="url(#SVGID_2_)" fill="#231F20" d="M26,17.001h-9c-1.1,0-2,0.9-2,2v0.184c-0.314-0.112-0.648-0.184-1-0.184
				s-0.686,0.072-1,0.184v-0.184c0-1.1-0.9-2-2-2H2c-1.1,0-2,0.9-2,2v2.5c0,3.59,2.91,6.5,6.5,6.5c3.421,0,6.219-2.645,6.475-6H13
				c0-0.552,0.449-1,1-1s1,0.448,1,1h0.025c0.256,3.355,3.054,6,6.475,6c3.59,0,6.5-2.91,6.5-6.5v-2.5
				C28,17.901,27.1,17.001,26,17.001"/>
			<path clip-path="url(#SVGID_2_)" fill="#231F20" d="M6.045,3.536c0.124-0.52,0.444-0.96,0.899-1.239
				C7.4,2.016,7.937,1.932,8.456,2.057c0.52,0.125,0.959,0.444,1.238,0.899c0.28,0.455,0.366,0.992,0.241,1.513
				c-0.129,0.537,0.203,1.076,0.74,1.205c0.538,0.129,1.076-0.204,1.205-0.741c0.249-1.039,0.078-2.112-0.481-3.022
				C10.841,1,9.961,0.361,8.922,0.112c-1.043-0.248-2.114-0.079-3.024,0.48C4.988,1.15,4.35,2.03,4.1,3.069L1,16.001h2.057
				L6.045,3.536z"/>
			<path clip-path="url(#SVGID_2_)" fill="#231F20" d="M17.325,5.674c0.537-0.129,0.869-0.668,0.74-1.205
				c-0.125-0.521-0.039-1.058,0.24-1.513c0.28-0.455,0.719-0.774,1.239-0.898c0.519-0.126,1.055-0.041,1.511,0.239
				c0.455,0.279,0.776,0.72,0.9,1.239l2.988,12.465H27L23.9,3.069c-0.25-1.039-0.889-1.918-1.799-2.477
				c-0.909-0.559-1.98-0.728-3.023-0.48C18.039,0.362,17.159,1,16.6,1.911c-0.558,0.91-0.729,1.984-0.48,3.023
				C16.249,5.471,16.787,5.803,17.325,5.674"/>
		</g>

</svg>
