<?xml version="1.0" encoding="utf-8"?>
<svg version="1.1" id="Layer_1" xmlns="http://www.w3.org/2000/svg" xmlns:xlink="http://www.w3.org/1999/xlink" x="0px" y="0px" viewBox="0 0 28 28"
	 enable-background="new 0 0 28 28" xml:space="preserve">

		<g>
			<defs>
				<rect id="SVGID_1_" width="28" height="28"/>
			</defs>
			<clipPath id="SVGID_2_">
				<use xlink:href="#SVGID_1_"  overflow="visible"/>
			</clipPath>
			<path clip-path="url(#SVGID_2_)" fill="#231F20" d="M22.635,9.522l3,5.196l-3.464,2l-2.706-4.686l-1.154,2l2.129,3.686l-3.465,2
				l-0.974-1.686l-3.947,6.838l15.447-8.919c0.477-0.276,0.641-0.891,0.366-1.367l-4-6.927c-0.275-0.477-0.889-0.641-1.366-0.366
				l-0.447,0.258l-2,3.464L22.635,9.522z"/>
			<path clip-path="url(#SVGID_2_)" fill="#231F20" d="M21.428,4.133l-6.928-4c-0.476-0.276-1.091-0.11-1.367,0.367l-2.132,3.693
				v4.002l0.366-0.634l5.196,2.999l-2.002,3.465l-3.56-2.055v12.223L21.793,5.499C22.069,5.022,21.903,4.408,21.428,4.133
				 M17.563,8.829L12.366,5.83l2-3.465l5.195,3L17.563,8.829z"/>
			<path clip-path="url(#SVGID_2_)" fill="#231F20" d="M27,18h-0.549l-3.464,2H26v6h-4v-5.43l-2,1.155V26h-4v-1.966l-5,2.887V28h16
				c0.55,0,1-0.451,1-1v-8C28,18.449,27.55,18,27,18"/>
			<path clip-path="url(#SVGID_2_)" fill="#231F20" d="M9,0H1C0.45,0,0,0.45,0,1v26c0,0.55,0.45,1,1,1h8c0.55,0,1-0.45,1-1V1
				C10,0.45,9.55,0,9,0 M5,24.5c-0.828,0-1.5-0.671-1.5-1.5c0-0.829,0.672-1.5,1.5-1.5s1.5,0.671,1.5,1.5
				C6.5,23.829,5.828,24.5,5,24.5"/>
		</g>

</svg>
