<?xml version="1.0" encoding="utf-8"?>
<svg version="1.1" id="Layer_1" xmlns="http://www.w3.org/2000/svg" xmlns:xlink="http://www.w3.org/1999/xlink" x="0px" y="0px"
	 viewBox="0 0 28 28" enable-background="new 0 0 28 28" xml:space="preserve">
<g>
	<defs>
		<rect id="SVGID_1_" width="28" height="28"/>
	</defs>
	<clipPath id="SVGID_2_">
		<use xlink:href="#SVGID_1_"  overflow="visible"/>
	</clipPath>
	<path clip-path="url(#SVGID_2_)" d="M9.099,4.804l1.695,1.695l-9.099,9.098L0,13.903L9.099,4.804z M20.793,16.499l-9.099,9.098
		l-1.793-1.793L19,14.706L20.793,16.499z M9.194,23.097l-1.793-1.793l9.099-9.098l1.793,1.793L9.194,23.097z M6.694,20.597
		l-1.793-1.793L14,9.706l1.793,1.793L6.694,20.597z M4.194,18.097l-1.793-1.793L11.5,7.206l1.793,1.793L4.194,18.097z M14.097,28
		l-1.695-1.696l9.099-9.098l1.695,1.695L14.097,28z M23.903,18.194L9.806,4.097l3.284-3.283l5.035,5.034l5.034-5.034
		C23.679,0.293,24.429,0,25.193,0c0.711,0,1.433,0.254,1.992,0.814c1.161,1.16,1.007,3.021,0,4.027l-5.034,5.035l5.034,5.034
		L23.903,18.194z"/>
</g>
</svg>
