<?xml version="1.0" encoding="utf-8"?>
<svg version="1.1" id="Layer_1" xmlns="http://www.w3.org/2000/svg" xmlns:xlink="http://www.w3.org/1999/xlink" x="0px" y="0px" viewBox="0 0 28 28"
	 enable-background="new 0 0 28 28" xml:space="preserve">

	<g>
		<polygon fill="#231F20" points="23,0 23,2 5,2 5,0 1.999,0 1.999,2 0,2 0,4.999 1.999,4.999 1.999,28 5,28 5,4.999 9,4.999 9,16
			9.999,16 9.999,4.999 18,4.999 18,16 18.999,16 18.999,4.999 23,4.999 23,28 26,28 26,4.999 27.999,4.999 27.999,2 26,2 26,0
			"/>
		<polygon fill="#231F20" points="7,17 7,20 9,20 9,21 10,21 10,20 18,20 18,21 19,21 19,20 21,20 21,17 		"/>
	</g>

</svg>
