<?xml version="1.0" encoding="utf-8"?>
<svg version="1.1" id="Layer_1" xmlns="http://www.w3.org/2000/svg" xmlns:xlink="http://www.w3.org/1999/xlink" x="0px" y="0px" viewBox="0 0 28 28"
	 enable-background="new 0 0 28 28" xml:space="preserve">

		<g>
			<defs>
				<rect id="SVGID_1_" width="28" height="28"/>
			</defs>
			<clipPath id="SVGID_2_">
				<use xlink:href="#SVGID_1_"  overflow="visible"/>
			</clipPath>
			<path clip-path="url(#SVGID_2_)" fill="#231F20" d="M2.707,18.222l2.121,2.121l-4.242,4.243c-0.781,0.781-0.781,2.048,0,2.828
				c0.78,0.782,2.047,0.782,2.828,0l4.243-4.242l2.121,2.121l1.414-1.414l-7.071-7.071L2.707,18.222z"/>
			<path clip-path="url(#SVGID_2_)" fill="#231F20" d="M23.172,20.343l2.121-2.121l-1.414-1.414l-7.071,7.071l1.414,1.414
				l2.121-2.121l4.243,4.242c0.781,0.782,2.048,0.782,2.828,0c0.781-0.78,0.781-2.047,0-2.828L23.172,20.343z"/>
			<polygon clip-path="url(#SVGID_2_)" fill="#231F20" points="17.515,21.758 21.758,17.515 4.95,0.707 0,0 0.707,4.949 			"/>
			<polygon clip-path="url(#SVGID_2_)" fill="#231F20" points="27.293,4.949 28,0 23.051,0.707 14.707,9.051 18.95,13.293 			"/>
			
				<rect x="6.768" y="16.247" transform="matrix(-0.7071 -0.7071 0.7071 -0.7071 3.7827 38.0323)" clip-path="url(#SVGID_2_)" fill="#231F20" width="6.001" height="3.97"/>
		</g>

</svg>
