<?xml version="1.0" encoding="utf-8"?>
<svg version="1.1" id="Layer_1" xmlns="http://www.w3.org/2000/svg" xmlns:xlink="http://www.w3.org/1999/xlink" x="0px" y="0px"
	 viewBox="0 0 28 28" enable-background="new 0 0 28 28" xml:space="preserve">
<g>
	<defs>
		<rect id="SVGID_1_" width="28" height="28"/>
	</defs>
	<clipPath id="SVGID_2_">
		<use xlink:href="#SVGID_1_"  overflow="visible"/>
	</clipPath>
	<path clip-path="url(#SVGID_2_)" d="M23.904,4.108C21.375,1.575,17.889,0,14.026,0C8.303,0,3.389,3.439,1.221,8.364l3.816,1.638
		c1.537-3.443,4.987-5.853,8.992-5.853c2.713,0,5.17,1.016,6.95,2.803l-4.153,4.065H28V0L23.904,4.108z M14.006,23.852
		c-2.713,0-5.17-0.999-6.951-2.784l4.156-4.051H0V28l4.115-4.109C6.645,26.425,10.141,28,14.002,28
		c5.723,0,10.643-3.439,12.809-8.363l-3.815-1.639C21.459,21.442,18.014,23.852,14.006,23.852"/>
</g>
</svg>
