<?xml version="1.0" encoding="utf-8"?>
<svg version="1.1" id="Layer_1" xmlns="http://www.w3.org/2000/svg" xmlns:xlink="http://www.w3.org/1999/xlink" x="0px" y="0px" viewBox="0 0 28 28"
	 enable-background="new 0 0 28 28" xml:space="preserve">

		<g>
			<defs>
				<rect id="SVGID_1_" width="28" height="28"/>
			</defs>
			<clipPath id="SVGID_2_">
				<use xlink:href="#SVGID_1_"  overflow="visible"/>
			</clipPath>
			<path clip-path="url(#SVGID_2_)" fill="#231F20" d="M18.808,3.537L4.337,18.007l1.414,1.414l-1.793,1.792l0.708,0.708
				l-4.372,4.371c-0.391,0.392-0.391,1.024-0.001,1.415c0.391,0.39,1.024,0.391,1.414,0l4.373-4.373l0.706,0.707l1.793-1.792
				l1.414,1.414L24.464,9.193L18.808,3.537z M18.828,12h-5.656l5.636-5.636l2.828,2.828L18.828,12z"/>
			<polygon clip-path="url(#SVGID_2_)" fill="#231F20" points="22.343,0 20.929,1.415 22.343,2.829 20.929,4.243 23.758,7.072 
				25.172,5.658 26.586,7.072 28,5.658 			"/>
		</g>

</svg>
