<?xml version="1.0" encoding="utf-8"?>
<svg version="1.1" id="Layer_1" xmlns="http://www.w3.org/2000/svg" xmlns:xlink="http://www.w3.org/1999/xlink" x="0px" y="0px"
	 viewBox="0 0 28 28" enable-background="new 0 0 28 28" xml:space="preserve">
<g>
	<defs>
		<rect id="SVGID_1_" width="28" height="28"/>
	</defs>
	<clipPath id="SVGID_2_">
		<use xlink:href="#SVGID_1_"  overflow="visible"/>
	</clipPath>
	<path clip-path="url(#SVGID_2_)" d="M23,0l5,5l-2,2l-5-5L23,0 M16.149,0.421c1.021,0,2.102,0.727,2.88,1.507
		c0.282,0.279,6.021,6.017,6.036,6.036c0.059,0.073,0.131,0.138,0.202,0.2l0.116,0.118c0.072,0.076,0.127,0.157,0.128,0.252
		C25.51,8.739,25.442,8.929,25.3,9.073c-0.264,0.26-1.683,0.074-2.186,0.577c-0.379,0.378-0.944,0.961-0.92,1.912
		c0.039,1.701,1.194,6.128-1.654,8.976l-6.623,6.622C13.335,27.741,12.595,28,11.8,28c-1.318,0-2.783-0.712-3.919-1.845
		l-6.034-6.037c-1.818-1.819-2.553-4.485-1.008-6.036l6.622-6.621c1.356-1.355,3.263-2.117,4.808-2.117h0.011
		c-0.314-1.305,0.033-2.736,1.051-3.754C14.109,0.81,15.13,0.421,16.149,0.421 M16.502,5.805c0.53,0,0.941-0.187,1.267-0.416
		c0.445-0.729,0.355-1.695-0.275-2.325c-0.36-0.359-0.836-0.557-1.344-0.557c-0.506,0-0.984,0.198-1.342,0.557
		c-0.361,0.359-0.557,0.835-0.557,1.343c0,0.425,0.148,0.828,0.407,1.16c0.715,0.111,1.335,0.227,1.78,0.237
		C16.46,5.805,16.481,5.805,16.502,5.805"/>
</g>
</svg>
