<?xml version="1.0" encoding="utf-8"?>
<svg version="1.1" id="Layer_1" xmlns="http://www.w3.org/2000/svg" xmlns:xlink="http://www.w3.org/1999/xlink" x="0px" y="0px" viewBox="0 0 28 28"
	 enable-background="new 0 0 28 28" xml:space="preserve">

		<g>
			<defs>
				<rect id="SVGID_1_" width="28" height="28"/>
			</defs>
			<clipPath id="SVGID_2_">
				<use xlink:href="#SVGID_1_"  overflow="visible"/>
			</clipPath>
			<path clip-path="url(#SVGID_2_)" fill="#231F20" d="M0.7,15.055C0.356,15.668,0,16.304,0,16.97c0,0.592,0.238,1.113,0.747,1.635
				c0.596-2.026,1.706-4.892,3.65-7.238c2.314-2.794,5.254-4.213,8.739-4.219h0.085c0.785,0,7.73,0.339,10.375,12.014
				c0.959-0.71,1.388-1.387,1.388-2.192c0-0.666-0.355-1.302-0.7-1.915c-0.266-0.476-0.541-0.967-0.644-1.464
				c-0.108-0.529-0.051-1.113,0.003-1.679c0.071-0.719,0.137-1.399-0.114-1.964c-0.271-0.612-0.867-1.038-1.444-1.449
				c-0.431-0.306-0.876-0.625-1.176-1.018c-0.313-0.409-0.518-0.935-0.716-1.442c-0.269-0.692-0.524-1.347-1.028-1.728
				c-0.536-0.407-1.282-0.46-2.002-0.508c-0.504-0.036-1.024-0.072-1.474-0.228c-0.436-0.155-0.862-0.446-1.273-0.726
				C13.806,2.431,13.177,2,12.492,2c-0.685,0-1.314,0.431-1.923,0.849c-0.411,0.28-0.836,0.571-1.272,0.726
				C8.848,3.731,8.326,3.767,7.821,3.803C7.101,3.851,6.357,3.904,5.82,4.309c-0.504,0.383-0.758,1.036-1.027,1.73
				C4.595,6.546,4.39,7.073,4.075,7.483c-0.3,0.393-0.745,0.71-1.177,1.016C2.323,8.91,1.727,9.336,1.456,9.948
				c-0.251,0.565-0.185,1.247-0.115,1.966c0.054,0.564,0.112,1.148,0.003,1.677C1.242,14.088,0.966,14.579,0.7,15.055"/>
			<path clip-path="url(#SVGID_2_)" fill="#231F20" d="M4.786,26h0.051l19.129-0.02c-0.711-1.141-0.822-2.702-0.822-2.717
				c-1.707-14.541-9.086-14.96-9.923-14.96h-0.063c-5.272,0-8.242,3.637-9.806,6.687c-1.696,3.314-2.149,6.666-2.155,6.7
				C1.199,25.88,4.419,26,4.786,26 M20.5,22.625c0.483,0,0.875,0.393,0.875,0.874c0,0.483-0.392,0.876-0.875,0.876
				c-0.482,0-0.875-0.393-0.875-0.876C19.625,23.018,20.018,22.625,20.5,22.625 M18.5,19.625c0.482,0,0.875,0.394,0.875,0.875
				c0,0.482-0.393,0.875-0.875,0.875s-0.875-0.393-0.875-0.875C17.625,20.019,18.018,19.625,18.5,19.625 M16.501,22.625
				c0.481,0,0.874,0.392,0.874,0.874c0,0.484-0.393,0.876-0.874,0.876c-0.482,0-0.876-0.392-0.876-0.876
				C15.625,23.017,16.019,22.625,16.501,22.625"/>
			<path clip-path="url(#SVGID_2_)" fill="#231F20" d="M25.451,25.85c0.198,0.064,0.407,0.099,0.629,0.099
				c1.87-0.295,1.981-2.863,1.902-4.768c0.001-0.06,0.03-5.652-3.18-9.517c-0.012,0.123-0.023,0.245-0.034,0.363
				c-0.047,0.475-0.095,0.967-0.021,1.328c0.066,0.32,0.286,0.712,0.518,1.127c0.398,0.712,0.849,1.516,0.849,2.488
				c0,1.681-1.159,2.684-2.307,3.444c0.185,0.95,0.326,1.842,0.43,2.723C24.238,23.162,24.413,25.327,25.451,25.85"/>
		</g>

</svg>
