<?xml version="1.0" encoding="utf-8"?>
<svg version="1.1" id="Layer_1" xmlns="http://www.w3.org/2000/svg" xmlns:xlink="http://www.w3.org/1999/xlink" x="0px" y="0px"
	 viewBox="0 0 28 28" enable-background="new 0 0 28 28" xml:space="preserve">
<g>
	<defs>
		<rect id="SVGID_1_" width="28" height="28"/>
	</defs>
	<clipPath id="SVGID_2_">
		<use xlink:href="#SVGID_1_"  overflow="visible"/>
	</clipPath>
	<path clip-path="url(#SVGID_2_)" d="M27.055-0.001H16.779c-0.521,0-1.25,0.302-1.617,0.669L0.275,15.555
		c-0.367,0.369-0.367,0.971,0,1.339l10.832,10.83c0.367,0.367,0.969,0.368,1.336,0l14.889-14.887C27.699,12.469,28,11.743,28,11.222
		V0.946C28,0.425,27.576-0.001,27.055-0.001 M18.455,18.861l-3.399-1.616l-1.259,3.545l-1.262-3.543l-3.396,1.614l1.613-3.398
		l-3.543-1.26l3.543-1.26L9.139,9.544l3.396,1.617l1.262-3.546l1.259,3.545l3.399-1.616l-1.615,3.399l3.545,1.26l-3.545,1.26
		L18.455,18.861z M23.494,5.974c-0.828,0-1.502-0.673-1.502-1.502s0.674-1.502,1.502-1.502c0.83,0,1.502,0.673,1.502,1.502
		S24.324,5.974,23.494,5.974"/>
</g>
</svg>
