<?xml version="1.0" encoding="utf-8"?>
<svg version="1.1" id="Layer_1" xmlns="http://www.w3.org/2000/svg" xmlns:xlink="http://www.w3.org/1999/xlink" x="0px" y="0px" viewBox="0 0 28 28"
	 enable-background="new 0 0 28 28" xml:space="preserve">

	<g>
		<polygon fill="#231F20" points="0,22.001 28,22.001 28,13.001 21.539,14.617 0,10.001 		"/>
		<g>
			<defs>
				<rect id="SVGID_1_" width="28" height="28"/>
			</defs>
			<clipPath id="SVGID_2_">
				<use xlink:href="#SVGID_1_"  overflow="visible"/>
			</clipPath>
			<path clip-path="url(#SVGID_2_)" fill="#231F20" d="M2.096,9.427C2.61,6.354,5.282,4.002,8.5,4.002c3.584,0,6.5,2.915,6.5,6.5
				c0,0.569-0.081,1.118-0.219,1.644l1.956,0.419C16.902,11.903,17,11.215,17,10.502c0-0.006-0.001-0.011-0.001-0.017
				c1.266,0.881,3.01,1.658,5.219,1.658c1.665,0,3.593-0.44,5.782-1.611l-0.965-1.758c-7.126,3.81-10.661-1.584-10.808-1.815
				l-0.006,0.004C14.877,4.037,11.929,2.002,8.5,2.002c-4.184,0-7.655,3.025-8.361,7.007l0.07,0.015L2.096,9.427z"/>
			<rect y="23.001" clip-path="url(#SVGID_2_)" fill="#231F20" width="28" height="3"/>
			<path clip-path="url(#SVGID_2_)" fill="#231F20" d="M6.806,10.437l3.268,0.7c0.079-0.197,0.125-0.411,0.125-0.636
				c0-0.939-0.761-1.7-1.7-1.7C7.583,8.801,6.84,9.529,6.806,10.437"/>
		</g>
	</g>

</svg>
