<?xml version="1.0" encoding="utf-8"?>
<svg version="1.1" id="Layer_1" xmlns="http://www.w3.org/2000/svg" xmlns:xlink="http://www.w3.org/1999/xlink" x="0px" y="0px"
	 viewBox="0 0 28 28" enable-background="new 0 0 28 28" xml:space="preserve">
<g>
	<defs>
		<rect id="SVGID_1_" width="28" height="28"/>
	</defs>
	<clipPath id="SVGID_2_">
		<use xlink:href="#SVGID_1_"  overflow="visible"/>
	</clipPath>
	<path clip-path="url(#SVGID_2_)" d="M11,8c-2.205,0-4,1.796-4,4c0,2.206,1.795,4,4,4c2.203,0,4-1.794,4-4C15,9.796,13.207,8,11,8
		 M0.002,28H2v-1h2v-2H0L0.002,28z M25.121,20.598H23V19h-2.883c1.469-1.994,2.371-4.16,2.371-6.791C22.488,5.465,16.33,0,10,0H6
		C2.73,0.07,0,2.744,0,6.031v10.557C0,19.92,2.701,23,6.033,23H23v-1.367h2.121c0.984,0,1.781,0.789,1.807,1.763h0.004
		c0,0.985-0.955,1.577-1.932,1.604H5v1l20-0.004V26c1.547-0.027,3-1.049,3-2.604C27.975,21.85,26.676,20.598,25.121,20.598 M11,18
		c-3.309,0-6-2.691-6-6s2.691-6,6-6s6,2.691,6,6S14.309,18,11,18"/>
</g>
</svg>
