<?xml version="1.0" encoding="utf-8"?>
<svg version="1.1" id="Layer_1" xmlns="http://www.w3.org/2000/svg" xmlns:xlink="http://www.w3.org/1999/xlink" x="0px" y="0px"
	 viewBox="0 0 28 28" enable-background="new 0 0 28 28" xml:space="preserve">
<g>
	<defs>
		<rect id="SVGID_1_" width="28" height="28"/>
	</defs>
	<clipPath id="SVGID_2_">
		<use xlink:href="#SVGID_1_"  overflow="visible"/>
	</clipPath>
	<path clip-path="url(#SVGID_2_)" d="M22,26.198c0,1.201,1,1.801,2,1.802c1,0,2-0.601,2-1.802V23h-4V26.198z M2,26.198
		C2,27.399,3,27.999,4,28c1,0,2-0.601,2-1.802V23H2V26.198z M25,12v-2c0-3.414-1.463-5.366-5-5.866V3c0-2-1-3-4-3h-4
		C9,0,8,1,8,3.001v1.133C4.465,4.635,3,6.586,3,10v2c-2,1.001-3,3.001-3,6v4h28v-4C28,15.001,27,13.001,25,12 M10.5,2h7
		C17.777,2,18,2.224,18,2.5S17.777,3,17.5,3h-7C10.225,3,10,2.776,10,2.5S10.225,2,10.5,2 M3.969,19c-1.106,0-2-0.896-2-2
		s0.894-2,2-2c1.103,0,2,0.896,2,2S5.072,19,3.969,19 M22,12H6v-1.999C6,8,7,7,10.002,7h8C21,7,22,8,22,10V12z M24.002,19
		c-1.105,0-2-0.896-2-2s0.895-2,2-2c1.104,0,2,0.896,2,2S25.106,19,24.002,19"/>
</g>
</svg>
