<?xml version="1.0" encoding="utf-8"?>
<svg version="1.1" id="Layer_1" xmlns="http://www.w3.org/2000/svg" xmlns:xlink="http://www.w3.org/1999/xlink" x="0px" y="0px"
	 viewBox="0 0 28 28" enable-background="new 0 0 28 28" xml:space="preserve">
<g>
	<defs>
		<rect id="SVGID_1_" width="28" height="28"/>
	</defs>
	<clipPath id="SVGID_2_">
		<use xlink:href="#SVGID_1_"  overflow="visible"/>
	</clipPath>
	<path clip-path="url(#SVGID_2_)" d="M7.569,7.012c0.059,0,0.118-0.002,0.178-0.004C7.714,7.271,7.69,7.536,7.69,7.808
		c0,3.308,2.549,6.019,5.791,6.283v-3.397c-0.584-0.23-1.761-0.545-1.763-0.694c-0.006-0.581,1.287-1.313,2.265-1.327h0.034
		C14.995,8.687,16.286,9.419,16.28,10c0,0.149-1.177,0.462-1.761,0.694v3.397c3.24-0.266,5.789-2.975,5.789-6.283
		c0-0.272-0.024-0.537-0.057-0.8c0.061,0.002,0.119,0.004,0.18,0.004c0.812,0,1.59-0.283,2.172-0.864
		c1.275-1.277,1.126-3.493-0.331-4.952C21.479,0.404,20.464,0,19.495,0c-0.812,0-1.59,0.285-2.172,0.866
		c-0.344,0.342-0.58,0.755-0.72,1.201C15.81,1.705,14.929,1.5,13.999,1.5c-0.93,0-1.809,0.205-2.603,0.567
		c-0.139-0.446-0.377-0.857-0.719-1.201C10.095,0.285,9.315,0,8.505,0C7.536,0,6.52,0.404,5.726,1.196
		C4.269,2.655,4.12,4.871,5.395,6.148C5.978,6.729,6.757,7.012,7.569,7.012 M15.876,4.801c0.773,0,1.402,0.626,1.402,1.399
		c0,0.24-0.066,0.462-0.172,0.659c-0.693-0.334-1.607-0.557-2.625-0.614c0-0.015-0.003-0.029-0.003-0.045
		C14.478,5.427,15.104,4.801,15.876,4.801 M11.86,4.801c0.774,0,1.401,0.626,1.401,1.399c0,0.022-0.006,0.041-0.006,0.063
		c-1.016,0.081-1.914,0.329-2.574,0.684C10.542,6.733,10.46,6.477,10.46,6.2C10.46,5.427,11.087,4.801,11.86,4.801 M6.866,20.692
		c1.821,1.823,2.117,4.483,0.658,5.942c-0.623,0.621-1.466,0.925-2.369,0.925c-1.209,0-2.527-0.542-3.57-1.586
		c-1.82-1.824-2.117-4.483-0.66-5.942c0.625-0.621,1.467-0.925,2.371-0.925C4.505,19.106,5.823,19.649,6.866,20.692 M26.413,25.973
		c-1.043,1.044-2.359,1.586-3.57,1.586c-0.903,0-1.746-0.304-2.369-0.925c-1.459-1.459-1.162-4.119,0.66-5.942
		c1.043-1.043,2.361-1.586,3.57-1.586c0.904,0,1.746,0.304,2.369,0.925C28.532,21.49,28.235,24.149,26.413,25.973 M18.958,26.254
		C17.466,27.347,15.718,28,13.999,28s-3.465-0.653-4.957-1.746c0.908-1.891,0.387-4.464-1.443-6.295
		c-0.745-0.743-1.629-1.288-2.559-1.6c0.014-0.293,0.039-0.584,0.078-0.872l-2.42-1.001c-0.767-0.318-1.365-0.917-1.681-1.683
		c-0.319-0.769-0.319-1.615,0-2.382c0.482-1.167,1.611-1.92,2.875-1.92c0.408,0,0.808,0.08,1.189,0.236l2.834,1.173
		c1.32,1.954,3.555,3.242,6.084,3.242c2.531,0,4.764-1.288,6.086-3.242l2.832-1.173c0.381-0.156,0.781-0.236,1.189-0.236
		c1.264,0,2.393,0.753,2.877,1.92c0.317,0.767,0.317,1.613,0,2.382c-0.318,0.766-0.916,1.365-1.683,1.683l-2.418,1.001
		c0.039,0.288,0.062,0.579,0.076,0.874c-0.93,0.31-1.814,0.855-2.559,1.598C18.571,21.79,18.048,24.363,18.958,26.254"/>
</g>
</svg>
