<?xml version="1.0" encoding="utf-8"?>
<svg version="1.1" id="Layer_1" xmlns="http://www.w3.org/2000/svg" xmlns:xlink="http://www.w3.org/1999/xlink" x="0px" y="0px" viewBox="0 0 28 28"
	 enable-background="new 0 0 28 28" xml:space="preserve">

		<g>
			<defs>
				<rect id="SVGID_1_" width="28" height="28"/>
			</defs>
			<clipPath id="SVGID_2_">
				<use xlink:href="#SVGID_1_"  overflow="visible"/>
			</clipPath>
			<path clip-path="url(#SVGID_2_)" fill="#231F20" d="M13.121,14.189l-2.107,12.647c-0.091,0.544,0.277,1.06,0.822,1.151
				c0.056,0.01,0.11,0.013,0.165,0.013c0.48,0,0.904-0.346,0.985-0.835l1.893-11.353l2.3-0.575l1.833,11.916
				c0.084,0.545,0.581,0.917,1.14,0.836c0.546-0.084,0.92-0.595,0.836-1.141l-2.167-14.084L13.121,14.189z"/>
			<polygon clip-path="url(#SVGID_2_)" fill="#231F20" points="3.534,9.078 1.362,9.632 1.085,8.547 0,8.823 0.277,9.909 
				0.276,9.909 0.614,11.231 1.385,14.254 2.472,13.976 2.194,12.89 4.365,12.336 			"/>
			<polygon clip-path="url(#SVGID_2_)" fill="#231F20" points="11.435,12.845 20.177,10.614 20.455,11.7 28,9.773 25.505,0 
				17.96,1.927 18.238,3.013 9.494,5.244 9.772,6.33 4.343,7.715 5.73,13.145 11.158,11.759 			"/>
		</g>

</svg>
