<?xml version="1.0" encoding="utf-8"?>
<svg version="1.1" id="Layer_1" xmlns="http://www.w3.org/2000/svg" xmlns:xlink="http://www.w3.org/1999/xlink" x="0px" y="0px"
	 viewBox="0 0 28 28" enable-background="new 0 0 28 28" xml:space="preserve">
<g>
	<defs>
		<rect id="SVGID_1_" width="28" height="28"/>
	</defs>
	<clipPath id="SVGID_2_">
		<use xlink:href="#SVGID_1_"  overflow="visible"/>
	</clipPath>
	<path clip-path="url(#SVGID_2_)" d="M21.246,13.292c-0.205-1.867-0.957-3.319-2.019-4.38V8.91l-0.002-0.001
		c-1.061-1.061-2.514-1.814-4.381-2.019C5.338,5.85,8.301,17.918,1.602,20.502c1.349,2.564,3.468,4.659,6.052,5.976
		C10.281,19.85,22.283,22.771,21.246,13.292 M14,0C6.268-0.001,0,6.268,0,14c0,1.609,0.275,3.153,0.775,4.593
		c1.973-0.716,2.801-2.639,3.944-5.66c1.416-3.744,3.353-8.871,10.349-8.105c2.211,0.242,4.155,1.146,5.625,2.615v0.002
		c1.469,1.468,2.371,3.412,2.614,5.622c0.767,6.997-4.36,8.935-8.106,10.349c-2.978,1.128-4.89,1.949-5.629,3.864
		C10.965,27.745,12.453,28,14,28c7.732,0,14-6.269,14-14S21.732,0,14,0"/>
</g>
</svg>
