<?xml version="1.0" encoding="utf-8"?>
<svg version="1.1" id="Layer_1" xmlns="http://www.w3.org/2000/svg" xmlns:xlink="http://www.w3.org/1999/xlink" x="0px" y="0px" viewBox="0 0 28 28"
	 enable-background="new 0 0 28 28" xml:space="preserve">

		<g>
			<defs>
				<rect id="SVGID_1_" width="28" height="28"/>
			</defs>
			<clipPath id="SVGID_2_">
				<use xlink:href="#SVGID_1_"  overflow="visible"/>
			</clipPath>
			<path clip-path="url(#SVGID_2_)" fill="#231F20" d="M3.414,27.414L7.828,23C7.878,22.95,5.05,20.122,5,20.172l-4.414,4.414
				C0.195,24.976,0,25.488,0,26c0,0.512,0.195,1.023,0.586,1.414C1.367,28.195,2.633,28.195,3.414,27.414"/>
			<path clip-path="url(#SVGID_2_)" fill="#231F20" d="M6.414,20.172l1.414,1.414l3.871-3.871c3.387,2.504,8.833,1.629,12.672-2.211
				C26.756,13.119,28,10.113,28,7.366c0-2.024-0.675-3.908-2.067-5.3c-3.279-3.279-9.295-2.58-13.437,1.563
				c-2.385,2.385-3.629,5.391-3.629,8.138c0,1.675,0.471,3.25,1.419,4.533L6.414,20.172z M10.985,10.5
				c0.111-0.672,0.305-1.343,0.581-2H13.5v2H10.985z M22.5,2.275V4.5h-2V1.995C21.201,1.983,21.875,2.075,22.5,2.275 M25.905,8.5
				c-0.099,0.671-0.286,1.342-0.551,2H23.5v-2H25.905z M17.5,17.032V14.5h2v1.946C18.834,16.728,18.162,16.92,17.5,17.032
				 M17.5,11.5h2v2h-2V11.5z M14.5,5.5h2v2h-2V5.5z M17.5,5.5h2v2h-2V5.5z M19.5,10.5h-2v-2h2V10.5z M20.5,11.5h2v2h-2V11.5z
				 M23.5,11.5h1.387c-0.376,0.698-0.839,1.369-1.387,1.998V11.5z M22.5,10.5h-2v-2h2V10.5z M20.5,5.5h2v2h-2V5.5z M19.5,4.5h-2
				V2.637c0.667-0.271,1.339-0.461,2-0.562V4.5z M16.5,4.5h-2V4.495c0.635-0.552,1.308-1.014,2-1.387V4.5z M13.5,5.5v2h-1.452
				c0.391-0.701,0.878-1.371,1.443-2H13.5z M14.5,8.5h2v2h-2V8.5z M16.5,13.5h-2v-2h2V13.5z M16.5,14.5v2.637
				c-0.699,0.025-1.373-0.051-2-0.234V14.5H16.5z M20.5,15.949V14.5h2v0.014C21.867,15.083,21.193,15.561,20.5,15.949 M26,7.366
				c0,0.045-0.007,0.09-0.008,0.134H23.5v-2h2.226C25.936,6.171,26,6.825,26,7.366 M25.292,4.5H23.5V2.704
				c0.369,0.211,0.712,0.469,1.019,0.777C24.84,3.802,25.092,4.147,25.292,4.5 M10.883,11.5H13.5v2h-2.395
				c-0.178-0.624-0.238-1.228-0.238-1.733C10.867,11.679,10.879,11.589,10.883,11.5 M11.507,14.5H13.5v1.996
				c-0.419-0.224-0.809-0.501-1.152-0.844C11.987,15.291,11.718,14.9,11.507,14.5"/>
		</g>

</svg>
