<?xml version="1.0" encoding="utf-8"?>
<svg version="1.1" id="Layer_1" xmlns="http://www.w3.org/2000/svg" xmlns:xlink="http://www.w3.org/1999/xlink" x="0px" y="0px"
	 viewBox="0 0 28 28" enable-background="new 0 0 28 28" xml:space="preserve">
<g>
	<defs>
		<rect id="SVGID_1_" width="28" height="28"/>
	</defs>
	<clipPath id="SVGID_2_">
		<use xlink:href="#SVGID_1_"  overflow="visible"/>
	</clipPath>
	<path clip-path="url(#SVGID_2_)" d="M9,10v8.668C9.002,23.821,13.256,28,18.5,28c5.248,0,9.5-4.179,9.5-9.332V10H9z M21,14.25
		c0.691,0,1.25,0.56,1.25,1.25c0,0.69-0.559,1.25-1.25,1.25c-0.689,0-1.25-0.56-1.25-1.25C19.75,14.81,20.311,14.25,21,14.25
		 M16,14.25c0.691,0,1.25,0.56,1.25,1.25c0,0.69-0.559,1.25-1.25,1.25c-0.689,0-1.25-0.56-1.25-1.25
		C14.75,14.81,15.311,14.25,16,14.25 M18.484,24.988C15.75,24.988,13.41,23,12.439,21h12.123C23.613,23,21.25,24.988,18.484,24.988
		 M9,9h9.984C18.988,8.889,19,8.78,19,8.668V0H0v8.668c0.002,4.65,3.471,8.493,8,9.201V13H3.439C4.328,11.127,6,9,9,9 M12,4.25
		c0.691,0,1.25,0.56,1.25,1.25c0,0.69-0.559,1.25-1.25,1.25c-0.689,0-1.25-0.56-1.25-1.25C10.75,4.81,11.311,4.25,12,4.25 M7,4.25
		c0.691,0,1.25,0.56,1.25,1.25c0,0.69-0.559,1.25-1.25,1.25c-0.689,0-1.25-0.56-1.25-1.25C5.75,4.81,6.311,4.25,7,4.25"/>
</g>
</svg>
