<?xml version="1.0" encoding="utf-8"?>
<svg version="1.1" id="Layer_1" xmlns="http://www.w3.org/2000/svg" xmlns:xlink="http://www.w3.org/1999/xlink" x="0px" y="0px"
	 viewBox="0 0 28 28" enable-background="new 0 0 28 28" xml:space="preserve">
<g>
	<defs>
		<rect id="SVGID_1_" width="28" height="28"/>
	</defs>
	<clipPath id="SVGID_2_">
		<use xlink:href="#SVGID_1_"  overflow="visible"/>
	</clipPath>
	<path clip-path="url(#SVGID_2_)" d="M23,9.793V7.01c-2,0.377-5.541,0.584-9,0.584S7,7.387,5,7.01v2.576
		c3,0.774,5.953,1.194,9.402,1.194C17.564,10.78,21,10.44,23,9.793 M11.988,15.129c0.791,0.045,1.44,0.074,2.241,0.074
		c3.158,0,6.771-0.341,8.771-0.99v-3.357c-2,0.631-5.6,0.961-8.75,0.961c-3.285,0-6.398-0.379-9.25-1.071
		C7.338,12.627,9.727,14.053,11.988,15.129 M24.361,22.237c-0.132,1.216-1.791,1.664-3.582,1.963
		c-1.816,0.302-4.216,0.468-6.761,0.468S9.07,24.502,7.256,24.2c-1.793-0.299-3.467-0.747-3.6-1.963C1.395,22.651,0,23.201,0,23.805
		v1.865C0,26.957,6.277,28,14,28s14-1.043,14-2.33v-1.865C28,23.201,26.621,22.651,24.361,22.237 M23,15.28
		c-2,0.617-5.65,0.943-8.723,0.957C17.758,17.559,21,18.096,23,18.305V15.28z M5,22.078c0,0.86,3.852,1.555,9,1.555s9-0.695,9-1.555
		v-2.375c-2,0.629-5.453,0.959-8.598,0.959C10.936,20.662,8,20.26,5,19.502V22.078z M5,14c1,0.385,3,0.686,4.625,0.887
		C8.098,14.022,6,12.989,5,11.77V14z M14,0C6.277,0,0,1.075,0,2.364v1.865c0,1.287,6.277,2.33,14,2.33s14-1.043,14-2.33V2.364
		C28,1.075,21.723,0,14,0 M14.018,3.201c-1.645,0-2.979-0.287-2.979-0.642c0-0.356,1.334-0.645,2.979-0.645
		c1.644,0,2.978,0.289,2.978,0.645C16.996,2.914,15.662,3.201,14.018,3.201 M5,18.43c3,0.783,6.088,1.197,9.572,1.197
		c2.35,0,4.551-0.191,6.688-0.554c-2.574-0.416-5.748-1.258-9.291-2.918C9.461,16.004,7,15.643,5,15.082V18.43z"/>
</g>
</svg>
