<?xml version="1.0" encoding="utf-8"?>
<svg version="1.1" id="Layer_1" xmlns="http://www.w3.org/2000/svg" xmlns:xlink="http://www.w3.org/1999/xlink" x="0px" y="0px"
	 viewBox="0 0 28 28" enable-background="new 0 0 28 28" xml:space="preserve">
<g>
	<defs>
		<rect id="SVGID_1_" width="28" height="28"/>
	</defs>
	<clipPath id="SVGID_2_">
		<use xlink:href="#SVGID_1_"  overflow="visible"/>
	</clipPath>
	<path clip-path="url(#SVGID_2_)" d="M28,9.005c0,1.105-0.895,2-2,2h-7c-1.104,0-2-0.895-2-2v-1c0-1.105,0.896-2,2-2h7
		c1.105,0,2,0.895,2,2V9.005z M9,25.024c-0.002-0.202-1.016-3.953-3.992-7.044C1,16.005,0,12.314,0,8.505c0-4.694,3.807-8.5,8.5-8.5
		h5.281C13.301,0.537,13,1.234,13,2.005v1c0,1.654,1.346,3,3,3h0.781C16.301,6.537,16,7.234,16,8.005v1
		c0,0.869,0.377,1.645,0.969,2.194C15.824,11.621,15,12.714,15,14.005v1c0,0.771,0.301,1.468,0.781,2H12c2.127,3.993,2,7.75,2,8
		c0,1.649-1.33,2.98-2.98,2.99H11C9.359,27.995,9.021,26.666,9,25.024 M25,17.005h-7c-1.104,0-2-0.895-2-2v-1c0-1.104,0.896-2,2-2h7
		c1.105,0,2,0.896,2,2v1C27,16.11,26.105,17.005,25,17.005 M16,0.005h7c1.105,0,2,0.895,2,2v1c0,1.105-0.895,2-2,2h-7
		c-1.104,0-2-0.895-2-2v-1C14,0.9,14.896,0.005,16,0.005"/>
</g>
</svg>
