<?xml version="1.0" encoding="utf-8"?>
<svg version="1.1" id="Layer_1" xmlns="http://www.w3.org/2000/svg" xmlns:xlink="http://www.w3.org/1999/xlink" x="0px" y="0px"
	 viewBox="0 0 28 28" enable-background="new 0 0 28 28" xml:space="preserve">
<g>
	<defs>
		<rect id="SVGID_1_" width="28" height="28"/>
	</defs>
	<clipPath id="SVGID_2_">
		<use xlink:href="#SVGID_1_"  overflow="visible"/>
	</clipPath>
	<path clip-path="url(#SVGID_2_)" d="M28,19.995c0,1.105-0.895,2-2,2h-7c-1.104,0-2-0.895-2-2v-1c0-1.104,0.896-2,2-2h7
		c1.105,0,2,0.896,2,2V19.995z M11,0.005h0.02C12.67,0.015,14,1.346,14,2.995c0,0.25,0.127,4.007-2,8h3.781
		c-0.48,0.532-0.781,1.229-0.781,2v1c0,1.291,0.824,2.384,1.969,2.806C16.377,17.35,16,18.126,16,18.995v1
		c0,0.771,0.301,1.468,0.781,2H16c-1.654,0-3,1.346-3,3v1c0,0.771,0.301,1.468,0.781,2H8.5c-4.693,0-8.5-3.806-8.5-8.5
		c0-3.809,1-7.5,5.008-9.475C7.984,6.929,8.998,3.178,9,2.976C9.021,1.334,9.359,0.005,11,0.005 M27,12.995v1c0,1.105-0.895,2-2,2
		h-7c-1.104,0-2-0.895-2-2v-1c0-1.105,0.896-2,2-2h7C26.105,10.995,27,11.89,27,12.995 M14,25.995v-1c0-1.104,0.896-2,2-2h7
		c1.105,0,2,0.896,2,2v1c0,1.105-0.895,2-2,2h-7C14.896,27.995,14,27.1,14,25.995"/>
</g>
</svg>
