<?xml version="1.0" encoding="utf-8"?>
<svg version="1.1" id="Layer_1" xmlns="http://www.w3.org/2000/svg" xmlns:xlink="http://www.w3.org/1999/xlink" x="0px" y="0px" viewBox="0 0 28 28"
	 enable-background="new 0 0 28 28" xml:space="preserve">

		<g>
			<defs>
				<rect id="SVGID_1_" width="28" height="28"/>
			</defs>
			<clipPath id="SVGID_2_">
				<use xlink:href="#SVGID_1_"  overflow="visible"/>
			</clipPath>
			<path clip-path="url(#SVGID_2_)" fill="#231F20" d="M27,18h-7v-8h7c0.55,0,1-0.45,1-1s-0.45-1-1-1h-7V1c0-0.55-0.45-1-1-1
				s-1,0.45-1,1v7h-8V1c0-0.55-0.45-1-1-1S8,0.45,8,1v7H1C0.45,8,0,8.45,0,9s0.45,1,1,1h7v8H1c-0.55,0-1,0.45-1,1s0.45,1,1,1h7v7
				c0,0.55,0.45,1,1,1s1-0.45,1-1v-7h8v7c0,0.55,0.45,1,1,1s1-0.45,1-1v-7h7c0.55,0,1-0.45,1-1S27.55,18,27,18 M10,10h8v8h-8V10z"/>
			<path clip-path="url(#SVGID_2_)" fill="#231F20" d="M1.646,6.354C1.744,6.452,1.872,6.5,2,6.5c0.127,0,0.255-0.048,0.353-0.146
				L4,4.708l1.646,1.646C5.744,6.452,5.872,6.5,6,6.5c0.127,0,0.255-0.048,0.353-0.146c0.195-0.195,0.195-0.512,0-0.707L4.707,4
				l1.646-1.646c0.195-0.195,0.195-0.512,0-0.707c-0.195-0.195-0.512-0.195-0.707,0L4,3.293L2.353,1.647
				c-0.195-0.195-0.512-0.195-0.707,0s-0.195,0.512,0,0.707L3.293,4L1.646,5.647C1.451,5.842,1.451,6.159,1.646,6.354"/>
			<path clip-path="url(#SVGID_2_)" fill="#231F20" d="M16.354,21.646c-0.195-0.195-0.512-0.195-0.707,0L14,23.292l-1.646-1.646
				c-0.195-0.195-0.512-0.195-0.707,0c-0.195,0.195-0.195,0.512,0,0.707L13.292,24l-1.646,1.646c-0.195,0.195-0.195,0.512,0,0.707
				C11.745,26.451,11.873,26.5,12,26.5c0.128,0,0.256-0.049,0.354-0.147L14,24.708l1.647,1.646C15.745,26.451,15.872,26.5,16,26.5
				c0.128,0,0.256-0.049,0.354-0.147c0.195-0.195,0.195-0.512,0-0.707L14.707,24l1.646-1.647
				C16.549,22.159,16.549,21.841,16.354,21.646"/>
			<path clip-path="url(#SVGID_2_)" fill="#231F20" d="M14.707,14l1.646-1.646c0.196-0.196,0.196-0.512,0-0.708
				c-0.195-0.195-0.511-0.195-0.707,0L14,13.293l-1.647-1.647c-0.195-0.195-0.511-0.195-0.707,0c-0.195,0.196-0.195,0.512,0,0.708
				L13.293,14l-1.647,1.646c-0.195,0.196-0.195,0.512,0,0.708C11.744,16.451,11.872,16.5,12,16.5c0.128,0,0.256-0.049,0.353-0.146
				L14,14.707l1.646,1.647C15.744,16.451,15.872,16.5,16,16.5s0.256-0.049,0.353-0.146c0.196-0.196,0.196-0.512,0-0.708L14.707,14z"
				/>
			<path clip-path="url(#SVGID_2_)" fill="#231F20" d="M26.354,11.646c-0.195-0.195-0.512-0.195-0.707,0L24,13.293l-1.646-1.646
				c-0.195-0.195-0.512-0.195-0.707,0c-0.195,0.195-0.195,0.512,0,0.707L23.292,14l-1.646,1.646c-0.195,0.195-0.195,0.512,0,0.707
				C21.744,16.451,21.872,16.5,22,16.5c0.128,0,0.256-0.049,0.354-0.147L24,14.708l1.647,1.646C25.744,16.451,25.872,16.5,26,16.5
				c0.128,0,0.256-0.049,0.354-0.147c0.195-0.195,0.195-0.512,0-0.707L24.707,14l1.646-1.647
				C26.549,12.158,26.549,11.842,26.354,11.646"/>
			<path clip-path="url(#SVGID_2_)" fill="#231F20" d="M14,7c1.654,0,3-1.346,3-3c0-1.654-1.346-3-3-3s-3,1.346-3,3
				C11,5.654,12.346,7,14,7 M14,2c1.102,0,2,0.898,2,2c0,1.103-0.898,2-2,2c-1.103,0-2-0.897-2-2C12,2.898,12.897,2,14,2"/>
			<path clip-path="url(#SVGID_2_)" fill="#231F20" d="M7,14c0-1.654-1.346-3-3-3s-3,1.346-3,3s1.346,3,3,3S7,15.654,7,14 M2,14
				c0-1.102,0.897-2,2-2c1.102,0,2,0.898,2,2c0,1.103-0.898,2-2,2C2.897,16,2,15.103,2,14"/>
			<path clip-path="url(#SVGID_2_)" fill="#231F20" d="M24,7c1.654,0,3-1.346,3-3c0-1.654-1.346-3-3-3c-1.654,0-3,1.346-3,3
				C21,5.654,22.346,7,24,7 M24,2c1.102,0,2,0.898,2,2c0,1.103-0.898,2-2,2c-1.103,0-2-0.897-2-2C22,2.898,22.897,2,24,2"/>
			<path clip-path="url(#SVGID_2_)" fill="#231F20" d="M4,21c-1.654,0-3,1.346-3,3s1.346,3,3,3s3-1.346,3-3S5.654,21,4,21 M4,26
				c-1.103,0-2-0.897-2-2c0-1.102,0.897-2,2-2c1.102,0,2,0.898,2,2C6,25.103,5.102,26,4,26"/>
		</g>

</svg>
