<?xml version="1.0" encoding="utf-8"?>
<svg version="1.1" id="Layer_1" xmlns="http://www.w3.org/2000/svg" xmlns:xlink="http://www.w3.org/1999/xlink" x="0px" y="0px"
	 viewBox="0 0 28 28" enable-background="new 0 0 28 28" xml:space="preserve">
<g>
	<defs>
		<rect id="SVGID_1_" width="28" height="28"/>
	</defs>
	<clipPath id="SVGID_2_">
		<use xlink:href="#SVGID_1_"  overflow="visible"/>
	</clipPath>
	<path clip-path="url(#SVGID_2_)" d="M9.999,10c0,0,1.607,5.243,2.611,6.247s2.631,1.004,3.637-0.001
		c1.004-1.003,1.004-2.631,0-3.636C15.241,11.606,9.999,10,9.999,10 M23.899,4.099C21.165,1.366,17.583,0,13.999,0
		C10.417,0,6.833,1.367,4.1,4.099c-5.466,5.469-5.466,14.332,0,19.8C6.835,26.634,10.417,28,13.999,28
		c3.584,0,7.166-1.367,9.9-4.101C29.366,18.432,29.366,9.567,23.899,4.099 M22.114,21.407l-2.104-2.104l-0.707,0.707l2.104,2.104
		c-1.908,1.744-4.324,2.746-6.908,2.862V22h-1v2.976c-2.582-0.114-5-1.115-6.91-2.859l2.107-2.107l-0.707-0.707l-2.107,2.106
		c-1.793-1.963-2.747-4.417-2.86-6.909h2.977v-1H3.022c0.113-2.492,1.067-4.947,2.862-6.909l2.105,2.106L8.696,7.99L6.591,5.883
		c1.908-1.743,4.326-2.744,6.908-2.858V6h1V3.025c2.584,0.116,5,1.118,6.906,2.861l-2.102,2.103l0.707,0.708l2.104-2.104
		c1.744,1.908,2.746,4.325,2.861,6.907h-2.976v1h2.976C24.86,17.083,23.858,19.5,22.114,21.407"/>
</g>
</svg>
