<?xml version="1.0" encoding="utf-8"?>
<svg version="1.1" id="Layer_1" xmlns="http://www.w3.org/2000/svg" xmlns:xlink="http://www.w3.org/1999/xlink" x="0px" y="0px" viewBox="0 0 28 28"
	 enable-background="new 0 0 28 28" xml:space="preserve">

	<g>
		<rect y="20" fill="#231F20" width="28" height="8"/>
		<g>
			<defs>
				<rect id="SVGID_1_" width="28" height="28"/>
			</defs>
			<clipPath id="SVGID_2_">
				<use xlink:href="#SVGID_1_"  overflow="visible"/>
			</clipPath>
			<path clip-path="url(#SVGID_2_)" fill="#231F20" d="M11.455,16L8.54,9.197C8.432,8.943,8.549,8.649,8.803,8.54
				C9.055,8.433,9.35,8.548,9.46,8.803l3,7c0.027,0.064,0.04,0.131,0.04,0.197h3c0-0.066,0.013-0.133,0.04-0.197l3-7
				c0.109-0.255,0.404-0.371,0.657-0.263c0.254,0.109,0.371,0.403,0.263,0.657L16.545,16h2.753l5.611-15.061
				C24.409,0.565,22.692,0,19.991,0c-3.034,0-4.403,0.834-5.344,1.65C13.5,2.646,11.706,3.79,7.993,3.79
				c-1.568,0-2.918-0.198-4.065-0.6L8.687,16H11.455z"/>
			<path clip-path="url(#SVGID_2_)" fill="#231F20" d="M25.99,13h-3.44l-1.119,3H22.5c0.275,0,0.5,0.225,0.5,0.5
				c0,0.275-0.225,0.5-0.5,0.5h-17C5.224,17,5,16.775,5,16.5C5,16.225,5.224,16,5.5,16h1.053l-1.115-3h-3.43L0,19h28L25.99,13z"/>
		</g>
	</g>

</svg>
