<?xml version="1.0" encoding="utf-8"?>
<svg version="1.1" id="Layer_1" xmlns="http://www.w3.org/2000/svg" xmlns:xlink="http://www.w3.org/1999/xlink" x="0px" y="0px" viewBox="0 0 28 28"
	 enable-background="new 0 0 28 28" xml:space="preserve">

		<g>
			<defs>
				<rect id="SVGID_1_" width="28" height="28"/>
			</defs>
			<clipPath id="SVGID_2_">
				<use xlink:href="#SVGID_1_"  overflow="visible"/>
			</clipPath>
			<path clip-path="url(#SVGID_2_)" fill="#231F20" d="M4.5,12.077C4.5,8.45,10.107,5.5,17,5.5c1.71,0,3.339,0.182,4.824,0.511
				C21.929,5.74,22,5.441,22,5.077C22,2.74,17.543,0,11,0S0,2.74,0,5.077c0,1.366,0.736,2.037,2.034,2.358
				C2.016,7.545,2,7.655,2,7.769V19c0,1.1,0.9,2,2,2h2h0.5H7v-5.25l-0.5-0.284C4.878,14.643,4.5,13.222,4.5,12.077"/>
			<path clip-path="url(#SVGID_2_)" fill="#231F20" d="M17,7.001c-6.543,0-11,2.74-11,5.077c0,1.353,0.725,2.023,2,2.348V26
				c0,1.099,0.901,2,2,2h14c1.1,0,2-0.901,2-2V14.426c1.276-0.325,2-0.995,2-2.348C28,9.741,23.543,7.001,17,7.001 M21.3,18.401
				l-8,6c-0.09,0.067-0.195,0.1-0.3,0.1c-0.151,0-0.302-0.07-0.4-0.201c-0.165-0.22-0.12-0.534,0.1-0.7l8-6
				c0.22-0.164,0.534-0.12,0.701,0.101C21.566,17.922,21.521,18.235,21.3,18.401 M21.3,14.401l-8,6c-0.09,0.067-0.195,0.1-0.3,0.1
				c-0.151,0-0.302-0.07-0.4-0.201c-0.165-0.22-0.12-0.534,0.1-0.7l8-6c0.22-0.165,0.534-0.12,0.701,0.101
				C21.566,13.922,21.521,14.235,21.3,14.401"/>
		</g>

</svg>
