<?xml version="1.0" encoding="utf-8"?>
<svg version="1.1" id="Layer_1" xmlns="http://www.w3.org/2000/svg" xmlns:xlink="http://www.w3.org/1999/xlink" x="0px" y="0px"
	 viewBox="0 0 28 28" enable-background="new 0 0 28 28" xml:space="preserve">
<g>
	<defs>
		<rect id="SVGID_1_" width="28" height="28"/>
	</defs>
	<clipPath id="SVGID_2_">
		<use xlink:href="#SVGID_1_"  overflow="visible"/>
	</clipPath>
	<path clip-path="url(#SVGID_2_)" d="M20,4h-9v10h9V4z M21,0H0v3h21V0z M11,17h17v-2H11V17z M10,4H1v13h9V4z M6,8
		C5.447,8,5,7.553,5,7H3V6h3c0.553,0,1,0.448,1,1C7,7.553,6.553,8,6,8 M10,24.972V28h13v-3.028C26,23.598,28,21,28,18H5.602
		C5.602,21,8,23.598,10,24.972"/>
</g>
</svg>
