<?xml version="1.0" encoding="utf-8"?>
<svg version="1.1" id="Layer_1" xmlns="http://www.w3.org/2000/svg" xmlns:xlink="http://www.w3.org/1999/xlink" x="0px" y="0px" viewBox="0 0 28 28"
	 enable-background="new 0 0 28 28" xml:space="preserve">

		<g>
			<defs>
				<rect id="SVGID_1_" width="28" height="28"/>
			</defs>
			<clipPath id="SVGID_2_">
				<use xlink:href="#SVGID_1_"  overflow="visible"/>
			</clipPath>
			<path clip-path="url(#SVGID_2_)" fill="#231F20" d="M27.468,5.336l-2.6-0.79l1.144-1.144c0.391-0.391,0.391-1.024,0-1.414
				c-0.391-0.391-1.023-0.391-1.414,0l-1.144,1.144l-0.791-2.6c-0.12-0.396-0.536-0.617-0.936-0.499
				c-0.396,0.121-0.619,0.54-0.499,0.936l1.024,3.364l-0.861,0.862l-2.18-3.27c-0.228-0.344-0.694-0.438-1.04-0.208
				c-0.345,0.23-0.437,0.696-0.208,1.04l2.346,3.52l-1.039,1.039l-2.18-3.269c-0.229-0.343-0.694-0.437-1.04-0.208
				c-0.345,0.23-0.437,0.696-0.208,1.04l2.346,3.519l-1.04,1.039l-2.18-3.269c-0.229-0.344-0.695-0.437-1.04-0.208
				C13.583,6.19,13.49,6.656,13.72,7l2.346,3.519l-0.359,0.36l-3.174-1.442c-0.375-0.17-0.822-0.006-0.993,0.372
				c-0.172,0.377-0.005,0.822,0.372,0.993l2.662,1.21l-3.413,3.413c-1.114-0.526-2.487-0.341-3.404,0.576l-6.882,6.883
				c-1.167,1.166-1.167,3.075,0,4.242c1.166,1.167,3.075,1.167,4.242,0L12,20.244c0.918-0.918,1.102-2.291,0.575-3.405l3.413-3.413
				l1.21,2.661c0.125,0.277,0.397,0.44,0.682,0.44c0.105,0,0.21-0.022,0.311-0.068c0.377-0.171,0.544-0.616,0.372-0.993
				l-1.442-3.173l0.359-0.36l3.519,2.347c0.128,0.085,0.273,0.126,0.415,0.126c0.242,0,0.481-0.118,0.625-0.334
				c0.23-0.345,0.137-0.811-0.208-1.04l-3.269-2.181l1.04-1.039l3.518,2.346c0.128,0.085,0.273,0.126,0.415,0.126
				c0.243,0,0.481-0.118,0.625-0.334c0.23-0.345,0.137-0.811-0.208-1.04l-3.268-2.18l1.039-1.039l3.519,2.346
				c0.128,0.084,0.273,0.126,0.415,0.126c0.243,0,0.481-0.118,0.625-0.334c0.23-0.345,0.137-0.811-0.208-1.041l-3.269-2.179
				l0.861-0.862l3.365,1.025c0.073,0.021,0.146,0.032,0.218,0.032c0.322,0,0.619-0.208,0.718-0.531
				C28.087,5.876,27.864,5.457,27.468,5.336 M3.704,25.712c-0.391,0.391-1.024,0.391-1.414,0c-0.391-0.391-0.391-1.024,0-1.414
				c0.39-0.391,1.023-0.391,1.414,0C4.094,24.688,4.094,25.321,3.704,25.712"/>
		</g>

</svg>
