<?xml version="1.0" encoding="utf-8"?>
<svg version="1.1" id="Layer_1" xmlns="http://www.w3.org/2000/svg" xmlns:xlink="http://www.w3.org/1999/xlink" x="0px" y="0px" viewBox="0 0 28 28"
	 enable-background="new 0 0 28 28" xml:space="preserve">

		<g>
			<defs>
				<rect id="SVGID_1_" width="28" height="28"/>
			</defs>
			<clipPath id="SVGID_2_">
				<use xlink:href="#SVGID_1_"  overflow="visible"/>
			</clipPath>
			<path clip-path="url(#SVGID_2_)" fill="#231F20" d="M0,28h28v-6H0V28z M25,24c0.552,0,1,0.448,1,1s-0.448,1-1,1s-1-0.448-1-1
				S24.448,24,25,24 M3,24c0.552,0,1,0.448,1,1s-0.448,1-1,1s-1-0.448-1-1S2.448,24,3,24"/>
			<path clip-path="url(#SVGID_2_)" fill="#231F20" d="M24.268,0H3.737C1.682,0,0,1.681,0,3.734V14h2V3.734C2,2.819,2.821,2,3.737,2
				h20.531C25.182,2,26,2.819,26,3.734V14h2V3.734C28,1.681,26.323,0,24.268,0"/>
			<path clip-path="url(#SVGID_2_)" fill="#231F20" d="M22,11.65c1.179-0.563,2-1.756,2-3.15c0-1.394-0.821-2.587-2-3.15V9l-1.5,1
				L19,9V5.35c-1.179,0.563-2,1.756-2,3.15c0,1.394,0.821,2.587,2,3.15V15h-9v-4H7v4H0v6h28v-6h-6V11.65z M3,19
				c-0.552,0-1-0.448-1-1c0-0.552,0.448-1,1-1s1,0.448,1,1C4,18.552,3.552,19,3,19 M25,17c0.552,0,1,0.448,1,1c0,0.552-0.448,1-1,1
				c-0.552,0-1-0.448-1-1C24,17.448,24.448,17,25,17"/>
			<path clip-path="url(#SVGID_2_)" fill="#231F20" d="M10,10c0.55,0,1-0.45,1-1h1c0,0.55,0.45,1,1,1c0.55,0,1-0.45,1-1V7
				c0-0.55-0.45-1-1-1c-0.55,0-1,0.45-1,1h-1c0-0.55-0.45-1-1-1H6l-3,4H10z"/>
		</g>

</svg>
