<?xml version="1.0" encoding="utf-8"?>
<svg version="1.1" id="Layer_1" xmlns="http://www.w3.org/2000/svg" xmlns:xlink="http://www.w3.org/1999/xlink" x="0px" y="0px" viewBox="0 0 28 28"
	 enable-background="new 0 0 28 28" xml:space="preserve">

		<g>
			<defs>
				<rect id="SVGID_1_" width="28" height="28"/>
			</defs>
			<clipPath id="SVGID_2_">
				<use xlink:href="#SVGID_1_"  overflow="visible"/>
			</clipPath>
			<path clip-path="url(#SVGID_2_)" fill="#231F20" d="M27.839,9.903l-0.546-0.84c-0.3-0.461-0.923-0.594-1.385-0.293L0.455,25.322
				c-0.462,0.3-0.595,0.923-0.294,1.385l0.545,0.839c0.3,0.462,0.924,0.594,1.385,0.294l25.454-16.552
				C28.007,10.988,28.139,10.365,27.839,9.903"/>
			
				<rect x="22.7" y="3.89" transform="matrix(-0.8386 0.5447 -0.5447 -0.8386 46.1369 -0.8892)" clip-path="url(#SVGID_2_)" fill="#231F20" width="1" height="5"/>
			
				<rect x="19.023" y="6.98" transform="matrix(0.545 0.8384 -0.8384 0.545 16.0643 -14.6424)" clip-path="url(#SVGID_2_)" fill="#231F20" width="5" height="1"/>
			
				<rect x="17.346" y="8.07" transform="matrix(0.545 0.8384 -0.8384 0.545 16.2151 -12.7405)" clip-path="url(#SVGID_2_)" fill="#231F20" width="5" height="1"/>
			
				<rect x="15.669" y="9.16" transform="matrix(0.545 0.8384 -0.8384 0.545 16.3659 -10.8386)" clip-path="url(#SVGID_2_)" fill="#231F20" width="5" height="1"/>
			
				<rect x="13.993" y="10.25" transform="matrix(0.545 0.8384 -0.8384 0.545 16.5163 -8.937)" clip-path="url(#SVGID_2_)" fill="#231F20" width="5" height="0.999"/>
			
				<rect x="12.315" y="11.339" transform="matrix(-0.545 -0.8384 0.8384 -0.545 12.9635 30.7134)" clip-path="url(#SVGID_2_)" fill="#231F20" width="5" height="1"/>
			<path clip-path="url(#SVGID_2_)" fill="#231F20" d="M12.541,9.143c0,0,8.985-5.84,9.024-5.865
				c1.651-1.073-1.028-5.295-5.932-2.108c0,0,3.796,0.856-0.587,2.767C9.47,6.368,12.541,9.143,12.541,9.143"/>
		</g>

</svg>
