<?xml version="1.0" encoding="utf-8"?>
<svg version="1.1" id="Layer_1" xmlns="http://www.w3.org/2000/svg" xmlns:xlink="http://www.w3.org/1999/xlink" x="0px" y="0px"
	 viewBox="0 0 28 28" enable-background="new 0 0 28 28" xml:space="preserve">
<g>
	<defs>
		<rect id="SVGID_1_" width="28" height="28"/>
	</defs>
	<clipPath id="SVGID_2_">
		<use xlink:href="#SVGID_1_"  overflow="visible"/>
	</clipPath>
	<path clip-path="url(#SVGID_2_)" d="M26.301,9.219c-0.979-0.924-3.359-1.22-3.359-1.22V11c0,0.283-0.196,0.507-0.479,0.549
		c-0.025,0.004-0.043,0.005-0.07,0.005c-0.25,0-0.467-0.186-0.506-0.443c-0.518-3.561-0.984-6.069-1.078-6.558
		c-0.274-0.848-0.694-1.771-1.57-2.682c-2.62-2.72-7.133-2.442-10.081,0.619C7.774,3.93,6.987,5.726,6.813,7.508L6.809,7.51
		c0,0-0.219,2.802-2.819,6.04c-2.189,2.089-4.275,5.112-3.959,8.911c0,0,7.204-9.149,11.018-5.188c0,0,4.523,3.221-4.687,10.286
		c0,0,2.41,2.209,8.873-3.261c2.064-1.515,3.341-2.311,5.138-2.541c1.762-0.157,3.541-0.983,4.963-2.46
		C28.283,16.237,29.043,11.813,26.301,9.219"/>
</g>
</svg>
