<?xml version="1.0" encoding="utf-8"?>
<svg version="1.1" id="Layer_1" xmlns="http://www.w3.org/2000/svg" xmlns:xlink="http://www.w3.org/1999/xlink" x="0px" y="0px" viewBox="0 0 28 28"
	 enable-background="new 0 0 28 28" xml:space="preserve">

	<g>
		<polygon fill="#231F20" points="5.469,0 4.969,4 8.969,4 8.469,0 		"/>
		<g>
			<defs>
				<rect id="SVGID_1_" width="28" height="28"/>
			</defs>
			<clipPath id="SVGID_2_">
				<use xlink:href="#SVGID_1_"  overflow="visible"/>
			</clipPath>
			<path clip-path="url(#SVGID_2_)" fill="#231F20" d="M12.969,10c0-2-2-4-4-5h-4c-2,1-4,3-4,5v15h12V10z M9.898,14.788
				c-0.005,0.008-0.012,0.016-0.018,0.023c-0.004,0.004-0.465,0.538-0.58,1.545c0.029,1.097-0.34,2.004-1.066,2.591
				c-0.077,0.063-0.186,0.069-0.27,0.016C7.88,18.91,7.838,18.809,7.86,18.712c0.12-0.53,0.32-2.048-0.191-2.694
				c-0.166-0.21-0.395-0.312-0.7-0.312c-0.305,0-0.534,0.102-0.7,0.312c-0.493,0.625-0.325,2.058-0.204,2.635
				c0.018,0.033,0.028,0.071,0.028,0.112c0,0.13-0.105,0.235-0.234,0.235C5.858,19,5.854,19,5.85,19
				c-0.052,0-0.103-0.017-0.146-0.052c-0.726-0.587-1.095-1.494-1.068-2.624c-0.115-0.985-0.573-1.507-0.578-1.512
				c-0.006-0.007-0.012-0.015-0.018-0.023c-0.357-0.423-0.559-0.963-0.57-1.524c-0.013-0.632,0.211-1.217,0.629-1.648
				C4.486,11.219,4.999,11,5.543,11c0.466,0.007,0.779,0.137,0.977,0.233c0.074,0.046,0.227,0.147,0.449,0.296
				c0.222-0.149,0.372-0.247,0.424-0.281C7.616,11.138,7.929,11.008,8.358,11h0.001c0.581,0,1.094,0.219,1.479,0.616
				c0.419,0.431,0.643,1.016,0.631,1.648C10.457,13.826,10.255,14.366,9.898,14.788"/>
			<path clip-path="url(#SVGID_2_)" fill="#231F20" d="M12.969,26h-12c-0.55,0-1,0.45-1,1s0.45,1,1,1h12c0.55,0,1-0.45,1-1
				S13.519,26,12.969,26"/>
			<path clip-path="url(#SVGID_2_)" fill="#231F20" d="M23.969,0h-5c0,0-1,3-1,8h7C24.969,3,23.969,0,23.969,0"/>
			<path clip-path="url(#SVGID_2_)" fill="#231F20" d="M25.886,15.5c-0.806-1.498-1.267-3.182-1.534-4.578
				c0.361-0.151,0.617-0.508,0.617-0.922c0-0.55-0.45-1-1-1h-5c-0.55,0-1,0.45-1,1c0,0.438,0.29,0.801,0.684,0.936
				c-0.24,1.393-0.674,3.071-1.478,4.564c0,0-5.297,9.342,0.76,12.5h7.191C31.184,24.842,25.886,15.5,25.886,15.5 M21.469,25
				c-2.485,0-4.5-1.567-4.5-3.5s2.015-3.5,4.5-3.5s4.5,1.567,4.5,3.5S23.954,25,21.469,25"/>
		</g>
	</g>
</svg>
