<?xml version="1.0" encoding="utf-8"?>
<svg version="1.1" id="Layer_1" xmlns="http://www.w3.org/2000/svg" xmlns:xlink="http://www.w3.org/1999/xlink" x="0px" y="0px" viewBox="0 0 28 28"
	 enable-background="new 0 0 28 28" xml:space="preserve">

		<g>
			<defs>
				<rect id="SVGID_1_" width="28" height="28"/>
			</defs>
			<clipPath id="SVGID_2_">
				<use xlink:href="#SVGID_1_"  overflow="visible"/>
			</clipPath>
			<path clip-path="url(#SVGID_2_)" fill="#231F20" d="M19,3.001h-4.5V1.848C14.794,1.674,15,1.367,15,1.001c0-0.552-0.448-1-1-1
				s-1,0.448-1,1c0,0.366,0.207,0.672,0.5,0.847v1.153H9v6h10V3.001z M13,7.001h-2v-2h2V7.001z M17,7.001h-2v-2h2V7.001z"/>
			<rect x="8" y="23.001" clip-path="url(#SVGID_2_)" fill="#231F20" width="5" height="1"/>
			<rect x="15" y="23.001" clip-path="url(#SVGID_2_)" fill="#231F20" width="5" height="1"/>
			<rect x="8" y="21.001" clip-path="url(#SVGID_2_)" fill="#231F20" width="5" height="1"/>
			<rect x="15" y="21.001" clip-path="url(#SVGID_2_)" fill="#231F20" width="5" height="1"/>
			<path clip-path="url(#SVGID_2_)" fill="#231F20" d="M6.121,23.093C6.688,22.527,7,21.773,7,20.972
				c0-0.802-0.313-1.556-0.878-2.121c-1.134-1.133-3.111-1.132-4.243-0.001C1.312,19.416,1,20.17,1,20.972
				c0,0.801,0.312,1.555,0.879,2.121l1.414-1.414C3.104,21.489,3,21.239,3,20.972c0-0.268,0.104-0.518,0.293-0.707
				c0.377-0.379,1.036-0.38,1.414,0.001C4.896,20.454,5,20.704,5,20.972c0,0.267-0.104,0.517-0.293,0.707L6.121,23.093z"/>
			<path clip-path="url(#SVGID_2_)" fill="#231F20" d="M21.879,18.849C21.312,19.415,21,20.169,21,20.971
				c0,0.801,0.312,1.555,0.878,2.121l1.415-1.414C23.104,21.489,23,21.238,23,20.971c0-0.268,0.104-0.518,0.293-0.707
				c0.377-0.379,1.035-0.38,1.414,0.001C24.896,20.453,25,20.703,25,20.971c0,0.267-0.104,0.518-0.293,0.707l1.414,1.414
				C26.688,22.526,27,21.772,27,20.971c0-0.802-0.313-1.556-0.879-2.121C24.987,17.717,23.011,17.718,21.879,18.849"/>
			<path clip-path="url(#SVGID_2_)" fill="#231F20" d="M5,28.001h3h5v-3H8C6.343,25.001,5,26.344,5,28.001"/>
			<path clip-path="url(#SVGID_2_)" fill="#231F20" d="M20,25.001h-5v3h5h3C23,26.344,21.657,25.001,20,25.001"/>
			<path clip-path="url(#SVGID_2_)" fill="#231F20" d="M2,14.001v3.537c0.599-0.338,1.286-0.537,2-0.537c0.713,0,1.4,0.199,2,0.537
				v-3.537h1v4.351c0.42,0.48,0.716,1.04,0.868,1.649h12.264c0.152-0.609,0.448-1.169,0.868-1.649v-4.351h1v3.537
				c0.599-0.338,1.286-0.537,2-0.537c0.713,0,1.4,0.199,2,0.537v-3.537c0.552,0,1-0.448,1-1s-0.448-1-1-1v-2h-4v2h-1v-2H7v2H6v-2H2
				v2c-0.552,0-1,0.448-1,1S1.448,14.001,2,14.001"/>
		</g>

</svg>
