<?xml version="1.0" encoding="utf-8"?>
<svg version="1.1" id="Layer_1" xmlns="http://www.w3.org/2000/svg" xmlns:xlink="http://www.w3.org/1999/xlink" x="0px" y="0px"
	 viewBox="0 0 28 28" enable-background="new 0 0 28 28" xml:space="preserve">
<g>
	<defs>
		<rect id="SVGID_1_" width="28" height="28"/>
	</defs>
	<clipPath id="SVGID_2_">
		<use xlink:href="#SVGID_1_"  overflow="visible"/>
	</clipPath>
	<path clip-path="url(#SVGID_2_)" d="M24,20h2v6h-9v-6h3v-2h-4.057C16.594,17.364,17,16.48,17,15.499C17,13.567,15.434,12,13.5,12
		c-1.932,0-3.5,1.567-3.5,3.499c0,0.981,0.406,1.865,1.057,2.501H0v10h28V18h-4V20z M13.5,16.773c-0.701,0-1.272-0.57-1.272-1.273
		c0-0.702,0.571-1.273,1.272-1.273c0.705,0,1.273,0.571,1.273,1.273C14.773,16.203,14.205,16.773,13.5,16.773 M21,17v4h-2l3,3.478
		L25,21h-2v-4H21z M19.064,0h-7.015C7.113,0,3,2.542,3,6.481V14H0v2h9.051C9.033,15.833,9,15.671,9,15.499
		C9,13.019,11.019,11,13.5,11c2.482,0,4.5,2.019,4.5,4.499c0,0.172-0.031,0.334-0.051,0.501H28V6.481C28,2.542,23.998,0,19.064,0
		 M10,9H9C7.896,9,7,8.105,7,7c0-1.105,0.896-2,2-2h1c1.105,0,2,0.895,2,2C12,8.105,11.105,9,10,9 M22.5,10h-5
		C16.119,10,15,8.881,15,7.5C15,6.119,16.119,5,17.5,5h5C23.881,5,25,6.119,25,7.5C25,8.881,23.881,10,22.5,10"/>
</g>
</svg>
