<?xml version="1.0" encoding="utf-8"?>
<svg version="1.1" id="Layer_1" xmlns="http://www.w3.org/2000/svg" xmlns:xlink="http://www.w3.org/1999/xlink" x="0px" y="0px"
	 viewBox="0 0 28 28" enable-background="new 0 0 28 28" xml:space="preserve">
<g>
	<defs>
		<rect id="SVGID_1_" width="28" height="28"/>
	</defs>
	<clipPath id="SVGID_2_">
		<use xlink:href="#SVGID_1_"  overflow="visible"/>
	</clipPath>
	<path clip-path="url(#SVGID_2_)" d="M19.064,0h-7.015C7.113,0,3,2.543,3,6.481V18H0v2h7.002C7.982,17.653,10.301,16,13,16
		c2.697,0,5.016,1.653,5.998,3.999H28V6.481C28,2.543,23.998,0,19.064,0 M10,9H9C7.896,9,7,8.105,7,7c0-1.105,0.896-2,2-2h1
		c1.105,0,2,0.895,2,2C12,8.105,11.105,9,10,9 M22.5,10h-5C16.119,10,15,8.881,15,7.5C15,6.119,16.119,5,17.5,5h5
		C23.881,5,25,6.119,25,7.5C25,8.881,23.881,10,22.5,10 M13,17c-3.037,0-5.5,2.462-5.5,5.499C7.5,25.535,9.963,28,13,28
		s5.5-2.465,5.5-5.501C18.5,19.463,16.037,17,13,17 M13,24.5c-1.104,0-2-0.896-2-2s0.896-2,2-2c1.107,0,2,0.896,2,2
		S14.107,24.5,13,24.5"/>
</g>
</svg>
