<?xml version="1.0" encoding="utf-8"?>
<svg version="1.1" id="Layer_1" xmlns="http://www.w3.org/2000/svg" xmlns:xlink="http://www.w3.org/1999/xlink" x="0px" y="0px"
	 viewBox="0 0 28 28" enable-background="new 0 0 28 28" xml:space="preserve">
<g>
	<defs>
		<rect id="SVGID_1_" width="28" height="28"/>
	</defs>
	<clipPath id="SVGID_2_">
		<use xlink:href="#SVGID_1_"  overflow="visible"/>
	</clipPath>
	<path clip-path="url(#SVGID_2_)" d="M6,22h16c2.314-0.837,3-2.194,3-5V6c0-3.999-1.999-5.999-6.999-6h-8C5.001,0,3,2,3,6v11
		C3,19.807,3.685,21.162,6,22 M20.5,19c-0.828,0-1.5-0.672-1.5-1.5s0.672-1.5,1.5-1.5c0.828,0,1.5,0.672,1.5,1.5S21.328,19,20.5,19
		 M10,2h8c0.552,0,1,0.448,1,1s-0.448,1-1,1h-8C9.448,4,9,3.552,9,3S9.448,2,10,2 M6,9c0-2,1.001-3,4.001-3H18c3,0,4,1,4,3v2
		c0,2-1.001,3-4.001,3H10c-3,0-4-1-4-3V9z M7.5,16C8.328,16,9,16.672,9,17.5S8.328,19,7.5,19C6.671,19,6,18.328,6,17.5
		S6.671,16,7.5,16"/>
	<path clip-path="url(#SVGID_2_)" d="M23.2,23H4.799L0,27v1h28v-1L23.2,23z M5.162,24h17.675l1.201,1H3.961L5.162,24z M1.561,27
		l1.2-1h22.477l1.2,1H1.561z"/>
</g>
</svg>
