<?xml version="1.0" encoding="utf-8"?>
<svg version="1.1" id="Layer_1" xmlns="http://www.w3.org/2000/svg" xmlns:xlink="http://www.w3.org/1999/xlink" x="0px" y="0px"
	 viewBox="0 0 28 28" enable-background="new 0 0 28 28" xml:space="preserve">
<g>
	<defs>
		<rect id="SVGID_1_" width="28" height="28"/>
	</defs>
	<clipPath id="SVGID_2_">
		<use xlink:href="#SVGID_1_"  overflow="visible"/>
	</clipPath>
	<path clip-path="url(#SVGID_2_)" d="M4,28h20l1-19H3L4,28z M18,12.001c0-0.553,0.448-1,1-1c0.553,0,1,0.447,1,1v13
		c0,0.552-0.447,1-1,1c-0.552,0-1-0.448-1-1V12.001z M13,12.001c0-0.553,0.448-1,1-1c0.553,0,1,0.447,1,1v13c0,0.552-0.447,1-1,1
		c-0.552,0-1-0.448-1-1V12.001z M8,12.001c0-0.553,0.448-1,1-1c0.553,0,1,0.447,1,1v13c0,0.552-0.447,1-1,1c-0.552,0-1-0.448-1-1
		V12.001z M25.17,4H21V3.735c0-2.055-1.68-3.734-3.732-3.734h-6.534C8.682,0.001,7,1.68,7,3.735V4H2.797L0,5.357L0.002,8H28V5.357
		L25.17,4z M19,4H9V3.735c0-0.916,0.818-1.734,1.734-1.734h6.534C18.182,2.001,19,2.819,19,3.735V4z"/>
</g>
</svg>
