<?xml version="1.0" encoding="utf-8"?>
<svg version="1.1" id="Layer_1" xmlns="http://www.w3.org/2000/svg" xmlns:xlink="http://www.w3.org/1999/xlink" x="0px" y="0px" viewBox="0 0 28 28"
	 enable-background="new 0 0 28 28" xml:space="preserve">

		<g>
			<defs>
				<rect id="SVGID_1_" width="28" height="28"/>
			</defs>
			<clipPath id="SVGID_2_">
				<use xlink:href="#SVGID_1_"  overflow="visible"/>
			</clipPath>
			<path clip-path="url(#SVGID_2_)" fill="#231F20" d="M19.5,3l-1.546,1.455C17.972,4.304,18,4.156,18,4c0-2.209-1.791-4-4-4
				s-4,1.791-4,4c0,0.201,0.031,0.394,0.059,0.587C9.456,4.222,8.756,4,8,4C5.791,4,4,5.791,4,8c0,0.756,0.222,1.456,0.587,2.059
				C4.394,10.031,4.201,10,4,10c-2.209,0-4,1.791-4,4s1.791,4,4,4c0.695,0,1.339-0.193,1.908-0.505
				c1.352,0.839,3.049,2.244,3.763,4.296C10.289,23.565,10.09,25.738,9,28h11.102c-1.088-2.101-1.392-4.118-0.778-5.767
				c0.785-2.107,2.789-3.489,4.192-4.233h2.485v-7H28L19.5,3z M11,18c-0.669-1.003-1.223-1.666-1.668-2.11
				c0.644-0.158,1.219-0.487,1.668-0.946V18z M16.959,20v-2h1.936C18.181,18.537,17.496,19.194,16.959,20 M19,14h-2v-2h2V14z M19,11
				h-2V9h2V11z M22,14h-2v-2h2V14z M22,11h-2V9h2V11z"/>
		</g>

</svg>
