<?xml version="1.0" encoding="utf-8"?>
<svg version="1.1" id="Layer_1" xmlns="http://www.w3.org/2000/svg" xmlns:xlink="http://www.w3.org/1999/xlink" x="0px" y="0px"
	 viewBox="0 0 28 28" enable-background="new 0 0 28 28" xml:space="preserve">
<g>
	<defs>
		<rect id="SVGID_1_" width="28" height="28"/>
	</defs>
	<clipPath id="SVGID_2_">
		<use xlink:href="#SVGID_1_"  overflow="visible"/>
	</clipPath>
	<path clip-path="url(#SVGID_2_)" d="M5,26.198C5,27.399,6,27.999,7,28c1,0,2-0.601,2-1.802V24H5V26.198z M19,26.198
		c0,1.201,1,1.801,2,1.802c1,0,2-0.601,2-1.802V24h-4V26.198z M18.001,3h-8C5.001,3,3,4.998,3,8.998V23h22V8.998
		C25,4.999,23.001,3,18.001,3 M6,8.999C6,7,7,6,10.001,6H18c3,0,4,1,4,2.998V14H6V8.999z M7,20c-1.104,0-2-0.896-2-2s0.896-2,2-2
		s2,0.896,2,2S8.104,20,7,20 M21,20c-1.104,0-2-0.896-2-2s0.896-2,2-2c1.105,0,2,0.896,2,2S22.105,20,21,20 M0,0v21h2V8.998
		C2,4.289,4.617,2,10.001,2h8C23.384,2,26,4.289,26,8.998V21h2V0H0z"/>
</g>
</svg>
