<?xml version="1.0" encoding="utf-8"?>
<svg version="1.1" id="Layer_1" xmlns="http://www.w3.org/2000/svg" xmlns:xlink="http://www.w3.org/1999/xlink" x="0px" y="0px" viewBox="0 0 28 28"
	 enable-background="new 0 0 28 28" xml:space="preserve">

		<g>
			<defs>
				<rect id="SVGID_1_" width="28" height="28"/>
			</defs>
			<clipPath id="SVGID_2_">
				<use xlink:href="#SVGID_1_"  overflow="visible"/>
			</clipPath>
			<path clip-path="url(#SVGID_2_)" fill="#231F20" d="M0,25.001v1c0,1,1,2,2,2h24c1,0,2-1,2-2v-1H0z"/>
			<path clip-path="url(#SVGID_2_)" fill="#231F20" d="M12.429,10.341c-2.097,3.198-1.548,7.265,1.226,9.085
				c2.774,1.819,6.723,0.702,8.821-2.496c1.313-2.002,1.23-6.169,0.984-9.006l1.809-2.765c0.811,0.532,1.909,0.304,2.443-0.507
				c0.532-0.813,0.307-1.895-0.505-2.428c-0.812-0.532-1.911-0.303-2.443,0.508c0.532-0.811,0.304-1.91-0.508-2.443
				c-0.812-0.532-1.894-0.307-2.427,0.504c-0.532,0.813-0.304,1.911,0.508,2.444l-1.63,2.478
				C18.004,6.592,13.812,8.232,12.429,10.341"/>
			<path clip-path="url(#SVGID_2_)" fill="#231F20" d="M4,24.001h20c3,0,3-3,3-3c0-2.86-0.935-5.496-2.5-7.643
				c-0.175,1.783-0.566,3.172-1.188,4.12c-1.546,2.357-4.106,3.821-6.682,3.821c-1.271,0-2.489-0.359-3.523-1.037
				c-1.588-1.041-2.612-2.72-2.883-4.728c-0.264-1.954,0.223-3.993,1.369-5.741c0.414-0.632,1.033-1.218,1.774-1.76
				C6.484,8.365,1,14.035,1,21.001C1,21.001,1,24.001,4,24.001"/>
		</g>

</svg>
