<?xml version="1.0" encoding="utf-8"?>
<svg version="1.1" id="Layer_1" xmlns="http://www.w3.org/2000/svg" xmlns:xlink="http://www.w3.org/1999/xlink" x="0px" y="0px" viewBox="0 0 28 28"
	 enable-background="new 0 0 28 28" xml:space="preserve">

		<g>
			<defs>
				<rect id="SVGID_1_" width="28" height="28"/>
			</defs>
			<clipPath id="SVGID_2_">
				<use xlink:href="#SVGID_1_"  overflow="visible"/>
			</clipPath>
			<path clip-path="url(#SVGID_2_)" fill="#231F20" d="M9.985,14.763l0.635-1.71l0.634-1.71L9.172,9.261
				c-1.381,1.52-2.24,3.364-2.42,5.247c-0.047,0.499-0.046,0.986,0.002,1.454L9.985,14.763z"/>
			<polygon clip-path="url(#SVGID_2_)" fill="#231F20" points="12.224,11.605 11.589,13.315 10.955,15.025 12.976,17.046 
				14.686,16.412 16.396,15.778 17.665,12.358 16.166,10.859 15.643,10.337 			"/>
			<path clip-path="url(#SVGID_2_)" fill="#231F20" d="M12.269,17.753l-2.022-2.021l-3.303,1.227
				c0.265,1.002,0.759,1.898,1.479,2.618c0.712,0.712,1.621,1.191,2.628,1.459L12.269,17.753z"/>
			<path clip-path="url(#SVGID_2_)" fill="#231F20" d="M16.351,9.629l0.586,0.586l1.436,1.435l3.303-1.226
				c-0.265-1.003-0.759-1.899-1.479-2.619c-0.712-0.712-1.612-1.213-2.62-1.481L16.351,9.629z"/>
			<path clip-path="url(#SVGID_2_)" fill="#231F20" d="M11.962,10.636l3.419-1.268l1.198-3.227
				c-0.241-0.025-0.484-0.042-0.732-0.042c-2.1,0-4.245,0.896-5.966,2.456L11.962,10.636z"/>
			<path clip-path="url(#SVGID_2_)" fill="#231F20" d="M16.658,16.746l-1.71,0.634l-1.709,0.634l-1.189,3.204
				c0.24,0.025,0.475,0.065,0.723,0.065c2.1,0,4.245-0.896,5.966-2.456L16.658,16.746z"/>
			<path clip-path="url(#SVGID_2_)" fill="#231F20" d="M26,12h-1.705c0.022-1.017-0.108-2.01-0.407-2.938l2.587-2.587
				c1.367-1.367,1.367-3.583,0-4.95c-1.367-1.367-3.583-1.367-4.95,0l-2.587,2.587C18.01,3.813,17.017,3.683,16,3.705V2
				c0-1.1-0.9-2-2-2s-2,0.9-2,2v2.588c-1.443,0.609-2.834,1.518-4.055,2.739C6.55,8.722,5.556,10.336,4.962,12H2c-1.1,0-2,0.9-2,2
				s0.9,2,2,2h2.333c0.066,1.532,0.503,2.984,1.323,4.224l-1.01,2.422c-0.052,0.129-0.057,0.278,0,0.416
				c0.115,0.276,0.432,0.406,0.708,0.292l2.422-1.01c1.24,0.82,2.692,1.257,4.224,1.323V26c0,1.1,0.9,2,2,2s2-0.9,2-2v-2.962
				c1.664-0.594,3.278-1.588,4.673-2.983c1.221-1.221,2.13-2.612,2.739-4.055H26c1.1,0,2-0.9,2-2S27.1,12,26,12 M25,4
				c0.552,0,1,0.448,1,1c0,0.552-0.448,1-1,1s-1-0.448-1-1C24,4.448,24.448,4,25,4 M22.862,12.969
				c-0.216,2.267-1.299,4.478-3.048,6.227c-1.961,1.962-4.528,3.087-7.042,3.087c-1.972,0-3.768-0.71-5.057-1.999
				c-1.483-1.483-2.179-3.568-1.959-5.871c0.217-2.267,1.299-4.478,3.048-6.227c1.961-1.962,4.528-3.087,7.042-3.087
				c1.972,0,3.768,0.71,5.057,1.999C22.386,8.581,23.082,10.666,22.862,12.969 M23,4c-0.552,0-1-0.448-1-1s0.448-1,1-1
				c0.552,0,1,0.448,1,1S23.552,4,23,4"/>
			<path clip-path="url(#SVGID_2_)" fill="#231F20" d="M18.634,12.619l-1.269,3.42l2.082,2.083c1.381-1.521,2.24-3.365,2.42-5.248
				c0.047-0.499,0.046-0.985-0.002-1.454L18.634,12.619z"/>
		</g>

</svg>
