<?xml version="1.0" encoding="utf-8"?>
<svg version="1.1" id="Layer_1" xmlns="http://www.w3.org/2000/svg" xmlns:xlink="http://www.w3.org/1999/xlink" x="0px" y="0px" viewBox="0 0 28 28"
	 enable-background="new 0 0 28 28" xml:space="preserve">

	<g>
		<polygon fill="#231F20" points="21,23 16.001,28 28,28 28,20.043 21,17.001 		"/>
		<g>
			<defs>
				<rect id="SVGID_1_" width="28" height="28"/>
			</defs>
			<clipPath id="SVGID_2_">
				<use xlink:href="#SVGID_1_"  overflow="visible"/>
			</clipPath>
			<path clip-path="url(#SVGID_2_)" fill="#231F20" d="M15,24.5c0-0.553-0.447-1-1-1c-0.553,0-1,0.447-1,1s0.447,1,1,1
				C14.553,25.5,15,25.053,15,24.5"/>
			<polygon clip-path="url(#SVGID_2_)" fill="#231F20" points="7,23 7,17 0,20 0,28 12,28 			"/>
			<path clip-path="url(#SVGID_2_)" fill="#231F20" d="M9.35,22.609L14,20.731l4.651,1.878C19.393,22.896,20,22.59,20,21.93v-4.8
				c0-0.659-0.607-0.965-1.349-0.678L14,18.332l-4.65-1.88C8.61,16.165,8,16.471,8,17.13v4.8C8,22.59,8.61,22.896,9.35,22.609"/>
			<path clip-path="url(#SVGID_2_)" fill="#231F20" d="M14,16c1,0,6-1.857,6-6V6c0-3.313-2.686-6-6-6c-3.313,0-6,2.687-6,6v4
				C8,14.143,13,16,14,16"/>
		</g>
	</g>

</svg>
