<?xml version="1.0" encoding="utf-8"?>
<svg version="1.1" id="Layer_1" xmlns="http://www.w3.org/2000/svg" xmlns:xlink="http://www.w3.org/1999/xlink" x="0px" y="0px"
	 viewBox="0 0 28 28" enable-background="new 0 0 28 28" xml:space="preserve">
<g>
	<defs>
		<rect id="SVGID_1_" width="28" height="28"/>
	</defs>
	<clipPath id="SVGID_2_">
		<use xlink:href="#SVGID_1_"  overflow="visible"/>
	</clipPath>
	<path clip-path="url(#SVGID_2_)" d="M3.001,11.002h-3v4h3V11.002z M25.001,15.002h3v-4h-3V15.002z M18.001,0.002v5h5L18.001,0.002z
		 M24.001,11.002h-1v-5h-6v-6h-12v11h-1v4h20V11.002z M8.001,2.002h7v1h-7V2.002z M8.001,5.002h7v1h-7V5.002z M20.001,9.002h-12v-1
		h12V9.002z M17.001,16.002c0,1-1,1-3,1s-3,0-3-1H2.503l-2.502,7c0,3,2,5,5,5h18c3,0,5-2,5-5l-2.5-7H17.001z M3.001,20.003
		c0-0.554,0.894-1.001,2.002-1.001c1.104,0,1.998,0.447,1.998,1.001c0,0.552-0.894,0.999-1.998,0.999
		C3.895,21.002,3.001,20.555,3.001,20.003 M8.003,24.002c-1.107,0-2.002-0.447-2.002-0.999c0-0.554,0.895-1.001,2.002-1.001
		c1.104,0,1.998,0.447,1.998,1.001C10.001,23.555,9.107,24.002,8.003,24.002 M9.001,20.003c0-0.554,0.895-1.001,2.002-1.001
		c1.104,0,1.998,0.447,1.998,1.001c0,0.552-0.894,0.999-1.998,0.999C9.896,21.002,9.001,20.555,9.001,20.003 M14.003,24.002
		c-1.107,0-2.002-0.447-2.002-0.999c0-0.554,0.895-1.001,2.002-1.001c1.104,0,1.998,0.447,1.998,1.001
		C16.001,23.555,15.107,24.002,14.003,24.002 M15.001,20.003c0-0.554,0.895-1.001,2.002-1.001c1.104,0,1.998,0.447,1.998,1.001
		c0,0.552-0.894,0.999-1.998,0.999C15.896,21.002,15.001,20.555,15.001,20.003 M20.003,24.002c-1.107,0-2.002-0.447-2.002-0.999
		c0-0.554,0.895-1.001,2.002-1.001c1.104,0,1.998,0.447,1.998,1.001C22.001,23.555,21.107,24.002,20.003,24.002 M23.003,21.002
		c-1.107,0-2.002-0.447-2.002-0.999c0-0.554,0.895-1.001,2.002-1.001c1.104,0,1.998,0.447,1.998,1.001
		C25.001,20.555,24.107,21.002,23.003,21.002"/>
</g>
</svg>
