<?xml version="1.0" encoding="utf-8"?>
<svg version="1.1" id="Layer_1" xmlns="http://www.w3.org/2000/svg" xmlns:xlink="http://www.w3.org/1999/xlink" x="0px" y="0px"
	 viewBox="0 0 28 28" enable-background="new 0 0 28 28" xml:space="preserve">
<g>
	<defs>
		<rect id="SVGID_1_" width="28" height="28"/>
	</defs>
	<clipPath id="SVGID_2_">
		<use xlink:href="#SVGID_1_"  overflow="visible"/>
	</clipPath>
	<path clip-path="url(#SVGID_2_)" d="M28,18.881c0-2.338-1-4.293-3-5.725v-2.017C25,4.988,20.152,0,14,0C7.85,0,3,4.988,3,11.139
		v2.016c-2,1.432-3,3.388-3,5.726V23h5.992l-1.234,2.441C3.371,25.683,2.33,27,2.33,28h6.164c0-1-0.619-1.848-1.535-2.279L8.342,23
		h11.281l1.385,2.721C20.092,26.152,19.473,27,19.473,28h6.164c0-1-1.043-2.317-2.428-2.559L21.975,23H28V18.881z M5,20
		C3.894,20,3,19.104,3,18C3,16.896,3.894,16,5,16C6.103,16,7,16.896,7,18C7,19.104,6.103,20,5,20 M11,20C9.894,20,9,19.104,9,18
		C9,16.896,9.894,16,11,16c1.103,0,2,0.895,2,1.999C13,19.104,12.103,20,11,20 M17,20c-1.106,0-2-0.896-2-2.001
		C15,16.896,15.894,16,17,16c1.103,0,2,0.895,2,1.999C19,19.104,18.103,20,17,20 M5,13v-1.861c0-5,4-9.067,9-9.067s9,4.067,9,9.067
		V13H5z M23,20c-1.106,0-2-0.896-2-2.001C21,16.896,21.894,16,23,16c1.103,0,2,0.895,2,1.999C25,19.104,24.103,20,23,20"/>
</g>
</svg>
