<?xml version="1.0" encoding="utf-8"?>
<svg version="1.1" id="Layer_1" xmlns="http://www.w3.org/2000/svg" xmlns:xlink="http://www.w3.org/1999/xlink" x="0px" y="0px"
	 viewBox="0 0 28 28" enable-background="new 0 0 28 28" xml:space="preserve">
<g>
	<defs>
		<rect id="SVGID_1_" width="28" height="28"/>
	</defs>
	<clipPath id="SVGID_2_">
		<use xlink:href="#SVGID_1_"  overflow="visible"/>
	</clipPath>
	<path clip-path="url(#SVGID_2_)" d="M13.999,0C14.571,0,15,0.463,15,1.035V3c7,0.547,13,5,13,13c0,0.583-0.473,1-1.056,1h-0.009
		c-0.584,0-1.057-0.57-1.057-1.152c0-0.608-0.494-1.198-1.101-1.198c-0.606,0-1.1,0.495-1.1,1.102c0,0.583-0.473,1.058-1.056,1.058
		c-0.583,0-1.057-0.467-1.057-1.05c0-0.607-0.493-1.089-1.1-1.089s-1.1,0.515-1.1,1.122c0,0.583-0.472,1.1-1.056,1.1
		c-0.583,0-1.055-0.385-1.055-0.968c0-0.608-0.494-0.925-1.102-0.925h-4.312c-0.608,0-1.102,0.317-1.102,0.925
		c0,0.583-0.472,0.88-1.054,0.88c-0.584,0-1.057-0.473-1.057-1.056c0-0.607-0.493-1.1-1.101-1.1c-0.606,0-1.1,0.493-1.1,1.1
		c0,0.583-0.473,1.056-1.056,1.056c-0.583,0-1.057-0.473-1.057-1.056c0-0.607-0.493-1.1-1.099-1.1c-0.608,0-1.101,0.493-1.101,1.1
		c0,0.583-0.472,1.056-1.056,1.056C0.473,16.805,0,16.583,0,16C0,8,6,3.513,13,3V1.035C13,0.463,13.429,0,13.999,0 M15,16v6.823
		c0,3-1.87,5.177-4.495,5.177S6.01,25.823,6.01,22.823C6.01,22.252,6.429,22,7,22c0.572,0,1.081,0.252,1.081,0.823
		c0,1.858,0.988,3.107,2.459,3.107S13,24.681,13,22.823V16H15"/>
</g>
</svg>
