<?xml version="1.0" encoding="utf-8"?>
<svg version="1.1" id="Layer_1" xmlns="http://www.w3.org/2000/svg" xmlns:xlink="http://www.w3.org/1999/xlink" x="0px" y="0px" viewBox="0 0 28 28"
	 enable-background="new 0 0 28 28" xml:space="preserve">

	<g>
		<rect y="1.999" fill="#231F20" width="28" height="4.001"/>
		<g>
			<defs>
				<rect id="SVGID_1_" width="28" height="28"/>
			</defs>
			<clipPath id="SVGID_2_">
				<use xlink:href="#SVGID_1_"  overflow="visible"/>
			</clipPath>
			<path clip-path="url(#SVGID_2_)" fill="#231F20" d="M11.651,13.803c-0.146-0.502-0.588-0.911-1.313-1.215l-2.293-1.02
				l-1.167,8.171c0.364,0.5,0.687,1.027,0.967,1.578l3.403-5.712C11.273,15.565,11.898,14.651,11.651,13.803"/>
			<path clip-path="url(#SVGID_2_)" fill="#231F20" d="M0,7v8.212c2.312,0.477,4.424,1.754,6.024,3.496L7.697,7H0z"/>
			<path clip-path="url(#SVGID_2_)" fill="#231F20" d="M22.59,18.086c1.511-1.421,3.383-2.457,5.41-2.874V7h-7.786L22.59,18.086z"/>
			<path clip-path="url(#SVGID_2_)" fill="#231F20" d="M8.697,7l-0.512,3.586l0.019-0.043l2.53,1.127
				c1.01,0.424,1.646,1.051,1.879,1.861c0.378,1.311-0.49,2.565-0.527,2.617L8.338,22.44C8.761,23.571,9,24.771,9,26h10
				c0-2.623,1.069-5.118,2.771-7.068L19.215,7H8.697z"/>
		</g>
	</g>

</svg>
