<?xml version="1.0" encoding="utf-8"?>
<svg version="1.1" id="Layer_1" xmlns="http://www.w3.org/2000/svg" xmlns:xlink="http://www.w3.org/1999/xlink" x="0px" y="0px" viewBox="0 0 28 28"
	 enable-background="new 0 0 28 28" xml:space="preserve">

	<g>
		<polygon fill="#231F20" points="18.982,6.334 18.982,3.463 15.237,5.004 15.223,5.059 17.673,7.139 		"/>
		<polygon fill="#231F20" points="21.988,2.225 20,3.043 20,5.707 21.988,4.485 		"/>
		<polygon fill="#231F20" points="23,1.81 23,3.863 24.993,2.634 24.993,0.988 		"/>
		<g>
			<defs>
				<rect id="SVGID_1_" width="28" height="28"/>
			</defs>
			<clipPath id="SVGID_2_">
				<use xlink:href="#SVGID_1_"  overflow="visible"/>
			</clipPath>
			<path clip-path="url(#SVGID_2_)" fill="#231F20" d="M27.963,0.312c-0.107-0.257-0.4-0.379-0.656-0.274L26,0.575v1.441
				l1.762-1.084C27.967,0.805,28.058,0.542,27.963,0.312"/>
			<path clip-path="url(#SVGID_2_)" fill="#231F20" d="M20.937,11.274l-6.834-5.796l0.713-2.92c-2.709-0.662-5.38,0.424-6.584,2.485
				C8.22,5.049,8.207,5.055,8.193,5.06C4.026,6.288,0,10.321,0,18c0,6.012,2,10,2,10h16c1.88-3.209-0.623-6.347-3.016-8.767
				c-0.03-0.027-1.589-1.744-1.29-3.541l2.462,0.602c0.468,0.752,1.215,1.329,2.142,1.556c1.882,0.46,3.779-0.692,4.239-2.575
				C23.132,12.843,20.937,11.274,20.937,11.274 M11,10c0-0.827,0.639-1.902,1.465-1.902C13.292,8.098,14,9.173,14,10H11z"/>
		</g>
	</g>

</svg>
