<?xml version="1.0" encoding="utf-8"?>
<svg version="1.1" id="Layer_1" xmlns="http://www.w3.org/2000/svg" xmlns:xlink="http://www.w3.org/1999/xlink" x="0px" y="0px"
	 viewBox="0 0 28 28" enable-background="new 0 0 28 28" xml:space="preserve">
<polygon points="18.1,0 16.223,1.876 16.929,2.585 25.414,11.07 26.071,11.728 26.122,11.778 28,9.9 28,9.412 18.586,0 "/>
<g>
	<defs>
		<rect id="SVGID_1_" width="28" height="28"/>
	</defs>
	<clipPath id="SVGID_2_">
		<use xlink:href="#SVGID_1_"  overflow="visible"/>
	</clipPath>
	<path clip-path="url(#SVGID_2_)" d="M24.707,11.777l-1.414-1.414l-1.414,1.414L19.9,13.756L8.587,13.757l7.636-7.638l1.413-1.413
		l-1.414-1.414L1.513,18.003c-2.342,2.34-2.342,6.141,0.001,8.482c1.172,1.171,2.709,1.758,4.243,1.758
		c1.535,0,3.07-0.586,4.242-1.757L24.707,11.777z M8.245,17.756c0.552,0,0.999,0.448,0.999,0.999
		c0.001,0.552-0.448,1.001-0.999,1.001c-0.553-0.001-1.001-0.449-1.001-1.001C7.244,18.204,7.692,17.756,8.245,17.756 M5.744,23.756
		c-0.83,0-1.502-0.672-1.501-1.499c-0.001-0.83,0.671-1.502,1.501-1.502c0.829,0,1.501,0.672,1.5,1.502
		C7.245,23.084,6.573,23.756,5.744,23.756"/>
</g>
</svg>
