<?xml version="1.0" encoding="utf-8"?>
<svg version="1.1" id="Layer_1" xmlns="http://www.w3.org/2000/svg" xmlns:xlink="http://www.w3.org/1999/xlink" x="0px" y="0px" viewBox="0 0 28 28"
	 enable-background="new 0 0 28 28" xml:space="preserve">

		<g>
			<defs>
				<rect id="SVGID_1_" width="28" height="28"/>
			</defs>
			<clipPath id="SVGID_2_">
				<use xlink:href="#SVGID_1_"  overflow="visible"/>
			</clipPath>
			<path clip-path="url(#SVGID_2_)" fill="#231F20" d="M5,24c-0.522,0-1.036-0.091-1.531-0.246L4,28h19l0.531-4.246
				C23.036,23.909,22.521,24,22,24H5z"/>
			<path clip-path="url(#SVGID_2_)" fill="#231F20" d="M28,7c0-1.105-0.896-2-2-2c-1.105,0-2,0.895-2,2v3h-4c-2,0-3.5,1-6.5,1
				S9,10,7,10H1v2.383C0.385,13.086,0,13.994,0,15v1c0,0.877,0.193,2.069,0.471,2.899l0.366,1.1C1.419,21.739,3.169,23,5,23h17
				c1.833,0,3.583-1.262,4.162-3l0.368-1.105C26.807,18.066,27,16.875,27,16v-1c0-1.006-0.386-1.914-1-2.617V9
				C27.104,9,28,8.104,28,7 M24,16c0,1-0.684,3.052-0.684,3.052C23.143,19.573,22.55,20,22,20H5c-0.55,0-1.143-0.427-1.316-0.948
				C3.684,19.052,3,17,3,16v-1c0-0.55,0.45-1,1-1h19c0.55,0,1,0.45,1,1V16z"/>
			<path clip-path="url(#SVGID_2_)" fill="#231F20" d="M6.5,8c0.785,0,1.459,0.457,1.786,1.116c0.518,0.087,1.02,0.209,1.536,0.339
				C10.879,9.723,11.973,10,13.5,10c1.528,0,2.621-0.277,3.679-0.545c0.516-0.13,1.018-0.252,1.535-0.339
				C19.041,8.457,19.715,8,20.5,8c0.739,0,1.376,0.405,1.723,1H23V6.903C21.696,2.898,17.941,0,13.5,0C8.315,0,4.053,3.947,3.551,9
				h1.227C5.124,8.405,5.762,8,6.5,8 M17.035,3.636c0.782-0.78,2.048-0.78,2.83,0c0.78,0.781,0.78,2.048,0,2.829
				c-0.782,0.78-2.048,0.78-2.83,0C16.255,5.684,16.255,4.417,17.035,3.636 M13.5,1c1.105,0,2,0.896,2,2c0,1.105-0.895,2-2,2
				c-1.104,0-2-0.895-2-2C11.5,1.896,12.396,1,13.5,1 M7.136,3.636c0.781-0.78,2.048-0.78,2.829,0c0.78,0.781,0.78,2.048,0,2.829
				c-0.781,0.78-2.048,0.78-2.829,0C6.356,5.684,6.356,4.417,7.136,3.636"/>
		</g>

</svg>
