<?xml version="1.0" encoding="utf-8"?>
<svg version="1.1" id="Layer_1" xmlns="http://www.w3.org/2000/svg" xmlns:xlink="http://www.w3.org/1999/xlink" x="0px" y="0px"
	 viewBox="0 0 28 28" enable-background="new 0 0 28 28" xml:space="preserve">
<g>
	<defs>
		<rect id="SVGID_1_" width="28" height="28"/>
	</defs>
	<clipPath id="SVGID_2_">
		<use xlink:href="#SVGID_1_"  overflow="visible"/>
	</clipPath>
	<path clip-path="url(#SVGID_2_)" d="M25.893,2.107c-2.812-2.81-7.385-2.81-10.195,0c-2.811,2.811-2.811,7.385,0,10.196
		c1.047,1.047,2.342,1.703,3.693,1.97l-5.121,5.123c-0.267-1.355-0.924-2.648-1.969-3.695c-2.812-2.81-7.384-2.81-10.195,0
		c-2.808,2.812-2.808,7.384,0,10.196c2.727,2.725,7.104,2.799,9.93,0.238l0.014,0.013l13.843-13.845
		C28.702,9.492,28.702,4.918,25.893,2.107 M8.854,22.45c-0.91,0.91-2.39,0.91-3.303,0c-0.91-0.911-0.91-2.391,0-3.302
		c0.913-0.911,2.393-0.911,3.303,0S9.764,21.539,8.854,22.45 M22.446,8.856c-0.912,0.91-2.391,0.91-3.303,0
		c-0.91-0.911-0.91-2.391,0-3.303c0.912-0.91,2.391-0.91,3.303,0C23.356,6.465,23.356,7.945,22.446,8.856"/>
</g>
</svg>
