<?xml version="1.0" encoding="utf-8"?>
<svg version="1.1" id="Layer_1" xmlns="http://www.w3.org/2000/svg" xmlns:xlink="http://www.w3.org/1999/xlink" x="0px" y="0px" viewBox="0 0 28 28"
	 enable-background="new 0 0 28 28" xml:space="preserve">

		<g>
			<defs>
				<rect id="SVGID_1_" width="28" height="28"/>
			</defs>
			<clipPath id="SVGID_2_">
				<use xlink:href="#SVGID_1_"  overflow="visible"/>
			</clipPath>
			<path clip-path="url(#SVGID_2_)" fill="#231F20" d="M0,28h10h8h10V15H0V28z M2,17h24v9h-8.555
				c-0.267-0.46-0.619-0.858-1.041-1.179L22.3,20.4c0.221-0.166,0.266-0.479,0.1-0.7s-0.479-0.266-0.7-0.1l-6.244,4.683
				C15.004,24.105,14.516,24,14,24c-1.477,0-2.752,0.81-3.445,2H2V17z"/>
			<path clip-path="url(#SVGID_2_)" fill="#231F20" d="M0,0v13h10h8h10V0H0z M26,11h-8.555C16.752,9.81,15.477,9,14,9
				c-0.516,0-1.004,0.105-1.456,0.283L6.3,4.6C6.08,4.434,5.766,4.479,5.6,4.7S5.479,5.234,5.7,5.4l5.896,4.421
				c-0.422,0.321-0.774,0.719-1.041,1.179H2V2h24V11z"/>
			<path clip-path="url(#SVGID_2_)" fill="#231F20" d="M14,19.276c1.768,0,3.424,0.438,4.893,1.179l1.148-0.862
				c-0.444-0.252-0.9-0.486-1.379-0.682C17.186,18.306,15.617,18,14,18s-3.186,0.306-4.662,0.911
				c-1.426,0.584-2.707,1.42-3.807,2.485C4.453,22.439,3.602,23.652,3,25h1.457C6.206,21.61,9.826,19.276,14,19.276"/>
			<path clip-path="url(#SVGID_2_)" fill="#231F20" d="M23.543,25H25c-0.588-1.316-1.418-2.503-2.461-3.529l-1.069,0.802
				C22.301,23.068,23.016,23.977,23.543,25"/>
			<path clip-path="url(#SVGID_2_)" fill="#231F20" d="M14,4.276c4.174,0,7.794,2.334,9.543,5.724H25
				c-0.602-1.348-1.453-2.561-2.531-3.604c-1.1-1.065-2.381-1.901-3.807-2.485C17.186,3.306,15.617,3,14,3s-3.186,0.306-4.662,0.911
				c-0.479,0.196-0.935,0.43-1.379,0.682l1.148,0.862C10.576,4.714,12.232,4.276,14,4.276"/>
			<path clip-path="url(#SVGID_2_)" fill="#231F20" d="M6.53,7.273L5.461,6.47C4.418,7.498,3.588,8.683,3,10h1.457
				C4.984,8.977,5.699,8.068,6.53,7.273"/>
		</g>

</svg>
