<?xml version="1.0" encoding="utf-8"?>
<svg version="1.1" id="Layer_1" xmlns="http://www.w3.org/2000/svg" xmlns:xlink="http://www.w3.org/1999/xlink" x="0px" y="0px" viewBox="0 0 28 28"
	 enable-background="new 0 0 28 28" xml:space="preserve">

	<g>
		<rect fill="#231F20" width="28" height="3"/>
		<g>
			<defs>
				<rect id="SVGID_1_" width="28" height="28"/>
			</defs>
			<clipPath id="SVGID_2_">
				<use xlink:href="#SVGID_1_"  overflow="visible"/>
			</clipPath>
			<path clip-path="url(#SVGID_2_)" fill="#231F20" d="M13.5,7H4v16h9.5V7z M10,16c-0.552,0-1-0.448-1-1s0.448-1,1-1
				c0.552,0,1,0.448,1,1S10.552,16,10,16"/>
			<path clip-path="url(#SVGID_2_)" fill="#231F20" d="M1,28h4c0-1.104,0.896-2,2-2h14c1.105,0,2,0.896,2,2h4V4H1V28z M3,6h22v18H3
				V6z"/>
			<path clip-path="url(#SVGID_2_)" fill="#231F20" d="M24,7h-9.5v16H24V7z M18,16c-0.552,0-1-0.448-1-1s0.448-1,1-1
				c0.552,0,1,0.448,1,1S18.552,16,18,16"/>
		</g>
	</g>

</svg>
