<?xml version="1.0" encoding="utf-8"?>
<svg version="1.1" id="Layer_1" xmlns="http://www.w3.org/2000/svg" xmlns:xlink="http://www.w3.org/1999/xlink" x="0px" y="0px"
	 viewBox="0 0 28 28" enable-background="new 0 0 28 28" xml:space="preserve">
<g>
	<defs>
		<rect id="SVGID_1_" width="28" height="28"/>
	</defs>
	<clipPath id="SVGID_2_">
		<use xlink:href="#SVGID_1_"  overflow="visible"/>
	</clipPath>
	<path clip-path="url(#SVGID_2_)" d="M11,24.75c3.723,0,6.75-2.874,6.75-6.407c0-0.43-0.141-1.204-0.145-1.177
		c-0.812-0.085-1.523-0.497-1.968-1.094c-0.502,0.671-1.336,1.113-2.278,1.113c-0.941,0-1.775-0.442-2.279-1.113
		c-0.5,0.671-1.332,1.113-2.275,1.113c-0.942,0-1.776-0.442-2.276-1.113c-0.476,0.636-1.252,1.06-2.133,1.103
		c-0.005-0.03-0.146,0.737-0.146,1.168C4.25,21.876,7.277,24.75,11,24.75 M23,7h5V0h-5V7z M0,7h22V0H0V7z M8.502,2
		C9.328,2,10,2.673,10,3.5C10,4.329,9.328,5,8.502,5C7.674,5,7,4.329,7,3.5C7,2.673,7.674,2,8.502,2 M4.502,2C5.33,2,6,2.673,6,3.5
		C6,4.329,5.33,5,4.502,5C3.672,5,3,4.329,3,3.5C3,2.673,3.672,2,4.502,2 M0,28h22V8H0V28z M11,10c4.42,0,8,3.581,8,8s-3.58,8-8,8
		c-4.418,0-8-3.581-8-8S6.582,10,11,10 M23,28h5V8h-5V28z"/>
</g>
</svg>
