<?xml version="1.0" encoding="utf-8"?>
<svg version="1.1" id="Layer_1" xmlns="http://www.w3.org/2000/svg" xmlns:xlink="http://www.w3.org/1999/xlink" x="0px" y="0px" viewBox="0 0 28 28"
	 enable-background="new 0 0 28 28" xml:space="preserve">

		<g>
			<defs>
				<rect id="SVGID_1_" width="28" height="28"/>
			</defs>
			<clipPath id="SVGID_2_">
				<use xlink:href="#SVGID_1_"  overflow="visible"/>
			</clipPath>
			<path clip-path="url(#SVGID_2_)" fill="#231F20" d="M21.488,0l-3.295,3.295c1.458,0.57,2.799,1.434,3.938,2.573
				c1.14,1.14,2.003,2.481,2.574,3.939L28,6.512L21.488,0z"/>
			<path clip-path="url(#SVGID_2_)" fill="#231F20" d="M3.295,18.193L0,21.488L6.512,28l3.295-3.295
				c-1.458-0.571-2.799-1.434-3.939-2.574C4.729,20.992,3.865,19.651,3.295,18.193"/>
			<path clip-path="url(#SVGID_2_)" fill="#231F20" d="M14,3.5c-2.687,0-5.375,1.026-7.425,3.075c-4.1,4.101-4.1,10.75,0,14.85
				C8.625,23.475,11.313,24.5,14,24.5c2.688,0,5.375-1.025,7.425-3.075c4.101-4.1,4.101-10.749,0-14.85
				C19.375,4.526,16.688,3.5,14,3.5 M20.011,20.011C18.406,21.616,16.271,22.5,14,22.5c-2.27,0-4.405-0.884-6.01-2.489
				C6.384,18.406,5.5,16.271,5.5,14c0-2.27,0.884-4.405,2.49-6.01C9.595,6.384,11.73,5.5,14,5.5c2.271,0,4.406,0.884,6.011,2.49
				C21.616,9.595,22.5,11.73,22.5,14C22.5,16.271,21.616,18.406,20.011,20.011"/>
			<path clip-path="url(#SVGID_2_)" fill="#231F20" d="M17.535,9.052l-2.623,2.623c-0.586-0.23-1.238-0.23-1.824,0l-2.623-2.623
				c-0.391-0.391-1.024-0.391-1.415,0c-0.391,0.391-0.39,1.024,0,1.414l2.624,2.624c-0.351,0.896-0.166,1.953,0.558,2.678
				c0.978,0.977,2.559,0.976,3.535,0c0.724-0.724,0.91-1.78,0.559-2.678l2.624-2.624c0.39-0.39,0.391-1.023,0-1.414
				C18.558,8.661,17.926,8.661,17.535,9.052"/>
		</g>

</svg>
