<?xml version="1.0" encoding="utf-8"?>
<svg version="1.1" id="Layer_1" xmlns="http://www.w3.org/2000/svg" xmlns:xlink="http://www.w3.org/1999/xlink" x="0px" y="0px" viewBox="0 0 28 28"
	 enable-background="new 0 0 28 28" xml:space="preserve">

		<g>
			<defs>
				<rect id="SVGID_1_" width="28" height="28"/>
			</defs>
			<clipPath id="SVGID_2_">
				<use xlink:href="#SVGID_1_"  overflow="visible"/>
			</clipPath>
			<path clip-path="url(#SVGID_2_)" fill="#231F20" d="M12,13.001H1c-0.55,0-1,0.45-1,1c0,0.55,0.45,1,1,1h11c0.55,0,1-0.45,1-1
				C13,13.451,12.55,13.001,12,13.001"/>
			<path clip-path="url(#SVGID_2_)" fill="#231F20" d="M12,16.001H1c-0.55,0-1,0.45-1,1c0,0.55,0.45,1,1,1h11c0.55,0,1-0.45,1-1
				C13,16.451,12.55,16.001,12,16.001"/>
			<path clip-path="url(#SVGID_2_)" fill="#231F20" d="M12,10.001H1c-0.55,0-1,0.45-1,1c0,0.55,0.45,1,1,1h11c0.55,0,1-0.45,1-1
				C13,10.451,12.55,10.001,12,10.001"/>
			<path clip-path="url(#SVGID_2_)" fill="#231F20" d="M12,19.001H1c-0.55,0-1,0.45-1,1v6c0,1.1,0.9,2,2,2h9c1.1,0,2-0.9,2-2v-6
				C13,19.451,12.55,19.001,12,19.001"/>
			<path clip-path="url(#SVGID_2_)" fill="#231F20" d="M2,9.001h9c1.65,0,2.136-1.037,1.079-2.305L9,4.001H4L0.92,6.696
				C-0.146,7.73,0.35,9.001,2,9.001"/>
			<rect x="4" y="0.001" clip-path="url(#SVGID_2_)" fill="#231F20" width="5" height="3"/>
			<path clip-path="url(#SVGID_2_)" fill="#231F20" d="M27,13.001H16c-0.55,0-1,0.45-1,1c0,0.55,0.45,1,1,1h11c0.55,0,1-0.45,1-1
				C28,13.451,27.55,13.001,27,13.001"/>
			<path clip-path="url(#SVGID_2_)" fill="#231F20" d="M27,16.001H16c-0.55,0-1,0.45-1,1c0,0.55,0.45,1,1,1h11c0.55,0,1-0.45,1-1
				C28,16.451,27.55,16.001,27,16.001"/>
			<path clip-path="url(#SVGID_2_)" fill="#231F20" d="M16,12.001h11c0.55,0,1-0.45,1-1s-0.45-1-1-1H16c-0.55,0-1,0.45-1,1
				S15.45,12.001,16,12.001"/>
			<path clip-path="url(#SVGID_2_)" fill="#231F20" d="M27,19.001H16c-0.55,0-1,0.45-1,1v6c0,1.1,0.9,2,2,2h9c1.1,0,2-0.9,2-2v-6
				C28,19.451,27.55,19.001,27,19.001"/>
			<path clip-path="url(#SVGID_2_)" fill="#231F20" d="M17,9.001h9c1.65,0,2.136-1.037,1.079-2.305L24,4.001h-5l-3.08,2.695
				C14.854,7.73,15.35,9.001,17,9.001"/>
			<rect x="19" y="0.001" clip-path="url(#SVGID_2_)" fill="#231F20" width="5" height="3"/>
		</g>

</svg>
