<?xml version="1.0" encoding="utf-8"?>
<svg version="1.1" id="Layer_1" xmlns="http://www.w3.org/2000/svg" xmlns:xlink="http://www.w3.org/1999/xlink" x="0px" y="0px"
	 viewBox="0 0 28 28" enable-background="new 0 0 28 28" xml:space="preserve">
<g>
	<defs>
		<rect id="SVGID_1_" width="28" height="28"/>
	</defs>
	<clipPath id="SVGID_2_">
		<use xlink:href="#SVGID_1_"  overflow="visible"/>
	</clipPath>
	<path clip-path="url(#SVGID_2_)" d="M7,0h5l1.581,2H5.419L7,0z M9.5,24C4.253,24,0,19.747,0,14.5c0-4.348,2.924-8.005,6.911-9.133
		L5.317,3h8.366l-1.596,2.37c1.24,0.352,2.374,0.952,3.353,1.737c0.18,0.145,0.356,0.296,0.525,0.454
		c0.054,0.049,0.108,0.098,0.161,0.149c1.269,1.239,2.18,2.83,2.598,4.616c0.056,0.236,0.108,0.473,0.147,0.716
		c0.035,0.226,0.056,0.456,0.074,0.687C18.968,13.985,19,14.238,19,14.5c0,3.33-1.724,6.241-4.317,7.936
		c-0.723-0.7-1.254-1.591-1.507-2.596c1.57-1.082,2.632-2.832,2.788-4.84h0.011C15.987,14.835,16,14.669,16,14.5
		c0-0.354-0.034-0.698-0.09-1.036c-0.021-0.137-0.059-0.267-0.09-0.4c-0.032-0.144-0.054-0.292-0.096-0.432
		c-0.005,0.002-0.01,0.006-0.015,0.008c-0.297-0.989-0.82-1.87-1.515-2.599c0.005-0.002,0.01-0.006,0.015-0.009
		c-0.077-0.081-0.162-0.155-0.243-0.232c-0.064-0.06-0.123-0.123-0.189-0.18c-0.219-0.194-0.456-0.369-0.7-0.532
		c-0.061-0.04-0.123-0.079-0.185-0.117c-0.272-0.168-0.553-0.32-0.849-0.447c-0.007-0.003-0.014-0.004-0.02-0.007
		c-0.324-0.138-0.662-0.248-1.01-0.331C11.009,8.184,11.005,8.182,11,8.181v0.001C10.518,8.067,10.018,8,9.5,8
		C5.916,8,3,10.916,3,14.5c0,3.163,2.275,5.795,5.273,6.371c0.261,1.121,0.705,2.173,1.294,3.124C9.545,23.996,9.523,24,9.5,24
		 M18.5,28c-1.739,0-3.36-0.48-4.762-1.297c-0.247-0.144-0.492-0.291-0.724-0.455c-0.148-0.105-0.284-0.224-0.425-0.337
		c-0.167-0.133-0.335-0.265-0.492-0.409c-0.148-0.134-0.284-0.279-0.423-0.423c-0.135-0.14-0.27-0.28-0.396-0.428
		c-0.134-0.158-0.26-0.322-0.384-0.489c-0.702-0.94-1.24-2.007-1.556-3.17h0.004C9.125,20.196,9,19.364,9,18.5
		c0-3.331,1.727-6.245,4.323-7.939c0.723,0.7,1.241,1.599,1.494,2.605C13.12,14.339,12,16.286,12,18.5c0,0.17,0.024,0.333,0.037,0.5
		h-0.012c0.004,0.056,0.019,0.109,0.025,0.165c0.02,0.192,0.047,0.38,0.084,0.567c0.024,0.126,0.052,0.25,0.084,0.373
		c0.021,0.087,0.033,0.178,0.058,0.263c0.006-0.003,0.011-0.006,0.016-0.009c0.332,1.11,0.946,2.092,1.768,2.866
		c0.09,0.085,0.18,0.17,0.276,0.25c0.103,0.087,0.21,0.17,0.319,0.25c0.107,0.079,0.216,0.152,0.327,0.224
		c0.102,0.066,0.201,0.134,0.306,0.195c0.209,0.119,0.424,0.227,0.647,0.323c0.022,0.01,0.043,0.023,0.065,0.033v-0.008
		C16.771,24.816,17.613,25,18.5,25c3.584,0,6.5-2.916,6.5-6.5c0-3.169-2.283-5.803-5.289-6.374c-0.259-1.12-0.7-2.169-1.286-3.121
		C18.45,9.005,18.475,9,18.5,9c5.247,0,9.5,4.253,9.5,9.5S23.747,28,18.5,28"/>
</g>
</svg>
