<?xml version="1.0" encoding="utf-8"?>
<svg version="1.1" id="Layer_1" xmlns="http://www.w3.org/2000/svg" xmlns:xlink="http://www.w3.org/1999/xlink" x="0px" y="0px" viewBox="0 0 28 28"
	 enable-background="new 0 0 28 28" xml:space="preserve">

		<g>
			<defs>
				<rect id="SVGID_1_" width="28" height="28"/>
			</defs>
			<clipPath id="SVGID_2_">
				<use xlink:href="#SVGID_1_"  overflow="visible"/>
			</clipPath>
			<path clip-path="url(#SVGID_2_)" fill="#231F20" d="M27,26h-2v-5H3v5H1c-0.55,0-1,0.45-1,1c0,0.55,0.45,1,1,1h26
				c0.55,0,1-0.45,1-1C28,26.45,27.55,26,27,26"/>
			<path clip-path="url(#SVGID_2_)" fill="#231F20" d="M11.59,2.25c0.622,0,1.125-0.503,1.125-1.125C12.715,0.504,12.212,0,11.59,0
				c-0.62,0-1.125,0.504-1.125,1.125C10.465,1.747,10.97,2.25,11.59,2.25"/>
			<path clip-path="url(#SVGID_2_)" fill="#231F20" d="M16.411,2.25c0.622,0,1.125-0.503,1.125-1.125
				C17.536,0.504,17.033,0,16.411,0c-0.62,0-1.125,0.504-1.125,1.125C15.286,1.747,15.791,2.25,16.411,2.25"/>
			<rect x="5" y="13" clip-path="url(#SVGID_2_)" fill="#231F20" width="18" height="7"/>
			<path clip-path="url(#SVGID_2_)" fill="#231F20" d="M21,7h-3.143V6.107h0.632L18.5,4.179c0-0.915-0.943-1.608-2.095-1.608
				c-1.151,0-2.084,0.693-2.084,1.608v1.928h0.643V7h-1.928V6.107h0.631l0.012-1.928c0-0.915-0.943-1.608-2.095-1.608
				c-1.151,0-2.084,0.693-2.084,1.608v1.928h0.643V7H7v5h14V7z"/>
		</g>

</svg>
