<?xml version="1.0" encoding="utf-8"?>
<svg version="1.1" id="Layer_1" xmlns="http://www.w3.org/2000/svg" xmlns:xlink="http://www.w3.org/1999/xlink" x="0px" y="0px" viewBox="0 0 28 28"
	 enable-background="new 0 0 28 28" xml:space="preserve">

	<g>
		<polygon fill="#231F20" points="4.001,8 0,28 17.999,28 16,8 		"/>
		<polygon fill="#231F20" points="17.006,8 18.996,27.901 19.006,28 28,28 28,27.995 24,8 		"/>
		<g>
			<defs>
				<rect id="SVGID_1_" width="28" height="28"/>
			</defs>
			<clipPath id="SVGID_2_">
				<use xlink:href="#SVGID_1_"  overflow="visible"/>
			</clipPath>
			<path clip-path="url(#SVGID_2_)" fill="#231F20" d="M11.779,7C11.3,6.468,11,5.772,11,5c0-1.657,1.343-3,3-3s3,1.343,3,3
				c0,0.772-0.299,1.468-0.778,2h2.356C18.847,6.387,19,5.712,19,5c0-2.761-2.238-5-5-5c-2.761,0-5,2.239-5,5
				c0,0.712,0.154,1.387,0.422,2H11.779z"/>
		</g>
	</g>

</svg>
