<?xml version="1.0" encoding="utf-8"?>
<svg version="1.1" id="Layer_1" xmlns="http://www.w3.org/2000/svg" xmlns:xlink="http://www.w3.org/1999/xlink" x="0px" y="0px" viewBox="0 0 28 28"
	 enable-background="new 0 0 28 28" xml:space="preserve">

		<g>
			<defs>
				<rect id="SVGID_1_" width="28" height="28"/>
			</defs>
			<clipPath id="SVGID_2_">
				<use xlink:href="#SVGID_1_"  overflow="visible"/>
			</clipPath>
			<path clip-path="url(#SVGID_2_)" fill="#231F20" d="M10,3.724c0.295,0.172,0.634,0.277,1,0.277c1.105,0,2-0.895,2-2
				c0-1.104-0.895-2-2-2c-1.104,0-2,0.896-2,2v9h1V3.724z"/>
			<path clip-path="url(#SVGID_2_)" fill="#231F20" d="M27.557,12.963L23,16.001l-4.557-3.038C18.163,13.586,18,14.273,18,15.001
				c0,2.049,1.236,3.806,3,4.578v1.922c0,1.355-1.374,2.5-3,2.5h-1v-5c0-3.85-3.15-7-7-7H7c-3.85,0-7,3.15-7,7v6c0,1.65,1.35,3,3,3
				h15c3.86,0,7-2.916,7-6.5v-1.922c1.764-0.772,3-2.529,3-4.578C28,14.273,27.837,13.586,27.557,12.963 M5.5,23.001
				c-0.828,0-1.5-0.672-1.5-1.5c0-0.828,0.672-1.5,1.5-1.5s1.5,0.672,1.5,1.5C7,22.329,6.328,23.001,5.5,23.001"/>
			<path clip-path="url(#SVGID_2_)" fill="#231F20" d="M6,7.001c0.366,0,0.705-0.105,1-0.277v4.277h1v-6c0-1.105-0.895-2-2-2
				c-1.104,0-2,0.895-2,2C4,6.105,4.896,7.001,6,7.001"/>
		</g>

</svg>
