<?xml version="1.0" encoding="utf-8"?>
<svg version="1.1" id="Layer_1" xmlns="http://www.w3.org/2000/svg" xmlns:xlink="http://www.w3.org/1999/xlink" x="0px" y="0px"
	 viewBox="0 0 28 28" enable-background="new 0 0 28 28" xml:space="preserve">
<g>
	<defs>
		<rect id="SVGID_1_" width="28" height="28"/>
	</defs>
	<clipPath id="SVGID_2_">
		<use xlink:href="#SVGID_1_"  overflow="visible"/>
	</clipPath>
	<path clip-path="url(#SVGID_2_)" d="M14,0c-7.732,0-14,6.268-14,14c0,7.731,6.268,14,14,14s14-6.269,14-14C28,6.269,21.732,0,14,0
		 M14,24.189c-5.619,0-10.19-4.57-10.19-10.189S8.381,3.812,14,3.812s10.189,4.57,10.189,10.189S19.619,24.189,14,24.189
		 M21.908,12.21l-5.086,1.405c-0.049-0.352-0.158-0.685-0.322-0.985l5.113-1.413c-1.084-2.951-3.826-5.098-7.094-5.306v5.286
		c-0.169-0.03-0.341-0.05-0.519-0.05c-0.178,0-0.35,0.02-0.52,0.05V5.912c-3.267,0.208-6.011,2.355-7.093,5.306l5.113,1.414
		c-0.166,0.299-0.275,0.633-0.324,0.985L6.09,12.21c-0.131,0.576-0.207,1.174-0.207,1.79c0,2.644,1.279,4.991,3.242,6.473
		l2.818-4.503c0.241,0.251,0.526,0.456,0.842,0.607l-2.797,4.469c1.186,0.677,2.553,1.07,4.012,1.07s2.826-0.392,4.01-1.07
		l-2.797-4.469c0.318-0.151,0.603-0.356,0.844-0.607l2.818,4.503c1.963-1.482,3.24-3.829,3.24-6.473
		C22.115,13.385,22.039,12.786,21.908,12.21 M14,15.814c-1,0-1.815-0.814-1.815-1.814S13,12.186,14,12.186s1.814,0.815,1.814,1.815
		S15,15.814,14,15.814"/>
</g>
</svg>
