<?xml version="1.0" encoding="utf-8"?>
<svg version="1.1" id="Layer_1" xmlns="http://www.w3.org/2000/svg" xmlns:xlink="http://www.w3.org/1999/xlink" x="0px" y="0px"
	 viewBox="0 0 28 28" enable-background="new 0 0 28 28" xml:space="preserve">
<g>
	<defs>
		<rect id="SVGID_1_" width="28" height="28"/>
	</defs>
	<clipPath id="SVGID_2_">
		<use xlink:href="#SVGID_1_"  overflow="visible"/>
	</clipPath>
	<path clip-path="url(#SVGID_2_)" d="M15.65,5.651c0.17,0.031,0.338,0.044,0.504,0.044c1.354,0,2.555-0.97,2.803-2.347
		c0.272-1.549-0.758-3.027-2.307-3.303C16.481,0.015,16.313,0,16.147,0c-1.352,0-2.553,0.969-2.797,2.347
		C13.074,3.893,14.106,5.375,15.65,5.651 M10.5,26C6.916,26,4,23.084,4,19.5c0-2.698,1.654-5.017,4-5.998v-2.127
		c-3.473,1.068-6,4.301-6,8.125c0,4.694,3.807,8.5,8.5,8.5c4.182,0,7.65-3.022,8.361-7h-2.043C16.139,23.862,13.568,26,10.5,26
		 M22.752,15L17,14v-4c0-2-1.248-4-4.248-4c-7,0-8.125,1-8.125,1L0,10l1.5,2l4.031-2.021C8.518,9,10.51,10,10.51,10l-1.004,7
		l11.998,2l3.998,5L28,22L22.752,15z"/>
</g>
</svg>
