<?xml version="1.0" encoding="utf-8"?>
<svg version="1.1" id="Layer_1" xmlns="http://www.w3.org/2000/svg" xmlns:xlink="http://www.w3.org/1999/xlink" x="0px" y="0px" viewBox="0 0 28 28"
	 enable-background="new 0 0 28 28" xml:space="preserve">

	<g>
		<path fill="#231F20" d="M4.518,14l1.178,11h16.609l1.178-11H4.518z M11.536,21.5l-3-3l3-3l3,3L11.536,21.5z M21,21h-5v-5h5V21z"/>
		<g>
			<defs>
				<rect id="SVGID_1_" width="28" height="28"/>
			</defs>
			<clipPath id="SVGID_2_">
				<use xlink:href="#SVGID_1_"  overflow="visible"/>
			</clipPath>
			<path clip-path="url(#SVGID_2_)" fill="#231F20" d="M0.001,0l2.786,26.011C2.905,27.105,3.901,28,5.001,28h18
				c1.1,0,2.095-0.895,2.213-1.989L28.001,0H0.001z M23.225,25.798C23.217,25.875,23.078,26,23.001,26h-18
				c-0.078,0-0.217-0.125-0.225-0.202L2.226,2h23.549L23.225,25.798z"/>
		</g>
	</g>

</svg>
