<?xml version="1.0" encoding="utf-8"?>
<svg version="1.1" id="Layer_1" xmlns="http://www.w3.org/2000/svg" xmlns:xlink="http://www.w3.org/1999/xlink" x="0px" y="0px" viewBox="0 0 28 28"
	 enable-background="new 0 0 28 28" xml:space="preserve">

		<g>
			<defs>
				<rect id="SVGID_1_" width="28" height="28"/>
			</defs>
			<clipPath id="SVGID_2_">
				<use xlink:href="#SVGID_1_"  overflow="visible"/>
			</clipPath>
			<path clip-path="url(#SVGID_2_)" fill="#231F20" d="M16,0c0,7.096,3.139,12.904,8,15c-1.267,2.398-1.796,5.851-1.946,10H15v-8
				h7.16c0.158-0.546,0.327-1.066,0.52-1.532c-0.265-0.145-0.522-0.303-0.776-0.468H15V0h-2v15H6.107
				c-0.256,0.166-0.517,0.324-0.786,0.47c0.192,0.465,0.361,0.984,0.52,1.53H13v8H5.946C5.796,20.851,5.267,17.398,4,15
				c4.861-2.096,8-7.904,8-15H0v27.998V28h28V0H16z"/>
		</g>

</svg>
