<?xml version="1.0" encoding="utf-8"?>
<svg version="1.1" id="Layer_1" xmlns="http://www.w3.org/2000/svg" xmlns:xlink="http://www.w3.org/1999/xlink" x="0px" y="0px"
	 viewBox="0 0 28 28" enable-background="new 0 0 28 28" xml:space="preserve">
<g>
	<defs>
		<rect id="SVGID_1_" width="28" height="28"/>
	</defs>
	<clipPath id="SVGID_2_">
		<use xlink:href="#SVGID_1_"  overflow="visible"/>
	</clipPath>
	<path clip-path="url(#SVGID_2_)" d="M23.775,4.215L19.553,0c0,0-6.938,3.651-9.989,6.696C6.746,9.508,6.365,14.383,8.885,17.67
		l-3.46,3.451c-0.937-0.663-1.992-1.005-2.973-1.005c-0.937,0-1.808,0.311-2.452,0.955l3.473,3.465l0.733,0.732h0.002L6.947,28
		c1.318-1.316,1.246-3.585-0.053-5.414l3.469-3.461c1.47,1.094,3.243,1.631,5.008,1.631c2.193,0,4.369-0.814,5.919-2.361
		C24.341,15.354,28,8.432,28,8.432L23.775,4.215z M19.201,2.475l3.161,3.156l3.16,3.154c-0.223,0.395-0.502,0.877-0.804,1.388V10
		H9.717c0.295-0.7,0.715-1.345,1.259-1.888C13.021,6.071,17.116,3.647,19.201,2.475"/>
</g>
</svg>
