<?xml version="1.0" encoding="utf-8"?>
<svg version="1.1" id="Layer_1" xmlns="http://www.w3.org/2000/svg" xmlns:xlink="http://www.w3.org/1999/xlink" x="0px" y="0px" viewBox="0 0 28 28"
	 enable-background="new 0 0 28 28" xml:space="preserve">

		<g>
			<defs>
				<rect id="SVGID_1_" width="28" height="28"/>
			</defs>
			<clipPath id="SVGID_2_">
				<use xlink:href="#SVGID_1_"  overflow="visible"/>
			</clipPath>
			<path clip-path="url(#SVGID_2_)" fill="#231F20" d="M26,23H2c-1.1,0-2,0.9-2,2v1c0,1.1,0.9,2,2,2h24c1.1,0,2-0.9,2-2v-1
				C28,23.9,27.1,23,26,23"/>
			<path clip-path="url(#SVGID_2_)" fill="#231F20" d="M14,6c1.657,0,3-1.343,3-3c0-1.657-1.343-3-3-3s-3,1.343-3,3
				C11,4.657,12.343,6,14,6"/>
			<path clip-path="url(#SVGID_2_)" fill="#231F20" d="M10.411,15.633c0.192-0.178,0.486-0.178,0.679,0L14,18.319l2.911-2.686
				c0.192-0.178,0.486-0.178,0.679,0l2.917,2.692l3.128-2.78C22.24,11.481,19.466,7,14,7s-8.239,4.481-9.634,8.545l3.128,2.78
				L10.411,15.633z"/>
			<path clip-path="url(#SVGID_2_)" fill="#231F20" d="M23.969,16.586l-3.137,2.788c-0.192,0.17-0.482,0.169-0.671-0.007
				l-2.911-2.686l-2.91,2.686C14.243,19.456,14.122,19.5,14,19.5c-0.121,0-0.243-0.044-0.339-0.133l-2.911-2.686l-2.91,2.686
				c-0.189,0.176-0.48,0.177-0.672,0.007l-3.137-2.788C3.165,19.525,3,22,3,22h22C25,22,24.835,19.525,23.969,16.586"/>
		</g>

</svg>
