<?xml version="1.0" encoding="utf-8"?>
<svg version="1.1" id="Layer_1" xmlns="http://www.w3.org/2000/svg" xmlns:xlink="http://www.w3.org/1999/xlink" x="0px" y="0px" viewBox="0 0 28 28"
	 enable-background="new 0 0 28 28" xml:space="preserve">

		<g>
			<defs>
				<rect id="SVGID_1_" width="28" height="28"/>
			</defs>
			<clipPath id="SVGID_2_">
				<use xlink:href="#SVGID_1_"  overflow="visible"/>
			</clipPath>
			<path clip-path="url(#SVGID_2_)" fill="#231F20" d="M24,0.196l-3,6H7l-3-6l-4,17l2,1.571v3.429l3-0.75v2.75l2.965-0.742
				l5.535,4.349v-5.982L10,19.196h8l-3.5,2.625v5.982l5.534-4.349L23,24.196v-2.75l3,0.75v-3.429l2-1.571L24,0.196z M10.5,15.196
				c-0.828,0-1.5-0.672-1.5-1.5s0.672-1.5,1.5-1.5s1.5,0.672,1.5,1.5S11.328,15.196,10.5,15.196 M17.5,15.196
				c-0.828,0-1.5-0.672-1.5-1.5s0.672-1.5,1.5-1.5c0.828,0,1.5,0.672,1.5,1.5S18.328,15.196,17.5,15.196"/>
		</g>

</svg>
