<?xml version="1.0" encoding="utf-8"?>
<svg version="1.1" id="Layer_1" xmlns="http://www.w3.org/2000/svg" xmlns:xlink="http://www.w3.org/1999/xlink" x="0px" y="0px"
	 viewBox="0 0 28 28" enable-background="new 0 0 28 28" xml:space="preserve">
<g>
	<defs>
		<rect id="SVGID_1_" width="28" height="28"/>
	</defs>
	<clipPath id="SVGID_2_">
		<use xlink:href="#SVGID_1_"  overflow="visible"/>
	</clipPath>
	<path clip-path="url(#SVGID_2_)" d="M6.5,7C8.435,7,10,5.434,10,3.5C10,1.568,8.435,0,6.5,0C4.57,0,3,1.568,3,3.5
		C3,5.434,4.57,7,6.5,7 M21.5,7C23.435,7,25,5.434,25,3.5C25,1.568,23.435,0,21.5,0C19.57,0,18,1.568,18,3.5
		C18,5.434,19.57,7,21.5,7 M12,13c0-2.845-1.934-5-5.518-5C2.902,8,1,10.155,1,13l2,3l-3,8h2v4h4v-4h1v4h4v-4h2l-3-8L12,13z M25,16
		l2-3c0-2.845-1.934-5-5.518-5C17.902,8,16,10.155,16,13l2,3l-3,8h2v4h4v-4h1v4h4v-4h2L25,16z"/>
</g>
</svg>
