<?xml version="1.0" encoding="utf-8"?>
<svg version="1.1" id="Layer_1" xmlns="http://www.w3.org/2000/svg" xmlns:xlink="http://www.w3.org/1999/xlink" x="0px" y="0px" viewBox="0 0 28 28"
	 enable-background="new 0 0 28 28" xml:space="preserve">

		<g>
			<defs>
				<rect id="SVGID_1_" width="28" height="28"/>
			</defs>
			<clipPath id="SVGID_2_">
				<use xlink:href="#SVGID_1_"  overflow="visible"/>
			</clipPath>
			<path clip-path="url(#SVGID_2_)" fill="#231F20" d="M27.916,13.034l-0.869-1.966c-0.112-0.254-0.212-0.689-0.223-0.966
				l-0.081-2.144c-0.011-0.277-0.192-0.65-0.404-0.83l-1.656-1.401c-0.212-0.18-0.492-0.526-0.623-0.771l-1.017-1.898
				c-0.131-0.244-0.457-0.502-0.726-0.573l-2.113-0.56c-0.268-0.071-0.671-0.262-0.895-0.426l-1.76-1.28
				c-0.224-0.164-0.631-0.255-0.903-0.204l-2.15,0.404c-0.273,0.051-0.719,0.051-0.991,0l-2.151-0.404
				c-0.273-0.051-0.679,0.04-0.904,0.204l-1.758,1.28C8.468,1.663,8.065,1.854,7.797,1.925L5.683,2.484
				C5.415,2.555,5.088,2.813,4.957,3.057L3.94,4.955C3.809,5.2,3.529,5.546,3.317,5.726L1.661,7.128
				C1.45,7.307,1.268,7.68,1.257,7.957l-0.081,2.144c-0.011,0.278-0.111,0.712-0.223,0.966l-0.869,1.967
				c-0.112,0.254-0.112,0.669,0,0.922l0.869,1.967c0.112,0.254,0.212,0.688,0.223,0.965l0.081,2.144
				c0.011,0.278,0.193,0.651,0.404,0.83l1.656,1.402c0.212,0.179,0.492,0.526,0.623,0.77l1.017,1.898
				c0.131,0.245,0.458,0.503,0.726,0.574L6,24.59v-3.925c0-0.987,0.644-1.703,1.532-1.703c0.125,0,0.25,0.02,0.374,0.05
				c-0.154-0.26-0.407-0.581-0.609-0.757l-0.66-0.578c-0.226-0.199-0.421-0.612-0.432-0.919l-0.032-0.875
				c-0.011-0.307-0.118-0.788-0.238-1.069L5.59,14.006c-0.12-0.281-0.12-0.741,0-1.022l0.345-0.808
				c0.12-0.281,0.227-0.762,0.238-1.069l0.032-0.875c0.011-0.307,0.206-0.721,0.432-0.919l0.66-0.578
				c0.226-0.199,0.526-0.582,0.666-0.853l0.404-0.781c0.14-0.271,0.489-0.557,0.776-0.635l0.845-0.231
				c0.286-0.079,0.717-0.291,0.957-0.472l0.699-0.526c0.239-0.181,0.674-0.283,0.966-0.226l0.86,0.168
				c0.292,0.056,0.769,0.056,1.06,0l0.862-0.168c0.291-0.057,0.726,0.045,0.965,0.226l0.699,0.526
				c0.24,0.181,0.671,0.393,0.957,0.472l0.844,0.232c0.287,0.078,0.636,0.364,0.776,0.635l0.404,0.781
				c0.14,0.271,0.44,0.654,0.666,0.853l0.66,0.578c0.227,0.198,0.421,0.612,0.432,0.919l0.032,0.875
				c0.011,0.307,0.119,0.788,0.238,1.069l0.345,0.807c0.12,0.281,0.12,0.741,0,1.022l-0.345,0.809
				c-0.119,0.281-0.227,0.762-0.238,1.068l-0.032,0.876c-0.011,0.307-0.205,0.72-0.432,0.919l-0.66,0.578
				c-0.201,0.176-0.454,0.496-0.608,0.756c0.124-0.03,0.248-0.05,0.373-0.05c0.888,0,1.532,0.716,1.532,1.703v3.925l0.317-0.084
				c0.268-0.07,0.595-0.328,0.726-0.573l1.017-1.898c0.131-0.244,0.411-0.591,0.623-0.77l1.656-1.402
				c0.212-0.179,0.393-0.553,0.404-0.83l0.081-2.144c0.011-0.277,0.111-0.711,0.223-0.965l0.869-1.967
				C28.028,13.703,28.028,13.288,27.916,13.034"/>
			<path clip-path="url(#SVGID_2_)" fill="#231F20" d="M15,22.001h-2c-0.55,0-1,0.45-1,1v2c0,0.55,0.45,1,1,1h2c0.55,0,1-0.45,1-1
				v-2C16,22.451,15.55,22.001,15,22.001"/>
			<path clip-path="url(#SVGID_2_)" fill="#231F20" d="M20.106,20.104l-3.409,1.85C16.886,22.259,17,22.616,17,23.001v2
				c0,0.385-0.114,0.742-0.303,1.047l3.409,1.85c0.492,0.267,0.894-0.003,0.894-0.6v-6.594C21,20.107,20.598,19.837,20.106,20.104"
				/>
			<path clip-path="url(#SVGID_2_)" fill="#231F20" d="M11.304,21.954l-3.409-1.85C7.403,19.837,7,20.107,7,20.704v6.594
				c0,0.597,0.403,0.867,0.895,0.6l3.409-1.849C11.115,25.743,11,25.386,11,25.001v-2C11,22.616,11.115,22.259,11.304,21.954"/>
		</g>

</svg>
