<?xml version="1.0" encoding="utf-8"?>
<svg version="1.1" id="Layer_1" xmlns="http://www.w3.org/2000/svg" xmlns:xlink="http://www.w3.org/1999/xlink" x="0px" y="0px"
	 viewBox="0 0 28 28" enable-background="new 0 0 28 28" xml:space="preserve">
<g>
	<defs>
		<rect id="SVGID_1_" width="28" height="28"/>
	</defs>
	<clipPath id="SVGID_2_">
		<use xlink:href="#SVGID_1_"  overflow="visible"/>
	</clipPath>
	<path clip-path="url(#SVGID_2_)" d="M20.373,15.27c1.953,0,3.902-0.74,5.393-2.23c2.195-2.196,2.769-5.39,1.736-8.114l-4.793,4.795
		l-3.967-0.463l-0.461-3.967l4.793-4.795C22.199,0.166,21.279,0,20.355,0c-1.951,0-3.902,0.745-5.392,2.235
		c-2.194,2.193-2.77,5.386-1.736,8.111L0.918,22.657C0.305,23.268,0,24.068,0,24.869c0,0.803,0.305,1.604,0.918,2.215
		C1.529,27.695,2.329,28,3.131,28c0.801,0,1.603-0.304,2.215-0.916l12.31-12.31C18.527,15.105,19.451,15.27,20.373,15.27"/>
	<path clip-path="url(#SVGID_2_)" d="M23.938,19.284l-4.231-1.633L18.65,16.59c-0.193-0.037-0.388-0.062-0.577-0.111l-1.833,1.833
		l1.411,1.395l1.628,4.231L24.532,28l3.467-3.464L23.938,19.284z"/>
	<path clip-path="url(#SVGID_2_)" d="M6.795,12.207L6.795,12.207c0.127,0.126,0.728,0.559,1.414,1.036l3.313-3.314
		c-0.337-1.305-0.361-2.647-0.123-3.941l-1.364-1.363h-0.002L6.531,1.121c-1.494-1.494-3.916-1.492-5.412,0
		C0.373,1.868-0.002,2.846,0,3.827c0,0.98,0.373,1.957,1.119,2.705L6.795,12.207z"/>
</g>
</svg>
