<?xml version="1.0" encoding="utf-8"?>
<svg version="1.1" id="Layer_1" xmlns="http://www.w3.org/2000/svg" xmlns:xlink="http://www.w3.org/1999/xlink" x="0px" y="0px"
	 viewBox="0 0 28 28" enable-background="new 0 0 28 28" xml:space="preserve">
<g>
	<defs>
		<rect id="SVGID_1_" width="28" height="28"/>
	</defs>
	<clipPath id="SVGID_2_">
		<use xlink:href="#SVGID_1_"  overflow="visible"/>
	</clipPath>
	<path clip-path="url(#SVGID_2_)" d="M25.767,13.038c-2.195,2.194-5.387,2.768-8.111,1.736L5.347,27.084
		c-1.223,1.222-3.205,1.222-4.43,0c-0.611-0.611-0.918-1.412-0.918-2.215c0-0.8,0.307-1.602,0.918-2.214l12.311-12.309
		c-1.031-2.725-0.457-5.917,1.736-8.112c2.196-2.195,5.387-2.769,8.112-1.736l-4.795,4.793l0.462,3.966l3.967,0.464l4.791-4.795
		C28.537,7.65,27.96,10.843,25.767,13.038"/>
</g>
</svg>
