<?xml version="1.0" encoding="utf-8"?>
<svg version="1.1" id="Layer_1" xmlns="http://www.w3.org/2000/svg" xmlns:xlink="http://www.w3.org/1999/xlink" x="0px" y="0px"
	 viewBox="0 0 28 28" enable-background="new 0 0 28 28" xml:space="preserve">
<polygon points="0.002,28 6.037,25.835 2.168,21.966 "/>
<g>
	<defs>
		<rect id="SVGID_1_" width="28" height="28"/>
	</defs>
	<clipPath id="SVGID_2_">
		<use xlink:href="#SVGID_1_"  overflow="visible"/>
	</clipPath>
	<path clip-path="url(#SVGID_2_)" d="M27.067,0.934c-1.225-1.226-3.197-1.237-4.448-0.05l4.498,4.499
		C28.308,4.133,28.296,2.162,27.067,0.934"/>
	<path clip-path="url(#SVGID_2_)" d="M22.209,16.406c-0.699,0-1.4,0.126-2.063,0.377l-8.929-8.929
		c0.785-2.069,0.347-4.493-1.317-6.159C8.768,0.564,7.285,0,5.805,0H5.797C5.098,0,4.4,0.127,3.738,0.377l3.643,3.64L7.027,7.028
		L4.018,7.38L0.377,3.739c-0.783,2.068-0.346,4.493,1.32,6.159c1.131,1.131,2.612,1.696,4.094,1.696c0.699,0,1.51-0.126,2.172-0.376
		L17,20.145v0.002c-1,2.068-0.455,4.491,1.211,6.157C19.342,27.435,20.769,28,22.252,28c0.701,0,1.373-0.125,2.037-0.376
		l-3.654-3.641l0.343-3.01l3.008-0.352l3.637,3.639c0.783-2.067,0.348-4.492-1.318-6.158C25.174,16.97,23.691,16.406,22.209,16.406"
		/>
	
		<rect x="17.028" y="2.373" transform="matrix(0.7072 0.707 -0.707 0.7072 11.425 -12.0149)" clip-path="url(#SVGID_2_)" width="6.38" height="10.825"/>
	<polygon clip-path="url(#SVGID_2_)" points="2.699,20.795 7.207,25.305 13.963,18.551 9.425,14.068 	"/>
</g>
</svg>
