<?xml version="1.0" encoding="utf-8"?>
<svg version="1.1" id="Layer_1" xmlns="http://www.w3.org/2000/svg" xmlns:xlink="http://www.w3.org/1999/xlink" x="0px" y="0px"
	 viewBox="0 0 28 28" enable-background="new 0 0 28 28" xml:space="preserve">
<g>
	<defs>
		<rect id="SVGID_1_" width="28" height="28"/>
	</defs>
	<clipPath id="SVGID_2_">
		<use xlink:href="#SVGID_1_"  overflow="visible"/>
	</clipPath>
	<path clip-path="url(#SVGID_2_)" d="M11.216,20.146l8.929-8.931l0.001,0.001c2.069,0.784,4.493,0.349,6.159-1.318
		c1.665-1.665,2.102-4.09,1.317-6.158l-3.64,3.639l-3.01-0.351L20.62,4.016l3.639-3.639c-2.066-0.784-4.492-0.347-6.157,1.319
		c-1.666,1.666-2.102,4.09-1.32,6.158l-8.927,8.93c-2.069-0.785-4.494-0.349-6.16,1.316c-1.667,1.666-2.102,4.091-1.319,6.16
		l3.642-3.641l3.011,0.352l0.35,3.011l-3.64,3.641c2.067,0.784,4.494,0.346,6.16-1.319S11.999,22.213,11.216,20.146"/>
	<path clip-path="url(#SVGID_2_)" d="M20.972,20.972l3.01-0.352l3.641,3.641c0.786-2.069,0.348-4.494-1.319-6.159
		c-1.13-1.132-2.612-1.697-4.096-1.697c-0.699,0-1.399,0.126-2.064,0.378l-2.075-2.077l-3.362,3.362l2.078,2.078l-0.002,0.001
		c-0.784,2.067-0.347,4.491,1.318,6.157c1.131,1.131,2.613,1.694,4.097,1.694c0.7,0,1.399-0.125,2.063-0.376l-3.641-3.64
		L20.972,20.972z"/>
	<path clip-path="url(#SVGID_2_)" d="M13.294,9.93l-2.075-2.077c0.783-2.067,0.345-4.49-1.319-6.156
		C8.768,0.564,7.287,0.001,5.804,0.001c-0.701-0.003-1.4,0.126-2.064,0.377l3.64,3.638L7.029,7.028L4.018,7.379L0.376,3.74
		c-0.782,2.067-0.345,4.492,1.32,6.157c1.132,1.132,2.613,1.696,4.095,1.696c0.701,0,1.399-0.124,2.064-0.377l2.076,2.077
		L13.294,9.93z"/>
</g>
</svg>
