<?xml version="1.0" encoding="utf-8"?>
<svg version="1.1" id="Layer_1" xmlns="http://www.w3.org/2000/svg" xmlns:xlink="http://www.w3.org/1999/xlink" x="0px" y="0px"
	 viewBox="0 0 28 28" enable-background="new 0 0 28 28" xml:space="preserve">
<g>
	<defs>
		<rect id="SVGID_1_" width="28" height="28"/>
	</defs>
	<clipPath id="SVGID_2_">
		<use xlink:href="#SVGID_1_"  overflow="visible"/>
	</clipPath>
	<path clip-path="url(#SVGID_2_)" d="M24.5,23.002c0,0.828,0.672,1.498,1.498,1.498c0.83,0,1.502-0.67,1.502-1.498
		c0-0.83-0.672-1.502-1.502-1.502C25.172,21.5,24.5,22.172,24.5,23.002 M24.998,17.5c0.83,0,1.502-0.67,1.502-1.498
		c0-0.83-0.672-1.502-1.502-1.502c-0.826,0-1.498,0.672-1.498,1.502C23.5,16.83,24.172,17.5,24.998,17.5 M9.549,9.322l4.435-1.592
		l4.436,1.592L16.314,5.95l2.33-2.389l-3.22-0.492L13.984,0l-1.441,3.069L9.322,3.561l2.33,2.389L9.549,9.322z M21.107,21H25
		l-5.967-6H23l-3.324-3.879l-1.606-0.699l-4.086-1.53l-4.086,1.435l-1.607,0.811L5,15h3.934L3,21h3.859L0,28h28L21.107,21z M9,25.5
		c-0.828,0-1.5-0.672-1.5-1.5s0.672-1.5,1.5-1.5s1.5,0.672,1.5,1.5S9.828,25.5,9,25.5 M14.002,17.5c-0.83,0-1.502-0.672-1.502-1.5
		c0-0.828,0.672-1.5,1.502-1.5c0.828,0,1.498,0.672,1.498,1.5C15.5,16.828,14.83,17.5,14.002,17.5 M19,25.5
		c-0.826,0-1.5-0.672-1.5-1.5s0.674-1.5,1.5-1.5c0.83,0,1.5,0.672,1.5,1.5S19.83,25.5,19,25.5 M2.998,17.5
		c0.83,0,1.502-0.67,1.502-1.498c0-0.83-0.672-1.502-1.502-1.502c-0.826,0-1.498,0.672-1.498,1.502C1.5,16.83,2.172,17.5,2.998,17.5
		 M1.998,24.5c0.83,0,1.502-0.67,1.502-1.498c0-0.83-0.672-1.502-1.502-1.502c-0.826,0-1.498,0.672-1.498,1.502
		C0.5,23.83,1.172,24.5,1.998,24.5"/>
</g>
</svg>
