<?xml version="1.0" encoding="utf-8"?>
<svg version="1.1" id="Layer_1" xmlns="http://www.w3.org/2000/svg" xmlns:xlink="http://www.w3.org/1999/xlink" x="0px" y="0px"
	 viewBox="0 0 28 28" enable-background="new 0 0 28 28" xml:space="preserve">
<g>
	<defs>
		<rect id="SVGID_1_" width="28" height="28"/>
	</defs>
	<clipPath id="SVGID_2_">
		<use xlink:href="#SVGID_1_"  overflow="visible"/>
	</clipPath>
	<path clip-path="url(#SVGID_2_)" d="M11.686,0c-0.621,0-1.232,0.049-1.828,0.143c-0.071,0.738-0.113,1.567-0.1,2.453
		c0.914-0.013,3.451-0.195,6.547-1.642C14.889,0.341,13.327,0,11.686,0 M11.297,11.406c0.026,0,0.049-0.001,0.074-0.001
		c-2.623-3.52-2.849-7.97-2.593-11.04c-1.444,0.372-2.78,1.016-3.951,1.872c-0.065,2.513,0.484,5.727,2.837,8.81
		C8.84,11.282,10.053,11.406,11.297,11.406 M3.799,3.081C2.352,4.413,1.245,6.109,0.616,8.023c1.664,1.168,3.525,2.073,5.523,2.651
		C4.432,8.027,3.864,5.345,3.799,3.081 M10.452,7.26c0.371,0.017,4.877,0.129,9.904-3.387c-0.824-0.919-1.793-1.702-2.869-2.322
		c-3.561,1.852-6.547,2.078-7.684,2.086C9.883,4.812,10.078,6.046,10.452,7.26 M12.655,11.351c3.529-0.256,6.779-1.509,9.494-3.464
		c0.121-0.18,0.24-0.359,0.355-0.543c-0.379-0.954-0.875-1.849-1.482-2.66c-4.625,3.288-8.824,3.613-10.201,3.62
		C11.256,9.379,11.854,10.415,12.655,11.351 M10.7,19.681c0.199,0.006,0.396,0.022,0.597,0.022c4.221,0,8.114-1.414,11.242-3.79
		c0.418-1.075,0.684-2.226,0.768-3.429c-2.133,1.65-4.613,2.872-7.311,3.535C14.188,17.482,12.366,18.699,10.7,19.681
		 M17.975,14.312c1.963-0.759,3.77-1.838,5.35-3.177c-0.039-0.869-0.172-1.711-0.391-2.52c-0.016,0.012-0.031,0.021-0.045,0.031
		C21.426,10.802,19.735,12.681,17.975,14.312 M11.297,20.739c-0.758,0-1.504-0.049-2.24-0.135c-1.059,0.57-2.014,1.029-2.82,1.393
		c1.211,0.602,2.754,1.103,4.131,1.259c0.89-1.014,1.287-1.957,1.457-2.529C11.649,20.731,11.473,20.739,11.297,20.739
		 M11.635,23.331c0.018,0,0.033,0.002,0.051,0.002c1.939,0,3.766-0.477,5.375-1.317c0.344-0.987,0.488-1.821,0.545-2.32
		c-1.494,0.508-3.069,0.84-4.699,0.973C12.786,21.201,12.465,22.204,11.635,23.331 M21.793,27.032
		c-0.976-0.025-1.763-0.855-1.763-1.814h0.004c0.025-0.955,0.824-1.726,1.806-1.726h0.229c1.554,0,2.845-1.223,2.845-2.735
		c0-3.125-3.257-2.949-3.257-2.949c-0.924,0.567-1.967,1.077-2.983,1.49c-0.008,0.269-0.054,0.965-0.277,1.903
		c0.508-0.358,0.994-0.759,1.451-1.195c0.482-0.4,1.371-1.019,2.244-1.019v-0.001h0.022v0.003c0.978,0.026,1.765,0.807,1.765,1.768
		h-0.002c-0.027,0.954-0.826,1.723-1.808,1.723H21.84c-1.554,0-2.82,1.225-2.845,2.738c0,1.518,1.251,2.755,2.798,2.782v-0.003H28
		v-0.965H21.793z M13.758,16.437c-0.804,0.102-1.627,0.155-2.461,0.155c-4.148,0-7.998-1.293-11.174-3.497l0.172,1.015
		c0.192,0.906,0.487,1.774,0.877,2.588c2.27,1.478,4.883,2.467,7.69,2.837C10.358,18.719,12.039,17.691,13.758,16.437
		 M15.534,15.066c1.711-1.398,3.402-3.024,4.933-4.901c-2.74,1.452-5.859,2.279-9.17,2.279c-4.062,0-7.836-1.241-10.974-3.36
		C0.135,9.914,0,10.777,0,11.666c0,0.027,0.002,0.054,0.002,0.083c3.131,2.385,6.186,3.806,11.295,3.806
		C12.754,15.555,14.172,15.385,15.534,15.066 M2.266,18.531c0.799,1.097,1.789,2.041,2.912,2.801c0.629-0.27,1.391-0.618,2.25-1.048
		C5.829,19.877,3.524,19.183,2.266,18.531"/>
</g>
</svg>
