<?xml version="1.0" encoding="utf-8"?>
<svg version="1.1" id="Layer_1" xmlns="http://www.w3.org/2000/svg" xmlns:xlink="http://www.w3.org/1999/xlink" x="0px" y="0px" viewBox="0 0 28 28"
	 enable-background="new 0 0 28 28" xml:space="preserve">

		<g>
			<defs>
				<rect id="SVGID_1_" width="28" height="28"/>
			</defs>
			<clipPath id="SVGID_2_">
				<use xlink:href="#SVGID_1_"  overflow="visible"/>
			</clipPath>
			<path clip-path="url(#SVGID_2_)" fill="#231F20" d="M28,28c0-4-2.962-5-6-5h-1v-9.5c0-0.275,0.225-0.5,0.5-0.5
				c0.275,0,0.5,0.225,0.5,0.5V19c0,1.105,0.896,2,2,2s2-0.895,2-2c0-0.738-0.405-1.376-1-1.723V14c0-2.209-1.791-4-4-4V8
				c0-3.171-2.109-5.845-5-6.706V0l-2,0.667V0l-1.903,1.269C9.157,2.099,7,4.795,7,8v2c-2.209,0-4,1.791-4,4v3.277
				C2.405,17.624,2,18.262,2,19c0,1.105,0.896,2,2,2s2-0.895,2-2v-5.5C6,13.225,6.225,13,6.5,13S7,13.225,7,13.5V23H6
				c-3.038,0-6,1-6,5h2v-0.5C2,27.225,2.225,27,2.5,27S3,27.225,3,27.5V28h2v-0.5C5,27.225,5.225,27,5.5,27S6,27.225,6,27.5V28h7v-3
				c0-0.55,0.45-1,1-1c0.55,0,1,0.45,1,1v3h7v-0.5c0-0.275,0.225-0.5,0.5-0.5c0.275,0,0.5,0.225,0.5,0.5V28h2v-0.5
				c0-0.275,0.225-0.5,0.5-0.5s0.5,0.225,0.5,0.5V28H28z M16,6c0.552,0,1,0.448,1,1s-0.448,1-1,1c-0.552,0-1-0.448-1-1
				S15.448,6,16,6 M12,6c0.552,0,1,0.448,1,1s-0.448,1-1,1s-1-0.448-1-1S11.448,6,12,6 M10.5,11l0.5-1l0.5,1h5l0.5-1l0.5,1
				c0.275,0,0.5,0.225,0.5,0.5c0,0.275-0.225,0.5-0.5,0.5h-7c-0.275,0-0.5-0.225-0.5-0.5C10,11.225,10.225,11,10.5,11 M17,18v2
				c0,1.1-0.9,2-2,2h-2c-1.1,0-2-0.9-2-2v-2c-1.1,0-2-0.9-2-2s0.9-2,2-2l1,1l1-1l1,1l1-1l1,1l1-1c1.1,0,2,0.9,2,2S18.1,18,17,18"/>
			<path clip-path="url(#SVGID_2_)" fill="#231F20" d="M10.5,16c-0.276,0-0.5,0.224-0.5,0.5c0,0.276,0.224,0.5,0.5,0.5
				c0.276,0,0.5-0.224,0.5-0.5C11,16.224,10.776,16,10.5,16"/>
			<path clip-path="url(#SVGID_2_)" fill="#231F20" d="M17.5,16c-0.276,0-0.5,0.224-0.5,0.5c0,0.276,0.224,0.5,0.5,0.5
				c0.276,0,0.5-0.224,0.5-0.5C18,16.224,17.776,16,17.5,16"/>
			<path clip-path="url(#SVGID_2_)" fill="#231F20" d="M14,19.5c-0.276,0-0.5,0.224-0.5,0.5c0,0.276,0.224,0.5,0.5,0.5
				c0.276,0,0.5-0.224,0.5-0.5C14.5,19.724,14.276,19.5,14,19.5"/>
		</g>

</svg>
