<?xml version="1.0" encoding="utf-8"?>
<svg version="1.1" id="Layer_1" xmlns="http://www.w3.org/2000/svg" xmlns:xlink="http://www.w3.org/1999/xlink" x="0px" y="0px"
	 viewBox="0 0 28 28" enable-background="new 0 0 28 28" xml:space="preserve">
<g>
	<defs>
		<rect id="SVGID_1_" width="28" height="28"/>
	</defs>
	<clipPath id="SVGID_2_">
		<use xlink:href="#SVGID_1_"  overflow="visible"/>
	</clipPath>
	<path clip-path="url(#SVGID_2_)" d="M0,2.863c0.426,0.019,0.853,0.059,1.275,0.123l0.434-2.832C1.182,0.073,0.646,0.022,0.117,0
		L0,2.863z M16,9h-4v5H9v14h10V14h-3V9z M17,26h-6v-4h6V26z M8.883,3.37L7.068,5.59c0.33,0.269,0.655,0.562,0.967,0.872l2.018-2.037
		C9.676,4.051,9.283,3.696,8.883,3.37 M6.238,1.626L4.92,4.173c0.379,0.195,0.752,0.415,1.107,0.651l1.58-2.392
		C7.168,2.142,6.705,1.869,6.238,1.626 M2.531,3.249C2.945,3.36,3.353,3.491,3.75,3.645l1.035-2.672
		C4.293,0.782,3.783,0.616,3.269,0.479L2.531,3.249z M26.277,0.154l0.442,2.832C27.141,2.922,28,2.882,28,2.863V0L26.277,0.154z
		 M23.184,0.973l1.037,2.672c0.392-0.154,0.802-0.285,1.216-0.396l-0.736-2.77C24.185,0.616,23.676,0.782,23.184,0.973 M11.275,5
		L9,6.733V12h2V8h6v4h2V6.837L16.748,5H11.275z M20.361,2.432l1.58,2.392c0.356-0.236,0.729-0.456,1.108-0.651L21.73,1.626
		C21.262,1.869,20.801,2.142,20.361,2.432 M17.916,4.425l2.018,2.037c0.31-0.31,0.636-0.603,0.966-0.872l-1.814-2.22
		C18.685,3.696,18.293,4.051,17.916,4.425"/>
</g>
</svg>
