<?xml version="1.0" encoding="utf-8"?>
<svg version="1.1" id="Layer_1" xmlns="http://www.w3.org/2000/svg" xmlns:xlink="http://www.w3.org/1999/xlink" x="0px" y="0px" viewBox="0 0 28 28"
	 enable-background="new 0 0 28 28" xml:space="preserve">

		<g>
			<defs>
				<rect id="SVGID_1_" width="28" height="28"/>
			</defs>
			<clipPath id="SVGID_2_">
				<use xlink:href="#SVGID_1_"  overflow="visible"/>
			</clipPath>
			<path clip-path="url(#SVGID_2_)" fill="#231F20" d="M19,22v1c0,0.553-0.447,1-1,1c-0.553,0-1-0.447-1-1v-1h-2v1
				c0,0.553-0.447,1-1,1c-0.553,0-1-0.447-1-1v-1h-2v1c0,0.553-0.447,1-1,1s-1-0.447-1-1v-1H6.268c0.889,3.448,4.006,6,7.732,6
				s6.843-2.552,7.732-6H19z"/>
			<path clip-path="url(#SVGID_2_)" fill="#231F20" d="M25,9.142V10.5c0,0.276-0.224,0.5-0.5,0.5c-0.276,0-0.5-0.224-0.5-0.5V9
				c0-1.229-0.263-2.396-0.739-3.459C22.915,5.823,22.48,6,22,6c-0.873,0-1.607-0.562-1.881-1.343C19.8,4.873,19.415,5,19,5
				c-1.104,0-2-0.896-2-2c0-0.378,0.111-0.728,0.294-1.029C17.197,1.984,17.101,2,17,2c-1.09,0-1.972-0.872-1.995-1.956
				C14.676,0.017,14.342,0,14.002,0C8.311,0,4,4,4,9v1.5C4,10.776,3.776,11,3.5,11S3,10.776,3,10.5V9.142C1.278,9.588,0,11.139,0,13
				c0,2.209,1.791,4,4,4l2,4h0.069H9v-1c0-0.553,0.447-1,1-1s1,0.447,1,1v1h2v-1c0-0.553,0.447-1,1-1c0.553,0,1,0.447,1,1v1h2v-1
				c0-0.553,0.447-1,1-1c0.553,0,1,0.447,1,1v1h2.931H22l2-4c2.209,0,4-1.791,4-4C28,11.139,26.722,9.588,25,9.142 M9.502,13
				C8.122,13,7,11.881,7,10.5C7,9.119,8.122,8,9.502,8C10.885,8,12,9.119,12,10.5C12,11.881,10.885,13,9.502,13 M20.5,11h-4
				c-0.276,0-0.5-0.224-0.5-0.5c0-0.276,0.224-0.5,0.5-0.5h4c0.276,0,0.5,0.224,0.5,0.5C21,10.776,20.776,11,20.5,11"/>
		</g>

</svg>
