<?xml version="1.0" encoding="utf-8"?>
<svg version="1.1" id="Layer_1" xmlns="http://www.w3.org/2000/svg" xmlns:xlink="http://www.w3.org/1999/xlink" x="0px" y="0px" viewBox="0 0 28 28"
	 enable-background="new 0 0 28 28" xml:space="preserve">

	<g>
		<polygon fill="#231F20" points="0,12 0,16.001 6,16.001 0,24.001 0,28 11,28 11,24.001 5,24.001 11,16.001 11,12 		"/>
		<polygon fill="#231F20" points="12,9 16,9 12,14 12,17 20,17 20,14 16,14 20,9 20,6 12,6 		"/>
		<polygon fill="#231F20" points="21,0 21,2.625 24.5,2.625 21,7 21,9.625 28,9.625 28,7 24.5,7 28,2.625 28,0 		"/>
	</g>

</svg>
