<svg xmlns="http://www.w3.org/2000/svg" viewBox="0 0 24 24"><title>beer-mug</title><g id="beer-mug"><path d="M19.5,9.5A5.39,5.39,0,0,1,18,9.28V18a1,1,0,0,1-2,0V9.64a5.74,5.74,0,0,1-4,0V18a1,1,0,0,1-2,0V9.28a5.39,5.39,0,0,1-1.5.22A5.47,5.47,0,0,1,6.22,9H4a3,3,0,0,0-3,3v5a3,3,0,0,0,3,3H6a4,4,0,0,0,4,4h8a4,4,0,0,0,4-4V9h-.22A5.47,5.47,0,0,1,19.5,9.5ZM6,18H4a1,1,0,0,1-1-1V12a1,1,0,0,1,1-1H6ZM8.5,7.5a3.5,3.5,0,0,0,2.42-1,3.94,3.94,0,0,0,6.16,0,3.5,3.5,0,1,0,0-5,3.94,3.94,0,0,0-6.16,0,3.5,3.5,0,1,0-2.42,6Z"/></g></svg>